<?xml version="1.0" standalone="no"?>
 <!DOCTYPE svg PUBLIC "-//W3C//DTD SVG 1.1//EN" 
 "http://www.w3.org/Graphics/SVG/1.1/DTD/svg11.dtd"> 
<svg
  xmlns:svg="http://www.w3.org/2000/svg"
  xmlns="http://www.w3.org/2000/svg"
  xmlns:xlink="http://www.w3.org/1999/xlink"
  version="1.1"
  width="41.998900cm" height="29.700220cm" viewBox="0 0 165350 116930">
<title>SVG Picture created as yacc46_plate-brd.svg date 2020/11/23 20:13:36 </title>
  <desc>Picture generated by PCBNEW </desc>
<g style="fill:#000000; fill-opacity:1;stroke:#000000; stroke-opacity:1;
stroke-linecap:round; stroke-linejoin:round;"
 transform="translate(0 0) scale(1 1)">
</g>
<g style="fill:#000000; fill-opacity:0.0; 
stroke:#000000; stroke-width:-0.000393701; stroke-opacity:1; 
stroke-linecap:round; stroke-linejoin:round;">
</g>
<g style="fill:#000000; fill-opacity:0.0; 
stroke:#000000; stroke-width:39.3701; stroke-opacity:1; 
stroke-linecap:round; stroke-linejoin:round;">
</g>
<g style="fill:#000000; fill-opacity:0.0; 
stroke:#000000; stroke-width:59.0551; stroke-opacity:1; 
stroke-linecap:round; stroke-linejoin:round;">
<rect x="118106" y="99607.2" width="42519.7" height="12598.4" rx="0" />
</g>
<g style="fill:#000000; fill-opacity:0.0; 
stroke:#000000; stroke-width:39.3701; stroke-opacity:1; 
stroke-linecap:round; stroke-linejoin:round;">
</g>
<g style="fill:#000000; fill-opacity:0.0; 
stroke:#000000; stroke-width:59.0551; stroke-opacity:1; 
stroke-linecap:round; stroke-linejoin:round;">
<rect x="3937.01" y="3937.01" width="157476" height="109056" rx="0" />
</g>
<g style="fill:#000000; fill-opacity:0.0; 
stroke:#000000; stroke-width:39.3701; stroke-opacity:1; 
stroke-linecap:round; stroke-linejoin:round;">
</g>
<g style="fill:#000000; fill-opacity:0.0; 
stroke:#000000; stroke-width:59.0551; stroke-opacity:1; 
stroke-linecap:round; stroke-linejoin:round;">
<rect x="4724.41" y="4724.41" width="155901" height="107481" rx="0" />
</g>
<g style="fill:#000000; fill-opacity:0.0; 
stroke:#000000; stroke-width:39.3701; stroke-opacity:1; 
stroke-linecap:round; stroke-linejoin:round;">
</g>
<g style="fill:#000000; fill-opacity:0.0; 
stroke:#000000; stroke-width:59.0551; stroke-opacity:1; 
stroke-linecap:round; stroke-linejoin:round;">
<path d="M23622 4724
L23622 3937
" />
</g>
<g style="fill:#000000; fill-opacity:0.0; 
stroke:#000000; stroke-width:39.3701; stroke-opacity:1; 
stroke-linecap:round; stroke-linejoin:round;">
</g>
<g style="fill:#000000; fill-opacity:0.0; 
stroke:#000000; stroke-width:59.0551; stroke-opacity:1; 
stroke-linecap:round; stroke-linejoin:round;">
<path d="M43307 4724
L43307 3937
" />
</g>
<g style="fill:#000000; fill-opacity:0.0; 
stroke:#000000; stroke-width:39.3701; stroke-opacity:1; 
stroke-linecap:round; stroke-linejoin:round;">
</g>
<g style="fill:#000000; fill-opacity:0.0; 
stroke:#000000; stroke-width:59.0551; stroke-opacity:1; 
stroke-linecap:round; stroke-linejoin:round;">
<path d="M62992 4724
L62992 3937
" />
</g>
<g style="fill:#000000; fill-opacity:0.0; 
stroke:#000000; stroke-width:39.3701; stroke-opacity:1; 
stroke-linecap:round; stroke-linejoin:round;">
</g>
<g style="fill:#000000; fill-opacity:0.0; 
stroke:#000000; stroke-width:59.0551; stroke-opacity:1; 
stroke-linecap:round; stroke-linejoin:round;">
<path d="M82677 4724
L82677 3937
" />
</g>
<g style="fill:#000000; fill-opacity:0.0; 
stroke:#000000; stroke-width:39.3701; stroke-opacity:1; 
stroke-linecap:round; stroke-linejoin:round;">
</g>
<g style="fill:#000000; fill-opacity:0.0; 
stroke:#000000; stroke-width:59.0551; stroke-opacity:1; 
stroke-linecap:round; stroke-linejoin:round;">
<path d="M102362 4724
L102362 3937
" />
</g>
<g style="fill:#000000; fill-opacity:0.0; 
stroke:#000000; stroke-width:39.3701; stroke-opacity:1; 
stroke-linecap:round; stroke-linejoin:round;">
</g>
<g style="fill:#000000; fill-opacity:0.0; 
stroke:#000000; stroke-width:59.0551; stroke-opacity:1; 
stroke-linecap:round; stroke-linejoin:round;">
<path d="M122047 4724
L122047 3937
" />
</g>
<g style="fill:#000000; fill-opacity:0.0; 
stroke:#000000; stroke-width:39.3701; stroke-opacity:1; 
stroke-linecap:round; stroke-linejoin:round;">
</g>
<g style="fill:#000000; fill-opacity:0.0; 
stroke:#000000; stroke-width:59.0551; stroke-opacity:1; 
stroke-linecap:round; stroke-linejoin:round;">
<path d="M141732 4724
L141732 3937
" />
</g>
<g style="fill:#000000; fill-opacity:0.0; 
stroke:#000000; stroke-width:39.3701; stroke-opacity:1; 
stroke-linecap:round; stroke-linejoin:round;">
</g>
<g style="fill:#000000; fill-opacity:0.0; 
stroke:#000000; stroke-width:59.0551; stroke-opacity:1; 
stroke-linecap:round; stroke-linejoin:round;">
<text x="13779.5" y="4586.61"
textLength="487.439" font-size="682.415" lengthAdjust="spacingAndGlyphs"
text-anchor="start" opacity="0">1</text>
<path d="M14199 4562
L13906 4562
" />
<path d="M14052 4562
L14052 4050
L14004 4123
L13955 4172
L13906 4196
" />
</g>
<g style="fill:#000000; fill-opacity:0.0; 
stroke:#000000; stroke-width:39.3701; stroke-opacity:1; 
stroke-linecap:round; stroke-linejoin:round;">
</g>
<g style="fill:#000000; fill-opacity:0.0; 
stroke:#000000; stroke-width:59.0551; stroke-opacity:1; 
stroke-linecap:round; stroke-linejoin:round;">
<text x="33464.6" y="4586.61"
textLength="546.494" font-size="682.415" lengthAdjust="spacingAndGlyphs"
text-anchor="start" opacity="0">2</text>
<path d="M33591 4099
L33615 4074
L33664 4050
L33786 4050
L33835 4074
L33859 4099
L33884 4147
L33884 4196
L33859 4269
L33567 4562
L33884 4562
" />
</g>
<g style="fill:#000000; fill-opacity:0.0; 
stroke:#000000; stroke-width:39.3701; stroke-opacity:1; 
stroke-linecap:round; stroke-linejoin:round;">
</g>
<g style="fill:#000000; fill-opacity:0.0; 
stroke:#000000; stroke-width:59.0551; stroke-opacity:1; 
stroke-linecap:round; stroke-linejoin:round;">
<text x="53149.6" y="4586.61"
textLength="546.494" font-size="682.415" lengthAdjust="spacingAndGlyphs"
text-anchor="start" opacity="0">3</text>
<path d="M53252 4050
L53569 4050
L53398 4245
L53471 4245
L53520 4269
L53544 4294
L53569 4342
L53569 4464
L53544 4513
L53520 4537
L53471 4562
L53325 4562
L53276 4537
L53252 4513
" />
</g>
<g style="fill:#000000; fill-opacity:0.0; 
stroke:#000000; stroke-width:39.3701; stroke-opacity:1; 
stroke-linecap:round; stroke-linejoin:round;">
</g>
<g style="fill:#000000; fill-opacity:0.0; 
stroke:#000000; stroke-width:59.0551; stroke-opacity:1; 
stroke-linecap:round; stroke-linejoin:round;">
<text x="72834.6" y="4586.61"
textLength="546.494" font-size="682.415" lengthAdjust="spacingAndGlyphs"
text-anchor="start" opacity="0">4</text>
<path d="M73205 4221
L73205 4562
" />
<path d="M73083 4026
L72961 4391
L73278 4391
" />
</g>
<g style="fill:#000000; fill-opacity:0.0; 
stroke:#000000; stroke-width:39.3701; stroke-opacity:1; 
stroke-linecap:round; stroke-linejoin:round;">
</g>
<g style="fill:#000000; fill-opacity:0.0; 
stroke:#000000; stroke-width:59.0551; stroke-opacity:1; 
stroke-linecap:round; stroke-linejoin:round;">
<text x="92519.7" y="4586.61"
textLength="546.494" font-size="682.415" lengthAdjust="spacingAndGlyphs"
text-anchor="start" opacity="0">5</text>
<path d="M92914 4050
L92671 4050
L92646 4294
L92671 4269
L92719 4245
L92841 4245
L92890 4269
L92914 4294
L92939 4342
L92939 4464
L92914 4513
L92890 4537
L92841 4562
L92719 4562
L92671 4537
L92646 4513
" />
</g>
<g style="fill:#000000; fill-opacity:0.0; 
stroke:#000000; stroke-width:39.3701; stroke-opacity:1; 
stroke-linecap:round; stroke-linejoin:round;">
</g>
<g style="fill:#000000; fill-opacity:0.0; 
stroke:#000000; stroke-width:59.0551; stroke-opacity:1; 
stroke-linecap:round; stroke-linejoin:round;">
<text x="112205" y="4586.61"
textLength="546.494" font-size="682.415" lengthAdjust="spacingAndGlyphs"
text-anchor="start" opacity="0">6</text>
<path d="M112575 4050
L112477 4050
L112429 4074
L112404 4099
L112356 4172
L112331 4269
L112331 4464
L112356 4513
L112380 4537
L112429 4562
L112526 4562
L112575 4537
L112599 4513
L112624 4464
L112624 4342
L112599 4294
L112575 4269
L112526 4245
L112429 4245
L112380 4269
L112356 4294
L112331 4342
" />
</g>
<g style="fill:#000000; fill-opacity:0.0; 
stroke:#000000; stroke-width:39.3701; stroke-opacity:1; 
stroke-linecap:round; stroke-linejoin:round;">
</g>
<g style="fill:#000000; fill-opacity:0.0; 
stroke:#000000; stroke-width:59.0551; stroke-opacity:1; 
stroke-linecap:round; stroke-linejoin:round;">
<text x="131890" y="4586.61"
textLength="546.494" font-size="682.415" lengthAdjust="spacingAndGlyphs"
text-anchor="start" opacity="0">7</text>
<path d="M131992 4050
L132333 4050
L132114 4562
" />
</g>
<g style="fill:#000000; fill-opacity:0.0; 
stroke:#000000; stroke-width:39.3701; stroke-opacity:1; 
stroke-linecap:round; stroke-linejoin:round;">
</g>
<g style="fill:#000000; fill-opacity:0.0; 
stroke:#000000; stroke-width:59.0551; stroke-opacity:1; 
stroke-linecap:round; stroke-linejoin:round;">
<text x="151575" y="4586.61"
textLength="546.494" font-size="682.415" lengthAdjust="spacingAndGlyphs"
text-anchor="start" opacity="0">8</text>
<path d="M151799 4269
L151750 4245
L151726 4221
L151701 4172
L151701 4147
L151726 4099
L151750 4074
L151799 4050
L151896 4050
L151945 4074
L151969 4099
L151994 4147
L151994 4172
L151969 4221
L151945 4245
L151896 4269
L151799 4269
L151750 4294
L151726 4318
L151701 4367
L151701 4464
L151726 4513
L151750 4537
L151799 4562
L151896 4562
L151945 4537
L151969 4513
L151994 4464
L151994 4367
L151969 4318
L151945 4294
L151896 4269
" />
</g>
<g style="fill:#000000; fill-opacity:0.0; 
stroke:#000000; stroke-width:39.3701; stroke-opacity:1; 
stroke-linecap:round; stroke-linejoin:round;">
</g>
<g style="fill:#000000; fill-opacity:0.0; 
stroke:#000000; stroke-width:59.0551; stroke-opacity:1; 
stroke-linecap:round; stroke-linejoin:round;">
<path d="M23622 112205
L23622 112992
" />
</g>
<g style="fill:#000000; fill-opacity:0.0; 
stroke:#000000; stroke-width:39.3701; stroke-opacity:1; 
stroke-linecap:round; stroke-linejoin:round;">
</g>
<g style="fill:#000000; fill-opacity:0.0; 
stroke:#000000; stroke-width:59.0551; stroke-opacity:1; 
stroke-linecap:round; stroke-linejoin:round;">
<path d="M43307 112205
L43307 112992
" />
</g>
<g style="fill:#000000; fill-opacity:0.0; 
stroke:#000000; stroke-width:39.3701; stroke-opacity:1; 
stroke-linecap:round; stroke-linejoin:round;">
</g>
<g style="fill:#000000; fill-opacity:0.0; 
stroke:#000000; stroke-width:59.0551; stroke-opacity:1; 
stroke-linecap:round; stroke-linejoin:round;">
<path d="M62992 112205
L62992 112992
" />
</g>
<g style="fill:#000000; fill-opacity:0.0; 
stroke:#000000; stroke-width:39.3701; stroke-opacity:1; 
stroke-linecap:round; stroke-linejoin:round;">
</g>
<g style="fill:#000000; fill-opacity:0.0; 
stroke:#000000; stroke-width:59.0551; stroke-opacity:1; 
stroke-linecap:round; stroke-linejoin:round;">
<path d="M82677 112205
L82677 112992
" />
</g>
<g style="fill:#000000; fill-opacity:0.0; 
stroke:#000000; stroke-width:39.3701; stroke-opacity:1; 
stroke-linecap:round; stroke-linejoin:round;">
</g>
<g style="fill:#000000; fill-opacity:0.0; 
stroke:#000000; stroke-width:59.0551; stroke-opacity:1; 
stroke-linecap:round; stroke-linejoin:round;">
<path d="M102362 112205
L102362 112992
" />
</g>
<g style="fill:#000000; fill-opacity:0.0; 
stroke:#000000; stroke-width:39.3701; stroke-opacity:1; 
stroke-linecap:round; stroke-linejoin:round;">
</g>
<g style="fill:#000000; fill-opacity:0.0; 
stroke:#000000; stroke-width:59.0551; stroke-opacity:1; 
stroke-linecap:round; stroke-linejoin:round;">
<path d="M122047 112205
L122047 112992
" />
</g>
<g style="fill:#000000; fill-opacity:0.0; 
stroke:#000000; stroke-width:39.3701; stroke-opacity:1; 
stroke-linecap:round; stroke-linejoin:round;">
</g>
<g style="fill:#000000; fill-opacity:0.0; 
stroke:#000000; stroke-width:59.0551; stroke-opacity:1; 
stroke-linecap:round; stroke-linejoin:round;">
<path d="M141732 112205
L141732 112992
" />
</g>
<g style="fill:#000000; fill-opacity:0.0; 
stroke:#000000; stroke-width:39.3701; stroke-opacity:1; 
stroke-linecap:round; stroke-linejoin:round;">
</g>
<g style="fill:#000000; fill-opacity:0.0; 
stroke:#000000; stroke-width:59.0551; stroke-opacity:1; 
stroke-linecap:round; stroke-linejoin:round;">
<text x="13779.5" y="112855"
textLength="546.494" font-size="682.415" lengthAdjust="spacingAndGlyphs"
text-anchor="start" opacity="0">1</text>
<path d="M14199 112830
L13906 112830
" />
<path d="M14052 112830
L14052 112319
L14004 112392
L13955 112440
L13906 112465
" />
</g>
<g style="fill:#000000; fill-opacity:0.0; 
stroke:#000000; stroke-width:39.3701; stroke-opacity:1; 
stroke-linecap:round; stroke-linejoin:round;">
</g>
<g style="fill:#000000; fill-opacity:0.0; 
stroke:#000000; stroke-width:59.0551; stroke-opacity:1; 
stroke-linecap:round; stroke-linejoin:round;">
<text x="33464.6" y="112855"
textLength="546.494" font-size="682.415" lengthAdjust="spacingAndGlyphs"
text-anchor="start" opacity="0">2</text>
<path d="M33591 112367
L33615 112343
L33664 112319
L33786 112319
L33835 112343
L33859 112367
L33884 112416
L33884 112465
L33859 112538
L33567 112830
L33884 112830
" />
</g>
<g style="fill:#000000; fill-opacity:0.0; 
stroke:#000000; stroke-width:39.3701; stroke-opacity:1; 
stroke-linecap:round; stroke-linejoin:round;">
</g>
<g style="fill:#000000; fill-opacity:0.0; 
stroke:#000000; stroke-width:59.0551; stroke-opacity:1; 
stroke-linecap:round; stroke-linejoin:round;">
<text x="53149.6" y="112855"
textLength="546.494" font-size="682.415" lengthAdjust="spacingAndGlyphs"
text-anchor="start" opacity="0">3</text>
<path d="M53252 112319
L53569 112319
L53398 112513
L53471 112513
L53520 112538
L53544 112562
L53569 112611
L53569 112733
L53544 112782
L53520 112806
L53471 112830
L53325 112830
L53276 112806
L53252 112782
" />
</g>
<g style="fill:#000000; fill-opacity:0.0; 
stroke:#000000; stroke-width:39.3701; stroke-opacity:1; 
stroke-linecap:round; stroke-linejoin:round;">
</g>
<g style="fill:#000000; fill-opacity:0.0; 
stroke:#000000; stroke-width:59.0551; stroke-opacity:1; 
stroke-linecap:round; stroke-linejoin:round;">
<text x="72834.6" y="112855"
textLength="546.494" font-size="682.415" lengthAdjust="spacingAndGlyphs"
text-anchor="start" opacity="0">4</text>
<path d="M73205 112489
L73205 112830
" />
<path d="M73083 112294
L72961 112660
L73278 112660
" />
</g>
<g style="fill:#000000; fill-opacity:0.0; 
stroke:#000000; stroke-width:39.3701; stroke-opacity:1; 
stroke-linecap:round; stroke-linejoin:round;">
</g>
<g style="fill:#000000; fill-opacity:0.0; 
stroke:#000000; stroke-width:59.0551; stroke-opacity:1; 
stroke-linecap:round; stroke-linejoin:round;">
<text x="92519.7" y="112855"
textLength="546.494" font-size="682.415" lengthAdjust="spacingAndGlyphs"
text-anchor="start" opacity="0">5</text>
<path d="M92914 112319
L92671 112319
L92646 112562
L92671 112538
L92719 112513
L92841 112513
L92890 112538
L92914 112562
L92939 112611
L92939 112733
L92914 112782
L92890 112806
L92841 112830
L92719 112830
L92671 112806
L92646 112782
" />
</g>
<g style="fill:#000000; fill-opacity:0.0; 
stroke:#000000; stroke-width:39.3701; stroke-opacity:1; 
stroke-linecap:round; stroke-linejoin:round;">
</g>
<g style="fill:#000000; fill-opacity:0.0; 
stroke:#000000; stroke-width:59.0551; stroke-opacity:1; 
stroke-linecap:round; stroke-linejoin:round;">
<text x="112205" y="112855"
textLength="546.494" font-size="682.415" lengthAdjust="spacingAndGlyphs"
text-anchor="start" opacity="0">6</text>
<path d="M112575 112319
L112477 112319
L112429 112343
L112404 112367
L112356 112440
L112331 112538
L112331 112733
L112356 112782
L112380 112806
L112429 112830
L112526 112830
L112575 112806
L112599 112782
L112624 112733
L112624 112611
L112599 112562
L112575 112538
L112526 112513
L112429 112513
L112380 112538
L112356 112562
L112331 112611
" />
</g>
<g style="fill:#000000; fill-opacity:0.0; 
stroke:#000000; stroke-width:39.3701; stroke-opacity:1; 
stroke-linecap:round; stroke-linejoin:round;">
</g>
<g style="fill:#000000; fill-opacity:0.0; 
stroke:#000000; stroke-width:59.0551; stroke-opacity:1; 
stroke-linecap:round; stroke-linejoin:round;">
<text x="131890" y="112855"
textLength="546.494" font-size="682.415" lengthAdjust="spacingAndGlyphs"
text-anchor="start" opacity="0">7</text>
<path d="M131992 112319
L132333 112319
L132114 112830
" />
</g>
<g style="fill:#000000; fill-opacity:0.0; 
stroke:#000000; stroke-width:39.3701; stroke-opacity:1; 
stroke-linecap:round; stroke-linejoin:round;">
</g>
<g style="fill:#000000; fill-opacity:0.0; 
stroke:#000000; stroke-width:59.0551; stroke-opacity:1; 
stroke-linecap:round; stroke-linejoin:round;">
<text x="151575" y="112855"
textLength="546.494" font-size="682.415" lengthAdjust="spacingAndGlyphs"
text-anchor="start" opacity="0">8</text>
<path d="M151799 112538
L151750 112513
L151726 112489
L151701 112440
L151701 112416
L151726 112367
L151750 112343
L151799 112319
L151896 112319
L151945 112343
L151969 112367
L151994 112416
L151994 112440
L151969 112489
L151945 112513
L151896 112538
L151799 112538
L151750 112562
L151726 112587
L151701 112635
L151701 112733
L151726 112782
L151750 112806
L151799 112830
L151896 112830
L151945 112806
L151969 112782
L151994 112733
L151994 112635
L151969 112587
L151945 112562
L151896 112538
" />
</g>
<g style="fill:#000000; fill-opacity:0.0; 
stroke:#000000; stroke-width:39.3701; stroke-opacity:1; 
stroke-linecap:round; stroke-linejoin:round;">
</g>
<g style="fill:#000000; fill-opacity:0.0; 
stroke:#000000; stroke-width:59.0551; stroke-opacity:1; 
stroke-linecap:round; stroke-linejoin:round;">
<path d="M3937 23622
L4724 23622
" />
</g>
<g style="fill:#000000; fill-opacity:0.0; 
stroke:#000000; stroke-width:39.3701; stroke-opacity:1; 
stroke-linecap:round; stroke-linejoin:round;">
</g>
<g style="fill:#000000; fill-opacity:0.0; 
stroke:#000000; stroke-width:59.0551; stroke-opacity:1; 
stroke-linecap:round; stroke-linejoin:round;">
<path d="M3937 43307
L4724 43307
" />
</g>
<g style="fill:#000000; fill-opacity:0.0; 
stroke:#000000; stroke-width:39.3701; stroke-opacity:1; 
stroke-linecap:round; stroke-linejoin:round;">
</g>
<g style="fill:#000000; fill-opacity:0.0; 
stroke:#000000; stroke-width:59.0551; stroke-opacity:1; 
stroke-linecap:round; stroke-linejoin:round;">
<path d="M3937 62992
L4724 62992
" />
</g>
<g style="fill:#000000; fill-opacity:0.0; 
stroke:#000000; stroke-width:39.3701; stroke-opacity:1; 
stroke-linecap:round; stroke-linejoin:round;">
</g>
<g style="fill:#000000; fill-opacity:0.0; 
stroke:#000000; stroke-width:59.0551; stroke-opacity:1; 
stroke-linecap:round; stroke-linejoin:round;">
<path d="M3937 82677
L4724 82677
" />
</g>
<g style="fill:#000000; fill-opacity:0.0; 
stroke:#000000; stroke-width:39.3701; stroke-opacity:1; 
stroke-linecap:round; stroke-linejoin:round;">
</g>
<g style="fill:#000000; fill-opacity:0.0; 
stroke:#000000; stroke-width:59.0551; stroke-opacity:1; 
stroke-linecap:round; stroke-linejoin:round;">
<path d="M3937 102362
L4724 102362
" />
</g>
<g style="fill:#000000; fill-opacity:0.0; 
stroke:#000000; stroke-width:39.3701; stroke-opacity:1; 
stroke-linecap:round; stroke-linejoin:round;">
</g>
<g style="fill:#000000; fill-opacity:0.0; 
stroke:#000000; stroke-width:59.0551; stroke-opacity:1; 
stroke-linecap:round; stroke-linejoin:round;">
<text x="4330.71" y="14035.4"
textLength="497.75" font-size="682.415" lengthAdjust="spacingAndGlyphs"
text-anchor="middle" opacity="0">A</text>
<path d="M4208 13864
L4452 13864
" />
<path d="M4160 14011
L4330 13499
L4501 14011
" />
</g>
<g style="fill:#000000; fill-opacity:0.0; 
stroke:#000000; stroke-width:39.3701; stroke-opacity:1; 
stroke-linecap:round; stroke-linejoin:round;">
</g>
<g style="fill:#000000; fill-opacity:0.0; 
stroke:#000000; stroke-width:59.0551; stroke-opacity:1; 
stroke-linecap:round; stroke-linejoin:round;">
<text x="4330.71" y="33720.5"
textLength="570.866" font-size="682.415" lengthAdjust="spacingAndGlyphs"
text-anchor="middle" opacity="0">B</text>
<path d="M4367 33428
L4440 33452
L4464 33476
L4489 33525
L4489 33598
L4464 33647
L4440 33671
L4391 33696
L4196 33696
L4196 33184
L4367 33184
L4416 33208
L4440 33233
L4464 33281
L4464 33330
L4440 33379
L4416 33403
L4367 33428
L4196 33428
" />
</g>
<g style="fill:#000000; fill-opacity:0.0; 
stroke:#000000; stroke-width:39.3701; stroke-opacity:1; 
stroke-linecap:round; stroke-linejoin:round;">
</g>
<g style="fill:#000000; fill-opacity:0.0; 
stroke:#000000; stroke-width:59.0551; stroke-opacity:1; 
stroke-linecap:round; stroke-linejoin:round;">
<text x="4330.71" y="53405.5"
textLength="570.866" font-size="682.415" lengthAdjust="spacingAndGlyphs"
text-anchor="middle" opacity="0">C</text>
<path d="M4489 53332
L4464 53356
L4391 53381
L4342 53381
L4269 53356
L4221 53308
L4196 53259
L4172 53161
L4172 53088
L4196 52991
L4221 52942
L4269 52893
L4342 52869
L4391 52869
L4464 52893
L4489 52918
" />
</g>
<g style="fill:#000000; fill-opacity:0.0; 
stroke:#000000; stroke-width:39.3701; stroke-opacity:1; 
stroke-linecap:round; stroke-linejoin:round;">
</g>
<g style="fill:#000000; fill-opacity:0.0; 
stroke:#000000; stroke-width:59.0551; stroke-opacity:1; 
stroke-linecap:round; stroke-linejoin:round;">
<text x="4330.71" y="73090.6"
textLength="570.866" font-size="682.415" lengthAdjust="spacingAndGlyphs"
text-anchor="middle" opacity="0">D</text>
<path d="M4196 73066
L4196 72554
L4318 72554
L4391 72578
L4440 72627
L4464 72676
L4489 72773
L4489 72846
L4464 72944
L4440 72993
L4391 73041
L4318 73066
L4196 73066
" />
</g>
<g style="fill:#000000; fill-opacity:0.0; 
stroke:#000000; stroke-width:39.3701; stroke-opacity:1; 
stroke-linecap:round; stroke-linejoin:round;">
</g>
<g style="fill:#000000; fill-opacity:0.0; 
stroke:#000000; stroke-width:59.0551; stroke-opacity:1; 
stroke-linecap:round; stroke-linejoin:round;">
<text x="4330.71" y="92775.6"
textLength="522.122" font-size="682.415" lengthAdjust="spacingAndGlyphs"
text-anchor="middle" opacity="0">E</text>
<path d="M4221 92483
L4391 92483
" />
<path d="M4464 92751
L4221 92751
L4221 92239
L4464 92239
" />
</g>
<g style="fill:#000000; fill-opacity:0.0; 
stroke:#000000; stroke-width:39.3701; stroke-opacity:1; 
stroke-linecap:round; stroke-linejoin:round;">
</g>
<g style="fill:#000000; fill-opacity:0.0; 
stroke:#000000; stroke-width:59.0551; stroke-opacity:1; 
stroke-linecap:round; stroke-linejoin:round;">
<text x="4330.71" y="112461"
textLength="497.75" font-size="682.415" lengthAdjust="spacingAndGlyphs"
text-anchor="middle" opacity="0">F</text>
<path d="M4403 112168
L4233 112168
" />
<path d="M4233 112436
L4233 111924
L4476 111924
" />
</g>
<g style="fill:#000000; fill-opacity:0.0; 
stroke:#000000; stroke-width:39.3701; stroke-opacity:1; 
stroke-linecap:round; stroke-linejoin:round;">
</g>
<g style="fill:#000000; fill-opacity:0.0; 
stroke:#000000; stroke-width:59.0551; stroke-opacity:1; 
stroke-linecap:round; stroke-linejoin:round;">
<path d="M161412 23622
L160625 23622
" />
</g>
<g style="fill:#000000; fill-opacity:0.0; 
stroke:#000000; stroke-width:39.3701; stroke-opacity:1; 
stroke-linecap:round; stroke-linejoin:round;">
</g>
<g style="fill:#000000; fill-opacity:0.0; 
stroke:#000000; stroke-width:59.0551; stroke-opacity:1; 
stroke-linecap:round; stroke-linejoin:round;">
<path d="M161412 43307
L160625 43307
" />
</g>
<g style="fill:#000000; fill-opacity:0.0; 
stroke:#000000; stroke-width:39.3701; stroke-opacity:1; 
stroke-linecap:round; stroke-linejoin:round;">
</g>
<g style="fill:#000000; fill-opacity:0.0; 
stroke:#000000; stroke-width:59.0551; stroke-opacity:1; 
stroke-linecap:round; stroke-linejoin:round;">
<path d="M161412 62992
L160625 62992
" />
</g>
<g style="fill:#000000; fill-opacity:0.0; 
stroke:#000000; stroke-width:39.3701; stroke-opacity:1; 
stroke-linecap:round; stroke-linejoin:round;">
</g>
<g style="fill:#000000; fill-opacity:0.0; 
stroke:#000000; stroke-width:59.0551; stroke-opacity:1; 
stroke-linecap:round; stroke-linejoin:round;">
<path d="M161412 82677
L160625 82677
" />
</g>
<g style="fill:#000000; fill-opacity:0.0; 
stroke:#000000; stroke-width:39.3701; stroke-opacity:1; 
stroke-linecap:round; stroke-linejoin:round;">
</g>
<g style="fill:#000000; fill-opacity:0.0; 
stroke:#000000; stroke-width:59.0551; stroke-opacity:1; 
stroke-linecap:round; stroke-linejoin:round;">
<path d="M161412 102362
L160625 102362
" />
</g>
<g style="fill:#000000; fill-opacity:0.0; 
stroke:#000000; stroke-width:39.3701; stroke-opacity:1; 
stroke-linecap:round; stroke-linejoin:round;">
</g>
<g style="fill:#000000; fill-opacity:0.0; 
stroke:#000000; stroke-width:59.0551; stroke-opacity:1; 
stroke-linecap:round; stroke-linejoin:round;">
<text x="161019" y="14035.4"
textLength="497.75" font-size="682.415" lengthAdjust="spacingAndGlyphs"
text-anchor="middle" opacity="0">A</text>
<path d="M160897 13864
L161141 13864
" />
<path d="M160848 14011
L161019 13499
L161189 14011
" />
</g>
<g style="fill:#000000; fill-opacity:0.0; 
stroke:#000000; stroke-width:39.3701; stroke-opacity:1; 
stroke-linecap:round; stroke-linejoin:round;">
</g>
<g style="fill:#000000; fill-opacity:0.0; 
stroke:#000000; stroke-width:59.0551; stroke-opacity:1; 
stroke-linecap:round; stroke-linejoin:round;">
<text x="161019" y="33720.5"
textLength="570.866" font-size="682.415" lengthAdjust="spacingAndGlyphs"
text-anchor="middle" opacity="0">B</text>
<path d="M161055 33428
L161128 33452
L161153 33476
L161177 33525
L161177 33598
L161153 33647
L161128 33671
L161080 33696
L160885 33696
L160885 33184
L161055 33184
L161104 33208
L161128 33233
L161153 33281
L161153 33330
L161128 33379
L161104 33403
L161055 33428
L160885 33428
" />
</g>
<g style="fill:#000000; fill-opacity:0.0; 
stroke:#000000; stroke-width:39.3701; stroke-opacity:1; 
stroke-linecap:round; stroke-linejoin:round;">
</g>
<g style="fill:#000000; fill-opacity:0.0; 
stroke:#000000; stroke-width:59.0551; stroke-opacity:1; 
stroke-linecap:round; stroke-linejoin:round;">
<text x="161019" y="53405.5"
textLength="570.866" font-size="682.415" lengthAdjust="spacingAndGlyphs"
text-anchor="middle" opacity="0">C</text>
<path d="M161177 53332
L161153 53356
L161080 53381
L161031 53381
L160958 53356
L160909 53308
L160885 53259
L160860 53161
L160860 53088
L160885 52991
L160909 52942
L160958 52893
L161031 52869
L161080 52869
L161153 52893
L161177 52918
" />
</g>
<g style="fill:#000000; fill-opacity:0.0; 
stroke:#000000; stroke-width:39.3701; stroke-opacity:1; 
stroke-linecap:round; stroke-linejoin:round;">
</g>
<g style="fill:#000000; fill-opacity:0.0; 
stroke:#000000; stroke-width:59.0551; stroke-opacity:1; 
stroke-linecap:round; stroke-linejoin:round;">
<text x="161019" y="73090.6"
textLength="570.866" font-size="682.415" lengthAdjust="spacingAndGlyphs"
text-anchor="middle" opacity="0">D</text>
<path d="M160885 73066
L160885 72554
L161007 72554
L161080 72578
L161128 72627
L161153 72676
L161177 72773
L161177 72846
L161153 72944
L161128 72993
L161080 73041
L161007 73066
L160885 73066
" />
</g>
<g style="fill:#000000; fill-opacity:0.0; 
stroke:#000000; stroke-width:39.3701; stroke-opacity:1; 
stroke-linecap:round; stroke-linejoin:round;">
</g>
<g style="fill:#000000; fill-opacity:0.0; 
stroke:#000000; stroke-width:59.0551; stroke-opacity:1; 
stroke-linecap:round; stroke-linejoin:round;">
<text x="161019" y="92775.6"
textLength="522.122" font-size="682.415" lengthAdjust="spacingAndGlyphs"
text-anchor="middle" opacity="0">E</text>
<path d="M160909 92483
L161080 92483
" />
<path d="M161153 92751
L160909 92751
L160909 92239
L161153 92239
" />
</g>
<g style="fill:#000000; fill-opacity:0.0; 
stroke:#000000; stroke-width:39.3701; stroke-opacity:1; 
stroke-linecap:round; stroke-linejoin:round;">
</g>
<g style="fill:#000000; fill-opacity:0.0; 
stroke:#000000; stroke-width:59.0551; stroke-opacity:1; 
stroke-linecap:round; stroke-linejoin:round;">
<text x="161019" y="112461"
textLength="497.75" font-size="682.415" lengthAdjust="spacingAndGlyphs"
text-anchor="middle" opacity="0">F</text>
<path d="M161092 112168
L160921 112168
" />
<path d="M160921 112436
L160921 111924
L161165 111924
" />
</g>
<g style="fill:#000000; fill-opacity:0.0; 
stroke:#000000; stroke-width:39.3701; stroke-opacity:1; 
stroke-linecap:round; stroke-linejoin:round;">
</g>
<g style="fill:#000000; fill-opacity:0.0; 
stroke:#000000; stroke-width:59.0551; stroke-opacity:1; 
stroke-linecap:round; stroke-linejoin:round;">
<text x="127161" y="110572"
textLength="2758.72" font-size="787.402" lengthAdjust="spacingAndGlyphs"
text-anchor="start" opacity="0">Date: </text>
<path d="M127331 110543
L127331 109953
L127471 109953
L127556 109981
L127612 110037
L127640 110093
L127668 110206
L127668 110290
L127640 110403
L127612 110459
L127556 110515
L127471 110543
L127331 110543
" />
<path d="M128174 110543
L128174 110234
L128146 110178
L128090 110149
L127977 110149
L127921 110178
" />
<path d="M128174 110515
L128118 110543
L127977 110543
L127921 110515
L127893 110459
L127893 110403
L127921 110346
L127977 110318
L128118 110318
L128174 110290
" />
<path d="M128371 110149
L128596 110149
" />
<path d="M128456 109953
L128456 110459
L128484 110515
L128540 110543
L128596 110543
" />
<path d="M129018 110515
L128962 110543
L128849 110543
L128793 110515
L128765 110459
L128765 110234
L128793 110178
L128849 110149
L128962 110149
L129018 110178
L129046 110234
L129046 110290
L128765 110346
" />
<path d="M129299 110487
L129327 110515
L129299 110543
L129271 110515
L129299 110487
L129299 110543
" />
<path d="M129299 110178
L129327 110206
L129299 110234
L129271 110206
L129299 110178
L129299 110234
" />
</g>
<g style="fill:#000000; fill-opacity:0.0; 
stroke:#000000; stroke-width:39.3701; stroke-opacity:1; 
stroke-linecap:round; stroke-linejoin:round;">
</g>
<g style="fill:#000000; fill-opacity:0.0; 
stroke:#000000; stroke-width:59.0551; stroke-opacity:1; 
stroke-linecap:round; stroke-linejoin:round;">
<path d="M118105 110827
L160625 110827
" />
</g>
<g style="fill:#000000; fill-opacity:0.0; 
stroke:#000000; stroke-width:39.3701; stroke-opacity:1; 
stroke-linecap:round; stroke-linejoin:round;">
</g>
<g style="fill:#000000; fill-opacity:0.0; 
stroke:#000000; stroke-width:59.0551; stroke-opacity:1; 
stroke-linecap:round; stroke-linejoin:round;">
<text x="118500" y="111674"
textLength="14429.1" font-size="787.402" lengthAdjust="spacingAndGlyphs"
text-anchor="start" opacity="0">KiCad E.D.A.  pcbnew (5.1.7)-1</text>
<path d="M118669 111645
L118669 111055
" />
<path d="M119007 111645
L118754 111308
" />
<path d="M119007 111055
L118669 111392
" />
<path d="M119260 111645
L119260 111252
" />
<path d="M119260 111055
L119232 111083
L119260 111111
L119288 111083
L119260 111055
L119260 111111
" />
<path d="M119878 111589
L119850 111617
L119766 111645
L119710 111645
L119625 111617
L119569 111561
L119541 111505
L119513 111392
L119513 111308
L119541 111196
L119569 111139
L119625 111083
L119710 111055
L119766 111055
L119850 111083
L119878 111111
" />
<path d="M120385 111645
L120385 111336
L120357 111280
L120300 111252
L120188 111252
L120132 111280
" />
<path d="M120385 111617
L120328 111645
L120188 111645
L120132 111617
L120103 111561
L120103 111505
L120132 111449
L120188 111421
L120328 111421
L120385 111392
" />
<path d="M120919 111645
L120919 111055
" />
<path d="M120919 111617
L120863 111645
L120750 111645
L120694 111617
L120666 111589
L120638 111533
L120638 111364
L120666 111308
L120694 111280
L120750 111252
L120863 111252
L120919 111280
" />
<path d="M121650 111336
L121847 111336
" />
<path d="M121931 111645
L121650 111645
L121650 111055
L121931 111055
" />
<path d="M122184 111589
L122213 111617
L122184 111645
L122156 111617
L122184 111589
L122184 111645
" />
<path d="M122466 111645
L122466 111055
L122606 111055
L122691 111083
L122747 111139
L122775 111196
L122803 111308
L122803 111392
L122775 111505
L122747 111561
L122691 111617
L122606 111645
L122466 111645
" />
<path d="M123056 111589
L123084 111617
L123056 111645
L123028 111617
L123056 111589
L123056 111645
" />
<path d="M123309 111477
L123591 111477
" />
<path d="M123253 111645
L123450 111055
L123647 111645
" />
<path d="M123844 111589
L123872 111617
L123844 111645
L123815 111617
L123844 111589
L123844 111645
" />
<path d="M125025 111252
L125025 111842
" />
<path d="M125025 111280
L125081 111252
L125193 111252
L125250 111280
L125278 111308
L125306 111364
L125306 111533
L125278 111589
L125250 111617
L125193 111645
L125081 111645
L125025 111617
" />
<path d="M125812 111617
L125756 111645
L125643 111645
L125587 111617
L125559 111589
L125531 111533
L125531 111364
L125559 111308
L125587 111280
L125643 111252
L125756 111252
L125812 111280
" />
<path d="M126065 111645
L126065 111055
" />
<path d="M126065 111280
L126121 111252
L126234 111252
L126290 111280
L126318 111308
L126346 111364
L126346 111533
L126318 111589
L126290 111617
L126234 111645
L126121 111645
L126065 111617
" />
<path d="M126600 111252
L126600 111645
" />
<path d="M126600 111308
L126628 111280
L126684 111252
L126768 111252
L126824 111280
L126853 111336
L126853 111645
" />
<path d="M127359 111617
L127303 111645
L127190 111645
L127134 111617
L127106 111561
L127106 111336
L127134 111280
L127190 111252
L127303 111252
L127359 111280
L127387 111336
L127387 111392
L127106 111449
" />
<path d="M127584 111252
L127696 111645
L127809 111364
L127921 111645
L128034 111252
" />
<path d="M128877 111870
L128849 111842
L128793 111758
L128765 111702
L128737 111617
L128709 111477
L128709 111364
L128737 111224
L128765 111139
L128793 111083
L128849 110999
L128877 110971
" />
<path d="M129384 111055
L129102 111055
L129074 111336
L129102 111308
L129159 111280
L129299 111280
L129355 111308
L129384 111336
L129412 111392
L129412 111533
L129384 111589
L129355 111617
L129299 111645
L129159 111645
L129102 111617
L129074 111589
" />
<path d="M129665 111589
L129693 111617
L129665 111645
L129637 111617
L129665 111589
L129665 111645
" />
<path d="M130255 111645
L129918 111645
" />
<path d="M130087 111645
L130087 111055
L130030 111139
L129974 111196
L129918 111224
" />
<path d="M130508 111589
L130537 111617
L130508 111645
L130480 111617
L130508 111589
L130508 111645
" />
<path d="M130733 111055
L131127 111055
L130874 111645
" />
<path d="M131296 111870
L131324 111842
L131380 111758
L131408 111702
L131436 111617
L131465 111477
L131465 111364
L131436 111224
L131408 111139
L131380 111083
L131324 110999
L131296 110971
" />
<path d="M131746 111421
L132196 111421
" />
<path d="M132786 111645
L132449 111645
" />
<path d="M132617 111645
L132617 111055
L132561 111139
L132505 111196
L132449 111224
" />
</g>
<g style="fill:#000000; fill-opacity:0.0; 
stroke:#000000; stroke-width:39.3701; stroke-opacity:1; 
stroke-linecap:round; stroke-linejoin:round;">
</g>
<g style="fill:#000000; fill-opacity:0.0; 
stroke:#000000; stroke-width:59.0551; stroke-opacity:1; 
stroke-linecap:round; stroke-linejoin:round;">
<path d="M118105 109646
L160625 109646
" />
</g>
<g style="fill:#000000; fill-opacity:0.0; 
stroke:#000000; stroke-width:39.3701; stroke-opacity:1; 
stroke-linecap:round; stroke-linejoin:round;">
</g>
<g style="fill:#000000; fill-opacity:0.0; 
stroke:#000000; stroke-width:118.11; stroke-opacity:1; 
stroke-linecap:round; stroke-linejoin:round;">
<text x="151964" y="110572"
textLength="2336.9" font-size="787.402" lengthAdjust="spacingAndGlyphs"
text-anchor="start" opacity="0">Rev: </text>
<path d="M152519 110543
L152322 110262
" />
<path d="M152181 110543
L152181 109953
L152406 109953
L152462 109981
L152490 110009
L152519 110065
L152519 110149
L152490 110206
L152462 110234
L152406 110262
L152181 110262
" />
<path d="M152997 110515
L152940 110543
L152828 110543
L152772 110515
L152743 110459
L152743 110234
L152772 110178
L152828 110149
L152940 110149
L152997 110178
L153025 110234
L153025 110290
L152743 110346
" />
<path d="M153222 110149
L153362 110543
L153503 110149
" />
<path d="M153728 110487
L153756 110515
L153728 110543
L153700 110515
L153728 110487
L153728 110543
" />
<path d="M153728 110178
L153756 110206
L153728 110234
L153700 110206
L153728 110178
L153728 110234
" />
</g>
<g style="fill:#000000; fill-opacity:0.0; 
stroke:#000000; stroke-width:39.3701; stroke-opacity:1; 
stroke-linecap:round; stroke-linejoin:round;">
</g>
<g style="fill:#000000; fill-opacity:0.0; 
stroke:#000000; stroke-width:59.0551; stroke-opacity:1; 
stroke-linecap:round; stroke-linejoin:round;">
<text x="118500" y="110572"
textLength="3781.21" font-size="787.402" lengthAdjust="spacingAndGlyphs"
text-anchor="start" opacity="0">Size: A3</text>
<path d="M118641 110515
L118725 110543
L118866 110543
L118922 110515
L118950 110487
L118979 110431
L118979 110374
L118950 110318
L118922 110290
L118866 110262
L118754 110234
L118697 110206
L118669 110178
L118641 110121
L118641 110065
L118669 110009
L118697 109981
L118754 109953
L118894 109953
L118979 109981
" />
<path d="M119232 110543
L119232 110149
" />
<path d="M119232 109953
L119204 109981
L119232 110009
L119260 109981
L119232 109953
L119232 110009
" />
<path d="M119457 110149
L119766 110149
L119457 110543
L119766 110543
" />
<path d="M120216 110515
L120160 110543
L120047 110543
L119991 110515
L119963 110459
L119963 110234
L119991 110178
L120047 110149
L120160 110149
L120216 110178
L120244 110234
L120244 110290
L119963 110346
" />
<path d="M120497 110487
L120525 110515
L120497 110543
L120469 110515
L120497 110487
L120497 110543
" />
<path d="M120497 110178
L120525 110206
L120497 110234
L120469 110206
L120497 110178
L120497 110234
" />
<path d="M121200 110374
L121481 110374
" />
<path d="M121144 110543
L121341 109953
L121538 110543
" />
<path d="M121678 109953
L122044 109953
L121847 110178
L121931 110178
L121988 110206
L122016 110234
L122044 110290
L122044 110431
L122016 110487
L121988 110515
L121931 110543
L121763 110543
L121706 110515
L121678 110487
" />
</g>
<g style="fill:#000000; fill-opacity:0.0; 
stroke:#000000; stroke-width:39.3701; stroke-opacity:1; 
stroke-linecap:round; stroke-linejoin:round;">
</g>
<g style="fill:#000000; fill-opacity:0.0; 
stroke:#000000; stroke-width:59.0551; stroke-opacity:1; 
stroke-linecap:round; stroke-linejoin:round;">
<text x="151964" y="111674"
textLength="3349.27" font-size="787.402" lengthAdjust="spacingAndGlyphs"
text-anchor="start" opacity="0">Id: 1/1</text>
<path d="M152134 111645
L152134 111055
" />
<path d="M152668 111645
L152668 111055
" />
<path d="M152668 111617
L152612 111645
L152499 111645
L152443 111617
L152415 111589
L152387 111533
L152387 111364
L152415 111308
L152443 111280
L152499 111252
L152612 111252
L152668 111280
" />
<path d="M152949 111589
L152977 111617
L152949 111645
L152921 111617
L152949 111589
L152949 111645
" />
<path d="M152949 111280
L152977 111308
L152949 111336
L152921 111308
L152949 111280
L152949 111336
" />
<path d="M153990 111645
L153652 111645
" />
<path d="M153821 111645
L153821 111055
L153765 111139
L153709 111196
L153652 111224
" />
<path d="M154665 111027
L154159 111786
" />
<path d="M155171 111645
L154833 111645
" />
<path d="M155002 111645
L155002 111055
L154946 111139
L154890 111196
L154833 111224
" />
</g>
<g style="fill:#000000; fill-opacity:0.0; 
stroke:#000000; stroke-width:39.3701; stroke-opacity:1; 
stroke-linecap:round; stroke-linejoin:round;">
</g>
<g style="fill:#000000; fill-opacity:0.0; 
stroke:#000000; stroke-width:59.0551; stroke-opacity:1; 
stroke-linecap:round; stroke-linejoin:round;">
<path d="M118105 108071
L160625 108071
" />
</g>
<g style="fill:#000000; fill-opacity:0.0; 
stroke:#000000; stroke-width:39.3701; stroke-opacity:1; 
stroke-linecap:round; stroke-linejoin:round;">
</g>
<g style="fill:#000000; fill-opacity:0.0; 
stroke:#000000; stroke-width:157.48; stroke-opacity:1; 
stroke-linecap:round; stroke-linejoin:round;">
<text x="118500" y="109174"
textLength="3701.14" font-size="1049.87" lengthAdjust="spacingAndGlyphs"
text-anchor="start" opacity="0">Title: </text>
<path d="M118780 108349
L119230 108349
" />
<path d="M118906 109136
L119005 108349
" />
<path d="M119394 109136
L119459 108611
" />
<path d="M119492 108349
L119450 108386
L119483 108424
L119525 108386
L119492 108349
L119483 108424
" />
<path d="M119722 108611
L120022 108611
" />
<path d="M119867 108349
L119783 109024
L119811 109099
L119881 109136
L119956 109136
" />
<path d="M120331 109136
L120261 109099
L120233 109024
L120317 108349
" />
<path d="M120936 109099
L120856 109136
L120706 109136
L120636 109099
L120607 109024
L120645 108724
L120692 108649
L120772 108611
L120921 108611
L120992 108649
L121020 108724
L121011 108799
L120626 108874
" />
<path d="M121315 109061
L121348 109099
L121306 109136
L121273 109099
L121315 109061
L121306 109136
" />
<path d="M121367 108649
L121400 108686
L121357 108724
L121325 108686
L121367 108649
L121357 108724
" />
</g>
<g style="fill:#000000; fill-opacity:0.0; 
stroke:#000000; stroke-width:39.3701; stroke-opacity:1; 
stroke-linecap:round; stroke-linejoin:round;">
</g>
<g style="fill:#000000; fill-opacity:0.0; 
stroke:#000000; stroke-width:59.0551; stroke-opacity:1; 
stroke-linecap:round; stroke-linejoin:round;">
<text x="118500" y="107658"
textLength="12971.9" font-size="787.402" lengthAdjust="spacingAndGlyphs"
text-anchor="start" opacity="0">File: yacc46_plate.kicad_pcb</text>
<path d="M118866 107320
L118669 107320
" />
<path d="M118669 107630
L118669 107039
L118950 107039
" />
<path d="M119175 107630
L119175 107236
" />
<path d="M119175 107039
L119147 107067
L119175 107095
L119204 107067
L119175 107039
L119175 107095
" />
<path d="M119541 107630
L119485 107602
L119457 107545
L119457 107039
" />
<path d="M119991 107602
L119935 107630
L119822 107630
L119766 107602
L119738 107545
L119738 107320
L119766 107264
L119822 107236
L119935 107236
L119991 107264
L120019 107320
L120019 107377
L119738 107433
" />
<path d="M120272 107573
L120300 107602
L120272 107630
L120244 107602
L120272 107573
L120272 107630
" />
<path d="M120272 107264
L120300 107292
L120272 107320
L120244 107292
L120272 107264
L120272 107320
" />
<path d="M120947 107236
L121088 107630
" />
<path d="M121228 107236
L121088 107630
L121031 107770
L121003 107798
L120947 107827
" />
<path d="M121706 107630
L121706 107320
L121678 107264
L121622 107236
L121510 107236
L121453 107264
" />
<path d="M121706 107602
L121650 107630
L121510 107630
L121453 107602
L121425 107545
L121425 107489
L121453 107433
L121510 107405
L121650 107405
L121706 107377
" />
<path d="M122241 107602
L122184 107630
L122072 107630
L122016 107602
L121988 107573
L121959 107517
L121959 107349
L121988 107292
L122016 107264
L122072 107236
L122184 107236
L122241 107264
" />
<path d="M122747 107602
L122691 107630
L122578 107630
L122522 107602
L122494 107573
L122466 107517
L122466 107349
L122494 107292
L122522 107264
L122578 107236
L122691 107236
L122747 107264
" />
<path d="M123253 107236
L123253 107630
" />
<path d="M123112 107011
L122972 107433
L123337 107433
" />
<path d="M123815 107039
L123703 107039
L123647 107067
L123619 107095
L123562 107180
L123534 107292
L123534 107517
L123562 107573
L123591 107602
L123647 107630
L123759 107630
L123815 107602
L123844 107573
L123872 107517
L123872 107377
L123844 107320
L123815 107292
L123759 107264
L123647 107264
L123591 107292
L123562 107320
L123534 107377
" />
<path d="M123984 107686
L124434 107686
" />
<path d="M124575 107236
L124575 107827
" />
<path d="M124575 107264
L124631 107236
L124743 107236
L124800 107264
L124828 107292
L124856 107349
L124856 107517
L124828 107573
L124800 107602
L124743 107630
L124631 107630
L124575 107602
" />
<path d="M125193 107630
L125137 107602
L125109 107545
L125109 107039
" />
<path d="M125671 107630
L125671 107320
L125643 107264
L125587 107236
L125475 107236
L125418 107264
" />
<path d="M125671 107602
L125615 107630
L125475 107630
L125418 107602
L125390 107545
L125390 107489
L125418 107433
L125475 107405
L125615 107405
L125671 107377
" />
<path d="M125868 107236
L126093 107236
" />
<path d="M125953 107039
L125953 107545
L125981 107602
L126037 107630
L126093 107630
" />
<path d="M126515 107602
L126459 107630
L126346 107630
L126290 107602
L126262 107545
L126262 107320
L126290 107264
L126346 107236
L126459 107236
L126515 107264
L126543 107320
L126543 107377
L126262 107433
" />
<path d="M126796 107573
L126824 107602
L126796 107630
L126768 107602
L126796 107573
L126796 107630
" />
<path d="M127078 107630
L127078 107039
" />
<path d="M127134 107405
L127303 107630
" />
<path d="M127303 107236
L127078 107461
" />
<path d="M127556 107630
L127556 107236
" />
<path d="M127556 107039
L127528 107067
L127556 107095
L127584 107067
L127556 107039
L127556 107095
" />
<path d="M128090 107602
L128034 107630
L127921 107630
L127865 107602
L127837 107573
L127809 107517
L127809 107349
L127837 107292
L127865 107264
L127921 107236
L128034 107236
L128090 107264
" />
<path d="M128596 107630
L128596 107320
L128568 107264
L128512 107236
L128399 107236
L128343 107264
" />
<path d="M128596 107602
L128540 107630
L128399 107630
L128343 107602
L128315 107545
L128315 107489
L128343 107433
L128399 107405
L128540 107405
L128596 107377
" />
<path d="M129130 107630
L129130 107039
" />
<path d="M129130 107602
L129074 107630
L128962 107630
L128905 107602
L128877 107573
L128849 107517
L128849 107349
L128877 107292
L128905 107264
L128962 107236
L129074 107236
L129130 107264
" />
<path d="M129271 107686
L129721 107686
" />
<path d="M129862 107236
L129862 107827
" />
<path d="M129862 107264
L129918 107236
L130030 107236
L130087 107264
L130115 107292
L130143 107349
L130143 107517
L130115 107573
L130087 107602
L130030 107630
L129918 107630
L129862 107602
" />
<path d="M130649 107602
L130593 107630
L130480 107630
L130424 107602
L130396 107573
L130368 107517
L130368 107349
L130396 107292
L130424 107264
L130480 107236
L130593 107236
L130649 107264
" />
<path d="M130902 107630
L130902 107039
" />
<path d="M130902 107264
L130958 107236
L131071 107236
L131127 107264
L131155 107292
L131183 107349
L131183 107517
L131155 107573
L131127 107602
L131071 107630
L130958 107630
L130902 107602
" />
</g>
<g style="fill:#000000; fill-opacity:0.0; 
stroke:#000000; stroke-width:39.3701; stroke-opacity:1; 
stroke-linecap:round; stroke-linejoin:round;">
</g>
<g style="fill:#000000; fill-opacity:0.0; 
stroke:#000000; stroke-width:59.0551; stroke-opacity:1; 
stroke-linecap:round; stroke-linejoin:round;">
<path d="M118105 105709
L160625 105709
" />
</g>
<g style="fill:#000000; fill-opacity:0.0; 
stroke:#000000; stroke-width:39.3701; stroke-opacity:1; 
stroke-linecap:round; stroke-linejoin:round;">
</g>
<g style="fill:#000000; fill-opacity:0.0; 
stroke:#000000; stroke-width:59.0551; stroke-opacity:1; 
stroke-linecap:round; stroke-linejoin:round;">
<text x="118500" y="106595"
textLength="3236.78" font-size="787.402" lengthAdjust="spacingAndGlyphs"
text-anchor="start" opacity="0">Sheet: </text>
<path d="M118641 106539
L118725 106567
L118866 106567
L118922 106539
L118950 106510
L118979 106454
L118979 106398
L118950 106342
L118922 106314
L118866 106286
L118754 106257
L118697 106229
L118669 106201
L118641 106145
L118641 106089
L118669 106032
L118697 106004
L118754 105976
L118894 105976
L118979 106004
" />
<path d="M119232 106567
L119232 105976
" />
<path d="M119485 106567
L119485 106257
L119457 106201
L119400 106173
L119316 106173
L119260 106201
L119232 106229
" />
<path d="M119991 106539
L119935 106567
L119822 106567
L119766 106539
L119738 106482
L119738 106257
L119766 106201
L119822 106173
L119935 106173
L119991 106201
L120019 106257
L120019 106314
L119738 106370
" />
<path d="M120497 106539
L120441 106567
L120328 106567
L120272 106539
L120244 106482
L120244 106257
L120272 106201
L120328 106173
L120441 106173
L120497 106201
L120525 106257
L120525 106314
L120244 106370
" />
<path d="M120694 106173
L120919 106173
" />
<path d="M120778 105976
L120778 106482
L120806 106539
L120863 106567
L120919 106567
" />
<path d="M121116 106510
L121144 106539
L121116 106567
L121088 106539
L121116 106510
L121116 106567
" />
<path d="M121116 106201
L121144 106229
L121116 106257
L121088 106229
L121116 106201
L121116 106257
" />
</g>
<g style="fill:#000000; fill-opacity:0.0; 
stroke:#000000; stroke-width:39.3701; stroke-opacity:1; 
stroke-linecap:round; stroke-linejoin:round;">
</g>
<g style="fill:#000000; fill-opacity:0.0; 
stroke:#000000; stroke-width:59.0551; stroke-opacity:1; 
stroke-linecap:round; stroke-linejoin:round;">
<path d="M125979 109646
L125979 110827
" />
</g>
<g style="fill:#000000; fill-opacity:0.0; 
stroke:#000000; stroke-width:39.3701; stroke-opacity:1; 
stroke-linecap:round; stroke-linejoin:round;">
</g>
<g style="fill:#000000; fill-opacity:0.0; 
stroke:#000000; stroke-width:59.0551; stroke-opacity:1; 
stroke-linecap:round; stroke-linejoin:round;">
<path d="M151176 109646
L151176 112205
" />
</g>
<g style="fill:#C2C200; fill-opacity:0.0; 
stroke:#C2C200; stroke-width:59.0551; stroke-opacity:1; 
stroke-linecap:round; stroke-linejoin:round;">
</g>
<g style="fill:#C2C200; fill-opacity:0.0; 
stroke:#C2C200; stroke-width:47.2441; stroke-opacity:1; 
stroke-linecap:round; stroke-linejoin:round;">
<path d="M73517.3 39392.6 A196.85 196.85 0.0 0 0 73357.7 39620.7" />
<path d="M73198 39848.7 A196.85 196.85 0.0 0 0 73357.7 39620.7" />
<path d="M71031.3 40030.9 A196.85 196.85 0.0 0 0 70803.3 39871.2" />
<path d="M71031.3 40030.9 A196.85 196.85 0.0 0 0 71259.4 40190.6" />
<path d="M72405.1 33991.9 A236.22 236.22 0.0 0 0 72131.5 33800.3" />
<path d="M70192.9 34142.1 A236.22 236.22 0.0 0 0 70001.3 34415.8" />
<path d="M74758 39173.9 A118.11 118.11 0.0 0 0 74853.8 39037.1" />
<path d="M69425.8 39994.2 A118.11 118.11 0.0 0 0 69562.6 40090" />
<path d="M68605.5 34661.9 A118.11 118.11 0.0 0 0 68509.7 34798.7" />
<path d="M73937.7 33841.6 A118.11 118.11 0.0 0 0 73800.9 33745.8" />
<path d="M72405 33991
L73800 33745
" />
<path d="M70192 34142
L72131 33800
" />
<path d="M71259 40190
L73197 39848
" />
<path d="M68605 34661
L70001 34415
" />
<path d="M73937 33841
L74853 39037
" />
<path d="M69425 39994
L68509 34798
" />
<path d="M69562 40089
L70803 39871
" />
<path d="M73517 39392
L74758 39173
" />
<path d="M59118 39871.2 A196.85 196.85 0.0 0 0 58889.9 40030.9" />
<path d="M58661.9 40190.6 A196.85 196.85 0.0 0 0 58889.9 40030.9" />
<path d="M56563.6 39620.7 A196.85 196.85 0.0 0 0 56403.9 39392.6" />
<path d="M56563.6 39620.7 A196.85 196.85 0.0 0 0 56723.3 39848.7" />
<path d="M59920 34415.8 A236.22 236.22 0.0 0 0 59728.4 34142.1" />
<path d="M57789.8 33800.3 A236.22 236.22 0.0 0 0 57516.1 33991.9" />
<path d="M60358.7 40090 A118.11 118.11 0.0 0 0 60495.5 39994.2" />
<path d="M55067.4 39037.1 A118.11 118.11 0.0 0 0 55163.2 39173.9" />
<path d="M56120.3 33745.8 A118.11 118.11 0.0 0 0 55983.5 33841.6" />
<path d="M61411.6 34798.7 A118.11 118.11 0.0 0 0 61315.8 34661.9" />
<path d="M59919 34415
L61315 34661
" />
<path d="M57789 33800
L59728 34142
" />
<path d="M56723 39848
L58661 40190
" />
<path d="M56120 33745
L57516 33991
" />
<path d="M61411 34798
L60495 39994
" />
<path d="M55067 39037
L55983 33841
" />
<path d="M55163 39173
L56403 39392
" />
<path d="M59117 39871
L60358 40089
" />
</g>
<g style="fill:#C2C200; fill-opacity:0.0; 
stroke:#C2C200; stroke-width:39.3701; stroke-opacity:1; 
stroke-linecap:round; stroke-linejoin:round;">
<circle cx="72492.1" cy="52204.7" r="472.441" /> 
<circle cx="70078.7" cy="23661.4" r="433.071" /> 
<circle cx="59842.5" cy="23661.4" r="433.071" /> 
<circle cx="64952.8" cy="31535.4" r="433.071" /> 
<circle cx="77960.6" cy="52409.4" r="433.071" /> 
<circle cx="96606.3" cy="39610.2" r="433.071" /> 
<circle cx="113134" cy="37362.2" r="433.071" /> 
<circle cx="114268" cy="17196.9" r="433.071" /> 
<circle cx="95929.1" cy="12629.9" r="433.071" /> 
<circle cx="74019.7" cy="12535.4" r="433.071" /> 
<circle cx="55901.6" cy="12535.4" r="433.071" /> 
<circle cx="33992.1" cy="12629.9" r="433.071" /> 
<circle cx="15653.5" cy="17196.9" r="433.071" /> 
<circle cx="16787.4" cy="37362.2" r="433.071" /> 
<circle cx="33315" cy="39610.2" r="433.071" /> 
<circle cx="51960.6" cy="52409.4" r="433.071" /> 
</g>
<g style="fill:#C2C200; fill-opacity:0.0; 
stroke:#C2C200; stroke-width:47.2441; stroke-opacity:1; 
stroke-linecap:round; stroke-linejoin:round;">
<path d="M72098 49037
L69786 44295
" />
<path d="M76998 46778
L72256 49091
" />
<path d="M74740 41879
L77052 46620
" />
<path d="M69840 44137
L74582 41824
" />
<path d="M76998.5 46778.7 A118.111 118.111 0.0 0 0 77052.9 46620.8" />
<path d="M72098.9 49037 A118.111 118.111 0.0 0 0 72256.8 49091.4" />
<path d="M69840.6 44137.4 A118.111 118.111 0.0 0 0 69786.2 44295.4" />
<path d="M74740.2 41879.1 A118.111 118.111 0.0 0 0 74582.3 41824.8" />
<path d="M18031 22942
L18031 17667
" />
<path d="M23425 23061
L18149 23061
" />
<path d="M23543 17667
L23543 22942
" />
<path d="M18149 17549
L23425 17549
" />
<path d="M23425.2 23061 A118.11 118.11 0.0 0 0 23543.3 22942.9" />
<path d="M18031.5 22942.9 A118.11 118.11 0.0 0 0 18149.6 23061" />
<path d="M18149.6 17549.2 A118.11 118.11 0.0 0 0 18031.5 17667.3" />
<path d="M23543.3 17667.3 A118.11 118.11 0.0 0 0 23425.2 17549.2" />
<path d="M27210 19385
L27761 14138
" />
<path d="M32562 20066
L27315 19514
" />
<path d="M33243 14714
L32691 19961
" />
<path d="M27891 14033
L33138 14584
" />
<path d="M32562 20066.3 A118.11 118.11 0.0 0 0 32691.9 19961.2" />
<path d="M27210.2 19385.1 A118.11 118.11 0.0 0 0 27315.4 19514.9" />
<path d="M27891.5 14033.3 A118.11 118.11 0.0 0 0 27761.7 14138.4" />
<path d="M33243.3 14714.5 A118.11 118.11 0.0 0 0 33138.2 14584.7" />
<path d="M36165 16664
L37081 11469
" />
<path d="M41456 17717
L36260 16801
" />
<path d="M42509 12426
L41593 17621
" />
<path d="M37218 11373
L42413 12289
" />
<path d="M41456.4 17717.7 A118.11 118.11 0.0 0 0 41593.2 17621.9" />
<path d="M36165.1 16664.8 A118.11 118.11 0.0 0 0 36261 16801.6" />
<path d="M37218.1 11373.6 A118.11 118.11 0.0 0 0 37081.2 11469.4" />
<path d="M42509.3 12426.5 A118.11 118.11 0.0 0 0 42413.5 12289.7" />
<path d="M43225 19813
L44141 14618
" />
<path d="M48516 20866
L43321 19950
" />
<path d="M49569 15575
L48653 20770
" />
<path d="M44278 14522
L49473 15438
" />
<path d="M48516.9 20866.6 A118.11 118.11 0.0 0 0 48653.7 20770.8" />
<path d="M43225.6 19813.7 A118.11 118.11 0.0 0 0 43321.4 19950.5" />
<path d="M44278.5 14522.4 A118.11 118.11 0.0 0 0 44141.7 14618.3" />
<path d="M49569.8 15575.4 A118.11 118.11 0.0 0 0 49474 15438.5" />
<path d="M50448 22039
L51364 16843
" />
<path d="M55740 23092
L50544 22176
" />
<path d="M56793 17800
L55876 22996
" />
<path d="M51501 16748
L56697 17664
" />
<path d="M55740.1 23092.2 A118.11 118.11 0.0 0 0 55876.9 22996.4" />
<path d="M50448.9 22039.3 A118.11 118.11 0.0 0 0 50544.7 22176.1" />
<path d="M51501.8 16748.1 A118.11 118.11 0.0 0 0 51365 16843.9" />
<path d="M56793 17801 A118.11 118.11 0.0 0 0 56697.2 17664.2" />
<path d="M10531 28567
L10531 23292
" />
<path d="M15925 28686
L10649 28686
" />
<path d="M16043 23292
L16043 28567
" />
<path d="M10649 23174
L15925 23174
" />
<path d="M15925.2 28686 A118.11 118.11 0.0 0 0 16043.3 28567.9" />
<path d="M10531.5 28567.9 A118.11 118.11 0.0 0 0 10649.6 28686" />
<path d="M10649.6 23174.2 A118.11 118.11 0.0 0 0 10531.5 23292.3" />
<path d="M16043.3 23292.3 A118.11 118.11 0.0 0 0 15925.2 23174.2" />
<path d="M18031 30442
L18031 25167
" />
<path d="M23425 30561
L18149 30561
" />
<path d="M23543 25167
L23543 30442
" />
<path d="M18149 25049
L23425 25049
" />
<path d="M23425.2 30561 A118.11 118.11 0.0 0 0 23543.3 30442.9" />
<path d="M18031.5 30442.9 A118.11 118.11 0.0 0 0 18149.6 30561" />
<path d="M18149.6 25049.2 A118.11 118.11 0.0 0 0 18031.5 25167.3" />
<path d="M23543.3 25167.3 A118.11 118.11 0.0 0 0 23425.2 25049.2" />
<path d="M26426 26844
L26977 21597
" />
<path d="M31778 27525
L26531 26973
" />
<path d="M32459 22173
L31907 27420
" />
<path d="M27107 21492
L32354 22043
" />
<path d="M31778.1 27525.3 A118.11 118.11 0.0 0 0 31907.9 27420.1" />
<path d="M26426.3 26844 A118.11 118.11 0.0 0 0 26531.4 26973.8" />
<path d="M27107.5 21492.2 A118.11 118.11 0.0 0 0 26977.7 21597.3" />
<path d="M32459.3 22173.5 A118.11 118.11 0.0 0 0 32354.2 22043.6" />
<path d="M34862 24050
L35778 18855
" />
<path d="M40154 25103
L34958 24187
" />
<path d="M41206 19812
L40290 25007
" />
<path d="M35915 18759
L41111 19675
" />
<path d="M40154 25103.8 A118.11 118.11 0.0 0 0 40290.9 25008" />
<path d="M34862.8 24050.9 A118.11 118.11 0.0 0 0 34958.6 24187.7" />
<path d="M35915.7 18759.6 A118.11 118.11 0.0 0 0 35778.9 18855.4" />
<path d="M41207 19812.6 A118.11 118.11 0.0 0 0 41111.1 19675.7" />
<path d="M41923 27199
L42839 22004
" />
<path d="M47214 28252
L42019 27336
" />
<path d="M48267 22961
L47351 28156
" />
<path d="M42976 21908
L48171 22824
" />
<path d="M47214.5 28252.7 A118.11 118.11 0.0 0 0 47351.3 28156.9" />
<path d="M41923.3 27199.8 A118.11 118.11 0.0 0 0 42019.1 27336.6" />
<path d="M42976.2 21908.5 A118.11 118.11 0.0 0 0 42839.3 22004.3" />
<path d="M48267.4 22961.4 A118.11 118.11 0.0 0 0 48171.6 22824.6" />
<path d="M49146 29425
L50062 24229
" />
<path d="M54437 30478
L49242 29562
" />
<path d="M55490 25187
L54574 30382
" />
<path d="M50199 24134
L55394 25050
" />
<path d="M54437.8 30478.3 A118.11 118.11 0.0 0 0 54574.6 30382.5" />
<path d="M49146.5 29425.4 A118.11 118.11 0.0 0 0 49242.3 29562.2" />
<path d="M50199.4 24134.1 A118.11 118.11 0.0 0 0 50062.6 24229.9" />
<path d="M55490.7 25187 A118.11 118.11 0.0 0 0 55394.9 25050.2" />
<path d="M56369 31650
L57285 26455
" />
<path d="M61661 32703
L56465 31787
" />
<path d="M62713 27412
L61797 32608
" />
<path d="M57422 26359
L62618 27275
" />
<path d="M61661 32703.9 A118.11 118.11 0.0 0 0 61797.9 32608.1" />
<path d="M56369.8 31651 A118.11 118.11 0.0 0 0 56465.6 31787.8" />
<path d="M57422.7 26359.7 A118.11 118.11 0.0 0 0 57285.9 26455.6" />
<path d="M62713.9 27412.7 A118.11 118.11 0.0 0 0 62618.1 27275.8" />
<path d="M10531 36067
L10531 30792
" />
<path d="M15925 36186
L10649 36186
" />
<path d="M16043 30792
L16043 36067
" />
<path d="M10649 30674
L15925 30674
" />
<path d="M15925.2 36186 A118.11 118.11 0.0 0 0 16043.3 36067.9" />
<path d="M10531.5 36067.9 A118.11 118.11 0.0 0 0 10649.6 36186" />
<path d="M10649.6 30674.2 A118.11 118.11 0.0 0 0 10531.5 30792.3" />
<path d="M16043.3 30792.3 A118.11 118.11 0.0 0 0 15925.2 30674.2" />
<path d="M18031 37942
L18031 32667
" />
<path d="M23425 38061
L18149 38061
" />
<path d="M23543 32667
L23543 37942
" />
<path d="M18149 32549
L23425 32549
" />
<path d="M23425.2 38061 A118.11 118.11 0.0 0 0 23543.3 37942.9" />
<path d="M18031.5 37942.9 A118.11 118.11 0.0 0 0 18149.6 38061" />
<path d="M18149.6 32549.2 A118.11 118.11 0.0 0 0 18031.5 32667.3" />
<path d="M23543.3 32667.3 A118.11 118.11 0.0 0 0 23425.2 32549.2" />
<path d="M25642 34302
L26193 29056
" />
<path d="M30994 34984
L25747 34432
" />
<path d="M31675 29632
L31123 34879
" />
<path d="M26323 28951
L31570 29502
" />
<path d="M30994.1 34984.2 A118.11 118.11 0.0 0 0 31123.9 34879.1" />
<path d="M25642.3 34302.9 A118.11 118.11 0.0 0 0 25747.4 34432.7" />
<path d="M26323.6 28951.1 A118.11 118.11 0.0 0 0 26193.8 29056.2" />
<path d="M31675.4 29632.4 A118.11 118.11 0.0 0 0 31570.3 29502.6" />
<path d="M33560 31436
L34476 26241
" />
<path d="M38851 32489
L33656 31573
" />
<path d="M39904 27198
L38988 32394
" />
<path d="M34613 26145
L39808 27061
" />
<path d="M38851.7 32489.9 A118.11 118.11 0.0 0 0 38988.5 32394.1" />
<path d="M33560.4 31436.9 A118.11 118.11 0.0 0 0 33656.2 31573.8" />
<path d="M34613.3 26145.7 A118.11 118.11 0.0 0 0 34476.5 26241.5" />
<path d="M39904.6 27198.6 A118.11 118.11 0.0 0 0 39808.8 27061.8" />
<path d="M40620 34585
L41536 29390
" />
<path d="M45912 35638
L40716 34722
" />
<path d="M46965 30347
L46048 35542
" />
<path d="M41673 29294
L46869 30210
" />
<path d="M45912.1 35638.7 A118.11 118.11 0.0 0 0 46049 35542.9" />
<path d="M40620.9 34585.8 A118.11 118.11 0.0 0 0 40716.7 34722.6" />
<path d="M41673.8 29294.6 A118.11 118.11 0.0 0 0 41537 29390.4" />
<path d="M46965.1 30347.5 A118.11 118.11 0.0 0 0 46869.3 30210.7" />
<path d="M47844 36811
L48760 31615
" />
<path d="M53135 37864
L47939 36948
" />
<path d="M54188 32573
L53272 37768
" />
<path d="M48897 31520
L54092 32436
" />
<path d="M53135.4 37864.4 A118.11 118.11 0.0 0 0 53272.2 37768.5" />
<path d="M47844.2 36811.4 A118.11 118.11 0.0 0 0 47940 36948.3" />
<path d="M48897.1 31520.2 A118.11 118.11 0.0 0 0 48760.2 31616" />
<path d="M54188.3 32573.1 A118.11 118.11 0.0 0 0 54092.5 32436.3" />
<path d="M38140 42641
L39056 37446
" />
<path d="M43431 43694
L38236 42778
" />
<path d="M44484 38403
L43568 43599
" />
<path d="M39193 37350
L44388 38266
" />
<path d="M43431.7 43694.9 A118.11 118.11 0.0 0 0 43568.5 43599.1" />
<path d="M38140.5 42642 A118.11 118.11 0.0 0 0 38236.3 42778.8" />
<path d="M39193.4 37350.7 A118.11 118.11 0.0 0 0 39056.6 37446.6" />
<path d="M44484.6 38403.7 A118.11 118.11 0.0 0 0 44388.8 38266.8" />
<path d="M45643 44116
L47273 39099
" />
<path d="M50736 45895
L45719 44265
" />
<path d="M52515 40802
L50885 45819
" />
<path d="M47422 39023
L52439 40653
" />
<path d="M50736.7 45895.5 A118.11 118.11 0.0 0 0 50885.6 45819.7" />
<path d="M45643.5 44116.5 A118.11 118.11 0.0 0 0 45719.4 44265.3" />
<path d="M47422.6 39023.2 A118.11 118.11 0.0 0 0 47273.8 39099.1" />
<path d="M52515.8 40802.3 A118.11 118.11 0.0 0 0 52440 40653.5" />
<path d="M52868 46620
L55181 41879
" />
<path d="M57664 49091
L52922 46778
" />
<path d="M60135 44295
L57822 49037
" />
<path d="M55338 41824
L60080 44137
" />
<path d="M57664.4 49091.4 A118.11 118.11 0.0 0 0 57822.4 49037" />
<path d="M52868.4 46620.8 A118.11 118.11 0.0 0 0 52922.7 46778.7" />
<path d="M55339 41824.8 A118.11 118.11 0.0 0 0 55181 41879.1" />
<path d="M60135 44295.4 A118.11 118.11 0.0 0 0 60080.6 44137.4" />
<path d="M43325 51249
L44956 46232
" />
<path d="M48419 53028
L43401 51398
" />
<path d="M50198 47935
L48567 52952
" />
<path d="M45104 46156
L50122 47786
" />
<path d="M48419.1 53028.5 A118.11 118.11 0.0 0 0 48567.9 52952.6" />
<path d="M43325.9 51249.4 A118.11 118.11 0.0 0 0 43401.7 51398.2" />
<path d="M45105 46156.2 A118.11 118.11 0.0 0 0 44956.2 46232" />
<path d="M50198.2 47935.2 A118.11 118.11 0.0 0 0 50122.4 47786.4" />
<path d="M74044 22996
L73128 17800
" />
<path d="M79376 22176
L74181 23092
" />
<path d="M78556 16843
L79472 22039
" />
<path d="M73224 17664
L78419 16748
" />
<path d="M79376.6 22176.1 A118.11 118.11 0.0 0 0 79472.4 22039.3" />
<path d="M74044.3 22996.4 A118.11 118.11 0.0 0 0 74181.1 23092.2" />
<path d="M73224 17664.2 A118.11 118.11 0.0 0 0 73128.2 17801" />
<path d="M78556.3 16843.9 A118.11 118.11 0.0 0 0 78419.5 16748.1" />
<path d="M81267 20770
L80351 15575
" />
<path d="M86599 19950
L81404 20866
" />
<path d="M85779 14618
L86695 19813
" />
<path d="M80447 15438
L85642 14522
" />
<path d="M86599.8 19950.5 A118.11 118.11 0.0 0 0 86695.6 19813.7" />
<path d="M81267.6 20770.8 A118.11 118.11 0.0 0 0 81404.4 20866.6" />
<path d="M80447.3 15438.5 A118.11 118.11 0.0 0 0 80351.5 15575.4" />
<path d="M85779.6 14618.3 A118.11 118.11 0.0 0 0 85642.7 14522.4" />
<path d="M88328 17621
L87411 12426
" />
<path d="M93660 16801
L88464 17717
" />
<path d="M92840 11469
L93756 16664
" />
<path d="M87507 12289
L92703 11373
" />
<path d="M93660.3 16801.6 A118.11 118.11 0.0 0 0 93756.1 16664.8" />
<path d="M88328 17621.9 A118.11 118.11 0.0 0 0 88464.9 17717.7" />
<path d="M87507.8 12289.7 A118.11 118.11 0.0 0 0 87411.9 12426.5" />
<path d="M92840 11469.4 A118.11 118.11 0.0 0 0 92703.2 11373.6" />
<path d="M97229 19961
L96677 14714
" />
<path d="M102605 19514
L97359 20066
" />
<path d="M102159 14138
L102711 19385
" />
<path d="M96783 14584
L102029 14033
" />
<path d="M102606 19514.9 A118.11 118.11 0.0 0 0 102711 19385.1" />
<path d="M97229.4 19961.2 A118.11 118.11 0.0 0 0 97359.2 20066.3" />
<path d="M96783.1 14584.7 A118.11 118.11 0.0 0 0 96678 14714.5" />
<path d="M102160 14138.4 A118.11 118.11 0.0 0 0 102030 14033.3" />
<path d="M106377 22942
L106377 17667
" />
<path d="M111771 23061
L106496 23061
" />
<path d="M111889 17667
L111889 22942
" />
<path d="M106496 17549
L111771 17549
" />
<path d="M111772 23061 A118.11 118.11 0.0 0 0 111890 22942.9" />
<path d="M106378 22942.9 A118.11 118.11 0.0 0 0 106496 23061" />
<path d="M106496 17549.2 A118.11 118.11 0.0 0 0 106378 17667.3" />
<path d="M111890 17667.3 A118.11 118.11 0.0 0 0 111772 17549.2" />
<path d="M68123 32608
L67207 27412
" />
<path d="M73455 31787
L68260 32703
" />
<path d="M72635 26455
L73551 31650
" />
<path d="M67303 27275
L72498 26359
" />
<path d="M73455.7 31787.8 A118.11 118.11 0.0 0 0 73551.5 31651" />
<path d="M68123.4 32608.1 A118.11 118.11 0.0 0 0 68260.2 32703.9" />
<path d="M67303.1 27275.8 A118.11 118.11 0.0 0 0 67207.3 27412.7" />
<path d="M72635.4 26455.6 A118.11 118.11 0.0 0 0 72498.6 26359.7" />
<path d="M75346 30382
L74430 25187
" />
<path d="M80678 29562
L75483 30478
" />
<path d="M79858 24229
L80774 29425
" />
<path d="M74526 25050
L79721 24134
" />
<path d="M80678.9 29562.2 A118.11 118.11 0.0 0 0 80774.7 29425.4" />
<path d="M75346.7 30382.5 A118.11 118.11 0.0 0 0 75483.5 30478.3" />
<path d="M74526.4 25050.2 A118.11 118.11 0.0 0 0 74430.6 25187" />
<path d="M79858.6 24229.9 A118.11 118.11 0.0 0 0 79721.8 24134.1" />
<path d="M82569 28156
L81653 22961
" />
<path d="M87902 27336
L82706 28252
" />
<path d="M87081 22004
L87998 27199
" />
<path d="M81749 22824
L86945 21908
" />
<path d="M87902.2 27336.6 A118.11 118.11 0.0 0 0 87998 27199.8" />
<path d="M82569.9 28156.9 A118.11 118.11 0.0 0 0 82706.8 28252.7" />
<path d="M81749.6 22824.6 A118.11 118.11 0.0 0 0 81653.8 22961.4" />
<path d="M87081.9 22004.3 A118.11 118.11 0.0 0 0 86945.1 21908.5" />
<path d="M89630 25007
L88714 19812
" />
<path d="M94962 24187
L89767 25103
" />
<path d="M94142 18855
L95058 24050
" />
<path d="M88810 19675
L94005 18759
" />
<path d="M94962.7 24187.7 A118.11 118.11 0.0 0 0 95058.5 24050.9" />
<path d="M89630.4 25008 A118.11 118.11 0.0 0 0 89767.2 25103.8" />
<path d="M88810.1 19675.7 A118.11 118.11 0.0 0 0 88714.3 19812.6" />
<path d="M94142.4 18855.4 A118.11 118.11 0.0 0 0 94005.6 18759.6" />
<path d="M98013 27420
L97461 22173
" />
<path d="M103389 26973
L98143 27525
" />
<path d="M102943 21597
L103494 26844
" />
<path d="M97567 22043
L102813 21492
" />
<path d="M103390 26973.8 A118.11 118.11 0.0 0 0 103495 26844" />
<path d="M98013.4 27420.1 A118.11 118.11 0.0 0 0 98143.2 27525.3" />
<path d="M97567 22043.6 A118.11 118.11 0.0 0 0 97461.9 22173.5" />
<path d="M102944 21597.3 A118.11 118.11 0.0 0 0 102814 21492.2" />
<path d="M106377 30442
L106377 25167
" />
<path d="M111771 30561
L106496 30561
" />
<path d="M111889 25167
L111889 30442
" />
<path d="M106496 25049
L111771 25049
" />
<path d="M111772 30561 A118.11 118.11 0.0 0 0 111890 30442.9" />
<path d="M106378 30442.9 A118.11 118.11 0.0 0 0 106496 30561" />
<path d="M106496 25049.2 A118.11 118.11 0.0 0 0 106378 25167.3" />
<path d="M111890 25167.3 A118.11 118.11 0.0 0 0 111772 25049.2" />
<path d="M113877 28567
L113877 23292
" />
<path d="M119271 28686
L113996 28686
" />
<path d="M119389 23292
L119389 28567
" />
<path d="M113996 23174
L119271 23174
" />
<path d="M119272 28686 A118.11 118.11 0.0 0 0 119390 28567.9" />
<path d="M113878 28567.9 A118.11 118.11 0.0 0 0 113996 28686" />
<path d="M113996 23174.2 A118.11 118.11 0.0 0 0 113878 23292.3" />
<path d="M119390 23292.3 A118.11 118.11 0.0 0 0 119272 23174.2" />
<path d="M76649 37768
L75732 32573
" />
<path d="M81981 36948
L76785 37864
" />
<path d="M81161 31615
L82077 36811
" />
<path d="M75828 32436
L81024 31520
" />
<path d="M81981.3 36948.3 A118.11 118.11 0.0 0 0 82077.1 36811.4" />
<path d="M76649 37768.5 A118.11 118.11 0.0 0 0 76785.9 37864.4" />
<path d="M75828.7 32436.3 A118.11 118.11 0.0 0 0 75732.9 32573.1" />
<path d="M81161 31616 A118.11 118.11 0.0 0 0 81024.2 31520.2" />
<path d="M83872 35542
L82956 30347
" />
<path d="M89204 34722
L84009 35638
" />
<path d="M88384 29390
L89300 34585
" />
<path d="M83052 30210
L88247 29294
" />
<path d="M89204.6 34722.6 A118.11 118.11 0.0 0 0 89300.4 34585.8" />
<path d="M83872.3 35542.9 A118.11 118.11 0.0 0 0 84009.1 35638.7" />
<path d="M83052 30210.7 A118.11 118.11 0.0 0 0 82956.2 30347.5" />
<path d="M88384.3 29390.4 A118.11 118.11 0.0 0 0 88247.4 29294.6" />
<path d="M90932 32394
L90016 27198
" />
<path d="M96265 31573
L91069 32489
" />
<path d="M95444 26241
L96360 31436
" />
<path d="M90112 27061
L95307 26145
" />
<path d="M96265 31573.8 A118.11 118.11 0.0 0 0 96360.8 31436.9" />
<path d="M90932.8 32394.1 A118.11 118.11 0.0 0 0 91069.6 32489.9" />
<path d="M90112.5 27061.8 A118.11 118.11 0.0 0 0 90016.7 27198.6" />
<path d="M95444.7 26241.5 A118.11 118.11 0.0 0 0 95307.9 26145.7" />
<path d="M98797 34879
L98245 29632
" />
<path d="M104173 34432
L98927 34984
" />
<path d="M103727 29056
L104278 34302
" />
<path d="M98351 29502
L103597 28951
" />
<path d="M104174 34432.7 A118.11 118.11 0.0 0 0 104279 34302.9" />
<path d="M98797.3 34879.1 A118.11 118.11 0.0 0 0 98927.1 34984.2" />
<path d="M98351 29502.6 A118.11 118.11 0.0 0 0 98245.9 29632.4" />
<path d="M103728 29056.2 A118.11 118.11 0.0 0 0 103598 28951.1" />
<path d="M106377 37942
L106377 32667
" />
<path d="M111771 38061
L106496 38061
" />
<path d="M111889 32667
L111889 37942
" />
<path d="M106496 32549
L111771 32549
" />
<path d="M111772 38061 A118.11 118.11 0.0 0 0 111890 37942.9" />
<path d="M106378 37942.9 A118.11 118.11 0.0 0 0 106496 38061" />
<path d="M106496 32549.2 A118.11 118.11 0.0 0 0 106378 32667.3" />
<path d="M111890 32667.3 A118.11 118.11 0.0 0 0 111772 32549.2" />
<path d="M113877 36067
L113877 30792
" />
<path d="M119271 36186
L113996 36186
" />
<path d="M119389 30792
L119389 36067
" />
<path d="M113996 30674
L119271 30674
" />
<path d="M119272 36186 A118.11 118.11 0.0 0 0 119390 36067.9" />
<path d="M113878 36067.9 A118.11 118.11 0.0 0 0 113996 36186" />
<path d="M113996 30674.2 A118.11 118.11 0.0 0 0 113878 30792.3" />
<path d="M119390 30792.3 A118.11 118.11 0.0 0 0 119272 30674.2" />
<path d="M79035 45819
L77405 40802
" />
<path d="M84201 44265
L79184 45895
" />
<path d="M82647 39099
L84277 44116
" />
<path d="M77481 40653
L82498 39023
" />
<path d="M84201.9 44265.3 A118.11 118.11 0.0 0 0 84277.7 44116.5" />
<path d="M79035.7 45819.7 A118.11 118.11 0.0 0 0 79184.5 45895.5" />
<path d="M77481.3 40653.5 A118.11 118.11 0.0 0 0 77405.4 40802.3" />
<path d="M82647.5 39099.1 A118.11 118.11 0.0 0 0 82498.7 39023.2" />
<path d="M86352 43599
L85436 38403
" />
<path d="M91684 42778
L86489 43694
" />
<path d="M90864 37446
L91780 42641
" />
<path d="M85532 38266
L90727 37350
" />
<path d="M91685 42778.8 A118.11 118.11 0.0 0 0 91780.8 42642" />
<path d="M86352.7 43599.1 A118.11 118.11 0.0 0 0 86489.5 43694.9" />
<path d="M85532.4 38266.8 A118.11 118.11 0.0 0 0 85436.6 38403.7" />
<path d="M90864.7 37446.6 A118.11 118.11 0.0 0 0 90727.9 37350.7" />
<path d="M81353 52952
L79723 47935
" />
<path d="M86519 51398
L81502 53028
" />
<path d="M84965 46232
L86595 51249
" />
<path d="M79798 47786
L84816 46156
" />
<path d="M86519.5 51398.2 A118.11 118.11 0.0 0 0 86595.4 51249.4" />
<path d="M81353.3 52952.6 A118.11 118.11 0.0 0 0 81502.1 53028.5" />
<path d="M79798.9 47786.4 A118.11 118.11 0.0 0 0 79723.1 47935.2" />
<path d="M84965.1 46232 A118.11 118.11 0.0 0 0 84816.3 46156.2" />
<g >
</g>
<g >
</g>
<g >
</g>
<g >
</g>
<g >
</g>
<g >
</g>
<g >
</g>
<g >
</g>
<g >
</g>
<g >
</g>
<g >
</g>
<g >
</g>
<g >
</g>
<g >
</g>
<g >
</g>
<g >
</g>
<g >
</g>
<g >
</g>
<g >
</g>
<g >
</g>
<g >
</g>
<g >
</g>
<g >
</g>
<g >
</g>
<g >
</g>
<g >
</g>
<g >
</g>
<g >
</g>
<g >
</g>
<g >
</g>
<g >
</g>
<g >
</g>
<g >
</g>
<g >
</g>
<g >
</g>
<g >
</g>
<g >
</g>
<g >
</g>
<g >
</g>
<g >
</g>
<g >
</g>
<g >
</g>
<g >
</g>
<g >
</g>
<g >
</g>
<g >
</g>
<g >
</g>
<g >
</g>
<g >
</g>
<g >
</g>
<g >
</g>
<g >
</g>
<g >
</g>
<g >
</g>
<g >
</g>
<g >
</g>
<g >
</g>
<g >
</g>
<g >
</g>
<g >
</g>
<g >
</g>
<g >
</g>
<g >
</g>
<g >
</g>
<g >
</g>
<g >
</g>
<g >
</g>
<g >
</g>
<g >
</g>
<g >
</g>
<g >
</g>
<g >
</g>
<g >
</g>
<g >
</g>
<g >
</g>
<g >
</g>
<g >
</g>
<g >
</g>
<g >
</g>
<g >
</g>
<g >
</g>
<g >
</g>
<g >
</g>
<g >
</g>
<g >
</g>
<g >
</g>
<g >
</g>
<g >
</g>
<g >
</g>
<g >
</g>
<g >
</g>
<g >
</g>
<g >
</g>
<g >
</g>
<g >
</g>
<g >
</g>
<g >
</g>
<g >
</g>
<g >
</g>
<g >
</g>
<g >
</g>
<g >
</g>
<g >
</g>
<g >
</g>
<g >
</g>
<g >
</g>
<g >
</g>
<g >
</g>
<g >
</g>
<g >
</g>
<g >
</g>
<g >
</g>
<g >
</g>
<g >
</g>
<g >
</g>
<g >
</g>
<g >
</g>
<g >
</g>
<g >
</g>
<g >
</g>
<g >
</g>
<g >
</g>
<g >
</g>
<g >
</g>
<g >
</g>
<g >
</g>
<g >
</g>
<g >
</g>
<g >
</g>
<g >
</g>
<g >
</g>
<g >
</g>
<g >
</g>
<g >
</g>
<g >
</g>
<g >
</g>
<g >
</g>
<g >
</g>
<g >
</g>
<g >
</g>
<g >
</g>
<g >
</g>
</g>
<g style="fill:#000000; fill-opacity:0.0; 
stroke:#000000; stroke-width:47.2441; stroke-opacity:1; 
stroke-linecap:round; stroke-linejoin:round;">
</g>
<g style="fill:#C2C200; fill-opacity:0.0; 
stroke:#C2C200; stroke-width:47.2441; stroke-opacity:1; 
stroke-linecap:round; stroke-linejoin:round;">
</g>
<g style="fill:#C2C200; fill-opacity:0.0; 
stroke:#C2C200; stroke-width:78.7402; stroke-opacity:1; 
stroke-linecap:round; stroke-linejoin:round;">
<path d="M58480 25043
L58480 10195
" />
<path d="M71440 25043
L71440 10195
" />
<path d="M58480 25043
L71440 25043
" />
<path d="M9562 18503
L9570 17797
" />
<path d="M12102 22177
L9562 22185
" />
<path d="M12098 18503
L12102 22177
" />
<path d="M9562 18503
L12098 18503
" />
<path d="M42160 50961
L42201 50104
" />
<path d="M42201 50104
L42135 49294
" />
<path d="M42135 49294
L41964 48528
" />
<path d="M41964 48528
L41694 47805
" />
<path d="M41694 47805
L41329 47123
" />
<path d="M41329 47123
L40872 46481
" />
<path d="M40872 46481
L40329 45876
" />
<path d="M40329 45876
L39702 45307
" />
<path d="M39702 45307
L38997 44774
" />
<path d="M38997 44774
L38218 44272
" />
<path d="M38218 44272
L37368 43803
" />
<path d="M37368 43803
L36452 43362
" />
<path d="M36452 43362
L35474 42950
" />
<path d="M35474 42950
L34439 42564
" />
<path d="M34439 42564
L33350 42203
" />
<path d="M33350 42203
L32211 41864
" />
<path d="M32211 41864
L31028 41548
" />
<path d="M31028 41548
L29803 41250
" />
<path d="M29803 41250
L28542 40971
" />
<path d="M28542 40971
L27247 40708
" />
<path d="M27247 40708
L25925 40460
" />
<path d="M25925 40460
L24578 40225
" />
<path d="M24578 40225
L23211 40002
" />
<path d="M23211 40002
L21828 39788
" />
<path d="M21828 39788
L20433 39583
" />
<path d="M20433 39583
L19031 39384
" />
<path d="M19031 39384
L17625 39190
" />
<path d="M17625 39190
L16220 38999
" />
<path d="M16220 38999
L14820 38810
" />
<path d="M14820 38810
L13430 38621
" />
<path d="M13430 38621
L12052 38430
" />
<path d="M12052 38430
L10692 38236
" />
<path d="M81247 54150
L86934 52302
" />
<path d="M119227 38236
L119332 38219
" />
<path d="M119332 38219
L119430 38202
" />
<path d="M119430 38202
L119522 38184
" />
<path d="M119522 38184
L119608 38166
" />
<path d="M119608 38166
L119688 38146
" />
<path d="M119688 38146
L119831 38104
" />
<path d="M119831 38104
L119953 38058
" />
<path d="M119953 38058
L120056 38005
" />
<path d="M120056 38005
L120140 37946
" />
<path d="M120140 37946
L120209 37878
" />
<path d="M120209 37878
L120263 37802
" />
<path d="M120263 37802
L120305 37716
" />
<path d="M120305 37716
L120335 37619
" />
<path d="M120335 37619
L120356 37510
" />
<path d="M120356 37510
L120370 37388
" />
<path d="M120370 37388
L120377 37253
" />
<path d="M120377 37253
L120380 37103
" />
<path d="M120380 37103
L120381 37022
" />
<path d="M120381 37022
L120381 36937
" />
<path d="M120381 36937
L120381 36848
" />
<path d="M86934 52302
L87020 52274
" />
<path d="M87020 52274
L87101 52247
" />
<path d="M87101 52247
L87177 52222
" />
<path d="M87177 52222
L87312 52174
" />
<path d="M87312 52174
L87429 52129
" />
<path d="M87429 52129
L87528 52085
" />
<path d="M87528 52085
L87610 52038
" />
<path d="M87610 52038
L87676 51988
" />
<path d="M87676 51988
L87749 51903
" />
<path d="M87749 51903
L87794 51798
" />
<path d="M87794 51798
L87810 51714
" />
<path d="M87810 51714
L87816 51617
" />
<path d="M87816 51617
L87814 51504
" />
<path d="M87814 51504
L87805 51374
" />
<path d="M87805 51374
L87790 51225
" />
<path d="M87790 51225
L87781 51142
" />
<path d="M87781 51142
L87770 51054
" />
<path d="M87770 51054
L87759 50961
" />
<path d="M120349 17797
L120287 17612
" />
<path d="M120287 17612
L120107 17406
" />
<path d="M120107 17406
L119816 17180
" />
<path d="M119816 17180
L119421 16938
" />
<path d="M119421 16938
L118928 16680
" />
<path d="M118928 16680
L118345 16407
" />
<path d="M118345 16407
L117678 16123
" />
<path d="M117678 16123
L116933 15829
" />
<path d="M116933 15829
L116119 15526
" />
<path d="M116119 15526
L115240 15216
" />
<path d="M115240 15216
L114306 14901
" />
<path d="M114306 14901
L113321 14582
" />
<path d="M113321 14582
L112293 14262
" />
<path d="M112293 14262
L111229 13942
" />
<path d="M111229 13942
L110135 13624
" />
<path d="M110135 13624
L109019 13309
" />
<path d="M109019 13309
L107887 13000
" />
<path d="M107887 13000
L106746 12698
" />
<path d="M106746 12698
L105602 12405
" />
<path d="M105602 12405
L104463 12123
" />
<path d="M104463 12123
L103336 11852
" />
<path d="M103336 11852
L102226 11596
" />
<path d="M102226 11596
L101142 11356
" />
<path d="M101142 11356
L100089 11133
" />
<path d="M100089 11133
L99075 10930
" />
<path d="M99075 10930
L98106 10748
" />
<path d="M98106 10748
L97189 10588
" />
<path d="M97189 10588
L96331 10453
" />
<path d="M96331 10453
L95539 10345
" />
<path d="M95539 10345
L94819 10265
" />
<path d="M94819 10265
L94179 10214
" />
<path d="M94179 10214
L93625 10195
" />
<path d="M93625 10195
L91779 10195
" />
<path d="M91779 10195
L89936 10195
" />
<path d="M89936 10195
L88095 10195
" />
<path d="M88095 10195
L86257 10195
" />
<path d="M86257 10195
L84421 10195
" />
<path d="M84421 10195
L82589 10195
" />
<path d="M82589 10195
L80759 10195
" />
<path d="M80759 10195
L78933 10195
" />
<path d="M78933 10195
L77109 10195
" />
<path d="M77109 10195
L75289 10195
" />
<path d="M75289 10195
L73473 10195
" />
<path d="M73473 10195
L71660 10195
" />
<path d="M71660 10195
L69850 10195
" />
<path d="M69850 10195
L68045 10195
" />
<path d="M68045 10195
L66243 10195
" />
<path d="M66243 10195
L64444 10195
" />
<path d="M64444 10195
L62650 10195
" />
<path d="M62650 10195
L60861 10195
" />
<path d="M60861 10195
L59075 10195
" />
<path d="M59075 10195
L57294 10195
" />
<path d="M57294 10195
L55517 10195
" />
<path d="M55517 10195
L53744 10195
" />
<path d="M53744 10195
L51977 10195
" />
<path d="M51977 10195
L50214 10195
" />
<path d="M50214 10195
L48456 10195
" />
<path d="M48456 10195
L46703 10195
" />
<path d="M46703 10195
L44955 10195
" />
<path d="M44955 10195
L43212 10195
" />
<path d="M43212 10195
L41474 10195
" />
<path d="M41474 10195
L39742 10195
" />
<path d="M39742 10195
L38016 10195
" />
<path d="M38016 10195
L36295 10195
" />
<path d="M87759 50961
L87718 50104
" />
<path d="M87718 50104
L87785 49294
" />
<path d="M87785 49294
L87955 48528
" />
<path d="M87955 48528
L88225 47805
" />
<path d="M88225 47805
L88591 47123
" />
<path d="M88591 47123
L89047 46481
" />
<path d="M89047 46481
L89591 45876
" />
<path d="M89591 45876
L90217 45307
" />
<path d="M90217 45307
L90922 44774
" />
<path d="M90922 44774
L91702 44272
" />
<path d="M91702 44272
L92551 43803
" />
<path d="M92551 43803
L93467 43362
" />
<path d="M93467 43362
L94445 42950
" />
<path d="M94445 42950
L95481 42564
" />
<path d="M95481 42564
L96570 42203
" />
<path d="M96570 42203
L97708 41864
" />
<path d="M97708 41864
L98892 41548
" />
<path d="M98892 41548
L100116 41250
" />
<path d="M100116 41250
L101378 40971
" />
<path d="M101378 40971
L102672 40708
" />
<path d="M102672 40708
L103995 40460
" />
<path d="M103995 40460
L105342 40225
" />
<path d="M105342 40225
L106709 40002
" />
<path d="M106709 40002
L108092 39788
" />
<path d="M108092 39788
L109486 39583
" />
<path d="M109486 39583
L110888 39384
" />
<path d="M110888 39384
L112294 39190
" />
<path d="M112294 39190
L113699 38999
" />
<path d="M113699 38999
L115099 38810
" />
<path d="M115099 38810
L116490 38621
" />
<path d="M116490 38621
L117867 38430
" />
<path d="M117867 38430
L119227 38236
" />
<path d="M48672 54150
L42986 52302
" />
<path d="M9539 36848
L9562 22185
" />
<path d="M80168 54311
L79183 54311
" />
<path d="M79183 54311
L78202 54311
" />
<path d="M78202 54311
L77225 54311
" />
<path d="M77225 54311
L76252 54311
" />
<path d="M76252 54311
L75282 54311
" />
<path d="M75282 54311
L74316 54311
" />
<path d="M74316 54311
L73353 54311
" />
<path d="M73353 54311
L72392 54311
" />
<path d="M72392 54311
L71435 54311
" />
<path d="M71435 54311
L70480 54311
" />
<path d="M70480 54311
L69527 54311
" />
<path d="M69527 54311
L68577 54311
" />
<path d="M68577 54311
L67629 54311
" />
<path d="M67629 54311
L66683 54311
" />
<path d="M66683 54311
L65738 54311
" />
<path d="M65738 54311
L64795 54311
" />
<path d="M64795 54311
L63853 54311
" />
<path d="M63853 54311
L62912 54311
" />
<path d="M62912 54311
L61972 54311
" />
<path d="M61972 54311
L61033 54311
" />
<path d="M61033 54311
L60094 54311
" />
<path d="M60094 54311
L59156 54311
" />
<path d="M59156 54311
L58218 54311
" />
<path d="M58218 54311
L57280 54311
" />
<path d="M57280 54311
L56341 54311
" />
<path d="M56341 54311
L55403 54311
" />
<path d="M55403 54311
L54463 54311
" />
<path d="M54463 54311
L53523 54311
" />
<path d="M53523 54311
L52582 54311
" />
<path d="M52582 54311
L51640 54311
" />
<path d="M51640 54311
L50696 54311
" />
<path d="M50696 54311
L49751 54311
" />
<path d="M42986 52302
L42899 52274
" />
<path d="M42899 52274
L42818 52247
" />
<path d="M42818 52247
L42743 52222
" />
<path d="M42743 52222
L42607 52174
" />
<path d="M42607 52174
L42490 52129
" />
<path d="M42490 52129
L42391 52085
" />
<path d="M42391 52085
L42309 52038
" />
<path d="M42309 52038
L42243 51988
" />
<path d="M42243 51988
L42170 51903
" />
<path d="M42170 51903
L42126 51798
" />
<path d="M42126 51798
L42110 51714
" />
<path d="M42110 51714
L42103 51617
" />
<path d="M42103 51617
L42105 51504
" />
<path d="M42105 51504
L42114 51374
" />
<path d="M42114 51374
L42129 51225
" />
<path d="M42129 51225
L42139 51142
" />
<path d="M42139 51142
L42149 51054
" />
<path d="M42149 51054
L42160 50961
" />
<path d="M49751 54311
L49649 54311
" />
<path d="M49649 54311
L49558 54311
" />
<path d="M49558 54311
L49478 54310
" />
<path d="M49478 54310
L49374 54307
" />
<path d="M49374 54307
L49285 54303
" />
<path d="M49285 54303
L49205 54294
" />
<path d="M49205 54294
L49104 54277
" />
<path d="M49104 54277
L49025 54259
" />
<path d="M49025 54259
L48938 54234
" />
<path d="M48938 54234
L48837 54203
" />
<path d="M48837 54203
L48760 54178
" />
<path d="M48760 54178
L48672 54150
" />
<path d="M120381 36848
L120349 17797
" />
<path d="M80168 54311
L80271 54311
" />
<path d="M80271 54311
L80361 54311
" />
<path d="M80361 54311
L80441 54310
" />
<path d="M80441 54310
L80545 54307
" />
<path d="M80545 54307
L80634 54303
" />
<path d="M80634 54303
L80714 54294
" />
<path d="M80714 54294
L80815 54277
" />
<path d="M80815 54277
L80894 54259
" />
<path d="M80894 54259
L80981 54234
" />
<path d="M80981 54234
L81082 54203
" />
<path d="M81082 54203
L81160 54178
" />
<path d="M81160 54178
L81247 54150
" />
<path d="M9570 17797
L9632 17612
" />
<path d="M9632 17612
L9812 17406
" />
<path d="M9812 17406
L10103 17180
" />
<path d="M10103 17180
L10498 16938
" />
<path d="M10498 16938
L10991 16680
" />
<path d="M10991 16680
L11574 16407
" />
<path d="M11574 16407
L12242 16123
" />
<path d="M12242 16123
L12986 15829
" />
<path d="M12986 15829
L13801 15526
" />
<path d="M13801 15526
L14679 15216
" />
<path d="M14679 15216
L15614 14901
" />
<path d="M15614 14901
L16599 14582
" />
<path d="M16599 14582
L17626 14262
" />
<path d="M17626 14262
L18691 13942
" />
<path d="M18691 13942
L19784 13624
" />
<path d="M19784 13624
L20900 13309
" />
<path d="M20900 13309
L22032 13000
" />
<path d="M22032 13000
L23174 12698
" />
<path d="M23174 12698
L24317 12405
" />
<path d="M24317 12405
L25456 12123
" />
<path d="M25456 12123
L26584 11852
" />
<path d="M26584 11852
L27693 11596
" />
<path d="M27693 11596
L28778 11356
" />
<path d="M28778 11356
L29830 11133
" />
<path d="M29830 11133
L30845 10930
" />
<path d="M30845 10930
L31814 10748
" />
<path d="M31814 10748
L32731 10588
" />
<path d="M32731 10588
L33588 10453
" />
<path d="M33588 10453
L34381 10345
" />
<path d="M34381 10345
L35100 10265
" />
<path d="M35100 10265
L35740 10214
" />
<path d="M35740 10214
L36295 10195
" />
<path d="M10692 38236
L10587 38219
" />
<path d="M10587 38219
L10489 38202
" />
<path d="M10489 38202
L10397 38184
" />
<path d="M10397 38184
L10311 38166
" />
<path d="M10311 38166
L10231 38146
" />
<path d="M10231 38146
L10088 38104
" />
<path d="M10088 38104
L9966 38058
" />
<path d="M9966 38058
L9864 38005
" />
<path d="M9864 38005
L9779 37946
" />
<path d="M9779 37946
L9710 37878
" />
<path d="M9710 37878
L9656 37802
" />
<path d="M9656 37802
L9615 37716
" />
<path d="M9615 37716
L9584 37619
" />
<path d="M9584 37619
L9563 37510
" />
<path d="M9563 37510
L9550 37388
" />
<path d="M9550 37388
L9542 37253
" />
<path d="M9542 37253
L9539 37103
" />
<path d="M9539 37103
L9539 37022
" />
<path d="M9539 37022
L9539 36937
" />
<path d="M9539 36937
L9539 36848
" />
<g >
</g>
<g >
</g>
<g >
</g>
<g >
</g>
<g >
</g>
<g >
</g>
<g >
</g>
<g >
</g>
<g >
</g>
<g >
</g>
<g >
</g>
<g >
</g>
<g >
</g>
<g >
</g>
<g >
</g>
<g >
</g>
<g >
</g>
<g >
</g>
<g >
</g>
<g >
</g>
<g >
</g>
<g >
</g>
<g >
</g>
<g >
</g>
<g >
</g>
<g >
</g>
<g >
</g>
<g >
</g>
<g >
</g>
<g >
</g>
<g >
</g>
<g >
</g>
<g >
</g>
<g >
</g>
<g >
</g>
<g >
</g>
<g >
</g>
<g >
</g>
<g >
</g>
<g >
</g>
<g >
</g>
<g >
</g>
<g >
</g>
<g >
</g>
<g >
</g>
<g >
</g>
<g >
</g>
<g >
</g>
<g >
</g>
<g >
</g>
<g >
</g>
<g >
</g>
<g >
</g>
<g >
</g>
<g >
</g>
<g >
</g>
<g >
</g>
<g >
</g>
<g >
</g>
<g >
</g>
<g >
</g>
<g >
</g>
<g >
</g>
<g >
</g>
<g >
</g>
<g >
</g>
<g >
</g>
<g >
</g>
<g >
</g>
<g >
</g>
<g >
</g>
<g >
</g>
<g >
</g>
<g >
</g>
<g >
</g>
<g >
</g>
<g >
</g>
<g >
</g>
<g >
</g>
<g >
</g>
<g >
</g>
<g >
</g>
<g >
</g>
<g >
</g>
<g >
</g>
<g >
</g>
<g >
</g>
<g >
</g>
<g >
</g>
<g >
</g>
<g >
</g>
<g >
</g>
<g >
</g>
<g >
</g>
<g >
</g>
<g >
</g>
<g >
</g>
<g >
</g>
<g >
</g>
<g >
</g>
<g >
</g>
<g >
</g>
<g >
</g>
<g >
</g>
<g >
</g>
<g >
</g>
<g >
</g>
<g >
</g>
<g >
</g>
<g >
</g>
<g >
</g>
<g >
</g>
<g >
</g>
<g >
</g>
<g >
</g>
<g >
</g>
<g >
</g>
<g >
</g>
<g >
</g>
<g >
</g>
<g >
</g>
<g >
</g>
<g >
</g>
<g >
</g>
<g >
</g>
<g >
</g>
<g >
</g>
<g >
</g>
<g >
</g>
<g >
</g>
<g >
</g>
<g >
</g>
<g >
</g>
<g >
</g>
<g >
</g>
<g >
</g>
<g >
</g>
<g >
</g>
<g >
</g>
<g >
</g>
<g >
</g>
<g >
</g>
</g> 
</svg>
