<?xml version="1.0" standalone="no"?>
 <!DOCTYPE svg PUBLIC "-//W3C//DTD SVG 1.1//EN" 
 "http://www.w3.org/Graphics/SVG/1.1/DTD/svg11.dtd"> 
<svg
  xmlns:svg="http://www.w3.org/2000/svg"
  xmlns="http://www.w3.org/2000/svg"
  xmlns:xlink="http://www.w3.org/1999/xlink"
  version="1.1"
  width="28.572460cm" height="11.224260cm" viewBox="0 0 112490 44190">
<title>SVG Picture created as yacc46_plate-brd.svg date 2021/05/30 17:18:51 </title>
  <desc>Picture generated by PCBNEW </desc>
<g style="fill:#000000; fill-opacity:1;stroke:#000000; stroke-opacity:1;
stroke-linecap:round; stroke-linejoin:round;"
 transform="translate(0 0) scale(1 1)">
</g>
<g style="fill:#000000; fill-opacity:0.0; 
stroke:#000000; stroke-width:-0.000393701; stroke-opacity:1; 
stroke-linecap:round; stroke-linejoin:round;">
</g>
<g style="fill:#C27F00; fill-opacity:0.0; 
stroke:#C27F00; stroke-width:-0.000393701; stroke-opacity:1; 
stroke-linecap:round; stroke-linejoin:round;">
</g>
<g style="fill:#C27F00; fill-opacity:0.0; 
stroke:#C27F00; stroke-width:59.0551; stroke-opacity:1; 
stroke-linecap:round; stroke-linejoin:round;">
<path d="M62978 14875
L62978 39
" />
<path d="M49513 14875
L62978 14875
" />
<path d="M49513 39
L49513 14875
" />
<circle cx="61778.1" cy="42275.9" r="492.126" /> 
</g>
<g style="fill:#C27F00; fill-opacity:0.0; 
stroke:#C27F00; stroke-width:47.2441; stroke-opacity:1; 
stroke-linecap:round; stroke-linejoin:round;">
<path d="M59316 33497
L52624 33497
" />
<path d="M52624 33497
L52624 40977
" />
<path d="M52624 40977
L59316 40977
" />
<path d="M59316 40977
L59316 33497
" />
<path d="M59316 33654
L59907 33654
" />
<path d="M59316 35150
L59907 35150
" />
<path d="M52781 40977
L52781 41568
" />
<path d="M54277 40977
L54277 41568
" />
<circle cx="56246.1" cy="37276.8" r="2952.76" /> 
<path d="M59198 37276
L53293 37276
" />
<path d="M56246 40229
L56246 34324
" />
<path d="M52781.6 41568.2 A748.031 748.031 0.0 0 0 54277.6 41568.2" />
<path d="M59907.5 35150.8 A748.031 748.031 0.0 0 0 59907.5 33654.8" />
</g>
<g style="fill:#C27F00; fill-opacity:0.0; 
stroke:#C27F00; stroke-width:39.3701; stroke-opacity:1; 
stroke-linecap:round; stroke-linejoin:round;">
<circle cx="50891.8" cy="13497.3" r="433.071" /> 
<circle cx="61600.4" cy="13497.3" r="433.071" /> 
<circle cx="42466.6" cy="42178.4" r="433.071" /> 
<circle cx="23726.4" cy="30209.9" r="433.071" /> 
<circle cx="7033.52" cy="27552.4" r="433.071" /> 
<circle cx="4159.5" cy="8044.55" r="433.071" /> 
<circle cx="24454.8" cy="1981.56" r="433.071" /> 
<circle cx="46403.6" cy="2001.24" r="433.071" /> 
<circle cx="66088.6" cy="2001.24" r="433.071" /> 
<circle cx="88037.5" cy="1981.56" r="433.071" /> 
<circle cx="108333" cy="8044.55" r="433.071" /> 
<circle cx="105459" cy="27552.4" r="433.071" /> 
<circle cx="88765.8" cy="30209.9" r="433.071" /> 
<circle cx="70025.6" cy="42178.4" r="433.071" /> 
</g>
<g style="fill:#C27F00; fill-opacity:0.0; 
stroke:#C27F00; stroke-width:47.2441; stroke-opacity:1; 
stroke-linecap:round; stroke-linejoin:round;">
<path d="M65784.1 29194.4 A196.85 196.85 0.0 0 0 65624.4 29422.4" />
<path d="M65305.1 29878.5 A393.7 393.7 0.0 0 0 65624.4 29422.4" />
<path d="M62910.4 29901 A196.85 196.85 0.0 0 0 62682.3 29741.3" />
<path d="M62910.4 29901 A393.701 393.701 0.0 0 0 63366.5 30220.3" />
<path d="M64633.1 23800.5 A393.701 393.701 0.0 0 0 64177 23481.1" />
<path d="M62238.4 23822.9 A393.701 393.701 0.0 0 0 61919.1 24279" />
<path d="M66830.9 29009.8 A118.11 118.11 0.0 0 0 66926.7 28872.9" />
<path d="M61498.7 29830.1 A118.11 118.11 0.0 0 0 61635.5 29925.9" />
<path d="M60678.4 24497.8 A118.11 118.11 0.0 0 0 60582.6 24634.6" />
<path d="M66010.6 23677.5 A118.11 118.11 0.0 0 0 65873.8 23581.7" />
<path d="M65784 29194
L66830 29009
" />
<path d="M61635 29925
L62682 29741
" />
<path d="M61498 29830
L60582 24634
" />
<path d="M66010 23677
L66926 28872
" />
<path d="M60678 24497
L61919 24279
" />
<path d="M63366 30220
L65305 29878
" />
<path d="M62238 23822
L64177 23481
" />
<path d="M64633 23800
L65873 23581
" />
<path d="M49809.9 29741.3 A196.85 196.85 0.0 0 0 49581.9 29901" />
<path d="M49125.8 30220.3 A393.7 393.7 0.0 0 0 49581.9 29901" />
<path d="M46867.8 29422.4 A196.85 196.85 0.0 0 0 46708.2 29194.4" />
<path d="M46867.8 29422.4 A393.7 393.7 0.0 0 0 47187.2 29878.5" />
<path d="M50573.2 24279 A393.7 393.7 0.0 0 0 50253.8 23822.9" />
<path d="M48315.2 23481.1 A393.7 393.7 0.0 0 0 47859.1 23800.5" />
<path d="M50856.8 29925.9 A118.11 118.11 0.0 0 0 50993.6 29830.1" />
<path d="M45565.5 28872.9 A118.11 118.11 0.0 0 0 45661.3 29009.8" />
<path d="M46618.4 23581.7 A118.11 118.11 0.0 0 0 46481.6 23677.5" />
<path d="M51909.7 24634.6 A118.11 118.11 0.0 0 0 51813.9 24497.8" />
<path d="M49809 29741
L50856 29925
" />
<path d="M45661 29009
L46708 29194
" />
<path d="M45565 28872
L46481 23677
" />
<path d="M51909 24634
L50993 29830
" />
<path d="M46618 23581
L47859 23800
" />
<path d="M47187 29878
L49125 30220
" />
<path d="M48315 23481
L50253 23822
" />
<path d="M50573 24279
L51813 24497
" />
<path d="M65528.6 21623.7 A118.11 118.11 0.0 0 0 65624.4 21486.9" />
<path d="M60196.3 22444 A118.11 118.11 0.0 0 0 60333.1 22539.8" />
<path d="M59376 17111.7 A118.11 118.11 0.0 0 0 59280.2 17248.6" />
<path d="M64708.3 16291.4 A118.11 118.11 0.0 0 0 64571.5 16195.6" />
<path d="M60196 22443
L59280 17248
" />
<path d="M65528 21623
L60333 22539
" />
<path d="M64708 16291
L65624 21486
" />
<path d="M59376 17111
L64571 16195
" />
<path d="M13923.3 12896.9 A118.11 118.11 0.0 0 0 14041.4 12778.8" />
<path d="M8529.58 12778.8 A118.11 118.11 0.0 0 0 8647.69 12896.9" />
<path d="M8647.69 7385.1 A118.11 118.11 0.0 0 0 8529.58 7503.21" />
<path d="M14041.4 7503.21 A118.11 118.11 0.0 0 0 13923.3 7385.1" />
<path d="M8529 12778
L8529 7503
" />
<path d="M13923 12896
L8647 12896
" />
<path d="M14041 7503
L14041 12778
" />
<path d="M8647 7385
L13923 7385
" />
<path d="M23060.1 9902.23 A118.11 118.11 0.0 0 0 23189.9 9797.12" />
<path d="M17708.3 9220.98 A118.11 118.11 0.0 0 0 17813.4 9350.79" />
<path d="M18389.6 3869.17 A118.11 118.11 0.0 0 0 18259.8 3974.29" />
<path d="M23741.4 4550.43 A118.11 118.11 0.0 0 0 23636.3 4420.62" />
<path d="M17708 9220
L18259 3974
" />
<path d="M23060 9902
L17813 9350
" />
<path d="M23741 4550
L23189 9797
" />
<path d="M18389 3869
L23636 4420
" />
<path d="M31954.5 7553.63 A118.11 118.11 0.0 0 0 32091.3 7457.83" />
<path d="M26663.2 6500.71 A118.11 118.11 0.0 0 0 26759 6637.54" />
<path d="M27716.2 1209.46 A118.11 118.11 0.0 0 0 27579.3 1305.27" />
<path d="M33007.4 2262.38 A118.11 118.11 0.0 0 0 32911.6 2125.56" />
<path d="M26663 6500
L27579 1305
" />
<path d="M31954 7553
L26759 6637
" />
<path d="M33007 2262
L32091 7457
" />
<path d="M27716 1209
L32911 2125
" />
<path d="M39014.9 10702.5 A118.11 118.11 0.0 0 0 39151.8 10606.7" />
<path d="M33723.7 9649.59 A118.11 118.11 0.0 0 0 33819.5 9786.41" />
<path d="M34776.6 4358.34 A118.11 118.11 0.0 0 0 34639.8 4454.14" />
<path d="M40067.9 5411.26 A118.11 118.11 0.0 0 0 39972.1 5274.43" />
<path d="M33723 9649
L34639 4454
" />
<path d="M39014 10702
L33819 9786
" />
<path d="M40067 5411
L39151 10606
" />
<path d="M34776 4358
L39972 5274
" />
<path d="M46238.2 12928.1 A118.11 118.11 0.0 0 0 46375 12832.3" />
<path d="M40947 11875.2 A118.11 118.11 0.0 0 0 41042.8 12012" />
<path d="M41999.9 6583.96 A118.11 118.11 0.0 0 0 41863.1 6679.76" />
<path d="M47291.1 7636.88 A118.11 118.11 0.0 0 0 47195.3 7500.05" />
<path d="M40946 11875
L41863 6679
" />
<path d="M46238 12928
L41042 12012
" />
<path d="M47291 7636
L46375 12832
" />
<path d="M41999 6583
L47195 7500
" />
<path d="M6423.28 18521.9 A118.11 118.11 0.0 0 0 6541.39 18403.8" />
<path d="M1029.58 18403.8 A118.11 118.11 0.0 0 0 1147.69 18521.9" />
<path d="M1147.69 13010.1 A118.11 118.11 0.0 0 0 1029.58 13128.2" />
<path d="M6541.39 13128.2 A118.11 118.11 0.0 0 0 6423.28 13010.1" />
<path d="M1029 18403
L1029 13128
" />
<path d="M6423 18521
L1147 18521
" />
<path d="M6541 13128
L6541 18403
" />
<path d="M1147 13010
L6423 13010
" />
<path d="M13923.3 20396.9 A118.11 118.11 0.0 0 0 14041.4 20278.8" />
<path d="M8529.58 20278.8 A118.11 118.11 0.0 0 0 8647.69 20396.9" />
<path d="M8647.69 14885.1 A118.11 118.11 0.0 0 0 8529.58 15003.2" />
<path d="M14041.4 15003.2 A118.11 118.11 0.0 0 0 13923.3 14885.1" />
<path d="M8529 20278
L8529 15003
" />
<path d="M13923 20396
L8647 20396
" />
<path d="M14041 15003
L14041 20278
" />
<path d="M8647 14885
L13923 14885
" />
<path d="M22276.2 17361.1 A118.11 118.11 0.0 0 0 22406 17256" />
<path d="M16924.4 16679.9 A118.11 118.11 0.0 0 0 17029.5 16809.7" />
<path d="M17605.6 11328.1 A118.11 118.11 0.0 0 0 17475.8 11433.2" />
<path d="M22957.4 12009.3 A118.11 118.11 0.0 0 0 22852.3 11879.5" />
<path d="M16924 16679
L17475 11433
" />
<path d="M22276 17361
L17029 16809
" />
<path d="M22957 12009
L22405 17256
" />
<path d="M17605 11328
L22852 11879
" />
<path d="M30652.1 14939.7 A118.11 118.11 0.0 0 0 30788.9 14843.9" />
<path d="M25360.9 13886.8 A118.11 118.11 0.0 0 0 25456.7 14023.6" />
<path d="M26413.8 8595.52 A118.11 118.11 0.0 0 0 26277 8691.33" />
<path d="M31705 9648.44 A118.11 118.11 0.0 0 0 31609.2 9511.62" />
<path d="M25360 13886
L26276 8691
" />
<path d="M30652 14939
L25456 14023
" />
<path d="M31705 9648
L30788 14843
" />
<path d="M26413 8595
L31609 9511
" />
<path d="M37712.6 18088.6 A118.11 118.11 0.0 0 0 37849.4 17992.8" />
<path d="M32421.3 17035.6 A118.11 118.11 0.0 0 0 32517.1 17172.5" />
<path d="M33474.3 11744.4 A118.11 118.11 0.0 0 0 33337.4 11840.2" />
<path d="M38765.5 12797.3 A118.11 118.11 0.0 0 0 38669.7 12660.5" />
<path d="M32421 17035
L33337 11840
" />
<path d="M37712 18088
L32517 17172
" />
<path d="M38765 12797
L37849 17992
" />
<path d="M33474 11744
L38669 12660
" />
<path d="M44935.8 20314.2 A118.11 118.11 0.0 0 0 45072.7 20218.4" />
<path d="M39644.6 19261.3 A118.11 118.11 0.0 0 0 39740.4 19398.1" />
<path d="M40697.5 13970 A118.11 118.11 0.0 0 0 40560.7 14065.8" />
<path d="M45988.8 15022.9 A118.11 118.11 0.0 0 0 45893 14886.1" />
<path d="M39644 19261
L40560 14065
" />
<path d="M44935 20314
L39740 19398
" />
<path d="M45988 15022
L45072 20218
" />
<path d="M40697 13970
L45892 14886
" />
<path d="M52159.1 22539.8 A118.11 118.11 0.0 0 0 52295.9 22444" />
<path d="M46867.9 21486.9 A118.11 118.11 0.0 0 0 46963.7 21623.7" />
<path d="M47920.8 16195.6 A118.11 118.11 0.0 0 0 47784 16291.4" />
<path d="M53212 17248.6 A118.11 118.11 0.0 0 0 53116.2 17111.7" />
<path d="M46867 21486
L47783 16291
" />
<path d="M52159 22539
L46963 21623
" />
<path d="M53212 17248
L52295 22443
" />
<path d="M47920 16195
L53116 17111
" />
<path d="M6423.28 26021.9 A118.11 118.11 0.0 0 0 6541.39 25903.8" />
<path d="M1029.58 25903.8 A118.11 118.11 0.0 0 0 1147.69 26021.9" />
<path d="M1147.69 20510.1 A118.11 118.11 0.0 0 0 1029.58 20628.2" />
<path d="M6541.39 20628.2 A118.11 118.11 0.0 0 0 6423.28 20510.1" />
<path d="M1029 25903
L1029 20628
" />
<path d="M6423 26021
L1147 26021
" />
<path d="M6541 20628
L6541 25903
" />
<path d="M1147 20510
L6423 20510
" />
<path d="M13923.3 27896.9 A118.11 118.11 0.0 0 0 14041.4 27778.8" />
<path d="M8529.58 27778.8 A118.11 118.11 0.0 0 0 8647.69 27896.9" />
<path d="M8647.69 22385.1 A118.11 118.11 0.0 0 0 8529.58 22503.2" />
<path d="M14041.4 22503.2 A118.11 118.11 0.0 0 0 13923.3 22385.1" />
<path d="M8529 27778
L8529 22503
" />
<path d="M13923 27896
L8647 27896
" />
<path d="M14041 22503
L14041 27778
" />
<path d="M8647 22385
L13923 22385
" />
<path d="M21492.2 24820.1 A118.11 118.11 0.0 0 0 21622 24714.9" />
<path d="M16140.4 24138.8 A118.11 118.11 0.0 0 0 16245.5 24268.6" />
<path d="M16821.7 18787 A118.11 118.11 0.0 0 0 16691.8 18892.1" />
<path d="M22173.5 19468.3 A118.11 118.11 0.0 0 0 22068.3 19338.4" />
<path d="M16140 24138
L16691 18892
" />
<path d="M21492 24820
L16245 24268
" />
<path d="M22173 19468
L21622 24714
" />
<path d="M16821 18786
L22068 19338
" />
<path d="M29349.8 22325.7 A118.11 118.11 0.0 0 0 29486.6 22229.9" />
<path d="M24058.5 21272.8 A118.11 118.11 0.0 0 0 24154.3 21409.7" />
<path d="M25111.4 15981.6 A118.11 118.11 0.0 0 0 24974.6 16077.4" />
<path d="M30402.7 17034.5 A118.11 118.11 0.0 0 0 30306.9 16897.7" />
<path d="M24058 21272
L24974 16077
" />
<path d="M29349 22325
L24154 21409
" />
<path d="M30402 17034
L29486 22229
" />
<path d="M25111 15981
L30306 16897
" />
<path d="M36410.2 25474.6 A118.11 118.11 0.0 0 0 36547.1 25378.8" />
<path d="M31119 24421.7 A118.11 118.11 0.0 0 0 31214.8 24558.5" />
<path d="M32171.9 19130.5 A118.11 118.11 0.0 0 0 32035.1 19226.3" />
<path d="M37463.1 20183.4 A118.11 118.11 0.0 0 0 37367.3 20046.6" />
<path d="M31118 24421
L32035 19226
" />
<path d="M36410 25474
L31214 24558
" />
<path d="M37463 20183
L36547 25378
" />
<path d="M32171 19130
L37367 20046
" />
<path d="M43633.5 27700.2 A118.11 118.11 0.0 0 0 43770.3 27604.4" />
<path d="M38342.2 26647.3 A118.11 118.11 0.0 0 0 38438 26784.1" />
<path d="M39395.2 21356.1 A118.11 118.11 0.0 0 0 39258.3 21451.9" />
<path d="M44686.4 22409 A118.11 118.11 0.0 0 0 44590.6 22272.2" />
<path d="M38342 26647
L39258 21451
" />
<path d="M43633 27700
L38438 26784
" />
<path d="M44686 22408
L43770 27604
" />
<path d="M39395 21356
L44590 22272
" />
<path d="M33929.8 33530.8 A118.11 118.11 0.0 0 0 34066.6 33435" />
<path d="M28638.6 32477.9 A118.11 118.11 0.0 0 0 28734.4 32614.7" />
<path d="M29691.5 27186.6 A118.11 118.11 0.0 0 0 29554.7 27282.4" />
<path d="M34982.7 28239.6 A118.11 118.11 0.0 0 0 34886.9 28102.7" />
<path d="M28638 32477
L29554 27282
" />
<path d="M33929 33530
L28734 32614
" />
<path d="M34982 28239
L34066 33434
" />
<path d="M29691 27186
L34886 28102
" />
<path d="M41234.8 35731.4 A118.11 118.11 0.0 0 0 41383.7 35655.6" />
<path d="M36141.6 33952.4 A118.11 118.11 0.0 0 0 36217.4 34101.2" />
<path d="M37920.7 28859.1 A118.11 118.11 0.0 0 0 37771.9 28935" />
<path d="M43013.9 30638.2 A118.11 118.11 0.0 0 0 42938.1 30489.4" />
<path d="M36141 33952
L37771 28934
" />
<path d="M41234 35731
L36217 34101
" />
<path d="M43013 30638
L41383 35655
" />
<path d="M37920 28859
L42938 30489
" />
<path d="M48162.5 38927.3 A118.11 118.11 0.0 0 0 48320.4 38872.9" />
<path d="M43366.5 36456.7 A118.11 118.11 0.0 0 0 43420.8 36614.6" />
<path d="M45837.1 31660.6 A118.11 118.11 0.0 0 0 45679.1 31715" />
<path d="M50633.1 34131.2 A118.11 118.11 0.0 0 0 50578.7 33973.3" />
<path d="M43366 36456
L45679 31715
" />
<path d="M48162 38927
L43420 36614
" />
<path d="M50633 34131
L48320 38872
" />
<path d="M45837 31660
L50578 33973
" />
<path d="M38917.2 42864.4 A118.11 118.11 0.0 0 0 39066 42788.5" />
<path d="M33824 41085.3 A118.11 118.11 0.0 0 0 33899.8 41234.1" />
<path d="M35603.1 35992.1 A118.11 118.11 0.0 0 0 35454.2 36067.9" />
<path d="M40696.3 37771.1 A118.11 118.11 0.0 0 0 40620.5 37622.3" />
<path d="M33823 41085
L35454 36067
" />
<path d="M38917 42864
L33899 41234
" />
<path d="M40696 37771
L39066 42788
" />
<path d="M35603 35992
L40620 37622
" />
<path d="M71449.5 12012 A118.11 118.11 0.0 0 0 71545.3 11875.2" />
<path d="M66117.2 12832.3 A118.11 118.11 0.0 0 0 66254 12928.1" />
<path d="M65296.9 7500.05 A118.11 118.11 0.0 0 0 65201.1 7636.88" />
<path d="M70629.2 6679.76 A118.11 118.11 0.0 0 0 70492.4 6583.96" />
<path d="M66117 12832
L65201 7636
" />
<path d="M71449 12012
L66254 12928
" />
<path d="M70629 6679
L71545 11875
" />
<path d="M65296 7500
L70492 6583
" />
<path d="M78672.7 9786.41 A118.11 118.11 0.0 0 0 78768.5 9649.59" />
<path d="M73340.5 10606.7 A118.11 118.11 0.0 0 0 73477.3 10702.5" />
<path d="M72520.2 5274.43 A118.11 118.11 0.0 0 0 72424.4 5411.26" />
<path d="M77852.4 4454.14 A118.11 118.11 0.0 0 0 77715.6 4358.34" />
<path d="M73340 10606
L72424 5411
" />
<path d="M78672 9786
L73477 10702
" />
<path d="M77852 4454
L78768 9649
" />
<path d="M72520 5274
L77715 4358
" />
<path d="M85733.2 6637.54 A118.11 118.11 0.0 0 0 85829 6500.71" />
<path d="M80400.9 7457.83 A118.11 118.11 0.0 0 0 80537.8 7553.63" />
<path d="M79580.6 2125.56 A118.11 118.11 0.0 0 0 79484.8 2262.38" />
<path d="M84912.9 1305.27 A118.11 118.11 0.0 0 0 84776.1 1209.46" />
<path d="M80400 7457
L79484 2262
" />
<path d="M85733 6637
L80537 7553
" />
<path d="M84912 1305
L85829 6500
" />
<path d="M79580 2125
L84776 1209
" />
<path d="M94678.8 9350.79 A118.11 118.11 0.0 0 0 94783.9 9220.98" />
<path d="M89302.3 9797.12 A118.11 118.11 0.0 0 0 89432.1 9902.23" />
<path d="M88856 4420.62 A118.11 118.11 0.0 0 0 88750.9 4550.43" />
<path d="M94232.5 3974.29 A118.11 118.11 0.0 0 0 94102.7 3869.17" />
<path d="M89302 9797
L88750 4550
" />
<path d="M94678 9350
L89432 9902
" />
<path d="M94232 3974
L94783 9220
" />
<path d="M88855 4420
L94102 3869
" />
<path d="M103845 12896.9 A118.11 118.11 0.0 0 0 103963 12778.8" />
<path d="M98450.8 12778.8 A118.11 118.11 0.0 0 0 98569 12896.9" />
<path d="M98569 7385.1 A118.11 118.11 0.0 0 0 98450.8 7503.21" />
<path d="M103963 7503.21 A118.11 118.11 0.0 0 0 103845 7385.1" />
<path d="M98450 12778
L98450 7503
" />
<path d="M103844 12896
L98568 12896
" />
<path d="M103962 7503
L103962 12778
" />
<path d="M98568 7385
L103844 7385
" />
<path d="M72751.8 19398.1 A118.11 118.11 0.0 0 0 72847.6 19261.3" />
<path d="M67419.6 20218.4 A118.11 118.11 0.0 0 0 67556.4 20314.2" />
<path d="M66599.3 14886.1 A118.11 118.11 0.0 0 0 66503.5 15022.9" />
<path d="M71931.5 14065.8 A118.11 118.11 0.0 0 0 71794.7 13970" />
<path d="M67419 20218
L66503 15022
" />
<path d="M72751 19398
L67556 20314
" />
<path d="M71931 14065
L72847 19261
" />
<path d="M66599 14886
L71794 13970
" />
<path d="M79975.1 17172.5 A118.11 118.11 0.0 0 0 80070.9 17035.6" />
<path d="M74642.8 17992.8 A118.11 118.11 0.0 0 0 74779.7 18088.6" />
<path d="M73822.5 12660.5 A118.11 118.11 0.0 0 0 73726.7 12797.3" />
<path d="M79154.8 11840.2 A118.11 118.11 0.0 0 0 79018 11744.4" />
<path d="M74642 17992
L73726 12797
" />
<path d="M79975 17172
L74779 18088
" />
<path d="M79154 11840
L80070 17035
" />
<path d="M73822 12660
L79017 11744
" />
<path d="M87035.6 14023.6 A118.11 118.11 0.0 0 0 87131.4 13886.8" />
<path d="M81703.3 14843.9 A118.11 118.11 0.0 0 0 81840.1 14939.7" />
<path d="M80883 9511.62 A118.11 118.11 0.0 0 0 80787.2 9648.44" />
<path d="M86215.3 8691.33 A118.11 118.11 0.0 0 0 86078.4 8595.52" />
<path d="M81703 14843
L80787 9648
" />
<path d="M87035 14023
L81840 14939
" />
<path d="M86215 8691
L87131 13886
" />
<path d="M80883 9511
L86078 8595
" />
<path d="M95462.8 16809.7 A118.11 118.11 0.0 0 0 95567.9 16679.9" />
<path d="M90086.3 17256 A118.11 118.11 0.0 0 0 90216.1 17361.1" />
<path d="M89639.9 11879.5 A118.11 118.11 0.0 0 0 89534.8 12009.3" />
<path d="M95016.4 11433.2 A118.11 118.11 0.0 0 0 94886.6 11328.1" />
<path d="M90086 17256
L89534 12009
" />
<path d="M95462 16809
L90216 17361
" />
<path d="M95016 11433
L95567 16679
" />
<path d="M89639 11879
L94886 11328
" />
<path d="M103845 20396.9 A118.11 118.11 0.0 0 0 103963 20278.8" />
<path d="M98450.8 20278.8 A118.11 118.11 0.0 0 0 98569 20396.9" />
<path d="M98569 14885.1 A118.11 118.11 0.0 0 0 98450.8 15003.2" />
<path d="M103963 15003.2 A118.11 118.11 0.0 0 0 103845 14885.1" />
<path d="M98450 20278
L98450 15003
" />
<path d="M103844 20396
L98568 20396
" />
<path d="M103962 15003
L103962 20278
" />
<path d="M98568 14885
L103844 14885
" />
<path d="M111345 18521.9 A118.11 118.11 0.0 0 0 111463 18403.8" />
<path d="M105951 18403.8 A118.11 118.11 0.0 0 0 106069 18521.9" />
<path d="M106069 13010.1 A118.11 118.11 0.0 0 0 105951 13128.2" />
<path d="M111463 13128.2 A118.11 118.11 0.0 0 0 111345 13010.1" />
<path d="M105950 18403
L105950 13128
" />
<path d="M111344 18521
L106068 18521
" />
<path d="M111462 13128
L111462 18403
" />
<path d="M106068 13010
L111344 13010
" />
<path d="M74054.2 26784.1 A118.11 118.11 0.0 0 0 74150 26647.3" />
<path d="M68721.9 27604.4 A118.11 118.11 0.0 0 0 68858.7 27700.2" />
<path d="M67901.6 22272.2 A118.11 118.11 0.0 0 0 67805.8 22409" />
<path d="M73233.9 21451.9 A118.11 118.11 0.0 0 0 73097.1 21356.1" />
<path d="M68721 27604
L67805 22408
" />
<path d="M74054 26784
L68858 27700
" />
<path d="M73233 21451
L74149 26647
" />
<path d="M67901 22272
L73097 21356
" />
<path d="M81277.5 24558.5 A118.11 118.11 0.0 0 0 81373.3 24421.7" />
<path d="M75945.2 25378.8 A118.11 118.11 0.0 0 0 76082 25474.6" />
<path d="M75124.9 20046.6 A118.11 118.11 0.0 0 0 75029.1 20183.4" />
<path d="M80457.2 19226.3 A118.11 118.11 0.0 0 0 80320.3 19130.5" />
<path d="M75945 25378
L75029 20183
" />
<path d="M81277 24558
L76082 25474
" />
<path d="M80457 19226
L81373 24421
" />
<path d="M75124 20046
L80320 19130
" />
<path d="M88337.9 21409.7 A118.11 118.11 0.0 0 0 88433.7 21272.8" />
<path d="M83005.7 22229.9 A118.11 118.11 0.0 0 0 83142.5 22325.7" />
<path d="M82185.4 16897.7 A118.11 118.11 0.0 0 0 82089.6 17034.5" />
<path d="M87517.6 16077.4 A118.11 118.11 0.0 0 0 87380.8 15981.6" />
<path d="M83005 22229
L82089 17034
" />
<path d="M88337 21409
L83142 22325
" />
<path d="M87517 16077
L88433 21272
" />
<path d="M82185 16897
L87380 15981
" />
<path d="M96246.7 24268.6 A118.11 118.11 0.0 0 0 96351.8 24138.8" />
<path d="M90870.2 24714.9 A118.11 118.11 0.0 0 0 91000 24820.1" />
<path d="M90423.9 19338.4 A118.11 118.11 0.0 0 0 90318.8 19468.3" />
<path d="M95800.4 18892.1 A118.11 118.11 0.0 0 0 95670.6 18787" />
<path d="M90870 24714
L90318 19468
" />
<path d="M96246 24268
L91000 24820
" />
<path d="M95800 18892
L96351 24138
" />
<path d="M90423 19338
L95670 18786
" />
<path d="M103845 27896.9 A118.11 118.11 0.0 0 0 103963 27778.8" />
<path d="M98450.8 27778.8 A118.11 118.11 0.0 0 0 98569 27896.9" />
<path d="M98569 22385.1 A118.11 118.11 0.0 0 0 98450.8 22503.2" />
<path d="M103963 22503.2 A118.11 118.11 0.0 0 0 103845 22385.1" />
<path d="M98450 27778
L98450 22503
" />
<path d="M103844 27896
L98568 27896
" />
<path d="M103962 22503
L103962 27778
" />
<path d="M98568 22385
L103844 22385
" />
<path d="M111345 26021.9 A118.11 118.11 0.0 0 0 111463 25903.8" />
<path d="M105951 25903.8 A118.11 118.11 0.0 0 0 106069 26021.9" />
<path d="M106069 20510.1 A118.11 118.11 0.0 0 0 105951 20628.2" />
<path d="M111463 20628.2 A118.11 118.11 0.0 0 0 111345 20510.1" />
<path d="M105950 25903
L105950 20628
" />
<path d="M111344 26021
L106068 26021
" />
<path d="M111462 20628
L111462 25903
" />
<path d="M106068 20510
L111344 20510
" />
<path d="M69071.4 36614.6 A118.111 118.111 0.0 0 0 69125.8 36456.7" />
<path d="M64171.8 38872.9 A118.111 118.111 0.0 0 0 64329.7 38927.3" />
<path d="M61913.5 33973.3 A118.111 118.111 0.0 0 0 61859.1 34131.2" />
<path d="M66813.1 31715 A118.111 118.111 0.0 0 0 66655.2 31660.6" />
<path d="M64171 38872
L61859 34131
" />
<path d="M69071 36614
L64329 38927
" />
<path d="M66813 31715
L69125 36456
" />
<path d="M61913 33973
L66655 31660
" />
<path d="M76274.8 34101.2 A118.11 118.11 0.0 0 0 76350.6 33952.4" />
<path d="M71108.6 35655.6 A118.11 118.11 0.0 0 0 71257.4 35731.4" />
<path d="M69554.2 30489.4 A118.11 118.11 0.0 0 0 69478.3 30638.2" />
<path d="M74720.4 28935 A118.11 118.11 0.0 0 0 74571.5 28859.1" />
<path d="M71108 35655
L69478 30638
" />
<path d="M76274 34101
L71257 35731
" />
<path d="M74720 28934
L76350 33952
" />
<path d="M69554 30489
L74571 28859
" />
<path d="M83757.9 32614.7 A118.11 118.11 0.0 0 0 83853.7 32477.9" />
<path d="M78425.6 33435 A118.11 118.11 0.0 0 0 78562.4 33530.8" />
<path d="M77605.3 28102.7 A118.11 118.11 0.0 0 0 77509.5 28239.6" />
<path d="M82937.6 27282.4 A118.11 118.11 0.0 0 0 82800.8 27186.6" />
<path d="M78425 33434
L77509 28239
" />
<path d="M83757 32614
L78562 33530
" />
<path d="M82937 27282
L83853 32477
" />
<path d="M77605 28102
L82800 27186
" />
<path d="M78592.4 41234.1 A118.11 118.11 0.0 0 0 78668.2 41085.3" />
<path d="M73426.2 42788.5 A118.11 118.11 0.0 0 0 73575 42864.4" />
<path d="M71871.8 37622.3 A118.11 118.11 0.0 0 0 71796 37771.1" />
<path d="M77038 36067.9 A118.11 118.11 0.0 0 0 76889.2 35992.1" />
<path d="M73426 42788
L71795 37771
" />
<path d="M78592 41234
L73575 42864
" />
<path d="M77038 36067
L78668 41085
" />
<path d="M71871 37622
L76889 35992
" />
<g >
</g>
<g >
</g>
<g >
</g>
<g >
</g>
<g >
</g>
<g >
</g>
<g >
</g>
<g >
</g>
<g >
</g>
<g >
</g>
<g >
</g>
<g >
</g>
<g >
</g>
<g >
</g>
<g >
</g>
<g >
</g>
<g >
</g>
<g >
</g>
<g >
</g>
<g >
</g>
<g >
</g>
<g >
</g>
<g >
</g>
<g >
</g>
<g >
</g>
<g >
</g>
<g >
</g>
<g >
</g>
<g >
</g>
<g >
</g>
<g >
</g>
<g >
</g>
<g >
</g>
<g >
</g>
<g >
</g>
<g >
</g>
<g >
</g>
<g >
</g>
<g >
</g>
<g >
</g>
<g >
</g>
<g >
</g>
<g >
</g>
<g >
</g>
<g >
</g>
<g >
</g>
<g >
</g>
<g >
</g>
<g >
</g>
<g >
</g>
<g >
</g>
<g >
</g>
<g >
</g>
<g >
</g>
<g >
</g>
<g >
</g>
<g >
</g>
<g >
</g>
<g >
</g>
<g >
</g>
<g >
</g>
<g >
</g>
<g >
</g>
<g >
</g>
<g >
</g>
<g >
</g>
<g >
</g>
<g >
</g>
<g >
</g>
<g >
</g>
<g >
</g>
<g >
</g>
<g >
</g>
<g >
</g>
<g >
</g>
<g >
</g>
<g >
</g>
<g >
</g>
<g >
</g>
<g >
</g>
<g >
</g>
<g >
</g>
<g >
</g>
<g >
</g>
<g >
</g>
<g >
</g>
<g >
</g>
<g >
</g>
<g >
</g>
<g >
</g>
<g >
</g>
<g >
</g>
<g >
</g>
<g >
</g>
<g >
</g>
<g >
</g>
<g >
</g>
<g >
</g>
<g >
</g>
<g >
</g>
<g >
</g>
<g >
</g>
<g >
</g>
<g >
</g>
<g >
</g>
<g >
</g>
<g >
</g>
<g >
</g>
<g >
</g>
<g >
</g>
<g >
</g>
<g >
</g>
<g >
</g>
<g >
</g>
<g >
</g>
<g >
</g>
<g >
</g>
<g >
</g>
<g >
</g>
<g >
</g>
<g >
</g>
<g >
</g>
<g >
</g>
<g >
</g>
<g >
</g>
<g >
</g>
<g >
</g>
<g >
</g>
<g >
</g>
<g >
</g>
<g >
</g>
<g >
</g>
<g >
</g>
<g >
</g>
<g >
</g>
<g >
</g>
<g >
</g>
<g >
</g>
<g >
</g>
<g >
</g>
<g >
</g>
<g >
</g>
<g >
</g>
<g >
</g>
<g >
</g>
</g>
<g style="fill:#000000; fill-opacity:0.0; 
stroke:#000000; stroke-width:47.2441; stroke-opacity:1; 
stroke-linecap:round; stroke-linejoin:round;">
</g>
<g style="fill:#C2C200; fill-opacity:0.0; 
stroke:#C2C200; stroke-width:47.2441; stroke-opacity:1; 
stroke-linecap:round; stroke-linejoin:round;">
</g>
<g style="fill:#C2C200; fill-opacity:0.0; 
stroke:#C2C200; stroke-width:78.7402; stroke-opacity:1; 
stroke-linecap:round; stroke-linejoin:round;">
<path d="M56249 39
L42890 39
" />
<path d="M42890 2276
L42890 39
" />
<path d="M39209 2276
L42890 2276
" />
<path d="M39209 39
L39209 2276
" />
<path d="M39209 39
L27783 39
" />
<path d="M27783 39
L27677 39
" />
<path d="M27677 39
L27564 39
" />
<path d="M27564 39
L27445 40
" />
<path d="M27445 40
L27322 40
" />
<path d="M27322 40
L27194 41
" />
<path d="M27194 41
L27063 43
" />
<path d="M27063 43
L26930 44
" />
<path d="M26930 44
L26797 47
" />
<path d="M26797 47
L26663 50
" />
<path d="M26663 50
L26531 53
" />
<path d="M26531 53
L26400 57
" />
<path d="M26400 57
L26273 62
" />
<path d="M26273 62
L26149 68
" />
<path d="M26149 68
L26031 75
" />
<path d="M26031 75
L25918 83
" />
<path d="M25918 83
L25813 91
" />
<path d="M71784 44155
L56249 44155
" />
<path d="M111800 28768
L110921 28880
" />
<path d="M110921 28880
L110012 28996
" />
<path d="M110012 28996
L109074 29116
" />
<path d="M109074 29116
L108112 29240
" />
<path d="M108112 29240
L107129 29368
" />
<path d="M107129 29368
L106129 29498
" />
<path d="M106129 29498
L105114 29632
" />
<path d="M105114 29632
L104088 29769
" />
<path d="M104088 29769
L103055 29909
" />
<path d="M103055 29909
L102018 30051
" />
<path d="M102018 30051
L100981 30195
" />
<path d="M100981 30195
L99945 30341
" />
<path d="M99945 30341
L98917 30490
" />
<path d="M98917 30490
L97897 30640
" />
<path d="M97897 30640
L96891 30791
" />
<path d="M96891 30791
L95900 30944
" />
<path d="M95900 30944
L94930 31098
" />
<path d="M94930 31098
L93982 31253
" />
<path d="M93982 31253
L93061 31409
" />
<path d="M93061 31409
L92169 31565
" />
<path d="M92169 31565
L91311 31721
" />
<path d="M91311 31721
L90489 31878
" />
<path d="M90489 31878
L89708 32034
" />
<path d="M89708 32034
L88969 32190
" />
<path d="M88969 32190
L88278 32345
" />
<path d="M88278 32345
L87636 32500
" />
<path d="M87636 32500
L87048 32654
" />
<path d="M87048 32654
L86517 32807
" />
<path d="M86517 32807
L86046 32958
" />
<path d="M86046 32958
L85639 33108
" />
<path d="M85639 33108
L85298 33256
" />
<path d="M85298 33256
L85029 33402
" />
<path d="M80011 41143
L79993 41251
" />
<path d="M79993 41251
L79962 41359
" />
<path d="M79962 41359
L79919 41465
" />
<path d="M79919 41465
L79865 41567
" />
<path d="M79865 41567
L79800 41665
" />
<path d="M79800 41665
L79727 41756
" />
<path d="M79727 41756
L79646 41840
" />
<path d="M79646 41840
L79559 41914
" />
<path d="M79559 41914
L79465 41976
" />
<path d="M79465 41976
L79367 42026
" />
<path d="M79367 42026
L79299 42052
" />
<path d="M56249 39
L84716 39
" />
<path d="M40715 44155
L56250 44155
" />
<path d="M38678 43832
L38802 43871
" />
<path d="M38802 43871
L38926 43907
" />
<path d="M38926 43907
L39051 43941
" />
<path d="M39051 43941
L39176 43973
" />
<path d="M39176 43973
L39303 44002
" />
<path d="M39303 44002
L39429 44028
" />
<path d="M39429 44028
L39556 44052
" />
<path d="M39556 44052
L39684 44074
" />
<path d="M39684 44074
L39812 44093
" />
<path d="M39812 44093
L39940 44109
" />
<path d="M39940 44109
L40068 44123
" />
<path d="M40068 44123
L40197 44134
" />
<path d="M40197 44134
L40326 44143
" />
<path d="M40326 44143
L40456 44150
" />
<path d="M40456 44150
L40585 44154
" />
<path d="M40585 44154
L40715 44155
" />
<path d="M698 28768
L1577 28880
" />
<path d="M1577 28880
L2487 28996
" />
<path d="M2487 28996
L3424 29116
" />
<path d="M3424 29116
L4386 29240
" />
<path d="M4386 29240
L5369 29368
" />
<path d="M5369 29368
L6370 29498
" />
<path d="M6370 29498
L7384 29632
" />
<path d="M7384 29632
L8410 29769
" />
<path d="M8410 29769
L9443 29909
" />
<path d="M9443 29909
L10480 30051
" />
<path d="M10480 30051
L11518 30195
" />
<path d="M11518 30195
L12553 30341
" />
<path d="M12553 30341
L13582 30490
" />
<path d="M13582 30490
L14601 30640
" />
<path d="M14601 30640
L15608 30791
" />
<path d="M15608 30791
L16598 30944
" />
<path d="M16598 30944
L17569 31098
" />
<path d="M17569 31098
L18516 31253
" />
<path d="M18516 31253
L19438 31409
" />
<path d="M19438 31409
L20329 31565
" />
<path d="M20329 31565
L21187 31721
" />
<path d="M21187 31721
L22009 31878
" />
<path d="M22009 31878
L22791 32034
" />
<path d="M22791 32034
L23529 32190
" />
<path d="M23529 32190
L24221 32345
" />
<path d="M24221 32345
L24862 32500
" />
<path d="M24862 32500
L25450 32654
" />
<path d="M25450 32654
L25982 32807
" />
<path d="M25982 32807
L26453 32958
" />
<path d="M26453 32958
L26860 33108
" />
<path d="M26860 33108
L27200 33256
" />
<path d="M27200 33256
L27470 33402
" />
<path d="M112459 28019
L112452 28121
" />
<path d="M112452 28121
L112430 28220
" />
<path d="M112430 28220
L112394 28315
" />
<path d="M112394 28315
L112347 28405
" />
<path d="M112347 28405
L112288 28488
" />
<path d="M112288 28488
L112220 28562
" />
<path d="M112220 28562
L112142 28628
" />
<path d="M112142 28628
L112057 28683
" />
<path d="M112057 28683
L111965 28726
" />
<path d="M111965 28726
L111868 28756
" />
<path d="M111868 28756
L111800 28768
" />
<path d="M79299 42052
L73820 43832
" />
<path d="M86686 91
L87265 153
" />
<path d="M87265 153
L87890 237
" />
<path d="M87890 237
L88558 341
" />
<path d="M88558 341
L89265 465
" />
<path d="M89265 465
L90009 608
" />
<path d="M90009 608
L90787 769
" />
<path d="M90787 769
L91594 945
" />
<path d="M91594 945
L92427 1137
" />
<path d="M92427 1137
L93284 1344
" />
<path d="M93284 1344
L94161 1563
" />
<path d="M94161 1563
L95055 1793
" />
<path d="M95055 1793
L95962 2035
" />
<path d="M95962 2035
L96879 2286
" />
<path d="M96879 2286
L97803 2545
" />
<path d="M97803 2545
L98730 2812
" />
<path d="M98730 2812
L99658 3085
" />
<path d="M99658 3085
L100583 3363
" />
<path d="M100583 3363
L101501 3644
" />
<path d="M101501 3644
L102410 3929
" />
<path d="M102410 3929
L103306 4214
" />
<path d="M103306 4214
L104186 4501
" />
<path d="M104186 4501
L105047 4786
" />
<path d="M105047 4786
L105884 5070
" />
<path d="M105884 5070
L106696 5351
" />
<path d="M106696 5351
L107479 5628
" />
<path d="M107479 5628
L108229 5899
" />
<path d="M108229 5899
L108943 6165
" />
<path d="M108943 6165
L109618 6422
" />
<path d="M109618 6422
L110250 6671
" />
<path d="M110250 6671
L110837 6910
" />
<path d="M110837 6910
L111375 7139
" />
<path d="M111375 7139
L111860 7355
" />
<path d="M73820 43832
L73697 43871
" />
<path d="M73697 43871
L73572 43907
" />
<path d="M73572 43907
L73447 43941
" />
<path d="M73447 43941
L73322 43973
" />
<path d="M73322 43973
L73196 44002
" />
<path d="M73196 44002
L73069 44028
" />
<path d="M73069 44028
L72942 44052
" />
<path d="M72942 44052
L72815 44074
" />
<path d="M72815 44074
L72687 44093
" />
<path d="M72687 44093
L72559 44109
" />
<path d="M72559 44109
L72430 44123
" />
<path d="M72430 44123
L72301 44134
" />
<path d="M72301 44134
L72172 44143
" />
<path d="M72172 44143
L72043 44150
" />
<path d="M72043 44150
L71913 44154
" />
<path d="M71913 44154
L71784 44155
" />
<path d="M112459 8307
L112459 28019
" />
<path d="M27470 33402
L27695 33545
" />
<path d="M27695 33545
L27918 33694
" />
<path d="M27918 33694
L28140 33849
" />
<path d="M28140 33849
L28360 34011
" />
<path d="M28360 34011
L28577 34178
" />
<path d="M28577 34178
L28792 34352
" />
<path d="M28792 34352
L29004 34532
" />
<path d="M29004 34532
L29213 34718
" />
<path d="M29213 34718
L29419 34910
" />
<path d="M29419 34910
L29620 35109
" />
<path d="M29620 35109
L29818 35314
" />
<path d="M29818 35314
L30011 35525
" />
<path d="M30011 35525
L30199 35743
" />
<path d="M30199 35743
L30383 35967
" />
<path d="M30383 35967
L30561 36198
" />
<path d="M30561 36198
L30734 36435
" />
<path d="M30734 36435
L30900 36679
" />
<path d="M30900 36679
L31061 36929
" />
<path d="M31061 36929
L31215 37186
" />
<path d="M31215 37186
L31362 37450
" />
<path d="M31362 37450
L31502 37720
" />
<path d="M31502 37720
L31634 37997
" />
<path d="M31634 37997
L31759 38281
" />
<path d="M31759 38281
L31876 38571
" />
<path d="M31876 38571
L31985 38869
" />
<path d="M31985 38869
L32085 39173
" />
<path d="M32085 39173
L32176 39484
" />
<path d="M32176 39484
L32258 39802
" />
<path d="M32258 39802
L32330 40126
" />
<path d="M32330 40126
L32393 40458
" />
<path d="M32393 40458
L32445 40797
" />
<path d="M32445 40797
L32487 41143
" />
<path d="M638 7355
L546 7405
" />
<path d="M546 7405
L459 7468
" />
<path d="M459 7468
L377 7542
" />
<path d="M377 7542
L302 7626
" />
<path d="M302 7626
L234 7718
" />
<path d="M234 7718
L175 7816
" />
<path d="M175 7816
L125 7919
" />
<path d="M125 7919
L86 8024
" />
<path d="M86 8024
L58 8131
" />
<path d="M58 8131
L42 8237
" />
<path d="M42 8237
L39 8307
" />
<path d="M85029 33402
L84804 33545
" />
<path d="M84804 33545
L84580 33694
" />
<path d="M84580 33694
L84358 33849
" />
<path d="M84358 33849
L84139 34011
" />
<path d="M84139 34011
L83921 34178
" />
<path d="M83921 34178
L83706 34352
" />
<path d="M83706 34352
L83494 34532
" />
<path d="M83494 34532
L83285 34718
" />
<path d="M83285 34718
L83080 34910
" />
<path d="M83080 34910
L82878 35109
" />
<path d="M82878 35109
L82681 35314
" />
<path d="M82681 35314
L82487 35525
" />
<path d="M82487 35525
L82299 35743
" />
<path d="M82299 35743
L82115 35967
" />
<path d="M82115 35967
L81937 36198
" />
<path d="M81937 36198
L81765 36435
" />
<path d="M81765 36435
L81598 36679
" />
<path d="M81598 36679
L81438 36929
" />
<path d="M81438 36929
L81284 37186
" />
<path d="M81284 37186
L81137 37450
" />
<path d="M81137 37450
L80997 37720
" />
<path d="M80997 37720
L80864 37997
" />
<path d="M80864 37997
L80739 38281
" />
<path d="M80739 38281
L80622 38571
" />
<path d="M80622 38571
L80513 38869
" />
<path d="M80513 38869
L80413 39173
" />
<path d="M80413 39173
L80322 39484
" />
<path d="M80322 39484
L80240 39802
" />
<path d="M80240 39802
L80168 40126
" />
<path d="M80168 40126
L80106 40458
" />
<path d="M80106 40458
L80053 40797
" />
<path d="M80053 40797
L80011 41143
" />
<path d="M39 28019
L46 28121
" />
<path d="M46 28121
L69 28220
" />
<path d="M69 28220
L104 28315
" />
<path d="M104 28315
L151 28405
" />
<path d="M151 28405
L210 28488
" />
<path d="M210 28488
L279 28562
" />
<path d="M279 28562
L356 28628
" />
<path d="M356 28628
L442 28683
" />
<path d="M442 28683
L533 28726
" />
<path d="M533 28726
L631 28756
" />
<path d="M631 28756
L698 28768
" />
<path d="M111860 7355
L111952 7405
" />
<path d="M111952 7405
L112039 7468
" />
<path d="M112039 7468
L112121 7542
" />
<path d="M112121 7542
L112196 7626
" />
<path d="M112196 7626
L112264 7718
" />
<path d="M112264 7718
L112323 7816
" />
<path d="M112323 7816
L112373 7919
" />
<path d="M112373 7919
L112413 8024
" />
<path d="M112413 8024
L112441 8131
" />
<path d="M112441 8131
L112456 8237
" />
<path d="M112456 8237
L112459 8307
" />
<path d="M84716 39
L84821 39
" />
<path d="M84821 39
L84934 39
" />
<path d="M84934 39
L85053 40
" />
<path d="M85053 40
L85177 40
" />
<path d="M85177 40
L85305 41
" />
<path d="M85305 41
L85435 43
" />
<path d="M85435 43
L85568 44
" />
<path d="M85568 44
L85702 47
" />
<path d="M85702 47
L85835 50
" />
<path d="M85835 50
L85968 53
" />
<path d="M85968 53
L86098 57
" />
<path d="M86098 57
L86226 62
" />
<path d="M86226 62
L86349 68
" />
<path d="M86349 68
L86468 75
" />
<path d="M86468 75
L86580 83
" />
<path d="M86580 83
L86686 91
" />
<path d="M33200 42052
L38678 43832
" />
<path d="M39 8307
L39 28019
" />
<path d="M32487 41143
L32505 41251
" />
<path d="M32505 41251
L32536 41359
" />
<path d="M32536 41359
L32580 41465
" />
<path d="M32580 41465
L32634 41567
" />
<path d="M32634 41567
L32698 41665
" />
<path d="M32698 41665
L32771 41756
" />
<path d="M32771 41756
L32852 41840
" />
<path d="M32852 41840
L32940 41914
" />
<path d="M32940 41914
L33033 41976
" />
<path d="M33033 41976
L33132 42026
" />
<path d="M33132 42026
L33200 42052
" />
<path d="M25813 91
L25234 153
" />
<path d="M25234 153
L24609 237
" />
<path d="M24609 237
L23941 341
" />
<path d="M23941 341
L23233 465
" />
<path d="M23233 465
L22489 608
" />
<path d="M22489 608
L21712 769
" />
<path d="M21712 769
L20905 945
" />
<path d="M20905 945
L20071 1137
" />
<path d="M20071 1137
L19214 1344
" />
<path d="M19214 1344
L18337 1563
" />
<path d="M18337 1563
L17444 1793
" />
<path d="M17444 1793
L16537 2035
" />
<path d="M16537 2035
L15620 2286
" />
<path d="M15620 2286
L14696 2545
" />
<path d="M14696 2545
L13768 2812
" />
<path d="M13768 2812
L12840 3085
" />
<path d="M12840 3085
L11916 3363
" />
<path d="M11916 3363
L10997 3644
" />
<path d="M10997 3644
L10088 3929
" />
<path d="M10088 3929
L9192 4214
" />
<path d="M9192 4214
L8312 4501
" />
<path d="M8312 4501
L7452 4786
" />
<path d="M7452 4786
L6614 5070
" />
<path d="M6614 5070
L5802 5351
" />
<path d="M5802 5351
L5020 5628
" />
<path d="M5020 5628
L4270 5899
" />
<path d="M4270 5899
L3556 6165
" />
<path d="M3556 6165
L2881 6422
" />
<path d="M2881 6422
L2248 6671
" />
<path d="M2248 6671
L1662 6910
" />
<path d="M1662 6910
L1124 7139
" />
<path d="M1124 7139
L638 7355
" />
<g >
</g>
<g >
</g>
<g >
</g>
<g >
</g>
<g >
</g>
<g >
</g>
<g >
</g>
<g >
</g>
<g >
</g>
<g >
</g>
<g >
</g>
<g >
</g>
<g >
</g>
<g >
</g>
<g >
</g>
<g >
</g>
<g >
</g>
<g >
</g>
<g >
</g>
<g >
</g>
<g >
</g>
<g >
</g>
<g >
</g>
<g >
</g>
<g >
</g>
<g >
</g>
<g >
</g>
<g >
</g>
<g >
</g>
<g >
</g>
<g >
</g>
<g >
</g>
<g >
</g>
<g >
</g>
<g >
</g>
<g >
</g>
<g >
</g>
<g >
</g>
<g >
</g>
<g >
</g>
<g >
</g>
<g >
</g>
<g >
</g>
<g >
</g>
<g >
</g>
<g >
</g>
<g >
</g>
<g >
</g>
<g >
</g>
<g >
</g>
<g >
</g>
<g >
</g>
<g >
</g>
<g >
</g>
<g >
</g>
<g >
</g>
<g >
</g>
<g >
</g>
<g >
</g>
<g >
</g>
<g >
</g>
<g >
</g>
<g >
</g>
<g >
</g>
<g >
</g>
<g >
</g>
<g >
</g>
<g >
</g>
<g >
</g>
<g >
</g>
<g >
</g>
<g >
</g>
<g >
</g>
<g >
</g>
<g >
</g>
<g >
</g>
<g >
</g>
<g >
</g>
<g >
</g>
<g >
</g>
<g >
</g>
<g >
</g>
<g >
</g>
<g >
</g>
<g >
</g>
<g >
</g>
<g >
</g>
<g >
</g>
<g >
</g>
<g >
</g>
<g >
</g>
<g >
</g>
<g >
</g>
<g >
</g>
<g >
</g>
<g >
</g>
<g >
</g>
<g >
</g>
<g >
</g>
<g >
</g>
<g >
</g>
<g >
</g>
<g >
</g>
<g >
</g>
<g >
</g>
<g >
</g>
<g >
</g>
<g >
</g>
<g >
</g>
<g >
</g>
<g >
</g>
<g >
</g>
<g >
</g>
<g >
</g>
<g >
</g>
<g >
</g>
<g >
</g>
<g >
</g>
<g >
</g>
<g >
</g>
<g >
</g>
<g >
</g>
<g >
</g>
<g >
</g>
<g >
</g>
<g >
</g>
<g >
</g>
<g >
</g>
<g >
</g>
<g >
</g>
<g >
</g>
<g >
</g>
<g >
</g>
<g >
</g>
<g >
</g>
<g >
</g>
<g >
</g>
<g >
</g>
<g >
</g>
<g >
</g>
<g >
</g>
<g >
</g>
<g >
</g>
<g >
</g>
<g >
</g>
</g> 
</svg>
