%TF.GenerationSoftware,KiCad,Pcbnew,(5.1.7)-1*%
%TF.CreationDate,2020-11-12T22:52:03+09:00*%
%TF.ProjectId,yacc46,79616363-3436-42e6-9b69-6361645f7063,rev?*%
%TF.SameCoordinates,Original*%
%TF.FileFunction,Profile,NP*%
%FSLAX46Y46*%
G04 Gerber Fmt 4.6, Leading zero omitted, Abs format (unit mm)*
G04 Created by KiCad (PCBNEW (5.1.7)-1) date 2020-11-12 22:52:03*
%MOMM*%
%LPD*%
G01*
G04 APERTURE LIST*
%TA.AperFunction,Profile*%
%ADD10C,0.200000*%
%TD*%
G04 APERTURE END LIST*
D10*
X24290000Y-47000000D02*
X24309000Y-45205567D01*
X30740000Y-56330000D02*
X24290000Y-56350000D01*
X30730000Y-47000000D02*
X30740000Y-56330000D01*
X24290000Y-47000000D02*
X30730000Y-47000000D01*
X107088089Y-129441365D02*
X107192639Y-127266252D01*
X107192639Y-127266252D02*
X107023111Y-125208144D01*
X107023111Y-125208144D02*
X106590123Y-123262855D01*
X106590123Y-123262855D02*
X105904293Y-121426202D01*
X105904293Y-121426202D02*
X104976241Y-119694001D01*
X104976241Y-119694001D02*
X103816585Y-118062069D01*
X103816585Y-118062069D02*
X102435945Y-116526222D01*
X102435945Y-116526222D02*
X100844938Y-115082276D01*
X100844938Y-115082276D02*
X99054184Y-113726046D01*
X99054184Y-113726046D02*
X97074302Y-112453350D01*
X97074302Y-112453350D02*
X94915911Y-111260004D01*
X94915911Y-111260004D02*
X92589629Y-110141823D01*
X92589629Y-110141823D02*
X90106076Y-109094625D01*
X90106076Y-109094625D02*
X87475869Y-108114225D01*
X87475869Y-108114225D02*
X84709628Y-107196439D01*
X84709628Y-107196439D02*
X81817973Y-106337083D01*
X81817973Y-106337083D02*
X78811521Y-105531975D01*
X78811521Y-105531975D02*
X75700891Y-104776930D01*
X75700891Y-104776930D02*
X72496703Y-104067764D01*
X72496703Y-104067764D02*
X69209575Y-103400293D01*
X69209575Y-103400293D02*
X65850126Y-102770334D01*
X65850126Y-102770334D02*
X62428976Y-102173703D01*
X62428976Y-102173703D02*
X58956741Y-101606217D01*
X58956741Y-101606217D02*
X55444043Y-101063690D01*
X55444043Y-101063690D02*
X51901499Y-100541941D01*
X51901499Y-100541941D02*
X48339728Y-100036784D01*
X48339728Y-100036784D02*
X44769350Y-99544036D01*
X44769350Y-99544036D02*
X41200982Y-99059513D01*
X41200982Y-99059513D02*
X37645245Y-98579032D01*
X37645245Y-98579032D02*
X34112756Y-98098409D01*
X34112756Y-98098409D02*
X30614134Y-97613459D01*
X30614134Y-97613459D02*
X27160000Y-97120000D01*
X206369495Y-137541160D02*
X220813175Y-132847410D01*
X302837771Y-97120000D02*
X303104401Y-97077619D01*
X303104401Y-97077619D02*
X303354372Y-97034004D01*
X303354372Y-97034004D02*
X303588220Y-96988841D01*
X303588220Y-96988841D02*
X303806482Y-96941816D01*
X303806482Y-96941816D02*
X304009694Y-96892615D01*
X304009694Y-96892615D02*
X304373115Y-96786427D01*
X304373115Y-96786427D02*
X304682776Y-96667766D01*
X304682776Y-96667766D02*
X304942971Y-96534120D01*
X304942971Y-96534120D02*
X305157991Y-96382976D01*
X305157991Y-96382976D02*
X305332130Y-96211824D01*
X305332130Y-96211824D02*
X305469681Y-96018150D01*
X305469681Y-96018150D02*
X305574937Y-95799443D01*
X305574937Y-95799443D02*
X305652190Y-95553191D01*
X305652190Y-95553191D02*
X305705733Y-95276882D01*
X305705733Y-95276882D02*
X305739860Y-94968003D01*
X305739860Y-94968003D02*
X305758863Y-94624043D01*
X305758863Y-94624043D02*
X305767034Y-94242489D01*
X305767034Y-94242489D02*
X305768400Y-94036830D01*
X305768400Y-94036830D02*
X305768668Y-93820830D01*
X305768668Y-93820830D02*
X305768375Y-93594177D01*
X220813175Y-132847410D02*
X221032269Y-132776127D01*
X221032269Y-132776127D02*
X221237617Y-132708814D01*
X221237617Y-132708814D02*
X221429601Y-132644845D01*
X221429601Y-132644845D02*
X221775015Y-132524447D01*
X221775015Y-132524447D02*
X222071583Y-132409944D01*
X222071583Y-132409944D02*
X222322375Y-132296348D01*
X222322375Y-132296348D02*
X222530464Y-132178668D01*
X222530464Y-132178668D02*
X222698919Y-132051915D01*
X222698919Y-132051915D02*
X222884007Y-131833860D01*
X222884007Y-131833860D02*
X222997195Y-131567327D01*
X222997195Y-131567327D02*
X223037827Y-131354390D01*
X223037827Y-131354390D02*
X223054182Y-131107434D01*
X223054182Y-131107434D02*
X223049330Y-130821469D01*
X223049330Y-130821469D02*
X223026341Y-130491506D01*
X223026341Y-130491506D02*
X222988289Y-130112555D01*
X222988289Y-130112555D02*
X222964572Y-129903151D01*
X222964572Y-129903151D02*
X222938242Y-129679628D01*
X222938242Y-129679628D02*
X222909681Y-129441365D01*
X305688770Y-45205567D02*
X305531246Y-44734906D01*
X305531246Y-44734906D02*
X305074287Y-44211305D01*
X305074287Y-44211305D02*
X304335166Y-43639200D01*
X304335166Y-43639200D02*
X303331158Y-43023029D01*
X303331158Y-43023029D02*
X302079537Y-42367230D01*
X302079537Y-42367230D02*
X300597577Y-41676240D01*
X300597577Y-41676240D02*
X298902553Y-40954498D01*
X298902553Y-40954498D02*
X297011739Y-40206440D01*
X297011739Y-40206440D02*
X294942409Y-39436505D01*
X294942409Y-39436505D02*
X292711838Y-38649130D01*
X292711838Y-38649130D02*
X290337300Y-37848753D01*
X290337300Y-37848753D02*
X287836068Y-37039811D01*
X287836068Y-37039811D02*
X285225418Y-36226742D01*
X285225418Y-36226742D02*
X282522624Y-35413984D01*
X282522624Y-35413984D02*
X279744959Y-34605975D01*
X279744959Y-34605975D02*
X276909699Y-33807151D01*
X276909699Y-33807151D02*
X274034117Y-33021952D01*
X274034117Y-33021952D02*
X271135489Y-32254814D01*
X271135489Y-32254814D02*
X268231087Y-31510175D01*
X268231087Y-31510175D02*
X265338186Y-30792473D01*
X265338186Y-30792473D02*
X262474062Y-30106145D01*
X262474062Y-30106145D02*
X259655987Y-29455629D01*
X259655987Y-29455629D02*
X256901236Y-28845363D01*
X256901236Y-28845363D02*
X254227084Y-28279785D01*
X254227084Y-28279785D02*
X251650805Y-27763331D01*
X251650805Y-27763331D02*
X249189673Y-27300441D01*
X249189673Y-27300441D02*
X246860962Y-26895551D01*
X246860962Y-26895551D02*
X244681947Y-26553099D01*
X244681947Y-26553099D02*
X242669902Y-26277522D01*
X242669902Y-26277522D02*
X240842101Y-26073259D01*
X240842101Y-26073259D02*
X239215818Y-25944748D01*
X239215818Y-25944748D02*
X237808329Y-25896425D01*
X237808329Y-25896425D02*
X233119966Y-25896429D01*
X233119966Y-25896429D02*
X228437822Y-25896434D01*
X228437822Y-25896434D02*
X223762163Y-25896438D01*
X223762163Y-25896438D02*
X219093257Y-25896442D01*
X219093257Y-25896442D02*
X214431370Y-25896445D01*
X214431370Y-25896445D02*
X209776770Y-25896449D01*
X209776770Y-25896449D02*
X205129724Y-25896452D01*
X205129724Y-25896452D02*
X200490498Y-25896454D01*
X200490498Y-25896454D02*
X195859360Y-25896457D01*
X195859360Y-25896457D02*
X191236577Y-25896459D01*
X191236577Y-25896459D02*
X186622416Y-25896460D01*
X186622416Y-25896460D02*
X182017143Y-25896462D01*
X182017143Y-25896462D02*
X177421027Y-25896463D01*
X177421027Y-25896463D02*
X172834334Y-25896464D01*
X172834334Y-25896464D02*
X168257331Y-25896464D01*
X168257331Y-25896464D02*
X163690286Y-25896464D01*
X163690286Y-25896464D02*
X159133464Y-25896464D01*
X159133464Y-25896464D02*
X154587134Y-25896464D01*
X154587134Y-25896464D02*
X150051563Y-25896463D01*
X150051563Y-25896463D02*
X145527017Y-25896462D01*
X145527017Y-25896462D02*
X141013763Y-25896460D01*
X141013763Y-25896460D02*
X136512069Y-25896459D01*
X136512069Y-25896459D02*
X132022202Y-25896457D01*
X132022202Y-25896457D02*
X127544429Y-25896454D01*
X127544429Y-25896454D02*
X123079016Y-25896452D01*
X123079016Y-25896452D02*
X118626232Y-25896449D01*
X118626232Y-25896449D02*
X114186342Y-25896445D01*
X114186342Y-25896445D02*
X109759615Y-25896442D01*
X109759615Y-25896442D02*
X105346316Y-25896438D01*
X105346316Y-25896438D02*
X100946714Y-25896434D01*
X100946714Y-25896434D02*
X96561074Y-25896429D01*
X96561074Y-25896429D02*
X92189666Y-25896425D01*
X222909681Y-129441365D02*
X222805130Y-127266252D01*
X222805130Y-127266252D02*
X222974658Y-125208144D01*
X222974658Y-125208144D02*
X223407646Y-123262855D01*
X223407646Y-123262855D02*
X224093476Y-121426202D01*
X224093476Y-121426202D02*
X225021528Y-119694001D01*
X225021528Y-119694001D02*
X226181184Y-118062069D01*
X226181184Y-118062069D02*
X227561824Y-116526222D01*
X227561824Y-116526222D02*
X229152831Y-115082276D01*
X229152831Y-115082276D02*
X230943584Y-113726046D01*
X230943584Y-113726046D02*
X232923466Y-112453350D01*
X232923466Y-112453350D02*
X235081858Y-111260004D01*
X235081858Y-111260004D02*
X237408140Y-110141823D01*
X237408140Y-110141823D02*
X239891693Y-109094625D01*
X239891693Y-109094625D02*
X242521900Y-108114225D01*
X242521900Y-108114225D02*
X245288140Y-107196439D01*
X245288140Y-107196439D02*
X248179796Y-106337083D01*
X248179796Y-106337083D02*
X251186248Y-105531975D01*
X251186248Y-105531975D02*
X254296878Y-104776930D01*
X254296878Y-104776930D02*
X257501066Y-104067764D01*
X257501066Y-104067764D02*
X260788194Y-103400293D01*
X260788194Y-103400293D02*
X264147642Y-102770334D01*
X264147642Y-102770334D02*
X267568793Y-102173703D01*
X267568793Y-102173703D02*
X271041027Y-101606217D01*
X271041027Y-101606217D02*
X274553726Y-101063690D01*
X274553726Y-101063690D02*
X278096270Y-100541941D01*
X278096270Y-100541941D02*
X281658041Y-100036784D01*
X281658041Y-100036784D02*
X285228419Y-99544036D01*
X285228419Y-99544036D02*
X288796787Y-99059513D01*
X288796787Y-99059513D02*
X292352525Y-98579032D01*
X292352525Y-98579032D02*
X295885014Y-98098409D01*
X295885014Y-98098409D02*
X299383635Y-97613459D01*
X299383635Y-97613459D02*
X302837771Y-97120000D01*
X123628275Y-137541160D02*
X109184596Y-132847410D01*
X24229396Y-93594177D02*
X24290000Y-56350000D01*
X203628556Y-137951424D02*
X201126561Y-137951433D01*
X201126561Y-137951433D02*
X198634986Y-137951442D01*
X198634986Y-137951442D02*
X196153355Y-137951449D01*
X196153355Y-137951449D02*
X193681190Y-137951456D01*
X193681190Y-137951456D02*
X191218017Y-137951462D01*
X191218017Y-137951462D02*
X188763357Y-137951467D01*
X188763357Y-137951467D02*
X186316734Y-137951472D01*
X186316734Y-137951472D02*
X183877673Y-137951476D01*
X183877673Y-137951476D02*
X181445695Y-137951479D01*
X181445695Y-137951479D02*
X179020326Y-137951481D01*
X179020326Y-137951481D02*
X176601088Y-137951483D01*
X176601088Y-137951483D02*
X174187504Y-137951484D01*
X174187504Y-137951484D02*
X171779098Y-137951485D01*
X171779098Y-137951485D02*
X169375395Y-137951485D01*
X169375395Y-137951485D02*
X166975916Y-137951484D01*
X166975916Y-137951484D02*
X164580185Y-137951483D01*
X164580185Y-137951483D02*
X162187727Y-137951482D01*
X162187727Y-137951482D02*
X159798064Y-137951480D01*
X159798064Y-137951480D02*
X157410720Y-137951477D01*
X157410720Y-137951477D02*
X155025218Y-137951475D01*
X155025218Y-137951475D02*
X152641082Y-137951472D01*
X152641082Y-137951472D02*
X150257836Y-137951468D01*
X150257836Y-137951468D02*
X147875002Y-137951465D01*
X147875002Y-137951465D02*
X145492104Y-137951461D01*
X145492104Y-137951461D02*
X143108666Y-137951457D01*
X143108666Y-137951457D02*
X140724211Y-137951452D01*
X140724211Y-137951452D02*
X138338262Y-137951448D01*
X138338262Y-137951448D02*
X135950344Y-137951443D01*
X135950344Y-137951443D02*
X133559978Y-137951438D01*
X133559978Y-137951438D02*
X131166690Y-137951433D01*
X131166690Y-137951433D02*
X128770002Y-137951428D01*
X128770002Y-137951428D02*
X126369439Y-137951424D01*
X109184596Y-132847410D02*
X108965501Y-132776127D01*
X108965501Y-132776127D02*
X108760153Y-132708814D01*
X108760153Y-132708814D02*
X108568169Y-132644845D01*
X108568169Y-132644845D02*
X108222755Y-132524447D01*
X108222755Y-132524447D02*
X107926187Y-132409944D01*
X107926187Y-132409944D02*
X107675394Y-132296348D01*
X107675394Y-132296348D02*
X107467306Y-132178668D01*
X107467306Y-132178668D02*
X107298851Y-132051915D01*
X107298851Y-132051915D02*
X107113762Y-131833860D01*
X107113762Y-131833860D02*
X107000574Y-131567327D01*
X107000574Y-131567327D02*
X106959942Y-131354390D01*
X106959942Y-131354390D02*
X106943587Y-131107434D01*
X106943587Y-131107434D02*
X106948439Y-130821469D01*
X106948439Y-130821469D02*
X106971428Y-130491506D01*
X106971428Y-130491506D02*
X107009480Y-130112555D01*
X107009480Y-130112555D02*
X107033197Y-129903151D01*
X107033197Y-129903151D02*
X107059527Y-129679628D01*
X107059527Y-129679628D02*
X107088089Y-129441365D01*
X126369214Y-137951424D02*
X126108664Y-137951323D01*
X126108664Y-137951323D02*
X125878749Y-137950622D01*
X125878749Y-137950622D02*
X125675456Y-137948719D01*
X125675456Y-137948719D02*
X125411646Y-137942296D01*
X125411646Y-137942296D02*
X125185149Y-137929788D01*
X125185149Y-137929788D02*
X124982412Y-137909168D01*
X124982412Y-137909168D02*
X124725637Y-137865547D01*
X124725637Y-137865547D02*
X124525646Y-137818108D01*
X124525646Y-137818108D02*
X124304246Y-137755794D01*
X124304246Y-137755794D02*
X124047888Y-137676579D01*
X124047888Y-137676579D02*
X123850869Y-137613376D01*
X123850869Y-137613376D02*
X123628275Y-137541160D01*
X305768375Y-93594177D02*
X305688770Y-45205567D01*
X203628556Y-137951424D02*
X203889105Y-137951323D01*
X203889105Y-137951323D02*
X204119020Y-137950622D01*
X204119020Y-137950622D02*
X204322313Y-137948719D01*
X204322313Y-137948719D02*
X204586123Y-137942296D01*
X204586123Y-137942296D02*
X204812620Y-137929788D01*
X204812620Y-137929788D02*
X205015357Y-137909168D01*
X205015357Y-137909168D02*
X205272132Y-137865547D01*
X205272132Y-137865547D02*
X205472123Y-137818108D01*
X205472123Y-137818108D02*
X205693523Y-137755794D01*
X205693523Y-137755794D02*
X205949881Y-137676579D01*
X205949881Y-137676579D02*
X206146900Y-137613376D01*
X206146900Y-137613376D02*
X206369495Y-137541160D01*
X24309000Y-45205567D02*
X24466523Y-44734906D01*
X24466523Y-44734906D02*
X24923483Y-44211305D01*
X24923483Y-44211305D02*
X25662604Y-43639200D01*
X25662604Y-43639200D02*
X26666612Y-43023029D01*
X26666612Y-43023029D02*
X27918233Y-42367230D01*
X27918233Y-42367230D02*
X29400192Y-41676240D01*
X29400192Y-41676240D02*
X31095216Y-40954498D01*
X31095216Y-40954498D02*
X32986030Y-40206440D01*
X32986030Y-40206440D02*
X35055360Y-39436505D01*
X35055360Y-39436505D02*
X37285932Y-38649130D01*
X37285932Y-38649130D02*
X39660470Y-37848753D01*
X39660470Y-37848753D02*
X42161702Y-37039811D01*
X42161702Y-37039811D02*
X44772352Y-36226742D01*
X44772352Y-36226742D02*
X47475146Y-35413984D01*
X47475146Y-35413984D02*
X50252810Y-34605975D01*
X50252810Y-34605975D02*
X53088071Y-33807151D01*
X53088071Y-33807151D02*
X55963652Y-33021952D01*
X55963652Y-33021952D02*
X58862281Y-32254814D01*
X58862281Y-32254814D02*
X61766683Y-31510175D01*
X61766683Y-31510175D02*
X64659583Y-30792473D01*
X64659583Y-30792473D02*
X67523708Y-30106145D01*
X67523708Y-30106145D02*
X70341783Y-29455629D01*
X70341783Y-29455629D02*
X73096533Y-28845363D01*
X73096533Y-28845363D02*
X75770685Y-28279785D01*
X75770685Y-28279785D02*
X78346965Y-27763331D01*
X78346965Y-27763331D02*
X80808097Y-27300441D01*
X80808097Y-27300441D02*
X83136808Y-26895551D01*
X83136808Y-26895551D02*
X85315823Y-26553099D01*
X85315823Y-26553099D02*
X87327868Y-26277522D01*
X87327868Y-26277522D02*
X89155669Y-26073259D01*
X89155669Y-26073259D02*
X90781951Y-25944748D01*
X90781951Y-25944748D02*
X92189441Y-25896425D01*
X27160000Y-97120000D02*
X26893369Y-97077619D01*
X26893369Y-97077619D02*
X26643398Y-97034004D01*
X26643398Y-97034004D02*
X26409549Y-96988841D01*
X26409549Y-96988841D02*
X26191288Y-96941816D01*
X26191288Y-96941816D02*
X25988075Y-96892615D01*
X25988075Y-96892615D02*
X25624654Y-96786427D01*
X25624654Y-96786427D02*
X25314993Y-96667766D01*
X25314993Y-96667766D02*
X25054799Y-96534120D01*
X25054799Y-96534120D02*
X24839778Y-96382976D01*
X24839778Y-96382976D02*
X24665639Y-96211824D01*
X24665639Y-96211824D02*
X24528088Y-96018150D01*
X24528088Y-96018150D02*
X24422832Y-95799443D01*
X24422832Y-95799443D02*
X24345580Y-95553191D01*
X24345580Y-95553191D02*
X24292036Y-95276882D01*
X24292036Y-95276882D02*
X24257910Y-94968003D01*
X24257910Y-94968003D02*
X24238907Y-94624043D01*
X24238907Y-94624043D02*
X24230735Y-94242489D01*
X24230735Y-94242489D02*
X24229370Y-94036830D01*
X24229370Y-94036830D02*
X24229102Y-93820830D01*
X24229102Y-93820830D02*
X24229396Y-93594177D01*
M02*
