%TF.GenerationSoftware,KiCad,Pcbnew,(5.1.7)-1*%
%TF.CreationDate,2020-11-12T22:52:03+09:00*%
%TF.ProjectId,yacc46,79616363-3436-42e6-9b69-6361645f7063,rev?*%
%TF.SameCoordinates,Original*%
%TF.FileFunction,Soldermask,Bot*%
%TF.FilePolarity,Negative*%
%FSLAX46Y46*%
G04 Gerber Fmt 4.6, Leading zero omitted, Abs format (unit mm)*
G04 Created by KiCad (PCBNEW (5.1.7)-1) date 2020-11-12 22:52:03*
%MOMM*%
%LPD*%
G01*
G04 APERTURE LIST*
%ADD10C,0.150000*%
%ADD11R,1.250000X1.600000*%
%ADD12C,0.750000*%
%ADD13C,0.600000*%
%ADD14O,2.300000X1.200000*%
%ADD15R,2.300000X0.250000*%
%ADD16R,0.260000X0.650000*%
%ADD17C,0.100000*%
%ADD18C,3.000000*%
%ADD19C,1.900000*%
%ADD20C,4.100000*%
%ADD21C,1.600000*%
%ADD22R,1.600000X1.600000*%
%ADD23C,2.400000*%
%ADD24C,3.987800*%
%ADD25C,2.000000*%
%ADD26C,2.200000*%
%ADD27C,4.300000*%
%ADD28R,1.000000X1.400000*%
%ADD29R,1.000000X1.600000*%
%ADD30O,1.700000X1.700000*%
%ADD31C,1.700000*%
%ADD32R,1.350000X1.350000*%
%ADD33O,1.350000X1.350000*%
%ADD34R,1.500000X1.000000*%
%ADD35R,2.550000X2.500000*%
%ADD36R,2.100000X1.800000*%
G04 APERTURE END LIST*
D10*
X148402380Y-134110714D02*
X148164285Y-134777380D01*
X147926190Y-134110714D02*
X148164285Y-134777380D01*
X148259523Y-135015476D01*
X148307142Y-135063095D01*
X148402380Y-135110714D01*
X147116666Y-134777380D02*
X147116666Y-134253571D01*
X147164285Y-134158333D01*
X147259523Y-134110714D01*
X147450000Y-134110714D01*
X147545238Y-134158333D01*
X147116666Y-134729761D02*
X147211904Y-134777380D01*
X147450000Y-134777380D01*
X147545238Y-134729761D01*
X147592857Y-134634523D01*
X147592857Y-134539285D01*
X147545238Y-134444047D01*
X147450000Y-134396428D01*
X147211904Y-134396428D01*
X147116666Y-134348809D01*
X146211904Y-134729761D02*
X146307142Y-134777380D01*
X146497619Y-134777380D01*
X146592857Y-134729761D01*
X146640476Y-134682142D01*
X146688095Y-134586904D01*
X146688095Y-134301190D01*
X146640476Y-134205952D01*
X146592857Y-134158333D01*
X146497619Y-134110714D01*
X146307142Y-134110714D01*
X146211904Y-134158333D01*
X145354761Y-134729761D02*
X145450000Y-134777380D01*
X145640476Y-134777380D01*
X145735714Y-134729761D01*
X145783333Y-134682142D01*
X145830952Y-134586904D01*
X145830952Y-134301190D01*
X145783333Y-134205952D01*
X145735714Y-134158333D01*
X145640476Y-134110714D01*
X145450000Y-134110714D01*
X145354761Y-134158333D01*
X144497619Y-134110714D02*
X144497619Y-134777380D01*
X144735714Y-133729761D02*
X144973809Y-134444047D01*
X144354761Y-134444047D01*
X143545238Y-133777380D02*
X143735714Y-133777380D01*
X143830952Y-133825000D01*
X143878571Y-133872619D01*
X143973809Y-134015476D01*
X144021428Y-134205952D01*
X144021428Y-134586904D01*
X143973809Y-134682142D01*
X143926190Y-134729761D01*
X143830952Y-134777380D01*
X143640476Y-134777380D01*
X143545238Y-134729761D01*
X143497619Y-134682142D01*
X143450000Y-134586904D01*
X143450000Y-134348809D01*
X143497619Y-134253571D01*
X143545238Y-134205952D01*
X143640476Y-134158333D01*
X143830952Y-134158333D01*
X143926190Y-134205952D01*
X143973809Y-134253571D01*
X144021428Y-134348809D01*
X142354761Y-134110714D02*
X142116666Y-134777380D01*
X141878571Y-134110714D01*
X141307142Y-133777380D02*
X141211904Y-133777380D01*
X141116666Y-133825000D01*
X141069047Y-133872619D01*
X141021428Y-133967857D01*
X140973809Y-134158333D01*
X140973809Y-134396428D01*
X141021428Y-134586904D01*
X141069047Y-134682142D01*
X141116666Y-134729761D01*
X141211904Y-134777380D01*
X141307142Y-134777380D01*
X141402380Y-134729761D01*
X141450000Y-134682142D01*
X141497619Y-134586904D01*
X141545238Y-134396428D01*
X141545238Y-134158333D01*
X141497619Y-133967857D01*
X141450000Y-133872619D01*
X141402380Y-133825000D01*
X141307142Y-133777380D01*
X140545238Y-134682142D02*
X140497619Y-134729761D01*
X140545238Y-134777380D01*
X140592857Y-134729761D01*
X140545238Y-134682142D01*
X140545238Y-134777380D01*
X140116666Y-133872619D02*
X140069047Y-133825000D01*
X139973809Y-133777380D01*
X139735714Y-133777380D01*
X139640476Y-133825000D01*
X139592857Y-133872619D01*
X139545238Y-133967857D01*
X139545238Y-134063095D01*
X139592857Y-134205952D01*
X140164285Y-134777380D01*
X139545238Y-134777380D01*
X152640476Y-136427380D02*
X152640476Y-135427380D01*
X152259523Y-135427380D01*
X152164285Y-135475000D01*
X152116666Y-135522619D01*
X152069047Y-135617857D01*
X152069047Y-135760714D01*
X152116666Y-135855952D01*
X152164285Y-135903571D01*
X152259523Y-135951190D01*
X152640476Y-135951190D01*
X151069047Y-136332142D02*
X151116666Y-136379761D01*
X151259523Y-136427380D01*
X151354761Y-136427380D01*
X151497619Y-136379761D01*
X151592857Y-136284523D01*
X151640476Y-136189285D01*
X151688095Y-135998809D01*
X151688095Y-135855952D01*
X151640476Y-135665476D01*
X151592857Y-135570238D01*
X151497619Y-135475000D01*
X151354761Y-135427380D01*
X151259523Y-135427380D01*
X151116666Y-135475000D01*
X151069047Y-135522619D01*
X150307142Y-135903571D02*
X150164285Y-135951190D01*
X150116666Y-135998809D01*
X150069047Y-136094047D01*
X150069047Y-136236904D01*
X150116666Y-136332142D01*
X150164285Y-136379761D01*
X150259523Y-136427380D01*
X150640476Y-136427380D01*
X150640476Y-135427380D01*
X150307142Y-135427380D01*
X150211904Y-135475000D01*
X150164285Y-135522619D01*
X150116666Y-135617857D01*
X150116666Y-135713095D01*
X150164285Y-135808333D01*
X150211904Y-135855952D01*
X150307142Y-135903571D01*
X150640476Y-135903571D01*
X148450000Y-136427380D02*
X148450000Y-135427380D01*
X148450000Y-136379761D02*
X148545238Y-136427380D01*
X148735714Y-136427380D01*
X148830952Y-136379761D01*
X148878571Y-136332142D01*
X148926190Y-136236904D01*
X148926190Y-135951190D01*
X148878571Y-135855952D01*
X148830952Y-135808333D01*
X148735714Y-135760714D01*
X148545238Y-135760714D01*
X148450000Y-135808333D01*
X147592857Y-136379761D02*
X147688095Y-136427380D01*
X147878571Y-136427380D01*
X147973809Y-136379761D01*
X148021428Y-136284523D01*
X148021428Y-135903571D01*
X147973809Y-135808333D01*
X147878571Y-135760714D01*
X147688095Y-135760714D01*
X147592857Y-135808333D01*
X147545238Y-135903571D01*
X147545238Y-135998809D01*
X148021428Y-136094047D01*
X147164285Y-136379761D02*
X147069047Y-136427380D01*
X146878571Y-136427380D01*
X146783333Y-136379761D01*
X146735714Y-136284523D01*
X146735714Y-136236904D01*
X146783333Y-136141666D01*
X146878571Y-136094047D01*
X147021428Y-136094047D01*
X147116666Y-136046428D01*
X147164285Y-135951190D01*
X147164285Y-135903571D01*
X147116666Y-135808333D01*
X147021428Y-135760714D01*
X146878571Y-135760714D01*
X146783333Y-135808333D01*
X146307142Y-136427380D02*
X146307142Y-135760714D01*
X146307142Y-135427380D02*
X146354761Y-135475000D01*
X146307142Y-135522619D01*
X146259523Y-135475000D01*
X146307142Y-135427380D01*
X146307142Y-135522619D01*
X145402380Y-135760714D02*
X145402380Y-136570238D01*
X145450000Y-136665476D01*
X145497619Y-136713095D01*
X145592857Y-136760714D01*
X145735714Y-136760714D01*
X145830952Y-136713095D01*
X145402380Y-136379761D02*
X145497619Y-136427380D01*
X145688095Y-136427380D01*
X145783333Y-136379761D01*
X145830952Y-136332142D01*
X145878571Y-136236904D01*
X145878571Y-135951190D01*
X145830952Y-135855952D01*
X145783333Y-135808333D01*
X145688095Y-135760714D01*
X145497619Y-135760714D01*
X145402380Y-135808333D01*
X144926190Y-135760714D02*
X144926190Y-136427380D01*
X144926190Y-135855952D02*
X144878571Y-135808333D01*
X144783333Y-135760714D01*
X144640476Y-135760714D01*
X144545238Y-135808333D01*
X144497619Y-135903571D01*
X144497619Y-136427380D01*
X143640476Y-136379761D02*
X143735714Y-136427380D01*
X143926190Y-136427380D01*
X144021428Y-136379761D01*
X144069047Y-136284523D01*
X144069047Y-135903571D01*
X144021428Y-135808333D01*
X143926190Y-135760714D01*
X143735714Y-135760714D01*
X143640476Y-135808333D01*
X143592857Y-135903571D01*
X143592857Y-135998809D01*
X144069047Y-136094047D01*
X142735714Y-136427380D02*
X142735714Y-135427380D01*
X142735714Y-136379761D02*
X142830952Y-136427380D01*
X143021428Y-136427380D01*
X143116666Y-136379761D01*
X143164285Y-136332142D01*
X143211904Y-136236904D01*
X143211904Y-135951190D01*
X143164285Y-135855952D01*
X143116666Y-135808333D01*
X143021428Y-135760714D01*
X142830952Y-135760714D01*
X142735714Y-135808333D01*
X141497619Y-136427380D02*
X141497619Y-135427380D01*
X141497619Y-135808333D02*
X141402380Y-135760714D01*
X141211904Y-135760714D01*
X141116666Y-135808333D01*
X141069047Y-135855952D01*
X141021428Y-135951190D01*
X141021428Y-136236904D01*
X141069047Y-136332142D01*
X141116666Y-136379761D01*
X141211904Y-136427380D01*
X141402380Y-136427380D01*
X141497619Y-136379761D01*
X140688095Y-135760714D02*
X140450000Y-136427380D01*
X140211904Y-135760714D02*
X140450000Y-136427380D01*
X140545238Y-136665476D01*
X140592857Y-136713095D01*
X140688095Y-136760714D01*
X138545238Y-136427380D02*
X139116666Y-136427380D01*
X138830952Y-136427380D02*
X138830952Y-135427380D01*
X138926190Y-135570238D01*
X139021428Y-135665476D01*
X139116666Y-135713095D01*
X138116666Y-136332142D02*
X138069047Y-136379761D01*
X138116666Y-136427380D01*
X138164285Y-136379761D01*
X138116666Y-136332142D01*
X138116666Y-136427380D01*
X137450000Y-135427380D02*
X137354761Y-135427380D01*
X137259523Y-135475000D01*
X137211904Y-135522619D01*
X137164285Y-135617857D01*
X137116666Y-135808333D01*
X137116666Y-136046428D01*
X137164285Y-136236904D01*
X137211904Y-136332142D01*
X137259523Y-136379761D01*
X137354761Y-136427380D01*
X137450000Y-136427380D01*
X137545238Y-136379761D01*
X137592857Y-136332142D01*
X137640476Y-136236904D01*
X137688095Y-136046428D01*
X137688095Y-135808333D01*
X137640476Y-135617857D01*
X137592857Y-135522619D01*
X137545238Y-135475000D01*
X137450000Y-135427380D01*
X136783333Y-135427380D02*
X136164285Y-135427380D01*
X136497619Y-135808333D01*
X136354761Y-135808333D01*
X136259523Y-135855952D01*
X136211904Y-135903571D01*
X136164285Y-135998809D01*
X136164285Y-136236904D01*
X136211904Y-136332142D01*
X136259523Y-136379761D01*
X136354761Y-136427380D01*
X136640476Y-136427380D01*
X136735714Y-136379761D01*
X136783333Y-136332142D01*
X135592857Y-135855952D02*
X135688095Y-135808333D01*
X135735714Y-135760714D01*
X135783333Y-135665476D01*
X135783333Y-135617857D01*
X135735714Y-135522619D01*
X135688095Y-135475000D01*
X135592857Y-135427380D01*
X135402380Y-135427380D01*
X135307142Y-135475000D01*
X135259523Y-135522619D01*
X135211904Y-135617857D01*
X135211904Y-135665476D01*
X135259523Y-135760714D01*
X135307142Y-135808333D01*
X135402380Y-135855952D01*
X135592857Y-135855952D01*
X135688095Y-135903571D01*
X135735714Y-135951190D01*
X135783333Y-136046428D01*
X135783333Y-136236904D01*
X135735714Y-136332142D01*
X135688095Y-136379761D01*
X135592857Y-136427380D01*
X135402380Y-136427380D01*
X135307142Y-136379761D01*
X135259523Y-136332142D01*
X135211904Y-136236904D01*
X135211904Y-136046428D01*
X135259523Y-135951190D01*
X135307142Y-135903571D01*
X135402380Y-135855952D01*
D11*
%TO.C,SW47*%
X186455000Y-132600000D03*
X181805000Y-132600000D03*
D12*
X184130000Y-131700000D03*
X184130000Y-133500000D03*
%TD*%
D13*
%TO.C,J1*%
X31290000Y-49680000D03*
X31290000Y-50480000D03*
X31290000Y-51280000D03*
X31290000Y-52080000D03*
X31290000Y-52880000D03*
X31290000Y-53680000D03*
D14*
X31740000Y-46130000D03*
X31740000Y-57230000D03*
X26690000Y-46130000D03*
X26690000Y-57230000D03*
D15*
X26690000Y-46710000D03*
D16*
X27710000Y-46460000D03*
X25670000Y-46460000D03*
D15*
X26690000Y-56650000D03*
D16*
X25670000Y-56850000D03*
X27710000Y-56850000D03*
%TD*%
D17*
%TO.C,U1*%
G36*
X166537958Y-103656280D02*
G01*
X166926866Y-104045188D01*
X165866206Y-105105848D01*
X165477298Y-104716940D01*
X166537958Y-103656280D01*
G37*
G36*
X167103643Y-104221966D02*
G01*
X167492551Y-104610874D01*
X166431891Y-105671534D01*
X166042983Y-105282626D01*
X167103643Y-104221966D01*
G37*
G36*
X167669328Y-104787651D02*
G01*
X168058236Y-105176559D01*
X166997576Y-106237219D01*
X166608668Y-105848311D01*
X167669328Y-104787651D01*
G37*
G36*
X168235014Y-105353336D02*
G01*
X168623922Y-105742244D01*
X167563262Y-106802904D01*
X167174354Y-106413996D01*
X168235014Y-105353336D01*
G37*
G36*
X168800699Y-105919022D02*
G01*
X169189607Y-106307930D01*
X168128947Y-107368590D01*
X167740039Y-106979682D01*
X168800699Y-105919022D01*
G37*
G36*
X169366385Y-106484707D02*
G01*
X169755293Y-106873615D01*
X168694633Y-107934275D01*
X168305725Y-107545367D01*
X169366385Y-106484707D01*
G37*
G36*
X169932070Y-107050393D02*
G01*
X170320978Y-107439301D01*
X169260318Y-108499961D01*
X168871410Y-108111053D01*
X169932070Y-107050393D01*
G37*
G36*
X170497756Y-107616078D02*
G01*
X170886664Y-108004986D01*
X169826004Y-109065646D01*
X169437096Y-108676738D01*
X170497756Y-107616078D01*
G37*
G36*
X171063441Y-108181764D02*
G01*
X171452349Y-108570672D01*
X170391689Y-109631332D01*
X170002781Y-109242424D01*
X171063441Y-108181764D01*
G37*
G36*
X171629126Y-108747449D02*
G01*
X172018034Y-109136357D01*
X170957374Y-110197017D01*
X170568466Y-109808109D01*
X171629126Y-108747449D01*
G37*
G36*
X172194812Y-109313134D02*
G01*
X172583720Y-109702042D01*
X171523060Y-110762702D01*
X171134152Y-110373794D01*
X172194812Y-109313134D01*
G37*
G36*
X172583720Y-112777958D02*
G01*
X172194812Y-113166866D01*
X171134152Y-112106206D01*
X171523060Y-111717298D01*
X172583720Y-112777958D01*
G37*
G36*
X172018034Y-113343643D02*
G01*
X171629126Y-113732551D01*
X170568466Y-112671891D01*
X170957374Y-112282983D01*
X172018034Y-113343643D01*
G37*
G36*
X171452349Y-113909328D02*
G01*
X171063441Y-114298236D01*
X170002781Y-113237576D01*
X170391689Y-112848668D01*
X171452349Y-113909328D01*
G37*
G36*
X170886664Y-114475014D02*
G01*
X170497756Y-114863922D01*
X169437096Y-113803262D01*
X169826004Y-113414354D01*
X170886664Y-114475014D01*
G37*
G36*
X170320978Y-115040699D02*
G01*
X169932070Y-115429607D01*
X168871410Y-114368947D01*
X169260318Y-113980039D01*
X170320978Y-115040699D01*
G37*
G36*
X169755293Y-115606385D02*
G01*
X169366385Y-115995293D01*
X168305725Y-114934633D01*
X168694633Y-114545725D01*
X169755293Y-115606385D01*
G37*
G36*
X169189607Y-116172070D02*
G01*
X168800699Y-116560978D01*
X167740039Y-115500318D01*
X168128947Y-115111410D01*
X169189607Y-116172070D01*
G37*
G36*
X168623922Y-116737756D02*
G01*
X168235014Y-117126664D01*
X167174354Y-116066004D01*
X167563262Y-115677096D01*
X168623922Y-116737756D01*
G37*
G36*
X168058236Y-117303441D02*
G01*
X167669328Y-117692349D01*
X166608668Y-116631689D01*
X166997576Y-116242781D01*
X168058236Y-117303441D01*
G37*
G36*
X167492551Y-117869126D02*
G01*
X167103643Y-118258034D01*
X166042983Y-117197374D01*
X166431891Y-116808466D01*
X167492551Y-117869126D01*
G37*
G36*
X166926866Y-118434812D02*
G01*
X166537958Y-118823720D01*
X165477298Y-117763060D01*
X165866206Y-117374152D01*
X166926866Y-118434812D01*
G37*
G36*
X164133794Y-117374152D02*
G01*
X164522702Y-117763060D01*
X163462042Y-118823720D01*
X163073134Y-118434812D01*
X164133794Y-117374152D01*
G37*
G36*
X163568109Y-116808466D02*
G01*
X163957017Y-117197374D01*
X162896357Y-118258034D01*
X162507449Y-117869126D01*
X163568109Y-116808466D01*
G37*
G36*
X163002424Y-116242781D02*
G01*
X163391332Y-116631689D01*
X162330672Y-117692349D01*
X161941764Y-117303441D01*
X163002424Y-116242781D01*
G37*
G36*
X162436738Y-115677096D02*
G01*
X162825646Y-116066004D01*
X161764986Y-117126664D01*
X161376078Y-116737756D01*
X162436738Y-115677096D01*
G37*
G36*
X161871053Y-115111410D02*
G01*
X162259961Y-115500318D01*
X161199301Y-116560978D01*
X160810393Y-116172070D01*
X161871053Y-115111410D01*
G37*
G36*
X161305367Y-114545725D02*
G01*
X161694275Y-114934633D01*
X160633615Y-115995293D01*
X160244707Y-115606385D01*
X161305367Y-114545725D01*
G37*
G36*
X160739682Y-113980039D02*
G01*
X161128590Y-114368947D01*
X160067930Y-115429607D01*
X159679022Y-115040699D01*
X160739682Y-113980039D01*
G37*
G36*
X160173996Y-113414354D02*
G01*
X160562904Y-113803262D01*
X159502244Y-114863922D01*
X159113336Y-114475014D01*
X160173996Y-113414354D01*
G37*
G36*
X159608311Y-112848668D02*
G01*
X159997219Y-113237576D01*
X158936559Y-114298236D01*
X158547651Y-113909328D01*
X159608311Y-112848668D01*
G37*
G36*
X159042626Y-112282983D02*
G01*
X159431534Y-112671891D01*
X158370874Y-113732551D01*
X157981966Y-113343643D01*
X159042626Y-112282983D01*
G37*
G36*
X158476940Y-111717298D02*
G01*
X158865848Y-112106206D01*
X157805188Y-113166866D01*
X157416280Y-112777958D01*
X158476940Y-111717298D01*
G37*
G36*
X158865848Y-110373794D02*
G01*
X158476940Y-110762702D01*
X157416280Y-109702042D01*
X157805188Y-109313134D01*
X158865848Y-110373794D01*
G37*
G36*
X159431534Y-109808109D02*
G01*
X159042626Y-110197017D01*
X157981966Y-109136357D01*
X158370874Y-108747449D01*
X159431534Y-109808109D01*
G37*
G36*
X159997219Y-109242424D02*
G01*
X159608311Y-109631332D01*
X158547651Y-108570672D01*
X158936559Y-108181764D01*
X159997219Y-109242424D01*
G37*
G36*
X160562904Y-108676738D02*
G01*
X160173996Y-109065646D01*
X159113336Y-108004986D01*
X159502244Y-107616078D01*
X160562904Y-108676738D01*
G37*
G36*
X161128590Y-108111053D02*
G01*
X160739682Y-108499961D01*
X159679022Y-107439301D01*
X160067930Y-107050393D01*
X161128590Y-108111053D01*
G37*
G36*
X161694275Y-107545367D02*
G01*
X161305367Y-107934275D01*
X160244707Y-106873615D01*
X160633615Y-106484707D01*
X161694275Y-107545367D01*
G37*
G36*
X162259961Y-106979682D02*
G01*
X161871053Y-107368590D01*
X160810393Y-106307930D01*
X161199301Y-105919022D01*
X162259961Y-106979682D01*
G37*
G36*
X162825646Y-106413996D02*
G01*
X162436738Y-106802904D01*
X161376078Y-105742244D01*
X161764986Y-105353336D01*
X162825646Y-106413996D01*
G37*
G36*
X163391332Y-105848311D02*
G01*
X163002424Y-106237219D01*
X161941764Y-105176559D01*
X162330672Y-104787651D01*
X163391332Y-105848311D01*
G37*
G36*
X163957017Y-105282626D02*
G01*
X163568109Y-105671534D01*
X162507449Y-104610874D01*
X162896357Y-104221966D01*
X163957017Y-105282626D01*
G37*
G36*
X164522702Y-104716940D02*
G01*
X164133794Y-105105848D01*
X163073134Y-104045188D01*
X163462042Y-103656280D01*
X164522702Y-104716940D01*
G37*
%TD*%
D13*
%TO.C,SW43*%
X179004278Y-116286457D03*
X189509526Y-108336696D03*
D18*
X186541708Y-109784198D03*
X181947829Y-114850791D03*
D17*
G36*
X190107524Y-106654280D02*
G01*
X191203452Y-108901265D01*
X188911528Y-110019112D01*
X187815600Y-107772127D01*
X190107524Y-106654280D01*
G37*
D19*
X181919823Y-117690459D03*
X191051571Y-113236609D03*
D20*
X186485697Y-115463534D03*
D17*
G36*
X179602276Y-114604041D02*
G01*
X180698204Y-116851026D01*
X178406280Y-117968873D01*
X177310352Y-115721888D01*
X179602276Y-114604041D01*
G37*
%TD*%
D21*
%TO.C,J2*%
X161190000Y-55430000D03*
X163730000Y-55430000D03*
X166270000Y-55430000D03*
D22*
X168810000Y-55430000D03*
%TD*%
%TO.C,R6*%
G36*
G01*
X152700000Y-131060001D02*
X152700000Y-130159999D01*
G75*
G02*
X152949999Y-129910000I249999J0D01*
G01*
X153650001Y-129910000D01*
G75*
G02*
X153900000Y-130159999I0J-249999D01*
G01*
X153900000Y-131060001D01*
G75*
G02*
X153650001Y-131310000I-249999J0D01*
G01*
X152949999Y-131310000D01*
G75*
G02*
X152700000Y-131060001I0J249999D01*
G01*
G37*
G36*
G01*
X150700000Y-131060001D02*
X150700000Y-130159999D01*
G75*
G02*
X150949999Y-129910000I249999J0D01*
G01*
X151650001Y-129910000D01*
G75*
G02*
X151900000Y-130159999I0J-249999D01*
G01*
X151900000Y-131060001D01*
G75*
G02*
X151650001Y-131310000I-249999J0D01*
G01*
X150949999Y-131310000D01*
G75*
G02*
X150700000Y-131060001I0J249999D01*
G01*
G37*
%TD*%
%TO.C,R3*%
G36*
G01*
X166080001Y-89730000D02*
X165179999Y-89730000D01*
G75*
G02*
X164930000Y-89480001I0J249999D01*
G01*
X164930000Y-88779999D01*
G75*
G02*
X165179999Y-88530000I249999J0D01*
G01*
X166080001Y-88530000D01*
G75*
G02*
X166330000Y-88779999I0J-249999D01*
G01*
X166330000Y-89480001D01*
G75*
G02*
X166080001Y-89730000I-249999J0D01*
G01*
G37*
G36*
G01*
X166080001Y-91730000D02*
X165179999Y-91730000D01*
G75*
G02*
X164930000Y-91480001I0J249999D01*
G01*
X164930000Y-90779999D01*
G75*
G02*
X165179999Y-90530000I249999J0D01*
G01*
X166080001Y-90530000D01*
G75*
G02*
X166330000Y-90779999I0J-249999D01*
G01*
X166330000Y-91480001D01*
G75*
G02*
X166080001Y-91730000I-249999J0D01*
G01*
G37*
%TD*%
D23*
%TO.C,SW36*%
X183690947Y-88327548D03*
D24*
X182071668Y-93771438D03*
D23*
X177878484Y-91931626D03*
D25*
X177068845Y-94653571D03*
X187074491Y-92889305D03*
D17*
G36*
X182070466Y-102402777D02*
G01*
X180100850Y-102750073D01*
X179753554Y-100780457D01*
X181723170Y-100433161D01*
X182070466Y-102402777D01*
G37*
D25*
X183374029Y-101157496D03*
X185836049Y-100723376D03*
G36*
G01*
X176834582Y-96319561D02*
X176834582Y-96319561D01*
G75*
G02*
X175676126Y-95508401I-173648J984808D01*
G01*
X175467748Y-94326631D01*
G75*
G02*
X176278908Y-93168175I984808J173648D01*
G01*
X176278908Y-93168175D01*
G75*
G02*
X177437364Y-93979335I173648J-984808D01*
G01*
X177645742Y-95161105D01*
G75*
G02*
X176834582Y-96319561I-984808J-173648D01*
G01*
G37*
G36*
G01*
X187864428Y-94374701D02*
X187864428Y-94374701D01*
G75*
G02*
X186705972Y-93563541I-173648J984808D01*
G01*
X186497594Y-92381771D01*
G75*
G02*
X187308754Y-91223315I984808J173648D01*
G01*
X187308754Y-91223315D01*
G75*
G02*
X188467210Y-92034475I173648J-984808D01*
G01*
X188675588Y-93216245D01*
G75*
G02*
X187864428Y-94374701I-984808J-173648D01*
G01*
G37*
X178394111Y-87311904D03*
X183318150Y-86443663D03*
%TD*%
D26*
%TO.C,HOLE15*%
X178000000Y-60100000D03*
%TD*%
%TO.C,HOLE14*%
X152000000Y-60100000D03*
%TD*%
D27*
%TO.C,HOLE13*%
X164980000Y-80100000D03*
%TD*%
%TO.C,HOLE12*%
X198020001Y-133120000D03*
%TD*%
%TO.C,HOLE11*%
X245380000Y-100610000D03*
%TD*%
%TO.C,HOLE10*%
X287360000Y-94900000D03*
%TD*%
%TO.C,HOLE9*%
X290240000Y-43680000D03*
%TD*%
%TO.C,HOLE8*%
X243660000Y-32080000D03*
%TD*%
%TO.C,HOLE7*%
X188010000Y-31840000D03*
%TD*%
%TO.C,HOLE6*%
X141990000Y-31840000D03*
%TD*%
%TO.C,HOLE5*%
X86340000Y-32080000D03*
%TD*%
%TO.C,HOLE4*%
X39760000Y-43680000D03*
%TD*%
%TO.C,HOLE3*%
X42640000Y-94900000D03*
%TD*%
%TO.C,HOLE2*%
X84620000Y-100610000D03*
%TD*%
%TO.C,HOLE1*%
X131979999Y-133120000D03*
%TD*%
%TO.C,C1*%
G36*
G01*
X160485000Y-97110000D02*
X161435000Y-97110000D01*
G75*
G02*
X161685000Y-97360000I0J-250000D01*
G01*
X161685000Y-98035000D01*
G75*
G02*
X161435000Y-98285000I-250000J0D01*
G01*
X160485000Y-98285000D01*
G75*
G02*
X160235000Y-98035000I0J250000D01*
G01*
X160235000Y-97360000D01*
G75*
G02*
X160485000Y-97110000I250000J0D01*
G01*
G37*
G36*
G01*
X160485000Y-95035000D02*
X161435000Y-95035000D01*
G75*
G02*
X161685000Y-95285000I0J-250000D01*
G01*
X161685000Y-95960000D01*
G75*
G02*
X161435000Y-96210000I-250000J0D01*
G01*
X160485000Y-96210000D01*
G75*
G02*
X160235000Y-95960000I0J250000D01*
G01*
X160235000Y-95285000D01*
G75*
G02*
X160485000Y-95035000I250000J0D01*
G01*
G37*
%TD*%
%TO.C,C2*%
G36*
G01*
X162858333Y-95035000D02*
X163808333Y-95035000D01*
G75*
G02*
X164058333Y-95285000I0J-250000D01*
G01*
X164058333Y-95960000D01*
G75*
G02*
X163808333Y-96210000I-250000J0D01*
G01*
X162858333Y-96210000D01*
G75*
G02*
X162608333Y-95960000I0J250000D01*
G01*
X162608333Y-95285000D01*
G75*
G02*
X162858333Y-95035000I250000J0D01*
G01*
G37*
G36*
G01*
X162858333Y-97110000D02*
X163808333Y-97110000D01*
G75*
G02*
X164058333Y-97360000I0J-250000D01*
G01*
X164058333Y-98035000D01*
G75*
G02*
X163808333Y-98285000I-250000J0D01*
G01*
X162858333Y-98285000D01*
G75*
G02*
X162608333Y-98035000I0J250000D01*
G01*
X162608333Y-97360000D01*
G75*
G02*
X162858333Y-97110000I250000J0D01*
G01*
G37*
%TD*%
%TO.C,C3*%
G36*
G01*
X166181666Y-96210000D02*
X165231666Y-96210000D01*
G75*
G02*
X164981666Y-95960000I0J250000D01*
G01*
X164981666Y-95285000D01*
G75*
G02*
X165231666Y-95035000I250000J0D01*
G01*
X166181666Y-95035000D01*
G75*
G02*
X166431666Y-95285000I0J-250000D01*
G01*
X166431666Y-95960000D01*
G75*
G02*
X166181666Y-96210000I-250000J0D01*
G01*
G37*
G36*
G01*
X166181666Y-98285000D02*
X165231666Y-98285000D01*
G75*
G02*
X164981666Y-98035000I0J250000D01*
G01*
X164981666Y-97360000D01*
G75*
G02*
X165231666Y-97110000I250000J0D01*
G01*
X166181666Y-97110000D01*
G75*
G02*
X166431666Y-97360000I0J-250000D01*
G01*
X166431666Y-98035000D01*
G75*
G02*
X166181666Y-98285000I-250000J0D01*
G01*
G37*
%TD*%
%TO.C,C4*%
G36*
G01*
X168555000Y-98285000D02*
X167605000Y-98285000D01*
G75*
G02*
X167355000Y-98035000I0J250000D01*
G01*
X167355000Y-97360000D01*
G75*
G02*
X167605000Y-97110000I250000J0D01*
G01*
X168555000Y-97110000D01*
G75*
G02*
X168805000Y-97360000I0J-250000D01*
G01*
X168805000Y-98035000D01*
G75*
G02*
X168555000Y-98285000I-250000J0D01*
G01*
G37*
G36*
G01*
X168555000Y-96210000D02*
X167605000Y-96210000D01*
G75*
G02*
X167355000Y-95960000I0J250000D01*
G01*
X167355000Y-95285000D01*
G75*
G02*
X167605000Y-95035000I250000J0D01*
G01*
X168555000Y-95035000D01*
G75*
G02*
X168805000Y-95285000I0J-250000D01*
G01*
X168805000Y-95960000D01*
G75*
G02*
X168555000Y-96210000I-250000J0D01*
G01*
G37*
%TD*%
%TO.C,C5*%
G36*
G01*
X167072500Y-126065000D02*
X167547500Y-126065000D01*
G75*
G02*
X167785000Y-126302500I0J-237500D01*
G01*
X167785000Y-126902500D01*
G75*
G02*
X167547500Y-127140000I-237500J0D01*
G01*
X167072500Y-127140000D01*
G75*
G02*
X166835000Y-126902500I0J237500D01*
G01*
X166835000Y-126302500D01*
G75*
G02*
X167072500Y-126065000I237500J0D01*
G01*
G37*
G36*
G01*
X167072500Y-124340000D02*
X167547500Y-124340000D01*
G75*
G02*
X167785000Y-124577500I0J-237500D01*
G01*
X167785000Y-125177500D01*
G75*
G02*
X167547500Y-125415000I-237500J0D01*
G01*
X167072500Y-125415000D01*
G75*
G02*
X166835000Y-125177500I0J237500D01*
G01*
X166835000Y-124577500D01*
G75*
G02*
X167072500Y-124340000I237500J0D01*
G01*
G37*
%TD*%
%TO.C,C6*%
G36*
G01*
X176877500Y-127140000D02*
X176402500Y-127140000D01*
G75*
G02*
X176165000Y-126902500I0J237500D01*
G01*
X176165000Y-126302500D01*
G75*
G02*
X176402500Y-126065000I237500J0D01*
G01*
X176877500Y-126065000D01*
G75*
G02*
X177115000Y-126302500I0J-237500D01*
G01*
X177115000Y-126902500D01*
G75*
G02*
X176877500Y-127140000I-237500J0D01*
G01*
G37*
G36*
G01*
X176877500Y-125415000D02*
X176402500Y-125415000D01*
G75*
G02*
X176165000Y-125177500I0J237500D01*
G01*
X176165000Y-124577500D01*
G75*
G02*
X176402500Y-124340000I237500J0D01*
G01*
X176877500Y-124340000D01*
G75*
G02*
X177115000Y-124577500I0J-237500D01*
G01*
X177115000Y-125177500D01*
G75*
G02*
X176877500Y-125415000I-237500J0D01*
G01*
G37*
%TD*%
D28*
%TO.C,D1*%
X60991499Y-54302500D03*
X60991499Y-50752500D03*
%TD*%
D17*
%TO.C,D2*%
G36*
X85061604Y-47623761D02*
G01*
X84067082Y-47519232D01*
X84213422Y-46126901D01*
X85207944Y-46231430D01*
X85061604Y-47623761D01*
G37*
G36*
X85432680Y-44093209D02*
G01*
X84438158Y-43988680D01*
X84584498Y-42596349D01*
X85579020Y-42700878D01*
X85432680Y-44093209D01*
G37*
%TD*%
%TO.C,D3*%
G36*
X108497292Y-38334599D02*
G01*
X107512484Y-38160950D01*
X107755592Y-36782219D01*
X108740400Y-36955868D01*
X108497292Y-38334599D01*
G37*
G36*
X107880840Y-41830667D02*
G01*
X106896032Y-41657018D01*
X107139140Y-40278287D01*
X108123948Y-40451936D01*
X107880840Y-41830667D01*
G37*
%TD*%
%TO.C,D4*%
G36*
X125814428Y-49828812D02*
G01*
X124829620Y-49655163D01*
X125072728Y-48276432D01*
X126057536Y-48450081D01*
X125814428Y-49828812D01*
G37*
G36*
X126430880Y-46332744D02*
G01*
X125446072Y-46159095D01*
X125689180Y-44780364D01*
X126673988Y-44954013D01*
X126430880Y-46332744D01*
G37*
%TD*%
%TO.C,D5*%
G36*
X144777968Y-51985815D02*
G01*
X143793160Y-51812166D01*
X144036268Y-50433435D01*
X145021076Y-50607084D01*
X144777968Y-51985815D01*
G37*
G36*
X144161516Y-55481883D02*
G01*
X143176708Y-55308234D01*
X143419816Y-53929503D01*
X144404624Y-54103152D01*
X144161516Y-55481883D01*
G37*
%TD*%
D28*
%TO.C,D6*%
X41941500Y-68590000D03*
X41941500Y-65040000D03*
%TD*%
%TO.C,D7*%
X60991499Y-73352500D03*
X60991499Y-69802500D03*
%TD*%
D17*
%TO.C,D8*%
G36*
X83441412Y-63038851D02*
G01*
X82446890Y-62934322D01*
X82593230Y-61541991D01*
X83587752Y-61646520D01*
X83441412Y-63038851D01*
G37*
G36*
X83070336Y-66569403D02*
G01*
X82075814Y-66464874D01*
X82222154Y-65072543D01*
X83216676Y-65177072D01*
X83070336Y-66569403D01*
G37*
%TD*%
%TO.C,D9*%
G36*
X105189294Y-57095187D02*
G01*
X104204486Y-56921538D01*
X104447594Y-55542807D01*
X105432402Y-55716456D01*
X105189294Y-57095187D01*
G37*
G36*
X104572842Y-60591255D02*
G01*
X103588034Y-60417606D01*
X103831142Y-59038875D01*
X104815950Y-59212524D01*
X104572842Y-60591255D01*
G37*
%TD*%
%TO.C,D10*%
G36*
X122506430Y-68589400D02*
G01*
X121521622Y-68415751D01*
X121764730Y-67037020D01*
X122749538Y-67210669D01*
X122506430Y-68589400D01*
G37*
G36*
X123122882Y-65093332D02*
G01*
X122138074Y-64919683D01*
X122381182Y-63540952D01*
X123365990Y-63714601D01*
X123122882Y-65093332D01*
G37*
%TD*%
%TO.C,D11*%
G36*
X141469970Y-70746403D02*
G01*
X140485162Y-70572754D01*
X140728270Y-69194023D01*
X141713078Y-69367672D01*
X141469970Y-70746403D01*
G37*
G36*
X140853518Y-74242471D02*
G01*
X139868710Y-74068822D01*
X140111818Y-72690091D01*
X141096626Y-72863740D01*
X140853518Y-74242471D01*
G37*
%TD*%
%TO.C,D12*%
G36*
X159817058Y-76399474D02*
G01*
X158832250Y-76225825D01*
X159075358Y-74847094D01*
X160060166Y-75020743D01*
X159817058Y-76399474D01*
G37*
G36*
X159200606Y-79895542D02*
G01*
X158215798Y-79721893D01*
X158458906Y-78343162D01*
X159443714Y-78516811D01*
X159200606Y-79895542D01*
G37*
%TD*%
D28*
%TO.C,D13*%
X41941500Y-84090000D03*
X41941500Y-87640000D03*
%TD*%
%TO.C,D14*%
X60991499Y-92402500D03*
X60991499Y-88852500D03*
%TD*%
D17*
%TO.C,D15*%
G36*
X81450145Y-81984493D02*
G01*
X80455623Y-81879964D01*
X80601963Y-80487633D01*
X81596485Y-80592162D01*
X81450145Y-81984493D01*
G37*
G36*
X81079069Y-85515045D02*
G01*
X80084547Y-85410516D01*
X80230887Y-84018185D01*
X81225409Y-84122714D01*
X81079069Y-85515045D01*
G37*
%TD*%
%TO.C,D16*%
G36*
X101264844Y-79351843D02*
G01*
X100280036Y-79178194D01*
X100523144Y-77799463D01*
X101507952Y-77973112D01*
X101264844Y-79351843D01*
G37*
G36*
X101881296Y-75855775D02*
G01*
X100896488Y-75682126D01*
X101139596Y-74303395D01*
X102124404Y-74477044D01*
X101881296Y-75855775D01*
G37*
%TD*%
%TO.C,D17*%
G36*
X119814884Y-83853919D02*
G01*
X118830076Y-83680270D01*
X119073184Y-82301539D01*
X120057992Y-82475188D01*
X119814884Y-83853919D01*
G37*
G36*
X119198432Y-87349987D02*
G01*
X118213624Y-87176338D01*
X118456732Y-85797607D01*
X119441540Y-85971256D01*
X119198432Y-87349987D01*
G37*
%TD*%
%TO.C,D18*%
G36*
X137545520Y-93003059D02*
G01*
X136560712Y-92829410D01*
X136803820Y-91450679D01*
X137788628Y-91624328D01*
X137545520Y-93003059D01*
G37*
G36*
X138161972Y-89506991D02*
G01*
X137177164Y-89333342D01*
X137420272Y-87954611D01*
X138405080Y-88128260D01*
X138161972Y-89506991D01*
G37*
%TD*%
%TO.C,D19*%
G36*
X156509060Y-95160062D02*
G01*
X155524252Y-94986413D01*
X155767360Y-93607682D01*
X156752168Y-93781331D01*
X156509060Y-95160062D01*
G37*
G36*
X155892608Y-98656130D02*
G01*
X154907800Y-98482481D01*
X155150908Y-97103750D01*
X156135716Y-97277399D01*
X155892608Y-98656130D01*
G37*
%TD*%
%TO.C,D20*%
G36*
X113514611Y-104316620D02*
G01*
X112529803Y-104142971D01*
X112772911Y-102764240D01*
X113757719Y-102937889D01*
X113514611Y-104316620D01*
G37*
G36*
X112898159Y-107812688D02*
G01*
X111913351Y-107639039D01*
X112156459Y-106260308D01*
X113141267Y-106433957D01*
X112898159Y-107812688D01*
G37*
%TD*%
%TO.C,D21*%
G36*
X131869329Y-113792429D02*
G01*
X130918273Y-113483412D01*
X131350897Y-112151933D01*
X132301953Y-112460950D01*
X131869329Y-113792429D01*
G37*
G36*
X132966339Y-110416179D02*
G01*
X132015283Y-110107162D01*
X132447907Y-108775683D01*
X133398963Y-109084700D01*
X132966339Y-110416179D01*
G37*
%TD*%
%TO.C,D22*%
G36*
X151379871Y-119163534D02*
G01*
X150481077Y-118725163D01*
X151094797Y-117466852D01*
X151993591Y-117905223D01*
X151379871Y-119163534D01*
G37*
G36*
X149823653Y-122354252D02*
G01*
X148924859Y-121915881D01*
X149538579Y-120657570D01*
X150437373Y-121095941D01*
X149823653Y-122354252D01*
G37*
%TD*%
%TO.C,D23*%
G36*
X125982555Y-131910055D02*
G01*
X125031499Y-131601038D01*
X125464123Y-130269559D01*
X126415179Y-130578576D01*
X125982555Y-131910055D01*
G37*
G36*
X127079565Y-128533805D02*
G01*
X126128509Y-128224788D01*
X126561133Y-126893309D01*
X127512189Y-127202326D01*
X127079565Y-128533805D01*
G37*
%TD*%
%TO.C,D24*%
G36*
X202340944Y-48967288D02*
G01*
X201356136Y-49140937D01*
X201113028Y-47762206D01*
X202097836Y-47588557D01*
X202340944Y-48967288D01*
G37*
G36*
X202957396Y-52463356D02*
G01*
X201972588Y-52637005D01*
X201729480Y-51258274D01*
X202714288Y-51084625D01*
X202957396Y-52463356D01*
G37*
%TD*%
%TO.C,D25*%
G36*
X221304484Y-46810285D02*
G01*
X220319676Y-46983934D01*
X220076568Y-45605203D01*
X221061376Y-45431554D01*
X221304484Y-46810285D01*
G37*
G36*
X220688032Y-43314217D02*
G01*
X219703224Y-43487866D01*
X219460116Y-42109135D01*
X220444924Y-41935486D01*
X220688032Y-43314217D01*
G37*
%TD*%
%TO.C,D26*%
G36*
X239315732Y-31684507D02*
G01*
X238330924Y-31858156D01*
X238087816Y-30479425D01*
X239072624Y-30305776D01*
X239315732Y-31684507D01*
G37*
G36*
X239932184Y-35180575D02*
G01*
X238947376Y-35354224D01*
X238704268Y-33975493D01*
X239689076Y-33801844D01*
X239932184Y-35180575D01*
G37*
%TD*%
%TO.C,D27*%
G36*
X263745969Y-42699177D02*
G01*
X262751447Y-42803706D01*
X262605107Y-41411375D01*
X263599629Y-41306846D01*
X263745969Y-42699177D01*
G37*
G36*
X263374893Y-39168625D02*
G01*
X262380371Y-39273154D01*
X262234031Y-37880823D01*
X263228553Y-37776294D01*
X263374893Y-39168625D01*
G37*
%TD*%
D28*
%TO.C,D28*%
X285391500Y-50752500D03*
X285391500Y-54302500D03*
%TD*%
D17*
%TO.C,D29*%
G36*
X187918306Y-76877015D02*
G01*
X186933498Y-77050664D01*
X186690390Y-75671933D01*
X187675198Y-75498284D01*
X187918306Y-76877015D01*
G37*
G36*
X187301854Y-73380947D02*
G01*
X186317046Y-73554596D01*
X186073938Y-72175865D01*
X187058746Y-72002216D01*
X187301854Y-73380947D01*
G37*
%TD*%
%TO.C,D30*%
G36*
X205648942Y-67727876D02*
G01*
X204664134Y-67901525D01*
X204421026Y-66522794D01*
X205405834Y-66349145D01*
X205648942Y-67727876D01*
G37*
G36*
X206265394Y-71223944D02*
G01*
X205280586Y-71397593D01*
X205037478Y-70018862D01*
X206022286Y-69845213D01*
X206265394Y-71223944D01*
G37*
%TD*%
%TO.C,D31*%
G36*
X224612482Y-65570873D02*
G01*
X223627674Y-65744522D01*
X223384566Y-64365791D01*
X224369374Y-64192142D01*
X224612482Y-65570873D01*
G37*
G36*
X223996030Y-62074805D02*
G01*
X223011222Y-62248454D01*
X222768114Y-60869723D01*
X223752922Y-60696074D01*
X223996030Y-62074805D01*
G37*
%TD*%
%TO.C,D32*%
G36*
X241929618Y-54076660D02*
G01*
X240944810Y-54250309D01*
X240701702Y-52871578D01*
X241686510Y-52697929D01*
X241929618Y-54076660D01*
G37*
G36*
X242546070Y-57572728D02*
G01*
X241561262Y-57746377D01*
X241318154Y-56367646D01*
X242302962Y-56193997D01*
X242546070Y-57572728D01*
G37*
%TD*%
%TO.C,D33*%
G36*
X264217437Y-64752384D02*
G01*
X263222915Y-64856913D01*
X263076575Y-63464582D01*
X264071097Y-63360053D01*
X264217437Y-64752384D01*
G37*
G36*
X263846361Y-61221832D02*
G01*
X262851839Y-61326361D01*
X262705499Y-59934030D01*
X263700021Y-59829501D01*
X263846361Y-61221832D01*
G37*
%TD*%
D28*
%TO.C,D34*%
X285391500Y-69802500D03*
X285391500Y-73352500D03*
%TD*%
%TO.C,D35*%
X302371500Y-70120000D03*
X302371500Y-73670000D03*
%TD*%
D17*
%TO.C,D36*%
G36*
X190609852Y-92141535D02*
G01*
X189625044Y-92315184D01*
X189381936Y-90936453D01*
X190366744Y-90762804D01*
X190609852Y-92141535D01*
G37*
G36*
X191226304Y-95637603D02*
G01*
X190241496Y-95811252D01*
X189998388Y-94432521D01*
X190983196Y-94258872D01*
X191226304Y-95637603D01*
G37*
%TD*%
%TO.C,D37*%
G36*
X209573392Y-89984532D02*
G01*
X208588584Y-90158181D01*
X208345476Y-88779450D01*
X209330284Y-88605801D01*
X209573392Y-89984532D01*
G37*
G36*
X208956940Y-86488464D02*
G01*
X207972132Y-86662113D01*
X207729024Y-85283382D01*
X208713832Y-85109733D01*
X208956940Y-86488464D01*
G37*
%TD*%
%TO.C,D38*%
G36*
X227304028Y-80835392D02*
G01*
X226319220Y-81009041D01*
X226076112Y-79630310D01*
X227060920Y-79456661D01*
X227304028Y-80835392D01*
G37*
G36*
X227920480Y-84331460D02*
G01*
X226935672Y-84505109D01*
X226692564Y-83126378D01*
X227677372Y-82952729D01*
X227920480Y-84331460D01*
G37*
%TD*%
%TO.C,D39*%
G36*
X245854068Y-76333316D02*
G01*
X244869260Y-76506965D01*
X244626152Y-75128234D01*
X245610960Y-74954585D01*
X245854068Y-76333316D01*
G37*
G36*
X245237616Y-72837248D02*
G01*
X244252808Y-73010897D01*
X244009700Y-71632166D01*
X244994508Y-71458517D01*
X245237616Y-72837248D01*
G37*
%TD*%
%TO.C,D40*%
G36*
X265837628Y-80167474D02*
G01*
X264843106Y-80272003D01*
X264696766Y-78879672D01*
X265691288Y-78775143D01*
X265837628Y-80167474D01*
G37*
G36*
X266208704Y-83698026D02*
G01*
X265214182Y-83802555D01*
X265067842Y-82410224D01*
X266062364Y-82305695D01*
X266208704Y-83698026D01*
G37*
%TD*%
D28*
%TO.C,D41*%
X286060000Y-89155000D03*
X286060000Y-85605000D03*
%TD*%
%TO.C,D42*%
X302371500Y-92720000D03*
X302371500Y-89170000D03*
%TD*%
D17*
%TO.C,D43*%
G36*
X195800082Y-114734047D02*
G01*
X194901288Y-115172418D01*
X194287568Y-113914107D01*
X195186362Y-113475736D01*
X195800082Y-114734047D01*
G37*
G36*
X194243864Y-111543329D02*
G01*
X193345070Y-111981700D01*
X192731350Y-110723389D01*
X193630144Y-110285018D01*
X194243864Y-111543329D01*
G37*
%TD*%
%TO.C,D44*%
G36*
X214662885Y-108420786D02*
G01*
X213711829Y-108729803D01*
X213279205Y-107398324D01*
X214230261Y-107089307D01*
X214662885Y-108420786D01*
G37*
G36*
X213565875Y-105044536D02*
G01*
X212614819Y-105353553D01*
X212182195Y-104022074D01*
X213133251Y-103713057D01*
X213565875Y-105044536D01*
G37*
%TD*%
%TO.C,D45*%
G36*
X233604301Y-101298093D02*
G01*
X232619493Y-101471742D01*
X232376385Y-100093011D01*
X233361193Y-99919362D01*
X233604301Y-101298093D01*
G37*
G36*
X234220753Y-104794161D02*
G01*
X233235945Y-104967810D01*
X232992837Y-103589079D01*
X233977645Y-103415430D01*
X234220753Y-104794161D01*
G37*
%TD*%
%TO.C,D46*%
G36*
X220549659Y-126538412D02*
G01*
X219598603Y-126847429D01*
X219165979Y-125515950D01*
X220117035Y-125206933D01*
X220549659Y-126538412D01*
G37*
G36*
X219452649Y-123162162D02*
G01*
X218501593Y-123471179D01*
X218068969Y-122139700D01*
X219020025Y-121830683D01*
X219452649Y-123162162D01*
G37*
%TD*%
D29*
%TO.C,F1*%
X51750000Y-38130000D03*
X48750000Y-38130000D03*
%TD*%
D30*
%TO.C,J3*%
X131290000Y-27938600D03*
X128750000Y-27481400D03*
X126210000Y-27938600D03*
X123670000Y-27481400D03*
X121130000Y-27938600D03*
D31*
X118590000Y-27481400D03*
%TD*%
D32*
%TO.C,J4*%
X205640000Y-34070000D03*
D33*
X203640000Y-34070000D03*
X201640000Y-34070000D03*
X199640000Y-34070000D03*
%TD*%
D34*
%TO.C,LED1*%
X132860000Y-123010000D03*
X132860000Y-121410000D03*
X132860000Y-119810000D03*
X137760000Y-123010000D03*
X137760000Y-121410000D03*
X137760000Y-119810000D03*
%TD*%
%TO.C,LED2*%
X111520000Y-89660000D03*
X111520000Y-91260000D03*
X111520000Y-92860000D03*
X106620000Y-89660000D03*
X106620000Y-91260000D03*
X106620000Y-92860000D03*
%TD*%
%TO.C,LED3*%
X70020000Y-91140000D03*
X70020000Y-89540000D03*
X70020000Y-87940000D03*
X74920000Y-91140000D03*
X74920000Y-89540000D03*
X74920000Y-87940000D03*
%TD*%
%TO.C,LED4*%
X49770000Y-77350000D03*
X49770000Y-78950000D03*
X49770000Y-80550000D03*
X44870000Y-77350000D03*
X44870000Y-78950000D03*
X44870000Y-80550000D03*
%TD*%
%TO.C,LED5*%
X64380000Y-50570000D03*
X64380000Y-48970000D03*
X64380000Y-47370000D03*
X69280000Y-50570000D03*
X69280000Y-48970000D03*
X69280000Y-47370000D03*
%TD*%
%TO.C,LED6*%
X93400000Y-39890000D03*
X93400000Y-41490000D03*
X93400000Y-43090000D03*
X88500000Y-39890000D03*
X88500000Y-41490000D03*
X88500000Y-43090000D03*
%TD*%
%TO.C,LED7*%
X140630000Y-37300000D03*
X140630000Y-38900000D03*
X140630000Y-40500000D03*
X135730000Y-37300000D03*
X135730000Y-38900000D03*
X135730000Y-40500000D03*
%TD*%
%TO.C,LED8*%
X189370000Y-40500000D03*
X189370000Y-38900000D03*
X189370000Y-37300000D03*
X194270000Y-40500000D03*
X194270000Y-38900000D03*
X194270000Y-37300000D03*
%TD*%
%TO.C,LED9*%
X236600000Y-43090000D03*
X236600000Y-41490000D03*
X236600000Y-39890000D03*
X241500000Y-43090000D03*
X241500000Y-41490000D03*
X241500000Y-39890000D03*
%TD*%
%TO.C,LED10*%
X265620000Y-47370000D03*
X265620000Y-48970000D03*
X265620000Y-50570000D03*
X260720000Y-47370000D03*
X260720000Y-48970000D03*
X260720000Y-50570000D03*
%TD*%
%TO.C,LED11*%
X280230000Y-80550000D03*
X280230000Y-78950000D03*
X280230000Y-77350000D03*
X285130000Y-80550000D03*
X285130000Y-78950000D03*
X285130000Y-77350000D03*
%TD*%
%TO.C,LED12*%
X259979999Y-87940000D03*
X259979999Y-89540000D03*
X259979999Y-91140000D03*
X255079999Y-87940000D03*
X255079999Y-89540000D03*
X255079999Y-91140000D03*
%TD*%
%TO.C,LED13*%
X218480000Y-92860000D03*
X218480000Y-91260000D03*
X218480000Y-89660000D03*
X223380000Y-92860000D03*
X223380000Y-91260000D03*
X223380000Y-89660000D03*
%TD*%
%TO.C,LED14*%
X197140000Y-119810000D03*
X197140000Y-121410000D03*
X197140000Y-123010000D03*
X192240000Y-119810000D03*
X192240000Y-121410000D03*
X192240000Y-123010000D03*
%TD*%
%TO.C,R1*%
G36*
G01*
X41900000Y-51139999D02*
X41900000Y-52040001D01*
G75*
G02*
X41650001Y-52290000I-249999J0D01*
G01*
X40949999Y-52290000D01*
G75*
G02*
X40700000Y-52040001I0J249999D01*
G01*
X40700000Y-51139999D01*
G75*
G02*
X40949999Y-50890000I249999J0D01*
G01*
X41650001Y-50890000D01*
G75*
G02*
X41900000Y-51139999I0J-249999D01*
G01*
G37*
G36*
G01*
X39900000Y-51139999D02*
X39900000Y-52040001D01*
G75*
G02*
X39650001Y-52290000I-249999J0D01*
G01*
X38949999Y-52290000D01*
G75*
G02*
X38700000Y-52040001I0J249999D01*
G01*
X38700000Y-51139999D01*
G75*
G02*
X38949999Y-50890000I249999J0D01*
G01*
X39650001Y-50890000D01*
G75*
G02*
X39900000Y-51139999I0J-249999D01*
G01*
G37*
%TD*%
%TO.C,R2*%
G36*
G01*
X40690000Y-54170001D02*
X40690000Y-53269999D01*
G75*
G02*
X40939999Y-53020000I249999J0D01*
G01*
X41640001Y-53020000D01*
G75*
G02*
X41890000Y-53269999I0J-249999D01*
G01*
X41890000Y-54170001D01*
G75*
G02*
X41640001Y-54420000I-249999J0D01*
G01*
X40939999Y-54420000D01*
G75*
G02*
X40690000Y-54170001I0J249999D01*
G01*
G37*
G36*
G01*
X38690000Y-54170001D02*
X38690000Y-53269999D01*
G75*
G02*
X38939999Y-53020000I249999J0D01*
G01*
X39640001Y-53020000D01*
G75*
G02*
X39890000Y-53269999I0J-249999D01*
G01*
X39890000Y-54170001D01*
G75*
G02*
X39640001Y-54420000I-249999J0D01*
G01*
X38939999Y-54420000D01*
G75*
G02*
X38690000Y-54170001I0J249999D01*
G01*
G37*
%TD*%
%TO.C,R4*%
G36*
G01*
X167639999Y-88530000D02*
X168540001Y-88530000D01*
G75*
G02*
X168790000Y-88779999I0J-249999D01*
G01*
X168790000Y-89480001D01*
G75*
G02*
X168540001Y-89730000I-249999J0D01*
G01*
X167639999Y-89730000D01*
G75*
G02*
X167390000Y-89480001I0J249999D01*
G01*
X167390000Y-88779999D01*
G75*
G02*
X167639999Y-88530000I249999J0D01*
G01*
G37*
G36*
G01*
X167639999Y-90530000D02*
X168540001Y-90530000D01*
G75*
G02*
X168790000Y-90779999I0J-249999D01*
G01*
X168790000Y-91480001D01*
G75*
G02*
X168540001Y-91730000I-249999J0D01*
G01*
X167639999Y-91730000D01*
G75*
G02*
X167390000Y-91480001I0J249999D01*
G01*
X167390000Y-90779999D01*
G75*
G02*
X167639999Y-90530000I249999J0D01*
G01*
G37*
%TD*%
%TO.C,R5*%
G36*
G01*
X175890000Y-133050001D02*
X175890000Y-132149999D01*
G75*
G02*
X176139999Y-131900000I249999J0D01*
G01*
X176840001Y-131900000D01*
G75*
G02*
X177090000Y-132149999I0J-249999D01*
G01*
X177090000Y-133050001D01*
G75*
G02*
X176840001Y-133300000I-249999J0D01*
G01*
X176139999Y-133300000D01*
G75*
G02*
X175890000Y-133050001I0J249999D01*
G01*
G37*
G36*
G01*
X177890000Y-133050001D02*
X177890000Y-132149999D01*
G75*
G02*
X178139999Y-131900000I249999J0D01*
G01*
X178840001Y-131900000D01*
G75*
G02*
X179090000Y-132149999I0J-249999D01*
G01*
X179090000Y-133050001D01*
G75*
G02*
X178840001Y-133300000I-249999J0D01*
G01*
X178139999Y-133300000D01*
G75*
G02*
X177890000Y-133050001I0J249999D01*
G01*
G37*
%TD*%
D13*
%TO.C,SW1*%
X45715000Y-49035000D03*
X58642000Y-46495000D03*
D18*
X55340000Y-46495000D03*
X48990000Y-49035000D03*
D35*
X58642000Y-46495000D03*
D19*
X47720000Y-51575000D03*
X57880000Y-51575000D03*
D20*
X52800000Y-51575000D03*
D35*
X45715000Y-49035000D03*
%TD*%
D17*
%TO.C,SW2*%
G36*
X71393980Y-38929979D02*
G01*
X71132659Y-41416284D01*
X68596628Y-41149737D01*
X68857949Y-38663432D01*
X71393980Y-38929979D01*
G37*
D20*
X76775989Y-43306528D03*
D19*
X81828160Y-43837533D03*
X71723818Y-42775523D03*
D17*
G36*
X84515667Y-37755133D02*
G01*
X84254346Y-40241438D01*
X81718315Y-39974891D01*
X81979636Y-37488586D01*
X84515667Y-37755133D01*
G37*
D18*
X73252363Y-40382189D03*
X79833079Y-38519859D03*
D13*
X83116991Y-38865012D03*
X69995304Y-40039858D03*
%TD*%
D17*
%TO.C,SW3*%
G36*
X94852957Y-32204658D02*
G01*
X94418837Y-34666677D01*
X91907577Y-34223874D01*
X92341697Y-31761855D01*
X94852957Y-32204658D01*
G37*
D20*
X99916564Y-36945975D03*
D19*
X104919387Y-37828108D03*
X94913741Y-36063842D03*
D17*
G36*
X108024634Y-31947996D02*
G01*
X107590514Y-34410015D01*
X105079254Y-33967212D01*
X105513374Y-31505193D01*
X108024634Y-31947996D01*
G37*
D18*
X96605513Y-33782964D03*
X103300108Y-32384218D03*
D13*
X106551944Y-32957604D03*
X93380267Y-33214266D03*
%TD*%
%TO.C,SW4*%
X111313855Y-41212411D03*
X124485532Y-40955749D03*
D18*
X121233696Y-40382363D03*
X114539101Y-41781109D03*
D17*
G36*
X125958222Y-39946141D02*
G01*
X125524102Y-42408160D01*
X123012842Y-41965357D01*
X123446962Y-39503338D01*
X125958222Y-39946141D01*
G37*
D19*
X112847329Y-44061987D03*
X122852975Y-45826253D03*
D20*
X117850152Y-44944120D03*
D17*
G36*
X112786545Y-40202803D02*
G01*
X112352425Y-42664822D01*
X109841165Y-42222019D01*
X110275285Y-39760000D01*
X112786545Y-40202803D01*
G37*
%TD*%
%TO.C,SW5*%
G36*
X131133633Y-45855874D02*
G01*
X130699513Y-48317893D01*
X128188253Y-47875090D01*
X128622373Y-45413071D01*
X131133633Y-45855874D01*
G37*
D20*
X136197240Y-50597191D03*
D19*
X141200063Y-51479324D03*
X131194417Y-49715058D03*
D17*
G36*
X144305310Y-45599212D02*
G01*
X143871190Y-48061231D01*
X141359930Y-47618428D01*
X141794050Y-45156409D01*
X144305310Y-45599212D01*
G37*
D18*
X132886189Y-47434180D03*
X139580784Y-46035434D03*
D13*
X142832620Y-46608820D03*
X129660943Y-46865482D03*
%TD*%
%TO.C,SW6*%
X26665000Y-63322500D03*
X39592000Y-60782500D03*
D18*
X36290000Y-60782500D03*
X29940000Y-63322500D03*
D35*
X39592000Y-60782500D03*
D19*
X28670000Y-65862500D03*
X38830000Y-65862500D03*
D20*
X33750000Y-65862500D03*
D35*
X26665000Y-63322500D03*
%TD*%
D13*
%TO.C,SW7*%
X45715000Y-68085000D03*
X58642000Y-65545000D03*
D18*
X55340000Y-65545000D03*
X48990000Y-68085000D03*
D35*
X58642000Y-65545000D03*
D19*
X47720000Y-70625000D03*
X57880000Y-70625000D03*
D20*
X52800000Y-70625000D03*
D35*
X45715000Y-68085000D03*
%TD*%
D13*
%TO.C,SW8*%
X68004036Y-58985500D03*
X81125723Y-57810654D03*
D18*
X77841811Y-57465501D03*
X71261095Y-59327831D03*
D17*
G36*
X82524399Y-56700775D02*
G01*
X82263078Y-59187080D01*
X79727047Y-58920533D01*
X79988368Y-56434228D01*
X82524399Y-56700775D01*
G37*
D19*
X69732550Y-61721165D03*
X79836892Y-62783175D03*
D20*
X74784721Y-62252170D03*
D17*
G36*
X69402712Y-57875621D02*
G01*
X69141391Y-60361926D01*
X66605360Y-60095379D01*
X66866681Y-57609074D01*
X69402712Y-57875621D01*
G37*
%TD*%
%TO.C,SW9*%
G36*
X91544959Y-50965246D02*
G01*
X91110839Y-53427265D01*
X88599579Y-52984462D01*
X89033699Y-50522443D01*
X91544959Y-50965246D01*
G37*
D20*
X96608566Y-55706563D03*
D19*
X101611389Y-56588696D03*
X91605743Y-54824430D03*
D17*
G36*
X104716636Y-50708584D02*
G01*
X104282516Y-53170603D01*
X101771256Y-52727800D01*
X102205376Y-50265781D01*
X104716636Y-50708584D01*
G37*
D18*
X93297515Y-52543552D03*
X99992110Y-51144806D03*
D13*
X103243946Y-51718192D03*
X90072269Y-51974854D03*
%TD*%
D17*
%TO.C,SW10*%
G36*
X109478547Y-58963391D02*
G01*
X109044427Y-61425410D01*
X106533167Y-60982607D01*
X106967287Y-58520588D01*
X109478547Y-58963391D01*
G37*
D20*
X114542154Y-63704708D03*
D19*
X119544977Y-64586841D03*
X109539331Y-62822575D03*
D17*
G36*
X122650224Y-58706729D02*
G01*
X122216104Y-61168748D01*
X119704844Y-60725945D01*
X120138964Y-58263926D01*
X122650224Y-58706729D01*
G37*
D18*
X111231103Y-60541697D03*
X117925698Y-59142951D03*
D13*
X121177534Y-59716337D03*
X108005857Y-59972999D03*
%TD*%
D17*
%TO.C,SW11*%
G36*
X127825635Y-64616462D02*
G01*
X127391515Y-67078481D01*
X124880255Y-66635678D01*
X125314375Y-64173659D01*
X127825635Y-64616462D01*
G37*
D20*
X132889242Y-69357779D03*
D19*
X137892065Y-70239912D03*
X127886419Y-68475646D03*
D17*
G36*
X140997312Y-64359800D02*
G01*
X140563192Y-66821819D01*
X138051932Y-66379016D01*
X138486052Y-63916997D01*
X140997312Y-64359800D01*
G37*
D18*
X129578191Y-66194768D03*
X136272786Y-64796022D03*
D13*
X139524622Y-65369408D03*
X126352945Y-65626070D03*
%TD*%
%TO.C,SW12*%
X144700033Y-71279141D03*
X157871710Y-71022479D03*
D18*
X154619874Y-70449093D03*
X147925279Y-71847839D03*
D17*
G36*
X159344400Y-70012871D02*
G01*
X158910280Y-72474890D01*
X156399020Y-72032087D01*
X156833140Y-69570068D01*
X159344400Y-70012871D01*
G37*
D19*
X146233507Y-74128717D03*
X156239153Y-75892983D03*
D20*
X151236330Y-75010850D03*
D17*
G36*
X146172723Y-70269533D02*
G01*
X145738603Y-72731552D01*
X143227343Y-72288749D01*
X143661463Y-69826730D01*
X146172723Y-70269533D01*
G37*
%TD*%
D35*
%TO.C,SW13*%
X26665000Y-82372500D03*
D20*
X33750000Y-84912500D03*
D19*
X38830000Y-84912500D03*
X28670000Y-84912500D03*
D35*
X39592000Y-79832500D03*
D18*
X29940000Y-82372500D03*
X36290000Y-79832500D03*
D13*
X39592000Y-79832500D03*
X26665000Y-82372500D03*
%TD*%
%TO.C,SW14*%
X45715000Y-87135000D03*
X58642000Y-84595000D03*
D18*
X55340000Y-84595000D03*
X48990000Y-87135000D03*
D35*
X58642000Y-84595000D03*
D19*
X47720000Y-89675000D03*
X57880000Y-89675000D03*
D20*
X52800000Y-89675000D03*
D35*
X45715000Y-87135000D03*
%TD*%
D17*
%TO.C,SW15*%
G36*
X67411445Y-76821263D02*
G01*
X67150124Y-79307568D01*
X64614093Y-79041021D01*
X64875414Y-76554716D01*
X67411445Y-76821263D01*
G37*
D20*
X72793454Y-81197812D03*
D19*
X77845625Y-81728817D03*
X67741283Y-80666807D03*
D17*
G36*
X80533132Y-75646417D02*
G01*
X80271811Y-78132722D01*
X77735780Y-77866175D01*
X77997101Y-75379870D01*
X80533132Y-75646417D01*
G37*
D18*
X69269828Y-78273473D03*
X75850544Y-76411143D03*
D13*
X79134456Y-76756296D03*
X66012769Y-77931142D03*
%TD*%
%TO.C,SW16*%
X86764271Y-70735442D03*
X99935948Y-70478780D03*
D18*
X96684112Y-69905394D03*
X89989517Y-71304140D03*
D17*
G36*
X101408638Y-69469172D02*
G01*
X100974518Y-71931191D01*
X98463258Y-71488388D01*
X98897378Y-69026369D01*
X101408638Y-69469172D01*
G37*
D19*
X88297745Y-73585018D03*
X98303391Y-75349284D03*
D20*
X93300568Y-74467151D03*
D17*
G36*
X88236961Y-69725834D02*
G01*
X87802841Y-72187853D01*
X85291581Y-71745050D01*
X85725701Y-69283031D01*
X88236961Y-69725834D01*
G37*
%TD*%
%TO.C,SW17*%
G36*
X106170549Y-77723978D02*
G01*
X105736429Y-80185997D01*
X103225169Y-79743194D01*
X103659289Y-77281175D01*
X106170549Y-77723978D01*
G37*
D20*
X111234156Y-82465295D03*
D19*
X116236979Y-83347428D03*
X106231333Y-81583162D03*
D17*
G36*
X119342226Y-77467316D02*
G01*
X118908106Y-79929335D01*
X116396846Y-79486532D01*
X116830966Y-77024513D01*
X119342226Y-77467316D01*
G37*
D18*
X107923105Y-79302284D03*
X114617700Y-77903538D03*
D13*
X117869536Y-78476924D03*
X104697859Y-78733586D03*
%TD*%
%TO.C,SW18*%
X123044947Y-84386658D03*
X136216624Y-84129996D03*
D18*
X132964788Y-83556610D03*
X126270193Y-84955356D03*
D17*
G36*
X137689314Y-83120388D02*
G01*
X137255194Y-85582407D01*
X134743934Y-85139604D01*
X135178054Y-82677585D01*
X137689314Y-83120388D01*
G37*
D19*
X124578421Y-87236234D03*
X134584067Y-89000500D03*
D20*
X129581244Y-88118367D03*
D17*
G36*
X124517637Y-83377050D02*
G01*
X124083517Y-85839069D01*
X121572257Y-85396266D01*
X122006377Y-82934247D01*
X124517637Y-83377050D01*
G37*
%TD*%
D25*
%TO.C,SW19*%
X151605889Y-87311904D03*
X146681850Y-86443663D03*
G36*
G01*
X153165418Y-96319561D02*
X153165418Y-96319561D01*
G75*
G02*
X152354258Y-95161105I173648J984808D01*
G01*
X152562636Y-93979335D01*
G75*
G02*
X153721092Y-93168175I984808J-173648D01*
G01*
X153721092Y-93168175D01*
G75*
G02*
X154532252Y-94326631I-173648J-984808D01*
G01*
X154323874Y-95508401D01*
G75*
G02*
X153165418Y-96319561I-984808J173648D01*
G01*
G37*
G36*
G01*
X142135572Y-94374701D02*
X142135572Y-94374701D01*
G75*
G02*
X141324412Y-93216245I173648J984808D01*
G01*
X141532790Y-92034475D01*
G75*
G02*
X142691246Y-91223315I984808J-173648D01*
G01*
X142691246Y-91223315D01*
G75*
G02*
X143502406Y-92381771I-173648J-984808D01*
G01*
X143294028Y-93563541D01*
G75*
G02*
X142135572Y-94374701I-984808J173648D01*
G01*
G37*
X149087990Y-101591617D03*
X146625971Y-101157496D03*
D17*
G36*
X144975111Y-101881832D02*
G01*
X143005495Y-101534536D01*
X143352791Y-99564920D01*
X145322407Y-99912216D01*
X144975111Y-101881832D01*
G37*
D25*
X152931155Y-94653571D03*
X142925509Y-92889305D03*
D23*
X144617281Y-90608427D03*
D24*
X147928332Y-93771438D03*
D23*
X151311876Y-89209681D03*
%TD*%
D17*
%TO.C,SW20*%
G36*
X99870276Y-98186679D02*
G01*
X99436156Y-100648698D01*
X96924896Y-100205895D01*
X97359016Y-97743876D01*
X99870276Y-98186679D01*
G37*
D20*
X104933883Y-102927996D03*
D19*
X109936706Y-103810129D03*
X99931060Y-102045863D03*
D17*
G36*
X113041953Y-97930017D02*
G01*
X112607833Y-100392036D01*
X110096573Y-99949233D01*
X110530693Y-97487214D01*
X113041953Y-97930017D01*
G37*
D18*
X101622832Y-99764985D03*
X108317427Y-98366239D03*
D13*
X111569263Y-98939625D03*
X98397586Y-99196287D03*
%TD*%
%TO.C,SW21*%
X118709046Y-103241793D03*
X131788256Y-104820772D03*
D18*
X128647868Y-103800398D03*
X121823756Y-104253824D03*
D17*
G36*
X133387124Y-104025948D02*
G01*
X132614582Y-106403589D01*
X130189388Y-105615596D01*
X130961930Y-103237955D01*
X133387124Y-104025948D01*
G37*
D19*
X119831011Y-106277056D03*
X129493745Y-109416668D03*
D20*
X124662378Y-107846862D03*
D17*
G36*
X120307914Y-102446969D02*
G01*
X119535372Y-104824610D01*
X117110178Y-104036617D01*
X117882720Y-101658976D01*
X120307914Y-102446969D01*
G37*
%TD*%
%TO.C,SW22*%
G36*
X139953736Y-109510169D02*
G01*
X138857808Y-111757154D01*
X136565884Y-110639307D01*
X137661812Y-108392322D01*
X139953736Y-109510169D01*
G37*
D20*
X143514303Y-115463534D03*
D19*
X148080177Y-117690459D03*
X138948429Y-113236609D03*
D17*
G36*
X152685909Y-112894055D02*
G01*
X151589981Y-115141040D01*
X149298057Y-114023193D01*
X150393985Y-111776208D01*
X152685909Y-112894055D01*
G37*
D18*
X141203360Y-111510403D03*
X148024165Y-112011123D03*
D13*
X150991983Y-113458624D03*
X138259810Y-110074738D03*
%TD*%
%TO.C,SW23*%
X112822272Y-121359419D03*
X125901482Y-122938398D03*
D18*
X122761094Y-121918024D03*
X115936982Y-122371450D03*
D17*
G36*
X127500350Y-122143574D02*
G01*
X126727808Y-124521215D01*
X124302614Y-123733222D01*
X125075156Y-121355581D01*
X127500350Y-122143574D01*
G37*
D19*
X113944237Y-124394682D03*
X123606971Y-127534294D03*
D20*
X118775604Y-125964488D03*
D17*
G36*
X114421140Y-120564595D02*
G01*
X113648598Y-122942236D01*
X111223404Y-122154243D01*
X111995946Y-119776602D01*
X114421140Y-120564595D01*
G37*
%TD*%
D13*
%TO.C,SW24*%
X186384331Y-49326077D03*
X198673874Y-44579915D03*
D18*
X195422039Y-45153301D03*
X189609576Y-48757379D03*
D17*
G36*
X199712444Y-43127504D02*
G01*
X200146564Y-45589523D01*
X197635304Y-46032326D01*
X197201184Y-43570307D01*
X199712444Y-43127504D01*
G37*
D19*
X188799937Y-51479324D03*
X198805583Y-49715058D03*
D20*
X193802760Y-50597191D03*
D17*
G36*
X187422901Y-47873666D02*
G01*
X187857021Y-50335685D01*
X185345761Y-50778488D01*
X184911641Y-48316469D01*
X187422901Y-47873666D01*
G37*
%TD*%
%TO.C,SW25*%
G36*
X205769989Y-42220595D02*
G01*
X206204109Y-44682614D01*
X203692849Y-45125417D01*
X203258729Y-42663398D01*
X205769989Y-42220595D01*
G37*
D20*
X212149848Y-44944120D03*
D19*
X217152671Y-44061987D03*
X207147025Y-45826253D03*
D17*
G36*
X218059532Y-37474433D02*
G01*
X218493652Y-39936452D01*
X215982392Y-40379255D01*
X215548272Y-37917236D01*
X218059532Y-37474433D01*
G37*
D18*
X207956664Y-43104308D03*
X213769127Y-39500230D03*
D13*
X217020962Y-38926844D03*
X204731419Y-43673006D03*
%TD*%
D17*
%TO.C,SW26*%
G36*
X223703577Y-34222450D02*
G01*
X224137697Y-36684469D01*
X221626437Y-37127272D01*
X221192317Y-34665253D01*
X223703577Y-34222450D01*
G37*
D20*
X230083436Y-36945975D03*
D19*
X235086259Y-36063842D03*
X225080613Y-37828108D03*
D17*
G36*
X235993120Y-29476288D02*
G01*
X236427240Y-31938307D01*
X233915980Y-32381110D01*
X233481860Y-29919091D01*
X235993120Y-29476288D01*
G37*
D18*
X225890252Y-35106163D03*
X231702715Y-31502085D03*
D13*
X234954550Y-30928699D03*
X222665007Y-35674861D03*
%TD*%
%TO.C,SW27*%
X245912321Y-41521027D03*
X258503003Y-37643701D03*
D18*
X255219092Y-37988854D03*
X249169380Y-41178696D03*
D17*
G36*
X259640358Y-36267275D02*
G01*
X259901679Y-38753580D01*
X257365648Y-39020127D01*
X257104327Y-36533822D01*
X259640358Y-36267275D01*
G37*
D19*
X248171840Y-43837533D03*
X258276182Y-42775523D03*
D20*
X253224011Y-43306528D03*
D17*
G36*
X247049676Y-40144601D02*
G01*
X247310997Y-42630906D01*
X244774966Y-42897453D01*
X244513645Y-40411148D01*
X247049676Y-40144601D01*
G37*
%TD*%
D35*
%TO.C,SW28*%
X270115000Y-49035000D03*
D20*
X277200000Y-51575000D03*
D19*
X282280000Y-51575000D03*
X272120000Y-51575000D03*
D35*
X283042000Y-46495000D03*
D18*
X273390000Y-49035000D03*
X279740000Y-46495000D03*
D13*
X283042000Y-46495000D03*
X270115000Y-49035000D03*
%TD*%
%TO.C,SW29*%
X171345241Y-73739736D03*
X183634784Y-68993574D03*
D18*
X180382949Y-69566960D03*
X174570486Y-73171038D03*
D17*
G36*
X184673354Y-67541163D02*
G01*
X185107474Y-70003182D01*
X182596214Y-70445985D01*
X182162094Y-67983966D01*
X184673354Y-67541163D01*
G37*
D19*
X173760847Y-75892983D03*
X183766493Y-74128717D03*
D20*
X178763670Y-75010850D03*
D17*
G36*
X172383811Y-72287325D02*
G01*
X172817931Y-74749344D01*
X170306671Y-75192147D01*
X169872551Y-72730128D01*
X172383811Y-72287325D01*
G37*
%TD*%
D13*
%TO.C,SW30*%
X189692329Y-68086665D03*
X201981872Y-63340503D03*
D18*
X198730037Y-63913889D03*
X192917574Y-67517967D03*
D17*
G36*
X203020442Y-61888092D02*
G01*
X203454562Y-64350111D01*
X200943302Y-64792914D01*
X200509182Y-62330895D01*
X203020442Y-61888092D01*
G37*
D19*
X192107935Y-70239912D03*
X202113581Y-68475646D03*
D20*
X197110758Y-69357779D03*
D17*
G36*
X190730899Y-66634254D02*
G01*
X191165019Y-69096273D01*
X188653759Y-69539076D01*
X188219639Y-67077057D01*
X190730899Y-66634254D01*
G37*
%TD*%
%TO.C,SW31*%
G36*
X209077987Y-60981183D02*
G01*
X209512107Y-63443202D01*
X207000847Y-63886005D01*
X206566727Y-61423986D01*
X209077987Y-60981183D01*
G37*
D20*
X215457846Y-63704708D03*
D19*
X220460669Y-62822575D03*
X210455023Y-64586841D03*
D17*
G36*
X221367530Y-56235021D02*
G01*
X221801650Y-58697040D01*
X219290390Y-59139843D01*
X218856270Y-56677824D01*
X221367530Y-56235021D01*
G37*
D18*
X211264662Y-61864896D03*
X217077125Y-58260818D03*
D13*
X220328960Y-57687432D03*
X208039417Y-62433594D03*
%TD*%
%TO.C,SW32*%
X225973005Y-54435449D03*
X238262548Y-49689287D03*
D18*
X235010713Y-50262673D03*
X229198250Y-53866751D03*
D17*
G36*
X239301118Y-48236876D02*
G01*
X239735238Y-50698895D01*
X237223978Y-51141698D01*
X236789858Y-48679679D01*
X239301118Y-48236876D01*
G37*
D19*
X228388611Y-56588696D03*
X238394257Y-54824430D03*
D20*
X233391434Y-55706563D03*
D17*
G36*
X227011575Y-52983038D02*
G01*
X227445695Y-55445057D01*
X224934435Y-55887860D01*
X224500315Y-53425841D01*
X227011575Y-52983038D01*
G37*
%TD*%
%TO.C,SW33*%
G36*
X249040944Y-59090243D02*
G01*
X249302265Y-61576548D01*
X246766234Y-61843095D01*
X246504913Y-59356790D01*
X249040944Y-59090243D01*
G37*
D20*
X255215279Y-62252170D03*
D19*
X260267450Y-61721165D03*
X250163108Y-62783175D03*
D17*
G36*
X261631626Y-55212917D02*
G01*
X261892947Y-57699222D01*
X259356916Y-57965769D01*
X259095595Y-55479464D01*
X261631626Y-55212917D01*
G37*
D18*
X251160648Y-60124338D03*
X257210360Y-56934496D03*
D13*
X260494271Y-56589343D03*
X247903589Y-60466669D03*
%TD*%
%TO.C,SW34*%
X270115000Y-68085000D03*
X283042000Y-65545000D03*
D18*
X279740000Y-65545000D03*
X273390000Y-68085000D03*
D35*
X283042000Y-65545000D03*
D19*
X272120000Y-70625000D03*
X282280000Y-70625000D03*
D20*
X277200000Y-70625000D03*
D35*
X270115000Y-68085000D03*
%TD*%
%TO.C,SW35*%
X289165000Y-63322500D03*
D20*
X296250000Y-65862500D03*
D19*
X301330000Y-65862500D03*
X291170000Y-65862500D03*
D35*
X302092000Y-60782500D03*
D18*
X292440000Y-63322500D03*
X298790000Y-60782500D03*
D13*
X302092000Y-60782500D03*
X289165000Y-63322500D03*
%TD*%
%TO.C,SW37*%
X193000327Y-86847253D03*
X205289870Y-82101091D03*
D18*
X202038035Y-82674477D03*
X196225572Y-86278555D03*
D17*
G36*
X206328440Y-80648680D02*
G01*
X206762560Y-83110699D01*
X204251300Y-83553502D01*
X203817180Y-81091483D01*
X206328440Y-80648680D01*
G37*
D19*
X195415933Y-89000500D03*
X205421579Y-87236234D03*
D20*
X200418756Y-88118367D03*
D17*
G36*
X194038897Y-85394842D02*
G01*
X194473017Y-87856861D01*
X191961757Y-88299664D01*
X191527637Y-85837645D01*
X194038897Y-85394842D01*
G37*
%TD*%
%TO.C,SW38*%
G36*
X212385985Y-79741770D02*
G01*
X212820105Y-82203789D01*
X210308845Y-82646592D01*
X209874725Y-80184573D01*
X212385985Y-79741770D01*
G37*
D20*
X218765844Y-82465295D03*
D19*
X223768667Y-81583162D03*
X213763021Y-83347428D03*
D17*
G36*
X224675528Y-74995608D02*
G01*
X225109648Y-77457627D01*
X222598388Y-77900430D01*
X222164268Y-75438411D01*
X224675528Y-74995608D01*
G37*
D18*
X214572660Y-80625483D03*
X220385123Y-77021405D03*
D13*
X223636958Y-76448019D03*
X211347415Y-81194181D03*
%TD*%
%TO.C,SW39*%
X229281003Y-73196037D03*
X241570546Y-68449875D03*
D18*
X238318711Y-69023261D03*
X232506248Y-72627339D03*
D17*
G36*
X242609116Y-66997464D02*
G01*
X243043236Y-69459483D01*
X240531976Y-69902286D01*
X240097856Y-67440267D01*
X242609116Y-66997464D01*
G37*
D19*
X231696609Y-75349284D03*
X241702255Y-73585018D03*
D20*
X236699432Y-74467151D03*
D17*
G36*
X230319573Y-71743626D02*
G01*
X230753693Y-74205645D01*
X228242433Y-74648448D01*
X227808313Y-72186429D01*
X230319573Y-71743626D01*
G37*
%TD*%
%TO.C,SW40*%
G36*
X251032211Y-78035885D02*
G01*
X251293532Y-80522190D01*
X248757501Y-80788737D01*
X248496180Y-78302432D01*
X251032211Y-78035885D01*
G37*
D20*
X257206546Y-81197812D03*
D19*
X262258717Y-80666807D03*
X252154375Y-81728817D03*
D17*
G36*
X263622893Y-74158559D02*
G01*
X263884214Y-76644864D01*
X261348183Y-76911411D01*
X261086862Y-74425106D01*
X263622893Y-74158559D01*
G37*
D18*
X253151915Y-79069980D03*
X259201627Y-75880138D03*
D13*
X262485538Y-75534985D03*
X249894856Y-79412311D03*
%TD*%
%TO.C,SW41*%
X270115000Y-87135000D03*
X283042000Y-84595000D03*
D18*
X279740000Y-84595000D03*
X273390000Y-87135000D03*
D35*
X283042000Y-84595000D03*
D19*
X272120000Y-89675000D03*
X282280000Y-89675000D03*
D20*
X277200000Y-89675000D03*
D35*
X270115000Y-87135000D03*
%TD*%
%TO.C,SW42*%
X289165000Y-82372500D03*
D20*
X296250000Y-84912500D03*
D19*
X301330000Y-84912500D03*
X291170000Y-84912500D03*
D35*
X302092000Y-79832500D03*
D18*
X292440000Y-82372500D03*
X298790000Y-79832500D03*
D13*
X302092000Y-79832500D03*
X289165000Y-82372500D03*
%TD*%
D17*
%TO.C,SW44*%
G36*
X198640809Y-106037747D02*
G01*
X199413351Y-108415388D01*
X196988157Y-109203381D01*
X196215615Y-106825740D01*
X198640809Y-106037747D01*
G37*
D20*
X205337622Y-107846862D03*
D19*
X210168989Y-106277056D03*
X200506255Y-109416668D03*
D17*
G36*
X210150214Y-99627401D02*
G01*
X210922756Y-102005042D01*
X208497562Y-102793035D01*
X207725020Y-100415394D01*
X210150214Y-99627401D01*
G37*
D18*
X200929194Y-106608533D03*
X206183499Y-102230592D03*
D13*
X209323888Y-101210218D03*
X197814483Y-107620564D03*
%TD*%
%TO.C,SW45*%
X217647688Y-101656882D03*
X229937231Y-96910720D03*
D18*
X226685396Y-97484106D03*
X220872933Y-101088184D03*
D17*
G36*
X230975801Y-95458309D02*
G01*
X231409921Y-97920328D01*
X228898661Y-98363131D01*
X228464541Y-95901112D01*
X230975801Y-95458309D01*
G37*
D19*
X220063294Y-103810129D03*
X230068940Y-102045863D03*
D20*
X225066117Y-102927996D03*
D17*
G36*
X218686258Y-100204471D02*
G01*
X219120378Y-102666490D01*
X216609118Y-103109293D01*
X216174998Y-100647274D01*
X218686258Y-100204471D01*
G37*
%TD*%
%TO.C,SW46*%
G36*
X204527583Y-124155373D02*
G01*
X205300125Y-126533014D01*
X202874931Y-127321007D01*
X202102389Y-124943366D01*
X204527583Y-124155373D01*
G37*
D20*
X211224396Y-125964488D03*
D19*
X216055763Y-124394682D03*
X206393029Y-127534294D03*
D17*
G36*
X216036988Y-117745027D02*
G01*
X216809530Y-120122668D01*
X214384336Y-120910661D01*
X213611794Y-118533020D01*
X216036988Y-117745027D01*
G37*
D18*
X206815968Y-124726159D03*
X212070273Y-120348218D03*
D13*
X215210662Y-119327844D03*
X203701257Y-125738190D03*
%TD*%
D36*
%TO.C,Y1*%
X173425000Y-126840000D03*
X170525000Y-126840000D03*
X170525000Y-124640000D03*
X173425000Y-124640000D03*
%TD*%
M02*
