%TF.GenerationSoftware,KiCad,Pcbnew,(5.1.7)-1*%
%TF.CreationDate,2020-11-12T22:52:03+09:00*%
%TF.ProjectId,yacc46,79616363-3436-42e6-9b69-6361645f7063,rev?*%
%TF.SameCoordinates,Original*%
%TF.FileFunction,Soldermask,Top*%
%TF.FilePolarity,Negative*%
%FSLAX46Y46*%
G04 Gerber Fmt 4.6, Leading zero omitted, Abs format (unit mm)*
G04 Created by KiCad (PCBNEW (5.1.7)-1) date 2020-11-12 22:52:03*
%MOMM*%
%LPD*%
G01*
G04 APERTURE LIST*
%ADD10C,0.750000*%
%ADD11R,0.260000X0.650000*%
%ADD12R,2.300000X0.250000*%
%ADD13R,0.850000X0.230000*%
%ADD14C,0.600000*%
%ADD15R,0.850000X0.460000*%
%ADD16O,2.300000X1.200000*%
%ADD17C,3.000000*%
%ADD18C,1.900000*%
%ADD19C,4.100000*%
%ADD20C,1.600000*%
%ADD21R,1.600000X1.600000*%
%ADD22C,2.400000*%
%ADD23C,3.987800*%
%ADD24C,2.000000*%
%ADD25C,0.100000*%
%ADD26C,2.200000*%
%ADD27C,4.300000*%
%ADD28O,1.700000X1.700000*%
%ADD29C,1.700000*%
%ADD30R,1.350000X1.350000*%
%ADD31O,1.350000X1.350000*%
G04 APERTURE END LIST*
D10*
%TO.C,SW47*%
X184130000Y-131700000D03*
X184130000Y-133500000D03*
%TD*%
D11*
%TO.C,J1*%
X25670000Y-56850000D03*
X27710000Y-56850000D03*
D12*
X26690000Y-56650000D03*
D11*
X25670000Y-46460000D03*
D13*
X32215000Y-48280000D03*
D14*
X31290000Y-49680000D03*
X31290000Y-50480000D03*
X31290000Y-51280000D03*
X31290000Y-52080000D03*
X31290000Y-52880000D03*
X31290000Y-53680000D03*
D15*
X32215000Y-47765000D03*
D13*
X32215000Y-48680000D03*
X32215000Y-49080000D03*
X32215000Y-49480000D03*
X32215000Y-49880000D03*
X32215000Y-50280000D03*
X32215000Y-50680000D03*
X32215000Y-51080000D03*
X32215000Y-51480000D03*
X32215000Y-51880000D03*
X32215000Y-52280000D03*
X32215000Y-52680000D03*
X32215000Y-53080000D03*
X32215000Y-53480000D03*
X32215000Y-53880000D03*
X32215000Y-54280000D03*
X32215000Y-54680000D03*
X32215000Y-55080000D03*
D15*
X32215000Y-55595000D03*
D16*
X31740000Y-46130000D03*
X31740000Y-57230000D03*
X26690000Y-46130000D03*
X26690000Y-57230000D03*
D12*
X26690000Y-46710000D03*
D11*
X27710000Y-46460000D03*
%TD*%
D14*
%TO.C,SW43*%
X179004278Y-116286457D03*
X189509526Y-108336696D03*
D17*
X186541708Y-109784198D03*
X181947829Y-114850791D03*
D18*
X181919823Y-117690459D03*
X191051571Y-113236609D03*
D19*
X186485697Y-115463534D03*
%TD*%
D20*
%TO.C,J2*%
X161190000Y-55430000D03*
X163730000Y-55430000D03*
X166270000Y-55430000D03*
D21*
X168810000Y-55430000D03*
%TD*%
D22*
%TO.C,SW36*%
X183690947Y-88327548D03*
D23*
X182071668Y-93771438D03*
D22*
X177878484Y-91931626D03*
D24*
X177068845Y-94653571D03*
X187074491Y-92889305D03*
D25*
G36*
X182070466Y-102402777D02*
G01*
X180100850Y-102750073D01*
X179753554Y-100780457D01*
X181723170Y-100433161D01*
X182070466Y-102402777D01*
G37*
D24*
X183374029Y-101157496D03*
X185836049Y-100723376D03*
G36*
G01*
X176834582Y-96319561D02*
X176834582Y-96319561D01*
G75*
G02*
X175676126Y-95508401I-173648J984808D01*
G01*
X175467748Y-94326631D01*
G75*
G02*
X176278908Y-93168175I984808J173648D01*
G01*
X176278908Y-93168175D01*
G75*
G02*
X177437364Y-93979335I173648J-984808D01*
G01*
X177645742Y-95161105D01*
G75*
G02*
X176834582Y-96319561I-984808J-173648D01*
G01*
G37*
G36*
G01*
X187864428Y-94374701D02*
X187864428Y-94374701D01*
G75*
G02*
X186705972Y-93563541I-173648J984808D01*
G01*
X186497594Y-92381771D01*
G75*
G02*
X187308754Y-91223315I984808J173648D01*
G01*
X187308754Y-91223315D01*
G75*
G02*
X188467210Y-92034475I173648J-984808D01*
G01*
X188675588Y-93216245D01*
G75*
G02*
X187864428Y-94374701I-984808J-173648D01*
G01*
G37*
X178394111Y-87311904D03*
X183318150Y-86443663D03*
%TD*%
D26*
%TO.C,HOLE15*%
X178000000Y-60100000D03*
%TD*%
%TO.C,HOLE14*%
X152000000Y-60100000D03*
%TD*%
D27*
%TO.C,HOLE13*%
X164980000Y-80100000D03*
%TD*%
%TO.C,HOLE12*%
X198020001Y-133120000D03*
%TD*%
%TO.C,HOLE11*%
X245380000Y-100610000D03*
%TD*%
%TO.C,HOLE10*%
X287360000Y-94900000D03*
%TD*%
%TO.C,HOLE9*%
X290240000Y-43680000D03*
%TD*%
%TO.C,HOLE8*%
X243660000Y-32080000D03*
%TD*%
%TO.C,HOLE7*%
X188010000Y-31840000D03*
%TD*%
%TO.C,HOLE6*%
X141990000Y-31840000D03*
%TD*%
%TO.C,HOLE5*%
X86340000Y-32080000D03*
%TD*%
%TO.C,HOLE4*%
X39760000Y-43680000D03*
%TD*%
%TO.C,HOLE3*%
X42640000Y-94900000D03*
%TD*%
%TO.C,HOLE2*%
X84620000Y-100610000D03*
%TD*%
%TO.C,HOLE1*%
X131979999Y-133120000D03*
%TD*%
D28*
%TO.C,J3*%
X131290000Y-27938600D03*
X128750000Y-27481400D03*
X126210000Y-27938600D03*
X123670000Y-27481400D03*
X121130000Y-27938600D03*
D29*
X118590000Y-27481400D03*
%TD*%
D30*
%TO.C,J4*%
X205640000Y-34070000D03*
D31*
X203640000Y-34070000D03*
X201640000Y-34070000D03*
X199640000Y-34070000D03*
%TD*%
D14*
%TO.C,SW1*%
X45715000Y-49035000D03*
X58642000Y-46495000D03*
D17*
X55340000Y-46495000D03*
X48990000Y-49035000D03*
D18*
X47720000Y-51575000D03*
X57880000Y-51575000D03*
D19*
X52800000Y-51575000D03*
%TD*%
%TO.C,SW2*%
X76775989Y-43306528D03*
D18*
X81828160Y-43837533D03*
X71723818Y-42775523D03*
D17*
X73252363Y-40382189D03*
X79833079Y-38519859D03*
D14*
X83116991Y-38865012D03*
X69995304Y-40039858D03*
%TD*%
D19*
%TO.C,SW3*%
X99916564Y-36945975D03*
D18*
X104919387Y-37828108D03*
X94913741Y-36063842D03*
D17*
X96605513Y-33782964D03*
X103300108Y-32384218D03*
D14*
X106551944Y-32957604D03*
X93380267Y-33214266D03*
%TD*%
%TO.C,SW4*%
X111313855Y-41212411D03*
X124485532Y-40955749D03*
D17*
X121233696Y-40382363D03*
X114539101Y-41781109D03*
D18*
X112847329Y-44061987D03*
X122852975Y-45826253D03*
D19*
X117850152Y-44944120D03*
%TD*%
%TO.C,SW5*%
X136197240Y-50597191D03*
D18*
X141200063Y-51479324D03*
X131194417Y-49715058D03*
D17*
X132886189Y-47434180D03*
X139580784Y-46035434D03*
D14*
X142832620Y-46608820D03*
X129660943Y-46865482D03*
%TD*%
%TO.C,SW6*%
X26665000Y-63322500D03*
X39592000Y-60782500D03*
D17*
X36290000Y-60782500D03*
X29940000Y-63322500D03*
D18*
X28670000Y-65862500D03*
X38830000Y-65862500D03*
D19*
X33750000Y-65862500D03*
%TD*%
D14*
%TO.C,SW7*%
X45715000Y-68085000D03*
X58642000Y-65545000D03*
D17*
X55340000Y-65545000D03*
X48990000Y-68085000D03*
D18*
X47720000Y-70625000D03*
X57880000Y-70625000D03*
D19*
X52800000Y-70625000D03*
%TD*%
D14*
%TO.C,SW8*%
X68004036Y-58985500D03*
X81125723Y-57810654D03*
D17*
X77841811Y-57465501D03*
X71261095Y-59327831D03*
D18*
X69732550Y-61721165D03*
X79836892Y-62783175D03*
D19*
X74784721Y-62252170D03*
%TD*%
%TO.C,SW9*%
X96608566Y-55706563D03*
D18*
X101611389Y-56588696D03*
X91605743Y-54824430D03*
D17*
X93297515Y-52543552D03*
X99992110Y-51144806D03*
D14*
X103243946Y-51718192D03*
X90072269Y-51974854D03*
%TD*%
D19*
%TO.C,SW10*%
X114542154Y-63704708D03*
D18*
X119544977Y-64586841D03*
X109539331Y-62822575D03*
D17*
X111231103Y-60541697D03*
X117925698Y-59142951D03*
D14*
X121177534Y-59716337D03*
X108005857Y-59972999D03*
%TD*%
D19*
%TO.C,SW11*%
X132889242Y-69357779D03*
D18*
X137892065Y-70239912D03*
X127886419Y-68475646D03*
D17*
X129578191Y-66194768D03*
X136272786Y-64796022D03*
D14*
X139524622Y-65369408D03*
X126352945Y-65626070D03*
%TD*%
%TO.C,SW12*%
X144700033Y-71279141D03*
X157871710Y-71022479D03*
D17*
X154619874Y-70449093D03*
X147925279Y-71847839D03*
D18*
X146233507Y-74128717D03*
X156239153Y-75892983D03*
D19*
X151236330Y-75010850D03*
%TD*%
%TO.C,SW13*%
X33750000Y-84912500D03*
D18*
X38830000Y-84912500D03*
X28670000Y-84912500D03*
D17*
X29940000Y-82372500D03*
X36290000Y-79832500D03*
D14*
X39592000Y-79832500D03*
X26665000Y-82372500D03*
%TD*%
%TO.C,SW14*%
X45715000Y-87135000D03*
X58642000Y-84595000D03*
D17*
X55340000Y-84595000D03*
X48990000Y-87135000D03*
D18*
X47720000Y-89675000D03*
X57880000Y-89675000D03*
D19*
X52800000Y-89675000D03*
%TD*%
%TO.C,SW15*%
X72793454Y-81197812D03*
D18*
X77845625Y-81728817D03*
X67741283Y-80666807D03*
D17*
X69269828Y-78273473D03*
X75850544Y-76411143D03*
D14*
X79134456Y-76756296D03*
X66012769Y-77931142D03*
%TD*%
%TO.C,SW16*%
X86764271Y-70735442D03*
X99935948Y-70478780D03*
D17*
X96684112Y-69905394D03*
X89989517Y-71304140D03*
D18*
X88297745Y-73585018D03*
X98303391Y-75349284D03*
D19*
X93300568Y-74467151D03*
%TD*%
%TO.C,SW17*%
X111234156Y-82465295D03*
D18*
X116236979Y-83347428D03*
X106231333Y-81583162D03*
D17*
X107923105Y-79302284D03*
X114617700Y-77903538D03*
D14*
X117869536Y-78476924D03*
X104697859Y-78733586D03*
%TD*%
%TO.C,SW18*%
X123044947Y-84386658D03*
X136216624Y-84129996D03*
D17*
X132964788Y-83556610D03*
X126270193Y-84955356D03*
D18*
X124578421Y-87236234D03*
X134584067Y-89000500D03*
D19*
X129581244Y-88118367D03*
%TD*%
D24*
%TO.C,SW19*%
X151605889Y-87311904D03*
X146681850Y-86443663D03*
G36*
G01*
X153165418Y-96319561D02*
X153165418Y-96319561D01*
G75*
G02*
X152354258Y-95161105I173648J984808D01*
G01*
X152562636Y-93979335D01*
G75*
G02*
X153721092Y-93168175I984808J-173648D01*
G01*
X153721092Y-93168175D01*
G75*
G02*
X154532252Y-94326631I-173648J-984808D01*
G01*
X154323874Y-95508401D01*
G75*
G02*
X153165418Y-96319561I-984808J173648D01*
G01*
G37*
G36*
G01*
X142135572Y-94374701D02*
X142135572Y-94374701D01*
G75*
G02*
X141324412Y-93216245I173648J984808D01*
G01*
X141532790Y-92034475D01*
G75*
G02*
X142691246Y-91223315I984808J-173648D01*
G01*
X142691246Y-91223315D01*
G75*
G02*
X143502406Y-92381771I-173648J-984808D01*
G01*
X143294028Y-93563541D01*
G75*
G02*
X142135572Y-94374701I-984808J173648D01*
G01*
G37*
X149087990Y-101591617D03*
X146625971Y-101157496D03*
D25*
G36*
X144975111Y-101881832D02*
G01*
X143005495Y-101534536D01*
X143352791Y-99564920D01*
X145322407Y-99912216D01*
X144975111Y-101881832D01*
G37*
D24*
X152931155Y-94653571D03*
X142925509Y-92889305D03*
D22*
X144617281Y-90608427D03*
D23*
X147928332Y-93771438D03*
D22*
X151311876Y-89209681D03*
%TD*%
D19*
%TO.C,SW20*%
X104933883Y-102927996D03*
D18*
X109936706Y-103810129D03*
X99931060Y-102045863D03*
D17*
X101622832Y-99764985D03*
X108317427Y-98366239D03*
D14*
X111569263Y-98939625D03*
X98397586Y-99196287D03*
%TD*%
%TO.C,SW21*%
X118709046Y-103241793D03*
X131788256Y-104820772D03*
D17*
X128647868Y-103800398D03*
X121823756Y-104253824D03*
D18*
X119831011Y-106277056D03*
X129493745Y-109416668D03*
D19*
X124662378Y-107846862D03*
%TD*%
%TO.C,SW22*%
X143514303Y-115463534D03*
D18*
X148080177Y-117690459D03*
X138948429Y-113236609D03*
D17*
X141203360Y-111510403D03*
X148024165Y-112011123D03*
D14*
X150991983Y-113458624D03*
X138259810Y-110074738D03*
%TD*%
%TO.C,SW23*%
X112822272Y-121359419D03*
X125901482Y-122938398D03*
D17*
X122761094Y-121918024D03*
X115936982Y-122371450D03*
D18*
X113944237Y-124394682D03*
X123606971Y-127534294D03*
D19*
X118775604Y-125964488D03*
%TD*%
D14*
%TO.C,SW24*%
X186384331Y-49326077D03*
X198673874Y-44579915D03*
D17*
X195422039Y-45153301D03*
X189609576Y-48757379D03*
D18*
X188799937Y-51479324D03*
X198805583Y-49715058D03*
D19*
X193802760Y-50597191D03*
%TD*%
%TO.C,SW25*%
X212149848Y-44944120D03*
D18*
X217152671Y-44061987D03*
X207147025Y-45826253D03*
D17*
X207956664Y-43104308D03*
X213769127Y-39500230D03*
D14*
X217020962Y-38926844D03*
X204731419Y-43673006D03*
%TD*%
D19*
%TO.C,SW26*%
X230083436Y-36945975D03*
D18*
X235086259Y-36063842D03*
X225080613Y-37828108D03*
D17*
X225890252Y-35106163D03*
X231702715Y-31502085D03*
D14*
X234954550Y-30928699D03*
X222665007Y-35674861D03*
%TD*%
%TO.C,SW27*%
X245912321Y-41521027D03*
X258503003Y-37643701D03*
D17*
X255219092Y-37988854D03*
X249169380Y-41178696D03*
D18*
X248171840Y-43837533D03*
X258276182Y-42775523D03*
D19*
X253224011Y-43306528D03*
%TD*%
%TO.C,SW28*%
X277200000Y-51575000D03*
D18*
X282280000Y-51575000D03*
X272120000Y-51575000D03*
D17*
X273390000Y-49035000D03*
X279740000Y-46495000D03*
D14*
X283042000Y-46495000D03*
X270115000Y-49035000D03*
%TD*%
%TO.C,SW29*%
X171345241Y-73739736D03*
X183634784Y-68993574D03*
D17*
X180382949Y-69566960D03*
X174570486Y-73171038D03*
D18*
X173760847Y-75892983D03*
X183766493Y-74128717D03*
D19*
X178763670Y-75010850D03*
%TD*%
D14*
%TO.C,SW30*%
X189692329Y-68086665D03*
X201981872Y-63340503D03*
D17*
X198730037Y-63913889D03*
X192917574Y-67517967D03*
D18*
X192107935Y-70239912D03*
X202113581Y-68475646D03*
D19*
X197110758Y-69357779D03*
%TD*%
%TO.C,SW31*%
X215457846Y-63704708D03*
D18*
X220460669Y-62822575D03*
X210455023Y-64586841D03*
D17*
X211264662Y-61864896D03*
X217077125Y-58260818D03*
D14*
X220328960Y-57687432D03*
X208039417Y-62433594D03*
%TD*%
%TO.C,SW32*%
X225973005Y-54435449D03*
X238262548Y-49689287D03*
D17*
X235010713Y-50262673D03*
X229198250Y-53866751D03*
D18*
X228388611Y-56588696D03*
X238394257Y-54824430D03*
D19*
X233391434Y-55706563D03*
%TD*%
%TO.C,SW33*%
X255215279Y-62252170D03*
D18*
X260267450Y-61721165D03*
X250163108Y-62783175D03*
D17*
X251160648Y-60124338D03*
X257210360Y-56934496D03*
D14*
X260494271Y-56589343D03*
X247903589Y-60466669D03*
%TD*%
%TO.C,SW34*%
X270115000Y-68085000D03*
X283042000Y-65545000D03*
D17*
X279740000Y-65545000D03*
X273390000Y-68085000D03*
D18*
X272120000Y-70625000D03*
X282280000Y-70625000D03*
D19*
X277200000Y-70625000D03*
%TD*%
%TO.C,SW35*%
X296250000Y-65862500D03*
D18*
X301330000Y-65862500D03*
X291170000Y-65862500D03*
D17*
X292440000Y-63322500D03*
X298790000Y-60782500D03*
D14*
X302092000Y-60782500D03*
X289165000Y-63322500D03*
%TD*%
%TO.C,SW37*%
X193000327Y-86847253D03*
X205289870Y-82101091D03*
D17*
X202038035Y-82674477D03*
X196225572Y-86278555D03*
D18*
X195415933Y-89000500D03*
X205421579Y-87236234D03*
D19*
X200418756Y-88118367D03*
%TD*%
%TO.C,SW38*%
X218765844Y-82465295D03*
D18*
X223768667Y-81583162D03*
X213763021Y-83347428D03*
D17*
X214572660Y-80625483D03*
X220385123Y-77021405D03*
D14*
X223636958Y-76448019D03*
X211347415Y-81194181D03*
%TD*%
%TO.C,SW39*%
X229281003Y-73196037D03*
X241570546Y-68449875D03*
D17*
X238318711Y-69023261D03*
X232506248Y-72627339D03*
D18*
X231696609Y-75349284D03*
X241702255Y-73585018D03*
D19*
X236699432Y-74467151D03*
%TD*%
%TO.C,SW40*%
X257206546Y-81197812D03*
D18*
X262258717Y-80666807D03*
X252154375Y-81728817D03*
D17*
X253151915Y-79069980D03*
X259201627Y-75880138D03*
D14*
X262485538Y-75534985D03*
X249894856Y-79412311D03*
%TD*%
%TO.C,SW41*%
X270115000Y-87135000D03*
X283042000Y-84595000D03*
D17*
X279740000Y-84595000D03*
X273390000Y-87135000D03*
D18*
X272120000Y-89675000D03*
X282280000Y-89675000D03*
D19*
X277200000Y-89675000D03*
%TD*%
%TO.C,SW42*%
X296250000Y-84912500D03*
D18*
X301330000Y-84912500D03*
X291170000Y-84912500D03*
D17*
X292440000Y-82372500D03*
X298790000Y-79832500D03*
D14*
X302092000Y-79832500D03*
X289165000Y-82372500D03*
%TD*%
D19*
%TO.C,SW44*%
X205337622Y-107846862D03*
D18*
X210168989Y-106277056D03*
X200506255Y-109416668D03*
D17*
X200929194Y-106608533D03*
X206183499Y-102230592D03*
D14*
X209323888Y-101210218D03*
X197814483Y-107620564D03*
%TD*%
%TO.C,SW45*%
X217647688Y-101656882D03*
X229937231Y-96910720D03*
D17*
X226685396Y-97484106D03*
X220872933Y-101088184D03*
D18*
X220063294Y-103810129D03*
X230068940Y-102045863D03*
D19*
X225066117Y-102927996D03*
%TD*%
%TO.C,SW46*%
X211224396Y-125964488D03*
D18*
X216055763Y-124394682D03*
X206393029Y-127534294D03*
D17*
X206815968Y-124726159D03*
X212070273Y-120348218D03*
D14*
X215210662Y-119327844D03*
X203701257Y-125738190D03*
%TD*%
M02*
