M48
; DRILL file {KiCad (5.1.7)-1} date 11/12/20 22:52:55
; FORMAT={-:-/ absolute / metric / decimal}
; #@! TF.CreationDate,2020-11-12T22:52:55+09:00
; #@! TF.GenerationSoftware,Kicad,Pcbnew,(5.1.7)-1
; #@! TF.FileFunction,NonPlated,1,2,NPTH
FMAT,2
METRIC
T1C0.750
T2C1.900
T3C2.200
T4C3.000
T5C3.988
T6C4.100
T7C4.300
%
G90
G05
T1
X184.13Y-131.7
X184.13Y-133.5
T2
X69.733Y-61.721
X79.837Y-62.783
X71.724Y-42.776
X81.828Y-43.838
X225.081Y-37.828
X235.086Y-36.064
X248.172Y-43.838
X258.276Y-42.776
X207.147Y-45.826
X217.153Y-44.062
X220.063Y-103.81
X230.069Y-102.046
X146.234Y-74.129
X156.239Y-75.893
X231.697Y-75.349
X241.702Y-73.585
X138.948Y-113.237
X148.08Y-117.69
X252.154Y-81.729
X262.259Y-80.667
X28.67Y-84.912
X38.83Y-84.912
X200.506Y-109.417
X210.169Y-106.277
X99.931Y-102.046
X109.937Y-103.81
X47.72Y-70.625
X57.88Y-70.625
X192.108Y-70.24
X202.114Y-68.476
X188.8Y-51.479
X198.806Y-49.715
X210.455Y-64.587
X220.461Y-62.823
X91.606Y-54.824
X101.611Y-56.589
X124.578Y-87.236
X134.584Y-89.001
X291.17Y-65.862
X301.33Y-65.862
X113.944Y-124.395
X123.607Y-127.534
X291.17Y-84.912
X301.33Y-84.912
X88.298Y-73.585
X98.303Y-75.349
X47.72Y-51.575
X57.88Y-51.575
X131.194Y-49.715
X141.2Y-51.479
X272.12Y-89.675
X282.28Y-89.675
X106.231Y-81.583
X116.237Y-83.347
X250.163Y-62.783
X260.267Y-61.721
X119.831Y-106.277
X129.494Y-109.417
X195.416Y-89.001
X205.422Y-87.236
X28.67Y-65.862
X38.83Y-65.862
X112.847Y-44.062
X122.853Y-45.826
X228.389Y-56.589
X238.394Y-54.824
X67.741Y-80.667
X77.846Y-81.729
X213.763Y-83.347
X223.769Y-81.583
X47.72Y-89.675
X57.88Y-89.675
X272.12Y-51.575
X282.28Y-51.575
X94.914Y-36.064
X104.919Y-37.828
X173.761Y-75.893
X183.766Y-74.129
X127.886Y-68.476
X137.892Y-70.24
X206.393Y-127.534
X216.056Y-124.395
X109.539Y-62.823
X119.545Y-64.587
X272.12Y-70.625
X282.28Y-70.625
X181.92Y-117.69
X191.052Y-113.237
T3
X178.0Y-60.1
X152.0Y-60.1
T4
X141.203Y-111.51
X148.024Y-112.011
X253.152Y-79.07
X259.202Y-75.88
X29.94Y-82.373
X36.29Y-79.832
X200.929Y-106.609
X206.183Y-102.231
X101.623Y-99.765
X108.317Y-98.366
X48.99Y-68.085
X55.34Y-65.545
X192.918Y-67.518
X198.73Y-63.914
X189.61Y-48.757
X195.422Y-45.153
X211.265Y-61.865
X217.077Y-58.261
X93.298Y-52.544
X99.992Y-51.145
X126.27Y-84.955
X132.965Y-83.557
X292.44Y-63.322
X298.79Y-60.782
X115.937Y-122.371
X122.761Y-121.918
X292.44Y-82.373
X298.79Y-79.832
X89.99Y-71.304
X96.684Y-69.905
X48.99Y-49.035
X55.34Y-46.495
X132.886Y-47.434
X139.581Y-46.035
X273.39Y-87.135
X279.74Y-84.595
X107.923Y-79.302
X114.618Y-77.904
X251.161Y-60.124
X257.21Y-56.934
X121.824Y-104.254
X128.648Y-103.8
X196.226Y-86.279
X202.038Y-82.674
X29.94Y-63.322
X36.29Y-60.782
X114.539Y-41.781
X121.234Y-40.382
X229.198Y-53.867
X235.011Y-50.263
X69.27Y-78.273
X75.851Y-76.411
X214.573Y-80.625
X220.385Y-77.021
X48.99Y-87.135
X55.34Y-84.595
X273.39Y-49.035
X279.74Y-46.495
X96.606Y-33.783
X103.3Y-32.384
X174.57Y-73.171
X180.383Y-69.567
X129.578Y-66.195
X136.273Y-64.796
X206.816Y-124.726
X212.07Y-120.348
X111.231Y-60.542
X117.926Y-59.143
X273.39Y-68.085
X279.74Y-65.545
X181.948Y-114.851
X186.542Y-109.784
X71.261Y-59.328
X77.842Y-57.466
X73.252Y-40.382
X79.833Y-38.52
X225.89Y-35.106
X231.703Y-31.502
X249.169Y-41.179
X255.219Y-37.989
X207.957Y-43.104
X213.769Y-39.5
X220.873Y-101.088
X226.685Y-97.484
X147.925Y-71.848
X154.62Y-70.449
X232.506Y-72.627
X238.319Y-69.023
T5
X182.072Y-93.771
X147.928Y-93.771
T6
X33.75Y-65.862
X117.85Y-44.944
X233.391Y-55.707
X72.793Y-81.198
X218.766Y-82.465
X52.8Y-89.675
X277.2Y-51.575
X99.917Y-36.946
X178.764Y-75.011
X132.889Y-69.358
X211.224Y-125.964
X114.542Y-63.705
X277.2Y-70.625
X186.486Y-115.464
X74.785Y-62.252
X76.776Y-43.307
X230.083Y-36.946
X253.224Y-43.307
X212.15Y-44.944
X225.066Y-102.928
X151.236Y-75.011
X236.699Y-74.467
X143.514Y-115.464
X257.207Y-81.198
X33.75Y-84.912
X205.338Y-107.847
X104.934Y-102.928
X52.8Y-70.625
X197.111Y-69.358
X193.803Y-50.597
X215.458Y-63.705
X96.609Y-55.707
X129.581Y-88.118
X296.25Y-65.862
X118.776Y-125.964
X296.25Y-84.912
X93.301Y-74.467
X52.8Y-51.575
X136.197Y-50.597
X277.2Y-89.675
X111.234Y-82.465
X255.215Y-62.252
X124.662Y-107.847
X200.419Y-88.118
T7
X290.24Y-43.68
X198.02Y-133.12
X245.38Y-100.61
X287.36Y-94.9
X131.98Y-133.12
X243.66Y-32.08
X84.62Y-100.61
X164.98Y-80.1
X42.64Y-94.9
X86.34Y-32.08
X39.76Y-43.68
X188.01Y-31.84
X141.99Y-31.84
T0
M30
