M48
; DRILL file {KiCad (5.1.7)-1} date 11/12/20 22:52:55
; FORMAT={-:-/ absolute / metric / decimal}
; #@! TF.CreationDate,2020-11-12T22:52:55+09:00
; #@! TF.GenerationSoftware,Kicad,Pcbnew,(5.1.7)-1
; #@! TF.FileFunction,Plated,1,2,PTH
FMAT,2
METRIC
T1C0.300
T2C0.400
T3C0.600
T4C0.800
T5C1.000
T6C1.500
T7C1.600
T8C1.750
%
G90
G05
T1
X123.045Y-84.387
X136.217Y-84.13
X289.165Y-63.322
X302.092Y-60.782
X112.822Y-121.359
X125.901Y-122.938
X289.165Y-82.373
X302.092Y-79.832
X86.764Y-70.735
X99.936Y-70.479
X45.715Y-49.035
X58.642Y-46.495
X129.661Y-46.865
X142.833Y-46.609
X270.115Y-87.135
X283.042Y-84.595
X104.698Y-78.734
X117.87Y-78.477
X247.904Y-60.467
X260.494Y-56.589
X118.709Y-103.242
X131.788Y-104.821
X193.0Y-86.847
X205.29Y-82.101
X26.665Y-63.322
X39.592Y-60.782
X111.314Y-41.212
X124.486Y-40.956
X225.973Y-54.435
X238.263Y-49.689
X66.013Y-77.931
X79.134Y-76.756
X211.347Y-81.194
X223.637Y-76.448
X45.715Y-87.135
X58.642Y-84.595
X270.115Y-49.035
X283.042Y-46.495
X93.38Y-33.214
X106.552Y-32.958
X171.345Y-73.74
X183.635Y-68.994
X126.353Y-65.626
X139.525Y-65.369
X203.701Y-125.738
X215.211Y-119.328
X108.006Y-59.973
X121.178Y-59.716
X270.115Y-68.085
X283.042Y-65.545
X179.004Y-116.286
X189.51Y-108.337
X68.004Y-58.985
X81.126Y-57.811
X69.995Y-40.04
X83.117Y-38.865
X222.665Y-35.675
X234.955Y-30.929
X245.912Y-41.521
X258.503Y-37.644
X204.731Y-43.673
X217.021Y-38.927
X217.648Y-101.657
X229.937Y-96.911
X144.7Y-71.279
X157.872Y-71.022
X229.281Y-73.196
X241.571Y-68.45
X138.26Y-110.075
X150.992Y-113.459
X249.895Y-79.412
X262.486Y-75.535
X26.665Y-82.373
X39.592Y-79.832
X197.814Y-107.621
X209.324Y-101.21
X98.398Y-99.196
X111.569Y-98.94
X45.715Y-68.085
X58.642Y-65.545
X189.692Y-68.087
X201.982Y-63.341
X186.384Y-49.326
X198.674Y-44.58
X208.039Y-62.434
X220.329Y-57.687
X90.072Y-51.975
X103.244Y-51.718
T2
X26.86Y-91.25
X29.18Y-69.84
X30.82Y-87.34
X33.9Y-41.74
X34.045Y-51.135
X34.15Y-48.25
X34.81Y-53.81
X35.0Y-49.65
X36.36Y-51.46
X39.53Y-69.84
X41.28Y-55.28
X42.68Y-38.59
X43.15Y-78.97
X43.85Y-42.02
X44.06Y-59.03
X44.22Y-83.5
X50.25Y-36.4
X50.58Y-83.53
X50.6Y-74.545
X52.17Y-75.27
X53.13Y-59.03
X55.34Y-76.98
X56.5Y-80.77
X57.417Y-94.845
X57.62Y-35.09
X58.17Y-94.12
X58.62Y-42.52
X60.05Y-61.94
X60.99Y-55.94
X62.05Y-60.03
X62.755Y-60.844
X63.0Y-73.36
X63.29Y-84.77
X63.34Y-96.74
X64.01Y-91.51
X64.08Y-53.33
X64.7Y-33.91
X65.075Y-88.86
X65.66Y-58.67
X65.94Y-48.98
X67.09Y-83.11
X67.3Y-54.97
X67.71Y-43.9
X67.81Y-64.68
X68.06Y-53.11
X69.11Y-84.265
X69.39Y-69.76
X69.75Y-37.05
X71.6Y-54.27
X71.6Y-89.55
X73.17Y-32.87
X74.09Y-55.93
X80.79Y-96.53
X81.14Y-47.77
X81.18Y-53.53
X81.26Y-87.47
X81.26Y-91.31
X82.37Y-33.4
X83.09Y-69.85
X83.13Y-52.7
X84.83Y-58.97
X86.77Y-40.7
X87.53Y-45.32
X89.22Y-37.32
X89.3Y-29.56
X90.0Y-104.19
X90.19Y-41.48
X90.37Y-91.96
X91.03Y-44.12
X92.174Y-89.622
X92.827Y-88.865
X93.61Y-88.14
X93.62Y-30.98
X95.32Y-43.06
X95.76Y-80.98
X95.91Y-61.53
X96.65Y-45.92
X96.75Y-27.44
X100.39Y-30.82
X101.13Y-88.64
X101.9Y-65.45
X101.93Y-45.89
X102.12Y-112.44
X103.31Y-106.47
X103.58Y-94.99
X104.83Y-91.27
X105.61Y-27.47
X106.8Y-84.07
X107.652Y-44.676
X107.98Y-69.16
X108.35Y-43.96
X110.73Y-65.72
X111.12Y-30.97
X112.675Y-49.684
X113.32Y-48.92
X114.5Y-27.48
X115.65Y-108.4
X116.51Y-91.58
X116.53Y-87.96
X120.88Y-71.68
X120.96Y-118.45
X121.55Y-79.93
X122.24Y-96.92
X123.53Y-30.3
X125.03Y-32.86
X125.26Y-74.03
X125.55Y-113.86
X126.72Y-54.35
X128.32Y-61.28
X128.54Y-114.76
X128.57Y-119.1
X128.64Y-71.57
X128.75Y-94.72
X130.51Y-116.99
X132.72Y-39.45
X133.76Y-40.71
X134.33Y-124.49
X136.87Y-128.97
X137.53Y-34.65
X137.63Y-38.9
X140.28Y-120.53
X140.44Y-61.69
X140.976Y-126.375
X141.63Y-125.6
X143.04Y-57.57
X143.23Y-40.5
X143.23Y-41.5
X143.73Y-80.52
X144.3Y-95.69
X144.9Y-61.69
X144.99Y-119.21
X147.66Y-125.53
X149.04Y-106.05
X149.414Y-124.564
X151.218Y-124.813
X151.64Y-108.68
X151.808Y-124.006
X152.401Y-123.2
X153.02Y-122.415
X153.26Y-103.62
X153.26Y-105.99
X153.71Y-81.59
X153.762Y-121.672
X154.3Y-128.76
X155.46Y-108.68
X155.8Y-104.35
X156.13Y-30.7
X156.525Y-87.95
X156.795Y-104.245
X156.87Y-113.71
X157.642Y-117.791
X157.68Y-119.833
X157.698Y-118.79
X157.701Y-120.837
X157.705Y-121.858
X157.925Y-125.315
X158.293Y-104.794
X158.316Y-105.794
X158.44Y-60.29
X158.675Y-126.025
X158.82Y-96.97
X158.85Y-83.99
X159.193Y-47.615
X159.3Y-104.22
X159.8Y-111.18
X159.9Y-46.89
X160.35Y-135.17
X160.577Y-104.453
X160.68Y-101.17
X161.01Y-99.63
X161.768Y-81.862
X161.82Y-86.88
X161.91Y-103.62
X162.04Y-41.1
X162.35Y-111.69
X162.63Y-119.36
X163.98Y-115.6
X164.596Y-43.04
X165.064Y-84.086
X165.07Y-106.0
X165.29Y-43.76
X165.4Y-32.685
X165.44Y-108.63
X165.71Y-99.16
X165.73Y-120.38
X165.86Y-124.41
X165.86Y-126.86
X165.94Y-115.12
X167.62Y-119.17
X167.75Y-108.71
X167.76Y-100.75
X167.866Y-120.515
X168.06Y-99.19
X168.119Y-121.482
X168.18Y-111.88
X168.43Y-123.01
X168.49Y-128.175
X168.84Y-48.81
X169.8Y-117.66
X169.81Y-105.28
X169.99Y-111.92
X170.66Y-35.29
X171.08Y-105.32
X171.661Y-35.265
X171.86Y-101.775
X171.96Y-102.77
X172.015Y-51.29
X172.16Y-121.13
X172.704Y-35.284
X172.94Y-83.51
X173.065Y-51.29
X173.16Y-60.35
X173.81Y-52.7
X174.39Y-117.58
X174.65Y-135.23
X175.09Y-96.94
X175.09Y-108.87
X175.28Y-124.64
X175.29Y-49.56
X175.44Y-128.19
X175.62Y-120.275
X177.27Y-112.43
X177.93Y-43.77
X178.26Y-126.05
X178.27Y-81.49
X178.63Y-34.9
X180.55Y-124.89
X181.31Y-110.86
X183.06Y-62.77
X183.07Y-37.875
X183.516Y-129.536
X183.54Y-122.58
X183.76Y-38.63
X184.15Y-40.55
X184.59Y-55.78
X185.36Y-104.585
X186.75Y-40.55
X187.02Y-125.34
X187.28Y-62.13
X187.42Y-83.95
X187.64Y-79.71
X188.4Y-55.71
X189.17Y-123.23
X189.17Y-130.58
X190.52Y-79.09
X191.295Y-97.816
X192.02Y-97.12
X192.73Y-106.63
X192.745Y-97.848
X192.98Y-79.28
X193.1Y-59.24
X193.63Y-34.9
X194.194Y-118.163
X194.205Y-103.263
X194.93Y-103.96
X194.93Y-118.84
X195.17Y-98.94
X197.49Y-128.13
X198.41Y-114.23
X199.7Y-94.79
X199.89Y-122.955
X199.97Y-125.44
X200.13Y-115.36
X201.37Y-41.6
X201.47Y-119.87
X202.19Y-112.36
X204.09Y-51.88
X204.67Y-117.58
X204.7Y-120.01
X207.27Y-73.74
X207.38Y-51.88
X207.89Y-121.76
X208.2Y-114.11
X210.56Y-88.01
X211.29Y-67.68
X212.07Y-96.57
X216.05Y-47.6
X216.32Y-88.91
X217.16Y-111.05
X217.62Y-107.32
X218.21Y-116.02
X218.39Y-51.25
X218.58Y-119.43
X219.61Y-110.295
X221.08Y-116.23
X221.13Y-111.93
X222.04Y-44.03
X222.66Y-41.72
X225.61Y-67.68
X227.16Y-40.21
X229.89Y-60.43
X231.19Y-41.81
X231.63Y-93.68
X233.34Y-43.1
X234.29Y-41.19
X235.93Y-88.6
X236.67Y-80.89
X238.16Y-43.09
X239.1Y-40.55
X239.83Y-95.36
X243.43Y-88.66
X243.51Y-92.58
X246.82Y-70.66
X247.83Y-85.45
X249.52Y-48.35
X249.69Y-93.74
X249.69Y-96.585
X250.77Y-46.17
X251.91Y-64.74
X254.53Y-51.92
X254.96Y-92.96
X255.98Y-85.52
X257.84Y-98.61
X258.19Y-47.29
X258.72Y-86.35
X258.737Y-85.308
X259.95Y-92.54
X262.29Y-50.57
X262.76Y-86.33
X263.12Y-47.76
X263.83Y-92.82
X265.16Y-96.18
X265.62Y-54.31
X265.64Y-85.32
X265.65Y-59.92
X265.91Y-71.54
X266.345Y-59.165
X266.65Y-89.42
X267.09Y-93.32
X268.12Y-56.65
X268.88Y-71.57
X268.96Y-41.31
X270.09Y-81.38
X270.11Y-76.86
X273.15Y-59.52
X274.21Y-79.865
X276.64Y-78.95
X283.62Y-80.59
X284.02Y-87.5
X287.32Y-75.37
X290.51Y-91.19
X291.74Y-70.68
X31.29Y-49.68
X31.29Y-50.48
X31.29Y-51.28
X31.29Y-52.08
X31.29Y-52.88
X31.29Y-53.68
T4
X199.64Y-34.07
X201.64Y-34.07
X203.64Y-34.07
X205.64Y-34.07
T5
X178.394Y-87.312
X180.912Y-101.592
X183.318Y-86.444
X183.374Y-101.157
X185.836Y-100.723
X118.59Y-27.481
X121.13Y-27.939
X123.67Y-27.481
X126.21Y-27.939
X128.75Y-27.481
X131.29Y-27.939
X161.19Y-55.43
X163.73Y-55.43
X166.27Y-55.43
X168.81Y-55.43
X144.164Y-100.723
X146.626Y-101.157
X146.682Y-86.444
X149.088Y-101.592
X151.606Y-87.312
T7
X177.878Y-91.932
X183.691Y-88.328
X144.617Y-90.608
X151.312Y-89.21
T8
X177.069Y-94.654
X187.074Y-92.889
X142.926Y-92.889
X152.931Y-94.654
T3
G00X27.24Y-46.13
M15
G01X26.14Y-46.13
M16
G05
G00X27.24Y-57.23
M15
G01X26.14Y-57.23
M16
G05
G00X32.29Y-46.13
M15
G01X31.19Y-46.13
M16
G05
G00X32.29Y-57.23
M15
G01X31.19Y-57.23
M16
G05
T6
G00X176.67Y-95.384
M15
G01X176.444Y-94.104
M16
G05
G00X187.699Y-93.439
M15
G01X187.474Y-92.159
M16
G05
G00X142.301Y-93.439
M15
G01X142.526Y-92.159
M16
G05
G00X153.33Y-95.384
M15
G01X153.556Y-94.104
M16
G05
T0
M30
