<?xml version="1.0" encoding="UTF-8" standalone="no"?>
<svg
   xmlns:dc="http://purl.org/dc/elements/1.1/"
   xmlns:cc="http://creativecommons.org/ns#"
   xmlns:rdf="http://www.w3.org/1999/02/22-rdf-syntax-ns#"
   xmlns:svg="http://www.w3.org/2000/svg"
   xmlns="http://www.w3.org/2000/svg"
   width="297mm"
   height="210mm"
   viewBox="0 0 297 210"
   version="1.1"
   id="svg9272">
  <defs
     id="defs9266" />
  <metadata
     id="metadata9269">
    <rdf:RDF>
      <cc:Work
         rdf:about="">
        <dc:format>image/svg+xml</dc:format>
        <dc:type
           rdf:resource="http://purl.org/dc/dcmitype/StillImage" />
        <dc:title></dc:title>
      </cc:Work>
    </rdf:RDF>
  </metadata>
  <g
     id="layer1"
     style="display:inline">
    <g
       style="display:inline;fill:#c27f00;fill-opacity:0;stroke:#ff0000;stroke-width:39.3701;stroke-linecap:round;stroke-linejoin:round;stroke-miterlimit:4;stroke-dasharray:none;stroke-opacity:1"
       id="g3356"
       transform="matrix(0.00254,0,0,0.00254,5.2929289,11.153413)">
      <circle
         cx="61778.102"
         cy="42275.898"
         r="492.12601"
         id="circle3354"
         style="stroke:#ff0000;stroke-width:39.3701;stroke-miterlimit:4;stroke-dasharray:none;stroke-opacity:1" />
    </g>
    <g
       id="g3408"
       style="display:inline;stroke:#ff0000;stroke-opacity:1"
       transform="matrix(0.00254,0,0,0.00254,-3.2240571,3.2447832)">
      <circle
         cx="45819.746"
         cy="45292.031"
         r="433.07101"
         id="circle3384"
         style="fill:#c27f00;fill-opacity:0;stroke:#ff0000;stroke-width:39.3701;stroke-linecap:round;stroke-linejoin:round;stroke-miterlimit:4;stroke-dasharray:none;stroke-opacity:1" />
      <circle
         cx="27079.545"
         cy="33323.535"
         r="433.07101"
         id="circle3386"
         style="fill:#c27f00;fill-opacity:0;stroke:#ff0000;stroke-width:39.3701;stroke-linecap:round;stroke-linejoin:round;stroke-miterlimit:4;stroke-dasharray:none;stroke-opacity:1" />
      <circle
         cx="10386.664"
         cy="30666.035"
         r="433.07101"
         id="circle3388"
         style="fill:#c27f00;fill-opacity:0;stroke:#ff0000;stroke-width:39.3701;stroke-linecap:round;stroke-linejoin:round;stroke-miterlimit:4;stroke-dasharray:none;stroke-opacity:1" />
      <circle
         cx="7512.644"
         cy="11158.184"
         r="433.07101"
         id="circle3390"
         style="fill:#c27f00;fill-opacity:0;stroke:#ff0000;stroke-width:39.3701;stroke-linecap:round;stroke-linejoin:round;stroke-miterlimit:4;stroke-dasharray:none;stroke-opacity:1" />
      <circle
         cx="27807.945"
         cy="5095.1938"
         r="433.07101"
         id="circle3392"
         style="fill:#c27f00;fill-opacity:0;stroke:#ff0000;stroke-width:39.3701;stroke-linecap:round;stroke-linejoin:round;stroke-miterlimit:4;stroke-dasharray:none;stroke-opacity:1" />
      <circle
         cx="49756.746"
         cy="5114.874"
         r="433.07101"
         id="circle3394"
         style="fill:#c27f00;fill-opacity:0;stroke:#ff0000;stroke-width:39.3701;stroke-linecap:round;stroke-linejoin:round;stroke-miterlimit:4;stroke-dasharray:none;stroke-opacity:1" />
      <circle
         cx="69441.742"
         cy="5114.874"
         r="433.07101"
         id="circle3396"
         style="fill:#c27f00;fill-opacity:0;stroke:#ff0000;stroke-width:39.3701;stroke-linecap:round;stroke-linejoin:round;stroke-miterlimit:4;stroke-dasharray:none;stroke-opacity:1" />
      <circle
         cx="91390.641"
         cy="5095.1938"
         r="433.07101"
         id="circle3398"
         style="fill:#c27f00;fill-opacity:0;stroke:#ff0000;stroke-width:39.3701;stroke-linecap:round;stroke-linejoin:round;stroke-miterlimit:4;stroke-dasharray:none;stroke-opacity:1" />
      <circle
         cx="111686.14"
         cy="11158.184"
         r="433.07101"
         id="circle3400"
         style="fill:#c27f00;fill-opacity:0;stroke:#ff0000;stroke-width:39.3701;stroke-linecap:round;stroke-linejoin:round;stroke-miterlimit:4;stroke-dasharray:none;stroke-opacity:1" />
      <circle
         cx="108812.14"
         cy="30666.035"
         r="433.07101"
         id="circle3402"
         style="fill:#c27f00;fill-opacity:0;stroke:#ff0000;stroke-width:39.3701;stroke-linecap:round;stroke-linejoin:round;stroke-miterlimit:4;stroke-dasharray:none;stroke-opacity:1" />
      <circle
         cx="92118.938"
         cy="33323.535"
         r="433.07101"
         id="circle3404"
         style="fill:#c27f00;fill-opacity:0;stroke:#ff0000;stroke-width:39.3701;stroke-linecap:round;stroke-linejoin:round;stroke-miterlimit:4;stroke-dasharray:none;stroke-opacity:1" />
      <circle
         cx="73378.742"
         cy="45292.031"
         r="433.07101"
         id="circle3406"
         style="fill:#c27f00;fill-opacity:0;stroke:#ff0000;stroke-width:39.3701;stroke-linecap:round;stroke-linejoin:round;stroke-miterlimit:4;stroke-dasharray:none;stroke-opacity:1" />
    </g>
  </g>
  <g
     id="layer9"
     style="display:inline">
    <path
       style="display:inline;fill:none;stroke:#0000ff;stroke-width:0.1;stroke-linecap:butt;stroke-linejoin:miter;stroke-miterlimit:4;stroke-dasharray:none;stroke-opacity:1"
       d="m 148.16666,11.252469 c -24.10207,-1.07e-4 -48.204131,-4.6e-5 -72.306196,0 m 0,0 c -1.383155,0 -3.627453,0.0085 -5.004578,0.133154 -15.024524,1.359962 -51.526716,12.766124 -63.9426171,18.449053 -0.847806,0.38805 -1.522549,1.48532 -1.522549,2.41777 v 50.06912 c 0,0.93245 0.749813,1.78412 1.674772,1.90213 23.3544121,2.9796 61.6739241,7.8399 67.9999691,11.77079 6.10804,3.79544 11.750289,10.195624 12.743914,19.662554 0.10187,0.97059 0.881335,2.00691 1.809623,2.30856 l 13.915082,4.52196 c 1.67086,0.54298 3.41679,0.81956 5.17366,0.81956 h 39.45892 39.45892 c 1.75687,0 3.5028,-0.27658 5.17366,-0.81956 l 13.91508,-4.52196 c 0.92829,-0.30165 1.70775,-1.33797 1.80962,-2.30856 0.99363,-9.46693 6.63588,-15.867114 12.74392,-19.662554 6.32604,-3.93089 44.64557,-8.79119 67.99998,-11.77079 0.92494,-0.11801 1.67477,-0.96968 1.67477,-1.90213 v -50.06912 c 0,-0.93245 -0.67475,-2.02972 -1.52255,-2.41777 -12.4159,-5.682929 -48.9181,-17.089091 -63.94263,-18.449053 -1.37712,-0.124653 -3.62142,-0.133154 -5.00457,-0.133154 h -72.3062"
       id="path3412" />
  </g>
</svg>
