%TF.GenerationSoftware,KiCad,Pcbnew,(5.1.10)-1*%
%TF.CreationDate,2021-10-29T12:16:09+09:00*%
%TF.ProjectId,yacc46,79616363-3436-42e6-9b69-6361645f7063,rev?*%
%TF.SameCoordinates,Original*%
%TF.FileFunction,Soldermask,Bot*%
%TF.FilePolarity,Negative*%
%FSLAX46Y46*%
G04 Gerber Fmt 4.6, Leading zero omitted, Abs format (unit mm)*
G04 Created by KiCad (PCBNEW (5.1.10)-1) date 2021-10-29 12:16:09*
%MOMM*%
%LPD*%
G01*
G04 APERTURE LIST*
%ADD10C,0.150000*%
%ADD11C,0.010000*%
%ADD12R,1.350000X1.350000*%
%ADD13O,1.350000X1.350000*%
%ADD14C,0.100000*%
%ADD15C,1.524000*%
%ADD16R,1.250000X1.600000*%
%ADD17C,0.750000*%
%ADD18R,1.600000X1.600000*%
%ADD19C,1.600000*%
%ADD20C,0.600000*%
%ADD21C,3.000000*%
%ADD22C,1.900000*%
%ADD23C,4.100000*%
%ADD24C,3.987800*%
%ADD25C,1.750000*%
%ADD26C,2.000000*%
%ADD27R,2.550000X2.500000*%
%ADD28R,1.500000X1.500000*%
%ADD29R,1.400000X1.000000*%
%ADD30C,4.300000*%
%ADD31C,2.200000*%
%ADD32R,1.600000X1.000000*%
G04 APERTURE END LIST*
D10*
X179238095Y-132785714D02*
X179000000Y-133452380D01*
X178761904Y-132785714D01*
X177857142Y-133452380D02*
X178428571Y-133452380D01*
X178142857Y-133452380D02*
X178142857Y-132452380D01*
X178238095Y-132595238D01*
X178333333Y-132690476D01*
X178428571Y-132738095D01*
X177428571Y-133357142D02*
X177380952Y-133404761D01*
X177428571Y-133452380D01*
X177476190Y-133404761D01*
X177428571Y-133357142D01*
X177428571Y-133452380D01*
X176761904Y-132452380D02*
X176666666Y-132452380D01*
X176571428Y-132500000D01*
X176523809Y-132547619D01*
X176476190Y-132642857D01*
X176428571Y-132833333D01*
X176428571Y-133071428D01*
X176476190Y-133261904D01*
X176523809Y-133357142D01*
X176571428Y-133404761D01*
X176666666Y-133452380D01*
X176761904Y-133452380D01*
X176857142Y-133404761D01*
X176904761Y-133357142D01*
X176952380Y-133261904D01*
X177000000Y-133071428D01*
X177000000Y-132833333D01*
X176952380Y-132642857D01*
X176904761Y-132547619D01*
X176857142Y-132500000D01*
X176761904Y-132452380D01*
X174047619Y-133452380D02*
X174047619Y-132452380D01*
X174047619Y-133404761D02*
X174142857Y-133452380D01*
X174333333Y-133452380D01*
X174428571Y-133404761D01*
X174476190Y-133357142D01*
X174523809Y-133261904D01*
X174523809Y-132976190D01*
X174476190Y-132880952D01*
X174428571Y-132833333D01*
X174333333Y-132785714D01*
X174142857Y-132785714D01*
X174047619Y-132833333D01*
X173190476Y-133404761D02*
X173285714Y-133452380D01*
X173476190Y-133452380D01*
X173571428Y-133404761D01*
X173619047Y-133309523D01*
X173619047Y-132928571D01*
X173571428Y-132833333D01*
X173476190Y-132785714D01*
X173285714Y-132785714D01*
X173190476Y-132833333D01*
X173142857Y-132928571D01*
X173142857Y-133023809D01*
X173619047Y-133119047D01*
X172761904Y-133404761D02*
X172666666Y-133452380D01*
X172476190Y-133452380D01*
X172380952Y-133404761D01*
X172333333Y-133309523D01*
X172333333Y-133261904D01*
X172380952Y-133166666D01*
X172476190Y-133119047D01*
X172619047Y-133119047D01*
X172714285Y-133071428D01*
X172761904Y-132976190D01*
X172761904Y-132928571D01*
X172714285Y-132833333D01*
X172619047Y-132785714D01*
X172476190Y-132785714D01*
X172380952Y-132833333D01*
X171904761Y-133452380D02*
X171904761Y-132785714D01*
X171904761Y-132452380D02*
X171952380Y-132500000D01*
X171904761Y-132547619D01*
X171857142Y-132500000D01*
X171904761Y-132452380D01*
X171904761Y-132547619D01*
X171000000Y-132785714D02*
X171000000Y-133595238D01*
X171047619Y-133690476D01*
X171095238Y-133738095D01*
X171190476Y-133785714D01*
X171333333Y-133785714D01*
X171428571Y-133738095D01*
X171000000Y-133404761D02*
X171095238Y-133452380D01*
X171285714Y-133452380D01*
X171380952Y-133404761D01*
X171428571Y-133357142D01*
X171476190Y-133261904D01*
X171476190Y-132976190D01*
X171428571Y-132880952D01*
X171380952Y-132833333D01*
X171285714Y-132785714D01*
X171095238Y-132785714D01*
X171000000Y-132833333D01*
X170523809Y-132785714D02*
X170523809Y-133452380D01*
X170523809Y-132880952D02*
X170476190Y-132833333D01*
X170380952Y-132785714D01*
X170238095Y-132785714D01*
X170142857Y-132833333D01*
X170095238Y-132928571D01*
X170095238Y-133452380D01*
X169238095Y-133404761D02*
X169333333Y-133452380D01*
X169523809Y-133452380D01*
X169619047Y-133404761D01*
X169666666Y-133309523D01*
X169666666Y-132928571D01*
X169619047Y-132833333D01*
X169523809Y-132785714D01*
X169333333Y-132785714D01*
X169238095Y-132833333D01*
X169190476Y-132928571D01*
X169190476Y-133023809D01*
X169666666Y-133119047D01*
X168333333Y-133452380D02*
X168333333Y-132452380D01*
X168333333Y-133404761D02*
X168428571Y-133452380D01*
X168619047Y-133452380D01*
X168714285Y-133404761D01*
X168761904Y-133357142D01*
X168809523Y-133261904D01*
X168809523Y-132976190D01*
X168761904Y-132880952D01*
X168714285Y-132833333D01*
X168619047Y-132785714D01*
X168428571Y-132785714D01*
X168333333Y-132833333D01*
X167095238Y-133452380D02*
X167095238Y-132452380D01*
X167095238Y-132833333D02*
X167000000Y-132785714D01*
X166809523Y-132785714D01*
X166714285Y-132833333D01*
X166666666Y-132880952D01*
X166619047Y-132976190D01*
X166619047Y-133261904D01*
X166666666Y-133357142D01*
X166714285Y-133404761D01*
X166809523Y-133452380D01*
X167000000Y-133452380D01*
X167095238Y-133404761D01*
X166285714Y-132785714D02*
X166047619Y-133452380D01*
X165809523Y-132785714D02*
X166047619Y-133452380D01*
X166142857Y-133690476D01*
X166190476Y-133738095D01*
X166285714Y-133785714D01*
X164142857Y-133452380D02*
X164714285Y-133452380D01*
X164428571Y-133452380D02*
X164428571Y-132452380D01*
X164523809Y-132595238D01*
X164619047Y-132690476D01*
X164714285Y-132738095D01*
X163714285Y-133357142D02*
X163666666Y-133404761D01*
X163714285Y-133452380D01*
X163761904Y-133404761D01*
X163714285Y-133357142D01*
X163714285Y-133452380D01*
X163047619Y-132452380D02*
X162952380Y-132452380D01*
X162857142Y-132500000D01*
X162809523Y-132547619D01*
X162761904Y-132642857D01*
X162714285Y-132833333D01*
X162714285Y-133071428D01*
X162761904Y-133261904D01*
X162809523Y-133357142D01*
X162857142Y-133404761D01*
X162952380Y-133452380D01*
X163047619Y-133452380D01*
X163142857Y-133404761D01*
X163190476Y-133357142D01*
X163238095Y-133261904D01*
X163285714Y-133071428D01*
X163285714Y-132833333D01*
X163238095Y-132642857D01*
X163190476Y-132547619D01*
X163142857Y-132500000D01*
X163047619Y-132452380D01*
X162380952Y-132452380D02*
X161761904Y-132452380D01*
X162095238Y-132833333D01*
X161952380Y-132833333D01*
X161857142Y-132880952D01*
X161809523Y-132928571D01*
X161761904Y-133023809D01*
X161761904Y-133261904D01*
X161809523Y-133357142D01*
X161857142Y-133404761D01*
X161952380Y-133452380D01*
X162238095Y-133452380D01*
X162333333Y-133404761D01*
X162380952Y-133357142D01*
X161190476Y-132880952D02*
X161285714Y-132833333D01*
X161333333Y-132785714D01*
X161380952Y-132690476D01*
X161380952Y-132642857D01*
X161333333Y-132547619D01*
X161285714Y-132500000D01*
X161190476Y-132452380D01*
X161000000Y-132452380D01*
X160904761Y-132500000D01*
X160857142Y-132547619D01*
X160809523Y-132642857D01*
X160809523Y-132690476D01*
X160857142Y-132785714D01*
X160904761Y-132833333D01*
X161000000Y-132880952D01*
X161190476Y-132880952D01*
X161285714Y-132928571D01*
X161333333Y-132976190D01*
X161380952Y-133071428D01*
X161380952Y-133261904D01*
X161333333Y-133357142D01*
X161285714Y-133404761D01*
X161190476Y-133452380D01*
X161000000Y-133452380D01*
X160904761Y-133404761D01*
X160857142Y-133357142D01*
X160809523Y-133261904D01*
X160809523Y-133071428D01*
X160857142Y-132976190D01*
X160904761Y-132928571D01*
X161000000Y-132880952D01*
D11*
%TO.C,G\u002A\u002A\u002A*%
G36*
X166698752Y-126553454D02*
G01*
X166576330Y-126580094D01*
X166354624Y-126662973D01*
X166155320Y-126785635D01*
X165983820Y-126942014D01*
X165845531Y-127126040D01*
X165745856Y-127331646D01*
X165690199Y-127552764D01*
X165686881Y-127578769D01*
X165678156Y-127670058D01*
X165674774Y-127739820D01*
X165677342Y-127774461D01*
X165678087Y-127775619D01*
X165707528Y-127781342D01*
X165774925Y-127785663D01*
X165867440Y-127787861D01*
X165898580Y-127788000D01*
X166106693Y-127788000D01*
X166120915Y-127650206D01*
X166164190Y-127452009D01*
X166248576Y-127281968D01*
X166371393Y-127142494D01*
X166529958Y-127035996D01*
X166721592Y-126964883D01*
X166918557Y-126933247D01*
X167147219Y-126936275D01*
X167353677Y-126980359D01*
X167534067Y-127063147D01*
X167684526Y-127182288D01*
X167801190Y-127335429D01*
X167879661Y-127518410D01*
X167892163Y-127588313D01*
X167902383Y-127700474D01*
X167910321Y-127846406D01*
X167915977Y-128017620D01*
X167919350Y-128205625D01*
X167920441Y-128401934D01*
X167919250Y-128598056D01*
X167915777Y-128785503D01*
X167910021Y-128955785D01*
X167901983Y-129100414D01*
X167891663Y-129210900D01*
X167879661Y-129276789D01*
X167800510Y-129466445D01*
X167686512Y-129619336D01*
X167537463Y-129735613D01*
X167353161Y-129815423D01*
X167133402Y-129858917D01*
X167079000Y-129863716D01*
X166849800Y-129859398D01*
X166645806Y-129814121D01*
X166470053Y-129730126D01*
X166325580Y-129609653D01*
X166215424Y-129454942D01*
X166142621Y-129268233D01*
X166120141Y-129156532D01*
X166100555Y-129019900D01*
X165912705Y-129012357D01*
X165817173Y-129010126D01*
X165740283Y-129011271D01*
X165697264Y-129015526D01*
X165695309Y-129016151D01*
X165676365Y-129048719D01*
X165673147Y-129118226D01*
X165683782Y-129213959D01*
X165706392Y-129325204D01*
X165739102Y-129441247D01*
X165780035Y-129551376D01*
X165794737Y-129583981D01*
X165916360Y-129782911D01*
X166075141Y-129951269D01*
X166266084Y-130086834D01*
X166484194Y-130187384D01*
X166724475Y-130250697D01*
X166981932Y-130274552D01*
X167251569Y-130256728D01*
X167292995Y-130250282D01*
X167550041Y-130184587D01*
X167775358Y-130079800D01*
X167967228Y-129937592D01*
X168123934Y-129759629D01*
X168243760Y-129547581D01*
X168324988Y-129303117D01*
X168339856Y-129232956D01*
X168352231Y-129136934D01*
X168361532Y-129002457D01*
X168367865Y-128838064D01*
X168371336Y-128652292D01*
X168372051Y-128453676D01*
X168370116Y-128250756D01*
X168365636Y-128052066D01*
X168358719Y-127866145D01*
X168349470Y-127701529D01*
X168337995Y-127566756D01*
X168324400Y-127470362D01*
X168317611Y-127441757D01*
X168225715Y-127212838D01*
X168095368Y-127008649D01*
X167932014Y-126835732D01*
X167741097Y-126700627D01*
X167670693Y-126664383D01*
X167450561Y-126585540D01*
X167205578Y-126540030D01*
X166950168Y-126528964D01*
X166698752Y-126553454D01*
G37*
X166698752Y-126553454D02*
X166576330Y-126580094D01*
X166354624Y-126662973D01*
X166155320Y-126785635D01*
X165983820Y-126942014D01*
X165845531Y-127126040D01*
X165745856Y-127331646D01*
X165690199Y-127552764D01*
X165686881Y-127578769D01*
X165678156Y-127670058D01*
X165674774Y-127739820D01*
X165677342Y-127774461D01*
X165678087Y-127775619D01*
X165707528Y-127781342D01*
X165774925Y-127785663D01*
X165867440Y-127787861D01*
X165898580Y-127788000D01*
X166106693Y-127788000D01*
X166120915Y-127650206D01*
X166164190Y-127452009D01*
X166248576Y-127281968D01*
X166371393Y-127142494D01*
X166529958Y-127035996D01*
X166721592Y-126964883D01*
X166918557Y-126933247D01*
X167147219Y-126936275D01*
X167353677Y-126980359D01*
X167534067Y-127063147D01*
X167684526Y-127182288D01*
X167801190Y-127335429D01*
X167879661Y-127518410D01*
X167892163Y-127588313D01*
X167902383Y-127700474D01*
X167910321Y-127846406D01*
X167915977Y-128017620D01*
X167919350Y-128205625D01*
X167920441Y-128401934D01*
X167919250Y-128598056D01*
X167915777Y-128785503D01*
X167910021Y-128955785D01*
X167901983Y-129100414D01*
X167891663Y-129210900D01*
X167879661Y-129276789D01*
X167800510Y-129466445D01*
X167686512Y-129619336D01*
X167537463Y-129735613D01*
X167353161Y-129815423D01*
X167133402Y-129858917D01*
X167079000Y-129863716D01*
X166849800Y-129859398D01*
X166645806Y-129814121D01*
X166470053Y-129730126D01*
X166325580Y-129609653D01*
X166215424Y-129454942D01*
X166142621Y-129268233D01*
X166120141Y-129156532D01*
X166100555Y-129019900D01*
X165912705Y-129012357D01*
X165817173Y-129010126D01*
X165740283Y-129011271D01*
X165697264Y-129015526D01*
X165695309Y-129016151D01*
X165676365Y-129048719D01*
X165673147Y-129118226D01*
X165683782Y-129213959D01*
X165706392Y-129325204D01*
X165739102Y-129441247D01*
X165780035Y-129551376D01*
X165794737Y-129583981D01*
X165916360Y-129782911D01*
X166075141Y-129951269D01*
X166266084Y-130086834D01*
X166484194Y-130187384D01*
X166724475Y-130250697D01*
X166981932Y-130274552D01*
X167251569Y-130256728D01*
X167292995Y-130250282D01*
X167550041Y-130184587D01*
X167775358Y-130079800D01*
X167967228Y-129937592D01*
X168123934Y-129759629D01*
X168243760Y-129547581D01*
X168324988Y-129303117D01*
X168339856Y-129232956D01*
X168352231Y-129136934D01*
X168361532Y-129002457D01*
X168367865Y-128838064D01*
X168371336Y-128652292D01*
X168372051Y-128453676D01*
X168370116Y-128250756D01*
X168365636Y-128052066D01*
X168358719Y-127866145D01*
X168349470Y-127701529D01*
X168337995Y-127566756D01*
X168324400Y-127470362D01*
X168317611Y-127441757D01*
X168225715Y-127212838D01*
X168095368Y-127008649D01*
X167932014Y-126835732D01*
X167741097Y-126700627D01*
X167670693Y-126664383D01*
X167450561Y-126585540D01*
X167205578Y-126540030D01*
X166950168Y-126528964D01*
X166698752Y-126553454D01*
G36*
X170276870Y-126530282D02*
G01*
X170024495Y-126569584D01*
X169781035Y-126648826D01*
X169705511Y-126683156D01*
X169578229Y-126762616D01*
X169447019Y-126873380D01*
X169326716Y-127000707D01*
X169232157Y-127129852D01*
X169202984Y-127182523D01*
X169166365Y-127271315D01*
X169131311Y-127380148D01*
X169100941Y-127495678D01*
X169078376Y-127604556D01*
X169066735Y-127693436D01*
X169069136Y-127748972D01*
X169069999Y-127751497D01*
X169087331Y-127770849D01*
X169127300Y-127781472D01*
X169199689Y-127784724D01*
X169294708Y-127782683D01*
X169504617Y-127775300D01*
X169522512Y-127631519D01*
X169569061Y-127438061D01*
X169658284Y-127271133D01*
X169775085Y-127141811D01*
X169890487Y-127052847D01*
X170012647Y-126992083D01*
X170153623Y-126955713D01*
X170325475Y-126939929D01*
X170419100Y-126938537D01*
X170544018Y-126940603D01*
X170635176Y-126947953D01*
X170709567Y-126963605D01*
X170784182Y-126990576D01*
X170833133Y-127012083D01*
X171007205Y-127117188D01*
X171144599Y-127256172D01*
X171242470Y-127425852D01*
X171269738Y-127501031D01*
X171284787Y-127553800D01*
X171296579Y-127607846D01*
X171305505Y-127670012D01*
X171311955Y-127747143D01*
X171316319Y-127846082D01*
X171318986Y-127973672D01*
X171320345Y-128136758D01*
X171320788Y-128342182D01*
X171320800Y-128397599D01*
X171320544Y-128613213D01*
X171319504Y-128784927D01*
X171317274Y-128919643D01*
X171313447Y-129024261D01*
X171307619Y-129105680D01*
X171299382Y-129170801D01*
X171288330Y-129226524D01*
X171274057Y-129279749D01*
X171267616Y-129301041D01*
X171230541Y-129404160D01*
X171185313Y-129485943D01*
X171119168Y-129566862D01*
X171070515Y-129617149D01*
X170955972Y-129718271D01*
X170840306Y-129788310D01*
X170710888Y-129831846D01*
X170555090Y-129853460D01*
X170406400Y-129858049D01*
X170214469Y-129848784D01*
X170058159Y-129818360D01*
X169925300Y-129762831D01*
X169803718Y-129678250D01*
X169775085Y-129653388D01*
X169646210Y-129506722D01*
X169561825Y-129337045D01*
X169522512Y-129163680D01*
X169504617Y-129019900D01*
X169294708Y-129012516D01*
X169186832Y-129010541D01*
X169119740Y-129014777D01*
X169083653Y-129026579D01*
X169069999Y-129043702D01*
X169066357Y-129096237D01*
X169077069Y-129183186D01*
X169099021Y-129291261D01*
X169129097Y-129407175D01*
X169164182Y-129517638D01*
X169201163Y-129609362D01*
X169203946Y-129615157D01*
X169319651Y-129796742D01*
X169476322Y-129957067D01*
X169666474Y-130090138D01*
X169882622Y-130189963D01*
X169949200Y-130211869D01*
X170044849Y-130232532D01*
X170173342Y-130249636D01*
X170317186Y-130261946D01*
X170458887Y-130268225D01*
X170580952Y-130267237D01*
X170647700Y-130261204D01*
X170911170Y-130198083D01*
X171142824Y-130096132D01*
X171341251Y-129956572D01*
X171505039Y-129780628D01*
X171632777Y-129569524D01*
X171721362Y-129330660D01*
X171734187Y-129277322D01*
X171744308Y-129216491D01*
X171752025Y-129141759D01*
X171757638Y-129046722D01*
X171761448Y-128924974D01*
X171763753Y-128770110D01*
X171764855Y-128575724D01*
X171765072Y-128397600D01*
X171764685Y-128168890D01*
X171763321Y-127984571D01*
X171760682Y-127838236D01*
X171756467Y-127723481D01*
X171750377Y-127633900D01*
X171742110Y-127563087D01*
X171731368Y-127504638D01*
X171721362Y-127464539D01*
X171643108Y-127244794D01*
X171536223Y-127058078D01*
X171400396Y-126898337D01*
X171220050Y-126752741D01*
X171009751Y-126642150D01*
X170777272Y-126567552D01*
X170530388Y-126529934D01*
X170276870Y-126530282D01*
G37*
X170276870Y-126530282D02*
X170024495Y-126569584D01*
X169781035Y-126648826D01*
X169705511Y-126683156D01*
X169578229Y-126762616D01*
X169447019Y-126873380D01*
X169326716Y-127000707D01*
X169232157Y-127129852D01*
X169202984Y-127182523D01*
X169166365Y-127271315D01*
X169131311Y-127380148D01*
X169100941Y-127495678D01*
X169078376Y-127604556D01*
X169066735Y-127693436D01*
X169069136Y-127748972D01*
X169069999Y-127751497D01*
X169087331Y-127770849D01*
X169127300Y-127781472D01*
X169199689Y-127784724D01*
X169294708Y-127782683D01*
X169504617Y-127775300D01*
X169522512Y-127631519D01*
X169569061Y-127438061D01*
X169658284Y-127271133D01*
X169775085Y-127141811D01*
X169890487Y-127052847D01*
X170012647Y-126992083D01*
X170153623Y-126955713D01*
X170325475Y-126939929D01*
X170419100Y-126938537D01*
X170544018Y-126940603D01*
X170635176Y-126947953D01*
X170709567Y-126963605D01*
X170784182Y-126990576D01*
X170833133Y-127012083D01*
X171007205Y-127117188D01*
X171144599Y-127256172D01*
X171242470Y-127425852D01*
X171269738Y-127501031D01*
X171284787Y-127553800D01*
X171296579Y-127607846D01*
X171305505Y-127670012D01*
X171311955Y-127747143D01*
X171316319Y-127846082D01*
X171318986Y-127973672D01*
X171320345Y-128136758D01*
X171320788Y-128342182D01*
X171320800Y-128397599D01*
X171320544Y-128613213D01*
X171319504Y-128784927D01*
X171317274Y-128919643D01*
X171313447Y-129024261D01*
X171307619Y-129105680D01*
X171299382Y-129170801D01*
X171288330Y-129226524D01*
X171274057Y-129279749D01*
X171267616Y-129301041D01*
X171230541Y-129404160D01*
X171185313Y-129485943D01*
X171119168Y-129566862D01*
X171070515Y-129617149D01*
X170955972Y-129718271D01*
X170840306Y-129788310D01*
X170710888Y-129831846D01*
X170555090Y-129853460D01*
X170406400Y-129858049D01*
X170214469Y-129848784D01*
X170058159Y-129818360D01*
X169925300Y-129762831D01*
X169803718Y-129678250D01*
X169775085Y-129653388D01*
X169646210Y-129506722D01*
X169561825Y-129337045D01*
X169522512Y-129163680D01*
X169504617Y-129019900D01*
X169294708Y-129012516D01*
X169186832Y-129010541D01*
X169119740Y-129014777D01*
X169083653Y-129026579D01*
X169069999Y-129043702D01*
X169066357Y-129096237D01*
X169077069Y-129183186D01*
X169099021Y-129291261D01*
X169129097Y-129407175D01*
X169164182Y-129517638D01*
X169201163Y-129609362D01*
X169203946Y-129615157D01*
X169319651Y-129796742D01*
X169476322Y-129957067D01*
X169666474Y-130090138D01*
X169882622Y-130189963D01*
X169949200Y-130211869D01*
X170044849Y-130232532D01*
X170173342Y-130249636D01*
X170317186Y-130261946D01*
X170458887Y-130268225D01*
X170580952Y-130267237D01*
X170647700Y-130261204D01*
X170911170Y-130198083D01*
X171142824Y-130096132D01*
X171341251Y-129956572D01*
X171505039Y-129780628D01*
X171632777Y-129569524D01*
X171721362Y-129330660D01*
X171734187Y-129277322D01*
X171744308Y-129216491D01*
X171752025Y-129141759D01*
X171757638Y-129046722D01*
X171761448Y-128924974D01*
X171763753Y-128770110D01*
X171764855Y-128575724D01*
X171765072Y-128397600D01*
X171764685Y-128168890D01*
X171763321Y-127984571D01*
X171760682Y-127838236D01*
X171756467Y-127723481D01*
X171750377Y-127633900D01*
X171742110Y-127563087D01*
X171731368Y-127504638D01*
X171721362Y-127464539D01*
X171643108Y-127244794D01*
X171536223Y-127058078D01*
X171400396Y-126898337D01*
X171220050Y-126752741D01*
X171009751Y-126642150D01*
X170777272Y-126567552D01*
X170530388Y-126529934D01*
X170276870Y-126530282D01*
G36*
X173459276Y-126555779D02*
G01*
X173228880Y-126617032D01*
X173137271Y-126654263D01*
X173010328Y-126729116D01*
X172877777Y-126835029D01*
X172755390Y-126957308D01*
X172658938Y-127081263D01*
X172633592Y-127123483D01*
X172603428Y-127180862D01*
X172577802Y-127236384D01*
X172556345Y-127294583D01*
X172538685Y-127359993D01*
X172524453Y-127437146D01*
X172513278Y-127530576D01*
X172504790Y-127644816D01*
X172498619Y-127784399D01*
X172494394Y-127953860D01*
X172491745Y-128157731D01*
X172490302Y-128400545D01*
X172489695Y-128686837D01*
X172489576Y-128886550D01*
X172489200Y-130201000D01*
X172921000Y-130201000D01*
X172922116Y-129629500D01*
X172970110Y-129735201D01*
X173059642Y-129875771D01*
X173190943Y-130003489D01*
X173355395Y-130111949D01*
X173544376Y-130194746D01*
X173619500Y-130217787D01*
X173702314Y-130234413D01*
X173813522Y-130248974D01*
X173938139Y-130260401D01*
X174061182Y-130267627D01*
X174167666Y-130269584D01*
X174242606Y-130265205D01*
X174254500Y-130263031D01*
X174307552Y-130251488D01*
X174388633Y-130234582D01*
X174445000Y-130223090D01*
X174665461Y-130154582D01*
X174858795Y-130045785D01*
X175020778Y-129900876D01*
X175147191Y-129724032D01*
X175233810Y-129519429D01*
X175259010Y-129417751D01*
X175281459Y-129191454D01*
X175275177Y-129124859D01*
X174837666Y-129124859D01*
X174827301Y-129289939D01*
X174780306Y-129448780D01*
X174697921Y-129592531D01*
X174581388Y-129712342D01*
X174483100Y-129775710D01*
X174391605Y-129818108D01*
X174296081Y-129855229D01*
X174279900Y-129860585D01*
X174184639Y-129879634D01*
X174056499Y-129890421D01*
X173912728Y-129892919D01*
X173770576Y-129887102D01*
X173647293Y-129872941D01*
X173594100Y-129861672D01*
X173393136Y-129786817D01*
X173221171Y-129679487D01*
X173084436Y-129544531D01*
X172991871Y-129392970D01*
X172970130Y-129336048D01*
X172954196Y-129271271D01*
X172942767Y-129188500D01*
X172934541Y-129077598D01*
X172928218Y-128928426D01*
X172926863Y-128886550D01*
X172914824Y-128499200D01*
X173586402Y-128499200D01*
X173821484Y-128499980D01*
X174012140Y-128503053D01*
X174164730Y-128509520D01*
X174285613Y-128520478D01*
X174381150Y-128537027D01*
X174457699Y-128560266D01*
X174521621Y-128591294D01*
X174579276Y-128631211D01*
X174636577Y-128680704D01*
X174743545Y-128811390D01*
X174810161Y-128962393D01*
X174837666Y-129124859D01*
X175275177Y-129124859D01*
X175260853Y-128973029D01*
X175199767Y-128769477D01*
X175100780Y-128587797D01*
X174966469Y-128434991D01*
X174869498Y-128359747D01*
X174787028Y-128305895D01*
X174714332Y-128262534D01*
X174644641Y-128228458D01*
X174571187Y-128202460D01*
X174487201Y-128183333D01*
X174385914Y-128169869D01*
X174260557Y-128160861D01*
X174104362Y-128155103D01*
X173910559Y-128151387D01*
X173685729Y-128148653D01*
X172913757Y-128140198D01*
X172928226Y-127830749D01*
X172938825Y-127676907D01*
X172954637Y-127541779D01*
X172973972Y-127438295D01*
X172984026Y-127403611D01*
X173064168Y-127249118D01*
X173185099Y-127115766D01*
X173338185Y-127012951D01*
X173347105Y-127008498D01*
X173414959Y-126977157D01*
X173475027Y-126956608D01*
X173541047Y-126944616D01*
X173626754Y-126938946D01*
X173745887Y-126937367D01*
X173784600Y-126937350D01*
X173915504Y-126938507D01*
X174009961Y-126943277D01*
X174082310Y-126954004D01*
X174146889Y-126973033D01*
X174218035Y-127002711D01*
X174236929Y-127011333D01*
X174397456Y-127108431D01*
X174524732Y-127233844D01*
X174611620Y-127380029D01*
X174628192Y-127425065D01*
X174667012Y-127546700D01*
X174879856Y-127546700D01*
X174983429Y-127546172D01*
X175045962Y-127542574D01*
X175077215Y-127532883D01*
X175086949Y-127514078D01*
X175084931Y-127483200D01*
X175039604Y-127302746D01*
X174952112Y-127123916D01*
X174830075Y-126958414D01*
X174681118Y-126817944D01*
X174625580Y-126777890D01*
X174449652Y-126675424D01*
X174269007Y-126603518D01*
X174066012Y-126555914D01*
X173954361Y-126539725D01*
X173706451Y-126529261D01*
X173459276Y-126555779D01*
G37*
X173459276Y-126555779D02*
X173228880Y-126617032D01*
X173137271Y-126654263D01*
X173010328Y-126729116D01*
X172877777Y-126835029D01*
X172755390Y-126957308D01*
X172658938Y-127081263D01*
X172633592Y-127123483D01*
X172603428Y-127180862D01*
X172577802Y-127236384D01*
X172556345Y-127294583D01*
X172538685Y-127359993D01*
X172524453Y-127437146D01*
X172513278Y-127530576D01*
X172504790Y-127644816D01*
X172498619Y-127784399D01*
X172494394Y-127953860D01*
X172491745Y-128157731D01*
X172490302Y-128400545D01*
X172489695Y-128686837D01*
X172489576Y-128886550D01*
X172489200Y-130201000D01*
X172921000Y-130201000D01*
X172922116Y-129629500D01*
X172970110Y-129735201D01*
X173059642Y-129875771D01*
X173190943Y-130003489D01*
X173355395Y-130111949D01*
X173544376Y-130194746D01*
X173619500Y-130217787D01*
X173702314Y-130234413D01*
X173813522Y-130248974D01*
X173938139Y-130260401D01*
X174061182Y-130267627D01*
X174167666Y-130269584D01*
X174242606Y-130265205D01*
X174254500Y-130263031D01*
X174307552Y-130251488D01*
X174388633Y-130234582D01*
X174445000Y-130223090D01*
X174665461Y-130154582D01*
X174858795Y-130045785D01*
X175020778Y-129900876D01*
X175147191Y-129724032D01*
X175233810Y-129519429D01*
X175259010Y-129417751D01*
X175281459Y-129191454D01*
X175275177Y-129124859D01*
X174837666Y-129124859D01*
X174827301Y-129289939D01*
X174780306Y-129448780D01*
X174697921Y-129592531D01*
X174581388Y-129712342D01*
X174483100Y-129775710D01*
X174391605Y-129818108D01*
X174296081Y-129855229D01*
X174279900Y-129860585D01*
X174184639Y-129879634D01*
X174056499Y-129890421D01*
X173912728Y-129892919D01*
X173770576Y-129887102D01*
X173647293Y-129872941D01*
X173594100Y-129861672D01*
X173393136Y-129786817D01*
X173221171Y-129679487D01*
X173084436Y-129544531D01*
X172991871Y-129392970D01*
X172970130Y-129336048D01*
X172954196Y-129271271D01*
X172942767Y-129188500D01*
X172934541Y-129077598D01*
X172928218Y-128928426D01*
X172926863Y-128886550D01*
X172914824Y-128499200D01*
X173586402Y-128499200D01*
X173821484Y-128499980D01*
X174012140Y-128503053D01*
X174164730Y-128509520D01*
X174285613Y-128520478D01*
X174381150Y-128537027D01*
X174457699Y-128560266D01*
X174521621Y-128591294D01*
X174579276Y-128631211D01*
X174636577Y-128680704D01*
X174743545Y-128811390D01*
X174810161Y-128962393D01*
X174837666Y-129124859D01*
X175275177Y-129124859D01*
X175260853Y-128973029D01*
X175199767Y-128769477D01*
X175100780Y-128587797D01*
X174966469Y-128434991D01*
X174869498Y-128359747D01*
X174787028Y-128305895D01*
X174714332Y-128262534D01*
X174644641Y-128228458D01*
X174571187Y-128202460D01*
X174487201Y-128183333D01*
X174385914Y-128169869D01*
X174260557Y-128160861D01*
X174104362Y-128155103D01*
X173910559Y-128151387D01*
X173685729Y-128148653D01*
X172913757Y-128140198D01*
X172928226Y-127830749D01*
X172938825Y-127676907D01*
X172954637Y-127541779D01*
X172973972Y-127438295D01*
X172984026Y-127403611D01*
X173064168Y-127249118D01*
X173185099Y-127115766D01*
X173338185Y-127012951D01*
X173347105Y-127008498D01*
X173414959Y-126977157D01*
X173475027Y-126956608D01*
X173541047Y-126944616D01*
X173626754Y-126938946D01*
X173745887Y-126937367D01*
X173784600Y-126937350D01*
X173915504Y-126938507D01*
X174009961Y-126943277D01*
X174082310Y-126954004D01*
X174146889Y-126973033D01*
X174218035Y-127002711D01*
X174236929Y-127011333D01*
X174397456Y-127108431D01*
X174524732Y-127233844D01*
X174611620Y-127380029D01*
X174628192Y-127425065D01*
X174667012Y-127546700D01*
X174879856Y-127546700D01*
X174983429Y-127546172D01*
X175045962Y-127542574D01*
X175077215Y-127532883D01*
X175086949Y-127514078D01*
X175084931Y-127483200D01*
X175039604Y-127302746D01*
X174952112Y-127123916D01*
X174830075Y-126958414D01*
X174681118Y-126817944D01*
X174625580Y-126777890D01*
X174449652Y-126675424D01*
X174269007Y-126603518D01*
X174066012Y-126555914D01*
X173954361Y-126539725D01*
X173706451Y-126529261D01*
X173459276Y-126555779D01*
G36*
X175627954Y-125478395D02*
G01*
X175556170Y-125484133D01*
X175522280Y-125494847D01*
X175518410Y-125508349D01*
X175528805Y-125536131D01*
X175555749Y-125608255D01*
X175598026Y-125721472D01*
X175654425Y-125872530D01*
X175723730Y-126058179D01*
X175804730Y-126275169D01*
X175896211Y-126520247D01*
X175996958Y-126790164D01*
X176105759Y-127081669D01*
X176221400Y-127391511D01*
X176342668Y-127716439D01*
X176414402Y-127908650D01*
X177298350Y-130277200D01*
X177522675Y-130277200D01*
X177622312Y-130275380D01*
X177699221Y-130270514D01*
X177741962Y-130263485D01*
X177747000Y-130259827D01*
X177738399Y-130232485D01*
X177714090Y-130163735D01*
X177676311Y-130059691D01*
X177627304Y-129926470D01*
X177569309Y-129770187D01*
X177504565Y-129596956D01*
X177488811Y-129554977D01*
X177422778Y-129378232D01*
X177363037Y-129216567D01*
X177311829Y-129076187D01*
X177271396Y-128963297D01*
X177243976Y-128884103D01*
X177231812Y-128844809D01*
X177231407Y-128842100D01*
X177240600Y-128816374D01*
X177266799Y-128748015D01*
X177308198Y-128641575D01*
X177362994Y-128501612D01*
X177429380Y-128332679D01*
X177505553Y-128139331D01*
X177589707Y-127926123D01*
X177680039Y-127697611D01*
X177774743Y-127458348D01*
X177872015Y-127212891D01*
X177970051Y-126965794D01*
X178067044Y-126721611D01*
X178161191Y-126484898D01*
X178250688Y-126260210D01*
X178333729Y-126052102D01*
X178408509Y-125865128D01*
X178473224Y-125703843D01*
X178526070Y-125572803D01*
X178552634Y-125507393D01*
X178548276Y-125492160D01*
X178515279Y-125483280D01*
X178446591Y-125479989D01*
X178335159Y-125481520D01*
X178318542Y-125481993D01*
X178071115Y-125489300D01*
X177620933Y-126660021D01*
X177528469Y-126900883D01*
X177438818Y-127135187D01*
X177354199Y-127357080D01*
X177276831Y-127560707D01*
X177208933Y-127740216D01*
X177152726Y-127889753D01*
X177110429Y-128003465D01*
X177084684Y-128074299D01*
X176998616Y-128317855D01*
X176857419Y-127906877D01*
X176816849Y-127790280D01*
X176761678Y-127633939D01*
X176694755Y-127445817D01*
X176618931Y-127233877D01*
X176537057Y-127006083D01*
X176451984Y-126770398D01*
X176366561Y-126534787D01*
X176348961Y-126486384D01*
X175981700Y-125476869D01*
X175744033Y-125476734D01*
X175627954Y-125478395D01*
G37*
X175627954Y-125478395D02*
X175556170Y-125484133D01*
X175522280Y-125494847D01*
X175518410Y-125508349D01*
X175528805Y-125536131D01*
X175555749Y-125608255D01*
X175598026Y-125721472D01*
X175654425Y-125872530D01*
X175723730Y-126058179D01*
X175804730Y-126275169D01*
X175896211Y-126520247D01*
X175996958Y-126790164D01*
X176105759Y-127081669D01*
X176221400Y-127391511D01*
X176342668Y-127716439D01*
X176414402Y-127908650D01*
X177298350Y-130277200D01*
X177522675Y-130277200D01*
X177622312Y-130275380D01*
X177699221Y-130270514D01*
X177741962Y-130263485D01*
X177747000Y-130259827D01*
X177738399Y-130232485D01*
X177714090Y-130163735D01*
X177676311Y-130059691D01*
X177627304Y-129926470D01*
X177569309Y-129770187D01*
X177504565Y-129596956D01*
X177488811Y-129554977D01*
X177422778Y-129378232D01*
X177363037Y-129216567D01*
X177311829Y-129076187D01*
X177271396Y-128963297D01*
X177243976Y-128884103D01*
X177231812Y-128844809D01*
X177231407Y-128842100D01*
X177240600Y-128816374D01*
X177266799Y-128748015D01*
X177308198Y-128641575D01*
X177362994Y-128501612D01*
X177429380Y-128332679D01*
X177505553Y-128139331D01*
X177589707Y-127926123D01*
X177680039Y-127697611D01*
X177774743Y-127458348D01*
X177872015Y-127212891D01*
X177970051Y-126965794D01*
X178067044Y-126721611D01*
X178161191Y-126484898D01*
X178250688Y-126260210D01*
X178333729Y-126052102D01*
X178408509Y-125865128D01*
X178473224Y-125703843D01*
X178526070Y-125572803D01*
X178552634Y-125507393D01*
X178548276Y-125492160D01*
X178515279Y-125483280D01*
X178446591Y-125479989D01*
X178335159Y-125481520D01*
X178318542Y-125481993D01*
X178071115Y-125489300D01*
X177620933Y-126660021D01*
X177528469Y-126900883D01*
X177438818Y-127135187D01*
X177354199Y-127357080D01*
X177276831Y-127560707D01*
X177208933Y-127740216D01*
X177152726Y-127889753D01*
X177110429Y-128003465D01*
X177084684Y-128074299D01*
X176998616Y-128317855D01*
X176857419Y-127906877D01*
X176816849Y-127790280D01*
X176761678Y-127633939D01*
X176694755Y-127445817D01*
X176618931Y-127233877D01*
X176537057Y-127006083D01*
X176451984Y-126770398D01*
X176366561Y-126534787D01*
X176348961Y-126486384D01*
X175981700Y-125476869D01*
X175744033Y-125476734D01*
X175627954Y-125478395D01*
G36*
X164065432Y-128400397D02*
G01*
X164021073Y-128410001D01*
X164012077Y-128428226D01*
X164012987Y-128431011D01*
X164028596Y-128459043D01*
X164068083Y-128525768D01*
X164128679Y-128626622D01*
X164207619Y-128757046D01*
X164302138Y-128912477D01*
X164409470Y-129088353D01*
X164526848Y-129280115D01*
X164612604Y-129419883D01*
X164734768Y-129619115D01*
X164848321Y-129804916D01*
X164950576Y-129972842D01*
X165038843Y-130118450D01*
X165110434Y-130237297D01*
X165162662Y-130324939D01*
X165192837Y-130376932D01*
X165199400Y-130389772D01*
X165175196Y-130393919D01*
X165107361Y-130397599D01*
X165003064Y-130400633D01*
X164869475Y-130402839D01*
X164713762Y-130404036D01*
X164627900Y-130404200D01*
X164056400Y-130404200D01*
X164056400Y-129743800D01*
X163751600Y-129743800D01*
X163751600Y-131572600D01*
X164056400Y-131572600D01*
X164056400Y-130684379D01*
X164786650Y-130677639D01*
X165516900Y-130670900D01*
X165523973Y-130518500D01*
X165531045Y-130366100D01*
X164918189Y-129381850D01*
X164305332Y-128397600D01*
X164152749Y-128397600D01*
X164065432Y-128400397D01*
G37*
X164065432Y-128400397D02*
X164021073Y-128410001D01*
X164012077Y-128428226D01*
X164012987Y-128431011D01*
X164028596Y-128459043D01*
X164068083Y-128525768D01*
X164128679Y-128626622D01*
X164207619Y-128757046D01*
X164302138Y-128912477D01*
X164409470Y-129088353D01*
X164526848Y-129280115D01*
X164612604Y-129419883D01*
X164734768Y-129619115D01*
X164848321Y-129804916D01*
X164950576Y-129972842D01*
X165038843Y-130118450D01*
X165110434Y-130237297D01*
X165162662Y-130324939D01*
X165192837Y-130376932D01*
X165199400Y-130389772D01*
X165175196Y-130393919D01*
X165107361Y-130397599D01*
X165003064Y-130400633D01*
X164869475Y-130402839D01*
X164713762Y-130404036D01*
X164627900Y-130404200D01*
X164056400Y-130404200D01*
X164056400Y-129743800D01*
X163751600Y-129743800D01*
X163751600Y-131572600D01*
X164056400Y-131572600D01*
X164056400Y-130684379D01*
X164786650Y-130677639D01*
X165516900Y-130670900D01*
X165523973Y-130518500D01*
X165531045Y-130366100D01*
X164918189Y-129381850D01*
X164305332Y-128397600D01*
X164152749Y-128397600D01*
X164065432Y-128400397D01*
G36*
X162043533Y-128378741D02*
G01*
X162024400Y-128385108D01*
X162036855Y-128409889D01*
X162072191Y-128473104D01*
X162127374Y-128569500D01*
X162199363Y-128693820D01*
X162285123Y-128840812D01*
X162381614Y-129005219D01*
X162447254Y-129116570D01*
X162549375Y-129289561D01*
X162643205Y-129448585D01*
X162725626Y-129588356D01*
X162793523Y-129703585D01*
X162843779Y-129788985D01*
X162873278Y-129839267D01*
X162879803Y-129850536D01*
X162866190Y-129847286D01*
X162821061Y-129821010D01*
X162763633Y-129783671D01*
X162594080Y-129698639D01*
X162404394Y-129652980D01*
X162207891Y-129647835D01*
X162017884Y-129684343D01*
X161941128Y-129713293D01*
X161790673Y-129803680D01*
X161653167Y-129930698D01*
X161542620Y-130080188D01*
X161503172Y-130155933D01*
X161448487Y-130324393D01*
X161419510Y-130517432D01*
X161417576Y-130715055D01*
X161444018Y-130897270D01*
X161451758Y-130926414D01*
X161535492Y-131133243D01*
X161656390Y-131307214D01*
X161810766Y-131445664D01*
X161994929Y-131545929D01*
X162205194Y-131605345D01*
X162414426Y-131621685D01*
X162526477Y-131616145D01*
X162637004Y-131603431D01*
X162711995Y-131588668D01*
X162905014Y-131510975D01*
X163076236Y-131390381D01*
X163219274Y-131232394D01*
X163316367Y-131067648D01*
X163345391Y-131001149D01*
X163364609Y-130940349D01*
X163376003Y-130871993D01*
X163381556Y-130782829D01*
X163383248Y-130659602D01*
X163383280Y-130634595D01*
X163102732Y-130634595D01*
X163101232Y-130749096D01*
X163092648Y-130832044D01*
X163073050Y-130902589D01*
X163038512Y-130979877D01*
X163027382Y-131001911D01*
X162925827Y-131150587D01*
X162792478Y-131260032D01*
X162625237Y-131331944D01*
X162616923Y-131334313D01*
X162492384Y-131354027D01*
X162348680Y-131354195D01*
X162209593Y-131336066D01*
X162114392Y-131307892D01*
X161985980Y-131230331D01*
X161869556Y-131115081D01*
X161803238Y-131019812D01*
X161765891Y-130945573D01*
X161742703Y-130867347D01*
X161729311Y-130767003D01*
X161724333Y-130691941D01*
X161723606Y-130519542D01*
X161744207Y-130379944D01*
X161789800Y-130258318D01*
X161859132Y-130146559D01*
X161974365Y-130028660D01*
X162117194Y-129946006D01*
X162278037Y-129899218D01*
X162447317Y-129888918D01*
X162615454Y-129915727D01*
X162772868Y-129980268D01*
X162905362Y-130078647D01*
X163005075Y-130205250D01*
X163069240Y-130359874D01*
X163099628Y-130547503D01*
X163102732Y-130634595D01*
X163383280Y-130634595D01*
X163383300Y-130620100D01*
X163382542Y-130488274D01*
X163378496Y-130392182D01*
X163368502Y-130316758D01*
X163349903Y-130246939D01*
X163320040Y-130167662D01*
X163291405Y-130099400D01*
X163256176Y-130024407D01*
X163199236Y-129912675D01*
X163124445Y-129771355D01*
X163035663Y-129607602D01*
X162936752Y-129428569D01*
X162831571Y-129241410D01*
X162770501Y-129134200D01*
X162341494Y-128384900D01*
X162182947Y-128377337D01*
X162100828Y-128375653D01*
X162043533Y-128378741D01*
G37*
X162043533Y-128378741D02*
X162024400Y-128385108D01*
X162036855Y-128409889D01*
X162072191Y-128473104D01*
X162127374Y-128569500D01*
X162199363Y-128693820D01*
X162285123Y-128840812D01*
X162381614Y-129005219D01*
X162447254Y-129116570D01*
X162549375Y-129289561D01*
X162643205Y-129448585D01*
X162725626Y-129588356D01*
X162793523Y-129703585D01*
X162843779Y-129788985D01*
X162873278Y-129839267D01*
X162879803Y-129850536D01*
X162866190Y-129847286D01*
X162821061Y-129821010D01*
X162763633Y-129783671D01*
X162594080Y-129698639D01*
X162404394Y-129652980D01*
X162207891Y-129647835D01*
X162017884Y-129684343D01*
X161941128Y-129713293D01*
X161790673Y-129803680D01*
X161653167Y-129930698D01*
X161542620Y-130080188D01*
X161503172Y-130155933D01*
X161448487Y-130324393D01*
X161419510Y-130517432D01*
X161417576Y-130715055D01*
X161444018Y-130897270D01*
X161451758Y-130926414D01*
X161535492Y-131133243D01*
X161656390Y-131307214D01*
X161810766Y-131445664D01*
X161994929Y-131545929D01*
X162205194Y-131605345D01*
X162414426Y-131621685D01*
X162526477Y-131616145D01*
X162637004Y-131603431D01*
X162711995Y-131588668D01*
X162905014Y-131510975D01*
X163076236Y-131390381D01*
X163219274Y-131232394D01*
X163316367Y-131067648D01*
X163345391Y-131001149D01*
X163364609Y-130940349D01*
X163376003Y-130871993D01*
X163381556Y-130782829D01*
X163383248Y-130659602D01*
X163383280Y-130634595D01*
X163102732Y-130634595D01*
X163101232Y-130749096D01*
X163092648Y-130832044D01*
X163073050Y-130902589D01*
X163038512Y-130979877D01*
X163027382Y-131001911D01*
X162925827Y-131150587D01*
X162792478Y-131260032D01*
X162625237Y-131331944D01*
X162616923Y-131334313D01*
X162492384Y-131354027D01*
X162348680Y-131354195D01*
X162209593Y-131336066D01*
X162114392Y-131307892D01*
X161985980Y-131230331D01*
X161869556Y-131115081D01*
X161803238Y-131019812D01*
X161765891Y-130945573D01*
X161742703Y-130867347D01*
X161729311Y-130767003D01*
X161724333Y-130691941D01*
X161723606Y-130519542D01*
X161744207Y-130379944D01*
X161789800Y-130258318D01*
X161859132Y-130146559D01*
X161974365Y-130028660D01*
X162117194Y-129946006D01*
X162278037Y-129899218D01*
X162447317Y-129888918D01*
X162615454Y-129915727D01*
X162772868Y-129980268D01*
X162905362Y-130078647D01*
X163005075Y-130205250D01*
X163069240Y-130359874D01*
X163099628Y-130547503D01*
X163102732Y-130634595D01*
X163383280Y-130634595D01*
X163383300Y-130620100D01*
X163382542Y-130488274D01*
X163378496Y-130392182D01*
X163368502Y-130316758D01*
X163349903Y-130246939D01*
X163320040Y-130167662D01*
X163291405Y-130099400D01*
X163256176Y-130024407D01*
X163199236Y-129912675D01*
X163124445Y-129771355D01*
X163035663Y-129607602D01*
X162936752Y-129428569D01*
X162831571Y-129241410D01*
X162770501Y-129134200D01*
X162341494Y-128384900D01*
X162182947Y-128377337D01*
X162100828Y-128375653D01*
X162043533Y-128378741D01*
%TD*%
D12*
%TO.C,J2*%
X214300000Y-32500000D03*
D13*
X212300000Y-32500000D03*
X210300000Y-32500000D03*
X208300000Y-32500000D03*
%TD*%
D14*
%TO.C,D19*%
G36*
X147109878Y-102767302D02*
G01*
X147283527Y-101782494D01*
X148662258Y-102025602D01*
X148488609Y-103010410D01*
X147109878Y-102767302D01*
G37*
G36*
X143613810Y-102150850D02*
G01*
X143787459Y-101166042D01*
X145166190Y-101409150D01*
X144992541Y-102393958D01*
X143613810Y-102150850D01*
G37*
%TD*%
D15*
%TO.C,U1*%
X162381400Y-29272000D03*
X162381400Y-31812000D03*
X162381400Y-34352000D03*
X162381400Y-36892000D03*
X162381400Y-39432000D03*
X162381400Y-41972000D03*
X162381400Y-44512000D03*
X162381400Y-47052000D03*
X162381400Y-49592000D03*
X162381400Y-52132000D03*
X162381400Y-54672000D03*
X162381400Y-57212000D03*
X177601400Y-57212000D03*
X177601400Y-54672000D03*
X177601400Y-52132000D03*
X177601400Y-49592000D03*
X177601400Y-47052000D03*
X177601400Y-44512000D03*
X177601400Y-41972000D03*
X177601400Y-39432000D03*
X177601400Y-36892000D03*
X177601400Y-34352000D03*
X177601400Y-31812000D03*
X177601400Y-29272000D03*
%TD*%
D16*
%TO.C,SW47*%
X172325000Y-34360000D03*
X167675000Y-34360000D03*
D17*
X170000000Y-33460000D03*
X170000000Y-35260000D03*
%TD*%
D18*
%TO.C,J1*%
X173800000Y-60270000D03*
D19*
X171260000Y-60270000D03*
X168720000Y-60270000D03*
X166180000Y-60270000D03*
%TD*%
D20*
%TO.C,SW12*%
X144700033Y-69374141D03*
X157871710Y-69117479D03*
D21*
X154619874Y-68544093D03*
X147925279Y-69942839D03*
D14*
G36*
X159344400Y-68107871D02*
G01*
X158910280Y-70569890D01*
X156399020Y-70127087D01*
X156833140Y-67665068D01*
X159344400Y-68107871D01*
G37*
D22*
X146233507Y-72223717D03*
X156239153Y-73987983D03*
D23*
X151236330Y-73105850D03*
D14*
G36*
X146172723Y-68364533D02*
G01*
X145738603Y-70826552D01*
X143227343Y-70383749D01*
X143661463Y-67921730D01*
X146172723Y-68364533D01*
G37*
%TD*%
D21*
%TO.C,SW19*%
X144617281Y-88703427D03*
D20*
X154563712Y-87878067D03*
X141392035Y-88134729D03*
D21*
X151311876Y-87304681D03*
D14*
G36*
X156036402Y-86868459D02*
G01*
X155602282Y-89330478D01*
X153091022Y-88887675D01*
X153525142Y-86425656D01*
X156036402Y-86868459D01*
G37*
G36*
X142864725Y-87125121D02*
G01*
X142430605Y-89587140D01*
X139919345Y-89144337D01*
X140353465Y-86682318D01*
X142864725Y-87125121D01*
G37*
D24*
X147928332Y-91866438D03*
D25*
X152931155Y-92748571D03*
X142925509Y-90984305D03*
D14*
G36*
X150881553Y-83756044D02*
G01*
X152851169Y-84103340D01*
X152503873Y-86072956D01*
X150534257Y-85725660D01*
X150881553Y-83756044D01*
G37*
D26*
X149230693Y-84480380D03*
X146768674Y-84046259D03*
G36*
G01*
X153686362Y-91460137D02*
X153686362Y-91460137D01*
G75*
G02*
X154294732Y-92328979I-130236J-738606D01*
G01*
X154068990Y-93609229D01*
G75*
G02*
X153200148Y-94217599I-738606J130236D01*
G01*
X153200148Y-94217599D01*
G75*
G02*
X152591778Y-93348757I130236J738606D01*
G01*
X152817520Y-92068507D01*
G75*
G02*
X153686362Y-91460137I738606J-130236D01*
G01*
G37*
G36*
G01*
X142656516Y-89515277D02*
X142656516Y-89515277D01*
G75*
G02*
X143264886Y-90384119I-130236J-738606D01*
G01*
X143039144Y-91664369D01*
G75*
G02*
X142170302Y-92272739I-738606J130236D01*
G01*
X142170302Y-92272739D01*
G75*
G02*
X141561932Y-91403897I130236J738606D01*
G01*
X141787674Y-90123647D01*
G75*
G02*
X142656516Y-89515277I738606J-130236D01*
G01*
G37*
X149174814Y-99194213D03*
X144250775Y-98325972D03*
%TD*%
D21*
%TO.C,SW36*%
X187878484Y-90026626D03*
D20*
X196942782Y-85849162D03*
X184653239Y-90595324D03*
D21*
X193690947Y-86422548D03*
D14*
G36*
X197981352Y-84396751D02*
G01*
X198415472Y-86858770D01*
X195904212Y-87301573D01*
X195470092Y-84839554D01*
X197981352Y-84396751D01*
G37*
G36*
X185691809Y-89142913D02*
G01*
X186125929Y-91604932D01*
X183614669Y-92047735D01*
X183180549Y-89585716D01*
X185691809Y-89142913D01*
G37*
D24*
X192071668Y-91866438D03*
D25*
X197074491Y-90984305D03*
X187068845Y-92748571D03*
D14*
G36*
X192072870Y-83235099D02*
G01*
X194042486Y-82887803D01*
X194389782Y-84857419D01*
X192420166Y-85204715D01*
X192072870Y-83235099D01*
G37*
D26*
X190769307Y-84480380D03*
X188307287Y-84914500D03*
G36*
G01*
X197343484Y-89515277D02*
X197343484Y-89515277D01*
G75*
G02*
X198212326Y-90123647I130236J-738606D01*
G01*
X198438068Y-91403897D01*
G75*
G02*
X197829698Y-92272739I-738606J-130236D01*
G01*
X197829698Y-92272739D01*
G75*
G02*
X196960856Y-91664369I-130236J738606D01*
G01*
X196735114Y-90384119D01*
G75*
G02*
X197343484Y-89515277I738606J130236D01*
G01*
G37*
G36*
G01*
X186313638Y-91460137D02*
X186313638Y-91460137D01*
G75*
G02*
X187182480Y-92068507I130236J-738606D01*
G01*
X187408222Y-93348757D01*
G75*
G02*
X186799852Y-94217599I-738606J-130236D01*
G01*
X186799852Y-94217599D01*
G75*
G02*
X185931010Y-93609229I-130236J738606D01*
G01*
X185705268Y-92328979D01*
G75*
G02*
X186313638Y-91460137I738606J130236D01*
G01*
G37*
X195749225Y-98325972D03*
X190825186Y-99194213D03*
%TD*%
D20*
%TO.C,SW1*%
X45715000Y-49035000D03*
X58642000Y-46495000D03*
D21*
X55340000Y-46495000D03*
X48990000Y-49035000D03*
D27*
X58642000Y-46495000D03*
D22*
X47720000Y-51575000D03*
X57880000Y-51575000D03*
D23*
X52800000Y-51575000D03*
D27*
X45715000Y-49035000D03*
%TD*%
D20*
%TO.C,SW2*%
X69995304Y-38134858D03*
X83116991Y-36960012D03*
D21*
X79833079Y-36614859D03*
X73252363Y-38477189D03*
D14*
G36*
X84515667Y-35850133D02*
G01*
X84254346Y-38336438D01*
X81718315Y-38069891D01*
X81979636Y-35583586D01*
X84515667Y-35850133D01*
G37*
D22*
X71723818Y-40870523D03*
X81828160Y-41932533D03*
D23*
X76775989Y-41401528D03*
D14*
G36*
X71393980Y-37024979D02*
G01*
X71132659Y-39511284D01*
X68596628Y-39244737D01*
X68857949Y-36758432D01*
X71393980Y-37024979D01*
G37*
%TD*%
D20*
%TO.C,SW3*%
X93380267Y-31309266D03*
X106551944Y-31052604D03*
D21*
X103300108Y-30479218D03*
X96605513Y-31877964D03*
D14*
G36*
X108024634Y-30042996D02*
G01*
X107590514Y-32505015D01*
X105079254Y-32062212D01*
X105513374Y-29600193D01*
X108024634Y-30042996D01*
G37*
D22*
X94913741Y-34158842D03*
X104919387Y-35923108D03*
D23*
X99916564Y-35040975D03*
D14*
G36*
X94852957Y-30299658D02*
G01*
X94418837Y-32761677D01*
X91907577Y-32318874D01*
X92341697Y-29856855D01*
X94852957Y-30299658D01*
G37*
%TD*%
D20*
%TO.C,SW4*%
X111313855Y-39307411D03*
X124485532Y-39050749D03*
D21*
X121233696Y-38477363D03*
X114539101Y-39876109D03*
D14*
G36*
X125958222Y-38041141D02*
G01*
X125524102Y-40503160D01*
X123012842Y-40060357D01*
X123446962Y-37598338D01*
X125958222Y-38041141D01*
G37*
D22*
X112847329Y-42156987D03*
X122852975Y-43921253D03*
D23*
X117850152Y-43039120D03*
D14*
G36*
X112786545Y-38297803D02*
G01*
X112352425Y-40759822D01*
X109841165Y-40317019D01*
X110275285Y-37855000D01*
X112786545Y-38297803D01*
G37*
%TD*%
D20*
%TO.C,SW5*%
X129660943Y-44960482D03*
X142832620Y-44703820D03*
D21*
X139580784Y-44130434D03*
X132886189Y-45529180D03*
D14*
G36*
X144305310Y-43694212D02*
G01*
X143871190Y-46156231D01*
X141359930Y-45713428D01*
X141794050Y-43251409D01*
X144305310Y-43694212D01*
G37*
D22*
X131194417Y-47810058D03*
X141200063Y-49574324D03*
D23*
X136197240Y-48692191D03*
D14*
G36*
X131133633Y-43950874D02*
G01*
X130699513Y-46412893D01*
X128188253Y-45970090D01*
X128622373Y-43508071D01*
X131133633Y-43950874D01*
G37*
%TD*%
D20*
%TO.C,SW6*%
X26665000Y-63322500D03*
X39592000Y-60782500D03*
D21*
X36290000Y-60782500D03*
X29940000Y-63322500D03*
D27*
X39592000Y-60782500D03*
D22*
X28670000Y-65862500D03*
X38830000Y-65862500D03*
D23*
X33750000Y-65862500D03*
D27*
X26665000Y-63322500D03*
%TD*%
D20*
%TO.C,SW7*%
X45715000Y-68085000D03*
X58642000Y-65545000D03*
D21*
X55340000Y-65545000D03*
X48990000Y-68085000D03*
D27*
X58642000Y-65545000D03*
D22*
X47720000Y-70625000D03*
X57880000Y-70625000D03*
D23*
X52800000Y-70625000D03*
D27*
X45715000Y-68085000D03*
%TD*%
D20*
%TO.C,SW8*%
X68004036Y-57080500D03*
X81125723Y-55905654D03*
D21*
X77841811Y-55560501D03*
X71261095Y-57422831D03*
D14*
G36*
X82524399Y-54795775D02*
G01*
X82263078Y-57282080D01*
X79727047Y-57015533D01*
X79988368Y-54529228D01*
X82524399Y-54795775D01*
G37*
D22*
X69732550Y-59816165D03*
X79836892Y-60878175D03*
D23*
X74784721Y-60347170D03*
D14*
G36*
X69402712Y-55970621D02*
G01*
X69141391Y-58456926D01*
X66605360Y-58190379D01*
X66866681Y-55704074D01*
X69402712Y-55970621D01*
G37*
%TD*%
D20*
%TO.C,SW9*%
X90072269Y-50069854D03*
X103243946Y-49813192D03*
D21*
X99992110Y-49239806D03*
X93297515Y-50638552D03*
D14*
G36*
X104716636Y-48803584D02*
G01*
X104282516Y-51265603D01*
X101771256Y-50822800D01*
X102205376Y-48360781D01*
X104716636Y-48803584D01*
G37*
D22*
X91605743Y-52919430D03*
X101611389Y-54683696D03*
D23*
X96608566Y-53801563D03*
D14*
G36*
X91544959Y-49060246D02*
G01*
X91110839Y-51522265D01*
X88599579Y-51079462D01*
X89033699Y-48617443D01*
X91544959Y-49060246D01*
G37*
%TD*%
D20*
%TO.C,SW10*%
X108005857Y-58067999D03*
X121177534Y-57811337D03*
D21*
X117925698Y-57237951D03*
X111231103Y-58636697D03*
D14*
G36*
X122650224Y-56801729D02*
G01*
X122216104Y-59263748D01*
X119704844Y-58820945D01*
X120138964Y-56358926D01*
X122650224Y-56801729D01*
G37*
D22*
X109539331Y-60917575D03*
X119544977Y-62681841D03*
D23*
X114542154Y-61799708D03*
D14*
G36*
X109478547Y-57058391D02*
G01*
X109044427Y-59520410D01*
X106533167Y-59077607D01*
X106967287Y-56615588D01*
X109478547Y-57058391D01*
G37*
%TD*%
D20*
%TO.C,SW11*%
X126352945Y-63721070D03*
X139524622Y-63464408D03*
D21*
X136272786Y-62891022D03*
X129578191Y-64289768D03*
D14*
G36*
X140997312Y-62454800D02*
G01*
X140563192Y-64916819D01*
X138051932Y-64474016D01*
X138486052Y-62011997D01*
X140997312Y-62454800D01*
G37*
D22*
X127886419Y-66570646D03*
X137892065Y-68334912D03*
D23*
X132889242Y-67452779D03*
D14*
G36*
X127825635Y-62711462D02*
G01*
X127391515Y-65173481D01*
X124880255Y-64730678D01*
X125314375Y-62268659D01*
X127825635Y-62711462D01*
G37*
%TD*%
D20*
%TO.C,SW13*%
X26665000Y-82372500D03*
X39592000Y-79832500D03*
D21*
X36290000Y-79832500D03*
X29940000Y-82372500D03*
D27*
X39592000Y-79832500D03*
D22*
X28670000Y-84912500D03*
X38830000Y-84912500D03*
D23*
X33750000Y-84912500D03*
D27*
X26665000Y-82372500D03*
%TD*%
D20*
%TO.C,SW14*%
X45715000Y-87135000D03*
X58642000Y-84595000D03*
D21*
X55340000Y-84595000D03*
X48990000Y-87135000D03*
D27*
X58642000Y-84595000D03*
D22*
X47720000Y-89675000D03*
X57880000Y-89675000D03*
D23*
X52800000Y-89675000D03*
D27*
X45715000Y-87135000D03*
%TD*%
D20*
%TO.C,SW15*%
X66012769Y-76026142D03*
X79134456Y-74851296D03*
D21*
X75850544Y-74506143D03*
X69269828Y-76368473D03*
D14*
G36*
X80533132Y-73741417D02*
G01*
X80271811Y-76227722D01*
X77735780Y-75961175D01*
X77997101Y-73474870D01*
X80533132Y-73741417D01*
G37*
D22*
X67741283Y-78761807D03*
X77845625Y-79823817D03*
D23*
X72793454Y-79292812D03*
D14*
G36*
X67411445Y-74916263D02*
G01*
X67150124Y-77402568D01*
X64614093Y-77136021D01*
X64875414Y-74649716D01*
X67411445Y-74916263D01*
G37*
%TD*%
D20*
%TO.C,SW16*%
X86764271Y-68830442D03*
X99935948Y-68573780D03*
D21*
X96684112Y-68000394D03*
X89989517Y-69399140D03*
D14*
G36*
X101408638Y-67564172D02*
G01*
X100974518Y-70026191D01*
X98463258Y-69583388D01*
X98897378Y-67121369D01*
X101408638Y-67564172D01*
G37*
D22*
X88297745Y-71680018D03*
X98303391Y-73444284D03*
D23*
X93300568Y-72562151D03*
D14*
G36*
X88236961Y-67820834D02*
G01*
X87802841Y-70282853D01*
X85291581Y-69840050D01*
X85725701Y-67378031D01*
X88236961Y-67820834D01*
G37*
%TD*%
D20*
%TO.C,SW17*%
X104697859Y-76828586D03*
X117869536Y-76571924D03*
D21*
X114617700Y-75998538D03*
X107923105Y-77397284D03*
D14*
G36*
X119342226Y-75562316D02*
G01*
X118908106Y-78024335D01*
X116396846Y-77581532D01*
X116830966Y-75119513D01*
X119342226Y-75562316D01*
G37*
D22*
X106231333Y-79678162D03*
X116236979Y-81442428D03*
D23*
X111234156Y-80560295D03*
D14*
G36*
X106170549Y-75818978D02*
G01*
X105736429Y-78280997D01*
X103225169Y-77838194D01*
X103659289Y-75376175D01*
X106170549Y-75818978D01*
G37*
%TD*%
D20*
%TO.C,SW18*%
X123044947Y-82481658D03*
X136216624Y-82224996D03*
D21*
X132964788Y-81651610D03*
X126270193Y-83050356D03*
D14*
G36*
X137689314Y-81215388D02*
G01*
X137255194Y-83677407D01*
X134743934Y-83234604D01*
X135178054Y-80772585D01*
X137689314Y-81215388D01*
G37*
D22*
X124578421Y-85331234D03*
X134584067Y-87095500D03*
D23*
X129581244Y-86213367D03*
D14*
G36*
X124517637Y-81472050D02*
G01*
X124083517Y-83934069D01*
X121572257Y-83491266D01*
X122006377Y-81029247D01*
X124517637Y-81472050D01*
G37*
%TD*%
D20*
%TO.C,SW20*%
X98397586Y-97291287D03*
X111569263Y-97034625D03*
D21*
X108317427Y-96461239D03*
X101622832Y-97859985D03*
D14*
G36*
X113041953Y-96025017D02*
G01*
X112607833Y-98487036D01*
X110096573Y-98044233D01*
X110530693Y-95582214D01*
X113041953Y-96025017D01*
G37*
D22*
X99931060Y-100140863D03*
X109936706Y-101905129D03*
D23*
X104933883Y-101022996D03*
D14*
G36*
X99870276Y-96281679D02*
G01*
X99436156Y-98743698D01*
X96924896Y-98300895D01*
X97359016Y-95838876D01*
X99870276Y-96281679D01*
G37*
%TD*%
D20*
%TO.C,SW21*%
X118709046Y-101336793D03*
X131788256Y-102915772D03*
D21*
X128647868Y-101895398D03*
X121823756Y-102348824D03*
D14*
G36*
X133387124Y-102120948D02*
G01*
X132614582Y-104498589D01*
X130189388Y-103710596D01*
X130961930Y-101332955D01*
X133387124Y-102120948D01*
G37*
D22*
X119831011Y-104372056D03*
X129493745Y-107511668D03*
D23*
X124662378Y-105941862D03*
D14*
G36*
X120307914Y-100541969D02*
G01*
X119535372Y-102919610D01*
X117110178Y-102131617D01*
X117882720Y-99753976D01*
X120307914Y-100541969D01*
G37*
%TD*%
D20*
%TO.C,SW22*%
X138259810Y-108169738D03*
X150991983Y-111553624D03*
D21*
X148024165Y-110106123D03*
X141203360Y-109605403D03*
D14*
G36*
X152685909Y-110989055D02*
G01*
X151589981Y-113236040D01*
X149298057Y-112118193D01*
X150393985Y-109871208D01*
X152685909Y-110989055D01*
G37*
D22*
X138948429Y-111331609D03*
X148080177Y-115785459D03*
D23*
X143514303Y-113558534D03*
D14*
G36*
X139953736Y-107605169D02*
G01*
X138857808Y-109852154D01*
X136565884Y-108734307D01*
X137661812Y-106487322D01*
X139953736Y-107605169D01*
G37*
%TD*%
D20*
%TO.C,SW23*%
X112822272Y-119454419D03*
X125901482Y-121033398D03*
D21*
X122761094Y-120013024D03*
X115936982Y-120466450D03*
D14*
G36*
X127500350Y-120238574D02*
G01*
X126727808Y-122616215D01*
X124302614Y-121828222D01*
X125075156Y-119450581D01*
X127500350Y-120238574D01*
G37*
D22*
X113944237Y-122489682D03*
X123606971Y-125629294D03*
D23*
X118775604Y-124059488D03*
D14*
G36*
X114421140Y-118659595D02*
G01*
X113648598Y-121037236D01*
X111223404Y-120249243D01*
X111995946Y-117871602D01*
X114421140Y-118659595D01*
G37*
%TD*%
D20*
%TO.C,SW24*%
X196384331Y-47421077D03*
X208673874Y-42674915D03*
D21*
X205422039Y-43248301D03*
X199609576Y-46852379D03*
D14*
G36*
X209712444Y-41222504D02*
G01*
X210146564Y-43684523D01*
X207635304Y-44127326D01*
X207201184Y-41665307D01*
X209712444Y-41222504D01*
G37*
D22*
X198799937Y-49574324D03*
X208805583Y-47810058D03*
D23*
X203802760Y-48692191D03*
D14*
G36*
X197422901Y-45968666D02*
G01*
X197857021Y-48430685D01*
X195345761Y-48873488D01*
X194911641Y-46411469D01*
X197422901Y-45968666D01*
G37*
%TD*%
D20*
%TO.C,SW25*%
X214731419Y-41768006D03*
X227020962Y-37021844D03*
D21*
X223769127Y-37595230D03*
X217956664Y-41199308D03*
D14*
G36*
X228059532Y-35569433D02*
G01*
X228493652Y-38031452D01*
X225982392Y-38474255D01*
X225548272Y-36012236D01*
X228059532Y-35569433D01*
G37*
D22*
X217147025Y-43921253D03*
X227152671Y-42156987D03*
D23*
X222149848Y-43039120D03*
D14*
G36*
X215769989Y-40315595D02*
G01*
X216204109Y-42777614D01*
X213692849Y-43220417D01*
X213258729Y-40758398D01*
X215769989Y-40315595D01*
G37*
%TD*%
D20*
%TO.C,SW26*%
X232665007Y-33769861D03*
X244954550Y-29023699D03*
D21*
X241702715Y-29597085D03*
X235890252Y-33201163D03*
D14*
G36*
X245993120Y-27571288D02*
G01*
X246427240Y-30033307D01*
X243915980Y-30476110D01*
X243481860Y-28014091D01*
X245993120Y-27571288D01*
G37*
D22*
X235080613Y-35923108D03*
X245086259Y-34158842D03*
D23*
X240083436Y-35040975D03*
D14*
G36*
X233703577Y-32317450D02*
G01*
X234137697Y-34779469D01*
X231626437Y-35222272D01*
X231192317Y-32760253D01*
X233703577Y-32317450D01*
G37*
%TD*%
D20*
%TO.C,SW27*%
X255912321Y-39616027D03*
X268503003Y-35738701D03*
D21*
X265219092Y-36083854D03*
X259169380Y-39273696D03*
D14*
G36*
X269640358Y-34362275D02*
G01*
X269901679Y-36848580D01*
X267365648Y-37115127D01*
X267104327Y-34628822D01*
X269640358Y-34362275D01*
G37*
D22*
X258171840Y-41932533D03*
X268276182Y-40870523D03*
D23*
X263224011Y-41401528D03*
D14*
G36*
X257049676Y-38239601D02*
G01*
X257310997Y-40725906D01*
X254774966Y-40992453D01*
X254513645Y-38506148D01*
X257049676Y-38239601D01*
G37*
%TD*%
D20*
%TO.C,SW28*%
X280115000Y-49035000D03*
X293042000Y-46495000D03*
D21*
X289740000Y-46495000D03*
X283390000Y-49035000D03*
D27*
X293042000Y-46495000D03*
D22*
X282120000Y-51575000D03*
X292280000Y-51575000D03*
D23*
X287200000Y-51575000D03*
D27*
X280115000Y-49035000D03*
%TD*%
D20*
%TO.C,SW29*%
X181345241Y-71834736D03*
X193634784Y-67088574D03*
D21*
X190382949Y-67661960D03*
X184570486Y-71266038D03*
D14*
G36*
X194673354Y-65636163D02*
G01*
X195107474Y-68098182D01*
X192596214Y-68540985D01*
X192162094Y-66078966D01*
X194673354Y-65636163D01*
G37*
D22*
X183760847Y-73987983D03*
X193766493Y-72223717D03*
D23*
X188763670Y-73105850D03*
D14*
G36*
X182383811Y-70382325D02*
G01*
X182817931Y-72844344D01*
X180306671Y-73287147D01*
X179872551Y-70825128D01*
X182383811Y-70382325D01*
G37*
%TD*%
D20*
%TO.C,SW30*%
X199692329Y-66181665D03*
X211981872Y-61435503D03*
D21*
X208730037Y-62008889D03*
X202917574Y-65612967D03*
D14*
G36*
X213020442Y-59983092D02*
G01*
X213454562Y-62445111D01*
X210943302Y-62887914D01*
X210509182Y-60425895D01*
X213020442Y-59983092D01*
G37*
D22*
X202107935Y-68334912D03*
X212113581Y-66570646D03*
D23*
X207110758Y-67452779D03*
D14*
G36*
X200730899Y-64729254D02*
G01*
X201165019Y-67191273D01*
X198653759Y-67634076D01*
X198219639Y-65172057D01*
X200730899Y-64729254D01*
G37*
%TD*%
D20*
%TO.C,SW31*%
X218039417Y-60528594D03*
X230328960Y-55782432D03*
D21*
X227077125Y-56355818D03*
X221264662Y-59959896D03*
D14*
G36*
X231367530Y-54330021D02*
G01*
X231801650Y-56792040D01*
X229290390Y-57234843D01*
X228856270Y-54772824D01*
X231367530Y-54330021D01*
G37*
D22*
X220455023Y-62681841D03*
X230460669Y-60917575D03*
D23*
X225457846Y-61799708D03*
D14*
G36*
X219077987Y-59076183D02*
G01*
X219512107Y-61538202D01*
X217000847Y-61981005D01*
X216566727Y-59518986D01*
X219077987Y-59076183D01*
G37*
%TD*%
D20*
%TO.C,SW32*%
X235973005Y-52530449D03*
X248262548Y-47784287D03*
D21*
X245010713Y-48357673D03*
X239198250Y-51961751D03*
D14*
G36*
X249301118Y-46331876D02*
G01*
X249735238Y-48793895D01*
X247223978Y-49236698D01*
X246789858Y-46774679D01*
X249301118Y-46331876D01*
G37*
D22*
X238388611Y-54683696D03*
X248394257Y-52919430D03*
D23*
X243391434Y-53801563D03*
D14*
G36*
X237011575Y-51078038D02*
G01*
X237445695Y-53540057D01*
X234934435Y-53982860D01*
X234500315Y-51520841D01*
X237011575Y-51078038D01*
G37*
%TD*%
D20*
%TO.C,SW33*%
X257903589Y-58561669D03*
X270494271Y-54684343D03*
D21*
X267210360Y-55029496D03*
X261160648Y-58219338D03*
D14*
G36*
X271631626Y-53307917D02*
G01*
X271892947Y-55794222D01*
X269356916Y-56060769D01*
X269095595Y-53574464D01*
X271631626Y-53307917D01*
G37*
D22*
X260163108Y-60878175D03*
X270267450Y-59816165D03*
D23*
X265215279Y-60347170D03*
D14*
G36*
X259040944Y-57185243D02*
G01*
X259302265Y-59671548D01*
X256766234Y-59938095D01*
X256504913Y-57451790D01*
X259040944Y-57185243D01*
G37*
%TD*%
D20*
%TO.C,SW34*%
X280115000Y-68085000D03*
X293042000Y-65545000D03*
D21*
X289740000Y-65545000D03*
X283390000Y-68085000D03*
D27*
X293042000Y-65545000D03*
D22*
X282120000Y-70625000D03*
X292280000Y-70625000D03*
D23*
X287200000Y-70625000D03*
D27*
X280115000Y-68085000D03*
%TD*%
D20*
%TO.C,SW35*%
X299165000Y-63322500D03*
X312092000Y-60782500D03*
D21*
X308790000Y-60782500D03*
X302440000Y-63322500D03*
D27*
X312092000Y-60782500D03*
D22*
X301170000Y-65862500D03*
X311330000Y-65862500D03*
D23*
X306250000Y-65862500D03*
D27*
X299165000Y-63322500D03*
%TD*%
D20*
%TO.C,SW37*%
X203000327Y-84942253D03*
X215289870Y-80196091D03*
D21*
X212038035Y-80769477D03*
X206225572Y-84373555D03*
D14*
G36*
X216328440Y-78743680D02*
G01*
X216762560Y-81205699D01*
X214251300Y-81648502D01*
X213817180Y-79186483D01*
X216328440Y-78743680D01*
G37*
D22*
X205415933Y-87095500D03*
X215421579Y-85331234D03*
D23*
X210418756Y-86213367D03*
D14*
G36*
X204038897Y-83489842D02*
G01*
X204473017Y-85951861D01*
X201961757Y-86394664D01*
X201527637Y-83932645D01*
X204038897Y-83489842D01*
G37*
%TD*%
D20*
%TO.C,SW38*%
X221347415Y-79289181D03*
X233636958Y-74543019D03*
D21*
X230385123Y-75116405D03*
X224572660Y-78720483D03*
D14*
G36*
X234675528Y-73090608D02*
G01*
X235109648Y-75552627D01*
X232598388Y-75995430D01*
X232164268Y-73533411D01*
X234675528Y-73090608D01*
G37*
D22*
X223763021Y-81442428D03*
X233768667Y-79678162D03*
D23*
X228765844Y-80560295D03*
D14*
G36*
X222385985Y-77836770D02*
G01*
X222820105Y-80298789D01*
X220308845Y-80741592D01*
X219874725Y-78279573D01*
X222385985Y-77836770D01*
G37*
%TD*%
D20*
%TO.C,SW39*%
X239281003Y-71291037D03*
X251570546Y-66544875D03*
D21*
X248318711Y-67118261D03*
X242506248Y-70722339D03*
D14*
G36*
X252609116Y-65092464D02*
G01*
X253043236Y-67554483D01*
X250531976Y-67997286D01*
X250097856Y-65535267D01*
X252609116Y-65092464D01*
G37*
D22*
X241696609Y-73444284D03*
X251702255Y-71680018D03*
D23*
X246699432Y-72562151D03*
D14*
G36*
X240319573Y-69838626D02*
G01*
X240753693Y-72300645D01*
X238242433Y-72743448D01*
X237808313Y-70281429D01*
X240319573Y-69838626D01*
G37*
%TD*%
D20*
%TO.C,SW40*%
X259894856Y-77507311D03*
X272485538Y-73629985D03*
D21*
X269201627Y-73975138D03*
X263151915Y-77164980D03*
D14*
G36*
X273622893Y-72253559D02*
G01*
X273884214Y-74739864D01*
X271348183Y-75006411D01*
X271086862Y-72520106D01*
X273622893Y-72253559D01*
G37*
D22*
X262154375Y-79823817D03*
X272258717Y-78761807D03*
D23*
X267206546Y-79292812D03*
D14*
G36*
X261032211Y-76130885D02*
G01*
X261293532Y-78617190D01*
X258757501Y-78883737D01*
X258496180Y-76397432D01*
X261032211Y-76130885D01*
G37*
%TD*%
D20*
%TO.C,SW41*%
X280115000Y-87135000D03*
X293042000Y-84595000D03*
D21*
X289740000Y-84595000D03*
X283390000Y-87135000D03*
D27*
X293042000Y-84595000D03*
D22*
X282120000Y-89675000D03*
X292280000Y-89675000D03*
D23*
X287200000Y-89675000D03*
D27*
X280115000Y-87135000D03*
%TD*%
D20*
%TO.C,SW42*%
X299165000Y-82372500D03*
X312092000Y-79832500D03*
D21*
X308790000Y-79832500D03*
X302440000Y-82372500D03*
D27*
X312092000Y-79832500D03*
D22*
X301170000Y-84912500D03*
X311330000Y-84912500D03*
D23*
X306250000Y-84912500D03*
D27*
X299165000Y-82372500D03*
%TD*%
D20*
%TO.C,SW43*%
X189004278Y-114381457D03*
X199509526Y-106431696D03*
D21*
X196541708Y-107879198D03*
X191947829Y-112945791D03*
D14*
G36*
X200107524Y-104749280D02*
G01*
X201203452Y-106996265D01*
X198911528Y-108114112D01*
X197815600Y-105867127D01*
X200107524Y-104749280D01*
G37*
D22*
X191919823Y-115785459D03*
X201051571Y-111331609D03*
D23*
X196485697Y-113558534D03*
D14*
G36*
X189602276Y-112699041D02*
G01*
X190698204Y-114946026D01*
X188406280Y-116063873D01*
X187310352Y-113816888D01*
X189602276Y-112699041D01*
G37*
%TD*%
D20*
%TO.C,SW44*%
X207814483Y-105715564D03*
X219323888Y-99305218D03*
D21*
X216183499Y-100325592D03*
X210929194Y-104703533D03*
D14*
G36*
X220150214Y-97722401D02*
G01*
X220922756Y-100100042D01*
X218497562Y-100888035D01*
X217725020Y-98510394D01*
X220150214Y-97722401D01*
G37*
D22*
X210506255Y-107511668D03*
X220168989Y-104372056D03*
D23*
X215337622Y-105941862D03*
D14*
G36*
X208640809Y-104132747D02*
G01*
X209413351Y-106510388D01*
X206988157Y-107298381D01*
X206215615Y-104920740D01*
X208640809Y-104132747D01*
G37*
%TD*%
D20*
%TO.C,SW45*%
X227647688Y-99751882D03*
X239937231Y-95005720D03*
D21*
X236685396Y-95579106D03*
X230872933Y-99183184D03*
D14*
G36*
X240975801Y-93553309D02*
G01*
X241409921Y-96015328D01*
X238898661Y-96458131D01*
X238464541Y-93996112D01*
X240975801Y-93553309D01*
G37*
D22*
X230063294Y-101905129D03*
X240068940Y-100140863D03*
D23*
X235066117Y-101022996D03*
D14*
G36*
X228686258Y-98299471D02*
G01*
X229120378Y-100761490D01*
X226609118Y-101204293D01*
X226174998Y-98742274D01*
X228686258Y-98299471D01*
G37*
%TD*%
D20*
%TO.C,SW46*%
X213701257Y-123833190D03*
X225210662Y-117422844D03*
D21*
X222070273Y-118443218D03*
X216815968Y-122821159D03*
D14*
G36*
X226036988Y-115840027D02*
G01*
X226809530Y-118217668D01*
X224384336Y-119005661D01*
X223611794Y-116628020D01*
X226036988Y-115840027D01*
G37*
D22*
X216393029Y-125629294D03*
X226055763Y-122489682D03*
D23*
X221224396Y-124059488D03*
D14*
G36*
X214527583Y-122250373D02*
G01*
X215300125Y-124628014D01*
X212874931Y-125416007D01*
X212102389Y-123038366D01*
X214527583Y-122250373D01*
G37*
%TD*%
D28*
%TO.C,JP1*%
X151550000Y-46750000D03*
X153950000Y-46750000D03*
D14*
G36*
X153750000Y-46750000D02*
G01*
X154250000Y-46000000D01*
X155250000Y-46000000D01*
X155250000Y-47500000D01*
X154250000Y-47500000D01*
X153750000Y-46750000D01*
G37*
G36*
X151750000Y-46750000D02*
G01*
X151250000Y-47500000D01*
X150250000Y-47500000D01*
X150250000Y-46000000D01*
X151250000Y-46000000D01*
X151750000Y-46750000D01*
G37*
%TD*%
D29*
%TO.C,D1*%
X54575000Y-57290000D03*
X51025000Y-57290000D03*
%TD*%
D14*
%TO.C,D2*%
G36*
X77195454Y-47694849D02*
G01*
X77299983Y-46700327D01*
X78692314Y-46846667D01*
X78587785Y-47841189D01*
X77195454Y-47694849D01*
G37*
G36*
X73664902Y-47323773D02*
G01*
X73769431Y-46329251D01*
X75161762Y-46475591D01*
X75057233Y-47470113D01*
X73664902Y-47323773D01*
G37*
%TD*%
%TO.C,D3*%
G36*
X96399940Y-40731775D02*
G01*
X96573589Y-39746967D01*
X97952320Y-39990075D01*
X97778671Y-40974883D01*
X96399940Y-40731775D01*
G37*
G36*
X99896008Y-41348227D02*
G01*
X100069657Y-40363419D01*
X101448388Y-40606527D01*
X101274739Y-41591335D01*
X99896008Y-41348227D01*
G37*
%TD*%
%TO.C,D4*%
G36*
X114333528Y-48729920D02*
G01*
X114507177Y-47745112D01*
X115885908Y-47988220D01*
X115712259Y-48973028D01*
X114333528Y-48729920D01*
G37*
G36*
X117829596Y-49346372D02*
G01*
X118003245Y-48361564D01*
X119381976Y-48604672D01*
X119208327Y-49589480D01*
X117829596Y-49346372D01*
G37*
%TD*%
%TO.C,D5*%
G36*
X132680616Y-54382991D02*
G01*
X132854265Y-53398183D01*
X134232996Y-53641291D01*
X134059347Y-54626099D01*
X132680616Y-54382991D01*
G37*
G36*
X136176684Y-54999443D02*
G01*
X136350333Y-54014635D01*
X137729064Y-54257743D01*
X137555415Y-55242551D01*
X136176684Y-54999443D01*
G37*
%TD*%
D29*
%TO.C,D6*%
X31975000Y-71577500D03*
X35525000Y-71577500D03*
%TD*%
%TO.C,D7*%
X54575000Y-76340000D03*
X51025000Y-76340000D03*
%TD*%
D14*
%TO.C,D8*%
G36*
X75204186Y-66640491D02*
G01*
X75308715Y-65645969D01*
X76701046Y-65792309D01*
X76596517Y-66786831D01*
X75204186Y-66640491D01*
G37*
G36*
X71673634Y-66269415D02*
G01*
X71778163Y-65274893D01*
X73170494Y-65421233D01*
X73065965Y-66415755D01*
X71673634Y-66269415D01*
G37*
%TD*%
%TO.C,D9*%
G36*
X93091942Y-59492363D02*
G01*
X93265591Y-58507555D01*
X94644322Y-58750663D01*
X94470673Y-59735471D01*
X93091942Y-59492363D01*
G37*
G36*
X96588010Y-60108815D02*
G01*
X96761659Y-59124007D01*
X98140390Y-59367115D01*
X97966741Y-60351923D01*
X96588010Y-60108815D01*
G37*
%TD*%
%TO.C,D10*%
G36*
X111025530Y-67490508D02*
G01*
X111199179Y-66505700D01*
X112577910Y-66748808D01*
X112404261Y-67733616D01*
X111025530Y-67490508D01*
G37*
G36*
X114521598Y-68106960D02*
G01*
X114695247Y-67122152D01*
X116073978Y-67365260D01*
X115900329Y-68350068D01*
X114521598Y-68106960D01*
G37*
%TD*%
%TO.C,D11*%
G36*
X129372618Y-73143579D02*
G01*
X129546267Y-72158771D01*
X130924998Y-72401879D01*
X130751349Y-73386687D01*
X129372618Y-73143579D01*
G37*
G36*
X132868686Y-73760031D02*
G01*
X133042335Y-72775223D01*
X134421066Y-73018331D01*
X134247417Y-74003139D01*
X132868686Y-73760031D01*
G37*
%TD*%
%TO.C,D12*%
G36*
X151215774Y-79413102D02*
G01*
X151389423Y-78428294D01*
X152768154Y-78671402D01*
X152594505Y-79656210D01*
X151215774Y-79413102D01*
G37*
G36*
X147719706Y-78796650D02*
G01*
X147893355Y-77811842D01*
X149272086Y-78054950D01*
X149098437Y-79039758D01*
X147719706Y-78796650D01*
G37*
%TD*%
D29*
%TO.C,D13*%
X31975000Y-76150000D03*
X35525000Y-76150000D03*
%TD*%
%TO.C,D14*%
X54575000Y-81000000D03*
X51025000Y-81000000D03*
%TD*%
D14*
%TO.C,D15*%
G36*
X73212919Y-85586133D02*
G01*
X73317448Y-84591611D01*
X74709779Y-84737951D01*
X74605250Y-85732473D01*
X73212919Y-85586133D01*
G37*
G36*
X69682367Y-85215057D02*
G01*
X69786896Y-84220535D01*
X71179227Y-84366875D01*
X71074698Y-85361397D01*
X69682367Y-85215057D01*
G37*
%TD*%
%TO.C,D16*%
G36*
X89783944Y-78252951D02*
G01*
X89957593Y-77268143D01*
X91336324Y-77511251D01*
X91162675Y-78496059D01*
X89783944Y-78252951D01*
G37*
G36*
X93280012Y-78869403D02*
G01*
X93453661Y-77884595D01*
X94832392Y-78127703D01*
X94658743Y-79112511D01*
X93280012Y-78869403D01*
G37*
%TD*%
%TO.C,D17*%
G36*
X111213600Y-86867547D02*
G01*
X111387249Y-85882739D01*
X112765980Y-86125847D01*
X112592331Y-87110655D01*
X111213600Y-86867547D01*
G37*
G36*
X107717532Y-86251095D02*
G01*
X107891181Y-85266287D01*
X109269912Y-85509395D01*
X109096263Y-86494203D01*
X107717532Y-86251095D01*
G37*
%TD*%
%TO.C,D18*%
G36*
X126064620Y-91904167D02*
G01*
X126238269Y-90919359D01*
X127617000Y-91162467D01*
X127443351Y-92147275D01*
X126064620Y-91904167D01*
G37*
G36*
X129560688Y-92520619D02*
G01*
X129734337Y-91535811D01*
X131113068Y-91778919D01*
X130939419Y-92763727D01*
X129560688Y-92520619D01*
G37*
%TD*%
%TO.C,D20*%
G36*
X103825776Y-92512624D02*
G01*
X103999425Y-91527816D01*
X105378156Y-91770924D01*
X105204507Y-92755732D01*
X103825776Y-92512624D01*
G37*
G36*
X107321844Y-93129076D02*
G01*
X107495493Y-92144268D01*
X108874224Y-92387376D01*
X108700575Y-93372184D01*
X107321844Y-93129076D01*
G37*
%TD*%
%TO.C,D21*%
G36*
X123764222Y-112184870D02*
G01*
X124073239Y-111233814D01*
X125404718Y-111666438D01*
X125095701Y-112617494D01*
X123764222Y-112184870D01*
G37*
G36*
X120387972Y-111087860D02*
G01*
X120696989Y-110136804D01*
X122028468Y-110569428D01*
X121719451Y-111520484D01*
X120387972Y-111087860D01*
G37*
%TD*%
%TO.C,D22*%
G36*
X141756029Y-119615787D02*
G01*
X142194400Y-118716993D01*
X143452711Y-119330713D01*
X143014340Y-120229507D01*
X141756029Y-119615787D01*
G37*
G36*
X138565311Y-118059569D02*
G01*
X139003682Y-117160775D01*
X140261993Y-117774495D01*
X139823622Y-118673289D01*
X138565311Y-118059569D01*
G37*
%TD*%
%TO.C,D23*%
G36*
X114501198Y-129205486D02*
G01*
X114810215Y-128254430D01*
X116141694Y-128687054D01*
X115832677Y-129638110D01*
X114501198Y-129205486D01*
G37*
G36*
X117877448Y-130302496D02*
G01*
X118186465Y-129351440D01*
X119517944Y-129784064D01*
X119208927Y-130735120D01*
X117877448Y-130302496D01*
G37*
%TD*%
%TO.C,D24*%
G36*
X202444584Y-55242551D02*
G01*
X202270935Y-54257743D01*
X203649666Y-54014635D01*
X203823315Y-54999443D01*
X202444584Y-55242551D01*
G37*
G36*
X205940652Y-54626099D02*
G01*
X205767003Y-53641291D01*
X207145734Y-53398183D01*
X207319383Y-54382991D01*
X205940652Y-54626099D01*
G37*
%TD*%
%TO.C,D25*%
G36*
X224287740Y-48973028D02*
G01*
X224114091Y-47988220D01*
X225492822Y-47745112D01*
X225666471Y-48729920D01*
X224287740Y-48973028D01*
G37*
G36*
X220791672Y-49589480D02*
G01*
X220618023Y-48604672D01*
X221996754Y-48361564D01*
X222170403Y-49346372D01*
X220791672Y-49589480D01*
G37*
%TD*%
%TO.C,D26*%
G36*
X238725260Y-41591335D02*
G01*
X238551611Y-40606527D01*
X239930342Y-40363419D01*
X240103991Y-41348227D01*
X238725260Y-41591335D01*
G37*
G36*
X242221328Y-40974883D02*
G01*
X242047679Y-39990075D01*
X243426410Y-39746967D01*
X243600059Y-40731775D01*
X242221328Y-40974883D01*
G37*
%TD*%
%TO.C,D27*%
G36*
X264942766Y-47470113D02*
G01*
X264838237Y-46475591D01*
X266230568Y-46329251D01*
X266335097Y-47323773D01*
X264942766Y-47470113D01*
G37*
G36*
X261412214Y-47841189D02*
G01*
X261307685Y-46846667D01*
X262700016Y-46700327D01*
X262804545Y-47694849D01*
X261412214Y-47841189D01*
G37*
%TD*%
D29*
%TO.C,D28*%
X285425000Y-57290000D03*
X288975000Y-57290000D03*
%TD*%
D14*
%TO.C,D29*%
G36*
X190901562Y-79039758D02*
G01*
X190727913Y-78054950D01*
X192106644Y-77811842D01*
X192280293Y-78796650D01*
X190901562Y-79039758D01*
G37*
G36*
X187405494Y-79656210D02*
G01*
X187231845Y-78671402D01*
X188610576Y-78428294D01*
X188784225Y-79413102D01*
X187405494Y-79656210D01*
G37*
%TD*%
%TO.C,D30*%
G36*
X205752582Y-74003139D02*
G01*
X205578933Y-73018331D01*
X206957664Y-72775223D01*
X207131313Y-73760031D01*
X205752582Y-74003139D01*
G37*
G36*
X209248650Y-73386687D02*
G01*
X209075001Y-72401879D01*
X210453732Y-72158771D01*
X210627381Y-73143579D01*
X209248650Y-73386687D01*
G37*
%TD*%
%TO.C,D31*%
G36*
X227595738Y-67733616D02*
G01*
X227422089Y-66748808D01*
X228800820Y-66505700D01*
X228974469Y-67490508D01*
X227595738Y-67733616D01*
G37*
G36*
X224099670Y-68350068D02*
G01*
X223926021Y-67365260D01*
X225304752Y-67122152D01*
X225478401Y-68106960D01*
X224099670Y-68350068D01*
G37*
%TD*%
%TO.C,D32*%
G36*
X242033258Y-60351923D02*
G01*
X241859609Y-59367115D01*
X243238340Y-59124007D01*
X243411989Y-60108815D01*
X242033258Y-60351923D01*
G37*
G36*
X245529326Y-59735471D02*
G01*
X245355677Y-58750663D01*
X246734408Y-58507555D01*
X246908057Y-59492363D01*
X245529326Y-59735471D01*
G37*
%TD*%
%TO.C,D33*%
G36*
X266934034Y-66415755D02*
G01*
X266829505Y-65421233D01*
X268221836Y-65274893D01*
X268326365Y-66269415D01*
X266934034Y-66415755D01*
G37*
G36*
X263403482Y-66786831D02*
G01*
X263298953Y-65792309D01*
X264691284Y-65645969D01*
X264795813Y-66640491D01*
X263403482Y-66786831D01*
G37*
%TD*%
D29*
%TO.C,D34*%
X285425000Y-76340000D03*
X288975000Y-76340000D03*
%TD*%
%TO.C,D35*%
X308025000Y-71577500D03*
X304475000Y-71577500D03*
%TD*%
D14*
%TO.C,D36*%
G36*
X195185493Y-102495732D02*
G01*
X195011844Y-101510924D01*
X196390575Y-101267816D01*
X196564224Y-102252624D01*
X195185493Y-102495732D01*
G37*
G36*
X191689425Y-103112184D02*
G01*
X191515776Y-102127376D01*
X192894507Y-101884268D01*
X193068156Y-102869076D01*
X191689425Y-103112184D01*
G37*
%TD*%
%TO.C,D37*%
G36*
X209060580Y-92763727D02*
G01*
X208886931Y-91778919D01*
X210265662Y-91535811D01*
X210439311Y-92520619D01*
X209060580Y-92763727D01*
G37*
G36*
X212556648Y-92147275D02*
G01*
X212382999Y-91162467D01*
X213761730Y-90919359D01*
X213935379Y-91904167D01*
X212556648Y-92147275D01*
G37*
%TD*%
%TO.C,D38*%
G36*
X230903736Y-86494203D02*
G01*
X230730087Y-85509395D01*
X232108818Y-85266287D01*
X232282467Y-86251095D01*
X230903736Y-86494203D01*
G37*
G36*
X227407668Y-87110655D02*
G01*
X227234019Y-86125847D01*
X228612750Y-85882739D01*
X228786399Y-86867547D01*
X227407668Y-87110655D01*
G37*
%TD*%
%TO.C,D39*%
G36*
X245341256Y-79112511D02*
G01*
X245167607Y-78127703D01*
X246546338Y-77884595D01*
X246719987Y-78869403D01*
X245341256Y-79112511D01*
G37*
G36*
X248837324Y-78496059D02*
G01*
X248663675Y-77511251D01*
X250042406Y-77268143D01*
X250216055Y-78252951D01*
X248837324Y-78496059D01*
G37*
%TD*%
%TO.C,D40*%
G36*
X268925301Y-85361397D02*
G01*
X268820772Y-84366875D01*
X270213103Y-84220535D01*
X270317632Y-85215057D01*
X268925301Y-85361397D01*
G37*
G36*
X265394749Y-85732473D02*
G01*
X265290220Y-84737951D01*
X266682551Y-84591611D01*
X266787080Y-85586133D01*
X265394749Y-85732473D01*
G37*
%TD*%
D29*
%TO.C,D41*%
X285435000Y-81020000D03*
X288985000Y-81020000D03*
%TD*%
%TO.C,D42*%
X304475000Y-76150000D03*
X308025000Y-76150000D03*
%TD*%
D14*
%TO.C,D43*%
G36*
X200176377Y-118673289D02*
G01*
X199738006Y-117774495D01*
X200996317Y-117160775D01*
X201434688Y-118059569D01*
X200176377Y-118673289D01*
G37*
G36*
X196985659Y-120229507D02*
G01*
X196547288Y-119330713D01*
X197805599Y-118716993D01*
X198243970Y-119615787D01*
X196985659Y-120229507D01*
G37*
%TD*%
%TO.C,D44*%
G36*
X218280548Y-111520484D02*
G01*
X217971531Y-110569428D01*
X219303010Y-110136804D01*
X219612027Y-111087860D01*
X218280548Y-111520484D01*
G37*
G36*
X214904298Y-112617494D02*
G01*
X214595281Y-111666438D01*
X215926760Y-111233814D01*
X216235777Y-112184870D01*
X214904298Y-112617494D01*
G37*
%TD*%
%TO.C,D45*%
G36*
X234295493Y-92805732D02*
G01*
X234121844Y-91820924D01*
X235500575Y-91577816D01*
X235674224Y-92562624D01*
X234295493Y-92805732D01*
G37*
G36*
X230799425Y-93422184D02*
G01*
X230625776Y-92437376D01*
X232004507Y-92194268D01*
X232178156Y-93179076D01*
X230799425Y-93422184D01*
G37*
%TD*%
%TO.C,D46*%
G36*
X220791072Y-130735120D02*
G01*
X220482055Y-129784064D01*
X221813534Y-129351440D01*
X222122551Y-130302496D01*
X220791072Y-130735120D01*
G37*
G36*
X224167322Y-129638110D02*
G01*
X223858305Y-128687054D01*
X225189784Y-128254430D01*
X225498801Y-129205486D01*
X224167322Y-129638110D01*
G37*
%TD*%
D30*
%TO.C,H1*%
X132000000Y-131050000D03*
%TD*%
%TO.C,H2*%
X84400000Y-100650000D03*
%TD*%
%TO.C,H3*%
X42450000Y-94850000D03*
%TD*%
%TO.C,H4*%
X34700000Y-46850000D03*
%TD*%
%TO.C,H5*%
X86300000Y-29100000D03*
%TD*%
%TO.C,H6*%
X142000000Y-29000000D03*
%TD*%
%TO.C,H7*%
X198000000Y-29000000D03*
%TD*%
%TO.C,H8*%
X253700000Y-29100000D03*
%TD*%
%TO.C,H9*%
X305300000Y-46850000D03*
%TD*%
%TO.C,H10*%
X297550000Y-94850000D03*
%TD*%
%TO.C,H11*%
X255600000Y-100650000D03*
%TD*%
%TO.C,H12*%
X208000000Y-131050000D03*
%TD*%
D31*
%TO.C,H13*%
X156100000Y-28600000D03*
%TD*%
%TO.C,H14*%
X183900000Y-28600000D03*
%TD*%
D32*
%TO.C,LED1*%
X150950000Y-32200000D03*
X150950000Y-35400000D03*
X145950000Y-32200000D03*
X145950000Y-35400000D03*
%TD*%
%TO.C,LED2*%
X116600000Y-30500000D03*
X116600000Y-33700000D03*
X111600000Y-30500000D03*
X111600000Y-33700000D03*
%TD*%
%TO.C,LED3*%
X67500000Y-41700000D03*
X67500000Y-44900000D03*
X62500000Y-41700000D03*
X62500000Y-44900000D03*
%TD*%
%TO.C,LED4*%
X31800000Y-92900000D03*
X31800000Y-89700000D03*
X36800000Y-92900000D03*
X36800000Y-89700000D03*
%TD*%
%TO.C,LED5*%
X78450000Y-93450000D03*
X78450000Y-96650000D03*
X73450000Y-93450000D03*
X73450000Y-96650000D03*
%TD*%
D14*
%TO.C,LED6*%
G36*
X106635474Y-111445057D02*
G01*
X106809122Y-110460250D01*
X108384814Y-110738087D01*
X108211166Y-111722894D01*
X106635474Y-111445057D01*
G37*
G36*
X107191148Y-108293672D02*
G01*
X107364796Y-107308865D01*
X108940488Y-107586702D01*
X108766840Y-108571509D01*
X107191148Y-108293672D01*
G37*
G36*
X111559512Y-112313298D02*
G01*
X111733160Y-111328491D01*
X113308852Y-111606328D01*
X113135204Y-112591135D01*
X111559512Y-112313298D01*
G37*
G36*
X112115186Y-109161913D02*
G01*
X112288834Y-108177106D01*
X113864526Y-108454943D01*
X113690878Y-109439750D01*
X112115186Y-109161913D01*
G37*
%TD*%
D32*
%TO.C,LED7*%
X149900000Y-124400000D03*
X149900000Y-127600000D03*
X144900000Y-124400000D03*
X144900000Y-127600000D03*
%TD*%
%TO.C,LED8*%
X190100000Y-127600000D03*
X190100000Y-124400000D03*
X195100000Y-127600000D03*
X195100000Y-124400000D03*
%TD*%
D14*
%TO.C,LED9*%
G36*
X226864796Y-112591135D02*
G01*
X226691148Y-111606328D01*
X228266840Y-111328491D01*
X228440488Y-112313298D01*
X226864796Y-112591135D01*
G37*
G36*
X226309122Y-109439750D02*
G01*
X226135474Y-108454943D01*
X227711166Y-108177106D01*
X227884814Y-109161913D01*
X226309122Y-109439750D01*
G37*
G36*
X231788834Y-111722894D02*
G01*
X231615186Y-110738087D01*
X233190878Y-110460250D01*
X233364526Y-111445057D01*
X231788834Y-111722894D01*
G37*
G36*
X231233160Y-108571509D02*
G01*
X231059512Y-107586702D01*
X232635204Y-107308865D01*
X232808852Y-108293672D01*
X231233160Y-108571509D01*
G37*
%TD*%
D32*
%TO.C,LED10*%
X261550000Y-96650000D03*
X261550000Y-93450000D03*
X266550000Y-96650000D03*
X266550000Y-93450000D03*
%TD*%
%TO.C,LED11*%
X308200000Y-89700000D03*
X308200000Y-92900000D03*
X303200000Y-89700000D03*
X303200000Y-92900000D03*
%TD*%
%TO.C,LED12*%
X272500000Y-44900000D03*
X272500000Y-41700000D03*
X277500000Y-44900000D03*
X277500000Y-41700000D03*
%TD*%
%TO.C,LED13*%
X228400000Y-30500000D03*
X228400000Y-33700000D03*
X223400000Y-30500000D03*
X223400000Y-33700000D03*
%TD*%
%TO.C,LED14*%
X189050000Y-35400000D03*
X189050000Y-32200000D03*
X194050000Y-35400000D03*
X194050000Y-32200000D03*
%TD*%
M02*
