M48
; DRILL file {KiCad (5.1.10)-1} date 10/29/21 12:16:12
; FORMAT={-:-/ absolute / metric / decimal}
; #@! TF.CreationDate,2021-10-29T12:16:12+09:00
; #@! TF.GenerationSoftware,Kicad,Pcbnew,(5.1.10)-1
; #@! TF.FileFunction,Plated,1,2,PTH
FMAT,2
METRIC
T1C0.300
T2C0.400
T3C0.800
T4C0.813
T5C1.000
%
G90
G05
T1
X26.665Y-63.322
X26.665Y-82.373
X39.592Y-60.782
X39.592Y-79.832
X45.715Y-49.035
X45.715Y-68.085
X45.715Y-87.135
X58.642Y-46.495
X58.642Y-65.545
X58.642Y-84.595
X66.013Y-76.026
X68.004Y-57.081
X69.995Y-38.135
X79.134Y-74.851
X81.126Y-55.906
X83.117Y-36.96
X86.764Y-68.83
X90.072Y-50.07
X93.38Y-31.309
X98.398Y-97.291
X99.936Y-68.574
X103.244Y-49.813
X104.698Y-76.829
X106.552Y-31.053
X108.006Y-58.068
X111.314Y-39.307
X111.569Y-97.035
X112.822Y-119.454
X117.87Y-76.572
X118.709Y-101.337
X121.178Y-57.811
X123.045Y-82.482
X124.486Y-39.051
X125.901Y-121.033
X126.353Y-63.721
X129.661Y-44.96
X131.788Y-102.916
X136.217Y-82.225
X138.26Y-108.17
X139.525Y-63.464
X141.392Y-88.135
X142.833Y-44.704
X144.7Y-69.374
X150.992Y-111.554
X154.564Y-87.878
X157.872Y-69.117
X181.345Y-71.835
X184.653Y-90.595
X189.004Y-114.381
X193.635Y-67.089
X196.384Y-47.421
X196.943Y-85.849
X199.51Y-106.432
X199.692Y-66.182
X203.0Y-84.942
X207.814Y-105.716
X208.674Y-42.675
X211.982Y-61.436
X213.701Y-123.833
X214.731Y-41.768
X215.29Y-80.196
X218.039Y-60.529
X219.324Y-99.305
X221.347Y-79.289
X225.211Y-117.423
X227.021Y-37.022
X227.648Y-99.752
X230.329Y-55.782
X232.665Y-33.77
X233.637Y-74.543
X235.973Y-52.53
X239.281Y-71.291
X239.937Y-95.006
X244.955Y-29.024
X248.263Y-47.784
X251.571Y-66.545
X255.912Y-39.616
X257.904Y-58.562
X259.895Y-77.507
X268.503Y-35.739
X270.494Y-54.684
X272.486Y-73.63
X280.115Y-49.035
X280.115Y-68.085
X280.115Y-87.135
X293.042Y-46.495
X293.042Y-65.545
X293.042Y-84.595
X299.165Y-63.322
X299.165Y-82.373
X312.092Y-60.782
X312.092Y-79.832
T2
X27.75Y-88.85
X28.7Y-70.7
X31.65Y-60.3
X38.8Y-88.4
X40.7Y-55.1
X41.2Y-88.55
X41.25Y-75.6
X41.55Y-71.55
X42.75Y-45.8
X43.85Y-57.15
X44.14Y-83.74
X44.27Y-75.5
X46.65Y-96.85
X49.35Y-92.95
X49.53Y-78.75
X50.05Y-55.0
X53.4Y-60.25
X56.95Y-74.1
X57.85Y-56.0
X59.8Y-78.81
X60.95Y-63.1
X62.3Y-95.25
X63.75Y-99.5
X64.2Y-46.6
X64.28Y-68.25
X64.47Y-79.84
X65.0Y-86.4
X65.7Y-94.05
X66.1Y-38.05
X68.35Y-81.65
X69.3Y-47.9
X70.45Y-68.74
X70.5Y-63.4
X73.0Y-50.15
X73.25Y-43.25
X80.8Y-93.45
X81.65Y-47.35
X84.3Y-59.95
X87.3Y-42.15
X89.55Y-75.65
X93.15Y-102.0
X93.8Y-36.75
X93.85Y-43.2
X94.8Y-81.85
X94.95Y-97.3
X97.36Y-104.99
X99.6Y-57.85
X102.45Y-65.23
X103.1Y-39.75
X103.55Y-33.85
X103.85Y-107.25
X104.9Y-40.95
X105.45Y-54.95
X110.45Y-64.15
X111.55Y-36.1
X112.6Y-50.0
X112.8Y-103.7
X114.8Y-110.8
X117.0Y-86.3
X117.0Y-113.7
X118.3Y-91.7
X118.7Y-110.05
X120.55Y-30.55
X122.4Y-66.5
X125.65Y-117.55
X126.4Y-114.7
X128.8Y-124.577
X133.47Y-119.96
X133.9Y-56.75
X136.2Y-128.0
X138.55Y-52.3
X138.6Y-85.05
X138.8Y-56.55
X138.95Y-126.1
X139.4Y-36.0
X144.3Y-85.3
X148.23Y-50.2
X152.1Y-125.9
X152.11Y-41.24
X153.06Y-35.46
X154.2Y-32.15
X157.78Y-60.87
X158.04Y-40.69
X159.95Y-26.02
X160.285Y-63.895
X161.014Y-64.624
X161.742Y-65.352
X161.91Y-68.34
X162.47Y-66.08
X163.171Y-66.808
X164.83Y-53.2
X165.45Y-39.35
X165.73Y-27.57
X168.28Y-44.06
X171.97Y-67.67
X173.8Y-87.15
X173.81Y-43.87
X173.825Y-120.775
X176.43Y-117.26
X177.163Y-85.107
X177.163Y-102.797
X177.58Y-80.73
X177.62Y-78.94
X179.58Y-116.52
X179.8Y-68.86
X179.9Y-62.2
X180.69Y-25.85
X181.32Y-43.87
X181.68Y-55.84
X181.77Y-78.42
X181.94Y-40.73
X182.26Y-35.85
X183.26Y-58.71
X183.35Y-54.5
X183.75Y-62.859
X184.445Y-62.131
X186.0Y-126.0
X186.04Y-76.47
X186.44Y-60.91
X189.45Y-118.75
X193.42Y-80.66
X193.45Y-30.4
X195.79Y-39.0
X197.3Y-53.97
X199.4Y-35.15
X199.62Y-56.75
X199.67Y-41.45
X200.0Y-87.35
X200.85Y-120.05
X202.38Y-40.12
X205.5Y-38.303
X206.5Y-124.5
X207.6Y-90.0
X207.95Y-111.3
X211.0Y-114.5
X211.0Y-124.3
X211.6Y-69.4
X213.1Y-114.55
X213.55Y-54.7
X215.35Y-47.15
X216.8Y-75.45
X217.54Y-51.9
X219.0Y-49.0
X219.65Y-107.7
X220.25Y-115.75
X220.75Y-72.45
X220.75Y-86.15
X221.15Y-92.45
X221.7Y-113.2
X223.3Y-108.8
X224.7Y-86.6
X224.75Y-106.55
X225.6Y-110.55
X225.85Y-90.6
X227.25Y-50.2
X230.35Y-39.55
X230.4Y-30.5
X231.3Y-115.15
X233.71Y-107.94
X236.2Y-40.9
X236.3Y-59.2
X238.75Y-43.5
X239.75Y-109.05
X240.1Y-79.0
X240.65Y-104.35
X244.1Y-80.1
X247.55Y-102.75
X250.55Y-55.95
X250.8Y-80.05
X251.4Y-37.05
X251.4Y-44.1
X254.85Y-76.45
X256.95Y-94.05
X257.2Y-53.75
X258.95Y-47.35
X259.8Y-95.15
X263.35Y-82.4
X265.2Y-49.85
X267.1Y-43.65
X267.3Y-68.85
X268.45Y-46.85
X270.64Y-93.3
X270.75Y-64.05
X272.4Y-50.2
X272.56Y-88.0
X274.1Y-57.1
X277.95Y-51.35
X280.15Y-41.7
X284.03Y-91.72
X285.19Y-78.87
X287.2Y-60.4
X291.6Y-73.7
X292.4Y-43.15
X293.7Y-93.5
X295.85Y-88.7
X296.0Y-58.55
X296.45Y-64.75
X298.32Y-86.15
X300.25Y-75.35
X301.9Y-91.25
X302.85Y-78.35
X310.25Y-74.2
X310.7Y-89.7
X311.15Y-57.45
T3
X208.3Y-32.5
X210.3Y-32.5
X212.3Y-32.5
X214.3Y-32.5
T4
X162.381Y-29.272
X162.381Y-31.812
X162.381Y-34.352
X162.381Y-36.892
X162.381Y-39.432
X162.381Y-41.972
X162.381Y-44.512
X162.381Y-47.052
X162.381Y-49.592
X162.381Y-52.132
X162.381Y-54.672
X162.381Y-57.212
X177.601Y-29.272
X177.601Y-31.812
X177.601Y-34.352
X177.601Y-36.892
X177.601Y-39.432
X177.601Y-41.972
X177.601Y-44.512
X177.601Y-47.052
X177.601Y-49.592
X177.601Y-52.132
X177.601Y-54.672
X177.601Y-57.212
T5
X144.251Y-98.326
X146.769Y-84.046
X149.175Y-99.194
X149.231Y-84.48
X151.693Y-84.914
X166.18Y-60.27
X168.72Y-60.27
X171.26Y-60.27
X173.8Y-60.27
X188.307Y-84.914
X190.769Y-84.48
X190.825Y-99.194
X193.231Y-84.046
X195.749Y-98.326
T0
M30
