M48
; DRILL file {KiCad (5.1.10)-1} date 10/29/21 12:16:12
; FORMAT={-:-/ absolute / metric / decimal}
; #@! TF.CreationDate,2021-10-29T12:16:12+09:00
; #@! TF.GenerationSoftware,Kicad,Pcbnew,(5.1.10)-1
; #@! TF.FileFunction,NonPlated,1,2,NPTH
FMAT,2
METRIC
T1C0.750
T2C1.500
T3C1.750
T4C1.900
T5C2.200
T6C3.000
T7C3.988
T8C4.100
T9C4.300
%
G90
G05
T1
X170.0Y-33.46
X170.0Y-35.26
T3
X142.926Y-90.984
X152.931Y-92.749
X187.069Y-92.749
X197.074Y-90.984
T4
X28.67Y-65.862
X28.67Y-84.912
X38.83Y-65.862
X38.83Y-84.912
X47.72Y-51.575
X47.72Y-70.625
X47.72Y-89.675
X57.88Y-51.575
X57.88Y-70.625
X57.88Y-89.675
X67.741Y-78.762
X69.733Y-59.816
X71.724Y-40.871
X77.846Y-79.824
X79.837Y-60.878
X81.828Y-41.933
X88.298Y-71.68
X91.606Y-52.919
X94.914Y-34.159
X98.303Y-73.444
X99.931Y-100.141
X101.611Y-54.684
X104.919Y-35.923
X106.231Y-79.678
X109.539Y-60.918
X109.937Y-101.905
X112.847Y-42.157
X113.944Y-122.49
X116.237Y-81.442
X119.545Y-62.682
X119.831Y-104.372
X122.853Y-43.921
X123.607Y-125.629
X124.578Y-85.331
X127.886Y-66.571
X129.494Y-107.512
X131.194Y-47.81
X134.584Y-87.096
X137.892Y-68.335
X138.948Y-111.332
X141.2Y-49.574
X146.234Y-72.224
X148.08Y-115.785
X156.239Y-73.988
X183.761Y-73.988
X191.92Y-115.785
X193.766Y-72.224
X198.8Y-49.574
X201.052Y-111.332
X202.108Y-68.335
X205.416Y-87.096
X208.806Y-47.81
X210.506Y-107.512
X212.114Y-66.571
X215.422Y-85.331
X216.393Y-125.629
X217.147Y-43.921
X220.169Y-104.372
X220.455Y-62.682
X223.763Y-81.442
X226.056Y-122.49
X227.153Y-42.157
X230.063Y-101.905
X230.461Y-60.918
X233.769Y-79.678
X235.081Y-35.923
X238.389Y-54.684
X240.069Y-100.141
X241.697Y-73.444
X245.086Y-34.159
X248.394Y-52.919
X251.702Y-71.68
X258.172Y-41.933
X260.163Y-60.878
X262.154Y-79.824
X268.276Y-40.871
X270.267Y-59.816
X272.259Y-78.762
X282.12Y-51.575
X282.12Y-70.625
X282.12Y-89.675
X292.28Y-51.575
X292.28Y-70.625
X292.28Y-89.675
X301.17Y-65.862
X301.17Y-84.912
X311.33Y-65.862
X311.33Y-84.912
T5
X156.1Y-28.6
X183.9Y-28.6
T6
X29.94Y-63.322
X29.94Y-82.373
X36.29Y-60.782
X36.29Y-79.832
X48.99Y-49.035
X48.99Y-68.085
X48.99Y-87.135
X55.34Y-46.495
X55.34Y-65.545
X55.34Y-84.595
X69.27Y-76.368
X71.261Y-57.423
X73.252Y-38.477
X75.851Y-74.506
X77.842Y-55.561
X79.833Y-36.615
X89.99Y-69.399
X93.298Y-50.639
X96.606Y-31.878
X96.684Y-68.0
X99.992Y-49.24
X101.623Y-97.86
X103.3Y-30.479
X107.923Y-77.397
X108.317Y-96.461
X111.231Y-58.637
X114.539Y-39.876
X114.618Y-75.999
X115.937Y-120.466
X117.926Y-57.238
X121.234Y-38.477
X121.824Y-102.349
X122.761Y-120.013
X126.27Y-83.05
X128.648Y-101.895
X129.578Y-64.29
X132.886Y-45.529
X132.965Y-81.652
X136.273Y-62.891
X139.581Y-44.13
X141.203Y-109.605
X144.617Y-88.703
X147.925Y-69.943
X148.024Y-110.106
X151.312Y-87.305
X154.62Y-68.544
X184.57Y-71.266
X187.878Y-90.027
X190.383Y-67.662
X191.948Y-112.946
X193.691Y-86.423
X196.542Y-107.879
X199.61Y-46.852
X202.918Y-65.613
X205.422Y-43.248
X206.226Y-84.374
X208.73Y-62.009
X210.929Y-104.704
X212.038Y-80.769
X216.183Y-100.326
X216.816Y-122.821
X217.957Y-41.199
X221.265Y-59.96
X222.07Y-118.443
X223.769Y-37.595
X224.573Y-78.72
X227.077Y-56.356
X230.385Y-75.116
X230.873Y-99.183
X235.89Y-33.201
X236.685Y-95.579
X239.198Y-51.962
X241.703Y-29.597
X242.506Y-70.722
X245.011Y-48.358
X248.319Y-67.118
X259.169Y-39.274
X261.161Y-58.219
X263.152Y-77.165
X265.219Y-36.084
X267.21Y-55.029
X269.202Y-73.975
X283.39Y-49.035
X283.39Y-68.085
X283.39Y-87.135
X289.74Y-46.495
X289.74Y-65.545
X289.74Y-84.595
X302.44Y-63.322
X302.44Y-82.373
X308.79Y-60.782
X308.79Y-79.832
T7
X147.928Y-91.866
X192.072Y-91.866
T8
X33.75Y-65.862
X33.75Y-84.912
X52.8Y-51.575
X52.8Y-70.625
X52.8Y-89.675
X72.793Y-79.293
X74.785Y-60.347
X76.776Y-41.402
X93.301Y-72.562
X96.609Y-53.802
X99.917Y-35.041
X104.934Y-101.023
X111.234Y-80.56
X114.542Y-61.8
X117.85Y-43.039
X118.776Y-124.059
X124.662Y-105.942
X129.581Y-86.213
X132.889Y-67.453
X136.197Y-48.692
X143.514Y-113.559
X151.236Y-73.106
X188.764Y-73.106
X196.486Y-113.559
X203.803Y-48.692
X207.111Y-67.453
X210.419Y-86.213
X215.338Y-105.942
X221.224Y-124.059
X222.15Y-43.039
X225.458Y-61.8
X228.766Y-80.56
X235.066Y-101.023
X240.083Y-35.041
X243.391Y-53.802
X246.699Y-72.562
X263.224Y-41.402
X265.215Y-60.347
X267.207Y-79.293
X287.2Y-51.575
X287.2Y-70.625
X287.2Y-89.675
X306.25Y-65.862
X306.25Y-84.912
T9
X34.7Y-46.85
X42.45Y-94.85
X84.4Y-100.65
X86.3Y-29.1
X132.0Y-131.05
X142.0Y-29.0
X198.0Y-29.0
X208.0Y-131.05
X253.7Y-29.1
X255.6Y-100.65
X297.55Y-94.85
X305.3Y-46.85
T2
G00X142.526Y-90.254
M15
G01X142.301Y-91.534
M16
G05
G00X153.556Y-92.199
M15
G01X153.33Y-93.479
M16
G05
G00X186.444Y-92.199
M15
G01X186.67Y-93.479
M16
G05
G00X197.474Y-90.254
M15
G01X197.699Y-91.534
M16
G05
T0
M30
