%TF.GenerationSoftware,KiCad,Pcbnew,(5.1.10)-1*%
%TF.CreationDate,2021-10-29T12:16:09+09:00*%
%TF.ProjectId,yacc46,79616363-3436-42e6-9b69-6361645f7063,rev?*%
%TF.SameCoordinates,Original*%
%TF.FileFunction,Soldermask,Top*%
%TF.FilePolarity,Negative*%
%FSLAX46Y46*%
G04 Gerber Fmt 4.6, Leading zero omitted, Abs format (unit mm)*
G04 Created by KiCad (PCBNEW (5.1.10)-1) date 2021-10-29 12:16:09*
%MOMM*%
%LPD*%
G01*
G04 APERTURE LIST*
%ADD10R,1.350000X1.350000*%
%ADD11O,1.350000X1.350000*%
%ADD12C,0.750000*%
%ADD13R,1.600000X1.600000*%
%ADD14C,1.600000*%
%ADD15C,0.600000*%
%ADD16C,3.000000*%
%ADD17C,1.900000*%
%ADD18C,4.100000*%
%ADD19C,3.987800*%
%ADD20C,1.750000*%
%ADD21C,0.100000*%
%ADD22C,2.000000*%
%ADD23C,4.300000*%
%ADD24C,2.200000*%
G04 APERTURE END LIST*
D10*
%TO.C,J2*%
X214300000Y-32500000D03*
D11*
X212300000Y-32500000D03*
X210300000Y-32500000D03*
X208300000Y-32500000D03*
%TD*%
D12*
%TO.C,SW47*%
X170000000Y-33460000D03*
X170000000Y-35260000D03*
%TD*%
D13*
%TO.C,J1*%
X173800000Y-60270000D03*
D14*
X171260000Y-60270000D03*
X168720000Y-60270000D03*
X166180000Y-60270000D03*
%TD*%
D15*
%TO.C,SW12*%
X144700033Y-69374141D03*
X157871710Y-69117479D03*
D16*
X154619874Y-68544093D03*
X147925279Y-69942839D03*
D17*
X146233507Y-72223717D03*
X156239153Y-73987983D03*
D18*
X151236330Y-73105850D03*
%TD*%
D16*
%TO.C,SW19*%
X144617281Y-88703427D03*
D15*
X154563712Y-87878067D03*
X141392035Y-88134729D03*
D16*
X151311876Y-87304681D03*
D19*
X147928332Y-91866438D03*
D20*
X152931155Y-92748571D03*
X142925509Y-90984305D03*
D21*
G36*
X150881553Y-83756044D02*
G01*
X152851169Y-84103340D01*
X152503873Y-86072956D01*
X150534257Y-85725660D01*
X150881553Y-83756044D01*
G37*
D22*
X149230693Y-84480380D03*
X146768674Y-84046259D03*
G36*
G01*
X153686362Y-91460137D02*
X153686362Y-91460137D01*
G75*
G02*
X154294732Y-92328979I-130236J-738606D01*
G01*
X154068990Y-93609229D01*
G75*
G02*
X153200148Y-94217599I-738606J130236D01*
G01*
X153200148Y-94217599D01*
G75*
G02*
X152591778Y-93348757I130236J738606D01*
G01*
X152817520Y-92068507D01*
G75*
G02*
X153686362Y-91460137I738606J-130236D01*
G01*
G37*
G36*
G01*
X142656516Y-89515277D02*
X142656516Y-89515277D01*
G75*
G02*
X143264886Y-90384119I-130236J-738606D01*
G01*
X143039144Y-91664369D01*
G75*
G02*
X142170302Y-92272739I-738606J130236D01*
G01*
X142170302Y-92272739D01*
G75*
G02*
X141561932Y-91403897I130236J738606D01*
G01*
X141787674Y-90123647D01*
G75*
G02*
X142656516Y-89515277I738606J-130236D01*
G01*
G37*
X149174814Y-99194213D03*
X144250775Y-98325972D03*
%TD*%
D16*
%TO.C,SW36*%
X187878484Y-90026626D03*
D15*
X196942782Y-85849162D03*
X184653239Y-90595324D03*
D16*
X193690947Y-86422548D03*
D19*
X192071668Y-91866438D03*
D20*
X197074491Y-90984305D03*
X187068845Y-92748571D03*
D21*
G36*
X192072870Y-83235099D02*
G01*
X194042486Y-82887803D01*
X194389782Y-84857419D01*
X192420166Y-85204715D01*
X192072870Y-83235099D01*
G37*
D22*
X190769307Y-84480380D03*
X188307287Y-84914500D03*
G36*
G01*
X197343484Y-89515277D02*
X197343484Y-89515277D01*
G75*
G02*
X198212326Y-90123647I130236J-738606D01*
G01*
X198438068Y-91403897D01*
G75*
G02*
X197829698Y-92272739I-738606J-130236D01*
G01*
X197829698Y-92272739D01*
G75*
G02*
X196960856Y-91664369I-130236J738606D01*
G01*
X196735114Y-90384119D01*
G75*
G02*
X197343484Y-89515277I738606J130236D01*
G01*
G37*
G36*
G01*
X186313638Y-91460137D02*
X186313638Y-91460137D01*
G75*
G02*
X187182480Y-92068507I130236J-738606D01*
G01*
X187408222Y-93348757D01*
G75*
G02*
X186799852Y-94217599I-738606J-130236D01*
G01*
X186799852Y-94217599D01*
G75*
G02*
X185931010Y-93609229I-130236J738606D01*
G01*
X185705268Y-92328979D01*
G75*
G02*
X186313638Y-91460137I738606J130236D01*
G01*
G37*
X195749225Y-98325972D03*
X190825186Y-99194213D03*
%TD*%
D15*
%TO.C,SW1*%
X45715000Y-49035000D03*
X58642000Y-46495000D03*
D16*
X55340000Y-46495000D03*
X48990000Y-49035000D03*
D17*
X47720000Y-51575000D03*
X57880000Y-51575000D03*
D18*
X52800000Y-51575000D03*
%TD*%
D15*
%TO.C,SW2*%
X69995304Y-38134858D03*
X83116991Y-36960012D03*
D16*
X79833079Y-36614859D03*
X73252363Y-38477189D03*
D17*
X71723818Y-40870523D03*
X81828160Y-41932533D03*
D18*
X76775989Y-41401528D03*
%TD*%
D15*
%TO.C,SW3*%
X93380267Y-31309266D03*
X106551944Y-31052604D03*
D16*
X103300108Y-30479218D03*
X96605513Y-31877964D03*
D17*
X94913741Y-34158842D03*
X104919387Y-35923108D03*
D18*
X99916564Y-35040975D03*
%TD*%
D15*
%TO.C,SW4*%
X111313855Y-39307411D03*
X124485532Y-39050749D03*
D16*
X121233696Y-38477363D03*
X114539101Y-39876109D03*
D17*
X112847329Y-42156987D03*
X122852975Y-43921253D03*
D18*
X117850152Y-43039120D03*
%TD*%
D15*
%TO.C,SW5*%
X129660943Y-44960482D03*
X142832620Y-44703820D03*
D16*
X139580784Y-44130434D03*
X132886189Y-45529180D03*
D17*
X131194417Y-47810058D03*
X141200063Y-49574324D03*
D18*
X136197240Y-48692191D03*
%TD*%
D15*
%TO.C,SW6*%
X26665000Y-63322500D03*
X39592000Y-60782500D03*
D16*
X36290000Y-60782500D03*
X29940000Y-63322500D03*
D17*
X28670000Y-65862500D03*
X38830000Y-65862500D03*
D18*
X33750000Y-65862500D03*
%TD*%
D15*
%TO.C,SW7*%
X45715000Y-68085000D03*
X58642000Y-65545000D03*
D16*
X55340000Y-65545000D03*
X48990000Y-68085000D03*
D17*
X47720000Y-70625000D03*
X57880000Y-70625000D03*
D18*
X52800000Y-70625000D03*
%TD*%
D15*
%TO.C,SW8*%
X68004036Y-57080500D03*
X81125723Y-55905654D03*
D16*
X77841811Y-55560501D03*
X71261095Y-57422831D03*
D17*
X69732550Y-59816165D03*
X79836892Y-60878175D03*
D18*
X74784721Y-60347170D03*
%TD*%
D15*
%TO.C,SW9*%
X90072269Y-50069854D03*
X103243946Y-49813192D03*
D16*
X99992110Y-49239806D03*
X93297515Y-50638552D03*
D17*
X91605743Y-52919430D03*
X101611389Y-54683696D03*
D18*
X96608566Y-53801563D03*
%TD*%
D15*
%TO.C,SW10*%
X108005857Y-58067999D03*
X121177534Y-57811337D03*
D16*
X117925698Y-57237951D03*
X111231103Y-58636697D03*
D17*
X109539331Y-60917575D03*
X119544977Y-62681841D03*
D18*
X114542154Y-61799708D03*
%TD*%
D15*
%TO.C,SW11*%
X126352945Y-63721070D03*
X139524622Y-63464408D03*
D16*
X136272786Y-62891022D03*
X129578191Y-64289768D03*
D17*
X127886419Y-66570646D03*
X137892065Y-68334912D03*
D18*
X132889242Y-67452779D03*
%TD*%
D15*
%TO.C,SW13*%
X26665000Y-82372500D03*
X39592000Y-79832500D03*
D16*
X36290000Y-79832500D03*
X29940000Y-82372500D03*
D17*
X28670000Y-84912500D03*
X38830000Y-84912500D03*
D18*
X33750000Y-84912500D03*
%TD*%
D15*
%TO.C,SW14*%
X45715000Y-87135000D03*
X58642000Y-84595000D03*
D16*
X55340000Y-84595000D03*
X48990000Y-87135000D03*
D17*
X47720000Y-89675000D03*
X57880000Y-89675000D03*
D18*
X52800000Y-89675000D03*
%TD*%
D15*
%TO.C,SW15*%
X66012769Y-76026142D03*
X79134456Y-74851296D03*
D16*
X75850544Y-74506143D03*
X69269828Y-76368473D03*
D17*
X67741283Y-78761807D03*
X77845625Y-79823817D03*
D18*
X72793454Y-79292812D03*
%TD*%
D15*
%TO.C,SW16*%
X86764271Y-68830442D03*
X99935948Y-68573780D03*
D16*
X96684112Y-68000394D03*
X89989517Y-69399140D03*
D17*
X88297745Y-71680018D03*
X98303391Y-73444284D03*
D18*
X93300568Y-72562151D03*
%TD*%
D15*
%TO.C,SW17*%
X104697859Y-76828586D03*
X117869536Y-76571924D03*
D16*
X114617700Y-75998538D03*
X107923105Y-77397284D03*
D17*
X106231333Y-79678162D03*
X116236979Y-81442428D03*
D18*
X111234156Y-80560295D03*
%TD*%
D15*
%TO.C,SW18*%
X123044947Y-82481658D03*
X136216624Y-82224996D03*
D16*
X132964788Y-81651610D03*
X126270193Y-83050356D03*
D17*
X124578421Y-85331234D03*
X134584067Y-87095500D03*
D18*
X129581244Y-86213367D03*
%TD*%
D15*
%TO.C,SW20*%
X98397586Y-97291287D03*
X111569263Y-97034625D03*
D16*
X108317427Y-96461239D03*
X101622832Y-97859985D03*
D17*
X99931060Y-100140863D03*
X109936706Y-101905129D03*
D18*
X104933883Y-101022996D03*
%TD*%
D15*
%TO.C,SW21*%
X118709046Y-101336793D03*
X131788256Y-102915772D03*
D16*
X128647868Y-101895398D03*
X121823756Y-102348824D03*
D17*
X119831011Y-104372056D03*
X129493745Y-107511668D03*
D18*
X124662378Y-105941862D03*
%TD*%
D15*
%TO.C,SW22*%
X138259810Y-108169738D03*
X150991983Y-111553624D03*
D16*
X148024165Y-110106123D03*
X141203360Y-109605403D03*
D17*
X138948429Y-111331609D03*
X148080177Y-115785459D03*
D18*
X143514303Y-113558534D03*
%TD*%
D15*
%TO.C,SW23*%
X112822272Y-119454419D03*
X125901482Y-121033398D03*
D16*
X122761094Y-120013024D03*
X115936982Y-120466450D03*
D17*
X113944237Y-122489682D03*
X123606971Y-125629294D03*
D18*
X118775604Y-124059488D03*
%TD*%
D15*
%TO.C,SW24*%
X196384331Y-47421077D03*
X208673874Y-42674915D03*
D16*
X205422039Y-43248301D03*
X199609576Y-46852379D03*
D17*
X198799937Y-49574324D03*
X208805583Y-47810058D03*
D18*
X203802760Y-48692191D03*
%TD*%
D15*
%TO.C,SW25*%
X214731419Y-41768006D03*
X227020962Y-37021844D03*
D16*
X223769127Y-37595230D03*
X217956664Y-41199308D03*
D17*
X217147025Y-43921253D03*
X227152671Y-42156987D03*
D18*
X222149848Y-43039120D03*
%TD*%
D15*
%TO.C,SW26*%
X232665007Y-33769861D03*
X244954550Y-29023699D03*
D16*
X241702715Y-29597085D03*
X235890252Y-33201163D03*
D17*
X235080613Y-35923108D03*
X245086259Y-34158842D03*
D18*
X240083436Y-35040975D03*
%TD*%
D15*
%TO.C,SW27*%
X255912321Y-39616027D03*
X268503003Y-35738701D03*
D16*
X265219092Y-36083854D03*
X259169380Y-39273696D03*
D17*
X258171840Y-41932533D03*
X268276182Y-40870523D03*
D18*
X263224011Y-41401528D03*
%TD*%
D15*
%TO.C,SW28*%
X280115000Y-49035000D03*
X293042000Y-46495000D03*
D16*
X289740000Y-46495000D03*
X283390000Y-49035000D03*
D17*
X282120000Y-51575000D03*
X292280000Y-51575000D03*
D18*
X287200000Y-51575000D03*
%TD*%
D15*
%TO.C,SW29*%
X181345241Y-71834736D03*
X193634784Y-67088574D03*
D16*
X190382949Y-67661960D03*
X184570486Y-71266038D03*
D17*
X183760847Y-73987983D03*
X193766493Y-72223717D03*
D18*
X188763670Y-73105850D03*
%TD*%
D15*
%TO.C,SW30*%
X199692329Y-66181665D03*
X211981872Y-61435503D03*
D16*
X208730037Y-62008889D03*
X202917574Y-65612967D03*
D17*
X202107935Y-68334912D03*
X212113581Y-66570646D03*
D18*
X207110758Y-67452779D03*
%TD*%
D15*
%TO.C,SW31*%
X218039417Y-60528594D03*
X230328960Y-55782432D03*
D16*
X227077125Y-56355818D03*
X221264662Y-59959896D03*
D17*
X220455023Y-62681841D03*
X230460669Y-60917575D03*
D18*
X225457846Y-61799708D03*
%TD*%
D15*
%TO.C,SW32*%
X235973005Y-52530449D03*
X248262548Y-47784287D03*
D16*
X245010713Y-48357673D03*
X239198250Y-51961751D03*
D17*
X238388611Y-54683696D03*
X248394257Y-52919430D03*
D18*
X243391434Y-53801563D03*
%TD*%
D15*
%TO.C,SW33*%
X257903589Y-58561669D03*
X270494271Y-54684343D03*
D16*
X267210360Y-55029496D03*
X261160648Y-58219338D03*
D17*
X260163108Y-60878175D03*
X270267450Y-59816165D03*
D18*
X265215279Y-60347170D03*
%TD*%
D15*
%TO.C,SW34*%
X280115000Y-68085000D03*
X293042000Y-65545000D03*
D16*
X289740000Y-65545000D03*
X283390000Y-68085000D03*
D17*
X282120000Y-70625000D03*
X292280000Y-70625000D03*
D18*
X287200000Y-70625000D03*
%TD*%
D15*
%TO.C,SW35*%
X299165000Y-63322500D03*
X312092000Y-60782500D03*
D16*
X308790000Y-60782500D03*
X302440000Y-63322500D03*
D17*
X301170000Y-65862500D03*
X311330000Y-65862500D03*
D18*
X306250000Y-65862500D03*
%TD*%
D15*
%TO.C,SW37*%
X203000327Y-84942253D03*
X215289870Y-80196091D03*
D16*
X212038035Y-80769477D03*
X206225572Y-84373555D03*
D17*
X205415933Y-87095500D03*
X215421579Y-85331234D03*
D18*
X210418756Y-86213367D03*
%TD*%
D15*
%TO.C,SW38*%
X221347415Y-79289181D03*
X233636958Y-74543019D03*
D16*
X230385123Y-75116405D03*
X224572660Y-78720483D03*
D17*
X223763021Y-81442428D03*
X233768667Y-79678162D03*
D18*
X228765844Y-80560295D03*
%TD*%
D15*
%TO.C,SW39*%
X239281003Y-71291037D03*
X251570546Y-66544875D03*
D16*
X248318711Y-67118261D03*
X242506248Y-70722339D03*
D17*
X241696609Y-73444284D03*
X251702255Y-71680018D03*
D18*
X246699432Y-72562151D03*
%TD*%
D15*
%TO.C,SW40*%
X259894856Y-77507311D03*
X272485538Y-73629985D03*
D16*
X269201627Y-73975138D03*
X263151915Y-77164980D03*
D17*
X262154375Y-79823817D03*
X272258717Y-78761807D03*
D18*
X267206546Y-79292812D03*
%TD*%
D15*
%TO.C,SW41*%
X280115000Y-87135000D03*
X293042000Y-84595000D03*
D16*
X289740000Y-84595000D03*
X283390000Y-87135000D03*
D17*
X282120000Y-89675000D03*
X292280000Y-89675000D03*
D18*
X287200000Y-89675000D03*
%TD*%
D15*
%TO.C,SW42*%
X299165000Y-82372500D03*
X312092000Y-79832500D03*
D16*
X308790000Y-79832500D03*
X302440000Y-82372500D03*
D17*
X301170000Y-84912500D03*
X311330000Y-84912500D03*
D18*
X306250000Y-84912500D03*
%TD*%
D15*
%TO.C,SW43*%
X189004278Y-114381457D03*
X199509526Y-106431696D03*
D16*
X196541708Y-107879198D03*
X191947829Y-112945791D03*
D17*
X191919823Y-115785459D03*
X201051571Y-111331609D03*
D18*
X196485697Y-113558534D03*
%TD*%
D15*
%TO.C,SW44*%
X207814483Y-105715564D03*
X219323888Y-99305218D03*
D16*
X216183499Y-100325592D03*
X210929194Y-104703533D03*
D17*
X210506255Y-107511668D03*
X220168989Y-104372056D03*
D18*
X215337622Y-105941862D03*
%TD*%
D15*
%TO.C,SW45*%
X227647688Y-99751882D03*
X239937231Y-95005720D03*
D16*
X236685396Y-95579106D03*
X230872933Y-99183184D03*
D17*
X230063294Y-101905129D03*
X240068940Y-100140863D03*
D18*
X235066117Y-101022996D03*
%TD*%
D15*
%TO.C,SW46*%
X213701257Y-123833190D03*
X225210662Y-117422844D03*
D16*
X222070273Y-118443218D03*
X216815968Y-122821159D03*
D17*
X216393029Y-125629294D03*
X226055763Y-122489682D03*
D18*
X221224396Y-124059488D03*
%TD*%
D23*
%TO.C,H1*%
X132000000Y-131050000D03*
%TD*%
%TO.C,H2*%
X84400000Y-100650000D03*
%TD*%
%TO.C,H3*%
X42450000Y-94850000D03*
%TD*%
%TO.C,H4*%
X34700000Y-46850000D03*
%TD*%
%TO.C,H5*%
X86300000Y-29100000D03*
%TD*%
%TO.C,H6*%
X142000000Y-29000000D03*
%TD*%
%TO.C,H7*%
X198000000Y-29000000D03*
%TD*%
%TO.C,H8*%
X253700000Y-29100000D03*
%TD*%
%TO.C,H9*%
X305300000Y-46850000D03*
%TD*%
%TO.C,H10*%
X297550000Y-94850000D03*
%TD*%
%TO.C,H11*%
X255600000Y-100650000D03*
%TD*%
%TO.C,H12*%
X208000000Y-131050000D03*
%TD*%
D24*
%TO.C,H13*%
X156100000Y-28600000D03*
%TD*%
%TO.C,H14*%
X183900000Y-28600000D03*
%TD*%
M02*
