<?xml version="1.0" encoding="UTF-8" standalone="no"?>
<svg
   xmlns:dc="http://purl.org/dc/elements/1.1/"
   xmlns:cc="http://creativecommons.org/ns#"
   xmlns:rdf="http://www.w3.org/1999/02/22-rdf-syntax-ns#"
   xmlns:svg="http://www.w3.org/2000/svg"
   xmlns="http://www.w3.org/2000/svg"
   xmlns:sodipodi="http://sodipodi.sourceforge.net/DTD/sodipodi-0.dtd"
   xmlns:inkscape="http://www.inkscape.org/namespaces/inkscape"
   version="1.1"
   width="297mm"
   height="210mm"
   viewBox="0 0 116929.13 82677.163"
   id="svg1306"
   sodipodi:docname="yacc46_plate-guard.svg"
   inkscape:version="1.0.1 (3bc2e813f5, 2020-09-07)">
  <metadata
     id="metadata1312">
    <rdf:RDF>
      <cc:Work
         rdf:about="">
        <dc:format>image/svg+xml</dc:format>
        <dc:type
           rdf:resource="http://purl.org/dc/dcmitype/StillImage" />
        <dc:title>SVG Picture created as yacc46_plate-brd.svg date 2020/09/18 20:46:19 </dc:title>
      </cc:Work>
    </rdf:RDF>
  </metadata>
  <defs
     id="defs1310" />
  <sodipodi:namedview
     pagecolor="#ffffff"
     bordercolor="#666666"
     borderopacity="1"
     objecttolerance="10"
     gridtolerance="10"
     guidetolerance="10"
     inkscape:pageopacity="0"
     inkscape:pageshadow="2"
     inkscape:window-width="1918"
     inkscape:window-height="1028"
     id="namedview1308"
     showgrid="false"
     inkscape:zoom="3.9999998"
     inkscape:cx="560.32959"
     inkscape:cy="105.46036"
     inkscape:window-x="1913"
     inkscape:window-y="1060"
     inkscape:window-maximized="0"
     inkscape:current-layer="layer1"
     units="mm"
     inkscape:document-units="mm"
     inkscape:document-rotation="0" />
  <title
     id="title2">SVG Picture created as yacc46_plate-brd.svg date 2020/09/18 20:46:19 </title>
  <desc
     id="desc4">Picture generated by PCBNEW </desc>
  <g
     style="fill:#000000;fill-opacity:1;stroke:#000000;stroke-linecap:round;stroke-linejoin:round;stroke-opacity:1"
     id="g6" />
  <g
     style="fill:#000000;fill-opacity:0;stroke:#000000;stroke-width:-0.000393701;stroke-linecap:round;stroke-linejoin:round;stroke-opacity:1"
     id="g8" />
  <g
     style="fill:#c2c200;fill-opacity:0;stroke:#c2c200;stroke-width:-0.000393701;stroke-linecap:round;stroke-linejoin:round;stroke-opacity:1"
     id="g10" />
  <g
     inkscape:groupmode="layer"
     id="layer1"
     inkscape:label="guard"
     style="display:inline">
    <g
       id="g2819">
      <path
         id="path12-9-7-2"
         style="fill:#c2c200;fill-opacity:0;stroke:#000000;stroke-width:78.7402;stroke-linecap:round;stroke-linejoin:round;stroke-miterlimit:4;stroke-dasharray:none;stroke-opacity:1"
         d="m 54521.103,3721.0605 c -882.013,15.1063 -1768.534,-31.7213 -2647.501,25.4717 -656.232,146.2337 -1050.32,825.9978 -961.922,1469.9882 4.328,4093.887 -9.017,8188.2896 6.372,12281.8536 80.091,690.26 780.812,1162.678 1450.259,1067.684 3418.128,-3.931 6836.668,7.846 10254.539,-5.903 712.544,-79.879 1166.367,-810.779 1068.418,-1490.552 -4.611,-4093.998 9.229,-8188.5567 -6.932,-12282.2036 -87.484,-705.9179 -811.086,-1163.444 -1489.362,-1066.3389 -2557.957,0 -5115.914,0 -7673.871,0 z" />
      <path
         id="circle32"
         style="fill:#c2c200;fill-opacity:0;stroke:#000000;stroke-width:39.3701;stroke-linecap:round;stroke-linejoin:round;stroke-opacity:1"
         d="m 62746.786,17189.836 c 11.568,290.294 -315.743,517.873 -583.841,405.979 -276.153,-90.22 -375.566,-476.281 -177.323,-688.655 180.717,-227.474 577.235,-186.256 707.307,73.519 35.224,63.7 53.935,136.366 53.857,209.157 z" />
      <path
         id="circle36"
         style="fill:#c2c200;fill-opacity:0;stroke:#000000;stroke-width:39.3701;stroke-linecap:round;stroke-linejoin:round;stroke-opacity:1"
         d="m 52722.684,17189.836 c 11.568,290.294 -315.743,517.873 -583.841,405.979 -276.153,-90.22 -375.566,-476.281 -177.323,-688.655 180.717,-227.474 577.235,-186.256 707.307,73.519 35.224,63.7 53.935,136.366 53.857,209.157 z" />
    </g>
  </g>
</svg>
