M48
; DRILL file {KiCad (5.1.10)-1} date 05/20/21 23:11:27
; FORMAT={-:-/ absolute / metric / decimal}
; #@! TF.CreationDate,2021-05-20T23:11:27+09:00
; #@! TF.GenerationSoftware,Kicad,Pcbnew,(5.1.10)-1
; #@! TF.FileFunction,Plated,1,2,PTH
FMAT,2
METRIC
T1C0.300
T2C0.400
T3C0.500
T4C0.800
T5C1.000
T6C1.500
T7C1.600
T8C1.750
%
G90
G05
T1
X26.665Y-63.322
X26.665Y-82.373
X39.592Y-60.782
X39.592Y-79.832
X45.715Y-49.035
X45.715Y-68.085
X45.715Y-87.135
X58.642Y-46.495
X58.642Y-65.545
X58.642Y-84.595
X66.013Y-77.931
X68.004Y-58.985
X69.995Y-40.04
X79.134Y-76.756
X81.126Y-57.811
X83.117Y-38.865
X86.764Y-70.735
X90.072Y-51.975
X93.38Y-33.214
X98.398Y-99.196
X99.936Y-70.479
X103.244Y-51.718
X104.698Y-78.734
X106.552Y-32.958
X108.006Y-59.973
X111.314Y-41.212
X111.569Y-98.94
X112.822Y-121.359
X117.87Y-78.477
X118.709Y-103.242
X121.178Y-59.716
X123.045Y-84.387
X124.486Y-40.956
X125.901Y-122.938
X126.353Y-65.626
X129.661Y-46.865
X131.788Y-104.821
X136.217Y-84.13
X138.26Y-110.075
X139.525Y-65.369
X142.833Y-46.609
X144.7Y-71.279
X150.992Y-113.459
X157.872Y-71.022
X175.345Y-73.74
X183.004Y-116.286
X187.635Y-68.994
X190.384Y-49.326
X193.51Y-108.337
X193.692Y-68.087
X197.0Y-86.847
X201.814Y-107.621
X202.674Y-44.58
X205.982Y-63.341
X207.701Y-125.738
X208.731Y-43.673
X209.29Y-82.101
X212.039Y-62.434
X213.324Y-101.21
X215.347Y-81.194
X219.211Y-119.328
X221.021Y-38.927
X221.648Y-101.657
X224.329Y-57.687
X226.665Y-35.675
X227.637Y-76.448
X229.973Y-54.435
X233.281Y-73.196
X233.937Y-96.911
X238.955Y-30.929
X242.263Y-49.689
X245.571Y-68.45
X249.912Y-41.521
X251.904Y-60.467
X253.895Y-79.412
X262.503Y-37.644
X264.494Y-56.589
X266.486Y-75.535
X274.115Y-49.035
X274.115Y-68.085
X274.115Y-87.135
X287.042Y-46.495
X287.042Y-65.545
X287.042Y-84.595
X293.165Y-63.322
X293.165Y-82.373
X306.092Y-60.782
X306.092Y-79.832
T2
X30.4Y-87.65
X37.262Y-71.222
X37.516Y-91.237
X44.75Y-58.9
X44.8Y-75.3
X45.728Y-74.665
X49.225Y-44.196
X49.53Y-72.542
X56.261Y-91.999
X56.744Y-55.423
X57.1Y-77.25
X62.89Y-85.954
X66.013Y-68.099
X66.05Y-52.7
X66.7Y-84.785
X68.4Y-86.15
X69.2Y-83.15
X71.323Y-64.287
X71.65Y-47.5
X73.838Y-73.304
X75.15Y-47.75
X77.3Y-49.9
X78.054Y-87.427
X79.858Y-45.491
X83.85Y-54.9
X86.45Y-46.85
X87.3Y-43.9
X89.383Y-77.267
X90.3Y-88.9
X90.4Y-48.3
X90.45Y-94.5
X90.95Y-38.5
X91.135Y-58.141
X95.35Y-38.5
X95.35Y-95.8
X96.9Y-94.45
X97.75Y-88.85
X98.25Y-43.8
X98.6Y-85.0
X99.5Y-30.5
X99.873Y-62.128
X99.9Y-43.05
X101.95Y-48.121
X106.68Y-84.43
X108.55Y-118.9
X108.737Y-106.528
X110.338Y-65.964
X111.75Y-34.75
X112.5Y-30.65
X112.775Y-114.625
X114.3Y-47.269
X114.55Y-72.5
X116.611Y-90.272
X116.75Y-95.45
X117.314Y-109.559
X117.958Y-112.065
X118.0Y-38.1
X118.05Y-118.65
X119.25Y-114.45
X119.35Y-51.35
X119.45Y-34.8
X121.107Y-108.814
X123.8Y-36.2
X125.273Y-34.696
X125.45Y-89.75
X126.8Y-114.9
X126.848Y-35.712
X126.949Y-112.42
X127.15Y-98.55
X127.669Y-37.981
X128.1Y-123.75
X129.438Y-37.643
X129.7Y-126.3
X130.15Y-38.659
X130.25Y-114.35
X130.353Y-34.696
X130.55Y-77.35
X130.861Y-36.339
X130.95Y-41.55
X131.75Y-116.5
X131.801Y-37.871
X132.131Y-52.908
X134.2Y-94.05
X134.4Y-118.25
X134.45Y-112.1
X135.23Y-34.493
X135.85Y-45.05
X136.201Y-34.764
X136.3Y-100.35
X136.65Y-41.55
X137.15Y-116.4
X137.7Y-58.15
X138.55Y-100.45
X139.3Y-35.35
X139.61Y-100.48
X140.2Y-97.95
X141.122Y-122.987
X142.104Y-65.989
X142.833Y-64.618
X142.85Y-73.914
X143.2Y-81.9
X145.15Y-55.95
X145.161Y-108.077
X145.2Y-130.0
X146.44Y-127.743
X147.15Y-45.25
X147.209Y-127.015
X147.6Y-122.9
X147.65Y-66.05
X147.884Y-126.273
X148.05Y-83.629
X148.15Y-33.35
X148.15Y-41.3
X148.573Y-125.544
X149.0Y-87.35
X150.304Y-108.052
X150.317Y-107.036
X150.65Y-110.3
X150.8Y-44.9
X150.85Y-42.25
X152.146Y-80.823
X152.3Y-97.756
X152.95Y-37.05
X153.01Y-97.028
X153.2Y-40.9
X153.35Y-45.4
X153.416Y-118.821
X153.723Y-108.831
X154.25Y-86.35
X154.3Y-110.55
X154.432Y-108.102
X154.987Y-106.953
X155.0Y-103.2
X155.143Y-79.197
X155.6Y-91.35
X155.9Y-86.35
X155.905Y-120.548
X155.99Y-106.934
X156.718Y-99.047
X156.972Y-95.91
X157.226Y-121.374
X157.582Y-98.298
X157.632Y-95.098
X158.039Y-119.461
X158.191Y-84.277
X158.293Y-94.285
X158.344Y-97.536
X158.55Y-32.3
X158.919Y-93.501
X159.004Y-96.672
X159.664Y-92.71
X159.75Y-112.0
X159.868Y-124.816
X160.6Y-87.5
X160.61Y-125.544
X160.85Y-83.1
X161.25Y-102.4
X161.31Y-126.272
X161.65Y-51.8
X161.7Y-84.847
X161.7Y-85.85
X162.032Y-127.0
X162.4Y-33.35
X162.45Y-120.0
X162.696Y-127.752
X162.961Y-103.864
X163.395Y-37.005
X163.5Y-60.2
X163.627Y-93.269
X164.2Y-85.35
X164.4Y-132.75
X164.653Y-88.494
X165.39Y-87.813
X165.695Y-46.902
X165.735Y-47.904
X165.811Y-107.366
X165.904Y-72.754
X166.175Y-132.225
X166.45Y-114.65
X166.611Y-40.221
X166.71Y-84.327
X166.898Y-127.752
X167.44Y-85.014
X167.792Y-88.494
X167.83Y-85.962
X168.622Y-86.578
X168.656Y-89.205
X169.35Y-83.95
X169.35Y-87.3
X169.4Y-34.725
X169.4Y-35.775
X170.383Y-100.178
X170.637Y-130.556
X170.79Y-44.399
X170.993Y-103.835
X170.993Y-105.258
X172.32Y-66.236
X172.4Y-107.8
X172.45Y-85.0
X172.6Y-82.2
X172.974Y-102.54
X173.048Y-65.5
X173.425Y-44.25
X173.685Y-88.392
X173.776Y-64.744
X173.812Y-76.454
X174.346Y-89.205
X174.346Y-92.304
X174.475Y-44.25
X174.575Y-87.05
X174.803Y-100.686
X174.904Y-96.368
X175.3Y-124.816
X175.412Y-116.23
X175.463Y-94.175
X175.463Y-95.225
X175.463Y-99.924
X175.463Y-130.302
X175.514Y-90.373
X175.625Y-87.05
X175.85Y-104.95
X176.05Y-125.544
X176.073Y-99.111
X176.756Y-126.272
X176.8Y-79.25
X176.85Y-61.6
X176.884Y-98.353
X176.962Y-110.338
X177.474Y-127.0
X178.3Y-82.65
X178.4Y-121.45
X178.41Y-90.373
X178.65Y-39.35
X178.907Y-89.502
X179.65Y-67.15
X179.666Y-102.718
X179.68Y-101.702
X179.7Y-87.5
X179.712Y-99.664
X179.717Y-100.699
X179.75Y-131.4
X179.781Y-106.451
X181.05Y-118.85
X183.845Y-120.65
X184.0Y-129.8
X184.55Y-97.05
X184.65Y-125.0
X184.9Y-87.8
X184.912Y-80.391
X185.369Y-106.037
X185.8Y-120.565
X186.614Y-76.759
X186.8Y-127.7
X186.893Y-108.483
X187.246Y-105.13
X188.2Y-35.2
X188.57Y-121.514
X188.65Y-44.9
X189.7Y-127.7
X190.15Y-124.65
X191.262Y-96.19
X193.45Y-132.15
X194.31Y-54.051
X194.75Y-125.75
X194.97Y-106.121
X195.1Y-116.622
X197.688Y-108.636
X197.695Y-118.145
X197.942Y-73.203
X198.05Y-36.0
X200.0Y-104.1
X200.45Y-117.35
X203.35Y-36.9
X203.4Y-119.8
X203.81Y-112.268
X204.4Y-118.15
X204.5Y-100.75
X205.15Y-42.25
X205.75Y-36.9
X206.55Y-57.95
X207.701Y-122.349
X208.61Y-89.916
X210.7Y-120.15
X210.8Y-75.15
X211.455Y-48.539
X212.623Y-93.548
X213.45Y-39.5
X213.65Y-32.95
X215.33Y-31.38
X216.306Y-68.148
X217.4Y-30.65
X218.5Y-74.45
X219.05Y-93.015
X219.775Y-108.575
X219.837Y-85.192
X220.777Y-109.777
X221.742Y-95.758
X222.25Y-52.7
X223.45Y-114.9
X224.2Y-107.45
X225.2Y-48.55
X225.35Y-110.55
X226.517Y-105.816
X227.838Y-45.517
X229.4Y-69.4
X229.641Y-85.877
X230.1Y-49.35
X230.683Y-42.824
X230.835Y-40.361
X232.553Y-65.525
X232.95Y-46.25
X233.55Y-99.7
X233.731Y-60.757
X234.772Y-109.22
X235.5Y-104.92
X236.85Y-68.25
X238.049Y-79.299
X241.1Y-39.85
X245.85Y-50.15
X245.974Y-39.878
X246.25Y-81.95
X248.7Y-97.05
X252.9Y-52.65
X255.9Y-68.35
X266.196Y-34.904
X266.4Y-68.1
X266.8Y-87.95
X267.665Y-84.379
X268.478Y-43.739
X268.65Y-93.35
X268.85Y-72.55
X269.0Y-53.7
X269.67Y-45.38
X270.9Y-91.8
X271.85Y-80.15
X272.6Y-96.35
X272.821Y-62.941
X273.202Y-51.402
X276.3Y-76.5
X276.85Y-83.8
X277.952Y-72.72
X278.1Y-62.3
X287.45Y-58.0
X287.528Y-94.336
X290.6Y-85.0
X290.75Y-71.5
X292.05Y-58.2
X292.15Y-56.55
X292.252Y-77.478
X294.838Y-68.532
X295.7Y-75.85
X296.164Y-89.027
X298.2Y-94.2
T4
X200.553Y-34.392
X202.553Y-34.392
X204.553Y-34.392
X206.553Y-34.392
T5
X144.164Y-100.723
X146.626Y-101.157
X146.682Y-86.444
X149.088Y-101.592
X151.606Y-87.312
X163.19Y-55.53
X165.73Y-55.53
X168.27Y-55.53
X170.81Y-55.53
X182.394Y-87.312
X184.912Y-101.592
X187.318Y-86.444
X187.374Y-101.157
X189.836Y-100.723
X211.125Y-27.508
X213.665Y-27.965
X216.205Y-27.508
X218.745Y-27.965
X221.285Y-27.508
X223.825Y-27.965
T7
X144.617Y-90.608
X151.312Y-89.21
X181.878Y-91.932
X187.691Y-88.328
T8
X142.926Y-92.889
X152.931Y-94.654
X181.069Y-94.654
X191.074Y-92.889
T3
G00X123.0Y-29.275
M15
G01X123.0Y-27.725
M16
G05
G00X123.0Y-32.505
M15
G01X123.0Y-30.955
M16
G05
G00X133.8Y-29.275
M15
G01X133.8Y-27.725
M16
G05
G00X133.8Y-32.505
M15
G01X133.8Y-30.955
M16
G05
T6
G00X142.301Y-93.439
M15
G01X142.526Y-92.159
M16
G05
G00X153.33Y-95.384
M15
G01X153.556Y-94.104
M16
G05
G00X180.67Y-95.384
M15
G01X180.444Y-94.104
M16
G05
G00X191.699Y-93.439
M15
G01X191.474Y-92.159
M16
G05
T0
M30
