M48
; DRILL file {KiCad (5.1.10)-1} date 05/20/21 23:11:27
; FORMAT={-:-/ absolute / metric / decimal}
; #@! TF.CreationDate,2021-05-20T23:11:27+09:00
; #@! TF.GenerationSoftware,Kicad,Pcbnew,(5.1.10)-1
; #@! TF.FileFunction,NonPlated,1,2,NPTH
FMAT,2
METRIC
T1C0.750
T2C1.000
T3C1.600
T4C1.900
T5C2.200
T6C3.000
T7C3.988
T8C4.100
T9C4.300
%
G90
G05
T1
X181.051Y-132.298
X181.051Y-134.098
T3
X160.1Y-131.5
X176.4Y-113.2
T4
X28.67Y-65.862
X28.67Y-84.912
X38.83Y-65.862
X38.83Y-84.912
X47.72Y-51.575
X47.72Y-70.625
X47.72Y-89.675
X57.88Y-51.575
X57.88Y-70.625
X57.88Y-89.675
X67.741Y-80.667
X69.733Y-61.721
X71.724Y-42.776
X77.846Y-81.729
X79.837Y-62.783
X81.828Y-43.838
X88.298Y-73.585
X91.606Y-54.824
X94.914Y-36.064
X98.303Y-75.349
X99.931Y-102.046
X101.611Y-56.589
X104.919Y-37.828
X106.231Y-81.583
X109.539Y-62.823
X109.937Y-103.81
X112.847Y-44.062
X113.944Y-124.395
X116.237Y-83.347
X119.545Y-64.587
X119.831Y-106.277
X122.853Y-45.826
X123.607Y-127.534
X124.578Y-87.236
X127.886Y-68.476
X129.494Y-109.417
X131.194Y-49.715
X134.584Y-89.001
X137.892Y-70.24
X138.948Y-113.237
X141.2Y-51.479
X146.234Y-74.129
X148.08Y-117.69
X156.239Y-75.893
X177.761Y-75.893
X185.92Y-117.69
X187.766Y-74.129
X192.8Y-51.479
X195.052Y-113.237
X196.108Y-70.24
X199.416Y-89.001
X202.806Y-49.715
X204.506Y-109.417
X206.114Y-68.476
X209.422Y-87.236
X210.393Y-127.534
X211.147Y-45.826
X214.169Y-106.277
X214.455Y-64.587
X217.763Y-83.347
X220.056Y-124.395
X221.153Y-44.062
X224.063Y-103.81
X224.461Y-62.823
X227.769Y-81.583
X229.081Y-37.828
X232.389Y-56.589
X234.069Y-102.046
X235.697Y-75.349
X239.086Y-36.064
X242.394Y-54.824
X245.702Y-73.585
X252.172Y-43.838
X254.163Y-62.783
X256.154Y-81.729
X262.276Y-42.776
X264.267Y-61.721
X266.259Y-80.667
X276.12Y-51.575
X276.12Y-70.625
X276.12Y-89.675
X286.28Y-51.575
X286.28Y-70.625
X286.28Y-89.675
X295.17Y-65.862
X295.17Y-84.912
X305.33Y-65.862
X305.33Y-84.912
T5
X153.4Y-60.1
X180.6Y-60.1
T6
X29.94Y-63.322
X29.94Y-82.373
X36.29Y-60.782
X36.29Y-79.832
X48.99Y-49.035
X48.99Y-68.085
X48.99Y-87.135
X55.34Y-46.495
X55.34Y-65.545
X55.34Y-84.595
X69.27Y-78.273
X71.261Y-59.328
X73.252Y-40.382
X75.851Y-76.411
X77.842Y-57.466
X79.833Y-38.52
X89.99Y-71.304
X93.298Y-52.544
X96.606Y-33.783
X96.684Y-69.905
X99.992Y-51.145
X101.623Y-99.765
X103.3Y-32.384
X107.923Y-79.302
X108.317Y-98.366
X111.231Y-60.542
X114.539Y-41.781
X114.618Y-77.904
X115.937Y-122.371
X117.926Y-59.143
X121.234Y-40.382
X121.824Y-104.254
X122.761Y-121.918
X126.27Y-84.955
X128.648Y-103.8
X129.578Y-66.195
X132.886Y-47.434
X132.965Y-83.557
X136.273Y-64.796
X139.581Y-46.035
X141.203Y-111.51
X147.925Y-71.848
X148.024Y-112.011
X154.62Y-70.449
X178.57Y-73.171
X184.383Y-69.567
X185.948Y-114.851
X190.542Y-109.784
X193.61Y-48.757
X196.918Y-67.518
X199.422Y-45.153
X200.226Y-86.279
X202.73Y-63.914
X204.929Y-106.609
X206.038Y-82.674
X210.183Y-102.231
X210.816Y-124.726
X211.957Y-43.104
X215.265Y-61.865
X216.07Y-120.348
X217.769Y-39.5
X218.573Y-80.625
X221.077Y-58.261
X224.385Y-77.021
X224.873Y-101.088
X229.89Y-35.106
X230.685Y-97.484
X233.198Y-53.867
X235.703Y-31.502
X236.506Y-72.627
X239.011Y-50.263
X242.319Y-69.023
X253.169Y-41.179
X255.161Y-60.124
X257.152Y-79.07
X259.219Y-37.989
X261.21Y-56.934
X263.202Y-75.88
X277.39Y-49.035
X277.39Y-68.085
X277.39Y-87.135
X283.74Y-46.495
X283.74Y-65.545
X283.74Y-84.595
X296.44Y-63.322
X296.44Y-82.373
X302.79Y-60.782
X302.79Y-79.832
T7
X147.928Y-93.771
X186.072Y-93.771
T8
X33.75Y-65.862
X33.75Y-84.912
X52.8Y-51.575
X52.8Y-70.625
X52.8Y-89.675
X72.793Y-81.198
X74.785Y-62.252
X76.776Y-43.307
X93.301Y-74.467
X96.609Y-55.707
X99.917Y-36.946
X104.934Y-102.928
X111.234Y-82.465
X114.542Y-63.705
X117.85Y-44.944
X118.776Y-125.964
X124.662Y-107.847
X129.581Y-88.118
X132.889Y-69.358
X136.197Y-50.597
X143.514Y-115.464
X151.236Y-75.011
X182.764Y-75.011
X190.486Y-115.464
X197.803Y-50.597
X201.111Y-69.358
X204.419Y-88.118
X209.338Y-107.847
X215.224Y-125.964
X216.15Y-44.944
X219.458Y-63.705
X222.766Y-82.465
X229.066Y-102.928
X234.083Y-36.946
X237.391Y-55.707
X240.699Y-74.467
X257.224Y-43.307
X259.215Y-62.252
X261.207Y-81.198
X281.2Y-51.575
X281.2Y-70.625
X281.2Y-89.675
X300.25Y-65.862
X300.25Y-84.912
T9
X34.7Y-46.25
X42.0Y-95.8
X84.4Y-102.55
X86.25Y-30.85
X132.0Y-132.95
X142.0Y-30.9
X192.0Y-30.9
X202.0Y-132.95
X247.75Y-30.85
X249.6Y-102.55
X292.0Y-95.8
X299.3Y-46.25
T2
G00X152.8Y-132.2
M15
G01X155.8Y-132.2
M16
G05
T0
M30
