%TF.GenerationSoftware,KiCad,Pcbnew,(5.1.10)-1*%
%TF.CreationDate,2021-05-20T23:11:24+09:00*%
%TF.ProjectId,yacc46,79616363-3436-42e6-9b69-6361645f7063,rev?*%
%TF.SameCoordinates,Original*%
%TF.FileFunction,Profile,NP*%
%FSLAX46Y46*%
G04 Gerber Fmt 4.6, Leading zero omitted, Abs format (unit mm)*
G04 Created by KiCad (PCBNEW (5.1.10)-1) date 2021-05-20 23:11:24*
%MOMM*%
%LPD*%
G01*
G04 APERTURE LIST*
%TA.AperFunction,Profile*%
%ADD10C,0.200000*%
%TD*%
G04 APERTURE END LIST*
D10*
X167007352Y-25916847D02*
X133075680Y-25916847D01*
X133075680Y-31600140D02*
X133075680Y-25916847D01*
X123725940Y-31600140D02*
X133075680Y-31600140D01*
X123725940Y-25916847D02*
X123725940Y-31600140D01*
X123725940Y-25916847D02*
X94704575Y-25916847D01*
X94704575Y-25916847D02*
X94435564Y-25916972D01*
X94435564Y-25916972D02*
X94148901Y-25917455D01*
X94148901Y-25917455D02*
X93847119Y-25918453D01*
X93847119Y-25918453D02*
X93532750Y-25920122D01*
X93532750Y-25920122D02*
X93208324Y-25922622D01*
X93208324Y-25922622D02*
X92876373Y-25926110D01*
X92876373Y-25926110D02*
X92539430Y-25930743D01*
X92539430Y-25930743D02*
X92200026Y-25936679D01*
X92200026Y-25936679D02*
X91860692Y-25944075D01*
X91860692Y-25944075D02*
X91523961Y-25953090D01*
X91523961Y-25953090D02*
X91192364Y-25963882D01*
X91192364Y-25963882D02*
X90868433Y-25976607D01*
X90868433Y-25976607D02*
X90554699Y-25991423D01*
X90554699Y-25991423D02*
X90253694Y-26008489D01*
X90253694Y-26008489D02*
X89967950Y-26027962D01*
X89967950Y-26027962D02*
X89700000Y-26050000D01*
X206466250Y-137971443D02*
X167007352Y-137971443D01*
X308108462Y-98888039D02*
X305876576Y-99172800D01*
X305876576Y-99172800D02*
X303565603Y-99468067D01*
X303565603Y-99468067D02*
X301184140Y-99773325D01*
X301184140Y-99773325D02*
X298740787Y-100088058D01*
X298740787Y-100088058D02*
X296244140Y-100411753D01*
X296244140Y-100411753D02*
X293702800Y-100743896D01*
X293702800Y-100743896D02*
X291125364Y-101083970D01*
X291125364Y-101083970D02*
X288520430Y-101431462D01*
X288520430Y-101431462D02*
X285896597Y-101785858D01*
X285896597Y-101785858D02*
X283262463Y-102146643D01*
X283262463Y-102146643D02*
X280626627Y-102513302D01*
X280626627Y-102513302D02*
X277997687Y-102885320D01*
X277997687Y-102885320D02*
X275384241Y-103262184D01*
X275384241Y-103262184D02*
X272794888Y-103643378D01*
X272794888Y-103643378D02*
X270238226Y-104028388D01*
X270238226Y-104028388D02*
X267722853Y-104416700D01*
X267722853Y-104416700D02*
X265257368Y-104807799D01*
X265257368Y-104807799D02*
X262850370Y-105201171D01*
X262850370Y-105201171D02*
X260510455Y-105596300D01*
X260510455Y-105596300D02*
X258246224Y-105992673D01*
X258246224Y-105992673D02*
X256066274Y-106389774D01*
X256066274Y-106389774D02*
X253979204Y-106787090D01*
X253979204Y-106787090D02*
X251993611Y-107184105D01*
X251993611Y-107184105D02*
X250118095Y-107580306D01*
X250118095Y-107580306D02*
X248361253Y-107975177D01*
X248361253Y-107975177D02*
X246731685Y-108368205D01*
X246731685Y-108368205D02*
X245237988Y-108758874D01*
X245237988Y-108758874D02*
X243888761Y-109146670D01*
X243888761Y-109146670D02*
X242692602Y-109531079D01*
X242692602Y-109531079D02*
X241658109Y-109911585D01*
X241658109Y-109911585D02*
X240793882Y-110287675D01*
X240793882Y-110287675D02*
X240108518Y-110658834D01*
X227364610Y-130321375D02*
X227318528Y-130595425D01*
X227318528Y-130595425D02*
X227239328Y-130868985D01*
X227239328Y-130868985D02*
X227129624Y-131138097D01*
X227129624Y-131138097D02*
X226992030Y-131398804D01*
X226992030Y-131398804D02*
X226829160Y-131647150D01*
X226829160Y-131647150D02*
X226643628Y-131879177D01*
X226643628Y-131879177D02*
X226438049Y-132090929D01*
X226438049Y-132090929D02*
X226215037Y-132278448D01*
X226215037Y-132278448D02*
X225977205Y-132437778D01*
X225977205Y-132437778D02*
X225727168Y-132564961D01*
X225727168Y-132564961D02*
X225554987Y-132629937D01*
X167007352Y-25916847D02*
X239313516Y-25916847D01*
X127551841Y-137971443D02*
X167010740Y-137971443D01*
X122378181Y-137151899D02*
X122692331Y-137250582D01*
X122692331Y-137250582D02*
X123008147Y-137343007D01*
X123008147Y-137343007D02*
X123325535Y-137429159D01*
X123325535Y-137429159D02*
X123644400Y-137509021D01*
X123644400Y-137509021D02*
X123964648Y-137582580D01*
X123964648Y-137582580D02*
X124286187Y-137649821D01*
X124286187Y-137649821D02*
X124608921Y-137710728D01*
X124608921Y-137710728D02*
X124932756Y-137765287D01*
X124932756Y-137765287D02*
X125257600Y-137813483D01*
X125257600Y-137813483D02*
X125583358Y-137855302D01*
X125583358Y-137855302D02*
X125909936Y-137890727D01*
X125909936Y-137890727D02*
X126237240Y-137919745D01*
X126237240Y-137919745D02*
X126565176Y-137942340D01*
X126565176Y-137942340D02*
X126893651Y-137958498D01*
X126893651Y-137958498D02*
X127222571Y-137968204D01*
X127222571Y-137968204D02*
X127551841Y-137971443D01*
X25909629Y-98888039D02*
X28141514Y-99172800D01*
X28141514Y-99172800D02*
X30452487Y-99468067D01*
X30452487Y-99468067D02*
X32833950Y-99773325D01*
X32833950Y-99773325D02*
X35277303Y-100088058D01*
X35277303Y-100088058D02*
X37773950Y-100411753D01*
X37773950Y-100411753D02*
X40315290Y-100743896D01*
X40315290Y-100743896D02*
X42892726Y-101083970D01*
X42892726Y-101083970D02*
X45497660Y-101431462D01*
X45497660Y-101431462D02*
X48121493Y-101785858D01*
X48121493Y-101785858D02*
X50755627Y-102146643D01*
X50755627Y-102146643D02*
X53391463Y-102513302D01*
X53391463Y-102513302D02*
X56020403Y-102885320D01*
X56020403Y-102885320D02*
X58633849Y-103262184D01*
X58633849Y-103262184D02*
X61223202Y-103643378D01*
X61223202Y-103643378D02*
X63779864Y-104028388D01*
X63779864Y-104028388D02*
X66295237Y-104416700D01*
X66295237Y-104416700D02*
X68760722Y-104807799D01*
X68760722Y-104807799D02*
X71167720Y-105201171D01*
X71167720Y-105201171D02*
X73507635Y-105596300D01*
X73507635Y-105596300D02*
X75771866Y-105992673D01*
X75771866Y-105992673D02*
X77951816Y-106389774D01*
X77951816Y-106389774D02*
X80038886Y-106787090D01*
X80038886Y-106787090D02*
X82024479Y-107184105D01*
X82024479Y-107184105D02*
X83899995Y-107580306D01*
X83899995Y-107580306D02*
X85656837Y-107975177D01*
X85656837Y-107975177D02*
X87286405Y-108368205D01*
X87286405Y-108368205D02*
X88780102Y-108758874D01*
X88780102Y-108758874D02*
X90129329Y-109146670D01*
X90129329Y-109146670D02*
X91325488Y-109531079D01*
X91325488Y-109531079D02*
X92359981Y-109911585D01*
X92359981Y-109911585D02*
X93224208Y-110287675D01*
X93224208Y-110287675D02*
X93909573Y-110658834D01*
X309783233Y-96985916D02*
X309763936Y-97245500D01*
X309763936Y-97245500D02*
X309707939Y-97497596D01*
X309707939Y-97497596D02*
X309618083Y-97738976D01*
X309618083Y-97738976D02*
X309497210Y-97966413D01*
X309497210Y-97966413D02*
X309348160Y-98176679D01*
X309348160Y-98176679D02*
X309173774Y-98366546D01*
X309173774Y-98366546D02*
X308976894Y-98532787D01*
X308976894Y-98532787D02*
X308760361Y-98672173D01*
X308760361Y-98672173D02*
X308527015Y-98781478D01*
X308527015Y-98781478D02*
X308279698Y-98857474D01*
X308279698Y-98857474D02*
X308108462Y-98888039D01*
X225554987Y-132629937D02*
X211639911Y-137151899D01*
X244318092Y-26050000D02*
X245788172Y-26206447D01*
X245788172Y-26206447D02*
X247375756Y-26418871D01*
X247375756Y-26418871D02*
X249072499Y-26684385D01*
X249072499Y-26684385D02*
X250870059Y-27000101D01*
X250870059Y-27000101D02*
X252760092Y-27363131D01*
X252760092Y-27363131D02*
X254734256Y-27770589D01*
X254734256Y-27770589D02*
X256784208Y-28219586D01*
X256784208Y-28219586D02*
X258901604Y-28707235D01*
X258901604Y-28707235D02*
X261078102Y-29230649D01*
X261078102Y-29230649D02*
X263305359Y-29786941D01*
X263305359Y-29786941D02*
X265575031Y-30373222D01*
X265575031Y-30373222D02*
X267878776Y-30986605D01*
X267878776Y-30986605D02*
X270208250Y-31624203D01*
X270208250Y-31624203D02*
X272555111Y-32283128D01*
X272555111Y-32283128D02*
X274911016Y-32960493D01*
X274911016Y-32960493D02*
X277267621Y-33653411D01*
X277267621Y-33653411D02*
X279616583Y-34358994D01*
X279616583Y-34358994D02*
X281949560Y-35074354D01*
X281949560Y-35074354D02*
X284258209Y-35796604D01*
X284258209Y-35796604D02*
X286534186Y-36522856D01*
X286534186Y-36522856D02*
X288769149Y-37250224D01*
X288769149Y-37250224D02*
X290954754Y-37975819D01*
X290954754Y-37975819D02*
X293082659Y-38696755D01*
X293082659Y-38696755D02*
X295144520Y-39410143D01*
X295144520Y-39410143D02*
X297131995Y-40113096D01*
X297131995Y-40113096D02*
X299036740Y-40802727D01*
X299036740Y-40802727D02*
X300850413Y-41476148D01*
X300850413Y-41476148D02*
X302564670Y-42130472D01*
X302564670Y-42130472D02*
X304171168Y-42762811D01*
X304171168Y-42762811D02*
X305661565Y-43370279D01*
X305661565Y-43370279D02*
X307027518Y-43949986D01*
X307027518Y-43949986D02*
X308260683Y-44499047D01*
X211639911Y-137151899D02*
X211325760Y-137250582D01*
X211325760Y-137250582D02*
X211009944Y-137343007D01*
X211009944Y-137343007D02*
X210692556Y-137429159D01*
X210692556Y-137429159D02*
X210373691Y-137509021D01*
X210373691Y-137509021D02*
X210053443Y-137582580D01*
X210053443Y-137582580D02*
X209731904Y-137649821D01*
X209731904Y-137649821D02*
X209409170Y-137710728D01*
X209409170Y-137710728D02*
X209085335Y-137765287D01*
X209085335Y-137765287D02*
X208760491Y-137813483D01*
X208760491Y-137813483D02*
X208434733Y-137855302D01*
X208434733Y-137855302D02*
X208108155Y-137890727D01*
X208108155Y-137890727D02*
X207780851Y-137919745D01*
X207780851Y-137919745D02*
X207452914Y-137942340D01*
X207452914Y-137942340D02*
X207124439Y-137958498D01*
X207124439Y-137958498D02*
X206795520Y-137968204D01*
X206795520Y-137968204D02*
X206466250Y-137971443D01*
X309783233Y-46916816D02*
X309783233Y-96985916D01*
X93909573Y-110658834D02*
X94480709Y-111022300D01*
X94480709Y-111022300D02*
X95048350Y-111401114D01*
X95048350Y-111401114D02*
X95611730Y-111795359D01*
X95611730Y-111795359D02*
X96170083Y-112205120D01*
X96170083Y-112205120D02*
X96722643Y-112630482D01*
X96722643Y-112630482D02*
X97268645Y-113071529D01*
X97268645Y-113071529D02*
X97807322Y-113528345D01*
X97807322Y-113528345D02*
X98337908Y-114001016D01*
X98337908Y-114001016D02*
X98859638Y-114489626D01*
X98859638Y-114489626D02*
X99371745Y-114994260D01*
X99371745Y-114994260D02*
X99873465Y-115515002D01*
X99873465Y-115515002D02*
X100364030Y-116051936D01*
X100364030Y-116051936D02*
X100842675Y-116605148D01*
X100842675Y-116605148D02*
X101308634Y-117174721D01*
X101308634Y-117174721D02*
X101761142Y-117760742D01*
X101761142Y-117760742D02*
X102199432Y-118363293D01*
X102199432Y-118363293D02*
X102622738Y-118982460D01*
X102622738Y-118982460D02*
X103030294Y-119618327D01*
X103030294Y-119618327D02*
X103421335Y-120270980D01*
X103421335Y-120270980D02*
X103795095Y-120940501D01*
X103795095Y-120940501D02*
X104150808Y-121626977D01*
X104150808Y-121626977D02*
X104487707Y-122330492D01*
X104487707Y-122330492D02*
X104805027Y-123051129D01*
X104805027Y-123051129D02*
X105102003Y-123788975D01*
X105102003Y-123788975D02*
X105377868Y-124544113D01*
X105377868Y-124544113D02*
X105631855Y-125316628D01*
X105631855Y-125316628D02*
X105863201Y-126106605D01*
X105863201Y-126106605D02*
X106071138Y-126914128D01*
X106071138Y-126914128D02*
X106254900Y-127739282D01*
X106254900Y-127739282D02*
X106413722Y-128582151D01*
X106413722Y-128582151D02*
X106546838Y-129442821D01*
X106546838Y-129442821D02*
X106653482Y-130321375D01*
X25757408Y-44499047D02*
X25523938Y-44626166D01*
X25523938Y-44626166D02*
X25302076Y-44786365D01*
X25302076Y-44786365D02*
X25094300Y-44975321D01*
X25094300Y-44975321D02*
X24903092Y-45188714D01*
X24903092Y-45188714D02*
X24730931Y-45422222D01*
X24730931Y-45422222D02*
X24580297Y-45671525D01*
X24580297Y-45671525D02*
X24453672Y-45932301D01*
X24453672Y-45932301D02*
X24353534Y-46200231D01*
X24353534Y-46200231D02*
X24282364Y-46470991D01*
X24282364Y-46470991D02*
X24242643Y-46740263D01*
X24242643Y-46740263D02*
X24234859Y-46916816D01*
X240108518Y-110658834D02*
X239537381Y-111022300D01*
X239537381Y-111022300D02*
X238969740Y-111401114D01*
X238969740Y-111401114D02*
X238406360Y-111795359D01*
X238406360Y-111795359D02*
X237848007Y-112205120D01*
X237848007Y-112205120D02*
X237295447Y-112630482D01*
X237295447Y-112630482D02*
X236749445Y-113071529D01*
X236749445Y-113071529D02*
X236210768Y-113528345D01*
X236210768Y-113528345D02*
X235680182Y-114001016D01*
X235680182Y-114001016D02*
X235158452Y-114489626D01*
X235158452Y-114489626D02*
X234646345Y-114994260D01*
X234646345Y-114994260D02*
X234144625Y-115515002D01*
X234144625Y-115515002D02*
X233654060Y-116051936D01*
X233654060Y-116051936D02*
X233175415Y-116605148D01*
X233175415Y-116605148D02*
X232709456Y-117174721D01*
X232709456Y-117174721D02*
X232256948Y-117760742D01*
X232256948Y-117760742D02*
X231818659Y-118363293D01*
X231818659Y-118363293D02*
X231395353Y-118982460D01*
X231395353Y-118982460D02*
X230987796Y-119618327D01*
X230987796Y-119618327D02*
X230596755Y-120270980D01*
X230596755Y-120270980D02*
X230222995Y-120940501D01*
X230222995Y-120940501D02*
X229867283Y-121626977D01*
X229867283Y-121626977D02*
X229530383Y-122330492D01*
X229530383Y-122330492D02*
X229213063Y-123051129D01*
X229213063Y-123051129D02*
X228916088Y-123788975D01*
X228916088Y-123788975D02*
X228640223Y-124544113D01*
X228640223Y-124544113D02*
X228386235Y-125316628D01*
X228386235Y-125316628D02*
X228154890Y-126106605D01*
X228154890Y-126106605D02*
X227946953Y-126914128D01*
X227946953Y-126914128D02*
X227763191Y-127739282D01*
X227763191Y-127739282D02*
X227604369Y-128582151D01*
X227604369Y-128582151D02*
X227471253Y-129442821D01*
X227471253Y-129442821D02*
X227364610Y-130321375D01*
X24234859Y-96985916D02*
X24254155Y-97245500D01*
X24254155Y-97245500D02*
X24310152Y-97497596D01*
X24310152Y-97497596D02*
X24400008Y-97738976D01*
X24400008Y-97738976D02*
X24520881Y-97966413D01*
X24520881Y-97966413D02*
X24669931Y-98176679D01*
X24669931Y-98176679D02*
X24844316Y-98366546D01*
X24844316Y-98366546D02*
X25041196Y-98532787D01*
X25041196Y-98532787D02*
X25257729Y-98672173D01*
X25257729Y-98672173D02*
X25491075Y-98781478D01*
X25491075Y-98781478D02*
X25738392Y-98857474D01*
X25738392Y-98857474D02*
X25909629Y-98888039D01*
X308260683Y-44499047D02*
X308494152Y-44626166D01*
X308494152Y-44626166D02*
X308716014Y-44786365D01*
X308716014Y-44786365D02*
X308923790Y-44975321D01*
X308923790Y-44975321D02*
X309114999Y-45188714D01*
X309114999Y-45188714D02*
X309287160Y-45422222D01*
X309287160Y-45422222D02*
X309437793Y-45671525D01*
X309437793Y-45671525D02*
X309564419Y-45932301D01*
X309564419Y-45932301D02*
X309664557Y-46200231D01*
X309664557Y-46200231D02*
X309735727Y-46470991D01*
X309735727Y-46470991D02*
X309775448Y-46740263D01*
X309775448Y-46740263D02*
X309783233Y-46916816D01*
X239313516Y-25916847D02*
X239582526Y-25916972D01*
X239582526Y-25916972D02*
X239869189Y-25917455D01*
X239869189Y-25917455D02*
X240170971Y-25918453D01*
X240170971Y-25918453D02*
X240485341Y-25920122D01*
X240485341Y-25920122D02*
X240809767Y-25922622D01*
X240809767Y-25922622D02*
X241141717Y-25926110D01*
X241141717Y-25926110D02*
X241478660Y-25930743D01*
X241478660Y-25930743D02*
X241818065Y-25936679D01*
X241818065Y-25936679D02*
X242157398Y-25944075D01*
X242157398Y-25944075D02*
X242494130Y-25953090D01*
X242494130Y-25953090D02*
X242825727Y-25963882D01*
X242825727Y-25963882D02*
X243149658Y-25976607D01*
X243149658Y-25976607D02*
X243463392Y-25991423D01*
X243463392Y-25991423D02*
X243764397Y-26008489D01*
X243764397Y-26008489D02*
X244050141Y-26027962D01*
X244050141Y-26027962D02*
X244318092Y-26050000D01*
X108463104Y-132629937D02*
X122378181Y-137151899D01*
X24234859Y-46916816D02*
X24234859Y-96985916D01*
X106653482Y-130321375D02*
X106699563Y-130595425D01*
X106699563Y-130595425D02*
X106778762Y-130868985D01*
X106778762Y-130868985D02*
X106888466Y-131138097D01*
X106888466Y-131138097D02*
X107026060Y-131398804D01*
X107026060Y-131398804D02*
X107188930Y-131647150D01*
X107188930Y-131647150D02*
X107374462Y-131879177D01*
X107374462Y-131879177D02*
X107580041Y-132090929D01*
X107580041Y-132090929D02*
X107803054Y-132278448D01*
X107803054Y-132278448D02*
X108040886Y-132437778D01*
X108040886Y-132437778D02*
X108290923Y-132564961D01*
X108290923Y-132564961D02*
X108463104Y-132629937D01*
X89700000Y-26050000D02*
X88229919Y-26206447D01*
X88229919Y-26206447D02*
X86642335Y-26418871D01*
X86642335Y-26418871D02*
X84945592Y-26684385D01*
X84945592Y-26684385D02*
X83148032Y-27000101D01*
X83148032Y-27000101D02*
X81257998Y-27363131D01*
X81257998Y-27363131D02*
X79283834Y-27770589D01*
X79283834Y-27770589D02*
X77233882Y-28219586D01*
X77233882Y-28219586D02*
X75116486Y-28707235D01*
X75116486Y-28707235D02*
X72939988Y-29230649D01*
X72939988Y-29230649D02*
X70712731Y-29786941D01*
X70712731Y-29786941D02*
X68443059Y-30373222D01*
X68443059Y-30373222D02*
X66139314Y-30986605D01*
X66139314Y-30986605D02*
X63809840Y-31624203D01*
X63809840Y-31624203D02*
X61462979Y-32283128D01*
X61462979Y-32283128D02*
X59107075Y-32960493D01*
X59107075Y-32960493D02*
X56750470Y-33653411D01*
X56750470Y-33653411D02*
X54401507Y-34358994D01*
X54401507Y-34358994D02*
X52068530Y-35074354D01*
X52068530Y-35074354D02*
X49759881Y-35796604D01*
X49759881Y-35796604D02*
X47483904Y-36522856D01*
X47483904Y-36522856D02*
X45248941Y-37250224D01*
X45248941Y-37250224D02*
X43063336Y-37975819D01*
X43063336Y-37975819D02*
X40935431Y-38696755D01*
X40935431Y-38696755D02*
X38873570Y-39410143D01*
X38873570Y-39410143D02*
X36886095Y-40113096D01*
X36886095Y-40113096D02*
X34981350Y-40802727D01*
X34981350Y-40802727D02*
X33167677Y-41476148D01*
X33167677Y-41476148D02*
X31453420Y-42130472D01*
X31453420Y-42130472D02*
X29846922Y-42762811D01*
X29846922Y-42762811D02*
X28356525Y-43370279D01*
X28356525Y-43370279D02*
X26990572Y-43949986D01*
X26990572Y-43949986D02*
X25757408Y-44499047D01*
M02*
