%TF.GenerationSoftware,KiCad,Pcbnew,(5.1.10)-1*%
%TF.CreationDate,2021-05-20T23:11:24+09:00*%
%TF.ProjectId,yacc46,79616363-3436-42e6-9b69-6361645f7063,rev?*%
%TF.SameCoordinates,Original*%
%TF.FileFunction,Soldermask,Top*%
%TF.FilePolarity,Negative*%
%FSLAX46Y46*%
G04 Gerber Fmt 4.6, Leading zero omitted, Abs format (unit mm)*
G04 Created by KiCad (PCBNEW (5.1.10)-1) date 2021-05-20 23:11:24*
%MOMM*%
%LPD*%
G01*
G04 APERTURE LIST*
%ADD10O,1.000000X2.550000*%
%ADD11R,0.300000X1.100000*%
%ADD12C,1.600000*%
%ADD13R,1.600000X1.600000*%
%ADD14C,4.100000*%
%ADD15C,1.900000*%
%ADD16C,3.000000*%
%ADD17C,0.600000*%
%ADD18O,4.000000X1.000000*%
%ADD19C,4.300000*%
%ADD20C,2.200000*%
%ADD21O,1.700000X1.700000*%
%ADD22C,1.700000*%
%ADD23R,1.350000X1.350000*%
%ADD24O,1.350000X1.350000*%
%ADD25C,2.400000*%
%ADD26C,3.987800*%
%ADD27C,2.000000*%
%ADD28C,0.100000*%
%ADD29C,0.750000*%
G04 APERTURE END LIST*
D10*
%TO.C,J1*%
X123000000Y-31730000D03*
X133800000Y-31730000D03*
X123000000Y-28500000D03*
X133800000Y-28500000D03*
D11*
X124650000Y-32450000D03*
X124150000Y-32450000D03*
X125650000Y-32450000D03*
X126650000Y-32450000D03*
X125150000Y-32450000D03*
X126150000Y-32450000D03*
X127650000Y-32450000D03*
X127150000Y-32450000D03*
X128650000Y-32450000D03*
X128150000Y-32450000D03*
X129650000Y-32450000D03*
X129150000Y-32450000D03*
X130650000Y-32450000D03*
X130150000Y-32450000D03*
X131650000Y-32450000D03*
X131150000Y-32450000D03*
X132150000Y-32450000D03*
X132650000Y-32450000D03*
%TD*%
D12*
%TO.C,ST1*%
X160100000Y-131500000D03*
X176400000Y-113200000D03*
%TD*%
%TO.C,J2*%
X163190000Y-55530000D03*
X165730000Y-55530000D03*
X168270000Y-55530000D03*
D13*
X170810000Y-55530000D03*
%TD*%
D14*
%TO.C,SW29*%
X182763670Y-75010850D03*
D15*
X187766493Y-74128717D03*
X177760847Y-75892983D03*
D16*
X178570486Y-73171038D03*
X184382949Y-69566960D03*
D17*
X187634784Y-68993574D03*
X175345241Y-73739736D03*
%TD*%
D18*
%TO.C,HOLE_ST*%
X154300000Y-132200000D03*
%TD*%
D19*
%TO.C,H1*%
X132000000Y-132949999D03*
%TD*%
%TO.C,H2*%
X84400000Y-102550000D03*
%TD*%
%TO.C,H3*%
X42000000Y-95800000D03*
%TD*%
%TO.C,H4*%
X34700000Y-46250000D03*
%TD*%
%TO.C,H5*%
X86250000Y-30850000D03*
%TD*%
%TO.C,H6*%
X142000000Y-30900000D03*
%TD*%
%TO.C,H7*%
X192000000Y-30900000D03*
%TD*%
%TO.C,H8*%
X247750000Y-30850000D03*
%TD*%
%TO.C,H9*%
X299300000Y-46250000D03*
%TD*%
%TO.C,H10*%
X292000000Y-95800000D03*
%TD*%
%TO.C,H11*%
X249600000Y-102550000D03*
%TD*%
%TO.C,H12*%
X202000000Y-132949998D03*
%TD*%
D20*
%TO.C,H13*%
X153400000Y-60100000D03*
%TD*%
%TO.C,H14*%
X180600000Y-60100000D03*
%TD*%
D21*
%TO.C,J4*%
X223824800Y-27965400D03*
X221284800Y-27508200D03*
X218744800Y-27965400D03*
X216204800Y-27508200D03*
X213664800Y-27965400D03*
D22*
X211124800Y-27508200D03*
%TD*%
D23*
%TO.C,J5*%
X206552800Y-34391600D03*
D24*
X204552800Y-34391600D03*
X202552800Y-34391600D03*
X200552800Y-34391600D03*
%TD*%
D14*
%TO.C,SW1*%
X52800000Y-51575000D03*
D15*
X57880000Y-51575000D03*
X47720000Y-51575000D03*
D16*
X48990000Y-49035000D03*
X55340000Y-46495000D03*
D17*
X58642000Y-46495000D03*
X45715000Y-49035000D03*
%TD*%
%TO.C,SW2*%
X69995304Y-40039858D03*
X83116991Y-38865012D03*
D16*
X79833079Y-38519859D03*
X73252363Y-40382189D03*
D15*
X71723818Y-42775523D03*
X81828160Y-43837533D03*
D14*
X76775989Y-43306528D03*
%TD*%
D17*
%TO.C,SW3*%
X93380267Y-33214266D03*
X106551944Y-32957604D03*
D16*
X103300108Y-32384218D03*
X96605513Y-33782964D03*
D15*
X94913741Y-36063842D03*
X104919387Y-37828108D03*
D14*
X99916564Y-36945975D03*
%TD*%
%TO.C,SW4*%
X117850152Y-44944120D03*
D15*
X122852975Y-45826253D03*
X112847329Y-44061987D03*
D16*
X114539101Y-41781109D03*
X121233696Y-40382363D03*
D17*
X124485532Y-40955749D03*
X111313855Y-41212411D03*
%TD*%
%TO.C,SW5*%
X129660943Y-46865482D03*
X142832620Y-46608820D03*
D16*
X139580784Y-46035434D03*
X132886189Y-47434180D03*
D15*
X131194417Y-49715058D03*
X141200063Y-51479324D03*
D14*
X136197240Y-50597191D03*
%TD*%
%TO.C,SW6*%
X33750000Y-65862500D03*
D15*
X38830000Y-65862500D03*
X28670000Y-65862500D03*
D16*
X29940000Y-63322500D03*
X36290000Y-60782500D03*
D17*
X39592000Y-60782500D03*
X26665000Y-63322500D03*
%TD*%
%TO.C,SW7*%
X45715000Y-68085000D03*
X58642000Y-65545000D03*
D16*
X55340000Y-65545000D03*
X48990000Y-68085000D03*
D15*
X47720000Y-70625000D03*
X57880000Y-70625000D03*
D14*
X52800000Y-70625000D03*
%TD*%
D17*
%TO.C,SW8*%
X68004036Y-58985500D03*
X81125723Y-57810654D03*
D16*
X77841811Y-57465501D03*
X71261095Y-59327831D03*
D15*
X69732550Y-61721165D03*
X79836892Y-62783175D03*
D14*
X74784721Y-62252170D03*
%TD*%
%TO.C,SW9*%
X96608566Y-55706563D03*
D15*
X101611389Y-56588696D03*
X91605743Y-54824430D03*
D16*
X93297515Y-52543552D03*
X99992110Y-51144806D03*
D17*
X103243946Y-51718192D03*
X90072269Y-51974854D03*
%TD*%
%TO.C,SW10*%
X108005857Y-59972999D03*
X121177534Y-59716337D03*
D16*
X117925698Y-59142951D03*
X111231103Y-60541697D03*
D15*
X109539331Y-62822575D03*
X119544977Y-64586841D03*
D14*
X114542154Y-63704708D03*
%TD*%
D17*
%TO.C,SW11*%
X126352945Y-65626070D03*
X139524622Y-65369408D03*
D16*
X136272786Y-64796022D03*
X129578191Y-66194768D03*
D15*
X127886419Y-68475646D03*
X137892065Y-70239912D03*
D14*
X132889242Y-69357779D03*
%TD*%
%TO.C,SW12*%
X151236330Y-75010850D03*
D15*
X156239153Y-75892983D03*
X146233507Y-74128717D03*
D16*
X147925279Y-71847839D03*
X154619874Y-70449093D03*
D17*
X157871710Y-71022479D03*
X144700033Y-71279141D03*
%TD*%
D14*
%TO.C,SW13*%
X33750000Y-84912500D03*
D15*
X38830000Y-84912500D03*
X28670000Y-84912500D03*
D16*
X29940000Y-82372500D03*
X36290000Y-79832500D03*
D17*
X39592000Y-79832500D03*
X26665000Y-82372500D03*
%TD*%
D14*
%TO.C,SW14*%
X52800000Y-89675000D03*
D15*
X57880000Y-89675000D03*
X47720000Y-89675000D03*
D16*
X48990000Y-87135000D03*
X55340000Y-84595000D03*
D17*
X58642000Y-84595000D03*
X45715000Y-87135000D03*
%TD*%
D14*
%TO.C,SW15*%
X72793454Y-81197812D03*
D15*
X77845625Y-81728817D03*
X67741283Y-80666807D03*
D16*
X69269828Y-78273473D03*
X75850544Y-76411143D03*
D17*
X79134456Y-76756296D03*
X66012769Y-77931142D03*
%TD*%
%TO.C,SW16*%
X86764271Y-70735442D03*
X99935948Y-70478780D03*
D16*
X96684112Y-69905394D03*
X89989517Y-71304140D03*
D15*
X88297745Y-73585018D03*
X98303391Y-75349284D03*
D14*
X93300568Y-74467151D03*
%TD*%
%TO.C,SW17*%
X111234156Y-82465295D03*
D15*
X116236979Y-83347428D03*
X106231333Y-81583162D03*
D16*
X107923105Y-79302284D03*
X114617700Y-77903538D03*
D17*
X117869536Y-78476924D03*
X104697859Y-78733586D03*
%TD*%
D14*
%TO.C,SW18*%
X129581244Y-88118367D03*
D15*
X134584067Y-89000500D03*
X124578421Y-87236234D03*
D16*
X126270193Y-84955356D03*
X132964788Y-83556610D03*
D17*
X136216624Y-84129996D03*
X123044947Y-84386658D03*
%TD*%
D25*
%TO.C,SW19*%
X151311876Y-89209681D03*
D26*
X147928332Y-93771438D03*
D25*
X144617281Y-90608427D03*
D27*
X142925509Y-92889305D03*
X152931155Y-94653571D03*
D28*
G36*
X144975111Y-101881832D02*
G01*
X143005495Y-101534536D01*
X143352791Y-99564920D01*
X145322407Y-99912216D01*
X144975111Y-101881832D01*
G37*
D27*
X146625971Y-101157496D03*
X149087990Y-101591617D03*
G36*
G01*
X142135572Y-94374701D02*
X142135572Y-94374701D01*
G75*
G02*
X141324412Y-93216245I173648J984808D01*
G01*
X141532790Y-92034475D01*
G75*
G02*
X142691246Y-91223315I984808J-173648D01*
G01*
X142691246Y-91223315D01*
G75*
G02*
X143502406Y-92381771I-173648J-984808D01*
G01*
X143294028Y-93563541D01*
G75*
G02*
X142135572Y-94374701I-984808J173648D01*
G01*
G37*
G36*
G01*
X153165418Y-96319561D02*
X153165418Y-96319561D01*
G75*
G02*
X152354258Y-95161105I173648J984808D01*
G01*
X152562636Y-93979335D01*
G75*
G02*
X153721092Y-93168175I984808J-173648D01*
G01*
X153721092Y-93168175D01*
G75*
G02*
X154532252Y-94326631I-173648J-984808D01*
G01*
X154323874Y-95508401D01*
G75*
G02*
X153165418Y-96319561I-984808J173648D01*
G01*
G37*
X146681850Y-86443663D03*
X151605889Y-87311904D03*
%TD*%
D17*
%TO.C,SW20*%
X98397586Y-99196287D03*
X111569263Y-98939625D03*
D16*
X108317427Y-98366239D03*
X101622832Y-99764985D03*
D15*
X99931060Y-102045863D03*
X109936706Y-103810129D03*
D14*
X104933883Y-102927996D03*
%TD*%
D17*
%TO.C,SW21*%
X118709046Y-103241793D03*
X131788256Y-104820772D03*
D16*
X128647868Y-103800398D03*
X121823756Y-104253824D03*
D15*
X119831011Y-106277056D03*
X129493745Y-109416668D03*
D14*
X124662378Y-107846862D03*
%TD*%
%TO.C,SW22*%
X143514303Y-115463534D03*
D15*
X148080177Y-117690459D03*
X138948429Y-113236609D03*
D16*
X141203360Y-111510403D03*
X148024165Y-112011123D03*
D17*
X150991983Y-113458624D03*
X138259810Y-110074738D03*
%TD*%
%TO.C,SW23*%
X112822272Y-121359419D03*
X125901482Y-122938398D03*
D16*
X122761094Y-121918024D03*
X115936982Y-122371450D03*
D15*
X113944237Y-124394682D03*
X123606971Y-127534294D03*
D14*
X118775604Y-125964488D03*
%TD*%
D17*
%TO.C,SW24*%
X190384331Y-49326077D03*
X202673874Y-44579915D03*
D16*
X199422039Y-45153301D03*
X193609576Y-48757379D03*
D15*
X192799937Y-51479324D03*
X202805583Y-49715058D03*
D14*
X197802760Y-50597191D03*
%TD*%
%TO.C,SW25*%
X216149848Y-44944120D03*
D15*
X221152671Y-44061987D03*
X211147025Y-45826253D03*
D16*
X211956664Y-43104308D03*
X217769127Y-39500230D03*
D17*
X221020962Y-38926844D03*
X208731419Y-43673006D03*
%TD*%
%TO.C,SW26*%
X226665007Y-35674861D03*
X238954550Y-30928699D03*
D16*
X235702715Y-31502085D03*
X229890252Y-35106163D03*
D15*
X229080613Y-37828108D03*
X239086259Y-36063842D03*
D14*
X234083436Y-36945975D03*
%TD*%
%TO.C,SW27*%
X257224011Y-43306528D03*
D15*
X262276182Y-42775523D03*
X252171840Y-43837533D03*
D16*
X253169380Y-41178696D03*
X259219092Y-37988854D03*
D17*
X262503003Y-37643701D03*
X249912321Y-41521027D03*
%TD*%
%TO.C,SW28*%
X274115000Y-49035000D03*
X287042000Y-46495000D03*
D16*
X283740000Y-46495000D03*
X277390000Y-49035000D03*
D15*
X276120000Y-51575000D03*
X286280000Y-51575000D03*
D14*
X281200000Y-51575000D03*
%TD*%
D17*
%TO.C,SW30*%
X193692329Y-68086665D03*
X205981872Y-63340503D03*
D16*
X202730037Y-63913889D03*
X196917574Y-67517967D03*
D15*
X196107935Y-70239912D03*
X206113581Y-68475646D03*
D14*
X201110758Y-69357779D03*
%TD*%
%TO.C,SW31*%
X219457846Y-63704708D03*
D15*
X224460669Y-62822575D03*
X214455023Y-64586841D03*
D16*
X215264662Y-61864896D03*
X221077125Y-58260818D03*
D17*
X224328960Y-57687432D03*
X212039417Y-62433594D03*
%TD*%
%TO.C,SW32*%
X229973005Y-54435449D03*
X242262548Y-49689287D03*
D16*
X239010713Y-50262673D03*
X233198250Y-53866751D03*
D15*
X232388611Y-56588696D03*
X242394257Y-54824430D03*
D14*
X237391434Y-55706563D03*
%TD*%
%TO.C,SW33*%
X259215279Y-62252170D03*
D15*
X264267450Y-61721165D03*
X254163108Y-62783175D03*
D16*
X255160648Y-60124338D03*
X261210360Y-56934496D03*
D17*
X264494271Y-56589343D03*
X251903589Y-60466669D03*
%TD*%
%TO.C,SW34*%
X274115000Y-68085000D03*
X287042000Y-65545000D03*
D16*
X283740000Y-65545000D03*
X277390000Y-68085000D03*
D15*
X276120000Y-70625000D03*
X286280000Y-70625000D03*
D14*
X281200000Y-70625000D03*
%TD*%
%TO.C,SW35*%
X300250000Y-65862500D03*
D15*
X305330000Y-65862500D03*
X295170000Y-65862500D03*
D16*
X296440000Y-63322500D03*
X302790000Y-60782500D03*
D17*
X306092000Y-60782500D03*
X293165000Y-63322500D03*
%TD*%
D27*
%TO.C,SW36*%
X187318150Y-86443663D03*
X182394111Y-87311904D03*
G36*
G01*
X191864428Y-94374701D02*
X191864428Y-94374701D01*
G75*
G02*
X190705972Y-93563541I-173648J984808D01*
G01*
X190497594Y-92381771D01*
G75*
G02*
X191308754Y-91223315I984808J173648D01*
G01*
X191308754Y-91223315D01*
G75*
G02*
X192467210Y-92034475I173648J-984808D01*
G01*
X192675588Y-93216245D01*
G75*
G02*
X191864428Y-94374701I-984808J-173648D01*
G01*
G37*
G36*
G01*
X180834582Y-96319561D02*
X180834582Y-96319561D01*
G75*
G02*
X179676126Y-95508401I-173648J984808D01*
G01*
X179467748Y-94326631D01*
G75*
G02*
X180278908Y-93168175I984808J173648D01*
G01*
X180278908Y-93168175D01*
G75*
G02*
X181437364Y-93979335I173648J-984808D01*
G01*
X181645742Y-95161105D01*
G75*
G02*
X180834582Y-96319561I-984808J-173648D01*
G01*
G37*
X189836049Y-100723376D03*
X187374029Y-101157496D03*
D28*
G36*
X186070466Y-102402777D02*
G01*
X184100850Y-102750073D01*
X183753554Y-100780457D01*
X185723170Y-100433161D01*
X186070466Y-102402777D01*
G37*
D27*
X191074491Y-92889305D03*
X181068845Y-94653571D03*
D25*
X181878484Y-91931626D03*
D26*
X186071668Y-93771438D03*
D25*
X187690947Y-88327548D03*
%TD*%
D17*
%TO.C,SW37*%
X197000327Y-86847253D03*
X209289870Y-82101091D03*
D16*
X206038035Y-82674477D03*
X200225572Y-86278555D03*
D15*
X199415933Y-89000500D03*
X209421579Y-87236234D03*
D14*
X204418756Y-88118367D03*
%TD*%
%TO.C,SW38*%
X222765844Y-82465295D03*
D15*
X227768667Y-81583162D03*
X217763021Y-83347428D03*
D16*
X218572660Y-80625483D03*
X224385123Y-77021405D03*
D17*
X227636958Y-76448019D03*
X215347415Y-81194181D03*
%TD*%
%TO.C,SW39*%
X233281003Y-73196037D03*
X245570546Y-68449875D03*
D16*
X242318711Y-69023261D03*
X236506248Y-72627339D03*
D15*
X235696609Y-75349284D03*
X245702255Y-73585018D03*
D14*
X240699432Y-74467151D03*
%TD*%
%TO.C,SW40*%
X261206546Y-81197812D03*
D15*
X266258717Y-80666807D03*
X256154375Y-81728817D03*
D16*
X257151915Y-79069980D03*
X263201627Y-75880138D03*
D17*
X266485538Y-75534985D03*
X253894856Y-79412311D03*
%TD*%
%TO.C,SW41*%
X274115000Y-87135000D03*
X287042000Y-84595000D03*
D16*
X283740000Y-84595000D03*
X277390000Y-87135000D03*
D15*
X276120000Y-89675000D03*
X286280000Y-89675000D03*
D14*
X281200000Y-89675000D03*
%TD*%
%TO.C,SW42*%
X300250000Y-84912500D03*
D15*
X305330000Y-84912500D03*
X295170000Y-84912500D03*
D16*
X296440000Y-82372500D03*
X302790000Y-79832500D03*
D17*
X306092000Y-79832500D03*
X293165000Y-82372500D03*
%TD*%
%TO.C,SW43*%
X183004278Y-116286457D03*
X193509526Y-108336696D03*
D16*
X190541708Y-109784198D03*
X185947829Y-114850791D03*
D15*
X185919823Y-117690459D03*
X195051571Y-113236609D03*
D14*
X190485697Y-115463534D03*
%TD*%
%TO.C,SW44*%
X209337622Y-107846862D03*
D15*
X214168989Y-106277056D03*
X204506255Y-109416668D03*
D16*
X204929194Y-106608533D03*
X210183499Y-102230592D03*
D17*
X213323888Y-101210218D03*
X201814483Y-107620564D03*
%TD*%
%TO.C,SW45*%
X221647688Y-101656882D03*
X233937231Y-96910720D03*
D16*
X230685396Y-97484106D03*
X224872933Y-101088184D03*
D15*
X224063294Y-103810129D03*
X234068940Y-102045863D03*
D14*
X229066117Y-102927996D03*
%TD*%
%TO.C,SW46*%
X215224396Y-125964488D03*
D15*
X220055763Y-124394682D03*
X210393029Y-127534294D03*
D16*
X210815968Y-124726159D03*
X216070273Y-120348218D03*
D17*
X219210662Y-119327844D03*
X207701257Y-125738190D03*
%TD*%
D29*
%TO.C,SW47*%
X181051200Y-132297600D03*
X181051200Y-134097600D03*
%TD*%
M02*
