<?xml version="1.0" standalone="no"?>
 <!DOCTYPE svg PUBLIC "-//W3C//DTD SVG 1.1//EN" 
 "http://www.w3.org/Graphics/SVG/1.1/DTD/svg11.dtd"> 
<svg
  xmlns:svg="http://www.w3.org/2000/svg"
  xmlns="http://www.w3.org/2000/svg"
  xmlns:xlink="http://www.w3.org/1999/xlink"
  version="1.1"
  width="29.212540cm" height="12.143740cm" viewBox="0 0 115010 47810">
<title>SVG Picture created as yacc46-brd.svg date 2021/09/11 15:20:16 </title>
  <desc>Picture generated by PCBNEW </desc>
<g style="fill:#000000; fill-opacity:1;stroke:#000000; stroke-opacity:1;
stroke-linecap:round; stroke-linejoin:round;"
 transform="translate(0 0) scale(1 1)">
</g>
<g style="fill:#000000; fill-opacity:0.0; 
stroke:#000000; stroke-width:-0.000393701; stroke-opacity:1; 
stroke-linecap:round; stroke-linejoin:round;">
</g>
<g style="fill:#C2C2C2; fill-opacity:0.0; 
stroke:#C2C2C2; stroke-width:-0.000393701; stroke-opacity:1; 
stroke-linecap:round; stroke-linejoin:round;">
</g>
<g style="fill:#C2C2C2; fill-opacity:0.0; 
stroke:#C2C2C2; stroke-width:59.0551; stroke-opacity:1; 
stroke-linecap:round; stroke-linejoin:round;">
<path d="M57431 29
L57431 47785
" />
<path d="M8533 15492
L8927 15492
" />
<path d="M14045 9980
L14045 10374
" />
<path d="M8533 9980
L8927 9980
" />
<path d="M14045 15492
L14045 15098
" />
<path d="M13651 15492
L14045 15492
" />
<path d="M8533 15098
L8533 15492
" />
<path d="M14045 9980
L13651 9980
" />
<path d="M8533 10374
L8533 9980
" />
<path d="M7539 16486
L7539 8986
" />
<path d="M15039 16486
L7539 16486
" />
<path d="M15039 8986
L15039 16486
" />
<path d="M7539 8986
L15039 8986
" />
<path d="M17391 4609
L24850 5393
" />
<path d="M24850 5393
L24066 12852
" />
<path d="M24066 12852
L16607 12068
" />
<path d="M16607 12068
L17391 4609
" />
<path d="M18235 6093
L18276 5702
" />
<path d="M23758 6278
L23366 6237
" />
<path d="M17741 10792
L17700 11183
" />
<path d="M22790 11718
L23181 11759
" />
<path d="M23181 11759
L23223 11368
" />
<path d="M18276 5702
L18667 5743
" />
<path d="M23758 6278
L23716 6669
" />
<path d="M17700 11183
L18091 11224
" />
<path d="M26646 8462
L27034 8530
" />
<path d="M33032 3991
L32963 4379
" />
<path d="M27604 3034
L27991 3102
" />
<path d="M32075 9419
L32143 9031
" />
<path d="M31687 9350
L32075 9419
" />
<path d="M26715 8074
L26646 8462
" />
<path d="M33032 3991
L32644 3922
" />
<path d="M27535 3421
L27604 3034
" />
<path d="M25495 9268
L26797 1882
" />
<path d="M32881 10570
L25495 9268
" />
<path d="M34183 3184
L32881 10570
" />
<path d="M26797 1882
L34183 3184
" />
<path d="M33858 5031
L41244 6333
" />
<path d="M41244 6333
L39941 13719
" />
<path d="M39941 13719
L32555 12417
" />
<path d="M32555 12417
L33858 5031
" />
<path d="M34596 6570
L34664 6183
" />
<path d="M40092 7140
L39704 7071
" />
<path d="M33775 11223
L33707 11611
" />
<path d="M38747 12499
L39135 12568
" />
<path d="M39135 12568
L39203 12180
" />
<path d="M34664 6183
L35052 6251
" />
<path d="M40092 7140
L40024 7527
" />
<path d="M33707 11611
L34095 11679
" />
<path d="M40930 13836
L41318 13905
" />
<path d="M47315 9365
L47247 9753
" />
<path d="M41887 8408
L42275 8477
" />
<path d="M46358 14793
L46427 14406
" />
<path d="M45971 14725
L46358 14793
" />
<path d="M40999 13449
L40930 13836
" />
<path d="M47315 9365
L46928 9297
" />
<path d="M41819 8796
L41887 8408
" />
<path d="M39779 14643
L41081 7257
" />
<path d="M47165 15945
L39779 14643
" />
<path d="M48467 8559
L47165 15945
" />
<path d="M41081 7257
L48467 8559
" />
<path d="M39 14611
L7539 14611
" />
<path d="M7539 14611
L7539 22111
" />
<path d="M7539 22111
L39 22111
" />
<path d="M39 22111
L39 14611
" />
<path d="M1033 15999
L1033 15605
" />
<path d="M6545 15605
L6151 15605
" />
<path d="M1033 20723
L1033 21117
" />
<path d="M6151 21117
L6545 21117
" />
<path d="M6545 21117
L6545 20723
" />
<path d="M1033 15605
L1427 15605
" />
<path d="M6545 15605
L6545 15999
" />
<path d="M1033 21117
L1427 21117
" />
<path d="M8533 22992
L8927 22992
" />
<path d="M14045 17480
L14045 17874
" />
<path d="M8533 17480
L8927 17480
" />
<path d="M14045 22992
L14045 22598
" />
<path d="M13651 22992
L14045 22992
" />
<path d="M8533 22598
L8533 22992
" />
<path d="M14045 17480
L13651 17480
" />
<path d="M8533 17874
L8533 17480
" />
<path d="M7539 23986
L7539 16486
" />
<path d="M15039 23986
L7539 23986
" />
<path d="M15039 16486
L15039 23986
" />
<path d="M7539 16486
L15039 16486
" />
<path d="M16607 12068
L24066 12852
" />
<path d="M24066 12852
L23282 20311
" />
<path d="M23282 20311
L15823 19527
" />
<path d="M15823 19527
L16607 12068
" />
<path d="M17451 13552
L17492 13160
" />
<path d="M22974 13737
L22582 13695
" />
<path d="M16957 18251
L16916 18642
" />
<path d="M22006 19177
L22397 19218
" />
<path d="M22397 19218
L22439 18827
" />
<path d="M17492 13160
L17883 13202
" />
<path d="M22974 13737
L22932 14128
" />
<path d="M16916 18642
L17307 18683
" />
<path d="M25344 15848
L25732 15916
" />
<path d="M31729 11377
L31661 11765
" />
<path d="M26301 10420
L26689 10488
" />
<path d="M30772 16805
L30841 16417
" />
<path d="M30384 16737
L30772 16805
" />
<path d="M25413 15460
L25344 15848
" />
<path d="M31729 11377
L31342 11308
" />
<path d="M26233 10807
L26301 10420
" />
<path d="M24193 16654
L25495 9268
" />
<path d="M31579 17957
L24193 16654
" />
<path d="M32881 10570
L31579 17957
" />
<path d="M25495 9268
L32881 10570
" />
<path d="M32555 12417
L39941 13719
" />
<path d="M39941 13719
L38639 21105
" />
<path d="M38639 21105
L31253 19803
" />
<path d="M31253 19803
L32555 12417
" />
<path d="M33293 13956
L33362 13569
" />
<path d="M38790 14526
L38402 14457
" />
<path d="M32473 18609
L32405 18997
" />
<path d="M37445 19885
L37833 19954
" />
<path d="M37833 19954
L37901 19566
" />
<path d="M33362 13569
L33749 13637
" />
<path d="M38790 14526
L38721 14913
" />
<path d="M32405 18997
L32792 19065
" />
<path d="M39779 14643
L47165 15945
" />
<path d="M47165 15945
L45862 23331
" />
<path d="M45862 23331
L38476 22029
" />
<path d="M38476 22029
L39779 14643
" />
<path d="M40517 16182
L40585 15794
" />
<path d="M46013 16751
L45625 16683
" />
<path d="M39696 20835
L39628 21222
" />
<path d="M44668 22111
L45056 22179
" />
<path d="M45056 22179
L45124 21792
" />
<path d="M40585 15794
L40973 15863
" />
<path d="M46013 16751
L45945 17139
" />
<path d="M39628 21222
L40016 21291
" />
<path d="M46851 23448
L47239 23516
" />
<path d="M53236 18977
L53168 19365
" />
<path d="M47808 18020
L48196 18088
" />
<path d="M52279 24405
L52348 24017
" />
<path d="M51891 24337
L52279 24405
" />
<path d="M46919 23060
L46851 23448
" />
<path d="M53236 18977
L52849 18909
" />
<path d="M47740 18408
L47808 18020
" />
<path d="M45700 24254
L47002 16868
" />
<path d="M53086 25557
L45700 24254
" />
<path d="M54388 18171
L53086 25557
" />
<path d="M47002 16868
L54388 18171
" />
<path d="M39 22111
L7539 22111
" />
<path d="M7539 22111
L7539 29611
" />
<path d="M7539 29611
L39 29611
" />
<path d="M39 29611
L39 22111
" />
<path d="M1033 23499
L1033 23105
" />
<path d="M6545 23105
L6151 23105
" />
<path d="M1033 28223
L1033 28617
" />
<path d="M6151 28617
L6545 28617
" />
<path d="M6545 28617
L6545 28223
" />
<path d="M1033 23105
L1427 23105
" />
<path d="M6545 23105
L6545 23499
" />
<path d="M1033 28617
L1427 28617
" />
<path d="M8533 30492
L8927 30492
" />
<path d="M14045 24980
L14045 25374
" />
<path d="M8533 24980
L8927 24980
" />
<path d="M14045 30492
L14045 30098
" />
<path d="M13651 30492
L14045 30492
" />
<path d="M8533 30098
L8533 30492
" />
<path d="M14045 24980
L13651 24980
" />
<path d="M8533 25374
L8533 24980
" />
<path d="M7539 31486
L7539 23986
" />
<path d="M15039 31486
L7539 31486
" />
<path d="M15039 23986
L15039 31486
" />
<path d="M7539 23986
L15039 23986
" />
<path d="M15823 19527
L23282 20311
" />
<path d="M23282 20311
L22498 27770
" />
<path d="M22498 27770
L15039 26986
" />
<path d="M15039 26986
L15823 19527
" />
<path d="M16667 21011
L16708 20619
" />
<path d="M22190 21196
L21798 21154
" />
<path d="M16173 25709
L16132 26101
" />
<path d="M21222 26636
L21613 26677
" />
<path d="M21613 26677
L21655 26286
" />
<path d="M16708 20619
L17100 20661
" />
<path d="M22190 21196
L22148 21587
" />
<path d="M16132 26101
L16523 26142
" />
<path d="M24193 16654
L31579 17957
" />
<path d="M31579 17957
L30276 25343
" />
<path d="M30276 25343
L22890 24040
" />
<path d="M22890 24040
L24193 16654
" />
<path d="M24931 18194
L24999 17806
" />
<path d="M30427 18763
L30039 18695
" />
<path d="M24110 22846
L24042 23234
" />
<path d="M29082 24123
L29470 24191
" />
<path d="M29470 24191
L29538 23803
" />
<path d="M24999 17806
L25387 17874
" />
<path d="M30427 18763
L30359 19151
" />
<path d="M24042 23234
L24429 23302
" />
<path d="M31102 26383
L31490 26451
" />
<path d="M37487 21912
L37419 22299
" />
<path d="M32059 20955
L32447 21023
" />
<path d="M36530 27340
L36599 26952
" />
<path d="M36143 27271
L36530 27340
" />
<path d="M31171 25995
L31102 26383
" />
<path d="M37487 21912
L37100 21843
" />
<path d="M31991 21342
L32059 20955
" />
<path d="M29951 27189
L31253 19803
" />
<path d="M37337 28491
L29951 27189
" />
<path d="M38639 21105
L37337 28491
" />
<path d="M31253 19803
L38639 21105
" />
<path d="M38476 22029
L45862 23331
" />
<path d="M45862 23331
L44560 30717
" />
<path d="M44560 30717
L37174 29415
" />
<path d="M37174 29415
L38476 22029
" />
<path d="M39214 23568
L39283 23180
" />
<path d="M44711 24137
L44323 24069
" />
<path d="M38394 28221
L38326 28608
" />
<path d="M43366 29497
L43754 29565
" />
<path d="M43754 29565
L43822 29178
" />
<path d="M39283 23180
L39670 23249
" />
<path d="M44711 24137
L44642 24525
" />
<path d="M38326 28608
L38713 28677
" />
<path d="M46506 25406
L46369 26181
" />
<path d="M47281 25543
L46506 25406
" />
<path d="M51783 32943
L44397 31640
" />
<path d="M45549 30834
L46324 30971
" />
<path d="M45685 30059
L45549 30834
" />
<path d="M44397 31640
L45700 24254
" />
<path d="M53086 25557
L51783 32943
" />
<path d="M51159 26226
L51934 26363
" />
<path d="M50977 31791
L51114 31016
" />
<path d="M51934 26363
L51797 27138
" />
<path d="M45700 24254
L53086 25557
" />
<path d="M50201 31654
L50977 31791
" />
<path d="M28622 34439
L29010 34507
" />
<path d="M35007 29968
L34939 30356
" />
<path d="M29579 29011
L29967 29079
" />
<path d="M34050 35396
L34118 35008
" />
<path d="M33662 35328
L34050 35396
" />
<path d="M28690 34051
L28622 34439
" />
<path d="M35007 29968
L34619 29900
" />
<path d="M29511 29399
L29579 29011
" />
<path d="M27470 35245
L28773 27859
" />
<path d="M34856 36548
L27470 35245
" />
<path d="M36159 29162
L34856 36548
" />
<path d="M28773 27859
L36159 29162
" />
<path d="M37174 29415
L44307 31732
" />
<path d="M44307 31732
L41989 38865
" />
<path d="M41989 38865
L34856 36548
" />
<path d="M34856 36548
L37174 29415
" />
<path d="M37690 31042
L37812 30667
" />
<path d="M43054 32371
L42680 32249
" />
<path d="M36231 35535
L36109 35909
" />
<path d="M40977 37491
L41351 37613
" />
<path d="M41351 37613
L41473 37238
" />
<path d="M37812 30667
L38187 30789
" />
<path d="M43054 32371
L42933 32745
" />
<path d="M36109 35909
L36483 36031
" />
<path d="M43318 38408
L43672 38580
" />
<path d="M50689 35870
L50516 36224
" />
<path d="M45735 33454
L46089 33626
" />
<path d="M48272 40824
L48445 40470
" />
<path d="M47919 40651
L48272 40824
" />
<path d="M43491 38054
L43318 38408
" />
<path d="M50689 35870
L50335 35697
" />
<path d="M45562 33807
L45735 33454
" />
<path d="M41989 38865
L45277 32124
" />
<path d="M48730 42153
L41989 38865
" />
<path d="M52018 35412
L48730 42153
" />
<path d="M45277 32124
L52018 35412
" />
<path d="M34856 36548
L41989 38865
" />
<path d="M41989 38865
L39672 45998
" />
<path d="M39672 45998
L32539 43681
" />
<path d="M32539 43681
L34856 36548
" />
<path d="M35373 38175
L35495 37800
" />
<path d="M40737 39504
L40362 39382
" />
<path d="M33913 42668
L33791 43042
" />
<path d="M38659 44624
L39033 44746
" />
<path d="M39033 44746
L39155 44371
" />
<path d="M35495 37800
L35869 37922
" />
<path d="M40737 39504
L40615 39878
" />
<path d="M33791 43042
L34166 43164
" />
<path d="M68504 14793
L68891 14725
" />
<path d="M72975 8408
L73043 8796
" />
<path d="M67547 9365
L67934 9297
" />
<path d="M73932 13836
L73863 13449
" />
<path d="M73544 13905
L73932 13836
" />
<path d="M68435 14406
L68504 14793
" />
<path d="M72975 8408
L72587 8477
" />
<path d="M67615 9753
L67547 9365
" />
<path d="M67697 15945
L66395 8559
" />
<path d="M75083 14643
L67697 15945
" />
<path d="M73781 7257
L75083 14643
" />
<path d="M66395 8559
L73781 7257
" />
<path d="M73618 6333
L81004 5031
" />
<path d="M81004 5031
L82307 12417
" />
<path d="M82307 12417
L74921 13719
" />
<path d="M74921 13719
L73618 6333
" />
<path d="M74838 7527
L74770 7140
" />
<path d="M80198 6183
L79810 6251
" />
<path d="M75659 12180
L75727 12568
" />
<path d="M80767 11679
L81155 11611
" />
<path d="M81155 11611
L81087 11223
" />
<path d="M74770 7140
L75158 7071
" />
<path d="M80198 6183
L80266 6570
" />
<path d="M75727 12568
L76115 12499
" />
<path d="M82787 9419
L83175 9350
" />
<path d="M87258 3034
L87327 3421
" />
<path d="M81830 3991
L82218 3922
" />
<path d="M88215 8462
L88147 8074
" />
<path d="M87828 8530
L88215 8462
" />
<path d="M82719 9031
L82787 9419
" />
<path d="M87258 3034
L86871 3102
" />
<path d="M81899 4379
L81830 3991
" />
<path d="M81981 10570
L80679 3184
" />
<path d="M89367 9268
L81981 10570
" />
<path d="M88065 1882
L89367 9268
" />
<path d="M80679 3184
L88065 1882
" />
<path d="M91681 11759
L92072 11718
" />
<path d="M96586 5702
L96627 6093
" />
<path d="M91104 6278
L91496 6237
" />
<path d="M97162 11183
L97121 10792
" />
<path d="M96771 11224
L97162 11183
" />
<path d="M91639 11368
L91681 11759
" />
<path d="M96586 5702
L96195 5743
" />
<path d="M91146 6669
L91104 6278
" />
<path d="M90796 12852
L90012 5393
" />
<path d="M98255 12068
L90796 12852
" />
<path d="M97471 4609
L98255 12068
" />
<path d="M90012 5393
L97471 4609
" />
<path d="M100817 15492
L101211 15492
" />
<path d="M106329 9980
L106329 10374
" />
<path d="M100817 9980
L101211 9980
" />
<path d="M106329 15492
L106329 15098
" />
<path d="M105935 15492
L106329 15492
" />
<path d="M100817 15098
L100817 15492
" />
<path d="M106329 9980
L105935 9980
" />
<path d="M100817 10374
L100817 9980
" />
<path d="M99823 16486
L99823 8986
" />
<path d="M107323 16486
L99823 16486
" />
<path d="M107323 8986
L107323 16486
" />
<path d="M99823 8986
L107323 8986
" />
<path d="M60474 18171
L67860 16868
" />
<path d="M67860 16868
L69162 24254
" />
<path d="M69162 24254
L61776 25557
" />
<path d="M61776 25557
L60474 18171
" />
<path d="M61694 19365
L61626 18977
" />
<path d="M67054 18020
L66666 18088
" />
<path d="M62514 24017
L62583 24405
" />
<path d="M67623 23516
L68011 23448
" />
<path d="M68011 23448
L67942 23060
" />
<path d="M61626 18977
L62013 18909
" />
<path d="M67054 18020
L67122 18408
" />
<path d="M62583 24405
L62971 24337
" />
<path d="M69806 22179
L70194 22111
" />
<path d="M74277 15794
L74345 16182
" />
<path d="M68849 16751
L69237 16683
" />
<path d="M75234 21222
L75166 20835
" />
<path d="M74846 21291
L75234 21222
" />
<path d="M69738 21792
L69806 22179
" />
<path d="M74277 15794
L73889 15863
" />
<path d="M68917 17139
L68849 16751
" />
<path d="M69000 23331
L67697 15945
" />
<path d="M76386 22029
L69000 23331
" />
<path d="M75083 14643
L76386 22029
" />
<path d="M67697 15945
L75083 14643
" />
<path d="M74921 13719
L82307 12417
" />
<path d="M82307 12417
L83609 19803
" />
<path d="M83609 19803
L76223 21105
" />
<path d="M76223 21105
L74921 13719
" />
<path d="M76141 14913
L76072 14526
" />
<path d="M81500 13569
L81113 13637
" />
<path d="M76961 19566
L77029 19954
" />
<path d="M82070 19065
L82457 18997
" />
<path d="M82457 18997
L82389 18609
" />
<path d="M76072 14526
L76460 14457
" />
<path d="M81500 13569
L81569 13956
" />
<path d="M77029 19954
L77417 19885
" />
<path d="M84090 16805
L84478 16737
" />
<path d="M88561 10420
L88629 10807
" />
<path d="M83133 11377
L83520 11308
" />
<path d="M89518 15848
L89449 15460
" />
<path d="M89130 15916
L89518 15848
" />
<path d="M84021 16417
L84090 16805
" />
<path d="M88561 10420
L88173 10488
" />
<path d="M83201 11765
L83133 11377
" />
<path d="M83283 17957
L81981 10570
" />
<path d="M90669 16654
L83283 17957
" />
<path d="M89367 9268
L90669 16654
" />
<path d="M81981 10570
L89367 9268
" />
<path d="M90796 12852
L98255 12068
" />
<path d="M98255 12068
L99039 19527
" />
<path d="M99039 19527
L91580 20311
" />
<path d="M91580 20311
L90796 12852
" />
<path d="M91930 14128
L91888 13737
" />
<path d="M97370 13160
L96979 13202
" />
<path d="M92423 18827
L92465 19218
" />
<path d="M97555 18683
L97946 18642
" />
<path d="M97946 18642
L97905 18251
" />
<path d="M91888 13737
L92280 13695
" />
<path d="M97370 13160
L97411 13552
" />
<path d="M92465 19218
L92856 19177
" />
<path d="M100817 22992
L101211 22992
" />
<path d="M106329 17480
L106329 17874
" />
<path d="M100817 17480
L101211 17480
" />
<path d="M106329 22992
L106329 22598
" />
<path d="M105935 22992
L106329 22992
" />
<path d="M100817 22598
L100817 22992
" />
<path d="M106329 17480
L105935 17480
" />
<path d="M100817 17874
L100817 17480
" />
<path d="M99823 23986
L99823 16486
" />
<path d="M107323 23986
L99823 23986
" />
<path d="M107323 16486
L107323 23986
" />
<path d="M99823 16486
L107323 16486
" />
<path d="M107323 14611
L114823 14611
" />
<path d="M114823 14611
L114823 22111
" />
<path d="M114823 22111
L107323 22111
" />
<path d="M107323 22111
L107323 14611
" />
<path d="M108317 15999
L108317 15605
" />
<path d="M113829 15605
L113435 15605
" />
<path d="M108317 20723
L108317 21117
" />
<path d="M113435 21117
L113829 21117
" />
<path d="M113829 21117
L113829 20723
" />
<path d="M108317 15605
L108711 15605
" />
<path d="M113829 15605
L113829 15999
" />
<path d="M108317 21117
L108711 21117
" />
<path d="M68538 30971
L69313 30834
" />
<path d="M61776 25557
L69162 24254
" />
<path d="M68356 25406
L68493 26181
" />
<path d="M69313 30834
L69176 30059
" />
<path d="M67581 25543
L68356 25406
" />
<path d="M69162 24254
L70465 31640
" />
<path d="M63079 32943
L61776 25557
" />
<path d="M63748 31016
L63885 31791
" />
<path d="M63885 31791
L64661 31654
" />
<path d="M70465 31640
L63079 32943
" />
<path d="M63703 26226
L62928 26363
" />
<path d="M62928 26363
L63065 27138
" />
<path d="M71108 29565
L71496 29497
" />
<path d="M75579 23180
L75648 23568
" />
<path d="M70151 24137
L70539 24069
" />
<path d="M76536 28608
L76468 28221
" />
<path d="M76149 28677
L76536 28608
" />
<path d="M71040 29178
L71108 29565
" />
<path d="M75579 23180
L75192 23249
" />
<path d="M70220 24525
L70151 24137
" />
<path d="M70302 30717
L69000 23331
" />
<path d="M77688 29415
L70302 30717
" />
<path d="M76386 22029
L77688 29415
" />
<path d="M69000 23331
L76386 22029
" />
<path d="M76223 21105
L83609 19803
" />
<path d="M83609 19803
L84911 27189
" />
<path d="M84911 27189
L77525 28491
" />
<path d="M77525 28491
L76223 21105
" />
<path d="M77443 22299
L77375 21912
" />
<path d="M82803 20955
L82415 21023
" />
<path d="M78263 26952
L78332 27340
" />
<path d="M83372 26451
L83760 26383
" />
<path d="M83760 26383
L83691 25995
" />
<path d="M77375 21912
L77762 21843
" />
<path d="M82803 20955
L82871 21342
" />
<path d="M78332 27340
L78719 27271
" />
<path d="M85392 24191
L85780 24123
" />
<path d="M89863 17806
L89931 18194
" />
<path d="M84435 18763
L84823 18695
" />
<path d="M90820 23234
L90752 22846
" />
<path d="M90432 23302
L90820 23234
" />
<path d="M85324 23803
L85392 24191
" />
<path d="M89863 17806
L89475 17874
" />
<path d="M84503 19151
L84435 18763
" />
<path d="M84586 25343
L83283 17957
" />
<path d="M91972 24040
L84586 25343
" />
<path d="M90669 16654
L91972 24040
" />
<path d="M83283 17957
L90669 16654
" />
<path d="M91580 20311
L99039 19527
" />
<path d="M99039 19527
L99823 26986
" />
<path d="M99823 26986
L92364 27770
" />
<path d="M92364 27770
L91580 20311
" />
<path d="M92714 21587
L92672 21196
" />
<path d="M98154 20619
L97762 20661
" />
<path d="M93207 26286
L93249 26677
" />
<path d="M98339 26142
L98730 26101
" />
<path d="M98730 26101
L98689 25709
" />
<path d="M92672 21196
L93064 21154
" />
<path d="M98154 20619
L98195 21011
" />
<path d="M93249 26677
L93640 26636
" />
<path d="M100817 30492
L101211 30492
" />
<path d="M106329 24980
L106329 25374
" />
<path d="M100817 24980
L101211 24980
" />
<path d="M106329 30492
L106329 30098
" />
<path d="M105935 30492
L106329 30492
" />
<path d="M100817 30098
L100817 30492
" />
<path d="M106329 24980
L105935 24980
" />
<path d="M100817 25374
L100817 24980
" />
<path d="M99823 31486
L99823 23986
" />
<path d="M107323 31486
L99823 31486
" />
<path d="M107323 23986
L107323 31486
" />
<path d="M99823 23986
L107323 23986
" />
<path d="M107323 22111
L114823 22111
" />
<path d="M114823 22111
L114823 29611
" />
<path d="M114823 29611
L107323 29611
" />
<path d="M107323 29611
L107323 22111
" />
<path d="M108317 23499
L108317 23105
" />
<path d="M113829 23105
L113435 23105
" />
<path d="M108317 28223
L108317 28617
" />
<path d="M113435 28617
L113829 28617
" />
<path d="M113829 28617
L113829 28223
" />
<path d="M108317 23105
L108711 23105
" />
<path d="M113829 23105
L113829 23499
" />
<path d="M108317 28617
L108711 28617
" />
<path d="M66590 40824
L66943 40651
" />
<path d="M69127 33454
L69300 33807
" />
<path d="M64173 35870
L64527 35697
" />
<path d="M71544 38408
L71371 38054
" />
<path d="M71190 38580
L71544 38408
" />
<path d="M66417 40470
L66590 40824
" />
<path d="M69127 33454
L68773 33626
" />
<path d="M64346 36224
L64173 35870
" />
<path d="M66132 42153
L62844 35412
" />
<path d="M72873 38865
L66132 42153
" />
<path d="M69585 32124
L72873 38865
" />
<path d="M62844 35412
L69585 32124
" />
<path d="M70555 31732
L77688 29415
" />
<path d="M77688 29415
L80006 36548
" />
<path d="M80006 36548
L72873 38865
" />
<path d="M72873 38865
L70555 31732
" />
<path d="M71929 32745
L71808 32371
" />
<path d="M77050 30667
L76675 30789
" />
<path d="M73389 37238
L73511 37613
" />
<path d="M78379 36031
L78753 35909
" />
<path d="M78753 35909
L78631 35535
" />
<path d="M71808 32371
L72182 32249
" />
<path d="M77050 30667
L77172 31042
" />
<path d="M73511 37613
L73885 37491
" />
<path d="M78703 29162
L86089 27859
" />
<path d="M86089 27859
L87392 35245
" />
<path d="M87392 35245
L80006 36548
" />
<path d="M80006 36548
L78703 29162
" />
<path d="M79923 30356
L79855 29968
" />
<path d="M85283 29011
L84895 29079
" />
<path d="M80744 35008
L80812 35396
" />
<path d="M85852 34507
L86240 34439
" />
<path d="M86240 34439
L86172 34051
" />
<path d="M79855 29968
L80243 29900
" />
<path d="M85283 29011
L85351 29399
" />
<path d="M80812 35396
L81200 35328
" />
<path d="M75829 44746
L76203 44624
" />
<path d="M79367 37800
L79489 38175
" />
<path d="M74125 39504
L74500 39382
" />
<path d="M81071 43042
L80949 42668
" />
<path d="M80696 43164
L81071 43042
" />
<path d="M75707 44371
L75829 44746
" />
<path d="M79367 37800
L78993 37922
" />
<path d="M74247 39878
L74125 39504
" />
<path d="M75190 45998
L72873 38865
" />
<path d="M82323 43681
L75190 45998
" />
<path d="M80006 36548
L82323 43681
" />
<path d="M72873 38865
L80006 36548
" />
</g>
<g style="fill:#C2C2C2; fill-opacity:0.0; 
stroke:#C2C2C2; stroke-width:47.2441; stroke-opacity:1; 
stroke-linecap:round; stroke-linejoin:round;">
<path d="M56447 5108
L56663 5108
" />
<path d="M56447 5738
L56447 5108
" />
<path d="M56663 5738
L56447 5738
" />
<path d="M58415 5108
L58199 5108
" />
<path d="M58415 5738
L58415 5108
" />
<path d="M58199 5738
L58415 5738
" />
<path d="M56663 4852
L56663 5994
" />
<path d="M58199 4852
L56663 4852
" />
<path d="M58199 5994
L58199 4852
" />
<path d="M56663 5994
L58199 5994
" />
<g >
</g>
<g >
</g>
<g >
</g>
<g >
</g>
<g >
</g>
<g >
</g>
<g >
</g>
<g >
</g>
<g >
</g>
<g >
</g>
<g >
</g>
<g >
</g>
<g >
</g>
<g >
</g>
<g >
</g>
<g >
</g>
<g >
</g>
<g >
</g>
<g >
</g>
<g >
</g>
<g >
</g>
<g >
</g>
<g >
</g>
<g >
</g>
<g >
</g>
<g >
</g>
<g >
</g>
<g >
</g>
<g >
</g>
<g >
</g>
<g >
</g>
<g >
</g>
<g >
</g>
<g >
</g>
<g >
</g>
<g >
</g>
<g >
</g>
<g >
</g>
<g >
</g>
<g >
</g>
<g >
</g>
<g >
</g>
<g >
</g>
<g >
</g>
<g >
</g>
<g >
</g>
<g >
</g>
<g >
</g>
<g >
</g>
<g >
</g>
<g >
</g>
<g >
</g>
<g >
</g>
<g >
</g>
<g >
</g>
<g >
</g>
<g >
</g>
<g >
</g>
<g >
</g>
<g >
</g>
<g >
</g>
<g >
</g>
<g >
</g>
<g >
</g>
<g >
</g>
<g >
</g>
<g >
</g>
<g >
</g>
<g >
</g>
<g >
</g>
<g >
</g>
<g >
</g>
<g >
</g>
<g >
</g>
<g >
</g>
<g >
</g>
<g >
</g>
<g >
</g>
<g >
</g>
<g >
</g>
<g >
</g>
<g >
</g>
<g >
</g>
<g >
</g>
<g >
</g>
<g >
</g>
<g >
</g>
<g >
</g>
<g >
</g>
<g >
</g>
<g >
</g>
<g >
</g>
<g >
</g>
<g >
</g>
<g >
</g>
<g >
</g>
<g >
</g>
<g >
</g>
<g >
</g>
<g >
</g>
<g >
</g>
<g >
</g>
<g >
</g>
<g >
</g>
<g >
</g>
<g >
</g>
<g >
</g>
<g >
</g>
<g >
</g>
<g >
</g>
<g >
</g>
<g >
</g>
<g >
</g>
<g >
</g>
<g >
</g>
<g >
</g>
<g >
</g>
<g >
</g>
<g >
</g>
<g >
</g>
<g >
</g>
<g >
</g>
<g >
</g>
<g >
</g>
<g >
</g>
</g>
<g style="fill:#C2C2C2; fill-opacity:0.0; 
stroke:#C2C2C2; stroke-width:47.2441; stroke-opacity:1; 
stroke-linecap:round; stroke-linejoin:round;">
<text x="57411.8" y="1791.34"
textLength="2143.7" font-size="393.701" lengthAdjust="spacingAndGlyphs"
text-anchor="middle" opacity="0">MicroUSB</text>
<path d="M56448 1777
L56448 1482
L56547 1692
L56645 1482
L56645 1777
" />
<path d="M56786 1777
L56786 1580
" />
<path d="M56786 1482
L56772 1496
L56786 1510
L56800 1496
L56786 1482
L56786 1510
" />
<path d="M57053 1763
L57025 1777
L56968 1777
L56940 1763
L56926 1749
L56912 1721
L56912 1636
L56926 1608
L56940 1594
L56968 1580
L57025 1580
L57053 1594
" />
<path d="M57179 1777
L57179 1580
" />
<path d="M57179 1636
L57193 1608
L57207 1594
L57236 1580
L57264 1580
" />
<path d="M57404 1777
L57376 1763
L57362 1749
L57348 1721
L57348 1636
L57362 1608
L57376 1594
L57404 1580
L57446 1580
L57475 1594
L57489 1608
L57503 1636
L57503 1721
L57489 1749
L57475 1763
L57446 1777
L57404 1777
" />
<path d="M57629 1482
L57629 1721
L57643 1749
L57657 1763
L57685 1777
L57742 1777
L57770 1763
L57784 1749
L57798 1721
L57798 1482
" />
<path d="M57925 1763
L57967 1777
L58037 1777
L58065 1763
L58079 1749
L58093 1721
L58093 1692
L58079 1664
L58065 1650
L58037 1636
L57981 1622
L57953 1608
L57939 1594
L57925 1566
L57925 1538
L57939 1510
L57953 1496
L57981 1482
L58051 1482
L58093 1496
" />
<path d="M58318 1622
L58360 1636
L58374 1650
L58389 1678
L58389 1721
L58374 1749
L58360 1763
L58332 1777
L58220 1777
L58220 1482
L58318 1482
L58346 1496
L58360 1510
L58374 1538
L58374 1566
L58360 1594
L58346 1608
L58318 1622
L58220 1622
" />
</g>
<g style="fill:#C2C2C2; fill-opacity:0.0; 
stroke:#C2C2C2; stroke-width:59.0551; stroke-opacity:1; 
stroke-linecap:round; stroke-linejoin:round;">
<g transform="rotate(10 49284.5 25521.5)">
<text x="49284.5" y="25718.3"
textLength="848.819" font-size="524.934" lengthAdjust="spacingAndGlyphs"
text-anchor="middle" opacity="0">1U</text>
</g>
<path d="M49161 25680
L48939 25641
" />
<path d="M49050 25661
L49118 25273
L49072 25322
L49028 25352
L48988 25364
" />
<path d="M49395 25322
L49340 25636
L49352 25676
L49367 25697
L49401 25722
L49475 25735
L49515 25723
L49537 25708
L49562 25675
L49617 25361
" />
<g transform="rotate(-10 65578.5 25521.5)">
<text x="65578.5" y="25718.3"
textLength="864.173" font-size="524.934" lengthAdjust="spacingAndGlyphs"
text-anchor="middle" opacity="0">1U</text>
</g>
<path d="M65517 25713
L65295 25752
" />
<path d="M65406 25732
L65337 25344
L65310 25406
L65280 25450
L65246 25475
" />
<path d="M65614 25296
L65670 25609
L65695 25643
L65716 25658
L65757 25670
L65830 25657
L65864 25632
L65879 25611
L65891 25570
L65836 25257
" />
<g >
</g>
</g>
<g style="fill:#000000; fill-opacity:0.0; 
stroke:#000000; stroke-width:59.0551; stroke-opacity:1; 
stroke-linecap:round; stroke-linejoin:round;">
</g>
<g style="fill:#C2C200; fill-opacity:0.0; 
stroke:#C2C200; stroke-width:59.0551; stroke-opacity:1; 
stroke-linecap:round; stroke-linejoin:round;">
</g>
<g style="fill:#C2C200; fill-opacity:0.0; 
stroke:#C2C200; stroke-width:78.7402; stroke-opacity:1; 
stroke-linecap:round; stroke-linejoin:round;">
<path d="M57824 45997
L40271 45997
" />
<path d="M74748 45997
L57824 45997
" />
<path d="M81910 43865
L75919 45812
" />
<path d="M75919 45812
L75812 45845
" />
<path d="M75812 45845
L75704 45874
" />
<path d="M75704 45874
L75596 45901
" />
<path d="M75596 45901
L75487 45924
" />
<path d="M75487 45924
L75377 45945
" />
<path d="M75377 45945
L75267 45961
" />
<path d="M75267 45961
L75157 45975
" />
<path d="M75157 45975
L75045 45985
" />
<path d="M75045 45985
L74934 45993
" />
<path d="M74934 45993
L74823 45996
" />
<path d="M74823 45996
L74748 45997
" />
<path d="M87549 35241
L87549 35241
" />
<path d="M82555 43084
L82536 43176
" />
<path d="M82536 43176
L82505 43269
" />
<path d="M82505 43269
L82464 43360
" />
<path d="M82464 43360
L82414 43448
" />
<path d="M82414 43448
L82355 43532
" />
<path d="M82355 43532
L82289 43610
" />
<path d="M82289 43610
L82216 43682
" />
<path d="M82216 43682
L82138 43746
" />
<path d="M82138 43746
L82055 43799
" />
<path d="M82055 43799
L81969 43843
" />
<path d="M81969 43843
L81910 43865
" />
<path d="M87549 35241
L87319 35321
" />
<path d="M87319 35321
L87091 35413
" />
<path d="M87091 35413
L86868 35516
" />
<path d="M86868 35516
L86648 35630
" />
<path d="M86648 35630
L86431 35755
" />
<path d="M86431 35755
L86219 35891
" />
<path d="M86219 35891
L86011 36039
" />
<path d="M86011 36039
L85807 36197
" />
<path d="M85807 36197
L85608 36366
" />
<path d="M85608 36366
L85413 36546
" />
<path d="M85413 36546
L85223 36736
" />
<path d="M85223 36736
L85038 36938
" />
<path d="M85038 36938
L84857 37149
" />
<path d="M84857 37149
L84682 37372
" />
<path d="M84682 37372
L84512 37604
" />
<path d="M84512 37604
L84347 37847
" />
<path d="M84347 37847
L84188 38100
" />
<path d="M84188 38100
L84035 38364
" />
<path d="M84035 38364
L83887 38637
" />
<path d="M83887 38637
L83745 38921
" />
<path d="M83745 38921
L83609 39215
" />
<path d="M83609 39215
L83480 39518
" />
<path d="M83480 39518
L83356 39832
" />
<path d="M83356 39832
L83240 40155
" />
<path d="M83240 40155
L83129 40488
" />
<path d="M83129 40488
L83026 40830
" />
<path d="M83026 40830
L82929 41182
" />
<path d="M82929 41182
L82840 41544
" />
<path d="M82840 41544
L82757 41915
" />
<path d="M82757 41915
L82682 42295
" />
<path d="M82682 42295
L82615 42685
" />
<path d="M82615 42685
L82555 43084
" />
<path d="M114980 11304
L114980 30368
" />
<path d="M114383 31026
L113702 31099
" />
<path d="M113702 31099
L112964 31182
" />
<path d="M112964 31182
L112175 31276
" />
<path d="M112175 31276
L111338 31379
" />
<path d="M111338 31379
L110459 31491
" />
<path d="M110459 31491
L109542 31611
" />
<path d="M109542 31611
L108591 31738
" />
<path d="M108591 31738
L107612 31872
" />
<path d="M107612 31872
L106609 32012
" />
<path d="M106609 32012
L105587 32157
" />
<path d="M105587 32157
L104550 32307
" />
<path d="M104550 32307
L103502 32460
" />
<path d="M103502 32460
L102449 32617
" />
<path d="M102449 32617
L101395 32776
" />
<path d="M101395 32776
L100345 32937
" />
<path d="M100345 32937
L99304 33098
" />
<path d="M99304 33098
L98275 33260
" />
<path d="M98275 33260
L97264 33422
" />
<path d="M97264 33422
L96275 33582
" />
<path d="M96275 33582
L95313 33741
" />
<path d="M95313 33741
L94383 33897
" />
<path d="M94383 33897
L93488 34049
" />
<path d="M93488 34049
L92635 34198
" />
<path d="M92635 34198
L91826 34342
" />
<path d="M91826 34342
L91068 34481
" />
<path d="M91068 34481
L90365 34613
" />
<path d="M90365 34613
L89720 34739
" />
<path d="M89720 34739
L89140 34857
" />
<path d="M89140 34857
L88628 34967
" />
<path d="M88628 34967
L88189 35068
" />
<path d="M88189 35068
L87828 35160
" />
<path d="M87828 35160
L87549 35241
" />
<path d="M114980 30368
L114973 30460
" />
<path d="M114973 30460
L114953 30549
" />
<path d="M114953 30549
L114921 30633
" />
<path d="M114921 30633
L114878 30713
" />
<path d="M114878 30713
L114825 30786
" />
<path d="M114825 30786
L114763 30851
" />
<path d="M114763 30851
L114693 30908
" />
<path d="M114693 30908
L114615 30956
" />
<path d="M114615 30956
L114532 30992
" />
<path d="M114532 30992
L114444 31017
" />
<path d="M114444 31017
L114383 31026
" />
<path d="M88222 1881
L88222 1881
" />
<path d="M57824 1881
L88222 1881
" />
<path d="M26797 1881
L57824 1881
" />
<path d="M26797 1881
L26797 1881
" />
<path d="M114427 10470
L114512 10513
" />
<path d="M114512 10513
L114592 10567
" />
<path d="M114592 10567
L114667 10631
" />
<path d="M114667 10631
L114736 10704
" />
<path d="M114736 10704
L114799 10783
" />
<path d="M114799 10783
L114854 10869
" />
<path d="M114854 10869
L114900 10959
" />
<path d="M114900 10959
L114937 11052
" />
<path d="M114937 11052
L114963 11147
" />
<path d="M114963 11147
L114977 11241
" />
<path d="M114977 11241
L114980 11304
" />
<path d="M88222 1881
L88868 1898
" />
<path d="M88868 1898
L89541 1944
" />
<path d="M89541 1944
L90241 2019
" />
<path d="M90241 2019
L90965 2121
" />
<path d="M90965 2121
L91712 2248
" />
<path d="M91712 2248
L92480 2399
" />
<path d="M92480 2399
L93267 2574
" />
<path d="M93267 2574
L94072 2770
" />
<path d="M94072 2770
L94893 2986
" />
<path d="M94893 2986
L95729 3221
" />
<path d="M95729 3221
L96578 3474
" />
<path d="M96578 3474
L97437 3743
" />
<path d="M97437 3743
L98307 4027
" />
<path d="M98307 4027
L99184 4324
" />
<path d="M99184 4324
L100067 4634
" />
<path d="M100067 4634
L100955 4955
" />
<path d="M100955 4955
L101845 5285
" />
<path d="M101845 5285
L102737 5623
" />
<path d="M102737 5623
L103629 5968
" />
<path d="M103629 5968
L104518 6319
" />
<path d="M104518 6319
L105404 6674
" />
<path d="M105404 6674
L106284 7032
" />
<path d="M106284 7032
L107158 7391
" />
<path d="M107158 7391
L108022 7750
" />
<path d="M108022 7750
L108877 8108
" />
<path d="M108877 8108
L109719 8464
" />
<path d="M109719 8464
L110547 8816
" />
<path d="M110547 8816
L111361 9163
" />
<path d="M111361 9163
L112157 9503
" />
<path d="M112157 9503
L112935 9835
" />
<path d="M112935 9835
L113692 10158
" />
<path d="M113692 10158
L114427 10470
" />
<path d="M39 30368
L39 11304
" />
<path d="M592 10470
L1327 10158
" />
<path d="M1327 10158
L2084 9835
" />
<path d="M2084 9835
L2862 9503
" />
<path d="M2862 9503
L3658 9163
" />
<path d="M3658 9163
L4472 8816
" />
<path d="M4472 8816
L5300 8464
" />
<path d="M5300 8464
L6142 8108
" />
<path d="M6142 8108
L6997 7750
" />
<path d="M6997 7750
L7861 7391
" />
<path d="M7861 7391
L8735 7032
" />
<path d="M8735 7032
L9615 6674
" />
<path d="M9615 6674
L10501 6319
" />
<path d="M10501 6319
L11390 5968
" />
<path d="M11390 5968
L12282 5623
" />
<path d="M12282 5623
L13173 5285
" />
<path d="M13173 5285
L14064 4955
" />
<path d="M14064 4955
L14952 4634
" />
<path d="M14952 4634
L15835 4324
" />
<path d="M15835 4324
L16712 4027
" />
<path d="M16712 4027
L17582 3743
" />
<path d="M17582 3743
L18441 3474
" />
<path d="M18441 3474
L19290 3221
" />
<path d="M19290 3221
L20125 2986
" />
<path d="M20125 2986
L20947 2770
" />
<path d="M20947 2770
L21752 2574
" />
<path d="M21752 2574
L22539 2399
" />
<path d="M22539 2399
L23307 2248
" />
<path d="M23307 2248
L24054 2121
" />
<path d="M24054 2121
L24778 2019
" />
<path d="M24778 2019
L25477 1944
" />
<path d="M25477 1944
L26151 1898
" />
<path d="M26151 1898
L26797 1881
" />
<path d="M39 11304
L45 11210
" />
<path d="M45 11210
L64 11115
" />
<path d="M64 11115
L93 11021
" />
<path d="M93 11021
L133 10929
" />
<path d="M133 10929
L182 10840
" />
<path d="M182 10840
L240 10756
" />
<path d="M240 10756
L305 10678
" />
<path d="M305 10678
L376 10609
" />
<path d="M376 10609
L453 10548
" />
<path d="M453 10548
L535 10497
" />
<path d="M535 10497
L592 10470
" />
<path d="M27470 35241
L27470 35241
" />
<path d="M636 31026
L545 31010
" />
<path d="M545 31010
L458 30981
" />
<path d="M458 30981
L377 30941
" />
<path d="M377 30941
L302 30890
" />
<path d="M302 30890
L235 30830
" />
<path d="M235 30830
L175 30762
" />
<path d="M175 30762
L125 30687
" />
<path d="M125 30687
L86 30606
" />
<path d="M86 30606
L58 30519
" />
<path d="M58 30519
L42 30429
" />
<path d="M42 30429
L39 30368
" />
<path d="M27470 35241
L27191 35160
" />
<path d="M27191 35160
L26830 35068
" />
<path d="M26830 35068
L26391 34967
" />
<path d="M26391 34967
L25879 34857
" />
<path d="M25879 34857
L25299 34739
" />
<path d="M25299 34739
L24654 34613
" />
<path d="M24654 34613
L23951 34481
" />
<path d="M23951 34481
L23193 34342
" />
<path d="M23193 34342
L22384 34198
" />
<path d="M22384 34198
L21531 34049
" />
<path d="M21531 34049
L20636 33897
" />
<path d="M20636 33897
L19706 33741
" />
<path d="M19706 33741
L18744 33582
" />
<path d="M18744 33582
L17755 33422
" />
<path d="M17755 33422
L16744 33260
" />
<path d="M16744 33260
L15715 33098
" />
<path d="M15715 33098
L14674 32937
" />
<path d="M14674 32937
L13624 32776
" />
<path d="M13624 32776
L12570 32617
" />
<path d="M12570 32617
L11517 32460
" />
<path d="M11517 32460
L10469 32307
" />
<path d="M10469 32307
L9432 32157
" />
<path d="M9432 32157
L8410 32012
" />
<path d="M8410 32012
L7407 31872
" />
<path d="M7407 31872
L6428 31738
" />
<path d="M6428 31738
L5477 31611
" />
<path d="M5477 31611
L4560 31491
" />
<path d="M4560 31491
L3681 31379
" />
<path d="M3681 31379
L2844 31276
" />
<path d="M2844 31276
L2055 31182
" />
<path d="M2055 31182
L1317 31099
" />
<path d="M1317 31099
L636 31026
" />
<path d="M39100 45812
L33109 43865
" />
<path d="M32464 43084
L32404 42685
" />
<path d="M32404 42685
L32337 42295
" />
<path d="M32337 42295
L32262 41915
" />
<path d="M32262 41915
L32179 41544
" />
<path d="M32179 41544
L32090 41182
" />
<path d="M32090 41182
L31993 40830
" />
<path d="M31993 40830
L31890 40488
" />
<path d="M31890 40488
L31779 40155
" />
<path d="M31779 40155
L31663 39832
" />
<path d="M31663 39832
L31539 39518
" />
<path d="M31539 39518
L31410 39215
" />
<path d="M31410 39215
L31274 38921
" />
<path d="M31274 38921
L31132 38637
" />
<path d="M31132 38637
L30984 38364
" />
<path d="M30984 38364
L30831 38100
" />
<path d="M30831 38100
L30672 37847
" />
<path d="M30672 37847
L30507 37604
" />
<path d="M30507 37604
L30337 37372
" />
<path d="M30337 37372
L30162 37149
" />
<path d="M30162 37149
L29981 36938
" />
<path d="M29981 36938
L29796 36736
" />
<path d="M29796 36736
L29606 36546
" />
<path d="M29606 36546
L29411 36366
" />
<path d="M29411 36366
L29212 36197
" />
<path d="M29212 36197
L29008 36039
" />
<path d="M29008 36039
L28800 35891
" />
<path d="M28800 35891
L28588 35755
" />
<path d="M28588 35755
L28371 35630
" />
<path d="M28371 35630
L28151 35516
" />
<path d="M28151 35516
L27928 35413
" />
<path d="M27928 35413
L27700 35321
" />
<path d="M27700 35321
L27470 35241
" />
<path d="M33109 43865
L33021 43830
" />
<path d="M33021 43830
L32936 43783
" />
<path d="M32936 43783
L32855 43725
" />
<path d="M32855 43725
L32778 43659
" />
<path d="M32778 43659
L32708 43585
" />
<path d="M32708 43585
L32644 43505
" />
<path d="M32644 43505
L32587 43419
" />
<path d="M32587 43419
L32540 43330
" />
<path d="M32540 43330
L32502 43238
" />
<path d="M32502 43238
L32476 43145
" />
<path d="M32476 43145
L32464 43084
" />
<path d="M40271 45997
L40159 45996
" />
<path d="M40159 45996
L40048 45991
" />
<path d="M40048 45991
L39936 45982
" />
<path d="M39936 45982
L39826 45971
" />
<path d="M39826 45971
L39715 45956
" />
<path d="M39715 45956
L39605 45938
" />
<path d="M39605 45938
L39496 45917
" />
<path d="M39496 45917
L39387 45893
" />
<path d="M39387 45893
L39279 45865
" />
<path d="M39279 45865
L39171 45834
" />
<path d="M39171 45834
L39100 45812
" />
<g >
</g>
<g >
</g>
<g >
</g>
<g >
</g>
<g >
</g>
<g >
</g>
<g >
</g>
<g >
</g>
<g >
</g>
<g >
</g>
<g >
</g>
<g >
</g>
<g >
</g>
<g >
</g>
<g >
</g>
<g >
</g>
<g >
</g>
<g >
</g>
<g >
</g>
<g >
</g>
<g >
</g>
<g >
</g>
<g >
</g>
<g >
</g>
<g >
</g>
<g >
</g>
<g >
</g>
<g >
</g>
<g >
</g>
<g >
</g>
<g >
</g>
<g >
</g>
<g >
</g>
<g >
</g>
<g >
</g>
<g >
</g>
<g >
</g>
<g >
</g>
<g >
</g>
<g >
</g>
<g >
</g>
<g >
</g>
<g >
</g>
<g >
</g>
<g >
</g>
<g >
</g>
<g >
</g>
<g >
</g>
<g >
</g>
<g >
</g>
<g >
</g>
<g >
</g>
<g >
</g>
<g >
</g>
<g >
</g>
<g >
</g>
<g >
</g>
<g >
</g>
<g >
</g>
<g >
</g>
<g >
</g>
<g >
</g>
<g >
</g>
<g >
</g>
<g >
</g>
<g >
</g>
<g >
</g>
<g >
</g>
<g >
</g>
<g >
</g>
<g >
</g>
<g >
</g>
<g >
</g>
<g >
</g>
<g >
</g>
<g >
</g>
<g >
</g>
<g >
</g>
<g >
</g>
<g >
</g>
<g >
</g>
<g >
</g>
<g >
</g>
<g >
</g>
<g >
</g>
<g >
</g>
<g >
</g>
<g >
</g>
<g >
</g>
<g >
</g>
<g >
</g>
<g >
</g>
<g >
</g>
<g >
</g>
<g >
</g>
<g >
</g>
<g >
</g>
<g >
</g>
<g >
</g>
<g >
</g>
<g >
</g>
<g >
</g>
<g >
</g>
<g >
</g>
<g >
</g>
<g >
</g>
<g >
</g>
<g >
</g>
<g >
</g>
<g >
</g>
<g >
</g>
<g >
</g>
<g >
</g>
<g >
</g>
<g >
</g>
<g >
</g>
<g >
</g>
<g >
</g>
<g >
</g>
<g >
</g>
<g >
</g>
<g >
</g>
<g >
</g>
<g >
</g>
<g >
</g>
<g >
</g>
</g> 
</svg>
