  0
SECTION
  2
HEADER
  9
$ACADVER
  1
AC1014
  9
$HANDSEED
  5
FFFF
  9
$MEASUREMENT
 70
     1
  0
ENDSEC
  0
SECTION
  2
TABLES
  0
TABLE
  2
VPORT
  5
8
330
0
100
AcDbSymbolTable
 70
     4
  0
VPORT
  5
2E
330
8
100
AcDbSymbolTableRecord
100
AcDbViewportTableRecord
  2
*ACTIVE
 70
     0
 10
0.0
 20
0.0
 11
1.0
 21
1.0
 12
210.0
 22
148.5
 13
0.0
 23
0.0
 14
10.0
 24
10.0
 15
10.0
 25
10.0
 16
0.0
 26
0.0
 36
1.0
 17
0.0
 27
0.0
 37
0.0
 40
341.0
 41
1.24
 42
50.0
 43
0.0
 44
0.0
 50
0.0
 51
0.0
 71
     0
 72
   100
 73
     1
 74
     3
 75
     0
 76
     0
 77
     0
 78
     0
  0
ENDTAB
  0
TABLE
  2
LTYPE
  5
5
330
0
100
AcDbSymbolTable
 70
     1
  0
LTYPE
  5
14
330
5
100
AcDbSymbolTableRecord
100
AcDbLinetypeTableRecord
  2
BYBLOCK
 70
     0
  3

 72
    65
 73
     0
 40
0.0
  0
LTYPE
  5
15
330
5
100
AcDbSymbolTableRecord
100
AcDbLinetypeTableRecord
  2
BYLAYER
 70
     0
  3

 72
    65
 73
     0
 40
0.0
  0
LTYPE
  5
16
330
5
100
AcDbSymbolTableRecord
100
AcDbLinetypeTableRecord
  2
CONTINUOUS
 70
     0
  3
Solid line
 72
    65
 73
     0
 40
0.0
  0
ENDTAB
  0
TABLE
  2
LAYER
  5
2
100
AcDbSymbolTable
 70
4
  0
LAYER
  5
50
100
AcDbSymbolTableRecord
100
AcDbLayerTableRecord
  2
0
 70
0
  6
CONTINUOUS
  0
LAYER
  5
51
100
AcDbSymbolTableRecord
100
AcDbLayerTableRecord
  2
Base
 70
0
  6
CONTINUOUS
  0
LAYER
  5
52
100
AcDbSymbolTableRecord
100
AcDbLayerTableRecord
  2
Edge
 70
0
  6
CONTINUOUS
  0
LAYER
  5
53
100
AcDbSymbolTableRecord
100
AcDbLayerTableRecord
  2
Edge_v0.2
 70
0
  6
CONTINUOUS
  0
ENDTAB
  0
TABLE
  2
STYLE
  5
3
330
0
100
AcDbSymbolTable
 70
     1
  0
STYLE
  5
11
330
3
100
AcDbSymbolTableRecord
100
AcDbTextStyleTableRecord
  2
STANDARD
 70
     0
 40
0.0
 41
1.0
 50
0.0
 71
     0
 42
2.5
  3
txt
  4

  0
ENDTAB
  0
TABLE
  2
VIEW
  5
6
330
0
100
AcDbSymbolTable
 70
     0
  0
ENDTAB
  0
TABLE
  2
UCS
  5
7
330
0
100
AcDbSymbolTable
 70
     0
  0
ENDTAB
  0
TABLE
  2
APPID
  5
9
330
0
100
AcDbSymbolTable
 70
     2
  0
APPID
  5
12
330
9
100
AcDbSymbolTableRecord
100
AcDbRegAppTableRecord
  2
ACAD
 70
     0
  0
ENDTAB
  0
TABLE
  2
DIMSTYLE
  5
A
330
0
100
AcDbSymbolTable
 70
     1
  0
DIMSTYLE
105
27
330
A
100
AcDbSymbolTableRecord
100
AcDbDimStyleTableRecord
  2
ISO-25
 70
     0
  3

  4

  5

  6

  7

 40
1.0
 41
2.5
 42
0.625
 43
3.75
 44
1.25
 45
0.0
 46
0.0
 47
0.0
 48
0.0
140
2.5
141
2.5
142
0.0
143
0.03937007874016
144
1.0
145
0.0
146
1.0
147
0.625
 71
     0
 72
     0
 73
     0
 74
     0
 75
     0
 76
     0
 77
     1
 78
     8
170
     0
171
     3
172
     1
173
     0
174
     0
175
     0
176
     0
177
     0
178
     0
270
     2
271
     2
272
     2
273
     2
274
     3
340
11
275
     0
280
     0
281
     0
282
     0
283
     0
284
     8
285
     0
286
     0
287
     3
288
     0
  0
ENDTAB
  0
TABLE
  2
BLOCK_RECORD
  5
1
330
0
100
AcDbSymbolTable
 70
     1
  0
BLOCK_RECORD
  5
1F
330
1
100
AcDbSymbolTableRecord
100
AcDbBlockTableRecord
  2
*MODEL_SPACE
  0
BLOCK_RECORD
  5
1B
330
1
100
AcDbSymbolTableRecord
100
AcDbBlockTableRecord
  2
*PAPER_SPACE
  0
ENDTAB
  0
ENDSEC
  0
SECTION
  2
BLOCKS
  0
BLOCK
  5
20
330
1F
100
AcDbEntity
  8
0
100
AcDbBlockBegin
  2
*MODEL_SPACE
 70
     0
 10
0.0
 20
0.0
 30
0.0
  3
*MODEL_SPACE
  1

  0
ENDBLK
  5
21
330
1F
100
AcDbEntity
  8
0
100
AcDbBlockEnd
  0
BLOCK
  5
1C
330
1B
100
AcDbEntity
 67
     1
  8
0
100
AcDbBlockBegin
  2
*PAPER_SPACE
  1

  0
ENDBLK
  5
1D
330
1B
100
AcDbEntity
 67
     1
  8
0
100
AcDbBlockEnd
  0
ENDSEC
  0
SECTION
  2
ENTITIES
  0
SPLINE
  5
100
100
AcDbEntity
  8
Edge
 62
7
100
AcDbSpline
 70
8
 71
3
 72
8
 73
4
 74
0
 40
0
 40
0
 40
0
 40
0
 40
1
 40
1
 40
1
 40
1
 10
205.765197
 20
-114.372073
 30
0.0
 10
206.269453
 20
-114.208276
 30
0.0
 10
206.619688
 20
-113.649294
 30
0.0
 10
206.579973
 20
-113.120657
 30
0.0
  0
SPLINE
  5
101
100
AcDbEntity
  8
Edge
 62
7
100
AcDbSpline
 70
8
 71
3
 72
8
 73
4
 74
0
 40
0
 40
0
 40
0
 40
0
 40
1
 40
1
 40
1
 40
1
 10
206.579973
 20
-113.120657
 30
0.0
 10
205.887363
 20
-103.902048
 30
0.0
 10
212.751782
 20
-96.443229
 30
0.0
 10
219.550947
 20
-92.648067
 30
0.0
  0
SPLINE
  5
102
100
AcDbEntity
  8
Edge
 62
7
100
AcDbSpline
 70
8
 71
3
 72
8
 73
4
 74
0
 40
0
 40
0
 40
0
 40
0
 40
1
 40
1
 40
1
 40
1
 10
219.550947
 20
-92.648067
 30
0.0
 10
233.321275
 20
-85.808266
 30
0.0
 10
268.929931
 20
-83.825696
 30
0.0
 10
288.282310
 20
-80.252344
 30
0.0
  0
SPLINE
  5
103
100
AcDbEntity
  8
Edge
 62
7
100
AcDbSpline
 70
8
 71
3
 72
8
 73
4
 74
0
 40
0
 40
0
 40
0
 40
0
 40
1
 40
1
 40
1
 40
1
 10
288.282310
 20
-80.252344
 30
0.0
 10
288.803696
 20
-80.156075
 30
0.0
 10
289.225666
 20
-79.644550
 30
0.0
 10
289.225666
 20
-79.114356
 30
0.0
  0
LWPOLYLINE
  5
104
100
AcDbEntity
  8
Edge
 62
7
100
AcDbPolyline
 90
2
 70
0
 10
189.929983
 20
-119.515800
 30
0.0
 10
205.765197
 20
-114.372073
 30
0.0
  0
SPLINE
  5
105
100
AcDbEntity
  8
Edge
 62
7
100
AcDbSpline
 70
8
 71
3
 72
8
 73
4
 74
0
 40
0
 40
0
 40
0
 40
0
 40
1
 40
1
 40
1
 40
1
 10
289.225666
 20
-28.660510
 30
0.0
 10
289.225666
 20
-28.130316
 30
0.0
 10
288.847434
 20
-27.496005
 30
0.0
 10
288.371362
 20
-27.262721
 30
0.0
  0
SPLINE
  5
106
100
AcDbEntity
  8
Edge
 62
7
100
AcDbSpline
 70
8
 71
3
 72
8
 73
4
 74
0
 40
0
 40
0
 40
0
 40
0
 40
1
 40
1
 40
1
 40
1
 10
288.371362
 20
-27.262721
 30
0.0
 10
278.859879
 20
-22.601941
 30
0.0
 10
237.404574
 20
-7.824301
 30
0.0
 10
221.260369
 20
-7.906083
 30
0.0
  0
LWPOLYLINE
  5
107
100
AcDbEntity
  8
Edge
 62
7
100
AcDbPolyline
 90
2
 70
0
 10
289.225666
 20
-79.114356
 30
0.0
 10
289.225666
 20
-28.660510
 30
0.0
  0
SPLINE
  5
108
100
AcDbEntity
  8
Edge
 62
7
100
AcDbSpline
 70
8
 71
3
 72
8
 73
4
 74
0
 40
0
 40
0
 40
0
 40
0
 40
1
 40
1
 40
1
 40
1
 10
75.647511
 20
-7.906083
 30
0.0
 10
59.656295
 20
-7.825076
 30
0.0
 10
18.831424
 20
-22.323199
 30
0.0
 10
8.815473
 20
-27.127517
 30
0.0
  0
SPLINE
  5
109
100
AcDbEntity
  8
Edge
 62
7
100
AcDbSpline
 70
8
 71
3
 72
8
 73
4
 74
0
 40
0
 40
0
 40
0
 40
0
 40
1
 40
1
 40
1
 40
1
 10
8.815473
 20
-27.127517
 30
0.0
 10
8.183124
 20
-27.430833
 30
0.0
 10
7.682221
 20
-28.269109
 30
0.0
 10
7.682221
 20
-28.970510
 30
0.0
  0
LWPOLYLINE
  5
10a
100
AcDbEntity
  8
Edge
 62
7
100
AcDbPolyline
 90
3
 70
0
 10
221.260369
 20
-7.906083
 30
0.0
 10
148.453939
 20
-7.906136
 30
0.0
 10
75.647511
 20
-7.906083
 30
0.0
  0
SPLINE
  5
10b
100
AcDbEntity
  8
Edge
 62
7
100
AcDbSpline
 70
8
 71
3
 72
8
 73
4
 74
0
 40
0
 40
0
 40
0
 40
0
 40
1
 40
1
 40
1
 40
1
 10
7.682221
 20
-78.804357
 30
0.0
 10
7.682221
 20
-79.505757
 30
0.0
 10
8.240450
 20
-80.182542
 30
0.0
 10
8.930487
 20
-80.308272
 30
0.0
  0
SPLINE
  5
10c
100
AcDbEntity
  8
Edge
 62
7
100
AcDbSpline
 70
8
 71
3
 72
8
 73
4
 74
0
 40
0
 40
0
 40
0
 40
0
 40
1
 40
1
 40
1
 40
1
 10
8.930487
 20
-80.308272
 30
0.0
 10
28.349741
 20
-83.846562
 30
0.0
 10
63.658612
 20
-85.844032
 30
0.0
 10
77.356933
 20
-92.648067
 30
0.0
  0
SPLINE
  5
10d
100
AcDbEntity
  8
Edge
 62
7
100
AcDbSpline
 70
8
 71
3
 72
8
 73
4
 74
0
 40
0
 40
0
 40
0
 40
0
 40
1
 40
1
 40
1
 40
1
 10
77.356933
 20
-92.648067
 30
0.0
 10
84.079888
 20
-96.400689
 30
0.0
 10
90.866641
 20
-103.735302
 30
0.0
 10
90.348359
 20
-112.811335
 30
0.0
  0
SPLINE
  5
10e
100
AcDbEntity
  8
Edge
 62
7
100
AcDbSpline
 70
8
 71
3
 72
8
 73
4
 74
0
 40
0
 40
0
 40
0
 40
0
 40
1
 40
1
 40
1
 40
1
 10
90.348359
 20
-112.811335
 30
0.0
 10
90.308382
 20
-113.511443
 30
0.0
 10
90.770428
 20
-114.251154
 30
0.0
 10
91.437518
 20
-114.467844
 30
0.0
  0
LWPOLYLINE
  5
10f
100
AcDbEntity
  8
Edge
 62
7
100
AcDbPolyline
 90
2
 70
0
 10
7.682221
 20
-28.970510
 30
0.0
 10
7.682221
 20
-78.804357
 30
0.0
  0
SPLINE
  5
110
100
AcDbEntity
  8
Edge
 62
7
100
AcDbSpline
 70
8
 71
3
 72
8
 73
4
 74
0
 40
0
 40
0
 40
0
 40
0
 40
1
 40
1
 40
1
 40
1
 10
106.977897
 20
-119.515800
 30
0.0
 10
107.885283
 20
-119.810545
 30
0.0
 10
108.833397
 20
-119.960670
 30
0.0
 10
109.787453
 20
-119.960668
 30
0.0
  0
LWPOLYLINE
  5
111
100
AcDbEntity
  8
Edge
 62
7
100
AcDbPolyline
 90
2
 70
0
 10
91.437518
 20
-114.467844
 30
0.0
 10
106.977897
 20
-119.515800
 30
0.0
  0
SPLINE
  5
112
100
AcDbEntity
  8
Edge
 62
7
100
AcDbSpline
 70
8
 71
3
 72
8
 73
4
 74
0
 40
0
 40
0
 40
0
 40
0
 40
1
 40
1
 40
1
 40
1
 10
187.120426
 20
-119.960668
 30
0.0
 10
188.074482
 20
-119.960670
 30
0.0
 10
189.022597
 20
-119.810545
 30
0.0
 10
189.929983
 20
-119.515800
 30
0.0
  0
LWPOLYLINE
  5
113
100
AcDbEntity
  8
Edge
 62
7
100
AcDbPolyline
 90
3
 70
0
 10
109.787453
 20
-119.960668
 30
0.0
 10
148.453939
 20
-119.960566
 30
0.0
 10
187.120426
 20
-119.960668
 30
0.0
  0
LWPOLYLINE
  5
114
100
AcDbEntity
  8
Edge
 62
7
100
AcDbPolyline
 90
1
 70
1
 10
189.929983
 20
-119.515800
 30
0.0
  0
LWPOLYLINE
  5
115
100
AcDbEntity
  8
Edge
 62
7
100
AcDbPolyline
 90
3
 70
0
 10
10.079397
 20
-78.337710
 30
0.0
 10
7.682221
 20
-78.337710
 30
0.0
 10
7.682221
 20
-75.999941
 30
0.0
  0
ENDSEC
  0
SECTION
  2
OBJECTS
  0
DICTIONARY
  5
C
330
0
100
AcDbDictionary
  3
ACAD_GROUP
350
D
  3
ACAD_MLINESTYLE
350
17
  0
DICTIONARY
  5
D
330
C
100
AcDbDictionary
  0
DICTIONARY
  5
1A
330
C
100
AcDbDictionary
  0
DICTIONARY
  5
17
330
C
100
AcDbDictionary
  3
STANDARD
350
18
  0
DICTIONARY
  5
19
330
C
100
AcDbDictionary
  0
ENDSEC
  0
EOF
