<?xml version="1.0" standalone="no"?>
 <!DOCTYPE svg PUBLIC "-//W3C//DTD SVG 1.1//EN" 
 "http://www.w3.org/Graphics/SVG/1.1/DTD/svg11.dtd"> 
<svg
  xmlns:svg="http://www.w3.org/2000/svg"
  xmlns="http://www.w3.org/2000/svg"
  xmlns:xlink="http://www.w3.org/1999/xlink"
  version="1.1"
  width="28.580080cm" height="21.000720cm" viewBox="0 0 112520 82680">
<title>SVG Picture created as yacc46-brd.svg date 2021/05/11 21:45:35 </title>
  <desc>Picture generated by PCBNEW </desc>
<g style="fill:#000000; fill-opacity:1;stroke:#000000; stroke-opacity:1;
stroke-linecap:round; stroke-linejoin:round;"
 transform="translate(0 0) scale(1 1)">
</g>
<g style="fill:#000000; fill-opacity:0.0; 
stroke:#000000; stroke-width:-0.000393701; stroke-opacity:1; 
stroke-linecap:round; stroke-linejoin:round;">
</g>
<g style="fill:#C2C2C2; fill-opacity:0.0; 
stroke:#C2C2C2; stroke-width:-0.000393701; stroke-opacity:1; 
stroke-linecap:round; stroke-linejoin:round;">
</g>
<g style="fill:#C2C2C2; fill-opacity:0.0; 
stroke:#C2C2C2; stroke-width:59.0551; stroke-opacity:1; 
stroke-linecap:round; stroke-linejoin:round;">
<path d="M56240 12586
L56240 56702
" />
<path d="M39661 56702
L72818 56702
" />
<path d="M26787 12586
L85692 12586
" />
</g>
<g style="fill:#C2C2C2; fill-opacity:0.0; 
stroke:#C2C2C2; stroke-width:19.685; stroke-opacity:1; 
stroke-linecap:round; stroke-linejoin:round;">
<path d="M63188 79569
L62842 79569
" />
<path d="M62842 79569
L62842 79786
" />
<path d="M63188 79786
L63188 79569
" />
<path d="M63779 79786
L63779 79569
" />
<path d="M63779 79569
L63590 79569
" />
<path d="M63590 79569
L63590 79786
" />
<path d="M63590 80337
L63590 80554
" />
<path d="M63590 80554
L63779 80554
" />
<path d="M63779 80554
L63779 80337
" />
<path d="M62842 80337
L62842 80554
" />
<path d="M62842 80554
L63031 80554
" />
<path d="M63031 80554
L63031 80337
" />
</g>
<g style="fill:#C2C2C2; fill-opacity:0.0; 
stroke:#C2C2C2; stroke-width:47.2441; stroke-opacity:1; 
stroke-linecap:round; stroke-linejoin:round;">
<path d="M52440 51420
L50078 51420
" />
<path d="M52677 51262
L52677 52817
" />
<path d="M52440 51420
L52440 51262
" />
<path d="M52440 51262
L52677 51262
" />
<path d="M52362 53329
L50157 53329
" />
<path d="M52677 52817
L52362 52817
" />
<path d="M52362 52817
L52362 53329
" />
<path d="M50157 52817
L50157 53329
" />
<path d="M50157 52817
L49842 52817
" />
<path d="M49842 51262
L49842 52817
" />
<path d="M50078 51420
L50078 51262
" />
<path d="M49842 51262
L50078 51262
" />
</g>
<g style="fill:#C2C2C2; fill-opacity:0.0; 
stroke:#C2C2C2; stroke-width:59.0551; stroke-opacity:1; 
stroke-linecap:round; stroke-linejoin:round;">
<path d="M8523 25445
L8917 25445
" />
<path d="M14035 19934
L14035 20327
" />
<path d="M8523 19934
L8917 19934
" />
<path d="M14035 25445
L14035 25052
" />
<path d="M13641 25445
L14035 25445
" />
<path d="M8523 25052
L8523 25445
" />
<path d="M14035 19934
L13641 19934
" />
<path d="M8523 20327
L8523 19934
" />
<path d="M7529 26439
L7529 18939
" />
<path d="M15029 26439
L7529 26439
" />
<path d="M15029 18939
L15029 26439
" />
<path d="M7529 18939
L15029 18939
" />
<path d="M17381 15313
L24840 16097
" />
<path d="M24840 16097
L24056 23556
" />
<path d="M24056 23556
L16597 22772
" />
<path d="M16597 22772
L17381 15313
" />
<path d="M18225 16797
L18266 16405
" />
<path d="M23747 16981
L23356 16940
" />
<path d="M17731 21495
L17690 21887
" />
<path d="M22780 22422
L23171 22463
" />
<path d="M23171 22463
L23212 22071
" />
<path d="M18266 16405
L18657 16446
" />
<path d="M23747 16981
L23706 17373
" />
<path d="M17690 21887
L18081 21928
" />
<path d="M26787 12586
L34173 13888
" />
<path d="M34173 13888
L32871 21274
" />
<path d="M32871 21274
L25485 19972
" />
<path d="M25485 19972
L26787 12586
" />
<path d="M27525 14125
L27593 13737
" />
<path d="M33021 14695
L32634 14626
" />
<path d="M26705 18778
L26636 19165
" />
<path d="M31677 20054
L32064 20123
" />
<path d="M32064 20123
L32133 19735
" />
<path d="M27593 13737
L27981 13806
" />
<path d="M33021 14695
L32953 15082
" />
<path d="M26636 19165
L27024 19234
" />
<path d="M33697 22314
L34084 22383
" />
<path d="M40082 17843
L40014 18231
" />
<path d="M34654 16886
L35042 16955
" />
<path d="M39125 23271
L39193 22884
" />
<path d="M38737 23203
L39125 23271
" />
<path d="M33765 21927
L33697 22314
" />
<path d="M40082 17843
L39694 17775
" />
<path d="M34585 17274
L34654 16886
" />
<path d="M32545 23121
L33847 15735
" />
<path d="M39931 24423
L32545 23121
" />
<path d="M41234 17037
L39931 24423
" />
<path d="M33847 15735
L41234 17037
" />
<path d="M41071 17960
L48457 19263
" />
<path d="M48457 19263
L47154 26649
" />
<path d="M47154 26649
L39768 25346
" />
<path d="M39768 25346
L41071 17960
" />
<path d="M41809 19500
L41877 19112
" />
<path d="M47305 20069
L46917 20001
" />
<path d="M40988 24152
L40920 24540
" />
<path d="M45960 25429
L46348 25497
" />
<path d="M46348 25497
L46416 25109
" />
<path d="M41877 19112
L42265 19180
" />
<path d="M47305 20069
L47237 20457
" />
<path d="M40920 24540
L41308 24608
" />
<path d="M1023 31070
L1417 31070
" />
<path d="M6535 25559
L6535 25952
" />
<path d="M1023 25559
L1417 25559
" />
<path d="M6535 31070
L6535 30677
" />
<path d="M6141 31070
L6535 31070
" />
<path d="M1023 30677
L1023 31070
" />
<path d="M6535 25559
L6141 25559
" />
<path d="M1023 25952
L1023 25559
" />
<path d="M29 32064
L29 24564
" />
<path d="M7529 32064
L29 32064
" />
<path d="M7529 24564
L7529 32064
" />
<path d="M29 24564
L7529 24564
" />
<path d="M7529 26439
L15029 26439
" />
<path d="M15029 26439
L15029 33939
" />
<path d="M15029 33939
L7529 33939
" />
<path d="M7529 33939
L7529 26439
" />
<path d="M8523 27827
L8523 27434
" />
<path d="M14035 27434
L13641 27434
" />
<path d="M8523 32552
L8523 32945
" />
<path d="M13641 32945
L14035 32945
" />
<path d="M14035 32945
L14035 32552
" />
<path d="M8523 27434
L8917 27434
" />
<path d="M14035 27434
L14035 27827
" />
<path d="M8523 32945
L8917 32945
" />
<path d="M16597 22772
L24056 23556
" />
<path d="M24056 23556
L23272 31015
" />
<path d="M23272 31015
L15813 30231
" />
<path d="M15813 30231
L16597 22772
" />
<path d="M17441 24256
L17482 23864
" />
<path d="M22963 24440
L22572 24399
" />
<path d="M16947 28954
L16906 29346
" />
<path d="M21996 29881
L22387 29922
" />
<path d="M22387 29922
L22428 29530
" />
<path d="M17482 23864
L17873 23905
" />
<path d="M22963 24440
L22922 24832
" />
<path d="M16906 29346
L17297 29387
" />
<path d="M25334 26552
L25722 26620
" />
<path d="M31719 22081
L31651 22468
" />
<path d="M26291 21123
L26679 21192
" />
<path d="M30762 27509
L30830 27121
" />
<path d="M30374 27440
L30762 27509
" />
<path d="M25402 26164
L25334 26552
" />
<path d="M31719 22081
L31331 22012
" />
<path d="M26223 21511
L26291 21123
" />
<path d="M24182 27358
L25485 19972
" />
<path d="M31568 28660
L24182 27358
" />
<path d="M32871 21274
L31568 28660
" />
<path d="M25485 19972
L32871 21274
" />
<path d="M32545 23121
L39931 24423
" />
<path d="M39931 24423
L38629 31809
" />
<path d="M38629 31809
L31243 30507
" />
<path d="M31243 30507
L32545 23121
" />
<path d="M33283 24660
L33351 24272
" />
<path d="M38780 25229
L38392 25161
" />
<path d="M32463 29313
L32394 29700
" />
<path d="M37435 30589
L37822 30658
" />
<path d="M37822 30658
L37891 30270
" />
<path d="M33351 24272
L33739 24341
" />
<path d="M38780 25229
L38711 25617
" />
<path d="M32394 29700
L32782 29769
" />
<path d="M39768 25346
L47154 26649
" />
<path d="M47154 26649
L45852 34035
" />
<path d="M45852 34035
L38466 32732
" />
<path d="M38466 32732
L39768 25346
" />
<path d="M40506 26886
L40575 26498
" />
<path d="M46003 27455
L45615 27387
" />
<path d="M39686 31538
L39618 31926
" />
<path d="M44658 32815
L45046 32883
" />
<path d="M45046 32883
L45114 32495
" />
<path d="M40575 26498
L40962 26566
" />
<path d="M46003 27455
L45934 27843
" />
<path d="M39618 31926
L40005 31994
" />
<path d="M46841 34152
L47229 34220
" />
<path d="M53226 29681
L53158 30068
" />
<path d="M47798 28724
L48186 28792
" />
<path d="M52269 35109
L52337 34721
" />
<path d="M51881 35040
L52269 35109
" />
<path d="M46909 33764
L46841 34152
" />
<path d="M53226 29681
L52838 29612
" />
<path d="M47730 29111
L47798 28724
" />
<path d="M45689 34958
L46992 27572
" />
<path d="M53075 36260
L45689 34958
" />
<path d="M54378 28874
L53075 36260
" />
<path d="M46992 27572
L54378 28874
" />
<path d="M1023 38570
L1417 38570
" />
<path d="M6535 33059
L6535 33452
" />
<path d="M1023 33059
L1417 33059
" />
<path d="M6535 38570
L6535 38177
" />
<path d="M6141 38570
L6535 38570
" />
<path d="M1023 38177
L1023 38570
" />
<path d="M6535 33059
L6141 33059
" />
<path d="M1023 33452
L1023 33059
" />
<path d="M29 39564
L29 32064
" />
<path d="M7529 39564
L29 39564
" />
<path d="M7529 32064
L7529 39564
" />
<path d="M29 32064
L7529 32064
" />
<path d="M8523 40445
L8917 40445
" />
<path d="M14035 34934
L14035 35327
" />
<path d="M8523 34934
L8917 34934
" />
<path d="M14035 40445
L14035 40052
" />
<path d="M13641 40445
L14035 40445
" />
<path d="M8523 40052
L8523 40445
" />
<path d="M14035 34934
L13641 34934
" />
<path d="M8523 35327
L8523 34934
" />
<path d="M7529 41439
L7529 33939
" />
<path d="M15029 41439
L7529 41439
" />
<path d="M15029 33939
L15029 41439
" />
<path d="M7529 33939
L15029 33939
" />
<path d="M16122 36805
L16513 36846
" />
<path d="M22179 31899
L22138 32291
" />
<path d="M16698 31323
L17089 31364
" />
<path d="M21603 37381
L21644 36989
" />
<path d="M21212 37340
L21603 37381
" />
<path d="M16163 36413
L16122 36805
" />
<path d="M22179 31899
L21788 31858
" />
<path d="M16657 31715
L16698 31323
" />
<path d="M15029 37689
L15813 30231
" />
<path d="M22488 38473
L15029 37689
" />
<path d="M23272 31015
L22488 38473
" />
<path d="M15813 30231
L23272 31015
" />
<path d="M24182 27358
L31568 28660
" />
<path d="M31568 28660
L30266 36046
" />
<path d="M30266 36046
L22880 34744
" />
<path d="M22880 34744
L24182 27358
" />
<path d="M24920 28897
L24989 28510
" />
<path d="M30417 29467
L30029 29398
" />
<path d="M24100 33550
L24032 33938
" />
<path d="M29072 34826
L29460 34895
" />
<path d="M29460 34895
L29528 34507
" />
<path d="M24989 28510
L25376 28578
" />
<path d="M30417 29467
L30348 29854
" />
<path d="M24032 33938
L24419 34006
" />
<path d="M31092 37086
L31480 37155
" />
<path d="M37477 32616
L37409 33003
" />
<path d="M32049 31658
L32437 31727
" />
<path d="M36520 38044
L36588 37656
" />
<path d="M36132 37975
L36520 38044
" />
<path d="M31160 36699
L31092 37086
" />
<path d="M37477 32616
L37089 32547
" />
<path d="M31981 32046
L32049 31658
" />
<path d="M29940 37893
L31243 30507
" />
<path d="M37326 39195
L29940 37893
" />
<path d="M38629 31809
L37326 39195
" />
<path d="M31243 30507
L38629 31809
" />
<path d="M38315 39312
L38703 39380
" />
<path d="M44700 34841
L44632 35229
" />
<path d="M39272 33884
L39660 33952
" />
<path d="M43743 40269
L43812 39881
" />
<path d="M43356 40201
L43743 40269
" />
<path d="M38384 38924
L38315 39312
" />
<path d="M44700 34841
L44313 34773
" />
<path d="M39204 34272
L39272 33884
" />
<path d="M37164 40118
L38466 32732
" />
<path d="M44550 41421
L37164 40118
" />
<path d="M45852 34035
L44550 41421
" />
<path d="M38466 32732
L45852 34035
" />
<path d="M46496 36110
L46359 36885
" />
<path d="M47271 36246
L46496 36110
" />
<path d="M51773 43646
L44387 42344
" />
<path d="M45539 41538
L46314 41674
" />
<path d="M45675 40762
L45539 41538
" />
<path d="M44387 42344
L45689 34958
" />
<path d="M53075 36260
L51773 43646
" />
<path d="M51148 36930
L51924 37067
" />
<path d="M50967 42495
L51103 41719
" />
<path d="M51924 37067
L51787 37842
" />
<path d="M45689 34958
L53075 36260
" />
<path d="M50191 42358
L50967 42495
" />
<path d="M28762 38563
L36148 39865
" />
<path d="M36148 39865
L34846 47251
" />
<path d="M34846 47251
L27460 45949
" />
<path d="M27460 45949
L28762 38563
" />
<path d="M29500 40102
L29569 39715
" />
<path d="M34997 40672
L34609 40603
" />
<path d="M28680 44755
L28612 45143
" />
<path d="M33652 46031
L34040 46100
" />
<path d="M34040 46100
L34108 45712
" />
<path d="M29569 39715
L29956 39783
" />
<path d="M34997 40672
L34928 41059
" />
<path d="M28612 45143
L28999 45211
" />
<path d="M37164 40118
L44297 42436
" />
<path d="M44297 42436
L41979 49569
" />
<path d="M41979 49569
L34846 47251
" />
<path d="M34846 47251
L37164 40118
" />
<path d="M37680 41746
L37802 41371
" />
<path d="M43044 43074
L42670 42953
" />
<path d="M36220 46239
L36099 46613
" />
<path d="M40966 48195
L41341 48316
" />
<path d="M41341 48316
L41462 47942
" />
<path d="M37802 41371
L38176 41493
" />
<path d="M43044 43074
L42922 43449
" />
<path d="M36099 46613
L36473 46735
" />
<path d="M43308 49111
L43662 49284
" />
<path d="M50678 46574
L50506 46927
" />
<path d="M45724 44157
L46078 44330
" />
<path d="M48262 51528
L48435 51174
" />
<path d="M47908 51355
L48262 51528
" />
<path d="M43481 48757
L43308 49111
" />
<path d="M50678 46574
L50325 46401
" />
<path d="M45552 44511
L45724 44157
" />
<path d="M41979 49569
L45267 42828
" />
<path d="M48720 52857
L41979 49569
" />
<path d="M52008 46116
L48720 52857
" />
<path d="M45267 42828
L52008 46116
" />
<path d="M34846 47251
L41979 49569
" />
<path d="M41979 49569
L39661 56702
" />
<path d="M39661 56702
L32528 54384
" />
<path d="M32528 54384
L34846 47251
" />
<path d="M35363 48878
L35484 48504
" />
<path d="M40726 50207
L40352 50086
" />
<path d="M33903 53372
L33781 53746
" />
<path d="M38649 55328
L39023 55449
" />
<path d="M39023 55449
L39145 55075
" />
<path d="M35484 48504
L35859 48626
" />
<path d="M40726 50207
L40605 50582
" />
<path d="M33781 53746
L34155 53868
" />
<path d="M64023 19263
L71409 17960
" />
<path d="M71409 17960
L72711 25346
" />
<path d="M72711 25346
L65325 26649
" />
<path d="M65325 26649
L64023 19263
" />
<path d="M65242 20457
L65174 20069
" />
<path d="M70602 19112
L70214 19180
" />
<path d="M66063 25109
L66131 25497
" />
<path d="M71172 24608
L71559 24540
" />
<path d="M71559 24540
L71491 24152
" />
<path d="M65174 20069
L65562 20001
" />
<path d="M70602 19112
L70671 19500
" />
<path d="M66131 25497
L66519 25429
" />
<path d="M73355 23271
L73742 23203
" />
<path d="M77825 16886
L77894 17274
" />
<path d="M72397 17843
L72785 17775
" />
<path d="M78783 22314
L78714 21927
" />
<path d="M78395 22383
L78783 22314
" />
<path d="M73286 22884
L73355 23271
" />
<path d="M77825 16886
L77438 16955
" />
<path d="M72466 18231
L72397 17843
" />
<path d="M72548 24423
L71246 17037
" />
<path d="M79934 23121
L72548 24423
" />
<path d="M78632 15735
L79934 23121
" />
<path d="M71246 17037
L78632 15735
" />
<path d="M78306 13888
L85692 12586
" />
<path d="M85692 12586
L86995 19972
" />
<path d="M86995 19972
L79609 21274
" />
<path d="M79609 21274
L78306 13888
" />
<path d="M79526 15082
L79458 14695
" />
<path d="M84886 13737
L84498 13806
" />
<path d="M80347 19735
L80415 20123
" />
<path d="M85455 19234
L85843 19165
" />
<path d="M85843 19165
L85775 18778
" />
<path d="M79458 14695
L79846 14626
" />
<path d="M84886 13737
L84954 14125
" />
<path d="M80415 20123
L80803 20054
" />
<path d="M89308 22463
L89700 22422
" />
<path d="M94214 16405
L94255 16797
" />
<path d="M88732 16981
L89124 16940
" />
<path d="M94790 21887
L94749 21495
" />
<path d="M94398 21928
L94790 21887
" />
<path d="M89267 22071
L89308 22463
" />
<path d="M94214 16405
L93822 16446
" />
<path d="M88773 17373
L88732 16981
" />
<path d="M88423 23556
L87639 16097
" />
<path d="M95882 22772
L88423 23556
" />
<path d="M95098 15313
L95882 22772
" />
<path d="M87639 16097
L95098 15313
" />
<path d="M97450 18939
L104950 18939
" />
<path d="M104950 18939
L104950 26439
" />
<path d="M104950 26439
L97450 26439
" />
<path d="M97450 26439
L97450 18939
" />
<path d="M98444 20327
L98444 19934
" />
<path d="M103956 19934
L103562 19934
" />
<path d="M98444 25052
L98444 25445
" />
<path d="M103562 25445
L103956 25445
" />
<path d="M103956 25445
L103956 25052
" />
<path d="M98444 19934
L98838 19934
" />
<path d="M103956 19934
L103956 20327
" />
<path d="M98444 25445
L98838 25445
" />
<path d="M60210 35109
L60598 35040
" />
<path d="M64681 28724
L64750 29111
" />
<path d="M59253 29681
L59641 29612
" />
<path d="M65638 34152
L65570 33764
" />
<path d="M65251 34220
L65638 34152
" />
<path d="M60142 34721
L60210 35109
" />
<path d="M64681 28724
L64294 28792
" />
<path d="M59322 30068
L59253 29681
" />
<path d="M59404 36260
L58102 28874
" />
<path d="M66790 34958
L59404 36260
" />
<path d="M65488 27572
L66790 34958
" />
<path d="M58102 28874
L65488 27572
" />
<path d="M65325 26649
L72711 25346
" />
<path d="M72711 25346
L74013 32732
" />
<path d="M74013 32732
L66627 34035
" />
<path d="M66627 34035
L65325 26649
" />
<path d="M66545 27843
L66476 27455
" />
<path d="M71905 26498
L71517 26566
" />
<path d="M67365 32495
L67434 32883
" />
<path d="M72474 31994
L72862 31926
" />
<path d="M72862 31926
L72793 31538
" />
<path d="M66476 27455
L66864 27387
" />
<path d="M71905 26498
L71973 26886
" />
<path d="M67434 32883
L67821 32815
" />
<path d="M74657 30658
L75045 30589
" />
<path d="M79128 24272
L79196 24660
" />
<path d="M73700 25229
L74087 25161
" />
<path d="M80085 29700
L80017 29313
" />
<path d="M79697 29769
L80085 29700
" />
<path d="M74589 30270
L74657 30658
" />
<path d="M79128 24272
L78740 24341
" />
<path d="M73768 25617
L73700 25229
" />
<path d="M73851 31809
L72548 24423
" />
<path d="M81237 30507
L73851 31809
" />
<path d="M79934 23121
L81237 30507
" />
<path d="M72548 24423
L79934 23121
" />
<path d="M79609 21274
L86995 19972
" />
<path d="M86995 19972
L88297 27358
" />
<path d="M88297 27358
L80911 28660
" />
<path d="M80911 28660
L79609 21274
" />
<path d="M80829 22468
L80760 22081
" />
<path d="M86188 21123
L85801 21192
" />
<path d="M81649 27121
L81717 27509
" />
<path d="M86758 26620
L87145 26552
" />
<path d="M87145 26552
L87077 26164
" />
<path d="M80760 22081
L81148 22012
" />
<path d="M86188 21123
L86257 21511
" />
<path d="M81717 27509
L82105 27440
" />
<path d="M90092 29922
L90484 29881
" />
<path d="M94998 23864
L95039 24256
" />
<path d="M89516 24440
L89908 24399
" />
<path d="M95574 29346
L95533 28954
" />
<path d="M95182 29387
L95574 29346
" />
<path d="M90051 29530
L90092 29922
" />
<path d="M94998 23864
L94606 23905
" />
<path d="M89557 24832
L89516 24440
" />
<path d="M89207 31015
L88423 23556
" />
<path d="M96666 30231
L89207 31015
" />
<path d="M95882 22772
L96666 30231
" />
<path d="M88423 23556
L95882 22772
" />
<path d="M97450 26439
L104950 26439
" />
<path d="M104950 26439
L104950 33939
" />
<path d="M104950 33939
L97450 33939
" />
<path d="M97450 33939
L97450 26439
" />
<path d="M98444 27827
L98444 27434
" />
<path d="M103956 27434
L103562 27434
" />
<path d="M98444 32552
L98444 32945
" />
<path d="M103562 32945
L103956 32945
" />
<path d="M103956 32945
L103956 32552
" />
<path d="M98444 27434
L98838 27434
" />
<path d="M103956 27434
L103956 27827
" />
<path d="M98444 32945
L98838 32945
" />
<path d="M105944 31070
L106338 31070
" />
<path d="M111456 25559
L111456 25952
" />
<path d="M105944 25559
L106338 25559
" />
<path d="M111456 31070
L111456 30677
" />
<path d="M111062 31070
L111456 31070
" />
<path d="M105944 30677
L105944 31070
" />
<path d="M111456 25559
L111062 25559
" />
<path d="M105944 25952
L105944 25559
" />
<path d="M104950 32064
L104950 24564
" />
<path d="M112450 32064
L104950 32064
" />
<path d="M112450 24564
L112450 32064
" />
<path d="M104950 24564
L112450 24564
" />
<path d="M66165 41674
L66941 41538
" />
<path d="M59404 36260
L66790 34958
" />
<path d="M65984 36110
L66120 36885
" />
<path d="M66941 41538
L66804 40762
" />
<path d="M65208 36246
L65984 36110
" />
<path d="M66790 34958
L68092 42344
" />
<path d="M60706 43646
L59404 36260
" />
<path d="M61376 41719
L61513 42495
" />
<path d="M61513 42495
L62288 42358
" />
<path d="M68092 42344
L60706 43646
" />
<path d="M61331 36930
L60556 37067
" />
<path d="M60556 37067
L60692 37842
" />
<path d="M66627 34035
L74013 32732
" />
<path d="M74013 32732
L75316 40118
" />
<path d="M75316 40118
L67930 41421
" />
<path d="M67930 41421
L66627 34035
" />
<path d="M67847 35229
L67779 34841
" />
<path d="M73207 33884
L72819 33952
" />
<path d="M68668 39881
L68736 40269
" />
<path d="M73776 39380
L74164 39312
" />
<path d="M74164 39312
L74096 38924
" />
<path d="M67779 34841
L68167 34773
" />
<path d="M73207 33884
L73275 34272
" />
<path d="M68736 40269
L69124 40201
" />
<path d="M75959 38044
L76347 37975
" />
<path d="M80430 31658
L80499 32046
" />
<path d="M75002 32616
L75390 32547
" />
<path d="M81387 37086
L81319 36699
" />
<path d="M81000 37155
L81387 37086
" />
<path d="M75891 37656
L75959 38044
" />
<path d="M80430 31658
L80042 31727
" />
<path d="M75070 33003
L75002 32616
" />
<path d="M75153 39195
L73851 31809
" />
<path d="M82539 37893
L75153 39195
" />
<path d="M81237 30507
L82539 37893
" />
<path d="M73851 31809
L81237 30507
" />
<path d="M80911 28660
L88297 27358
" />
<path d="M88297 27358
L89599 34744
" />
<path d="M89599 34744
L82213 36046
" />
<path d="M82213 36046
L80911 28660
" />
<path d="M82131 29854
L82063 29467
" />
<path d="M87491 28510
L87103 28578
" />
<path d="M82951 34507
L83020 34895
" />
<path d="M88060 34006
L88448 33938
" />
<path d="M88448 33938
L88379 33550
" />
<path d="M82063 29467
L82450 29398
" />
<path d="M87491 28510
L87559 28897
" />
<path d="M83020 34895
L83407 34826
" />
<path d="M90876 37381
L91268 37340
" />
<path d="M95782 31323
L95823 31715
" />
<path d="M90300 31899
L90692 31858
" />
<path d="M96358 36805
L96317 36413
" />
<path d="M95966 36846
L96358 36805
" />
<path d="M90835 36989
L90876 37381
" />
<path d="M95782 31323
L95390 31364
" />
<path d="M90341 32291
L90300 31899
" />
<path d="M89991 38473
L89207 31015
" />
<path d="M97450 37689
L89991 38473
" />
<path d="M96666 30231
L97450 37689
" />
<path d="M89207 31015
L96666 30231
" />
<path d="M97450 33939
L104950 33939
" />
<path d="M104950 33939
L104950 41439
" />
<path d="M104950 41439
L97450 41439
" />
<path d="M97450 41439
L97450 33939
" />
<path d="M98444 35327
L98444 34934
" />
<path d="M103956 34934
L103562 34934
" />
<path d="M98444 40052
L98444 40445
" />
<path d="M103562 40445
L103956 40445
" />
<path d="M103956 40445
L103956 40052
" />
<path d="M98444 34934
L98838 34934
" />
<path d="M103956 34934
L103956 35327
" />
<path d="M98444 40445
L98838 40445
" />
<path d="M105944 38570
L106338 38570
" />
<path d="M111456 33059
L111456 33452
" />
<path d="M105944 33059
L106338 33059
" />
<path d="M111456 38570
L111456 38177
" />
<path d="M111062 38570
L111456 38570
" />
<path d="M105944 38177
L105944 38570
" />
<path d="M111456 33059
L111062 33059
" />
<path d="M105944 33452
L105944 33059
" />
<path d="M104950 39564
L104950 32064
" />
<path d="M112450 39564
L104950 39564
" />
<path d="M112450 32064
L112450 39564
" />
<path d="M104950 32064
L112450 32064
" />
<path d="M60472 46116
L67213 42828
" />
<path d="M67213 42828
L70500 49569
" />
<path d="M70500 49569
L63759 52857
" />
<path d="M63759 52857
L60472 46116
" />
<path d="M61973 46927
L61801 46574
" />
<path d="M66755 44157
L66401 44330
" />
<path d="M64045 51174
L64217 51528
" />
<path d="M68817 49284
L69171 49111
" />
<path d="M69171 49111
L68999 48757
" />
<path d="M61801 46574
L62155 46401
" />
<path d="M66755 44157
L66927 44511
" />
<path d="M64217 51528
L64571 51355
" />
<path d="M71139 48316
L71513 48195
" />
<path d="M74677 41371
L74799 41746
" />
<path d="M69435 43074
L69810 42953
" />
<path d="M76381 46613
L76259 46239
" />
<path d="M76006 46735
L76381 46613
" />
<path d="M71017 47942
L71139 48316
" />
<path d="M74677 41371
L74303 41493
" />
<path d="M69557 43449
L69435 43074
" />
<path d="M70500 49569
L68183 42436
" />
<path d="M77633 47251
L70500 49569
" />
<path d="M75316 40118
L77633 47251
" />
<path d="M68183 42436
L75316 40118
" />
<path d="M76331 39865
L83717 38563
" />
<path d="M83717 38563
L85019 45949
" />
<path d="M85019 45949
L77633 47251
" />
<path d="M77633 47251
L76331 39865
" />
<path d="M77551 41059
L77483 40672
" />
<path d="M82911 39715
L82523 39783
" />
<path d="M78371 45712
L78440 46100
" />
<path d="M83480 45211
L83868 45143
" />
<path d="M83868 45143
L83799 44755
" />
<path d="M77483 40672
L77870 40603
" />
<path d="M82911 39715
L82979 40102
" />
<path d="M78440 46100
L78827 46031
" />
<path d="M73456 55449
L73831 55328
" />
<path d="M76995 48504
L77117 48878
" />
<path d="M71753 50207
L72127 50086
" />
<path d="M78698 53746
L78577 53372
" />
<path d="M78324 53868
L78698 53746
" />
<path d="M73335 55075
L73456 55449
" />
<path d="M76995 48504
L76621 48626
" />
<path d="M71875 50582
L71753 50207
" />
<path d="M72818 56702
L70500 49569
" />
<path d="M79951 54384
L72818 56702
" />
<path d="M77633 47251
L79951 54384
" />
<path d="M70500 49569
L77633 47251
" />
</g>
<g style="fill:#C2C2C2; fill-opacity:0.0; 
stroke:#C2C2C2; stroke-width:47.2441; stroke-opacity:1; 
stroke-linecap:round; stroke-linejoin:round;">
<path d="M44921 75180
L45137 75180
" />
<path d="M44921 75810
L44921 75180
" />
<path d="M45137 75810
L44921 75810
" />
<path d="M46889 75180
L46673 75180
" />
<path d="M46889 75810
L46889 75180
" />
<path d="M46673 75810
L46889 75810
" />
<path d="M45137 74924
L45137 76065
" />
<path d="M46673 74924
L45137 74924
" />
<path d="M46673 76065
L46673 74924
" />
<path d="M45137 76065
L46673 76065
" />
<g >
</g>
<g >
</g>
<g >
</g>
<g >
</g>
<g >
</g>
<g >
</g>
<g >
</g>
<g >
</g>
<g >
</g>
<g >
</g>
<g >
</g>
<g >
</g>
<g >
</g>
<g >
</g>
<g >
</g>
<g >
</g>
<g >
</g>
<g >
</g>
<g >
</g>
<g >
</g>
<g >
</g>
<g >
</g>
<g >
</g>
<g >
</g>
<g >
</g>
<g >
</g>
<g >
</g>
<g >
</g>
<g >
</g>
<g >
</g>
<g >
</g>
<g >
</g>
<g >
</g>
<g >
</g>
<g >
</g>
<g >
</g>
<g >
</g>
<g >
</g>
<g >
</g>
<g >
</g>
<g >
</g>
<g >
</g>
<g >
</g>
<g >
</g>
<g >
</g>
<g >
</g>
<g >
</g>
<g >
</g>
<g >
</g>
<g >
</g>
<g >
</g>
<g >
</g>
<g >
</g>
<g >
</g>
<g >
</g>
<g >
</g>
<g >
</g>
<g >
</g>
<g >
</g>
<g >
</g>
<g >
</g>
<g >
</g>
<g >
</g>
<g >
</g>
<g >
</g>
<g >
</g>
<g >
</g>
<g >
</g>
<g >
</g>
<g >
</g>
<g >
</g>
<g >
</g>
<g >
</g>
<g >
</g>
<g >
</g>
<g >
</g>
<g >
</g>
<g >
</g>
<g >
</g>
<g >
</g>
<g >
</g>
<g >
</g>
<g >
</g>
<g >
</g>
<g >
</g>
<g >
</g>
<g >
</g>
<g >
</g>
<g >
</g>
<g >
</g>
<g >
</g>
<g >
</g>
<g >
</g>
<g >
</g>
<g >
</g>
<g >
</g>
<g >
</g>
<g >
</g>
<g >
</g>
<g >
</g>
<g >
</g>
<g >
</g>
<g >
</g>
<g >
</g>
<g >
</g>
<g >
</g>
<g >
</g>
<g >
</g>
<g >
</g>
<g >
</g>
<g >
</g>
<g >
</g>
<g >
</g>
<g >
</g>
<g >
</g>
<g >
</g>
<g >
</g>
<g >
</g>
<g >
</g>
<g >
</g>
<g >
</g>
<g >
</g>
<g >
</g>
<g >
</g>
<g >
</g>
<g >
</g>
<g >
</g>
<g >
</g>
<g >
</g>
<g >
</g>
<g >
</g>
<g >
</g>
<g >
</g>
<g >
</g>
<g >
</g>
<g >
</g>
<g >
</g>
<g >
</g>
<g >
</g>
<g >
</g>
<g >
</g>
<g >
</g>
<g >
</g>
<g >
</g>
</g>
<g style="fill:#C2C2C2; fill-opacity:0.0; 
stroke:#C2C2C2; stroke-width:47.2441; stroke-opacity:1; 
stroke-linecap:round; stroke-linejoin:round;">
</g>
<g style="fill:#C2C2C2; fill-opacity:0.0; 
stroke:#C2C2C2; stroke-width:59.0551; stroke-opacity:1; 
stroke-linecap:round; stroke-linejoin:round;">
<g transform="rotate(10 49274.3 36225.2)">
<text x="49274.3" y="36422.1"
textLength="864.173" font-size="524.934" lengthAdjust="spacingAndGlyphs"
text-anchor="middle" opacity="0">1U</text>
</g>
<path d="M49151 36384
L48929 36345
" />
<path d="M49040 36364
L49108 35977
L49061 36025
L49018 36056
L48978 36068
" />
<path d="M49385 36025
L49330 36339
L49342 36379
L49357 36401
L49391 36426
L49464 36439
L49505 36427
L49526 36412
L49551 36378
L49607 36064
" />
<g transform="rotate(-10 63206 36225.2)">
<text x="63206" y="36422.1"
textLength="864.173" font-size="524.934" lengthAdjust="spacingAndGlyphs"
text-anchor="middle" opacity="0">1U</text>
</g>
<path d="M63144 36416
L62923 36455
" />
<path d="M63033 36436
L62965 36048
L62938 36110
L62907 36154
L62874 36179
" />
<path d="M63242 35999
L63297 36313
L63322 36347
L63344 36362
L63384 36374
L63458 36361
L63492 36336
L63507 36314
L63519 36274
L63464 35960
" />
<g >
</g>
</g>
<g style="fill:#000000; fill-opacity:0.0; 
stroke:#000000; stroke-width:59.0551; stroke-opacity:1; 
stroke-linecap:round; stroke-linejoin:round;">
<g >
</g>
<g >
</g>
<g >
</g>
<g >
</g>
<g >
</g>
<g >
</g>
<g >
</g>
<g >
</g>
<g >
</g>
<g >
</g>
<g >
</g>
<g >
</g>
<g >
</g>
<g >
</g>
<g >
</g>
<g >
</g>
<g >
</g>
<g >
</g>
<g >
</g>
<g >
</g>
<g >
</g>
<g >
</g>
<g >
</g>
<g >
</g>
<g >
</g>
<g >
</g>
<g >
</g>
<g >
</g>
<g >
</g>
<g >
</g>
<g >
</g>
<g >
</g>
<g >
</g>
<g >
</g>
<g >
</g>
<g >
</g>
<g >
</g>
<g >
</g>
<g >
</g>
<g >
</g>
<g >
</g>
<g >
</g>
<g >
</g>
<g >
</g>
<g >
</g>
<g >
</g>
<g >
</g>
<g >
</g>
<g >
</g>
<g >
</g>
<g >
</g>
<g >
</g>
<g >
</g>
<g >
</g>
<g >
</g>
<g >
</g>
<g >
</g>
<g >
</g>
<g >
</g>
<g >
</g>
<g >
</g>
<g >
</g>
<g >
</g>
<g >
</g>
<g >
</g>
<g >
</g>
<g >
</g>
<g >
</g>
<g >
</g>
<g >
</g>
<g >
</g>
<g >
</g>
<g >
</g>
<g >
</g>
<g >
</g>
<g >
</g>
<g >
</g>
<g >
</g>
<g >
</g>
<g >
</g>
<g >
</g>
<g >
</g>
<g >
</g>
<g >
</g>
<g >
</g>
<g >
</g>
<g >
</g>
<g >
</g>
<g >
</g>
<g >
</g>
<g >
</g>
<g >
</g>
<g >
</g>
<g >
</g>
<g >
</g>
<g >
</g>
<g >
</g>
<g >
</g>
<g >
</g>
<g >
</g>
<g >
</g>
<g >
</g>
<g >
</g>
<g >
</g>
<g >
</g>
<g >
</g>
<g >
</g>
<g >
</g>
<g >
</g>
<g >
</g>
<g >
</g>
<g >
</g>
<g >
</g>
<g >
</g>
<g >
</g>
<g >
</g>
<g >
</g>
<g >
</g>
<g >
</g>
<g >
</g>
<g >
</g>
<g >
</g>
<g >
</g>
<g >
</g>
<g >
</g>
<g >
</g>
<g >
</g>
<g >
</g>
<g >
</g>
<g >
</g>
<g >
</g>
<g >
</g>
<g >
</g>
<g >
</g>
<g >
</g>
<g >
</g>
<g >
</g>
<g >
</g>
<g >
</g>
<g >
</g>
<g >
</g>
<g >
</g>
<g >
</g>
<g >
</g>
<g >
</g>
</g> 
</svg>
