  0
SECTION
  2
HEADER
  9
$ACADVER
  1
AC1014
  9
$HANDSEED
  5
FFFF
  9
$MEASUREMENT
 70
     1
  0
ENDSEC
  0
SECTION
  2
TABLES
  0
TABLE
  2
VPORT
  5
8
330
0
100
AcDbSymbolTable
 70
     4
  0
VPORT
  5
2E
330
8
100
AcDbSymbolTableRecord
100
AcDbViewportTableRecord
  2
*ACTIVE
 70
     0
 10
0.0
 20
0.0
 11
1.0
 21
1.0
 12
210.0
 22
148.5
 13
0.0
 23
0.0
 14
10.0
 24
10.0
 15
10.0
 25
10.0
 16
0.0
 26
0.0
 36
1.0
 17
0.0
 27
0.0
 37
0.0
 40
341.0
 41
1.24
 42
50.0
 43
0.0
 44
0.0
 50
0.0
 51
0.0
 71
     0
 72
   100
 73
     1
 74
     3
 75
     0
 76
     0
 77
     0
 78
     0
  0
ENDTAB
  0
TABLE
  2
LTYPE
  5
5
330
0
100
AcDbSymbolTable
 70
     1
  0
LTYPE
  5
14
330
5
100
AcDbSymbolTableRecord
100
AcDbLinetypeTableRecord
  2
BYBLOCK
 70
     0
  3

 72
    65
 73
     0
 40
0.0
  0
LTYPE
  5
15
330
5
100
AcDbSymbolTableRecord
100
AcDbLinetypeTableRecord
  2
BYLAYER
 70
     0
  3

 72
    65
 73
     0
 40
0.0
  0
LTYPE
  5
16
330
5
100
AcDbSymbolTableRecord
100
AcDbLinetypeTableRecord
  2
CONTINUOUS
 70
     0
  3
Solid line
 72
    65
 73
     0
 40
0.0
  0
ENDTAB
  0
TABLE
  2
LAYER
  5
2
100
AcDbSymbolTable
 70
3
  0
LAYER
  5
50
100
AcDbSymbolTableRecord
100
AcDbLayerTableRecord
  2
0
 70
0
  6
CONTINUOUS
  0
LAYER
  5
51
100
AcDbSymbolTableRecord
100
AcDbLayerTableRecord
  2
base
 70
0
  6
CONTINUOUS
  0
LAYER
  5
52
100
AcDbSymbolTableRecord
100
AcDbLayerTableRecord
  2
edge
 70
0
  6
CONTINUOUS
  0
ENDTAB
  0
TABLE
  2
STYLE
  5
3
330
0
100
AcDbSymbolTable
 70
     1
  0
STYLE
  5
11
330
3
100
AcDbSymbolTableRecord
100
AcDbTextStyleTableRecord
  2
STANDARD
 70
     0
 40
0.0
 41
1.0
 50
0.0
 71
     0
 42
2.5
  3
txt
  4

  0
ENDTAB
  0
TABLE
  2
VIEW
  5
6
330
0
100
AcDbSymbolTable
 70
     0
  0
ENDTAB
  0
TABLE
  2
UCS
  5
7
330
0
100
AcDbSymbolTable
 70
     0
  0
ENDTAB
  0
TABLE
  2
APPID
  5
9
330
0
100
AcDbSymbolTable
 70
     2
  0
APPID
  5
12
330
9
100
AcDbSymbolTableRecord
100
AcDbRegAppTableRecord
  2
ACAD
 70
     0
  0
ENDTAB
  0
TABLE
  2
DIMSTYLE
  5
A
330
0
100
AcDbSymbolTable
 70
     1
  0
DIMSTYLE
105
27
330
A
100
AcDbSymbolTableRecord
100
AcDbDimStyleTableRecord
  2
ISO-25
 70
     0
  3

  4

  5

  6

  7

 40
1.0
 41
2.5
 42
0.625
 43
3.75
 44
1.25
 45
0.0
 46
0.0
 47
0.0
 48
0.0
140
2.5
141
2.5
142
0.0
143
0.03937007874016
144
1.0
145
0.0
146
1.0
147
0.625
 71
     0
 72
     0
 73
     0
 74
     0
 75
     0
 76
     0
 77
     1
 78
     8
170
     0
171
     3
172
     1
173
     0
174
     0
175
     0
176
     0
177
     0
178
     0
270
     2
271
     2
272
     2
273
     2
274
     3
340
11
275
     0
280
     0
281
     0
282
     0
283
     0
284
     8
285
     0
286
     0
287
     3
288
     0
  0
ENDTAB
  0
TABLE
  2
BLOCK_RECORD
  5
1
330
0
100
AcDbSymbolTable
 70
     1
  0
BLOCK_RECORD
  5
1F
330
1
100
AcDbSymbolTableRecord
100
AcDbBlockTableRecord
  2
*MODEL_SPACE
  0
BLOCK_RECORD
  5
1B
330
1
100
AcDbSymbolTableRecord
100
AcDbBlockTableRecord
  2
*PAPER_SPACE
  0
ENDTAB
  0
ENDSEC
  0
SECTION
  2
BLOCKS
  0
BLOCK
  5
20
330
1F
100
AcDbEntity
  8
0
100
AcDbBlockBegin
  2
*MODEL_SPACE
 70
     0
 10
0.0
 20
0.0
 30
0.0
  3
*MODEL_SPACE
  1

  0
ENDBLK
  5
21
330
1F
100
AcDbEntity
  8
0
100
AcDbBlockEnd
  0
BLOCK
  5
1C
330
1B
100
AcDbEntity
 67
     1
  8
0
100
AcDbBlockBegin
  2
*PAPER_SPACE
  1

  0
ENDBLK
  5
1D
330
1B
100
AcDbEntity
 67
     1
  8
0
100
AcDbBlockEnd
  0
ENDSEC
  0
SECTION
  2
ENTITIES
  0
SPLINE
  5
100
100
AcDbEntity
  8
edge
 62
7
100
AcDbSpline
 70
8
 71
3
 72
8
 73
4
 74
0
 40
0
 40
0
 40
0
 40
0
 40
1
 40
1
 40
1
 40
1
 10
76.376907
 20
-4.534902
 30
0.0
 10
74.993753
 20
-4.534902
 30
0.0
 10
72.749456
 20
-4.543403
 30
0.0
 10
71.372332
 20
-4.668055
 30
0.0
  0
SPLINE
  5
101
100
AcDbEntity
  8
edge
 62
7
100
AcDbSpline
 70
8
 71
3
 72
8
 73
4
 74
0
 40
0
 40
0
 40
0
 40
0
 40
1
 40
1
 40
1
 40
1
 10
71.372332
 20
-4.668055
 30
0.0
 10
56.347814
 20
-6.028017
 30
0.0
 10
19.845634
 20
-17.434175
 30
0.0
 10
7.429740
 20
-23.117102
 30
0.0
  0
SPLINE
  5
102
100
AcDbEntity
  8
edge
 62
7
100
AcDbSpline
 70
8
 71
3
 72
8
 73
4
 74
0
 40
0
 40
0
 40
0
 40
0
 40
1
 40
1
 40
1
 40
1
 10
7.429740
 20
-23.117102
 30
0.0
 10
6.581933
 20
-23.505156
 30
0.0
 10
5.907191
 20
-24.602418
 30
0.0
 10
5.907191
 20
-25.534871
 30
0.0
  0
LWPOLYLINE
  5
103
100
AcDbEntity
  8
edge
 62
7
100
AcDbPolyline
 90
2
 70
0
 10
148.683072
 20
-4.534902
 30
0.0
 10
76.376907
 20
-4.534902
 30
0.0
  0
SPLINE
  5
104
100
AcDbEntity
  8
edge
 62
7
100
AcDbSpline
 70
8
 71
3
 72
8
 73
4
 74
0
 40
0
 40
0
 40
0
 40
0
 40
1
 40
1
 40
1
 40
1
 10
5.907191
 20
-75.603971
 30
0.0
 10
5.907191
 20
-76.536424
 30
0.0
 10
6.657004
 20
-77.388086
 30
0.0
 10
7.581961
 20
-77.506094
 30
0.0
  0
SPLINE
  5
105
100
AcDbEntity
  8
edge
 62
7
100
AcDbSpline
 70
8
 71
3
 72
8
 73
4
 74
0
 40
0
 40
0
 40
0
 40
0
 40
1
 40
1
 40
1
 40
1
 10
7.581961
 20
-77.506094
 30
0.0
 10
30.936367
 20
-80.485696
 30
0.0
 10
69.255862
 20
-85.345992
 30
0.0
 10
75.581905
 20
-89.276889
 30
0.0
  0
SPLINE
  5
106
100
AcDbEntity
  8
edge
 62
7
100
AcDbSpline
 70
8
 71
3
 72
8
 73
4
 74
0
 40
0
 40
0
 40
0
 40
0
 40
1
 40
1
 40
1
 40
1
 10
75.581905
 20
-89.276889
 30
0.0
 10
81.689942
 20
-93.072320
 30
0.0
 10
87.332189
 20
-99.472503
 30
0.0
 10
88.325814
 20
-108.939430
 30
0.0
  0
SPLINE
  5
107
100
AcDbEntity
  8
edge
 62
7
100
AcDbSpline
 70
8
 71
3
 72
8
 73
4
 74
0
 40
0
 40
0
 40
0
 40
0
 40
1
 40
1
 40
1
 40
1
 10
88.325814
 20
-108.939430
 30
0.0
 10
88.427683
 20
-109.910014
 30
0.0
 10
89.207148
 20
-110.946329
 30
0.0
 10
90.135436
 20
-111.247992
 30
0.0
  0
LWPOLYLINE
  5
108
100
AcDbEntity
  8
edge
 62
7
100
AcDbPolyline
 90
2
 70
0
 10
5.907191
 20
-25.534871
 30
0.0
 10
5.907191
 20
-75.603971
 30
0.0
  0
SPLINE
  5
109
100
AcDbEntity
  8
edge
 62
7
100
AcDbSpline
 70
8
 71
3
 72
8
 73
4
 74
0
 40
0
 40
0
 40
0
 40
0
 40
1
 40
1
 40
1
 40
1
 10
104.050513
 20
-115.769954
 30
0.0
 10
105.721376
 20
-116.312932
 30
0.0
 10
107.467299
 20
-116.589498
 30
0.0
 10
109.224173
 20
-116.589498
 30
0.0
  0
LWPOLYLINE
  5
10a
100
AcDbEntity
  8
edge
 62
7
100
AcDbPolyline
 90
2
 70
0
 10
90.135436
 20
-111.247992
 30
0.0
 10
104.050513
 20
-115.769954
 30
0.0
  0
LWPOLYLINE
  5
10b
100
AcDbEntity
  8
edge
 62
7
100
AcDbPolyline
 90
2
 70
0
 10
109.224173
 20
-116.589498
 30
0.0
 10
148.683072
 20
-116.589498
 30
0.0
  0
SPLINE
  5
10c
100
AcDbEntity
  8
edge
 62
7
100
AcDbSpline
 70
8
 71
3
 72
8
 73
4
 74
0
 40
0
 40
0
 40
0
 40
0
 40
1
 40
1
 40
1
 40
1
 10
220.985848
 20
-4.534902
 30
0.0
 10
222.369002
 20
-4.534902
 30
0.0
 10
224.613300
 20
-4.543403
 30
0.0
 10
225.990424
 20
-4.668055
 30
0.0
  0
SPLINE
  5
10d
100
AcDbEntity
  8
edge
 62
7
100
AcDbSpline
 70
8
 71
3
 72
8
 73
4
 74
0
 40
0
 40
0
 40
0
 40
0
 40
1
 40
1
 40
1
 40
1
 10
225.990424
 20
-4.668055
 30
0.0
 10
241.014941
 20
-6.028017
 30
0.0
 10
277.517121
 20
-17.434175
 30
0.0
 10
289.933015
 20
-23.117102
 30
0.0
  0
SPLINE
  5
10e
100
AcDbEntity
  8
edge
 62
7
100
AcDbSpline
 70
8
 71
3
 72
8
 73
4
 74
0
 40
0
 40
0
 40
0
 40
0
 40
1
 40
1
 40
1
 40
1
 10
289.933015
 20
-23.117102
 30
0.0
 10
290.780823
 20
-23.505156
 30
0.0
 10
291.455565
 20
-24.602418
 30
0.0
 10
291.455565
 20
-25.534871
 30
0.0
  0
LWPOLYLINE
  5
10f
100
AcDbEntity
  8
edge
 62
7
100
AcDbPolyline
 90
2
 70
0
 10
148.679684
 20
-4.534902
 30
0.0
 10
220.985848
 20
-4.534902
 30
0.0
  0
SPLINE
  5
110
100
AcDbEntity
  8
edge
 62
7
100
AcDbSpline
 70
8
 71
3
 72
8
 73
4
 74
0
 40
0
 40
0
 40
0
 40
0
 40
1
 40
1
 40
1
 40
1
 10
291.455565
 20
-75.603971
 30
0.0
 10
291.455565
 20
-76.536424
 30
0.0
 10
290.705751
 20
-77.388086
 30
0.0
 10
289.780794
 20
-77.506094
 30
0.0
  0
SPLINE
  5
111
100
AcDbEntity
  8
edge
 62
7
100
AcDbSpline
 70
8
 71
3
 72
8
 73
4
 74
0
 40
0
 40
0
 40
0
 40
0
 40
1
 40
1
 40
1
 40
1
 10
289.780794
 20
-77.506094
 30
0.0
 10
266.426389
 20
-80.485696
 30
0.0
 10
228.106893
 20
-85.345992
 30
0.0
 10
221.780850
 20
-89.276889
 30
0.0
  0
SPLINE
  5
112
100
AcDbEntity
  8
edge
 62
7
100
AcDbSpline
 70
8
 71
3
 72
8
 73
4
 74
0
 40
0
 40
0
 40
0
 40
0
 40
1
 40
1
 40
1
 40
1
 10
221.780850
 20
-89.276889
 30
0.0
 10
215.672813
 20
-93.072320
 30
0.0
 10
210.030566
 20
-99.472503
 30
0.0
 10
209.036942
 20
-108.939430
 30
0.0
  0
SPLINE
  5
113
100
AcDbEntity
  8
edge
 62
7
100
AcDbSpline
 70
8
 71
3
 72
8
 73
4
 74
0
 40
0
 40
0
 40
0
 40
0
 40
1
 40
1
 40
1
 40
1
 10
209.036942
 20
-108.939430
 30
0.0
 10
208.935072
 20
-109.910014
 30
0.0
 10
208.155608
 20
-110.946329
 30
0.0
 10
207.227319
 20
-111.247992
 30
0.0
  0
LWPOLYLINE
  5
114
100
AcDbEntity
  8
edge
 62
7
100
AcDbPolyline
 90
2
 70
0
 10
291.455565
 20
-25.534871
 30
0.0
 10
291.455565
 20
-75.603971
 30
0.0
  0
SPLINE
  5
115
100
AcDbEntity
  8
edge
 62
7
100
AcDbSpline
 70
8
 71
3
 72
8
 73
4
 74
0
 40
0
 40
0
 40
0
 40
0
 40
1
 40
1
 40
1
 40
1
 10
193.312243
 20
-115.769954
 30
0.0
 10
191.641380
 20
-116.312932
 30
0.0
 10
189.895457
 20
-116.589498
 30
0.0
 10
188.138582
 20
-116.589498
 30
0.0
  0
LWPOLYLINE
  5
116
100
AcDbEntity
  8
edge
 62
7
100
AcDbPolyline
 90
2
 70
0
 10
207.227319
 20
-111.247992
 30
0.0
 10
193.312243
 20
-115.769954
 30
0.0
  0
LWPOLYLINE
  5
117
100
AcDbEntity
  8
edge
 62
7
100
AcDbPolyline
 90
2
 70
0
 10
188.138582
 20
-116.589498
 30
0.0
 10
148.679684
 20
-116.589498
 30
0.0
  0
LWPOLYLINE
  5
118
100
AcDbEntity
  8
edge
 62
7
100
AcDbPolyline
 90
3
 70
0
 10
10.754280
 20
-73.058996
 30
0.0
 10
5.907191
 20
-73.058996
 30
0.0
 10
5.907191
 20
-68.531338
 30
0.0
  0
ENDSEC
  0
SECTION
  2
OBJECTS
  0
DICTIONARY
  5
C
330
0
100
AcDbDictionary
  3
ACAD_GROUP
350
D
  3
ACAD_MLINESTYLE
350
17
  0
DICTIONARY
  5
D
330
C
100
AcDbDictionary
  0
DICTIONARY
  5
1A
330
C
100
AcDbDictionary
  0
DICTIONARY
  5
17
330
C
100
AcDbDictionary
  3
STANDARD
350
18
  0
DICTIONARY
  5
19
330
C
100
AcDbDictionary
  0
ENDSEC
  0
EOF
