<?xml version="1.0" standalone="no"?>
 <!DOCTYPE svg PUBLIC "-//W3C//DTD SVG 1.1//EN" 
 "http://www.w3.org/Graphics/SVG/1.1/DTD/svg11.dtd"> 
<svg
  xmlns:svg="http://www.w3.org/2000/svg"
  xmlns="http://www.w3.org/2000/svg"
  xmlns:xlink="http://www.w3.org/1999/xlink"
  version="1.1"
  width="0.025400cm" height="0.025400cm" viewBox="0 0 100 100">
<title>SVG Picture created as yacc46-brd.svg date 2020/10/25 13:55:38 </title>
  <desc>Picture generated by PCBNEW </desc>
<g style="fill:#000000; fill-opacity:1;stroke:#000000; stroke-opacity:1;
stroke-linecap:round; stroke-linejoin:round;"
 transform="translate(0 0) scale(1 1)">
</g>
<g style="fill:#000000; fill-opacity:0.0; 
stroke:#000000; stroke-width:-0.000393701; stroke-opacity:1; 
stroke-linecap:round; stroke-linejoin:round;">
</g>
<g style="fill:#848484; fill-opacity:0.0; 
stroke:#848484; stroke-width:-0.000393701; stroke-opacity:1; 
stroke-linecap:round; stroke-linejoin:round;">
</g>
<g style="fill:#848484; fill-opacity:0.0; 
stroke:#848484; stroke-width:47.2441; stroke-opacity:1; 
stroke-linecap:round; stroke-linejoin:round;">
<path d="M70311 13401
L70311 24401
" />
<path d="M59610 13401
L70311 13401
" />
<path d="M59610 24401
L59610 13401
" />
<path d="M70311 24401
L59610 24401
" />
<circle cx="58239.5" cy="36917.9" r="1181.1" /> 
<path d="M55648 38459
L56400 34195
" />
<path d="M56400 34195
L60898 34988
" />
<path d="M60898 34988
L60078 39640
" />
<path d="M60078 39640
L56007 38922
" />
<path d="M56007 38922
L55648 38459
" />
<path d="M57076 36712
L59402 37122
" />
<path d="M58034 38081
L58444 35754
" />
<path d="M71886 38081
L71476 35754
" />
<path d="M70518 37122
L72844 36712
" />
<path d="M70269 39565
L69774 39253
" />
<path d="M74340 38847
L70269 39565
" />
<path d="M73520 34195
L74340 38847
" />
<path d="M69022 34988
L73520 34195
" />
<path d="M69774 39253
L69022 34988
" />
<circle cx="71681.8" cy="36917.9" r="1181.1" /> 
</g>
<g style="fill:#848484; fill-opacity:0.0; 
stroke:#848484; stroke-width:59.0551; stroke-opacity:1; 
stroke-linecap:round; stroke-linejoin:round;">
<path d="M66440 10232
L68464 10232
" />
<path d="M63484 10232
L66437 10232
" />
<path d="M63484 9720
L63484 10232
" />
<path d="M66437 9720
L66437 10232
" />
<path d="M63484 9720
L66437 9720
" />
<path d="M61456 10232
L63484 10232
" />
<path d="M68464 10232
L68464 23244
" />
<path d="M68464 23244
L61456 23244
" />
<path d="M61456 23244
L61456 10232
" />
<g >
</g>
<g >
</g>
<g >
</g>
<g >
</g>
<g >
</g>
<g >
</g>
<g >
</g>
<g >
</g>
<g >
</g>
<g >
</g>
<g >
</g>
<g >
</g>
<g >
</g>
<g >
</g>
<g >
</g>
<g >
</g>
<g >
</g>
<g >
</g>
<g >
</g>
<g >
</g>
<g >
</g>
<g >
</g>
<g >
</g>
<g >
</g>
<g >
</g>
<g >
</g>
<g >
</g>
<g >
</g>
<g >
</g>
<g >
</g>
<g >
</g>
<g >
</g>
<g >
</g>
<g >
</g>
<g >
</g>
<g >
</g>
<g >
</g>
<g >
</g>
<g >
</g>
<g >
</g>
<g >
</g>
<g >
</g>
<g >
</g>
<g >
</g>
<g >
</g>
<g >
</g>
<g >
</g>
<g >
</g>
<g >
</g>
<g >
</g>
<g >
</g>
<g >
</g>
<g >
</g>
<g >
</g>
<g >
</g>
<g >
</g>
<g >
</g>
<g >
</g>
<g >
</g>
<g >
</g>
<g >
</g>
<g >
</g>
<g >
</g>
<g >
</g>
<g >
</g>
<g >
</g>
<g >
</g>
<g >
</g>
<g >
</g>
<g >
</g>
<g >
</g>
<g >
</g>
<g >
</g>
<g >
</g>
<g >
</g>
<g >
</g>
<g >
</g>
<g >
</g>
<g >
</g>
<g >
</g>
<g >
</g>
<g >
</g>
<g >
</g>
<g >
</g>
<g >
</g>
<g >
</g>
<g >
</g>
<g >
</g>
<g >
</g>
<g >
</g>
<g >
</g>
<g >
</g>
<g >
</g>
<g >
</g>
<g >
</g>
<g >
</g>
<g >
</g>
<g >
</g>
<g >
</g>
<g >
</g>
<g >
</g>
<g >
</g>
<g >
</g>
<g >
</g>
<g >
</g>
<g >
</g>
<g >
</g>
<g >
</g>
<g >
</g>
<g >
</g>
</g>
<g style="fill:#848484; fill-opacity:0.0; 
stroke:#848484; stroke-width:59.0551; stroke-opacity:1; 
stroke-linecap:round; stroke-linejoin:round;">
<text x="64960.6" y="22590.6"
textLength="751.687" font-size="524.934" lengthAdjust="spacingAndGlyphs"
text-anchor="middle" opacity="0">J1</text>
<path d="M64829 22178
L64829 22459
L64810 22515
L64773 22553
L64716 22571
L64679 22571
" />
<path d="M65223 22571
L64998 22571
" />
<path d="M65110 22571
L65110 22178
L65073 22234
L65035 22271
L64998 22290
" />
<text x="64960.6" y="21954.7"
textLength="2813.93" font-size="524.934" lengthAdjust="spacingAndGlyphs"
text-anchor="middle" opacity="0">OLED_I2C</text>
<path d="M63760 21542
L63835 21542
L63873 21561
L63910 21598
L63929 21673
L63929 21804
L63910 21879
L63873 21917
L63835 21935
L63760 21935
L63723 21917
L63685 21879
L63667 21804
L63667 21673
L63685 21598
L63723 21561
L63760 21542
" />
<path d="M64285 21935
L64098 21935
L64098 21542
" />
<path d="M64416 21729
L64548 21729
" />
<path d="M64604 21935
L64416 21935
L64416 21542
L64604 21542
" />
<path d="M64773 21935
L64773 21542
L64866 21542
L64923 21561
L64960 21598
L64979 21636
L64998 21711
L64998 21767
L64979 21842
L64960 21879
L64923 21917
L64866 21935
L64773 21935
" />
<path d="M65073 21973
L65373 21973
" />
<path d="M65466 21935
L65466 21542
" />
<path d="M65635 21579
L65654 21561
L65691 21542
L65785 21542
L65823 21561
L65841 21579
L65860 21617
L65860 21654
L65841 21711
L65616 21935
L65860 21935
" />
<path d="M66254 21898
L66235 21917
L66179 21935
L66141 21935
L66085 21917
L66047 21879
L66029 21842
L66010 21767
L66010 21711
L66029 21636
L66047 21598
L66085 21561
L66141 21542
L66179 21542
L66235 21561
L66254 21579
" />
<text x="36665.4" y="86023.6"
textLength="3151.39" font-size="524.934" lengthAdjust="spacingAndGlyphs"
text-anchor="middle" opacity="0">GLOVE_I2C</text>
<path d="M35428 85629
L35390 85611
L35334 85611
L35278 85629
L35240 85667
L35221 85704
L35203 85779
L35203 85836
L35221 85911
L35240 85948
L35278 85986
L35334 86004
L35371 86004
L35428 85986
L35446 85967
L35446 85836
L35371 85836
" />
<path d="M35802 86004
L35615 86004
L35615 85611
" />
<path d="M36009 85611
L36084 85611
L36121 85629
L36159 85667
L36177 85742
L36177 85873
L36159 85948
L36121 85986
L36084 86004
L36009 86004
L35971 85986
L35934 85948
L35915 85873
L35915 85742
L35934 85667
L35971 85629
L36009 85611
" />
<path d="M36290 85611
L36421 86004
L36552 85611
" />
<path d="M36684 85798
L36815 85798
" />
<path d="M36871 86004
L36684 86004
L36684 85611
L36871 85611
" />
<path d="M36946 86042
L37246 86042
" />
<path d="M37340 86004
L37340 85611
" />
<path d="M37508 85648
L37527 85629
L37565 85611
L37658 85611
L37696 85629
L37715 85648
L37733 85686
L37733 85723
L37715 85779
L37490 86004
L37733 86004
" />
<path d="M38127 85967
L38108 85986
L38052 86004
L38015 86004
L37958 85986
L37921 85948
L37902 85911
L37883 85836
L37883 85779
L37902 85704
L37921 85667
L37958 85629
L38015 85611
L38052 85611
L38108 85629
L38127 85648
" />
<g transform="rotate(-90 37984.3 83492.1)">
<text x="37984.3" y="83689"
textLength="751.687" font-size="524.934" lengthAdjust="spacingAndGlyphs"
text-anchor="middle" opacity="0">J2</text>
</g>
<path d="M37768 83623
L38049 83623
L38106 83642
L38143 83679
L38162 83735
L38162 83773
" />
<path d="M37806 83454
L37787 83435
L37768 83398
L37768 83304
L37787 83267
L37806 83248
L37843 83229
L37881 83229
L37937 83248
L38162 83473
L38162 83229
" />
<g transform="rotate(10 57501.5 41103.3)">
<text x="57501.5" y="41300.2"
textLength="6788.43" font-size="524.934" lengthAdjust="spacingAndGlyphs"
text-anchor="middle" opacity="0">Rotary_Encoder_Switch</text>
</g>
<path d="M54479 40751
L54382 40543
" />
<path d="M54258 40712
L54326 40324
L54474 40350
L54507 40375
L54522 40397
L54534 40437
L54525 40492
L54500 40526
L54478 40541
L54438 40553
L54290 40527
" />
<path d="M54701 40790
L54667 40765
L54652 40743
L54640 40703
L54659 40592
L54684 40559
L54706 40543
L54746 40531
L54802 40541
L54835 40566
L54850 40588
L54862 40628
L54843 40739
L54818 40773
L54796 40788
L54756 40800
L54701 40790
" />
<path d="M54986 40574
L55134 40600
" />
<path d="M55064 40454
L55006 40787
L55018 40827
L55051 40852
L55088 40858
" />
<path d="M55384 40910
L55420 40707
L55408 40667
L55374 40642
L55300 40629
L55260 40641
" />
<path d="M55387 40892
L55347 40904
L55255 40888
L55221 40863
L55209 40822
L55215 40785
L55240 40752
L55281 40740
L55373 40756
L55413 40744
" />
<path d="M55568 40943
L55614 40684
" />
<path d="M55601 40758
L55626 40725
L55648 40709
L55688 40697
L55725 40704
" />
<path d="M55817 40720
L55864 40995
" />
<path d="M56002 40753
L55864 40995
L55811 41081
L55789 41096
L55749 41108
" />
<path d="M56005 41058
L56300 41110
" />
<path d="M56435 40886
L56564 40909
" />
<path d="M56584 41122
L56399 41089
L56468 40702
L56652 40734
" />
<path d="M56796 40893
L56750 41151
" />
<path d="M56789 40930
L56811 40914
L56851 40903
L56906 40912
L56940 40937
L56952 40977
L56916 41181
" />
<path d="M57270 41224
L57230 41236
L57156 41223
L57123 41198
L57107 41176
L57095 41136
L57115 41025
L57140 40992
L57162 40976
L57202 40964
L57276 40977
L57309 41002
" />
<path d="M57489 41281
L57455 41257
L57440 41235
L57428 41195
L57447 41084
L57472 41050
L57494 41035
L57534 41023
L57589 41033
L57623 41058
L57638 41079
L57650 41120
L57631 41230
L57606 41264
L57584 41279
L57544 41291
L57489 41281
" />
<path d="M57950 41363
L58018 40975
" />
<path d="M57953 41344
L57913 41356
L57839 41343
L57806 41318
L57790 41297
L57778 41256
L57798 41146
L57823 41112
L57845 41097
L57885 41085
L57959 41098
L57992 41123
" />
<path d="M58286 41403
L58246 41415
L58172 41402
L58138 41377
L58126 41337
L58152 41189
L58177 41155
L58217 41143
L58291 41156
L58325 41181
L58337 41222
L58330 41259
L58139 41263
" />
<path d="M58467 41454
L58513 41196
" />
<path d="M58500 41269
L58525 41236
L58546 41221
L58586 41209
L58623 41215
" />
<path d="M58608 41517
L58904 41569
" />
<path d="M58987 41527
L59039 41555
L59132 41571
L59172 41559
L59194 41544
L59219 41510
L59225 41473
L59213 41433
L59198 41412
L59164 41387
L59094 41355
L59060 41330
L59045 41308
L59033 41268
L59039 41231
L59064 41198
L59086 41182
L59126 41170
L59219 41187
L59271 41215
" />
<path d="M59380 41349
L59409 41620
L59515 41448
L59556 41646
L59676 41401
" />
<path d="M59778 41685
L59824 41427
" />
<path d="M59846 41297
L59825 41313
L59840 41334
L59861 41319
L59846 41297
L59840 41334
" />
<path d="M59953 41449
L60100 41476
" />
<path d="M60031 41330
L59972 41662
L59984 41703
L60018 41727
L60055 41734
" />
<path d="M60354 41768
L60313 41780
L60239 41767
L60206 41742
L60191 41720
L60179 41680
L60198 41569
L60223 41535
L60245 41520
L60285 41508
L60359 41521
L60393 41546
" />
<path d="M60516 41815
L60585 41428
" />
<path d="M60683 41845
L60718 41642
L60706 41601
L60673 41576
L60617 41567
L60577 41579
L60556 41594
" />
<g transform="rotate(-10 72419.8 41103.3)">
<text x="72419.8" y="41300.2"
textLength="6788.43" font-size="524.934" lengthAdjust="spacingAndGlyphs"
text-anchor="middle" opacity="0">Rotary_Encoder_Switch</text>
</g>
<path d="M69459 41806
L69297 41644
" />
<path d="M69238 41845
L69169 41457
L69317 41431
L69357 41443
L69379 41458
L69404 41492
L69414 41547
L69402 41587
L69386 41609
L69353 41634
L69205 41660
" />
<path d="M69681 41767
L69641 41755
L69619 41739
L69594 41706
L69574 41595
L69586 41555
L69602 41533
L69635 41508
L69691 41498
L69731 41510
L69752 41525
L69777 41559
L69797 41670
L69785 41710
L69770 41732
L69736 41757
L69681 41767
" />
<path d="M69875 41466
L70023 41440
" />
<path d="M69908 41327
L69966 41659
L69991 41693
L70032 41705
L70068 41698
" />
<path d="M70364 41646
L70328 41443
L70303 41409
L70263 41397
L70189 41410
L70155 41435
" />
<path d="M70361 41628
L70327 41653
L70235 41669
L70194 41657
L70169 41623
L70163 41586
L70175 41546
L70209 41521
L70301 41505
L70335 41480
" />
<path d="M70549 41614
L70503 41355
" />
<path d="M70516 41429
L70528 41389
L70543 41367
L70577 41342
L70614 41336
" />
<path d="M70706 41319
L70844 41561
" />
<path d="M70891 41287
L70844 41561
L70823 41660
L70808 41682
L70774 41707
" />
<path d="M70998 41572
L71294 41520
" />
<path d="M71344 41264
L71473 41241
" />
<path d="M71564 41434
L71379 41467
L71311 41079
L71496 41047
" />
<path d="M71685 41147
L71730 41405
" />
<path d="M71691 41184
L71706 41162
L71740 41137
L71795 41127
L71836 41139
L71860 41173
L71896 41376
" />
<path d="M72244 41296
L72210 41321
L72136 41334
L72096 41322
L72074 41306
L72049 41273
L72030 41162
L72042 41122
L72057 41100
L72091 41075
L72165 41062
L72205 41074
" />
<path d="M72469 41275
L72428 41263
L72407 41248
L72382 41214
L72362 41103
L72374 41063
L72389 41041
L72423 41016
L72478 41007
L72519 41019
L72540 41034
L72565 41068
L72585 41178
L72573 41219
L72558 41240
L72524 41265
L72469 41275
" />
<path d="M72930 41194
L72862 40806
" />
<path d="M72927 41175
L72893 41200
L72819 41213
L72779 41201
L72758 41186
L72733 41152
L72713 41042
L72725 41001
L72740 40980
L72774 40955
L72848 40942
L72888 40954
" />
<path d="M73259 41117
L73226 41141
L73152 41155
L73112 41143
L73087 41109
L73061 40961
L73073 40921
L73106 40896
L73180 40883
L73220 40895
L73245 40929
L73252 40966
L73074 41035
" />
<path d="M73447 41102
L73402 40844
" />
<path d="M73415 40918
L73427 40878
L73442 40856
L73475 40831
L73512 40824
" />
<path d="M73601 41113
L73897 41061
" />
<path d="M73961 40993
L74020 41002
L74112 40985
L74146 40960
L74161 40939
L74173 40898
L74166 40861
L74141 40828
L74119 40813
L74079 40801
L74002 40795
L73962 40783
L73940 40768
L73915 40734
L73909 40697
L73921 40657
L73936 40636
L73970 40611
L74062 40594
L74121 40603
" />
<path d="M74269 40691
L74389 40936
L74430 40739
L74536 40910
L74565 40639
" />
<path d="M74758 40871
L74712 40613
" />
<path d="M74690 40484
L74674 40505
L74696 40520
L74711 40499
L74690 40484
L74696 40520
" />
<path d="M74842 40590
L74989 40564
" />
<path d="M74874 40451
L74933 40783
L74958 40817
L74998 40829
L75035 40822
" />
<path d="M75327 40752
L75293 40777
L75220 40790
L75179 40778
L75158 40763
L75133 40729
L75113 40618
L75125 40578
L75140 40556
L75174 40531
L75248 40518
L75288 40530
" />
<path d="M75497 40741
L75428 40353
" />
<path d="M75663 40712
L75627 40509
L75602 40475
L75562 40463
L75506 40473
L75473 40498
L75457 40520
" />
<g >
</g>
</g>
<g style="fill:#000000; fill-opacity:0.0; 
stroke:#000000; stroke-width:59.0551; stroke-opacity:1; 
stroke-linecap:round; stroke-linejoin:round;">
</g>
<g style="fill:#C2C2C2; fill-opacity:0.0; 
stroke:#C2C2C2; stroke-width:59.0551; stroke-opacity:1; 
stroke-linecap:round; stroke-linejoin:round;">
</g>
<g style="fill:#C2C2C2; fill-opacity:0.0; 
stroke:#C2C2C2; stroke-width:47.2441; stroke-opacity:1; 
stroke-linecap:round; stroke-linejoin:round;">
<path d="M48196 91307
L46661 91307
" />
<path d="M46661 91307
L46661 92448
" />
<path d="M46661 92448
L48196 92448
" />
<path d="M48196 92448
L48196 91307
" />
<path d="M46661 91562
L46444 91562
" />
<path d="M46444 91562
L46444 92192
" />
<path d="M46444 92192
L46661 92192
" />
<path d="M48196 91562
L48413 91562
" />
<path d="M48413 91562
L48413 92192
" />
<path d="M48413 92192
L48196 92192
" />
</g>
<g style="fill:#C2C2C2; fill-opacity:0.0; 
stroke:#C2C2C2; stroke-width:59.0551; stroke-opacity:1; 
stroke-linecap:round; stroke-linejoin:round;">
<path d="M17037 16555
L24537 16555
" />
<path d="M24537 16555
L24537 24055
" />
<path d="M24537 24055
L17037 24055
" />
<path d="M17037 24055
L17037 16555
" />
<path d="M18031 17942
L18031 17549
" />
<path d="M23543 17549
L23149 17549
" />
<path d="M18031 22667
L18031 23061
" />
<path d="M23149 23061
L23543 23061
" />
<path d="M23543 23061
L23543 22667
" />
<path d="M18031 17549
L18425 17549
" />
<path d="M23543 17549
L23543 17942
" />
<path d="M18031 23061
L18425 23061
" />
<path d="M26889 12928
L34348 13712
" />
<path d="M34348 13712
L33564 21171
" />
<path d="M33564 21171
L26105 20387
" />
<path d="M26105 20387
L26889 12928
" />
<path d="M27732 14412
L27774 14020
" />
<path d="M33255 14597
L32864 14555
" />
<path d="M27239 19111
L27197 19502
" />
<path d="M32287 20037
L32679 20078
" />
<path d="M32679 20078
L32720 19687
" />
<path d="M27774 14020
L28165 14062
" />
<path d="M33255 14597
L33214 14988
" />
<path d="M27197 19502
L27589 19543
" />
<path d="M36144 16781
L36532 16849
" />
<path d="M42529 12310
L42461 12697
" />
<path d="M37101 11353
L37489 11421
" />
<path d="M41572 17738
L41641 17350
" />
<path d="M41184 17669
L41572 17738
" />
<path d="M36213 16393
L36144 16781
" />
<path d="M42529 12310
L42142 12241
" />
<path d="M37033 11740
L37101 11353
" />
<path d="M34993 17587
L36295 10201
" />
<path d="M42379 18889
L34993 17587
" />
<path d="M43681 11503
L42379 18889
" />
<path d="M36295 10201
L43681 11503
" />
<path d="M43355 13350
L50741 14652
" />
<path d="M50741 14652
L49439 22038
" />
<path d="M49439 22038
L42053 20736
" />
<path d="M42053 20736
L43355 13350
" />
<path d="M44093 14889
L44162 14501
" />
<path d="M49590 15459
L49202 15390
" />
<path d="M43273 19542
L43205 19930
" />
<path d="M48245 20818
L48633 20887
" />
<path d="M48633 20887
L48701 20499
" />
<path d="M44162 14501
L44549 14570
" />
<path d="M49590 15459
L49521 15846
" />
<path d="M43205 19930
L43592 19998
" />
<path d="M50428 22155
L50816 22223
" />
<path d="M56813 17684
L56745 18072
" />
<path d="M51385 16727
L51773 16795
" />
<path d="M55856 23112
L55924 22725
" />
<path d="M55468 23044
L55856 23112
" />
<path d="M50496 21767
L50428 22155
" />
<path d="M56813 17684
L56425 17616
" />
<path d="M51317 17115
L51385 16727
" />
<path d="M49276 22962
L50579 15575
" />
<path d="M56662 24264
L49276 22962
" />
<path d="M57965 16878
L56662 24264
" />
<path d="M50579 15575
L57965 16878
" />
<path d="M18031 30561
L18425 30561
" />
<path d="M23543 25049
L23543 25442
" />
<path d="M18031 25049
L18425 25049
" />
<path d="M23543 30561
L23543 30167
" />
<path d="M23149 30561
L23543 30561
" />
<path d="M18031 30167
L18031 30561
" />
<path d="M23543 25049
L23149 25049
" />
<path d="M18031 25442
L18031 25049
" />
<path d="M17037 31555
L17037 24055
" />
<path d="M24537 31555
L17037 31555
" />
<path d="M24537 24055
L24537 31555
" />
<path d="M17037 24055
L24537 24055
" />
<path d="M26105 20387
L33564 21171
" />
<path d="M33564 21171
L32780 28630
" />
<path d="M32780 28630
L25321 27846
" />
<path d="M25321 27846
L26105 20387
" />
<path d="M26948 21871
L26990 21479
" />
<path d="M32471 22055
L32080 22014
" />
<path d="M26455 26569
L26413 26961
" />
<path d="M31503 27496
L31895 27537
" />
<path d="M31895 27537
L31936 27146
" />
<path d="M26990 21479
L27381 21521
" />
<path d="M32471 22055
L32430 22447
" />
<path d="M26413 26961
L26805 27002
" />
<path d="M34842 24167
L35229 24235
" />
<path d="M41227 19696
L41159 20083
" />
<path d="M35799 18739
L36187 18807
" />
<path d="M40270 25124
L40338 24736
" />
<path d="M39882 25055
L40270 25124
" />
<path d="M34910 23779
L34842 24167
" />
<path d="M41227 19696
L40839 19627
" />
<path d="M35731 19126
L35799 18739
" />
<path d="M33690 24973
L34993 17587
" />
<path d="M41076 26275
L33690 24973
" />
<path d="M42379 18889
L41076 26275
" />
<path d="M34993 17587
L42379 18889
" />
<path d="M42053 20736
L49439 22038
" />
<path d="M49439 22038
L48137 29424
" />
<path d="M48137 29424
L40751 28122
" />
<path d="M40751 28122
L42053 20736
" />
<path d="M42791 22275
L42859 21887
" />
<path d="M48287 22845
L47900 22776
" />
<path d="M41971 26928
L41902 27316
" />
<path d="M46943 28204
L47330 28273
" />
<path d="M47330 28273
L47399 27885
" />
<path d="M42859 21887
L43247 21956
" />
<path d="M48287 22845
L48219 23232
" />
<path d="M41902 27316
L42290 27384
" />
<path d="M49126 29541
L49513 29610
" />
<path d="M55511 25070
L55442 25458
" />
<path d="M50083 24113
L50470 24181
" />
<path d="M54554 30498
L54622 30111
" />
<path d="M54166 30430
L54554 30498
" />
<path d="M49194 29153
L49126 29541
" />
<path d="M55511 25070
L55123 25002
" />
<path d="M50014 24501
L50083 24113
" />
<path d="M47974 30348
L49276 22962
" />
<path d="M55360 31650
L47974 30348
" />
<path d="M56662 24264
L55360 31650
" />
<path d="M49276 22962
L56662 24264
" />
<path d="M56500 25187
L63886 26489
" />
<path d="M63886 26489
L62583 33876
" />
<path d="M62583 33876
L55197 32573
" />
<path d="M55197 32573
L56500 25187
" />
<path d="M57238 26726
L57306 26339
" />
<path d="M62734 27296
L62346 27227
" />
<path d="M56417 31379
L56349 31767
" />
<path d="M61389 32656
L61777 32724
" />
<path d="M61777 32724
L61845 32336
" />
<path d="M57306 26339
L57694 26407
" />
<path d="M62734 27296
L62666 27684
" />
<path d="M56349 31767
L56736 31835
" />
<path d="M18031 38061
L18425 38061
" />
<path d="M23543 32549
L23543 32942
" />
<path d="M18031 32549
L18425 32549
" />
<path d="M23543 38061
L23543 37667
" />
<path d="M23149 38061
L23543 38061
" />
<path d="M18031 37667
L18031 38061
" />
<path d="M23543 32549
L23149 32549
" />
<path d="M18031 32942
L18031 32549
" />
<path d="M17037 39055
L17037 31555
" />
<path d="M24537 39055
L17037 39055
" />
<path d="M24537 31555
L24537 39055
" />
<path d="M17037 31555
L24537 31555
" />
<path d="M25321 27846
L32780 28630
" />
<path d="M32780 28630
L31996 36089
" />
<path d="M31996 36089
L24537 35305
" />
<path d="M24537 35305
L25321 27846
" />
<path d="M26164 29330
L26206 28938
" />
<path d="M31687 29514
L31296 29473
" />
<path d="M25671 34028
L25629 34420
" />
<path d="M30720 34955
L31111 34996
" />
<path d="M31111 34996
L31152 34604
" />
<path d="M26206 28938
L26597 28979
" />
<path d="M31687 29514
L31646 29906
" />
<path d="M25629 34420
L26021 34461
" />
<path d="M33539 31553
L33927 31621
" />
<path d="M39925 27082
L39856 27470
" />
<path d="M34497 26125
L34884 26193
" />
<path d="M38967 32510
L39036 32122
" />
<path d="M38580 32442
L38967 32510
" />
<path d="M33608 31165
L33539 31553
" />
<path d="M39925 27082
L39537 27013
" />
<path d="M34428 26512
L34497 26125
" />
<path d="M32388 32359
L33690 24973
" />
<path d="M39774 33661
L32388 32359
" />
<path d="M41076 26275
L39774 33661
" />
<path d="M33690 24973
L41076 26275
" />
<path d="M40751 28122
L48137 29424
" />
<path d="M48137 29424
L46834 36810
" />
<path d="M46834 36810
L39448 35508
" />
<path d="M39448 35508
L40751 28122
" />
<path d="M41489 29661
L41557 29274
" />
<path d="M46985 30231
L46597 30162
" />
<path d="M40668 34314
L40600 34702
" />
<path d="M45640 35590
L46028 35659
" />
<path d="M46028 35659
L46096 35271
" />
<path d="M41557 29274
L41945 29342
" />
<path d="M46985 30231
L46917 30618
" />
<path d="M40600 34702
L40988 34770
" />
<path d="M47823 36927
L48211 36996
" />
<path d="M54208 32456
L54140 32844
" />
<path d="M48780 31499
L49168 31568
" />
<path d="M53251 37884
L53320 37497
" />
<path d="M52863 37816
L53251 37884
" />
<path d="M47892 36540
L47823 36927
" />
<path d="M54208 32456
L53821 32388
" />
<path d="M48712 31887
L48780 31499
" />
<path d="M46672 37734
L47974 30348
" />
<path d="M54058 39036
L46672 37734
" />
<path d="M55360 31650
L54058 39036
" />
<path d="M47974 30348
L55360 31650
" />
<path d="M59699 39973
L60474 40110
" />
<path d="M55197 32573
L62583 33876
" />
<path d="M61432 34682
L61295 35457
" />
<path d="M60474 40110
L60611 39335
" />
<path d="M60656 34545
L61432 34682
" />
<path d="M62583 33876
L61281 41262
" />
<path d="M53895 39959
L55197 32573
" />
<path d="M55183 38377
L55046 39153
" />
<path d="M55046 39153
L55822 39290
" />
<path d="M61281 41262
L53895 39959
" />
<path d="M56779 33862
L56004 33725
" />
<path d="M56004 33725
L55867 34500
" />
<path d="M9537 22180
L17037 22180
" />
<path d="M17037 22180
L17037 29680
" />
<path d="M17037 29680
L9537 29680
" />
<path d="M9537 29680
L9537 22180
" />
<path d="M10531 23567
L10531 23174
" />
<path d="M16043 23174
L15649 23174
" />
<path d="M10531 28292
L10531 28686
" />
<path d="M15649 28686
L16043 28686
" />
<path d="M16043 28686
L16043 28292
" />
<path d="M10531 23174
L10925 23174
" />
<path d="M16043 23174
L16043 23567
" />
<path d="M10531 28686
L10925 28686
" />
<path d="M9537 29680
L17037 29680
" />
<path d="M17037 29680
L17037 37180
" />
<path d="M17037 37180
L9537 37180
" />
<path d="M9537 37180
L9537 29680
" />
<path d="M10531 31067
L10531 30674
" />
<path d="M16043 30674
L15649 30674
" />
<path d="M10531 35792
L10531 36186
" />
<path d="M15649 36186
L16043 36186
" />
<path d="M16043 36186
L16043 35792
" />
<path d="M10531 30674
L10925 30674
" />
<path d="M16043 30674
L16043 31067
" />
<path d="M10531 36186
L10925 36186
" />
<path d="M43289 51361
L43663 51483
" />
<path d="M50234 47822
L50113 48197
" />
<path d="M44992 46119
L45367 46241
" />
<path d="M48531 53064
L48653 52690
" />
<path d="M48157 52943
L48531 53064
" />
<path d="M43411 50987
L43289 51361
" />
<path d="M50234 47822
L49860 47701
" />
<path d="M44870 46494
L44992 46119
" />
<path d="M42036 51999
L44354 44867
" />
<path d="M49169 54317
L42036 51999
" />
<path d="M51487 47184
L49169 54317
" />
<path d="M44354 44867
L51487 47184
" />
<path d="M38119 42758
L38507 42826
" />
<path d="M44505 38287
L44436 38675
" />
<path d="M39077 37330
L39464 37398
" />
<path d="M43548 43715
L43616 43327
" />
<path d="M43160 43647
L43548 43715
" />
<path d="M38188 42370
L38119 42758
" />
<path d="M44505 38287
L44117 38218
" />
<path d="M39008 37717
L39077 37330
" />
<path d="M36968 43564
L38270 36178
" />
<path d="M44354 44867
L36968 43564
" />
<path d="M45656 37480
L44354 44867
" />
<path d="M38270 36178
L45656 37480
" />
<path d="M46672 37734
L53804 40051
" />
<path d="M53804 40051
L51487 47184
" />
<path d="M51487 47184
L44354 44867
" />
<path d="M44354 44867
L46672 37734
" />
<path d="M47188 39361
L47310 38986
" />
<path d="M52552 40689
L52177 40568
" />
<path d="M45728 43854
L45607 44228
" />
<path d="M50474 45810
L50849 45932
" />
<path d="M50849 45932
L50970 45557
" />
<path d="M47310 38986
L47684 39108
" />
<path d="M52552 40689
L52430 41064
" />
<path d="M45607 44228
L45981 44350
" />
<path d="M52816 46726
L53170 46899
" />
<path d="M60186 44189
L60014 44543
" />
<path d="M55232 41772
L55586 41945
" />
<path d="M57770 49143
L57943 48789
" />
<path d="M57416 48970
L57770 49143
" />
<path d="M52989 46373
L52816 46726
" />
<path d="M60186 44189
L59832 44016
" />
<path d="M55060 42126
L55232 41772
" />
<path d="M51487 47184
L54775 40443
" />
<path d="M58228 50472
L51487 47184
" />
<path d="M61516 43731
L58228 50472
" />
<path d="M54775 40443
L61516 43731
" />
<path d="M105383 16555
L112883 16555
" />
<path d="M112883 16555
L112883 24055
" />
<path d="M112883 24055
L105383 24055
" />
<path d="M105383 24055
L105383 16555
" />
<path d="M106377 17942
L106377 17549
" />
<path d="M111889 17549
L111496 17549
" />
<path d="M106377 22667
L106377 23061
" />
<path d="M111496 23061
L111889 23061
" />
<path d="M111889 23061
L111889 22667
" />
<path d="M106377 17549
L106771 17549
" />
<path d="M111889 17549
L111889 17942
" />
<path d="M106377 23061
L106771 23061
" />
<path d="M97241 20078
L97633 20037
" />
<path d="M102147 14020
L102188 14412
" />
<path d="M96665 14597
L97057 14555
" />
<path d="M102723 19502
L102682 19111
" />
<path d="M102331 19543
L102723 19502
" />
<path d="M97200 19687
L97241 20078
" />
<path d="M102147 14020
L101755 14062
" />
<path d="M96706 14988
L96665 14597
" />
<path d="M96357 21171
L95573 13712
" />
<path d="M103815 20387
L96357 21171
" />
<path d="M103031 12928
L103815 20387
" />
<path d="M95573 13712
L103031 12928
" />
<path d="M86239 11503
L93625 10201
" />
<path d="M93625 10201
L94928 17587
" />
<path d="M94928 17587
L87542 18889
" />
<path d="M87542 18889
L86239 11503
" />
<path d="M87459 12697
L87391 12310
" />
<path d="M92819 11353
L92431 11421
" />
<path d="M88280 17350
L88348 17738
" />
<path d="M93388 16849
L93776 16781
" />
<path d="M93776 16781
L93708 16393
" />
<path d="M87391 12310
L87779 12241
" />
<path d="M92819 11353
L92887 11740
" />
<path d="M88348 17738
L88736 17669
" />
<path d="M81288 20887
L81675 20818
" />
<path d="M85759 14501
L85827 14889
" />
<path d="M80330 15459
L80718 15390
" />
<path d="M86716 19930
L86647 19542
" />
<path d="M86328 19998
L86716 19930
" />
<path d="M81219 20499
L81288 20887
" />
<path d="M85759 14501
L85371 14570
" />
<path d="M80399 15846
L80330 15459
" />
<path d="M80481 22038
L79179 14652
" />
<path d="M87867 20736
L80481 22038
" />
<path d="M86565 13350
L87867 20736
" />
<path d="M79179 14652
L86565 13350
" />
<path d="M71956 16878
L79342 15575
" />
<path d="M79342 15575
L80644 22962
" />
<path d="M80644 22962
L73258 24264
" />
<path d="M73258 24264
L71956 16878
" />
<path d="M73176 18072
L73107 17684
" />
<path d="M78535 16727
L78148 16795
" />
<path d="M73996 22725
L74064 23112
" />
<path d="M79105 22223
L79492 22155
" />
<path d="M79492 22155
L79424 21767
" />
<path d="M73107 17684
L73495 17616
" />
<path d="M78535 16727
L78604 17115
" />
<path d="M74064 23112
L74452 23044
" />
<path d="M106377 30561
L106771 30561
" />
<path d="M111889 25049
L111889 25442
" />
<path d="M106377 25049
L106771 25049
" />
<path d="M111889 30561
L111889 30167
" />
<path d="M111496 30561
L111889 30561
" />
<path d="M106377 30167
L106377 30561
" />
<path d="M111889 25049
L111496 25049
" />
<path d="M106377 25442
L106377 25049
" />
<path d="M105383 31555
L105383 24055
" />
<path d="M112883 31555
L105383 31555
" />
<path d="M112883 24055
L112883 31555
" />
<path d="M105383 24055
L112883 24055
" />
<path d="M96357 21171
L103815 20387
" />
<path d="M103815 20387
L104599 27846
" />
<path d="M104599 27846
L97140 28630
" />
<path d="M97140 28630
L96357 21171
" />
<path d="M97490 22447
L97449 22055
" />
<path d="M102931 21479
L102539 21521
" />
<path d="M97984 27146
L98025 27537
" />
<path d="M103115 27002
L103507 26961
" />
<path d="M103507 26961
L103466 26569
" />
<path d="M97449 22055
L97841 22014
" />
<path d="M102931 21479
L102972 21871
" />
<path d="M98025 27537
L98417 27496
" />
<path d="M89650 25124
L90038 25055
" />
<path d="M94121 18739
L94190 19126
" />
<path d="M88693 19696
L89081 19627
" />
<path d="M95078 24167
L95010 23779
" />
<path d="M94691 24235
L95078 24167
" />
<path d="M89582 24736
L89650 25124
" />
<path d="M94121 18739
L93734 18807
" />
<path d="M88762 20083
L88693 19696
" />
<path d="M88844 26275
L87542 18889
" />
<path d="M96230 24973
L88844 26275
" />
<path d="M94928 17587
L96230 24973
" />
<path d="M87542 18889
L94928 17587
" />
<path d="M80481 22038
L87867 20736
" />
<path d="M87867 20736
L89170 28122
" />
<path d="M89170 28122
L81784 29424
" />
<path d="M81784 29424
L80481 22038
" />
<path d="M81701 23232
L81633 22845
" />
<path d="M87061 21887
L86673 21956
" />
<path d="M82522 27885
L82590 28273
" />
<path d="M87630 27384
L88018 27316
" />
<path d="M88018 27316
L87950 26928
" />
<path d="M81633 22845
L82021 22776
" />
<path d="M87061 21887
L87129 22275
" />
<path d="M82590 28273
L82978 28204
" />
<path d="M75367 30498
L75754 30430
" />
<path d="M79838 24113
L79906 24501
" />
<path d="M74410 25070
L74797 25002
" />
<path d="M80795 29541
L80726 29153
" />
<path d="M80407 29610
L80795 29541
" />
<path d="M75298 30111
L75367 30498
" />
<path d="M79838 24113
L79450 24181
" />
<path d="M74478 25458
L74410 25070
" />
<path d="M74560 31650
L73258 24264
" />
<path d="M81946 30348
L74560 31650
" />
<path d="M80644 22962
L81946 30348
" />
<path d="M73258 24264
L80644 22962
" />
<path d="M66035 26489
L73421 25187
" />
<path d="M73421 25187
L74723 32573
" />
<path d="M74723 32573
L67337 33876
" />
<path d="M67337 33876
L66035 26489
" />
<path d="M67255 27684
L67186 27296
" />
<path d="M72614 26339
L72227 26407
" />
<path d="M68075 32336
L68143 32724
" />
<path d="M73184 31835
L73571 31767
" />
<path d="M73571 31767
L73503 31379
" />
<path d="M67186 27296
L67574 27227
" />
<path d="M72614 26339
L72683 26726
" />
<path d="M68143 32724
L68531 32656
" />
<path d="M105383 31555
L112883 31555
" />
<path d="M112883 31555
L112883 39055
" />
<path d="M112883 39055
L105383 39055
" />
<path d="M105383 39055
L105383 31555
" />
<path d="M106377 32942
L106377 32549
" />
<path d="M111889 32549
L111496 32549
" />
<path d="M106377 37667
L106377 38061
" />
<path d="M111496 38061
L111889 38061
" />
<path d="M111889 38061
L111889 37667
" />
<path d="M106377 32549
L106771 32549
" />
<path d="M111889 32549
L111889 32942
" />
<path d="M106377 38061
L106771 38061
" />
<path d="M98809 34996
L99201 34955
" />
<path d="M103715 28938
L103756 29330
" />
<path d="M98233 29514
L98625 29473
" />
<path d="M104291 34420
L104250 34028
" />
<path d="M103899 34461
L104291 34420
" />
<path d="M98768 34604
L98809 34996
" />
<path d="M103715 28938
L103323 28979
" />
<path d="M98274 29906
L98233 29514
" />
<path d="M97924 36089
L97140 28630
" />
<path d="M105383 35305
L97924 36089
" />
<path d="M104599 27846
L105383 35305
" />
<path d="M97140 28630
L104599 27846
" />
<path d="M88844 26275
L96230 24973
" />
<path d="M96230 24973
L97532 32359
" />
<path d="M97532 32359
L90146 33661
" />
<path d="M90146 33661
L88844 26275
" />
<path d="M90064 27470
L89996 27082
" />
<path d="M95424 26125
L95036 26193
" />
<path d="M90884 32122
L90953 32510
" />
<path d="M95993 31621
L96381 31553
" />
<path d="M96381 31553
L96312 31165
" />
<path d="M89996 27082
L90383 27013
" />
<path d="M95424 26125
L95492 26512
" />
<path d="M90953 32510
L91340 32442
" />
<path d="M83892 35659
L84280 35590
" />
<path d="M88363 29274
L88432 29661
" />
<path d="M82935 30231
L83323 30162
" />
<path d="M89320 34702
L89252 34314
" />
<path d="M88933 34770
L89320 34702
" />
<path d="M83824 35271
L83892 35659
" />
<path d="M88363 29274
L87976 29342
" />
<path d="M83004 30618
L82935 30231
" />
<path d="M83086 36810
L81784 29424
" />
<path d="M90472 35508
L83086 36810
" />
<path d="M89170 28122
L90472 35508
" />
<path d="M81784 29424
L89170 28122
" />
<path d="M74560 31650
L81946 30348
" />
<path d="M81946 30348
L83249 37734
" />
<path d="M83249 37734
L75863 39036
" />
<path d="M75863 39036
L74560 31650
" />
<path d="M75780 32844
L75712 32456
" />
<path d="M81140 31499
L80752 31568
" />
<path d="M76601 37497
L76669 37884
" />
<path d="M81709 36996
L82097 36927
" />
<path d="M82097 36927
L82029 36540
" />
<path d="M75712 32456
L76100 32388
" />
<path d="M81140 31499
L81208 31887
" />
<path d="M76669 37884
L77057 37816
" />
<path d="M68489 34682
L68625 35457
" />
<path d="M69264 34545
L68489 34682
" />
<path d="M76025 39959
L68639 41262
" />
<path d="M69446 40110
L70221 39973
" />
<path d="M69309 39335
L69446 40110
" />
<path d="M68639 41262
L67337 33876
" />
<path d="M74723 32573
L76025 39959
" />
<path d="M73141 33862
L73917 33725
" />
<path d="M74874 39153
L74737 38377
" />
<path d="M73917 33725
L74053 34500
" />
<path d="M67337 33876
L74723 32573
" />
<path d="M74098 39290
L74874 39153
" />
<path d="M112883 22180
L120383 22180
" />
<path d="M120383 22180
L120383 29680
" />
<path d="M120383 29680
L112883 29680
" />
<path d="M112883 29680
L112883 22180
" />
<path d="M113877 23567
L113877 23174
" />
<path d="M119389 23174
L118996 23174
" />
<path d="M113877 28292
L113877 28686
" />
<path d="M118996 28686
L119389 28686
" />
<path d="M119389 28686
L119389 28292
" />
<path d="M113877 23174
L114271 23174
" />
<path d="M119389 23174
L119389 23567
" />
<path d="M113877 28686
L114271 28686
" />
<path d="M113877 36186
L114271 36186
" />
<path d="M119389 30674
L119389 31067
" />
<path d="M113877 30674
L114271 30674
" />
<path d="M119389 36186
L119389 35792
" />
<path d="M118996 36186
L119389 36186
" />
<path d="M113877 35792
L113877 36186
" />
<path d="M119389 30674
L118996 30674
" />
<path d="M113877 31067
L113877 30674
" />
<path d="M112883 37180
L112883 29680
" />
<path d="M120383 37180
L112883 37180
" />
<path d="M120383 29680
L120383 37180
" />
<path d="M112883 29680
L120383 29680
" />
<path d="M81389 53064
L81764 52943
" />
<path d="M84928 46119
L85050 46494
" />
<path d="M79686 47822
L80060 47701
" />
<path d="M86631 51361
L86510 50987
" />
<path d="M86257 51483
L86631 51361
" />
<path d="M81268 52690
L81389 53064
" />
<path d="M84928 46119
L84554 46241
" />
<path d="M79808 48197
L79686 47822
" />
<path d="M80751 54317
L78433 47184
" />
<path d="M87884 51999
L80751 54317
" />
<path d="M85566 44867
L87884 51999
" />
<path d="M78433 47184
L85566 44867
" />
<path d="M84264 37480
L91650 36178
" />
<path d="M91650 36178
L92952 43564
" />
<path d="M92952 43564
L85566 44867
" />
<path d="M85566 44867
L84264 37480
" />
<path d="M85484 38675
L85416 38287
" />
<path d="M90844 37330
L90456 37398
" />
<path d="M86304 43327
L86373 43715
" />
<path d="M91413 42826
L91801 42758
" />
<path d="M91801 42758
L91732 42370
" />
<path d="M85416 38287
L85803 38218
" />
<path d="M90844 37330
L90912 37717
" />
<path d="M86373 43715
L86760 43647
" />
<path d="M79072 45932
L79446 45810
" />
<path d="M82610 38986
L82732 39361
" />
<path d="M77368 40689
L77743 40568
" />
<path d="M84314 44228
L84192 43854
" />
<path d="M83939 44350
L84314 44228
" />
<path d="M78950 45557
L79072 45932
" />
<path d="M82610 38986
L82236 39108
" />
<path d="M77490 41064
L77368 40689
" />
<path d="M78433 47184
L76116 40051
" />
<path d="M85566 44867
L78433 47184
" />
<path d="M83249 37734
L85566 44867
" />
<path d="M76116 40051
L83249 37734
" />
<path d="M72150 49143
L72504 48970
" />
<path d="M74688 41772
L74861 42126
" />
<path d="M69734 44189
L70088 44016
" />
<path d="M77104 46726
L76932 46373
" />
<path d="M76750 46899
L77104 46726
" />
<path d="M71978 48789
L72150 49143
" />
<path d="M74688 41772
L74334 41945
" />
<path d="M69907 44543
L69734 44189
" />
<path d="M71692 50472
L68405 43731
" />
<path d="M78433 47184
L71692 50472
" />
<path d="M75146 40443
L78433 47184
" />
<path d="M68405 43731
L75146 40443
" />
<g >
</g>
<g >
</g>
<g >
</g>
<g >
</g>
<g >
</g>
<g >
</g>
<g >
</g>
<g >
</g>
<g >
</g>
<g >
</g>
<g >
</g>
<g >
</g>
<g >
</g>
<g >
</g>
<g >
</g>
<g >
</g>
<g >
</g>
<g >
</g>
<g >
</g>
<g >
</g>
<g >
</g>
<g >
</g>
<g >
</g>
<g >
</g>
<g >
</g>
<g >
</g>
<g >
</g>
<g >
</g>
<g >
</g>
<g >
</g>
<g >
</g>
<g >
</g>
<g >
</g>
<g >
</g>
<g >
</g>
<g >
</g>
<g >
</g>
<g >
</g>
<g >
</g>
<g >
</g>
<g >
</g>
<g >
</g>
<g >
</g>
<g >
</g>
<g >
</g>
<g >
</g>
<g >
</g>
<g >
</g>
<g >
</g>
<g >
</g>
<g >
</g>
<g >
</g>
<g >
</g>
<g >
</g>
<g >
</g>
<g >
</g>
<g >
</g>
<g >
</g>
<g >
</g>
<g >
</g>
<g >
</g>
<g >
</g>
<g >
</g>
<g >
</g>
<g >
</g>
<g >
</g>
<g >
</g>
<g >
</g>
<g >
</g>
<g >
</g>
<g >
</g>
<g >
</g>
<g >
</g>
<g >
</g>
<g >
</g>
<g >
</g>
<g >
</g>
<g >
</g>
<g >
</g>
<g >
</g>
<g >
</g>
<g >
</g>
<g >
</g>
<g >
</g>
<g >
</g>
<g >
</g>
<g >
</g>
<g >
</g>
<g >
</g>
<g >
</g>
<g >
</g>
<g >
</g>
<g >
</g>
<g >
</g>
<g >
</g>
<g >
</g>
<g >
</g>
<g >
</g>
<g >
</g>
<g >
</g>
<g >
</g>
<g >
</g>
<g >
</g>
<g >
</g>
<g >
</g>
<g >
</g>
<g >
</g>
<g >
</g>
<g >
</g>
<g >
</g>
</g>
<g style="fill:#C2C2C2; fill-opacity:0.0; 
stroke:#C2C2C2; stroke-width:59.0551; stroke-opacity:1; 
stroke-linecap:round; stroke-linejoin:round;">
<g transform="rotate(10 58782.2 33840.4)">
<text x="58782.2" y="34037.2"
textLength="864.173" font-size="524.934" lengthAdjust="spacingAndGlyphs"
text-anchor="middle" opacity="0">1U</text>
</g>
<path d="M58658 33999
L58437 33960
" />
<path d="M58548 33979
L58616 33592
L58569 33641
L58526 33671
L58486 33683
" />
<path d="M58893 33641
L58838 33954
L58850 33995
L58865 34016
L58898 34041
L58972 34054
L59012 34042
L59034 34027
L59059 33993
L59114 33680
" />
<g transform="rotate(-10 71139.1 33840.4)">
<text x="71139.1" y="34037.2"
textLength="864.173" font-size="524.934" lengthAdjust="spacingAndGlyphs"
text-anchor="middle" opacity="0">1U</text>
</g>
<path d="M71077 34032
L70856 34071
" />
<path d="M70966 34051
L70898 33663
L70871 33725
L70841 33769
L70807 33794
" />
<path d="M71175 33615
L71230 33928
L71255 33962
L71277 33977
L71317 33989
L71391 33976
L71425 33951
L71440 33930
L71452 33889
L71397 33575
" />
<g >
</g>
</g>
<g style="fill:#000000; fill-opacity:0.0; 
stroke:#000000; stroke-width:59.0551; stroke-opacity:1; 
stroke-linecap:round; stroke-linejoin:round;">
<g >
</g>
<g >
</g>
<g >
</g>
<g >
</g>
<g >
</g>
<g >
</g>
<g >
</g>
<g >
</g>
<g >
</g>
<g >
</g>
<g >
</g>
<g >
</g>
<g >
</g>
<g >
</g>
<g >
</g>
<g >
</g>
<g >
</g>
<g >
</g>
<g >
</g>
<g >
</g>
<g >
</g>
<g >
</g>
<g >
</g>
<g >
</g>
<g >
</g>
<g >
</g>
<g >
</g>
<g >
</g>
<g >
</g>
<g >
</g>
<g >
</g>
<g >
</g>
<g >
</g>
<g >
</g>
<g >
</g>
<g >
</g>
<g >
</g>
<g >
</g>
<g >
</g>
<g >
</g>
<g >
</g>
<g >
</g>
<g >
</g>
<g >
</g>
<g >
</g>
<g >
</g>
<g >
</g>
<g >
</g>
<g >
</g>
<g >
</g>
<g >
</g>
<g >
</g>
<g >
</g>
<g >
</g>
<g >
</g>
<g >
</g>
<g >
</g>
<g >
</g>
<g >
</g>
<g >
</g>
<g >
</g>
<g >
</g>
<g >
</g>
<g >
</g>
<g >
</g>
<g >
</g>
<g >
</g>
<g >
</g>
<g >
</g>
<g >
</g>
<g >
</g>
<g >
</g>
<g >
</g>
<g >
</g>
<g >
</g>
<g >
</g>
<g >
</g>
<g >
</g>
<g >
</g>
<g >
</g>
<g >
</g>
<g >
</g>
<g >
</g>
<g >
</g>
<g >
</g>
<g >
</g>
<g >
</g>
<g >
</g>
<g >
</g>
<g >
</g>
<g >
</g>
<g >
</g>
<g >
</g>
<g >
</g>
<g >
</g>
<g >
</g>
<g >
</g>
<g >
</g>
<g >
</g>
<g >
</g>
<g >
</g>
<g >
</g>
<g >
</g>
<g >
</g>
<g >
</g>
<g >
</g>
<g >
</g>
<g >
</g>
<g >
</g>
<g >
</g>
<g >
</g>
</g> 
</svg>
