M48
; DRILL file {KiCad (5.1.6)-1} date 09/17/20 21:57:53
; FORMAT={-:-/ absolute / inch / decimal}
; #@! TF.CreationDate,2020-09-17T21:57:53+09:00
; #@! TF.GenerationSoftware,Kicad,Pcbnew,(5.1.6)-1
; #@! TF.FileFunction,NonPlated,1,2,NPTH
FMAT,2
INCH
T1C0.0472
T2C0.0748
T3C0.1181
T4C0.1570
T5C0.1614
T6C0.1654
%
G90
G05
T1
X11.6862Y-1.9508
X11.9618Y-1.9508
T2
X8.9736Y-2.2279
X9.3675Y-2.1584
X7.415Y-2.0267
X7.8089Y-1.9573
X7.1441Y-4.6335
X7.5037Y-4.4581
X8.8434Y-1.4893
X9.2373Y-1.4198
X10.6953Y-3.5305
X11.0953Y-3.5305
X5.1651Y-1.9573
X5.5591Y-2.0267
X2.667Y-3.1759
X3.0648Y-3.2177
X3.9343Y-4.0176
X4.3282Y-4.087
X8.2676Y-2.5428
X8.6615Y-2.4733
X9.9093Y-3.2177
X10.3071Y-3.1759
X9.8309Y-2.4718
X10.2287Y-2.43
X4.4428Y-1.7347
X4.8367Y-1.8042
X1.1287Y-3.343
X1.5287Y-3.343
X4.9047Y-3.4345
X5.2986Y-3.504
X2.8238Y-1.6841
X3.2216Y-1.7259
X8.1373Y-1.8042
X8.5313Y-1.7347
X9.1039Y-2.9665
X9.4978Y-2.897
X8.6458Y-4.087
X9.0398Y-4.0176
X4.1823Y-3.2119
X4.5763Y-3.2814
X5.0349Y-2.6959
X5.4288Y-2.7654
X5.7572Y-2.9185
X6.1511Y-2.9879
X1.8787Y-2.0305
X2.2787Y-2.0305
X5.4704Y-4.4581
X5.8299Y-4.6335
X11.4453Y-2.593
X11.8453Y-2.593
X1.8787Y-2.7805
X2.2787Y-2.7805
X4.3126Y-2.4733
X4.7065Y-2.5428
X3.6065Y-2.1584
X4.0004Y-2.2279
X7.5452Y-2.7654
X7.9392Y-2.6959
X10.6953Y-2.0305
X11.0953Y-2.0305
X2.7454Y-2.43
X3.1432Y-2.4718
X3.7368Y-1.4198
X4.1307Y-1.4893
X6.8229Y-2.9879
X7.2168Y-2.9185
X8.3978Y-3.2814
X8.7917Y-3.2119
X9.7525Y-1.7259
X10.1503Y-1.6841
X11.4453Y-3.343
X11.8453Y-3.343
X3.4763Y-2.897
X3.8702Y-2.9665
X1.8787Y-3.5305
X2.2787Y-3.5305
X10.6953Y-2.7805
X11.0953Y-2.7805
X7.6755Y-3.504
X8.0694Y-3.4345
X7.8759Y-4.3077
X8.2563Y-4.1841
X4.486Y-4.8974
X4.8664Y-5.021
X8.1076Y-5.021
X8.4881Y-4.8974
X1.1287Y-2.593
X1.5287Y-2.593
X4.7178Y-4.1841
X5.0982Y-4.3077
T3
X8.1692Y-1.697
X8.398Y-1.5551
X9.1357Y-2.8593
X9.3646Y-2.7175
X8.6777Y-3.9798
X8.9066Y-3.838
X4.2489Y-3.1221
X4.5125Y-3.0671
X5.1015Y-2.6061
X5.3651Y-2.551
X5.8238Y-2.8287
X6.0874Y-2.7736
X1.9287Y-1.9305
X2.1787Y-1.8305
X5.5592Y-4.3902
X5.8277Y-4.4099
X11.4953Y-2.493
X11.7453Y-2.393
X1.9287Y-2.6805
X2.1787Y-2.5805
X4.3792Y-2.3835
X4.6427Y-2.3285
X3.6731Y-2.0686
X3.9367Y-2.0136
X7.5771Y-2.6582
X7.806Y-2.5163
X10.7453Y-1.9305
X10.9953Y-1.8305
X2.8056Y-2.3357
X3.0646Y-2.2624
X3.8034Y-1.33
X4.0669Y-1.275
X6.8548Y-2.8807
X7.0836Y-2.7389
X8.4297Y-3.1742
X8.6585Y-3.0323
X9.7918Y-1.6212
X10.0299Y-1.4956
X11.4953Y-3.243
X11.7453Y-3.143
X3.5429Y-2.8072
X3.8065Y-2.7522
X1.9287Y-3.4305
X2.1787Y-3.3305
X10.7453Y-2.6805
X10.9953Y-2.5805
X7.7074Y-3.3968
X7.9362Y-3.2549
X7.8925Y-4.1972
X8.0994Y-4.0248
X4.5644Y-4.8178
X4.8331Y-4.7999
X8.1243Y-4.9105
X8.3312Y-4.7381
X1.1787Y-2.493
X1.4287Y-2.393
X4.7962Y-4.1045
X5.0649Y-4.0866
X9.0055Y-2.1207
X9.2343Y-1.9788
X7.4469Y-1.9196
X7.6757Y-1.7777
X7.1452Y-4.5217
X7.3261Y-4.3222
X8.8753Y-1.3821
X9.1041Y-1.2402
X10.7453Y-3.4305
X10.9953Y-3.3305
X5.2317Y-1.8675
X5.4953Y-1.8124
X2.7272Y-3.0816
X2.9862Y-3.0083
X4.0009Y-3.9278
X4.2645Y-3.8727
X8.2994Y-2.4356
X8.5283Y-2.2937
X9.9485Y-3.113
X10.1867Y-2.9874
X9.8702Y-2.3671
X10.1083Y-2.2415
X4.5094Y-1.6449
X4.773Y-1.5899
X1.1787Y-3.243
X1.4287Y-3.143
X4.9713Y-3.3447
X5.2348Y-3.2896
X2.884Y-1.5898
X3.143Y-1.5165
T4
X7.1501Y-3.6918
X5.824Y-3.6918
T5
X7.7422Y-2.7306
X10.8953Y-2.0305
X2.9443Y-2.4509
X3.9337Y-1.4546
X7.0199Y-2.9532
X8.5948Y-3.2467
X9.9514Y-1.705
X11.6453Y-3.343
X3.6733Y-2.9318
X2.0787Y-3.5305
X10.8953Y-2.7805
X7.8724Y-3.4692
X8.0661Y-4.2459
X4.6762Y-4.9592
X8.2979Y-4.9592
X1.3287Y-2.593
X4.908Y-4.2459
X9.1706Y-2.1932
X7.612Y-1.992
X7.3239Y-4.5458
X9.0403Y-1.4546
X10.8953Y-3.5305
X5.3621Y-1.992
X2.8659Y-3.1968
X4.1313Y-4.0523
X8.4645Y-2.5081
X10.1082Y-3.1968
X10.0298Y-2.4509
X4.6398Y-1.7695
X1.3287Y-3.343
X5.1016Y-3.4692
X3.0227Y-1.705
X8.3343Y-1.7695
X9.3008Y-2.9318
X8.8428Y-4.0523
X4.3793Y-3.2467
X5.2319Y-2.7306
X5.9542Y-2.9532
X2.0787Y-2.0305
X5.6502Y-4.5458
X11.6453Y-2.593
X2.0787Y-2.7805
X4.5095Y-2.5081
X3.8035Y-2.1932
T6
X3.3315Y-3.961
X1.6787Y-3.7362
X3.3992Y-1.263
X9.5749Y-1.263
X5.5902Y-1.2535
X1.5654Y-1.7197
X11.2953Y-3.7362
X11.4107Y-1.7197
X5.1961Y-5.2409
X9.6426Y-3.961
X6.487Y-3.472
X7.778Y-5.2409
X7.3839Y-1.2535
T0
M30
