M48
; DRILL file {KiCad (5.1.6)-1} date 09/17/20 21:57:53
; FORMAT={-:-/ absolute / inch / decimal}
; #@! TF.CreationDate,2020-09-17T21:57:53+09:00
; #@! TF.GenerationSoftware,Kicad,Pcbnew,(5.1.6)-1
; #@! TF.FileFunction,Plated,1,2,PTH
FMAT,2
INCH
T1C0.0118
T2C0.0157
T3C0.0236
T4C0.0300
T5C0.0315
T6C0.0394
T7C0.0579
T8C0.0591
T9C0.0689
T10C0.0866
%
G90
G05
T1
X5.4433Y-4.3337
X5.9446Y-4.4669
X11.3664Y-2.493
X11.8753Y-2.393
X1.7998Y-2.6805
X2.3087Y-2.5805
X4.2522Y-2.3611
X4.7708Y-2.351
X3.5462Y-2.0463
X4.0647Y-2.0361
X7.4501Y-2.6806
X7.934Y-2.4937
X10.6164Y-1.9305
X11.1253Y-1.8305
X2.6773Y-2.3223
X3.1939Y-2.276
X3.6764Y-1.3076
X4.195Y-1.2975
X6.7278Y-2.9031
X7.2117Y-2.7163
X8.3027Y-3.1966
X8.7865Y-3.0098
X9.6635Y-1.6347
X10.1592Y-1.482
X11.3664Y-3.243
X11.8753Y-3.143
X3.4159Y-2.7849
X3.9345Y-2.7748
X1.7998Y-3.4305
X2.3087Y-3.3305
X10.6164Y-2.6805
X11.1253Y-2.5805
X7.5804Y-3.4192
X8.0642Y-3.2323
X7.7699Y-4.237
X8.223Y-3.9847
X4.4418Y-4.7779
X4.9568Y-4.8401
X8.0017Y-4.9503
X8.4548Y-4.6979
X1.0498Y-2.493
X1.5587Y-2.393
X4.6736Y-4.0646
X5.1885Y-4.1268
X8.8785Y-2.1431
X9.3624Y-1.9563
X7.3199Y-1.942
X7.8037Y-1.7551
X7.0294Y-4.5782
X7.4429Y-4.2652
X8.7483Y-1.4045
X9.2321Y-1.2177
X10.6164Y-3.4305
X11.1253Y-3.3305
X5.1048Y-1.8451
X5.6233Y-1.835
X2.5989Y-3.0682
X3.1155Y-3.0219
X3.8739Y-3.9054
X4.3925Y-3.8953
X8.1725Y-2.458
X8.6563Y-2.2712
X9.8203Y-3.1265
X10.316Y-2.9738
X9.7419Y-2.3806
X10.2376Y-2.2279
X4.3824Y-1.6225
X4.901Y-1.6124
X1.0498Y-3.243
X1.5587Y-3.143
X4.8443Y-3.3223
X5.3629Y-3.3122
X2.7557Y-1.5764
X3.2723Y-1.5301
X8.0422Y-1.7194
X8.5261Y-1.5326
X9.0087Y-2.8817
X9.4926Y-2.6949
X8.5507Y-4.0022
X9.0346Y-3.8154
X4.122Y-3.0997
X4.6405Y-3.0896
X4.9745Y-2.5837
X5.4931Y-2.5736
X5.6969Y-2.8063
X6.2154Y-2.7962
X1.7998Y-1.9305
X2.3087Y-1.8305
T2
X1.0488Y-3.4102
X1.3689Y-2.0183
X1.3972Y-1.8811
X1.4102Y-1.9354
X1.4268Y-1.9764
X1.5638Y-1.8697
X1.5823Y-2.963
X1.6512Y-2.0094
X1.7142Y-3.2256
X1.7362Y-2.5106
X1.7998Y-2.2856
X1.8217Y-3.2213
X1.8626Y-1.6669
X2.0358Y-3.1559
X2.428Y-3.0831
X2.4445Y-2.3138
X2.4445Y-2.5854
X2.4827Y-3.3638
X2.5177Y-2.0551
X2.585Y-3.2594
X2.5989Y-2.8979
X2.626Y-2.6827
X2.6331Y-3.6193
X2.6335Y-3.7268
X2.6827Y-2.0457
X2.8055Y-2.0417
X2.8268Y-3.5886
X2.95Y-3.6358
X3.1185Y-2.1382
X3.1488Y-2.0295
X3.2114Y-1.837
X3.3083Y-1.9374
X3.4071Y-3.272
X3.4118Y-1.5902
X3.4138Y-1.9909
X3.4167Y-3.0935
X3.4539Y-1.7539
X3.5663Y-3.885
X3.5713Y-1.9457
X3.5819Y-3.6819
X3.5948Y-3.8566
X3.5965Y-1.7362
X3.6453Y-3.628
X3.6697Y-1.8441
X3.7224Y-3.6559
X3.7258Y-3.3612
X3.7706Y-1.6462
X3.8764Y-3.0941
X3.8906Y-3.7248
X4.0441Y-3.3059
X4.3921Y-3.7161
X4.6501Y-4.3877
X4.6897Y-4.387
X4.7144Y-3.8211
X4.7835Y-1.2402
X4.802Y-3.5681
X4.9811Y-1.2358
X5.031Y-4.5074
X5.0374Y-1.3224
X5.0374Y-1.3638
X5.0547Y-4.476
X5.0776Y-1.2335
X5.1154Y-4.5094
X5.1161Y-4.8535
X5.1449Y-1.3972
X5.2169Y-1.3224
X5.2169Y-1.3638
X5.2252Y-1.2622
X5.2307Y-4.9157
X5.2689Y-1.5854
X5.2713Y-1.4618
X5.2748Y-1.2939
X5.2768Y-1.2358
X5.3732Y-1.6433
X5.4441Y-3.9945
X5.4449Y-3.7929
X5.5295Y-3.0283
X5.5618Y-3.8772
X5.5866Y-1.6402
X5.6673Y-2.2512
X5.7169Y-4.8157
X5.7205Y-4.9669
X5.7622Y-5.0677
X6.0402Y-4.8642
X6.0551Y-4.3752
X6.0902Y-1.8071
X6.0902Y-4.7886
X6.1435Y-4.4786
X6.172Y-4.4508
X6.1839Y-5.151
X6.1844Y-5.1904
X6.1846Y-4.939
X6.185Y-5.0177
X6.1855Y-4.9783
X6.2006Y-4.5338
X6.2291Y-4.5055
X6.2386Y-5.0197
X6.2406Y-5.0646
X6.2413Y-5.1067
X6.2577Y-4.4461
X6.2864Y-4.473
X6.3398Y-4.5358
X6.3563Y-1.5992
X6.3567Y-1.6386
X6.3967Y-4.7041
X6.4157Y-4.4315
X6.4283Y-1.7409
X6.5028Y-1.4699
X6.5136Y-1.9057
X6.5149Y-1.2393
X6.5201Y-4.2272
X6.5313Y-1.4976
X6.5313Y-1.945
X6.5417Y-5.2055
X6.549Y-1.9843
X6.5539Y-3.7984
X6.5693Y-5.2339
X6.5744Y-4.4343
X6.5756Y-3.3602
X6.5756Y-4.6827
X6.5904Y-1.9843
X6.5921Y-1.2094
X6.5925Y-4.9354
X6.6081Y-1.9197
X6.6089Y-4.5094
X6.6258Y-1.8803
X6.6435Y-1.8411
X6.6502Y-4.5094
X6.6612Y-1.8019
X6.6699Y-4.2894
X6.6911Y-5.0776
X6.6913Y-5.037
X6.6945Y-4.6134
X6.7112Y-4.2894
X6.7268Y-4.6449
X6.7289Y-4.4283
X6.7306Y-2.5637
X6.7543Y-3.1457
X6.7662Y-2.528
X6.7949Y-2.3213
X6.8037Y-4.5429
X6.8839Y-5.3252
X6.8843Y-5.2098
X6.9063Y-4.7917
X6.9161Y-2.1988
X6.935Y-4.8209
X6.9358Y-1.5874
X6.937Y-4.6949
X7.0276Y-5.0177
X7.1134Y-5.1453
X7.1185Y-1.4634
X7.1354Y-5.2083
X7.1378Y-3.8421
X7.1965Y-4.9547
X7.2114Y-2.185
X7.2177Y-4.8189
X7.2478Y-4.7904
X7.2846Y-4.7695
X7.3484Y-1.5874
X7.3492Y-1.4634
X7.4126Y-4.7719
X7.4126Y-4.8112
X7.4136Y-4.7325
X7.5217Y-1.5894
X7.6543Y-4.6594
X7.6555Y-4.752
X7.7098Y-1.5882
X8.0404Y-4.5153
X8.064Y-4.4838
X8.0989Y-4.4656
X8.1346Y-4.437
X8.287Y-4.515
X8.357Y-4.4228
X8.3772Y-3.8232
X8.385Y-4.3943
X8.4057Y-3.8511
X8.425Y-4.3722
X8.4559Y-4.3437
X8.6181Y-3.4791
X8.6402Y-4.424
X8.6417Y-4.5815
X8.6811Y-3.6256
X8.7827Y-1.6976
X8.8166Y-1.6691
X8.9713Y-1.6988
X9.076Y-4.1453
X9.0799Y-3.4492
X9.0799Y-3.5595
X9.2102Y-1.6965
X9.2225Y-3.5045
X9.2465Y-3.4711
X9.5362Y-1.4106
X10.0835Y-1.8217
X10.1106Y-3.5512
X10.1118Y-3.4134
X10.1421Y-1.9689
X10.2969Y-1.6228
X10.4441Y-3.3315
X10.4594Y-1.6575
X10.4622Y-3.522
X10.5087Y-2.3941
X10.5531Y-2.1709
X10.5689Y-2.0744
X10.6173Y-2.9264
X10.6193Y-3.1673
X10.728Y-2.9268
X10.8799Y-1.4783
X10.8898Y-3.0453
X10.9323Y-3.1126
X11.1972Y-3.2193
X11.2209Y-2.9291
X11.4177Y-2.0638
X1.2413Y-1.9201
X1.2413Y-1.9516
X1.2413Y-1.9831
X1.2413Y-2.0146
X1.2413Y-2.0461
X1.2413Y-2.0776
T4
X6.337Y-2.2118
X6.437Y-2.2118
X6.537Y-2.2118
X6.637Y-2.2118
T5
X10.9557Y-1.4155
X11.0312Y-1.4379
X11.1067Y-1.4602
X11.1822Y-1.4826
T6
X7.0053Y-3.4375
X7.1045Y-3.9997
X7.1992Y-3.4033
X7.2014Y-3.9826
X7.2983Y-3.9655
X5.6757Y-3.9655
X5.7727Y-3.9826
X5.7749Y-3.4033
X5.8696Y-3.9997
X5.9687Y-3.4375
X4.6457Y-1.1016
X4.7457Y-1.1196
X4.8457Y-1.1016
X4.9457Y-1.1196
X5.0457Y-1.1016
X5.1457Y-1.1196
T7
X6.985Y-3.6194
X7.2139Y-3.4775
X5.6936Y-3.5673
X5.9572Y-3.5122
T9
X6.9532Y-3.7265
X7.3471Y-3.6571
X5.627Y-3.6571
X6.0209Y-3.7265
T10
X5.9858Y-2.3665
X6.9882Y-2.3665
T3
G00X1.0819Y-1.7803
M15
G01X1.0386Y-1.7803
M16
G05
G00X1.0819Y-2.2173
M15
G01X1.0386Y-2.2173
M16
G05
G00X1.2807Y-1.7803
M15
G01X1.2374Y-1.7803
M16
G05
G00X1.2807Y-2.2173
M15
G01X1.2374Y-2.2173
M16
G05
T6
G00X11.5661Y-1.8681
M15
G01X11.5465Y-1.8681
M16
G05
G00X11.6252Y-2.0335
M15
G01X11.6055Y-2.0335
M16
G05
G00X11.7827Y-2.0335
M15
G01X11.763Y-2.0335
M16
G05
G00X11.9008Y-2.0335
M15
G01X11.8811Y-2.0335
M16
G05
T8
G00X6.9374Y-3.7553
M15
G01X6.9285Y-3.7049
M16
G05
G00X7.3717Y-3.6787
M15
G01X7.3628Y-3.6283
M16
G05
G00X5.6024Y-3.6787
M15
G01X5.6113Y-3.6283
M16
G05
G00X6.0366Y-3.7553
M15
G01X6.0455Y-3.7049
M16
G05
T0
M30
