%TF.GenerationSoftware,KiCad,Pcbnew,(5.1.6)-1*%
%TF.CreationDate,2020-09-17T21:57:32+09:00*%
%TF.ProjectId,yacc46,79616363-3436-42e6-9b69-6361645f7063,rev?*%
%TF.SameCoordinates,Original*%
%TF.FileFunction,Soldermask,Bot*%
%TF.FilePolarity,Negative*%
%FSLAX46Y46*%
G04 Gerber Fmt 4.6, Leading zero omitted, Abs format (unit mm)*
G04 Created by KiCad (PCBNEW (5.1.6)-1) date 2020-09-17 21:57:32*
%MOMM*%
%LPD*%
G01*
G04 APERTURE LIST*
%ADD10C,0.150000*%
%ADD11R,1.624000X1.624000*%
%ADD12C,1.624000*%
%ADD13O,2.600000X1.800000*%
%ADD14C,1.300000*%
%ADD15C,2.350000*%
%ADD16C,4.087800*%
%ADD17C,2.100000*%
%ADD18C,0.100000*%
%ADD19C,3.600000*%
%ADD20C,0.700000*%
%ADD21C,3.100000*%
%ADD22R,2.650000X2.600000*%
%ADD23C,2.000000*%
%ADD24C,4.200000*%
%ADD25R,1.100000X1.500000*%
%ADD26C,4.300000*%
%ADD27O,1.800000X1.800000*%
%ADD28C,1.800000*%
%ADD29R,1.100000X1.700000*%
%ADD30R,1.600000X1.100000*%
%ADD31R,1.250000X1.100000*%
%ADD32O,2.400000X1.300000*%
%ADD33R,2.400000X0.350000*%
%ADD34R,0.360000X0.750000*%
%ADD35R,1.150000X0.750000*%
G04 APERTURE END LIST*
D10*
X148402380Y-134110714D02*
X148164285Y-134777380D01*
X147926190Y-134110714D02*
X148164285Y-134777380D01*
X148259523Y-135015476D01*
X148307142Y-135063095D01*
X148402380Y-135110714D01*
X147116666Y-134777380D02*
X147116666Y-134253571D01*
X147164285Y-134158333D01*
X147259523Y-134110714D01*
X147450000Y-134110714D01*
X147545238Y-134158333D01*
X147116666Y-134729761D02*
X147211904Y-134777380D01*
X147450000Y-134777380D01*
X147545238Y-134729761D01*
X147592857Y-134634523D01*
X147592857Y-134539285D01*
X147545238Y-134444047D01*
X147450000Y-134396428D01*
X147211904Y-134396428D01*
X147116666Y-134348809D01*
X146211904Y-134729761D02*
X146307142Y-134777380D01*
X146497619Y-134777380D01*
X146592857Y-134729761D01*
X146640476Y-134682142D01*
X146688095Y-134586904D01*
X146688095Y-134301190D01*
X146640476Y-134205952D01*
X146592857Y-134158333D01*
X146497619Y-134110714D01*
X146307142Y-134110714D01*
X146211904Y-134158333D01*
X145354761Y-134729761D02*
X145450000Y-134777380D01*
X145640476Y-134777380D01*
X145735714Y-134729761D01*
X145783333Y-134682142D01*
X145830952Y-134586904D01*
X145830952Y-134301190D01*
X145783333Y-134205952D01*
X145735714Y-134158333D01*
X145640476Y-134110714D01*
X145450000Y-134110714D01*
X145354761Y-134158333D01*
X144497619Y-134110714D02*
X144497619Y-134777380D01*
X144735714Y-133729761D02*
X144973809Y-134444047D01*
X144354761Y-134444047D01*
X143545238Y-133777380D02*
X143735714Y-133777380D01*
X143830952Y-133825000D01*
X143878571Y-133872619D01*
X143973809Y-134015476D01*
X144021428Y-134205952D01*
X144021428Y-134586904D01*
X143973809Y-134682142D01*
X143926190Y-134729761D01*
X143830952Y-134777380D01*
X143640476Y-134777380D01*
X143545238Y-134729761D01*
X143497619Y-134682142D01*
X143450000Y-134586904D01*
X143450000Y-134348809D01*
X143497619Y-134253571D01*
X143545238Y-134205952D01*
X143640476Y-134158333D01*
X143830952Y-134158333D01*
X143926190Y-134205952D01*
X143973809Y-134253571D01*
X144021428Y-134348809D01*
X142354761Y-134110714D02*
X142116666Y-134777380D01*
X141878571Y-134110714D01*
X141307142Y-133777380D02*
X141211904Y-133777380D01*
X141116666Y-133825000D01*
X141069047Y-133872619D01*
X141021428Y-133967857D01*
X140973809Y-134158333D01*
X140973809Y-134396428D01*
X141021428Y-134586904D01*
X141069047Y-134682142D01*
X141116666Y-134729761D01*
X141211904Y-134777380D01*
X141307142Y-134777380D01*
X141402380Y-134729761D01*
X141450000Y-134682142D01*
X141497619Y-134586904D01*
X141545238Y-134396428D01*
X141545238Y-134158333D01*
X141497619Y-133967857D01*
X141450000Y-133872619D01*
X141402380Y-133825000D01*
X141307142Y-133777380D01*
X140545238Y-134682142D02*
X140497619Y-134729761D01*
X140545238Y-134777380D01*
X140592857Y-134729761D01*
X140545238Y-134682142D01*
X140545238Y-134777380D01*
X139545238Y-134777380D02*
X140116666Y-134777380D01*
X139830952Y-134777380D02*
X139830952Y-133777380D01*
X139926190Y-133920238D01*
X140021428Y-134015476D01*
X140116666Y-134063095D01*
X152640476Y-136427380D02*
X152640476Y-135427380D01*
X152259523Y-135427380D01*
X152164285Y-135475000D01*
X152116666Y-135522619D01*
X152069047Y-135617857D01*
X152069047Y-135760714D01*
X152116666Y-135855952D01*
X152164285Y-135903571D01*
X152259523Y-135951190D01*
X152640476Y-135951190D01*
X151069047Y-136332142D02*
X151116666Y-136379761D01*
X151259523Y-136427380D01*
X151354761Y-136427380D01*
X151497619Y-136379761D01*
X151592857Y-136284523D01*
X151640476Y-136189285D01*
X151688095Y-135998809D01*
X151688095Y-135855952D01*
X151640476Y-135665476D01*
X151592857Y-135570238D01*
X151497619Y-135475000D01*
X151354761Y-135427380D01*
X151259523Y-135427380D01*
X151116666Y-135475000D01*
X151069047Y-135522619D01*
X150307142Y-135903571D02*
X150164285Y-135951190D01*
X150116666Y-135998809D01*
X150069047Y-136094047D01*
X150069047Y-136236904D01*
X150116666Y-136332142D01*
X150164285Y-136379761D01*
X150259523Y-136427380D01*
X150640476Y-136427380D01*
X150640476Y-135427380D01*
X150307142Y-135427380D01*
X150211904Y-135475000D01*
X150164285Y-135522619D01*
X150116666Y-135617857D01*
X150116666Y-135713095D01*
X150164285Y-135808333D01*
X150211904Y-135855952D01*
X150307142Y-135903571D01*
X150640476Y-135903571D01*
X148450000Y-136427380D02*
X148450000Y-135427380D01*
X148450000Y-136379761D02*
X148545238Y-136427380D01*
X148735714Y-136427380D01*
X148830952Y-136379761D01*
X148878571Y-136332142D01*
X148926190Y-136236904D01*
X148926190Y-135951190D01*
X148878571Y-135855952D01*
X148830952Y-135808333D01*
X148735714Y-135760714D01*
X148545238Y-135760714D01*
X148450000Y-135808333D01*
X147592857Y-136379761D02*
X147688095Y-136427380D01*
X147878571Y-136427380D01*
X147973809Y-136379761D01*
X148021428Y-136284523D01*
X148021428Y-135903571D01*
X147973809Y-135808333D01*
X147878571Y-135760714D01*
X147688095Y-135760714D01*
X147592857Y-135808333D01*
X147545238Y-135903571D01*
X147545238Y-135998809D01*
X148021428Y-136094047D01*
X147164285Y-136379761D02*
X147069047Y-136427380D01*
X146878571Y-136427380D01*
X146783333Y-136379761D01*
X146735714Y-136284523D01*
X146735714Y-136236904D01*
X146783333Y-136141666D01*
X146878571Y-136094047D01*
X147021428Y-136094047D01*
X147116666Y-136046428D01*
X147164285Y-135951190D01*
X147164285Y-135903571D01*
X147116666Y-135808333D01*
X147021428Y-135760714D01*
X146878571Y-135760714D01*
X146783333Y-135808333D01*
X146307142Y-136427380D02*
X146307142Y-135760714D01*
X146307142Y-135427380D02*
X146354761Y-135475000D01*
X146307142Y-135522619D01*
X146259523Y-135475000D01*
X146307142Y-135427380D01*
X146307142Y-135522619D01*
X145402380Y-135760714D02*
X145402380Y-136570238D01*
X145450000Y-136665476D01*
X145497619Y-136713095D01*
X145592857Y-136760714D01*
X145735714Y-136760714D01*
X145830952Y-136713095D01*
X145402380Y-136379761D02*
X145497619Y-136427380D01*
X145688095Y-136427380D01*
X145783333Y-136379761D01*
X145830952Y-136332142D01*
X145878571Y-136236904D01*
X145878571Y-135951190D01*
X145830952Y-135855952D01*
X145783333Y-135808333D01*
X145688095Y-135760714D01*
X145497619Y-135760714D01*
X145402380Y-135808333D01*
X144926190Y-135760714D02*
X144926190Y-136427380D01*
X144926190Y-135855952D02*
X144878571Y-135808333D01*
X144783333Y-135760714D01*
X144640476Y-135760714D01*
X144545238Y-135808333D01*
X144497619Y-135903571D01*
X144497619Y-136427380D01*
X143640476Y-136379761D02*
X143735714Y-136427380D01*
X143926190Y-136427380D01*
X144021428Y-136379761D01*
X144069047Y-136284523D01*
X144069047Y-135903571D01*
X144021428Y-135808333D01*
X143926190Y-135760714D01*
X143735714Y-135760714D01*
X143640476Y-135808333D01*
X143592857Y-135903571D01*
X143592857Y-135998809D01*
X144069047Y-136094047D01*
X142735714Y-136427380D02*
X142735714Y-135427380D01*
X142735714Y-136379761D02*
X142830952Y-136427380D01*
X143021428Y-136427380D01*
X143116666Y-136379761D01*
X143164285Y-136332142D01*
X143211904Y-136236904D01*
X143211904Y-135951190D01*
X143164285Y-135855952D01*
X143116666Y-135808333D01*
X143021428Y-135760714D01*
X142830952Y-135760714D01*
X142735714Y-135808333D01*
X141497619Y-136427380D02*
X141497619Y-135427380D01*
X141497619Y-135808333D02*
X141402380Y-135760714D01*
X141211904Y-135760714D01*
X141116666Y-135808333D01*
X141069047Y-135855952D01*
X141021428Y-135951190D01*
X141021428Y-136236904D01*
X141069047Y-136332142D01*
X141116666Y-136379761D01*
X141211904Y-136427380D01*
X141402380Y-136427380D01*
X141497619Y-136379761D01*
X140688095Y-135760714D02*
X140450000Y-136427380D01*
X140211904Y-135760714D02*
X140450000Y-136427380D01*
X140545238Y-136665476D01*
X140592857Y-136713095D01*
X140688095Y-136760714D01*
X138545238Y-136427380D02*
X139116666Y-136427380D01*
X138830952Y-136427380D02*
X138830952Y-135427380D01*
X138926190Y-135570238D01*
X139021428Y-135665476D01*
X139116666Y-135713095D01*
X138116666Y-136332142D02*
X138069047Y-136379761D01*
X138116666Y-136427380D01*
X138164285Y-136379761D01*
X138116666Y-136332142D01*
X138116666Y-136427380D01*
X137450000Y-135427380D02*
X137354761Y-135427380D01*
X137259523Y-135475000D01*
X137211904Y-135522619D01*
X137164285Y-135617857D01*
X137116666Y-135808333D01*
X137116666Y-136046428D01*
X137164285Y-136236904D01*
X137211904Y-136332142D01*
X137259523Y-136379761D01*
X137354761Y-136427380D01*
X137450000Y-136427380D01*
X137545238Y-136379761D01*
X137592857Y-136332142D01*
X137640476Y-136236904D01*
X137688095Y-136046428D01*
X137688095Y-135808333D01*
X137640476Y-135617857D01*
X137592857Y-135522619D01*
X137545238Y-135475000D01*
X137450000Y-135427380D01*
X136783333Y-135427380D02*
X136164285Y-135427380D01*
X136497619Y-135808333D01*
X136354761Y-135808333D01*
X136259523Y-135855952D01*
X136211904Y-135903571D01*
X136164285Y-135998809D01*
X136164285Y-136236904D01*
X136211904Y-136332142D01*
X136259523Y-136379761D01*
X136354761Y-136427380D01*
X136640476Y-136427380D01*
X136735714Y-136379761D01*
X136783333Y-136332142D01*
X135592857Y-135855952D02*
X135688095Y-135808333D01*
X135735714Y-135760714D01*
X135783333Y-135665476D01*
X135783333Y-135617857D01*
X135735714Y-135522619D01*
X135688095Y-135475000D01*
X135592857Y-135427380D01*
X135402380Y-135427380D01*
X135307142Y-135475000D01*
X135259523Y-135522619D01*
X135211904Y-135617857D01*
X135211904Y-135665476D01*
X135259523Y-135760714D01*
X135307142Y-135808333D01*
X135402380Y-135855952D01*
X135592857Y-135855952D01*
X135688095Y-135903571D01*
X135735714Y-135951190D01*
X135783333Y-136046428D01*
X135783333Y-136236904D01*
X135735714Y-136332142D01*
X135688095Y-136379761D01*
X135592857Y-136427380D01*
X135402380Y-136427380D01*
X135307142Y-136379761D01*
X135259523Y-136332142D01*
X135211904Y-136236904D01*
X135211904Y-136046428D01*
X135259523Y-135951190D01*
X135307142Y-135903571D01*
X135402380Y-135855952D01*
D11*
%TO.C,J2*%
X160960600Y-56180000D03*
D12*
X163500600Y-56180000D03*
X166040600Y-56180000D03*
X168580600Y-56180000D03*
%TD*%
D13*
%TO.C,J5*%
X293530000Y-47450000D03*
X295030000Y-51650000D03*
X299030000Y-51650000D03*
X302030000Y-51650000D03*
D14*
X296830000Y-49550000D03*
X303830000Y-49550000D03*
%TD*%
D15*
%TO.C,SW19*%
X151311876Y-89209681D03*
D16*
X147928332Y-93771438D03*
D15*
X144617281Y-90608427D03*
D17*
X142925509Y-92889305D03*
X152931155Y-94653571D03*
D18*
G36*
X145015669Y-101939755D02*
G01*
X142947572Y-101575094D01*
X143312233Y-99506997D01*
X145380330Y-99871658D01*
X145015669Y-101939755D01*
G37*
D17*
X146625971Y-101157496D03*
X149087990Y-101591617D03*
G36*
G01*
X142126890Y-94423941D02*
X142126889Y-94423941D01*
G75*
G02*
X141275172Y-93207562I182331J1034048D01*
G01*
X141483550Y-92025792D01*
G75*
G02*
X142699929Y-91174075I1034048J-182331D01*
G01*
X142699929Y-91174075D01*
G75*
G02*
X143551646Y-92390454I-182331J-1034048D01*
G01*
X143343268Y-93572224D01*
G75*
G02*
X142126889Y-94423941I-1034048J182331D01*
G01*
G37*
G36*
G01*
X153156736Y-96368801D02*
X153156735Y-96368801D01*
G75*
G02*
X152305018Y-95152422I182331J1034048D01*
G01*
X152513396Y-93970652D01*
G75*
G02*
X153729775Y-93118935I1034048J-182331D01*
G01*
X153729775Y-93118935D01*
G75*
G02*
X154581492Y-94335314I-182331J-1034048D01*
G01*
X154373114Y-95517084D01*
G75*
G02*
X153156735Y-96368801I-1034048J182331D01*
G01*
G37*
X146681850Y-86443663D03*
X151605889Y-87311904D03*
%TD*%
D15*
%TO.C,SW36*%
X183232192Y-88327548D03*
D16*
X181612913Y-93771438D03*
D15*
X177419729Y-91931626D03*
D17*
X176610090Y-94653571D03*
X186615736Y-92889305D03*
D18*
G36*
X181669634Y-102443335D02*
G01*
X179601537Y-102807996D01*
X179236876Y-100739899D01*
X181304973Y-100375238D01*
X181669634Y-102443335D01*
G37*
D17*
X182915274Y-101157496D03*
X185377294Y-100723376D03*
G36*
G01*
X176384509Y-96368801D02*
X176384510Y-96368801D01*
G75*
G02*
X175168131Y-95517084I-182331J1034048D01*
G01*
X174959753Y-94335314D01*
G75*
G02*
X175811470Y-93118935I1034048J182331D01*
G01*
X175811470Y-93118935D01*
G75*
G02*
X177027849Y-93970652I182331J-1034048D01*
G01*
X177236227Y-95152422D01*
G75*
G02*
X176384510Y-96368801I-1034048J-182331D01*
G01*
G37*
G36*
G01*
X187414355Y-94423941D02*
X187414356Y-94423941D01*
G75*
G02*
X186197977Y-93572224I-182331J1034048D01*
G01*
X185989599Y-92390454D01*
G75*
G02*
X186841316Y-91174075I1034048J182331D01*
G01*
X186841316Y-91174075D01*
G75*
G02*
X188057695Y-92025792I182331J-1034048D01*
G01*
X188266073Y-93207562D01*
G75*
G02*
X187414356Y-94423941I-1034048J-182331D01*
G01*
G37*
X177935356Y-87311904D03*
X182859395Y-86443663D03*
%TD*%
D19*
%TO.C,HOLE14*%
X177501200Y-60110000D03*
%TD*%
%TO.C,HOLE13*%
X152040000Y-60110000D03*
%TD*%
D20*
%TO.C,SW1*%
X45715000Y-49035000D03*
X58642000Y-46495000D03*
D21*
X55340000Y-46495000D03*
X48990000Y-49035000D03*
D22*
X58642000Y-46495000D03*
D23*
X47720000Y-51575000D03*
X57880000Y-51575000D03*
D24*
X52800000Y-51575000D03*
D22*
X45715000Y-49035000D03*
%TD*%
D20*
%TO.C,SW2*%
X69995304Y-40039858D03*
X83116991Y-38865012D03*
D21*
X79833079Y-38519859D03*
X73252363Y-40382189D03*
D18*
G36*
X84570620Y-37710634D02*
G01*
X84298846Y-40296391D01*
X81663362Y-40019390D01*
X81935136Y-37433633D01*
X84570620Y-37710634D01*
G37*
D23*
X71723818Y-42775523D03*
X81828160Y-43837533D03*
D24*
X76775989Y-43306528D03*
D18*
G36*
X71448933Y-38885480D02*
G01*
X71177159Y-41471237D01*
X68541675Y-41194236D01*
X68813449Y-38608479D01*
X71448933Y-38885480D01*
G37*
%TD*%
D20*
%TO.C,SW3*%
X93380267Y-33214266D03*
X106551944Y-32957604D03*
D21*
X103300108Y-32384218D03*
X96605513Y-33782964D03*
D18*
G36*
X108082557Y-31907438D02*
G01*
X107631072Y-34467938D01*
X105021331Y-34007770D01*
X105472816Y-31447270D01*
X108082557Y-31907438D01*
G37*
D23*
X94913741Y-36063842D03*
X104919387Y-37828108D03*
D24*
X99916564Y-36945975D03*
D18*
G36*
X94910880Y-32164100D02*
G01*
X94459395Y-34724600D01*
X91849654Y-34264432D01*
X92301139Y-31703932D01*
X94910880Y-32164100D01*
G37*
%TD*%
D20*
%TO.C,SW4*%
X111313855Y-41212411D03*
X124485532Y-40955749D03*
D21*
X121233696Y-40382363D03*
X114539101Y-41781109D03*
D18*
G36*
X126016145Y-39905583D02*
G01*
X125564660Y-42466083D01*
X122954919Y-42005915D01*
X123406404Y-39445415D01*
X126016145Y-39905583D01*
G37*
D23*
X112847329Y-44061987D03*
X122852975Y-45826253D03*
D24*
X117850152Y-44944120D03*
D18*
G36*
X112844468Y-40162245D02*
G01*
X112392983Y-42722745D01*
X109783242Y-42262577D01*
X110234727Y-39702077D01*
X112844468Y-40162245D01*
G37*
%TD*%
D20*
%TO.C,SW5*%
X129660943Y-46865482D03*
X142832620Y-46608820D03*
D21*
X139580784Y-46035434D03*
X132886189Y-47434180D03*
D18*
G36*
X144363233Y-45558654D02*
G01*
X143911748Y-48119154D01*
X141302007Y-47658986D01*
X141753492Y-45098486D01*
X144363233Y-45558654D01*
G37*
D23*
X131194417Y-49715058D03*
X141200063Y-51479324D03*
D24*
X136197240Y-50597191D03*
D18*
G36*
X131191556Y-45815316D02*
G01*
X130740071Y-48375816D01*
X128130330Y-47915648D01*
X128581815Y-45355148D01*
X131191556Y-45815316D01*
G37*
%TD*%
D20*
%TO.C,SW6*%
X26665000Y-63322500D03*
X39592000Y-60782500D03*
D21*
X36290000Y-60782500D03*
X29940000Y-63322500D03*
D22*
X39592000Y-60782500D03*
D23*
X28670000Y-65862500D03*
X38830000Y-65862500D03*
D24*
X33750000Y-65862500D03*
D22*
X26665000Y-63322500D03*
%TD*%
D20*
%TO.C,SW7*%
X45715000Y-68085000D03*
X58642000Y-65545000D03*
D21*
X55340000Y-65545000D03*
X48990000Y-68085000D03*
D22*
X58642000Y-65545000D03*
D23*
X47720000Y-70625000D03*
X57880000Y-70625000D03*
D24*
X52800000Y-70625000D03*
D22*
X45715000Y-68085000D03*
%TD*%
D20*
%TO.C,SW8*%
X68004036Y-58985500D03*
X81125723Y-57810654D03*
D21*
X77841811Y-57465501D03*
X71261095Y-59327831D03*
D18*
G36*
X82579352Y-56656276D02*
G01*
X82307578Y-59242033D01*
X79672094Y-58965032D01*
X79943868Y-56379275D01*
X82579352Y-56656276D01*
G37*
D23*
X69732550Y-61721165D03*
X79836892Y-62783175D03*
D24*
X74784721Y-62252170D03*
D18*
G36*
X69457665Y-57831122D02*
G01*
X69185891Y-60416879D01*
X66550407Y-60139878D01*
X66822181Y-57554121D01*
X69457665Y-57831122D01*
G37*
%TD*%
D20*
%TO.C,SW9*%
X90072269Y-51974854D03*
X103243946Y-51718192D03*
D21*
X99992110Y-51144806D03*
X93297515Y-52543552D03*
D18*
G36*
X104774559Y-50668026D02*
G01*
X104323074Y-53228526D01*
X101713333Y-52768358D01*
X102164818Y-50207858D01*
X104774559Y-50668026D01*
G37*
D23*
X91605743Y-54824430D03*
X101611389Y-56588696D03*
D24*
X96608566Y-55706563D03*
D18*
G36*
X91602882Y-50924688D02*
G01*
X91151397Y-53485188D01*
X88541656Y-53025020D01*
X88993141Y-50464520D01*
X91602882Y-50924688D01*
G37*
%TD*%
D20*
%TO.C,SW10*%
X108005857Y-59972999D03*
X121177534Y-59716337D03*
D21*
X117925698Y-59142951D03*
X111231103Y-60541697D03*
D18*
G36*
X122708147Y-58666171D02*
G01*
X122256662Y-61226671D01*
X119646921Y-60766503D01*
X120098406Y-58206003D01*
X122708147Y-58666171D01*
G37*
D23*
X109539331Y-62822575D03*
X119544977Y-64586841D03*
D24*
X114542154Y-63704708D03*
D18*
G36*
X109536470Y-58922833D02*
G01*
X109084985Y-61483333D01*
X106475244Y-61023165D01*
X106926729Y-58462665D01*
X109536470Y-58922833D01*
G37*
%TD*%
D20*
%TO.C,SW11*%
X126352945Y-65626070D03*
X139524622Y-65369408D03*
D21*
X136272786Y-64796022D03*
X129578191Y-66194768D03*
D18*
G36*
X141055235Y-64319242D02*
G01*
X140603750Y-66879742D01*
X137994009Y-66419574D01*
X138445494Y-63859074D01*
X141055235Y-64319242D01*
G37*
D23*
X127886419Y-68475646D03*
X137892065Y-70239912D03*
D24*
X132889242Y-69357779D03*
D18*
G36*
X127883558Y-64575904D02*
G01*
X127432073Y-67136404D01*
X124822332Y-66676236D01*
X125273817Y-64115736D01*
X127883558Y-64575904D01*
G37*
%TD*%
D20*
%TO.C,SW12*%
X144700033Y-71279141D03*
X157871710Y-71022479D03*
D21*
X154619874Y-70449093D03*
X147925279Y-71847839D03*
D18*
G36*
X159402323Y-69972313D02*
G01*
X158950838Y-72532813D01*
X156341097Y-72072645D01*
X156792582Y-69512145D01*
X159402323Y-69972313D01*
G37*
D23*
X146233507Y-74128717D03*
X156239153Y-75892983D03*
D24*
X151236330Y-75010850D03*
D18*
G36*
X146230646Y-70228975D02*
G01*
X145779161Y-72789475D01*
X143169420Y-72329307D01*
X143620905Y-69768807D01*
X146230646Y-70228975D01*
G37*
%TD*%
D20*
%TO.C,SW13*%
X26665000Y-82372500D03*
X39592000Y-79832500D03*
D21*
X36290000Y-79832500D03*
X29940000Y-82372500D03*
D22*
X39592000Y-79832500D03*
D23*
X28670000Y-84912500D03*
X38830000Y-84912500D03*
D24*
X33750000Y-84912500D03*
D22*
X26665000Y-82372500D03*
%TD*%
D20*
%TO.C,SW14*%
X45715000Y-87135000D03*
X58642000Y-84595000D03*
D21*
X55340000Y-84595000D03*
X48990000Y-87135000D03*
D22*
X58642000Y-84595000D03*
D23*
X47720000Y-89675000D03*
X57880000Y-89675000D03*
D24*
X52800000Y-89675000D03*
D22*
X45715000Y-87135000D03*
%TD*%
D20*
%TO.C,SW15*%
X66012769Y-77931142D03*
X79134456Y-76756296D03*
D21*
X75850544Y-76411143D03*
X69269828Y-78273473D03*
D18*
G36*
X80588085Y-75601918D02*
G01*
X80316311Y-78187675D01*
X77680827Y-77910674D01*
X77952601Y-75324917D01*
X80588085Y-75601918D01*
G37*
D23*
X67741283Y-80666807D03*
X77845625Y-81728817D03*
D24*
X72793454Y-81197812D03*
D18*
G36*
X67466398Y-76776764D02*
G01*
X67194624Y-79362521D01*
X64559140Y-79085520D01*
X64830914Y-76499763D01*
X67466398Y-76776764D01*
G37*
%TD*%
D20*
%TO.C,SW16*%
X86764271Y-70735442D03*
X99935948Y-70478780D03*
D21*
X96684112Y-69905394D03*
X89989517Y-71304140D03*
D18*
G36*
X101466561Y-69428614D02*
G01*
X101015076Y-71989114D01*
X98405335Y-71528946D01*
X98856820Y-68968446D01*
X101466561Y-69428614D01*
G37*
D23*
X88297745Y-73585018D03*
X98303391Y-75349284D03*
D24*
X93300568Y-74467151D03*
D18*
G36*
X88294884Y-69685276D02*
G01*
X87843399Y-72245776D01*
X85233658Y-71785608D01*
X85685143Y-69225108D01*
X88294884Y-69685276D01*
G37*
%TD*%
D20*
%TO.C,SW17*%
X104697859Y-78733586D03*
X117869536Y-78476924D03*
D21*
X114617700Y-77903538D03*
X107923105Y-79302284D03*
D18*
G36*
X119400149Y-77426758D02*
G01*
X118948664Y-79987258D01*
X116338923Y-79527090D01*
X116790408Y-76966590D01*
X119400149Y-77426758D01*
G37*
D23*
X106231333Y-81583162D03*
X116236979Y-83347428D03*
D24*
X111234156Y-82465295D03*
D18*
G36*
X106228472Y-77683420D02*
G01*
X105776987Y-80243920D01*
X103167246Y-79783752D01*
X103618731Y-77223252D01*
X106228472Y-77683420D01*
G37*
%TD*%
D20*
%TO.C,SW18*%
X123044947Y-84386658D03*
X136216624Y-84129996D03*
D21*
X132964788Y-83556610D03*
X126270193Y-84955356D03*
D18*
G36*
X137747237Y-83079830D02*
G01*
X137295752Y-85640330D01*
X134686011Y-85180162D01*
X135137496Y-82619662D01*
X137747237Y-83079830D01*
G37*
D23*
X124578421Y-87236234D03*
X134584067Y-89000500D03*
D24*
X129581244Y-88118367D03*
D18*
G36*
X124575560Y-83336492D02*
G01*
X124124075Y-85896992D01*
X121514334Y-85436824D01*
X121965819Y-82876324D01*
X124575560Y-83336492D01*
G37*
%TD*%
D20*
%TO.C,SW20*%
X98397586Y-99196287D03*
X111569263Y-98939625D03*
D21*
X108317427Y-98366239D03*
X101622832Y-99764985D03*
D18*
G36*
X113099876Y-97889459D02*
G01*
X112648391Y-100449959D01*
X110038650Y-99989791D01*
X110490135Y-97429291D01*
X113099876Y-97889459D01*
G37*
D23*
X99931060Y-102045863D03*
X109936706Y-103810129D03*
D24*
X104933883Y-102927996D03*
D18*
G36*
X99928199Y-98146121D02*
G01*
X99476714Y-100706621D01*
X96866973Y-100246453D01*
X97318458Y-97685953D01*
X99928199Y-98146121D01*
G37*
%TD*%
D20*
%TO.C,SW21*%
X118709046Y-103241793D03*
X131788256Y-104820772D03*
D21*
X128647868Y-103800398D03*
X121823756Y-104253824D03*
D18*
G36*
X133450128Y-103993846D02*
G01*
X132646684Y-106466593D01*
X130126384Y-105647698D01*
X130929828Y-103174951D01*
X133450128Y-103993846D01*
G37*
D23*
X119831011Y-106277056D03*
X129493745Y-109416668D03*
D24*
X124662378Y-107846862D03*
D18*
G36*
X120370918Y-102414867D02*
G01*
X119567474Y-104887614D01*
X117047174Y-104068719D01*
X117850618Y-101595972D01*
X120370918Y-102414867D01*
G37*
%TD*%
D20*
%TO.C,SW22*%
X138259810Y-110074738D03*
X150991983Y-113458624D03*
D21*
X148024165Y-112011123D03*
X141203360Y-111510403D03*
D18*
G36*
X152752768Y-112871034D02*
G01*
X151613003Y-115207898D01*
X149231198Y-114046214D01*
X150370963Y-111709350D01*
X152752768Y-112871034D01*
G37*
D23*
X138948429Y-113236609D03*
X148080177Y-117690459D03*
D24*
X143514303Y-115463534D03*
D18*
G36*
X140020595Y-109487148D02*
G01*
X138880830Y-111824012D01*
X136499025Y-110662328D01*
X137638790Y-108325464D01*
X140020595Y-109487148D01*
G37*
%TD*%
D20*
%TO.C,SW23*%
X112822272Y-121359419D03*
X125901482Y-122938398D03*
D21*
X122761094Y-121918024D03*
X115936982Y-122371450D03*
D18*
G36*
X127563354Y-122111472D02*
G01*
X126759910Y-124584219D01*
X124239610Y-123765324D01*
X125043054Y-121292577D01*
X127563354Y-122111472D01*
G37*
D23*
X113944237Y-124394682D03*
X123606971Y-127534294D03*
D24*
X118775604Y-125964488D03*
D18*
G36*
X114484144Y-120532493D02*
G01*
X113680700Y-123005240D01*
X111160400Y-122186345D01*
X111963844Y-119713598D01*
X114484144Y-120532493D01*
G37*
%TD*%
D20*
%TO.C,SW24*%
X185925576Y-49326077D03*
X198215119Y-44579915D03*
D21*
X194963284Y-45153301D03*
X189150821Y-48757379D03*
D18*
G36*
X199294247Y-43069581D02*
G01*
X199745732Y-45630081D01*
X197135991Y-46090249D01*
X196684506Y-43529749D01*
X199294247Y-43069581D01*
G37*
D23*
X188341182Y-51479324D03*
X198346828Y-49715058D03*
D24*
X193344005Y-50597191D03*
D18*
G36*
X187004704Y-47815743D02*
G01*
X187456189Y-50376243D01*
X184846448Y-50836411D01*
X184394963Y-48275911D01*
X187004704Y-47815743D01*
G37*
%TD*%
D20*
%TO.C,SW25*%
X204272664Y-43673006D03*
X216562207Y-38926844D03*
D21*
X213310372Y-39500230D03*
X207497909Y-43104308D03*
D18*
G36*
X217641335Y-37416510D02*
G01*
X218092820Y-39977010D01*
X215483079Y-40437178D01*
X215031594Y-37876678D01*
X217641335Y-37416510D01*
G37*
D23*
X206688270Y-45826253D03*
X216693916Y-44061987D03*
D24*
X211691093Y-44944120D03*
D18*
G36*
X205351792Y-42162672D02*
G01*
X205803277Y-44723172D01*
X203193536Y-45183340D01*
X202742051Y-42622840D01*
X205351792Y-42162672D01*
G37*
%TD*%
D20*
%TO.C,SW26*%
X222206252Y-35674861D03*
X234495795Y-30928699D03*
D21*
X231243960Y-31502085D03*
X225431497Y-35106163D03*
D18*
G36*
X235574923Y-29418365D02*
G01*
X236026408Y-31978865D01*
X233416667Y-32439033D01*
X232965182Y-29878533D01*
X235574923Y-29418365D01*
G37*
D23*
X224621858Y-37828108D03*
X234627504Y-36063842D03*
D24*
X229624681Y-36945975D03*
D18*
G36*
X223285380Y-34164527D02*
G01*
X223736865Y-36725027D01*
X221127124Y-37185195D01*
X220675639Y-34624695D01*
X223285380Y-34164527D01*
G37*
%TD*%
D20*
%TO.C,SW27*%
X245453566Y-41521027D03*
X258044248Y-37643701D03*
D21*
X254760337Y-37988854D03*
X248710625Y-41178696D03*
D18*
G36*
X259226103Y-36212322D02*
G01*
X259497877Y-38798079D01*
X256862393Y-39075080D01*
X256590619Y-36489323D01*
X259226103Y-36212322D01*
G37*
D23*
X247713085Y-43837533D03*
X257817427Y-42775523D03*
D24*
X252765256Y-43306528D03*
D18*
G36*
X246635421Y-40089648D02*
G01*
X246907195Y-42675405D01*
X244271711Y-42952406D01*
X243999937Y-40366649D01*
X246635421Y-40089648D01*
G37*
%TD*%
D20*
%TO.C,SW28*%
X269656245Y-49035000D03*
X282583245Y-46495000D03*
D21*
X279281245Y-46495000D03*
X272931245Y-49035000D03*
D22*
X282583245Y-46495000D03*
D23*
X271661245Y-51575000D03*
X281821245Y-51575000D03*
D24*
X276741245Y-51575000D03*
D22*
X269656245Y-49035000D03*
%TD*%
D20*
%TO.C,SW29*%
X170886486Y-73739736D03*
X183176029Y-68993574D03*
D21*
X179924194Y-69566960D03*
X174111731Y-73171038D03*
D18*
G36*
X184255157Y-67483240D02*
G01*
X184706642Y-70043740D01*
X182096901Y-70503908D01*
X181645416Y-67943408D01*
X184255157Y-67483240D01*
G37*
D23*
X173302092Y-75892983D03*
X183307738Y-74128717D03*
D24*
X178304915Y-75010850D03*
D18*
G36*
X171965614Y-72229402D02*
G01*
X172417099Y-74789902D01*
X169807358Y-75250070D01*
X169355873Y-72689570D01*
X171965614Y-72229402D01*
G37*
%TD*%
D20*
%TO.C,SW30*%
X189233574Y-68086665D03*
X201523117Y-63340503D03*
D21*
X198271282Y-63913889D03*
X192458819Y-67517967D03*
D18*
G36*
X202602245Y-61830169D02*
G01*
X203053730Y-64390669D01*
X200443989Y-64850837D01*
X199992504Y-62290337D01*
X202602245Y-61830169D01*
G37*
D23*
X191649180Y-70239912D03*
X201654826Y-68475646D03*
D24*
X196652003Y-69357779D03*
D18*
G36*
X190312702Y-66576331D02*
G01*
X190764187Y-69136831D01*
X188154446Y-69596999D01*
X187702961Y-67036499D01*
X190312702Y-66576331D01*
G37*
%TD*%
D20*
%TO.C,SW31*%
X207580662Y-62433594D03*
X219870205Y-57687432D03*
D21*
X216618370Y-58260818D03*
X210805907Y-61864896D03*
D18*
G36*
X220949333Y-56177098D02*
G01*
X221400818Y-58737598D01*
X218791077Y-59197766D01*
X218339592Y-56637266D01*
X220949333Y-56177098D01*
G37*
D23*
X209996268Y-64586841D03*
X220001914Y-62822575D03*
D24*
X214999091Y-63704708D03*
D18*
G36*
X208659790Y-60923260D02*
G01*
X209111275Y-63483760D01*
X206501534Y-63943928D01*
X206050049Y-61383428D01*
X208659790Y-60923260D01*
G37*
%TD*%
D20*
%TO.C,SW32*%
X225514250Y-54435449D03*
X237803793Y-49689287D03*
D21*
X234551958Y-50262673D03*
X228739495Y-53866751D03*
D18*
G36*
X238882921Y-48178953D02*
G01*
X239334406Y-50739453D01*
X236724665Y-51199621D01*
X236273180Y-48639121D01*
X238882921Y-48178953D01*
G37*
D23*
X227929856Y-56588696D03*
X237935502Y-54824430D03*
D24*
X232932679Y-55706563D03*
D18*
G36*
X226593378Y-52925115D02*
G01*
X227044863Y-55485615D01*
X224435122Y-55945783D01*
X223983637Y-53385283D01*
X226593378Y-52925115D01*
G37*
%TD*%
D20*
%TO.C,SW33*%
X247444834Y-60466669D03*
X260035516Y-56589343D03*
D21*
X256751605Y-56934496D03*
X250701893Y-60124338D03*
D18*
G36*
X261217371Y-55157964D02*
G01*
X261489145Y-57743721D01*
X258853661Y-58020722D01*
X258581887Y-55434965D01*
X261217371Y-55157964D01*
G37*
D23*
X249704353Y-62783175D03*
X259808695Y-61721165D03*
D24*
X254756524Y-62252170D03*
D18*
G36*
X248626689Y-59035290D02*
G01*
X248898463Y-61621047D01*
X246262979Y-61898048D01*
X245991205Y-59312291D01*
X248626689Y-59035290D01*
G37*
%TD*%
D20*
%TO.C,SW34*%
X269656245Y-68085000D03*
X282583245Y-65545000D03*
D21*
X279281245Y-65545000D03*
X272931245Y-68085000D03*
D22*
X282583245Y-65545000D03*
D23*
X271661245Y-70625000D03*
X281821245Y-70625000D03*
D24*
X276741245Y-70625000D03*
D22*
X269656245Y-68085000D03*
%TD*%
D20*
%TO.C,SW35*%
X288706245Y-63322500D03*
X301633245Y-60782500D03*
D21*
X298331245Y-60782500D03*
X291981245Y-63322500D03*
D22*
X301633245Y-60782500D03*
D23*
X290711245Y-65862500D03*
X300871245Y-65862500D03*
D24*
X295791245Y-65862500D03*
D22*
X288706245Y-63322500D03*
%TD*%
D20*
%TO.C,SW37*%
X192541572Y-86847253D03*
X204831115Y-82101091D03*
D21*
X201579280Y-82674477D03*
X195766817Y-86278555D03*
D18*
G36*
X205910243Y-80590757D02*
G01*
X206361728Y-83151257D01*
X203751987Y-83611425D01*
X203300502Y-81050925D01*
X205910243Y-80590757D01*
G37*
D23*
X194957178Y-89000500D03*
X204962824Y-87236234D03*
D24*
X199960001Y-88118367D03*
D18*
G36*
X193620700Y-85336919D02*
G01*
X194072185Y-87897419D01*
X191462444Y-88357587D01*
X191010959Y-85797087D01*
X193620700Y-85336919D01*
G37*
%TD*%
D20*
%TO.C,SW38*%
X210888660Y-81194181D03*
X223178203Y-76448019D03*
D21*
X219926368Y-77021405D03*
X214113905Y-80625483D03*
D18*
G36*
X224257331Y-74937685D02*
G01*
X224708816Y-77498185D01*
X222099075Y-77958353D01*
X221647590Y-75397853D01*
X224257331Y-74937685D01*
G37*
D23*
X213304266Y-83347428D03*
X223309912Y-81583162D03*
D24*
X218307089Y-82465295D03*
D18*
G36*
X211967788Y-79683847D02*
G01*
X212419273Y-82244347D01*
X209809532Y-82704515D01*
X209358047Y-80144015D01*
X211967788Y-79683847D01*
G37*
%TD*%
D20*
%TO.C,SW39*%
X228822248Y-73196037D03*
X241111791Y-68449875D03*
D21*
X237859956Y-69023261D03*
X232047493Y-72627339D03*
D18*
G36*
X242190919Y-66939541D02*
G01*
X242642404Y-69500041D01*
X240032663Y-69960209D01*
X239581178Y-67399709D01*
X242190919Y-66939541D01*
G37*
D23*
X231237854Y-75349284D03*
X241243500Y-73585018D03*
D24*
X236240677Y-74467151D03*
D18*
G36*
X229901376Y-71685703D02*
G01*
X230352861Y-74246203D01*
X227743120Y-74706371D01*
X227291635Y-72145871D01*
X229901376Y-71685703D01*
G37*
%TD*%
D20*
%TO.C,SW40*%
X249436101Y-79412311D03*
X262026783Y-75534985D03*
D21*
X258742872Y-75880138D03*
X252693160Y-79069980D03*
D18*
G36*
X263208638Y-74103606D02*
G01*
X263480412Y-76689363D01*
X260844928Y-76966364D01*
X260573154Y-74380607D01*
X263208638Y-74103606D01*
G37*
D23*
X251695620Y-81728817D03*
X261799962Y-80666807D03*
D24*
X256747791Y-81197812D03*
D18*
G36*
X250617956Y-77980932D02*
G01*
X250889730Y-80566689D01*
X248254246Y-80843690D01*
X247982472Y-78257933D01*
X250617956Y-77980932D01*
G37*
%TD*%
D20*
%TO.C,SW41*%
X269656245Y-87135000D03*
X282583245Y-84595000D03*
D21*
X279281245Y-84595000D03*
X272931245Y-87135000D03*
D22*
X282583245Y-84595000D03*
D23*
X271661245Y-89675000D03*
X281821245Y-89675000D03*
D24*
X276741245Y-89675000D03*
D22*
X269656245Y-87135000D03*
%TD*%
D20*
%TO.C,SW42*%
X288706245Y-82372500D03*
X301633245Y-79832500D03*
D21*
X298331245Y-79832500D03*
X291981245Y-82372500D03*
D22*
X301633245Y-79832500D03*
D23*
X290711245Y-84912500D03*
X300871245Y-84912500D03*
D24*
X295791245Y-84912500D03*
D22*
X288706245Y-82372500D03*
%TD*%
D20*
%TO.C,SW43*%
X178545523Y-116286457D03*
X189050771Y-108336696D03*
D21*
X186082953Y-109784198D03*
X181489074Y-114850791D03*
D18*
G36*
X189671791Y-106587422D02*
G01*
X190811556Y-108924286D01*
X188429751Y-110085970D01*
X187289986Y-107749106D01*
X189671791Y-106587422D01*
G37*
D23*
X181461068Y-117690459D03*
X190592816Y-113236609D03*
D24*
X186026942Y-115463534D03*
D18*
G36*
X179166543Y-114537183D02*
G01*
X180306308Y-116874047D01*
X177924503Y-118035731D01*
X176784738Y-115698867D01*
X179166543Y-114537183D01*
G37*
%TD*%
D20*
%TO.C,SW44*%
X197355728Y-107620564D03*
X208865133Y-101210218D03*
D21*
X205724744Y-102230592D03*
X200470439Y-106608533D03*
D18*
G36*
X209723561Y-99564397D02*
G01*
X210527005Y-102037144D01*
X208006705Y-102856039D01*
X207203261Y-100383292D01*
X209723561Y-99564397D01*
G37*
D23*
X200047500Y-109416668D03*
X209710234Y-106277056D03*
D24*
X204878867Y-107846862D03*
D18*
G36*
X198214156Y-105974743D02*
G01*
X199017600Y-108447490D01*
X196497300Y-109266385D01*
X195693856Y-106793638D01*
X198214156Y-105974743D01*
G37*
%TD*%
D20*
%TO.C,SW45*%
X217188933Y-101656882D03*
X229478476Y-96910720D03*
D21*
X226226641Y-97484106D03*
X220414178Y-101088184D03*
D18*
G36*
X230557604Y-95400386D02*
G01*
X231009089Y-97960886D01*
X228399348Y-98421054D01*
X227947863Y-95860554D01*
X230557604Y-95400386D01*
G37*
D23*
X219604539Y-103810129D03*
X229610185Y-102045863D03*
D24*
X224607362Y-102927996D03*
D18*
G36*
X218268061Y-100146548D02*
G01*
X218719546Y-102707048D01*
X216109805Y-103167216D01*
X215658320Y-100606716D01*
X218268061Y-100146548D01*
G37*
%TD*%
D20*
%TO.C,SW46*%
X203242502Y-125738190D03*
X214751907Y-119327844D03*
D21*
X211611518Y-120348218D03*
X206357213Y-124726159D03*
D18*
G36*
X215610335Y-117682023D02*
G01*
X216413779Y-120154770D01*
X213893479Y-120973665D01*
X213090035Y-118500918D01*
X215610335Y-117682023D01*
G37*
D23*
X205934274Y-127534294D03*
X215597008Y-124394682D03*
D24*
X210765641Y-125964488D03*
D18*
G36*
X204100930Y-124092369D02*
G01*
X204904374Y-126565116D01*
X202384074Y-127384011D01*
X201580630Y-124911264D01*
X204100930Y-124092369D01*
G37*
%TD*%
D25*
%TO.C,D6*%
X41941500Y-65040000D03*
X41941500Y-68590000D03*
%TD*%
D18*
%TO.C,D46*%
G36*
X219056898Y-123194264D02*
G01*
X218010736Y-123534183D01*
X217547210Y-122107598D01*
X218593372Y-121767679D01*
X219056898Y-123194264D01*
G37*
G36*
X220153908Y-126570514D02*
G01*
X219107746Y-126910433D01*
X218644220Y-125483848D01*
X219690382Y-125143929D01*
X220153908Y-126570514D01*
G37*
%TD*%
%TO.C,D45*%
G36*
X233203468Y-101338651D02*
G01*
X232120180Y-101529664D01*
X231859708Y-100052453D01*
X232942996Y-99861440D01*
X233203468Y-101338651D01*
G37*
G36*
X233819920Y-104834719D02*
G01*
X232736632Y-105025732D01*
X232476160Y-103548521D01*
X233559448Y-103357508D01*
X233819920Y-104834719D01*
G37*
%TD*%
%TO.C,D44*%
G36*
X213170124Y-105076638D02*
G01*
X212123962Y-105416557D01*
X211660436Y-103989972D01*
X212706598Y-103650053D01*
X213170124Y-105076638D01*
G37*
G36*
X214267134Y-108452888D02*
G01*
X213220972Y-108792807D01*
X212757446Y-107366222D01*
X213803608Y-107026303D01*
X214267134Y-108452888D01*
G37*
%TD*%
%TO.C,D43*%
G36*
X193851967Y-111566350D02*
G01*
X192863294Y-112048559D01*
X192205737Y-110700368D01*
X193194410Y-110218159D01*
X193851967Y-111566350D01*
G37*
G36*
X195408185Y-114757068D02*
G01*
X194419512Y-115239277D01*
X193761955Y-113891086D01*
X194750628Y-113408877D01*
X195408185Y-114757068D01*
G37*
%TD*%
D25*
%TO.C,D42*%
X303982745Y-84090000D03*
X303982745Y-87640000D03*
%TD*%
%TO.C,D41*%
X285690000Y-83415000D03*
X285690000Y-86965000D03*
%TD*%
D18*
%TO.C,D40*%
G36*
X265433825Y-80211974D02*
G01*
X264339851Y-80326955D01*
X264183059Y-78835172D01*
X265277033Y-78720191D01*
X265433825Y-80211974D01*
G37*
G36*
X265804901Y-83742526D02*
G01*
X264710927Y-83857507D01*
X264554135Y-82365724D01*
X265648109Y-82250743D01*
X265804901Y-83742526D01*
G37*
%TD*%
%TO.C,D39*%
G36*
X244836783Y-72877806D02*
G01*
X243753495Y-73068819D01*
X243493023Y-71591608D01*
X244576311Y-71400595D01*
X244836783Y-72877806D01*
G37*
G36*
X245453235Y-76373874D02*
G01*
X244369947Y-76564887D01*
X244109475Y-75087676D01*
X245192763Y-74896663D01*
X245453235Y-76373874D01*
G37*
%TD*%
%TO.C,D38*%
G36*
X226903195Y-80875950D02*
G01*
X225819907Y-81066963D01*
X225559435Y-79589752D01*
X226642723Y-79398739D01*
X226903195Y-80875950D01*
G37*
G36*
X227519647Y-84372018D02*
G01*
X226436359Y-84563031D01*
X226175887Y-83085820D01*
X227259175Y-82894807D01*
X227519647Y-84372018D01*
G37*
%TD*%
%TO.C,D37*%
G36*
X208556107Y-86529022D02*
G01*
X207472819Y-86720035D01*
X207212347Y-85242824D01*
X208295635Y-85051811D01*
X208556107Y-86529022D01*
G37*
G36*
X209172559Y-90025090D02*
G01*
X208089271Y-90216103D01*
X207828799Y-88738892D01*
X208912087Y-88547879D01*
X209172559Y-90025090D01*
G37*
%TD*%
%TO.C,D36*%
G36*
X190209019Y-92182093D02*
G01*
X189125731Y-92373106D01*
X188865259Y-90895895D01*
X189948547Y-90704882D01*
X190209019Y-92182093D01*
G37*
G36*
X190825471Y-95678161D02*
G01*
X189742183Y-95869174D01*
X189481711Y-94391963D01*
X190564999Y-94200950D01*
X190825471Y-95678161D01*
G37*
%TD*%
D25*
%TO.C,D35*%
X303982745Y-65040000D03*
X303982745Y-68590000D03*
%TD*%
%TO.C,D34*%
X286470000Y-69495000D03*
X286470000Y-73045000D03*
%TD*%
D18*
%TO.C,D33*%
G36*
X263442558Y-61266332D02*
G01*
X262348584Y-61381313D01*
X262191792Y-59889530D01*
X263285766Y-59774549D01*
X263442558Y-61266332D01*
G37*
G36*
X263813634Y-64796884D02*
G01*
X262719660Y-64911865D01*
X262562868Y-63420082D01*
X263656842Y-63305101D01*
X263813634Y-64796884D01*
G37*
%TD*%
%TO.C,D32*%
G36*
X241528785Y-54117218D02*
G01*
X240445497Y-54308231D01*
X240185025Y-52831020D01*
X241268313Y-52640007D01*
X241528785Y-54117218D01*
G37*
G36*
X242145237Y-57613286D02*
G01*
X241061949Y-57804299D01*
X240801477Y-56327088D01*
X241884765Y-56136075D01*
X242145237Y-57613286D01*
G37*
%TD*%
%TO.C,D31*%
G36*
X223595197Y-62115363D02*
G01*
X222511909Y-62306376D01*
X222251437Y-60829165D01*
X223334725Y-60638152D01*
X223595197Y-62115363D01*
G37*
G36*
X224211649Y-65611431D02*
G01*
X223128361Y-65802444D01*
X222867889Y-64325233D01*
X223951177Y-64134220D01*
X224211649Y-65611431D01*
G37*
%TD*%
%TO.C,D30*%
G36*
X205248109Y-67768434D02*
G01*
X204164821Y-67959447D01*
X203904349Y-66482236D01*
X204987637Y-66291223D01*
X205248109Y-67768434D01*
G37*
G36*
X205864561Y-71264502D02*
G01*
X204781273Y-71455515D01*
X204520801Y-69978304D01*
X205604089Y-69787291D01*
X205864561Y-71264502D01*
G37*
%TD*%
%TO.C,D29*%
G36*
X186901021Y-73421505D02*
G01*
X185817733Y-73612518D01*
X185557261Y-72135307D01*
X186640549Y-71944294D01*
X186901021Y-73421505D01*
G37*
G36*
X187517473Y-76917573D02*
G01*
X186434185Y-77108586D01*
X186173713Y-75631375D01*
X187257001Y-75440362D01*
X187517473Y-76917573D01*
G37*
%TD*%
D25*
%TO.C,D28*%
X284932745Y-50752500D03*
X284932745Y-54302500D03*
%TD*%
D18*
%TO.C,D27*%
G36*
X263849845Y-39223125D02*
G01*
X262755871Y-39338106D01*
X262599079Y-37846323D01*
X263693053Y-37731342D01*
X263849845Y-39223125D01*
G37*
G36*
X264220921Y-42753677D02*
G01*
X263126947Y-42868658D01*
X262970155Y-41376875D01*
X264064129Y-41261894D01*
X264220921Y-42753677D01*
G37*
%TD*%
%TO.C,D26*%
G36*
X239513654Y-32215065D02*
G01*
X238430366Y-32406078D01*
X238169894Y-30928867D01*
X239253182Y-30737854D01*
X239513654Y-32215065D01*
G37*
G36*
X240130106Y-35711133D02*
G01*
X239046818Y-35902146D01*
X238786346Y-34424935D01*
X239869634Y-34233922D01*
X240130106Y-35711133D01*
G37*
%TD*%
%TO.C,D25*%
G36*
X220287199Y-43354775D02*
G01*
X219203911Y-43545788D01*
X218943439Y-42068577D01*
X220026727Y-41877564D01*
X220287199Y-43354775D01*
G37*
G36*
X220903651Y-46850843D02*
G01*
X219820363Y-47041856D01*
X219559891Y-45564645D01*
X220643179Y-45373632D01*
X220903651Y-46850843D01*
G37*
%TD*%
%TO.C,D24*%
G36*
X201940111Y-49007846D02*
G01*
X200856823Y-49198859D01*
X200596351Y-47721648D01*
X201679639Y-47530635D01*
X201940111Y-49007846D01*
G37*
G36*
X202556563Y-52503914D02*
G01*
X201473275Y-52694927D01*
X201212803Y-51217716D01*
X202296091Y-51026703D01*
X202556563Y-52503914D01*
G37*
%TD*%
%TO.C,D23*%
G36*
X127111667Y-128596809D02*
G01*
X126065505Y-128256890D01*
X126529031Y-126830305D01*
X127575193Y-127170224D01*
X127111667Y-128596809D01*
G37*
G36*
X126014657Y-131973059D02*
G01*
X124968495Y-131633140D01*
X125432021Y-130206555D01*
X126478183Y-130546474D01*
X126014657Y-131973059D01*
G37*
%TD*%
%TO.C,D22*%
G36*
X151402892Y-119230393D02*
G01*
X150414219Y-118748184D01*
X151071776Y-117399993D01*
X152060449Y-117882202D01*
X151402892Y-119230393D01*
G37*
G36*
X149846674Y-122421111D02*
G01*
X148858001Y-121938902D01*
X149515558Y-120590711D01*
X150504231Y-121072920D01*
X149846674Y-122421111D01*
G37*
%TD*%
%TO.C,D21*%
G36*
X132998441Y-110479183D02*
G01*
X131952279Y-110139264D01*
X132415805Y-108712679D01*
X133461967Y-109052598D01*
X132998441Y-110479183D01*
G37*
G36*
X131901431Y-113855433D02*
G01*
X130855269Y-113515514D01*
X131318795Y-112088929D01*
X132364957Y-112428848D01*
X131901431Y-113855433D01*
G37*
%TD*%
%TO.C,D20*%
G36*
X113555169Y-104374542D02*
G01*
X112471881Y-104183529D01*
X112732353Y-102706318D01*
X113815641Y-102897331D01*
X113555169Y-104374542D01*
G37*
G36*
X112938717Y-107870610D02*
G01*
X111855429Y-107679597D01*
X112115901Y-106202386D01*
X113199189Y-106393399D01*
X112938717Y-107870610D01*
G37*
%TD*%
%TO.C,D19*%
G36*
X156549618Y-95217984D02*
G01*
X155466330Y-95026971D01*
X155726802Y-93549760D01*
X156810090Y-93740773D01*
X156549618Y-95217984D01*
G37*
G36*
X155933166Y-98714052D02*
G01*
X154849878Y-98523039D01*
X155110350Y-97045828D01*
X156193638Y-97236841D01*
X155933166Y-98714052D01*
G37*
%TD*%
%TO.C,D18*%
G36*
X138202530Y-89564913D02*
G01*
X137119242Y-89373900D01*
X137379714Y-87896689D01*
X138463002Y-88087702D01*
X138202530Y-89564913D01*
G37*
G36*
X137586078Y-93060981D02*
G01*
X136502790Y-92869968D01*
X136763262Y-91392757D01*
X137846550Y-91583770D01*
X137586078Y-93060981D01*
G37*
%TD*%
%TO.C,D17*%
G36*
X119855442Y-83911841D02*
G01*
X118772154Y-83720828D01*
X119032626Y-82243617D01*
X120115914Y-82434630D01*
X119855442Y-83911841D01*
G37*
G36*
X119238990Y-87407909D02*
G01*
X118155702Y-87216896D01*
X118416174Y-85739685D01*
X119499462Y-85930698D01*
X119238990Y-87407909D01*
G37*
%TD*%
%TO.C,D16*%
G36*
X101921854Y-75913697D02*
G01*
X100838566Y-75722684D01*
X101099038Y-74245473D01*
X102182326Y-74436486D01*
X101921854Y-75913697D01*
G37*
G36*
X101305402Y-79409765D02*
G01*
X100222114Y-79218752D01*
X100482586Y-77741541D01*
X101565874Y-77932554D01*
X101305402Y-79409765D01*
G37*
%TD*%
%TO.C,D15*%
G36*
X81494645Y-82039445D02*
G01*
X80400671Y-81924464D01*
X80557463Y-80432681D01*
X81651437Y-80547662D01*
X81494645Y-82039445D01*
G37*
G36*
X81123569Y-85569997D02*
G01*
X80029595Y-85455016D01*
X80186387Y-83963233D01*
X81280361Y-84078214D01*
X81123569Y-85569997D01*
G37*
%TD*%
D25*
%TO.C,D14*%
X60991499Y-88852500D03*
X60991499Y-92402500D03*
%TD*%
%TO.C,D13*%
X41941500Y-84090000D03*
X41941500Y-87640000D03*
%TD*%
D18*
%TO.C,D12*%
G36*
X159857616Y-76457396D02*
G01*
X158774328Y-76266383D01*
X159034800Y-74789172D01*
X160118088Y-74980185D01*
X159857616Y-76457396D01*
G37*
G36*
X159241164Y-79953464D02*
G01*
X158157876Y-79762451D01*
X158418348Y-78285240D01*
X159501636Y-78476253D01*
X159241164Y-79953464D01*
G37*
%TD*%
%TO.C,D11*%
G36*
X141510528Y-70804325D02*
G01*
X140427240Y-70613312D01*
X140687712Y-69136101D01*
X141771000Y-69327114D01*
X141510528Y-70804325D01*
G37*
G36*
X140894076Y-74300393D02*
G01*
X139810788Y-74109380D01*
X140071260Y-72632169D01*
X141154548Y-72823182D01*
X140894076Y-74300393D01*
G37*
%TD*%
%TO.C,D10*%
G36*
X123163440Y-65151254D02*
G01*
X122080152Y-64960241D01*
X122340624Y-63483030D01*
X123423912Y-63674043D01*
X123163440Y-65151254D01*
G37*
G36*
X122546988Y-68647322D02*
G01*
X121463700Y-68456309D01*
X121724172Y-66979098D01*
X122807460Y-67170111D01*
X122546988Y-68647322D01*
G37*
%TD*%
%TO.C,D9*%
G36*
X105229852Y-57153109D02*
G01*
X104146564Y-56962096D01*
X104407036Y-55484885D01*
X105490324Y-55675898D01*
X105229852Y-57153109D01*
G37*
G36*
X104613400Y-60649177D02*
G01*
X103530112Y-60458164D01*
X103790584Y-58980953D01*
X104873872Y-59171966D01*
X104613400Y-60649177D01*
G37*
%TD*%
%TO.C,D8*%
G36*
X83485912Y-63093803D02*
G01*
X82391938Y-62978822D01*
X82548730Y-61487039D01*
X83642704Y-61602020D01*
X83485912Y-63093803D01*
G37*
G36*
X83114836Y-66624355D02*
G01*
X82020862Y-66509374D01*
X82177654Y-65017591D01*
X83271628Y-65132572D01*
X83114836Y-66624355D01*
G37*
%TD*%
D25*
%TO.C,D7*%
X60991499Y-69802500D03*
X60991499Y-73352500D03*
%TD*%
D18*
%TO.C,D5*%
G36*
X144818526Y-52043737D02*
G01*
X143735238Y-51852724D01*
X143995710Y-50375513D01*
X145078998Y-50566526D01*
X144818526Y-52043737D01*
G37*
G36*
X144202074Y-55539805D02*
G01*
X143118786Y-55348792D01*
X143379258Y-53871581D01*
X144462546Y-54062594D01*
X144202074Y-55539805D01*
G37*
%TD*%
%TO.C,D4*%
G36*
X126471438Y-46390666D02*
G01*
X125388150Y-46199653D01*
X125648622Y-44722442D01*
X126731910Y-44913455D01*
X126471438Y-46390666D01*
G37*
G36*
X125854986Y-49886734D02*
G01*
X124771698Y-49695721D01*
X125032170Y-48218510D01*
X126115458Y-48409523D01*
X125854986Y-49886734D01*
G37*
%TD*%
%TO.C,D3*%
G36*
X108537850Y-38392521D02*
G01*
X107454562Y-38201508D01*
X107715034Y-36724297D01*
X108798322Y-36915310D01*
X108537850Y-38392521D01*
G37*
G36*
X107921398Y-41888589D02*
G01*
X106838110Y-41697576D01*
X107098582Y-40220365D01*
X108181870Y-40411378D01*
X107921398Y-41888589D01*
G37*
%TD*%
%TO.C,D2*%
G36*
X85477180Y-44148161D02*
G01*
X84383206Y-44033180D01*
X84539998Y-42541397D01*
X85633972Y-42656378D01*
X85477180Y-44148161D01*
G37*
G36*
X85106104Y-47678713D02*
G01*
X84012130Y-47563732D01*
X84168922Y-46071949D01*
X85262896Y-46186930D01*
X85106104Y-47678713D01*
G37*
%TD*%
D25*
%TO.C,D1*%
X60991499Y-50752500D03*
X60991499Y-54302500D03*
%TD*%
D18*
%TO.C,J4*%
G36*
X283538406Y-36756976D02*
G01*
X284928694Y-37168798D01*
X284516872Y-38559086D01*
X283126584Y-38147264D01*
X283538406Y-36756976D01*
G37*
G36*
G01*
X282315911Y-36394856D02*
X282315911Y-36394856D01*
G75*
G02*
X282805144Y-37295911I-205911J-695144D01*
G01*
X282805144Y-37295911D01*
G75*
G02*
X281904089Y-37785144I-695144J205911D01*
G01*
X281904089Y-37785144D01*
G75*
G02*
X281414856Y-36884089I205911J695144D01*
G01*
X281414856Y-36884089D01*
G75*
G02*
X282315911Y-36394856I695144J-205911D01*
G01*
G37*
G36*
G01*
X280398271Y-35826826D02*
X280398271Y-35826826D01*
G75*
G02*
X280887504Y-36727881I-205911J-695144D01*
G01*
X280887504Y-36727881D01*
G75*
G02*
X279986449Y-37217114I-695144J205911D01*
G01*
X279986449Y-37217114D01*
G75*
G02*
X279497216Y-36316059I205911J695144D01*
G01*
X279497216Y-36316059D01*
G75*
G02*
X280398271Y-35826826I695144J-205911D01*
G01*
G37*
G36*
G01*
X278480632Y-35258795D02*
X278480632Y-35258795D01*
G75*
G02*
X278969865Y-36159850I-205911J-695144D01*
G01*
X278969865Y-36159850D01*
G75*
G02*
X278068810Y-36649083I-695144J205911D01*
G01*
X278068810Y-36649083D01*
G75*
G02*
X277579577Y-35748028I205911J695144D01*
G01*
X277579577Y-35748028D01*
G75*
G02*
X278480632Y-35258795I695144J-205911D01*
G01*
G37*
%TD*%
D26*
%TO.C,HOLE12*%
X197561200Y-133120000D03*
%TD*%
%TO.C,HOLE11*%
X244921200Y-100610000D03*
%TD*%
%TO.C,HOLE10*%
X286901245Y-94900000D03*
%TD*%
%TO.C,HOLE9*%
X289831200Y-43680000D03*
%TD*%
%TO.C,HOLE8*%
X243201200Y-32080000D03*
%TD*%
%TO.C,HOLE7*%
X187551200Y-31840000D03*
%TD*%
%TO.C,HOLE13*%
X164770600Y-88190000D03*
%TD*%
%TO.C,HOLE6*%
X141990000Y-31840000D03*
%TD*%
%TO.C,HOLE5*%
X86340000Y-32080000D03*
%TD*%
%TO.C,HOLE1*%
X131980000Y-133120000D03*
%TD*%
%TO.C,HOLE2*%
X84620000Y-100610000D03*
%TD*%
%TO.C,HOLE3*%
X42640000Y-94900000D03*
%TD*%
%TO.C,HOLE4*%
X39760000Y-43680000D03*
%TD*%
D27*
%TO.C,J3*%
X130700000Y-28437200D03*
X128160000Y-27980000D03*
X125620000Y-28437200D03*
X123080000Y-27980000D03*
X120540000Y-28437200D03*
D28*
X118000000Y-27980000D03*
%TD*%
%TO.C,C1*%
G36*
G01*
X157941738Y-108530000D02*
X158898262Y-108530000D01*
G75*
G02*
X159170000Y-108801738I0J-271738D01*
G01*
X159170000Y-109508262D01*
G75*
G02*
X158898262Y-109780000I-271738J0D01*
G01*
X157941738Y-109780000D01*
G75*
G02*
X157670000Y-109508262I0J271738D01*
G01*
X157670000Y-108801738D01*
G75*
G02*
X157941738Y-108530000I271738J0D01*
G01*
G37*
G36*
G01*
X157941738Y-110580000D02*
X158898262Y-110580000D01*
G75*
G02*
X159170000Y-110851738I0J-271738D01*
G01*
X159170000Y-111558262D01*
G75*
G02*
X158898262Y-111830000I-271738J0D01*
G01*
X157941738Y-111830000D01*
G75*
G02*
X157670000Y-111558262I0J271738D01*
G01*
X157670000Y-110851738D01*
G75*
G02*
X157941738Y-110580000I271738J0D01*
G01*
G37*
%TD*%
%TO.C,C2*%
G36*
G01*
X160801738Y-110580000D02*
X161758262Y-110580000D01*
G75*
G02*
X162030000Y-110851738I0J-271738D01*
G01*
X162030000Y-111558262D01*
G75*
G02*
X161758262Y-111830000I-271738J0D01*
G01*
X160801738Y-111830000D01*
G75*
G02*
X160530000Y-111558262I0J271738D01*
G01*
X160530000Y-110851738D01*
G75*
G02*
X160801738Y-110580000I271738J0D01*
G01*
G37*
G36*
G01*
X160801738Y-108530000D02*
X161758262Y-108530000D01*
G75*
G02*
X162030000Y-108801738I0J-271738D01*
G01*
X162030000Y-109508262D01*
G75*
G02*
X161758262Y-109780000I-271738J0D01*
G01*
X160801738Y-109780000D01*
G75*
G02*
X160530000Y-109508262I0J271738D01*
G01*
X160530000Y-108801738D01*
G75*
G02*
X160801738Y-108530000I271738J0D01*
G01*
G37*
%TD*%
%TO.C,C3*%
G36*
G01*
X164818262Y-111830000D02*
X163861738Y-111830000D01*
G75*
G02*
X163590000Y-111558262I0J271738D01*
G01*
X163590000Y-110851738D01*
G75*
G02*
X163861738Y-110580000I271738J0D01*
G01*
X164818262Y-110580000D01*
G75*
G02*
X165090000Y-110851738I0J-271738D01*
G01*
X165090000Y-111558262D01*
G75*
G02*
X164818262Y-111830000I-271738J0D01*
G01*
G37*
G36*
G01*
X164818262Y-109780000D02*
X163861738Y-109780000D01*
G75*
G02*
X163590000Y-109508262I0J271738D01*
G01*
X163590000Y-108801738D01*
G75*
G02*
X163861738Y-108530000I271738J0D01*
G01*
X164818262Y-108530000D01*
G75*
G02*
X165090000Y-108801738I0J-271738D01*
G01*
X165090000Y-109508262D01*
G75*
G02*
X164818262Y-109780000I-271738J0D01*
G01*
G37*
%TD*%
%TO.C,C4*%
G36*
G01*
X167478262Y-109780000D02*
X166521738Y-109780000D01*
G75*
G02*
X166250000Y-109508262I0J271738D01*
G01*
X166250000Y-108801738D01*
G75*
G02*
X166521738Y-108530000I271738J0D01*
G01*
X167478262Y-108530000D01*
G75*
G02*
X167750000Y-108801738I0J-271738D01*
G01*
X167750000Y-109508262D01*
G75*
G02*
X167478262Y-109780000I-271738J0D01*
G01*
G37*
G36*
G01*
X167478262Y-111830000D02*
X166521738Y-111830000D01*
G75*
G02*
X166250000Y-111558262I0J271738D01*
G01*
X166250000Y-110851738D01*
G75*
G02*
X166521738Y-110580000I271738J0D01*
G01*
X167478262Y-110580000D01*
G75*
G02*
X167750000Y-110851738I0J-271738D01*
G01*
X167750000Y-111558262D01*
G75*
G02*
X167478262Y-111830000I-271738J0D01*
G01*
G37*
%TD*%
%TO.C,C5*%
G36*
G01*
X170670000Y-135522500D02*
X170670000Y-134997500D01*
G75*
G02*
X170932500Y-134735000I262500J0D01*
G01*
X171557500Y-134735000D01*
G75*
G02*
X171820000Y-134997500I0J-262500D01*
G01*
X171820000Y-135522500D01*
G75*
G02*
X171557500Y-135785000I-262500J0D01*
G01*
X170932500Y-135785000D01*
G75*
G02*
X170670000Y-135522500I0J262500D01*
G01*
G37*
G36*
G01*
X172420000Y-135522500D02*
X172420000Y-134997500D01*
G75*
G02*
X172682500Y-134735000I262500J0D01*
G01*
X173307500Y-134735000D01*
G75*
G02*
X173570000Y-134997500I0J-262500D01*
G01*
X173570000Y-135522500D01*
G75*
G02*
X173307500Y-135785000I-262500J0D01*
G01*
X172682500Y-135785000D01*
G75*
G02*
X172420000Y-135522500I0J262500D01*
G01*
G37*
%TD*%
%TO.C,C6*%
G36*
G01*
X172420000Y-133382500D02*
X172420000Y-132857500D01*
G75*
G02*
X172682500Y-132595000I262500J0D01*
G01*
X173307500Y-132595000D01*
G75*
G02*
X173570000Y-132857500I0J-262500D01*
G01*
X173570000Y-133382500D01*
G75*
G02*
X173307500Y-133645000I-262500J0D01*
G01*
X172682500Y-133645000D01*
G75*
G02*
X172420000Y-133382500I0J262500D01*
G01*
G37*
G36*
G01*
X170670000Y-133382500D02*
X170670000Y-132857500D01*
G75*
G02*
X170932500Y-132595000I262500J0D01*
G01*
X171557500Y-132595000D01*
G75*
G02*
X171820000Y-132857500I0J-262500D01*
G01*
X171820000Y-133382500D01*
G75*
G02*
X171557500Y-133645000I-262500J0D01*
G01*
X170932500Y-133645000D01*
G75*
G02*
X170670000Y-133382500I0J262500D01*
G01*
G37*
%TD*%
D29*
%TO.C,F1*%
X47610000Y-39370000D03*
X44610000Y-39370000D03*
%TD*%
D30*
%TO.C,LED5*%
X64377400Y-50571200D03*
X64377400Y-48971200D03*
X64377400Y-47371200D03*
X69277400Y-50571200D03*
X69277400Y-48971200D03*
X69277400Y-47371200D03*
%TD*%
%TO.C,LED6*%
X93400000Y-39890000D03*
X93400000Y-41490000D03*
X93400000Y-43090000D03*
X88500000Y-39890000D03*
X88500000Y-41490000D03*
X88500000Y-43090000D03*
%TD*%
%TO.C,LED7*%
X135730000Y-40360000D03*
X135730000Y-38760000D03*
X135730000Y-37160000D03*
X140630000Y-40360000D03*
X140630000Y-38760000D03*
X140630000Y-37160000D03*
%TD*%
%TO.C,LED8*%
X193811200Y-37160000D03*
X193811200Y-38760000D03*
X193811200Y-40360000D03*
X188911200Y-37160000D03*
X188911200Y-38760000D03*
X188911200Y-40360000D03*
%TD*%
%TO.C,LED9*%
X236141200Y-43090000D03*
X236141200Y-41490000D03*
X236141200Y-39890000D03*
X241041200Y-43090000D03*
X241041200Y-41490000D03*
X241041200Y-39890000D03*
%TD*%
%TO.C,LED10*%
X265163800Y-47371200D03*
X265163800Y-48971200D03*
X265163800Y-50571200D03*
X260263800Y-47371200D03*
X260263800Y-48971200D03*
X260263800Y-50571200D03*
%TD*%
%TO.C,LED11*%
X284671000Y-77351200D03*
X284671000Y-78951200D03*
X284671000Y-80551200D03*
X279771000Y-77351200D03*
X279771000Y-78951200D03*
X279771000Y-80551200D03*
%TD*%
%TO.C,LED12*%
X254625000Y-91135000D03*
X254625000Y-89535000D03*
X254625000Y-87935000D03*
X259525000Y-91135000D03*
X259525000Y-89535000D03*
X259525000Y-87935000D03*
%TD*%
%TO.C,LED13*%
X218023600Y-92862200D03*
X218023600Y-91262200D03*
X218023600Y-89662200D03*
X222923600Y-92862200D03*
X222923600Y-91262200D03*
X222923600Y-89662200D03*
%TD*%
%TO.C,LED14*%
X196681200Y-119812000D03*
X196681200Y-121412000D03*
X196681200Y-123012000D03*
X191781200Y-119812000D03*
X191781200Y-121412000D03*
X191781200Y-123012000D03*
%TD*%
%TO.C,LED1*%
X132860000Y-123012000D03*
X132860000Y-121412000D03*
X132860000Y-119812000D03*
X137760000Y-123012000D03*
X137760000Y-121412000D03*
X137760000Y-119812000D03*
%TD*%
%TO.C,LED2*%
X111517600Y-89662200D03*
X111517600Y-91262200D03*
X111517600Y-92862200D03*
X106617600Y-89662200D03*
X106617600Y-91262200D03*
X106617600Y-92862200D03*
%TD*%
D18*
%TO.C,U1*%
G36*
X166308558Y-114725569D02*
G01*
X166768177Y-115185188D01*
X165636806Y-116316559D01*
X165177187Y-115856940D01*
X166308558Y-114725569D01*
G37*
G36*
X166874243Y-115291255D02*
G01*
X167333862Y-115750874D01*
X166202491Y-116882245D01*
X165742872Y-116422626D01*
X166874243Y-115291255D01*
G37*
G36*
X167439928Y-115856940D02*
G01*
X167899547Y-116316559D01*
X166768176Y-117447930D01*
X166308557Y-116988311D01*
X167439928Y-115856940D01*
G37*
G36*
X168005614Y-116422625D02*
G01*
X168465233Y-116882244D01*
X167333862Y-118013615D01*
X166874243Y-117553996D01*
X168005614Y-116422625D01*
G37*
G36*
X168571299Y-116988311D02*
G01*
X169030918Y-117447930D01*
X167899547Y-118579301D01*
X167439928Y-118119682D01*
X168571299Y-116988311D01*
G37*
G36*
X169136985Y-117553996D02*
G01*
X169596604Y-118013615D01*
X168465233Y-119144986D01*
X168005614Y-118685367D01*
X169136985Y-117553996D01*
G37*
G36*
X169702670Y-118119682D02*
G01*
X170162289Y-118579301D01*
X169030918Y-119710672D01*
X168571299Y-119251053D01*
X169702670Y-118119682D01*
G37*
G36*
X170268356Y-118685367D02*
G01*
X170727975Y-119144986D01*
X169596604Y-120276357D01*
X169136985Y-119816738D01*
X170268356Y-118685367D01*
G37*
G36*
X170834041Y-119251053D02*
G01*
X171293660Y-119710672D01*
X170162289Y-120842043D01*
X169702670Y-120382424D01*
X170834041Y-119251053D01*
G37*
G36*
X171399726Y-119816738D02*
G01*
X171859345Y-120276357D01*
X170727974Y-121407728D01*
X170268355Y-120948109D01*
X171399726Y-119816738D01*
G37*
G36*
X171965412Y-120382423D02*
G01*
X172425031Y-120842042D01*
X171293660Y-121973413D01*
X170834041Y-121513794D01*
X171965412Y-120382423D01*
G37*
G36*
X172425031Y-123917958D02*
G01*
X171965412Y-124377577D01*
X170834041Y-123246206D01*
X171293660Y-122786587D01*
X172425031Y-123917958D01*
G37*
G36*
X171859345Y-124483643D02*
G01*
X171399726Y-124943262D01*
X170268355Y-123811891D01*
X170727974Y-123352272D01*
X171859345Y-124483643D01*
G37*
G36*
X171293660Y-125049328D02*
G01*
X170834041Y-125508947D01*
X169702670Y-124377576D01*
X170162289Y-123917957D01*
X171293660Y-125049328D01*
G37*
G36*
X170727975Y-125615014D02*
G01*
X170268356Y-126074633D01*
X169136985Y-124943262D01*
X169596604Y-124483643D01*
X170727975Y-125615014D01*
G37*
G36*
X170162289Y-126180699D02*
G01*
X169702670Y-126640318D01*
X168571299Y-125508947D01*
X169030918Y-125049328D01*
X170162289Y-126180699D01*
G37*
G36*
X169596604Y-126746385D02*
G01*
X169136985Y-127206004D01*
X168005614Y-126074633D01*
X168465233Y-125615014D01*
X169596604Y-126746385D01*
G37*
G36*
X169030918Y-127312070D02*
G01*
X168571299Y-127771689D01*
X167439928Y-126640318D01*
X167899547Y-126180699D01*
X169030918Y-127312070D01*
G37*
G36*
X168465233Y-127877756D02*
G01*
X168005614Y-128337375D01*
X166874243Y-127206004D01*
X167333862Y-126746385D01*
X168465233Y-127877756D01*
G37*
G36*
X167899547Y-128443441D02*
G01*
X167439928Y-128903060D01*
X166308557Y-127771689D01*
X166768176Y-127312070D01*
X167899547Y-128443441D01*
G37*
G36*
X167333862Y-129009126D02*
G01*
X166874243Y-129468745D01*
X165742872Y-128337374D01*
X166202491Y-127877755D01*
X167333862Y-129009126D01*
G37*
G36*
X166768177Y-129574812D02*
G01*
X166308558Y-130034431D01*
X165177187Y-128903060D01*
X165636806Y-128443441D01*
X166768177Y-129574812D01*
G37*
G36*
X163904394Y-128443441D02*
G01*
X164364013Y-128903060D01*
X163232642Y-130034431D01*
X162773023Y-129574812D01*
X163904394Y-128443441D01*
G37*
G36*
X163338709Y-127877755D02*
G01*
X163798328Y-128337374D01*
X162666957Y-129468745D01*
X162207338Y-129009126D01*
X163338709Y-127877755D01*
G37*
G36*
X162773024Y-127312070D02*
G01*
X163232643Y-127771689D01*
X162101272Y-128903060D01*
X161641653Y-128443441D01*
X162773024Y-127312070D01*
G37*
G36*
X162207338Y-126746385D02*
G01*
X162666957Y-127206004D01*
X161535586Y-128337375D01*
X161075967Y-127877756D01*
X162207338Y-126746385D01*
G37*
G36*
X161641653Y-126180699D02*
G01*
X162101272Y-126640318D01*
X160969901Y-127771689D01*
X160510282Y-127312070D01*
X161641653Y-126180699D01*
G37*
G36*
X161075967Y-125615014D02*
G01*
X161535586Y-126074633D01*
X160404215Y-127206004D01*
X159944596Y-126746385D01*
X161075967Y-125615014D01*
G37*
G36*
X160510282Y-125049328D02*
G01*
X160969901Y-125508947D01*
X159838530Y-126640318D01*
X159378911Y-126180699D01*
X160510282Y-125049328D01*
G37*
G36*
X159944596Y-124483643D02*
G01*
X160404215Y-124943262D01*
X159272844Y-126074633D01*
X158813225Y-125615014D01*
X159944596Y-124483643D01*
G37*
G36*
X159378911Y-123917957D02*
G01*
X159838530Y-124377576D01*
X158707159Y-125508947D01*
X158247540Y-125049328D01*
X159378911Y-123917957D01*
G37*
G36*
X158813226Y-123352272D02*
G01*
X159272845Y-123811891D01*
X158141474Y-124943262D01*
X157681855Y-124483643D01*
X158813226Y-123352272D01*
G37*
G36*
X158247540Y-122786587D02*
G01*
X158707159Y-123246206D01*
X157575788Y-124377577D01*
X157116169Y-123917958D01*
X158247540Y-122786587D01*
G37*
G36*
X158707159Y-121513794D02*
G01*
X158247540Y-121973413D01*
X157116169Y-120842042D01*
X157575788Y-120382423D01*
X158707159Y-121513794D01*
G37*
G36*
X159272845Y-120948109D02*
G01*
X158813226Y-121407728D01*
X157681855Y-120276357D01*
X158141474Y-119816738D01*
X159272845Y-120948109D01*
G37*
G36*
X159838530Y-120382424D02*
G01*
X159378911Y-120842043D01*
X158247540Y-119710672D01*
X158707159Y-119251053D01*
X159838530Y-120382424D01*
G37*
G36*
X160404215Y-119816738D02*
G01*
X159944596Y-120276357D01*
X158813225Y-119144986D01*
X159272844Y-118685367D01*
X160404215Y-119816738D01*
G37*
G36*
X160969901Y-119251053D02*
G01*
X160510282Y-119710672D01*
X159378911Y-118579301D01*
X159838530Y-118119682D01*
X160969901Y-119251053D01*
G37*
G36*
X161535586Y-118685367D02*
G01*
X161075967Y-119144986D01*
X159944596Y-118013615D01*
X160404215Y-117553996D01*
X161535586Y-118685367D01*
G37*
G36*
X162101272Y-118119682D02*
G01*
X161641653Y-118579301D01*
X160510282Y-117447930D01*
X160969901Y-116988311D01*
X162101272Y-118119682D01*
G37*
G36*
X162666957Y-117553996D02*
G01*
X162207338Y-118013615D01*
X161075967Y-116882244D01*
X161535586Y-116422625D01*
X162666957Y-117553996D01*
G37*
G36*
X163232643Y-116988311D02*
G01*
X162773024Y-117447930D01*
X161641653Y-116316559D01*
X162101272Y-115856940D01*
X163232643Y-116988311D01*
G37*
G36*
X163798328Y-116422626D02*
G01*
X163338709Y-116882245D01*
X162207338Y-115750874D01*
X162666957Y-115291255D01*
X163798328Y-116422626D01*
G37*
G36*
X164364013Y-115856940D02*
G01*
X163904394Y-116316559D01*
X162773023Y-115185188D01*
X163232642Y-114725569D01*
X164364013Y-115856940D01*
G37*
%TD*%
D31*
%TO.C,Y1*%
X178555000Y-134920000D03*
X176805000Y-134920000D03*
X176805000Y-133520000D03*
X178555000Y-133520000D03*
%TD*%
D30*
%TO.C,LED3*%
X74916200Y-87935000D03*
X74916200Y-89535000D03*
X74916200Y-91135000D03*
X70016200Y-87935000D03*
X70016200Y-89535000D03*
X70016200Y-91135000D03*
%TD*%
%TO.C,LED4*%
X49770200Y-77351200D03*
X49770200Y-78951200D03*
X49770200Y-80551200D03*
X44870200Y-77351200D03*
X44870200Y-78951200D03*
X44870200Y-80551200D03*
%TD*%
D20*
%TO.C,J1*%
X31530000Y-48770000D03*
X31530000Y-49570000D03*
X31530000Y-50370000D03*
X31530000Y-51170000D03*
X31530000Y-51970000D03*
X31530000Y-52770000D03*
D32*
X31980000Y-45220000D03*
X31980000Y-56320000D03*
X26930000Y-45220000D03*
X26930000Y-56320000D03*
D33*
X26930000Y-45800000D03*
D34*
X27950000Y-45550000D03*
X25910000Y-45550000D03*
D33*
X26930000Y-55740000D03*
D34*
X25910000Y-55940000D03*
X27950000Y-55940000D03*
%TD*%
D35*
%TO.C,SW47*%
X183905000Y-135275000D03*
X188055000Y-135275000D03*
X183905000Y-133125000D03*
X188055000Y-133125000D03*
%TD*%
%TO.C,R1*%
G36*
G01*
X41010000Y-49381738D02*
X41010000Y-50338262D01*
G75*
G02*
X40738262Y-50610000I-271738J0D01*
G01*
X40031738Y-50610000D01*
G75*
G02*
X39760000Y-50338262I0J271738D01*
G01*
X39760000Y-49381738D01*
G75*
G02*
X40031738Y-49110000I271738J0D01*
G01*
X40738262Y-49110000D01*
G75*
G02*
X41010000Y-49381738I0J-271738D01*
G01*
G37*
G36*
G01*
X38960000Y-49381738D02*
X38960000Y-50338262D01*
G75*
G02*
X38688262Y-50610000I-271738J0D01*
G01*
X37981738Y-50610000D01*
G75*
G02*
X37710000Y-50338262I0J271738D01*
G01*
X37710000Y-49381738D01*
G75*
G02*
X37981738Y-49110000I271738J0D01*
G01*
X38688262Y-49110000D01*
G75*
G02*
X38960000Y-49381738I0J-271738D01*
G01*
G37*
%TD*%
%TO.C,R2*%
G36*
G01*
X39760000Y-52888262D02*
X39760000Y-51931738D01*
G75*
G02*
X40031738Y-51660000I271738J0D01*
G01*
X40738262Y-51660000D01*
G75*
G02*
X41010000Y-51931738I0J-271738D01*
G01*
X41010000Y-52888262D01*
G75*
G02*
X40738262Y-53160000I-271738J0D01*
G01*
X40031738Y-53160000D01*
G75*
G02*
X39760000Y-52888262I0J271738D01*
G01*
G37*
G36*
G01*
X37710000Y-52888262D02*
X37710000Y-51931738D01*
G75*
G02*
X37981738Y-51660000I271738J0D01*
G01*
X38688262Y-51660000D01*
G75*
G02*
X38960000Y-51931738I0J-271738D01*
G01*
X38960000Y-52888262D01*
G75*
G02*
X38688262Y-53160000I-271738J0D01*
G01*
X37981738Y-53160000D01*
G75*
G02*
X37710000Y-52888262I0J271738D01*
G01*
G37*
%TD*%
%TO.C,R3*%
G36*
G01*
X164818262Y-101950000D02*
X163861738Y-101950000D01*
G75*
G02*
X163590000Y-101678262I0J271738D01*
G01*
X163590000Y-100971738D01*
G75*
G02*
X163861738Y-100700000I271738J0D01*
G01*
X164818262Y-100700000D01*
G75*
G02*
X165090000Y-100971738I0J-271738D01*
G01*
X165090000Y-101678262D01*
G75*
G02*
X164818262Y-101950000I-271738J0D01*
G01*
G37*
G36*
G01*
X164818262Y-104000000D02*
X163861738Y-104000000D01*
G75*
G02*
X163590000Y-103728262I0J271738D01*
G01*
X163590000Y-103021738D01*
G75*
G02*
X163861738Y-102750000I271738J0D01*
G01*
X164818262Y-102750000D01*
G75*
G02*
X165090000Y-103021738I0J-271738D01*
G01*
X165090000Y-103728262D01*
G75*
G02*
X164818262Y-104000000I-271738J0D01*
G01*
G37*
%TD*%
%TO.C,R4*%
G36*
G01*
X166521738Y-100690000D02*
X167478262Y-100690000D01*
G75*
G02*
X167750000Y-100961738I0J-271738D01*
G01*
X167750000Y-101668262D01*
G75*
G02*
X167478262Y-101940000I-271738J0D01*
G01*
X166521738Y-101940000D01*
G75*
G02*
X166250000Y-101668262I0J271738D01*
G01*
X166250000Y-100961738D01*
G75*
G02*
X166521738Y-100690000I271738J0D01*
G01*
G37*
G36*
G01*
X166521738Y-102740000D02*
X167478262Y-102740000D01*
G75*
G02*
X167750000Y-103011738I0J-271738D01*
G01*
X167750000Y-103718262D01*
G75*
G02*
X167478262Y-103990000I-271738J0D01*
G01*
X166521738Y-103990000D01*
G75*
G02*
X166250000Y-103718262I0J271738D01*
G01*
X166250000Y-103011738D01*
G75*
G02*
X166521738Y-102740000I271738J0D01*
G01*
G37*
%TD*%
%TO.C,R5*%
G36*
G01*
X184330000Y-130538262D02*
X184330000Y-129581738D01*
G75*
G02*
X184601738Y-129310000I271738J0D01*
G01*
X185308262Y-129310000D01*
G75*
G02*
X185580000Y-129581738I0J-271738D01*
G01*
X185580000Y-130538262D01*
G75*
G02*
X185308262Y-130810000I-271738J0D01*
G01*
X184601738Y-130810000D01*
G75*
G02*
X184330000Y-130538262I0J271738D01*
G01*
G37*
G36*
G01*
X186380000Y-130538262D02*
X186380000Y-129581738D01*
G75*
G02*
X186651738Y-129310000I271738J0D01*
G01*
X187358262Y-129310000D01*
G75*
G02*
X187630000Y-129581738I0J-271738D01*
G01*
X187630000Y-130538262D01*
G75*
G02*
X187358262Y-130810000I-271738J0D01*
G01*
X186651738Y-130810000D01*
G75*
G02*
X186380000Y-130538262I0J271738D01*
G01*
G37*
%TD*%
%TO.C,R6*%
G36*
G01*
X153320000Y-133598262D02*
X153320000Y-132641738D01*
G75*
G02*
X153591738Y-132370000I271738J0D01*
G01*
X154298262Y-132370000D01*
G75*
G02*
X154570000Y-132641738I0J-271738D01*
G01*
X154570000Y-133598262D01*
G75*
G02*
X154298262Y-133870000I-271738J0D01*
G01*
X153591738Y-133870000D01*
G75*
G02*
X153320000Y-133598262I0J271738D01*
G01*
G37*
G36*
G01*
X151270000Y-133598262D02*
X151270000Y-132641738D01*
G75*
G02*
X151541738Y-132370000I271738J0D01*
G01*
X152248262Y-132370000D01*
G75*
G02*
X152520000Y-132641738I0J-271738D01*
G01*
X152520000Y-133598262D01*
G75*
G02*
X152248262Y-133870000I-271738J0D01*
G01*
X151541738Y-133870000D01*
G75*
G02*
X151270000Y-133598262I0J271738D01*
G01*
G37*
%TD*%
M02*
