  0
SECTION
  2
HEADER
  9
$ACADVER
  1
AC1014
  9
$HANDSEED
  5
FFFF
  9
$MEASUREMENT
 70
     1
  0
ENDSEC
  0
SECTION
  2
TABLES
  0
TABLE
  2
VPORT
  5
8
330
0
100
AcDbSymbolTable
 70
     4
  0
VPORT
  5
2E
330
8
100
AcDbSymbolTableRecord
100
AcDbViewportTableRecord
  2
*ACTIVE
 70
     0
 10
0.0
 20
0.0
 11
1.0
 21
1.0
 12
210.0
 22
148.5
 13
0.0
 23
0.0
 14
10.0
 24
10.0
 15
10.0
 25
10.0
 16
0.0
 26
0.0
 36
1.0
 17
0.0
 27
0.0
 37
0.0
 40
341.0
 41
1.24
 42
50.0
 43
0.0
 44
0.0
 50
0.0
 51
0.0
 71
     0
 72
   100
 73
     1
 74
     3
 75
     0
 76
     0
 77
     0
 78
     0
  0
ENDTAB
  0
TABLE
  2
LTYPE
  5
5
330
0
100
AcDbSymbolTable
 70
     1
  0
LTYPE
  5
14
330
5
100
AcDbSymbolTableRecord
100
AcDbLinetypeTableRecord
  2
BYBLOCK
 70
     0
  3

 72
    65
 73
     0
 40
0.0
  0
LTYPE
  5
15
330
5
100
AcDbSymbolTableRecord
100
AcDbLinetypeTableRecord
  2
BYLAYER
 70
     0
  3

 72
    65
 73
     0
 40
0.0
  0
LTYPE
  5
16
330
5
100
AcDbSymbolTableRecord
100
AcDbLinetypeTableRecord
  2
CONTINUOUS
 70
     0
  3
Solid line
 72
    65
 73
     0
 40
0.0
  0
ENDTAB
  0
TABLE
  2
LAYER
  5
2
100
AcDbSymbolTable
 70
2
  0
LAYER
  5
50
100
AcDbSymbolTableRecord
100
AcDbLayerTableRecord
  2
0
 70
0
  6
CONTINUOUS
  0
LAYER
  5
51
100
AcDbSymbolTableRecord
100
AcDbLayerTableRecord
  2
Edge
 70
0
  6
CONTINUOUS
  0
ENDTAB
  0
TABLE
  2
STYLE
  5
3
330
0
100
AcDbSymbolTable
 70
     1
  0
STYLE
  5
11
330
3
100
AcDbSymbolTableRecord
100
AcDbTextStyleTableRecord
  2
STANDARD
 70
     0
 40
0.0
 41
1.0
 50
0.0
 71
     0
 42
2.5
  3
txt
  4

  0
ENDTAB
  0
TABLE
  2
VIEW
  5
6
330
0
100
AcDbSymbolTable
 70
     0
  0
ENDTAB
  0
TABLE
  2
UCS
  5
7
330
0
100
AcDbSymbolTable
 70
     0
  0
ENDTAB
  0
TABLE
  2
APPID
  5
9
330
0
100
AcDbSymbolTable
 70
     2
  0
APPID
  5
12
330
9
100
AcDbSymbolTableRecord
100
AcDbRegAppTableRecord
  2
ACAD
 70
     0
  0
ENDTAB
  0
TABLE
  2
DIMSTYLE
  5
A
330
0
100
AcDbSymbolTable
 70
     1
  0
DIMSTYLE
105
27
330
A
100
AcDbSymbolTableRecord
100
AcDbDimStyleTableRecord
  2
ISO-25
 70
     0
  3

  4

  5

  6

  7

 40
1.0
 41
2.5
 42
0.625
 43
3.75
 44
1.25
 45
0.0
 46
0.0
 47
0.0
 48
0.0
140
2.5
141
2.5
142
0.0
143
0.03937007874016
144
1.0
145
0.0
146
1.0
147
0.625
 71
     0
 72
     0
 73
     0
 74
     0
 75
     0
 76
     0
 77
     1
 78
     8
170
     0
171
     3
172
     1
173
     0
174
     0
175
     0
176
     0
177
     0
178
     0
270
     2
271
     2
272
     2
273
     2
274
     3
340
11
275
     0
280
     0
281
     0
282
     0
283
     0
284
     8
285
     0
286
     0
287
     3
288
     0
  0
ENDTAB
  0
TABLE
  2
BLOCK_RECORD
  5
1
330
0
100
AcDbSymbolTable
 70
     1
  0
BLOCK_RECORD
  5
1F
330
1
100
AcDbSymbolTableRecord
100
AcDbBlockTableRecord
  2
*MODEL_SPACE
  0
BLOCK_RECORD
  5
1B
330
1
100
AcDbSymbolTableRecord
100
AcDbBlockTableRecord
  2
*PAPER_SPACE
  0
ENDTAB
  0
ENDSEC
  0
SECTION
  2
BLOCKS
  0
BLOCK
  5
20
330
1F
100
AcDbEntity
  8
0
100
AcDbBlockBegin
  2
*MODEL_SPACE
 70
     0
 10
0.0
 20
0.0
 30
0.0
  3
*MODEL_SPACE
  1

  0
ENDBLK
  5
21
330
1F
100
AcDbEntity
  8
0
100
AcDbBlockEnd
  0
BLOCK
  5
1C
330
1B
100
AcDbEntity
 67
     1
  8
0
100
AcDbBlockBegin
  2
*PAPER_SPACE
  1

  0
ENDBLK
  5
1D
330
1B
100
AcDbEntity
 67
     1
  8
0
100
AcDbBlockEnd
  0
ENDSEC
  0
SECTION
  2
ENTITIES
  0
SPLINE
  5
100
100
AcDbEntity
  8
Edge
 62
7
100
AcDbSpline
 70
8
 71
3
 72
8
 73
4
 74
0
 40
0
 40
0
 40
0
 40
0
 40
1
 40
1
 40
1
 40
1
 10
237.351877
 20
-23.059426
 30
0.0
 10
251.136737
 20
-23.131414
 30
0.0
 10
305.210235
 20
-37.646257
 30
0.0
 10
305.232079
 20
-42.368506
 30
0.0
  0
SPLINE
  5
101
100
AcDbEntity
  8
Edge
 62
7
100
AcDbSpline
 70
8
 71
3
 72
8
 73
4
 74
0
 40
0
 40
0
 40
0
 40
0
 40
1
 40
1
 40
1
 40
1
 10
305.311683
 20
-90.756941
 30
0.0
 10
305.315899
 20
-93.232519
 30
0.0
 10
305.315899
 20
-93.836183
 30
0.0
 10
302.381107
 20
-94.282753
 30
0.0
  0
SPLINE
  5
102
100
AcDbEntity
  8
Edge
 62
7
100
AcDbSpline
 70
8
 71
3
 72
8
 73
4
 74
0
 40
0
 40
0
 40
0
 40
0
 40
1
 40
1
 40
1
 40
1
 10
302.381107
 20
-94.282753
 30
0.0
 10
265.812118
 20
-99.606588
 30
0.0
 10
219.838565
 20
-102.764003
 30
0.0
 10
222.453279
 20
-126.604024
 30
0.0
  0
SPLINE
  5
103
100
AcDbEntity
  8
Edge
 62
7
100
AcDbSpline
 70
8
 71
3
 72
8
 73
4
 74
0
 40
0
 40
0
 40
0
 40
0
 40
1
 40
1
 40
1
 40
1
 10
222.453279
 20
-126.604024
 30
0.0
 10
222.768462
 20
-129.226340
 30
0.0
 10
222.768462
 20
-129.226340
 30
0.0
 10
220.356781
 20
-130.010063
 30
0.0
  0
LWPOLYLINE
  5
104
100
AcDbEntity
  8
Edge
 62
7
100
AcDbPolyline
 90
2
 70
0
 10
305.232079
 20
-42.368506
 30
0.0
 10
305.311683
 20
-90.756941
 30
0.0
  0
SPLINE
  5
105
100
AcDbEntity
  8
Edge
 62
7
100
AcDbSpline
 70
8
 71
3
 72
8
 73
4
 74
0
 40
0
 40
0
 40
0
 40
0
 40
1
 40
1
 40
1
 40
1
 10
205.913144
 20
-134.703787
 30
0.0
 10
204.650642
 20
-135.114060
 30
0.0
 10
204.650642
 20
-135.114060
 30
0.0
 10
203.172217
 20
-135.114060
 30
0.0
  0
SPLINE
  5
106
100
AcDbEntity
  8
Edge
 62
7
100
AcDbSpline
 70
8
 71
3
 72
8
 73
4
 74
0
 40
0
 40
0
 40
0
 40
0
 40
1
 40
1
 40
1
 40
1
 10
203.172217
 20
-135.114060
 30
0.0
 10
177.776584
 20
-135.114086
 30
0.0
 10
149.412632
 20
-135.113984
 30
0.0
 10
126.367687
 20
-135.113959
 30
0.0
  0
SPLINE
  5
107
100
AcDbEntity
  8
Edge
 62
7
100
AcDbSpline
 70
8
 71
3
 72
8
 73
4
 74
0
 40
0
 40
0
 40
0
 40
0
 40
1
 40
1
 40
1
 40
1
 10
126.367687
 20
-135.113959
 30
0.0
 10
124.889260
 20
-135.113959
 30
0.0
 10
124.889260
 20
-135.113959
 30
0.0
 10
123.626758
 20
-134.703685
 30
0.0
  0
LWPOLYLINE
  5
108
100
AcDbEntity
  8
Edge
 62
7
100
AcDbPolyline
 90
2
 70
0
 10
220.356781
 20
-130.010063
 30
0.0
 10
205.913144
 20
-134.703787
 30
0.0
  0
SPLINE
  5
109
100
AcDbEntity
  8
Edge
 62
7
100
AcDbSpline
 70
8
 71
3
 72
8
 73
4
 74
0
 40
0
 40
0
 40
0
 40
0
 40
1
 40
1
 40
1
 40
1
 10
109.183124
 20
-130.009961
 30
0.0
 10
106.771440
 20
-129.226239
 30
0.0
 10
106.771440
 20
-129.226239
 30
0.0
 10
107.086626
 20
-126.603923
 30
0.0
  0
SPLINE
  5
10a
100
AcDbEntity
  8
Edge
 62
7
100
AcDbSpline
 70
8
 71
3
 72
8
 73
4
 74
0
 40
0
 40
0
 40
0
 40
0
 40
1
 40
1
 40
1
 40
1
 10
107.086626
 20
-126.603923
 30
0.0
 10
109.701338
 20
-102.763902
 30
0.0
 10
63.727764
 20
-99.606486
 30
0.0
 10
27.158790
 20
-94.282651
 30
0.0
  0
SPLINE
  5
10b
100
AcDbEntity
  8
Edge
 62
7
100
AcDbSpline
 70
8
 71
3
 72
8
 73
4
 74
0
 40
0
 40
0
 40
0
 40
0
 40
1
 40
1
 40
1
 40
1
 10
27.158790
 20
-94.282651
 30
0.0
 10
24.223980
 20
-93.836079
 30
0.0
 10
24.223980
 20
-93.232417
 30
0.0
 10
24.228197
 20
-90.756837
 30
0.0
  0
LWPOLYLINE
  5
10c
100
AcDbEntity
  8
Edge
 62
7
100
AcDbPolyline
 90
2
 70
0
 10
123.626758
 20
-134.703685
 30
0.0
 10
109.183124
 20
-130.009961
 30
0.0
  0
SPLINE
  5
10d
100
AcDbEntity
  8
Edge
 62
7
100
AcDbSpline
 70
8
 71
3
 72
8
 73
4
 74
0
 40
0
 40
0
 40
0
 40
0
 40
1
 40
1
 40
1
 40
1
 10
24.307801
 20
-42.368401
 30
0.0
 10
24.329643
 20
-37.646153
 30
0.0
 10
78.403163
 20
-23.131310
 30
0.0
 10
92.188025
 20
-23.059321
 30
0.0
  0
SPLINE
  5
10e
100
AcDbEntity
  8
Edge
 62
7
100
AcDbSpline
 70
8
 71
3
 72
8
 73
4
 74
0
 40
0
 40
0
 40
0
 40
0
 40
1
 40
1
 40
1
 40
1
 10
92.188025
 20
-23.059321
 30
0.0
 10
140.575975
 20
-23.059347
 30
0.0
 10
188.963927
 20
-23.059398
 30
0.0
 10
237.351877
 20
-23.059423
 30
0.0
  0
LWPOLYLINE
  5
10f
100
AcDbEntity
  8
Edge
 62
7
100
AcDbPolyline
 90
2
 70
0
 10
24.228197
 20
-90.756837
 30
0.0
 10
24.307801
 20
-42.368401
 30
0.0
  0
LWPOLYLINE
  5
110
100
AcDbEntity
  8
Edge
 62
7
100
AcDbPolyline
 90
1
 70
1
 10
237.351877
 20
-23.059423
 30
0.0
  0
LWPOLYLINE
  5
111
100
AcDbEntity
  8
Edge
 62
7
100
AcDbPolyline
 90
3
 70
0
 10
26.345579
 20
-91.585981
 30
0.0
 10
24.223981
 20
-91.585981
 30
0.0
 10
24.223981
 20
-89.864946
 30
0.0
  0
ENDSEC
  0
SECTION
  2
OBJECTS
  0
DICTIONARY
  5
C
330
0
100
AcDbDictionary
  3
ACAD_GROUP
350
D
  3
ACAD_MLINESTYLE
350
17
  0
DICTIONARY
  5
D
330
C
100
AcDbDictionary
  0
DICTIONARY
  5
1A
330
C
100
AcDbDictionary
  0
DICTIONARY
  5
17
330
C
100
AcDbDictionary
  3
STANDARD
350
18
  0
DICTIONARY
  5
19
330
C
100
AcDbDictionary
  0
ENDSEC
  0
EOF
