<?xml version="1.0" encoding="UTF-8" standalone="no"?>
<svg
   xmlns:dc="http://purl.org/dc/elements/1.1/"
   xmlns:cc="http://creativecommons.org/ns#"
   xmlns:rdf="http://www.w3.org/1999/02/22-rdf-syntax-ns#"
   xmlns:svg="http://www.w3.org/2000/svg"
   xmlns="http://www.w3.org/2000/svg"
   xmlns:sodipodi="http://sodipodi.sourceforge.net/DTD/sodipodi-0.dtd"
   xmlns:inkscape="http://www.inkscape.org/namespaces/inkscape"
   version="1.1"
   width="297mm"
   height="210mm"
   viewBox="0 0 116929.13 82677.163"
   id="svg1306"
   sodipodi:docname="yacc46_plate-bottom.svg"
   inkscape:version="1.0.1 (3bc2e813f5, 2020-09-07)">
  <metadata
     id="metadata1312">
    <rdf:RDF>
      <cc:Work
         rdf:about="">
        <dc:format>image/svg+xml</dc:format>
        <dc:type
           rdf:resource="http://purl.org/dc/dcmitype/StillImage" />
        <dc:title>SVG Picture created as yacc46_plate-brd.svg date 2020/09/18 20:46:19 </dc:title>
      </cc:Work>
    </rdf:RDF>
  </metadata>
  <defs
     id="defs1310" />
  <sodipodi:namedview
     pagecolor="#ffffff"
     bordercolor="#666666"
     borderopacity="1"
     objecttolerance="10"
     gridtolerance="10"
     guidetolerance="10"
     inkscape:pageopacity="0"
     inkscape:pageshadow="2"
     inkscape:window-width="1918"
     inkscape:window-height="1028"
     id="namedview1308"
     showgrid="false"
     inkscape:zoom="1.3347706"
     inkscape:cx="534.52364"
     inkscape:cy="259.46694"
     inkscape:window-x="1913"
     inkscape:window-y="1060"
     inkscape:window-maximized="0"
     inkscape:current-layer="svg1306"
     units="mm"
     inkscape:document-units="mm" />
  <title
     id="title2">SVG Picture created as yacc46_plate-brd.svg date 2020/09/18 20:46:19 </title>
  <desc
     id="desc4">Picture generated by PCBNEW </desc>
  <g
     style="fill:#000000;fill-opacity:1;stroke:#000000;stroke-linecap:round;stroke-linejoin:round;stroke-opacity:1"
     id="g6" />
  <g
     style="fill:#000000;fill-opacity:0;stroke:#000000;stroke-width:-0.000393701;stroke-linecap:round;stroke-linejoin:round;stroke-opacity:1"
     id="g8" />
  <g
     style="fill:#c2c200;fill-opacity:0;stroke:#c2c200;stroke-width:-0.000393701;stroke-linecap:round;stroke-linejoin:round;stroke-opacity:1"
     id="g10" />
  <circle
     cx="89888.953"
     cy="32261.271"
     r="433.07101"
     id="circle28"
     style="fill:#c2c200;fill-opacity:0;stroke:#000000;stroke-width:39.3701;stroke-linecap:round;stroke-linejoin:round;stroke-opacity:1" />
  <circle
     cx="58333.555"
     cy="27371.471"
     r="433.07101"
     id="circle30"
     style="fill:#c2c200;fill-opacity:0;stroke:#000000;stroke-width:39.3701;stroke-linecap:round;stroke-linejoin:round;stroke-opacity:1" />
  <circle
     cx="71243.258"
     cy="45060.473"
     r="433.07101"
     id="circle34"
     style="fill:#c2c200;fill-opacity:0;stroke:#000000;stroke-width:39.3701;stroke-linecap:round;stroke-linejoin:round;stroke-opacity:1" />
  <circle
     cx="89211.758"
     cy="5280.9312"
     r="433.07101"
     id="circle38"
     style="fill:#c2c200;fill-opacity:0;stroke:#000000;stroke-width:39.3701;stroke-linecap:round;stroke-linejoin:round;stroke-opacity:1" />
  <circle
     cx="107569.55"
     cy="9847.8613"
     r="433.07101"
     id="circle40"
     style="fill:#c2c200;fill-opacity:0;stroke:#000000;stroke-width:39.3701;stroke-linecap:round;stroke-linejoin:round;stroke-opacity:1" />
  <circle
     cx="106416.55"
     cy="30013.17"
     r="433.07101"
     id="circle42"
     style="fill:#c2c200;fill-opacity:0;stroke:#000000;stroke-width:39.3701;stroke-linecap:round;stroke-linejoin:round;stroke-opacity:1" />
  <circle
     cx="49364.855"
     cy="5186.4512"
     r="433.07101"
     id="circle44"
     style="fill:#c2c200;fill-opacity:0;stroke:#000000;stroke-width:39.3701;stroke-linecap:round;stroke-linejoin:round;stroke-opacity:1" />
  <circle
     cx="67302.352"
     cy="5186.4512"
     r="433.07101"
     id="circle46"
     style="fill:#c2c200;fill-opacity:0;stroke:#000000;stroke-width:39.3701;stroke-linecap:round;stroke-linejoin:round;stroke-opacity:1" />
  <circle
     cx="27455.354"
     cy="5280.9312"
     r="433.07101"
     id="circle48"
     style="fill:#c2c200;fill-opacity:0;stroke:#000000;stroke-width:39.3701;stroke-linecap:round;stroke-linejoin:round;stroke-opacity:1" />
  <circle
     cx="9116.8232"
     cy="9847.8613"
     r="433.07101"
     id="circle50"
     style="fill:#c2c200;fill-opacity:0;stroke:#000000;stroke-width:39.3701;stroke-linecap:round;stroke-linejoin:round;stroke-opacity:1" />
  <circle
     cx="10250.683"
     cy="30013.17"
     r="433.07101"
     id="circle52"
     style="fill:#c2c200;fill-opacity:0;stroke:#000000;stroke-width:39.3701;stroke-linecap:round;stroke-linejoin:round;stroke-opacity:1" />
  <circle
     cx="26778.252"
     cy="32261.271"
     r="433.07101"
     id="circle54"
     style="fill:#c2c200;fill-opacity:0;stroke:#000000;stroke-width:39.3701;stroke-linecap:round;stroke-linejoin:round;stroke-opacity:1" />
  <circle
     cx="45423.953"
     cy="45060.473"
     r="433.07101"
     id="circle56"
     style="fill:#c2c200;fill-opacity:0;stroke:#000000;stroke-width:39.3701;stroke-linecap:round;stroke-linejoin:round;stroke-opacity:1" />
  <g
     style="fill:#c2c200;fill-opacity:0;stroke:#000000;stroke-width:78.7402;stroke-linecap:round;stroke-linejoin:round;stroke-opacity:1"
     id="g62"
     transform="translate(2965.5532,2809.4714)">
    <path
       d="M 72,7991 V 7641"
       id="path60"
       style="stroke:#000000;stroke-opacity:1"
       sodipodi:nodetypes="cc" />
  </g>
  <g
     style="fill:#c2c200;fill-opacity:0;stroke:#000000;stroke-width:78.7402;stroke-linecap:round;stroke-linejoin:round;stroke-opacity:1"
     id="g666"
     transform="translate(2965.5532,2809.4714)">
    <path
       d="m 83947,39 v 0"
       id="path72"
       style="stroke:#000000;stroke-opacity:1" />
    <path
       d="m 26796,39 h 1786"
       id="path74"
       style="stroke:#000000;stroke-opacity:1" />
    <path
       d="m 28582,39 h 1786"
       id="path76"
       style="stroke:#000000;stroke-opacity:1" />
    <path
       d="m 30368,39 h 1786"
       id="path78"
       style="stroke:#000000;stroke-opacity:1" />
    <path
       d="m 32154,39 h 1786"
       id="path80"
       style="stroke:#000000;stroke-opacity:1" />
    <path
       d="m 33940,39 h 1786"
       id="path82"
       style="stroke:#000000;stroke-opacity:1" />
    <path
       d="m 35726,39 h 1786"
       id="path84"
       style="stroke:#000000;stroke-opacity:1" />
    <path
       d="m 37512,39 h 1786"
       id="path86"
       style="stroke:#000000;stroke-opacity:1" />
    <path
       d="m 39298,39 h 1786"
       id="path88"
       style="stroke:#000000;stroke-opacity:1" />
    <path
       d="m 41084,39 h 1786"
       id="path90"
       style="stroke:#000000;stroke-opacity:1" />
    <path
       d="m 42870,39 h 1786"
       id="path92"
       style="stroke:#000000;stroke-opacity:1" />
    <path
       d="m 44656,39 h 1786"
       id="path94"
       style="stroke:#000000;stroke-opacity:1" />
    <path
       d="m 46442,39 h 1786"
       id="path96"
       style="stroke:#000000;stroke-opacity:1" />
    <path
       d="m 48228,39 h 1786"
       id="path98"
       style="stroke:#000000;stroke-opacity:1" />
    <path
       d="m 50014,39 h 1786"
       id="path100"
       style="stroke:#000000;stroke-opacity:1" />
    <path
       d="m 51800,39 h 1786"
       id="path102"
       style="stroke:#000000;stroke-opacity:1" />
    <path
       d="m 53586,39 h 1786"
       id="path104"
       style="stroke:#000000;stroke-opacity:1" />
    <path
       d="m 55372,39 h 1786"
       id="path106"
       style="stroke:#000000;stroke-opacity:1" />
    <path
       d="m 57158,39 h 1786"
       id="path108"
       style="stroke:#000000;stroke-opacity:1" />
    <path
       d="m 58944,39 h 1786"
       id="path110"
       style="stroke:#000000;stroke-opacity:1" />
    <path
       d="m 60730,39 h 1786"
       id="path112"
       style="stroke:#000000;stroke-opacity:1" />
    <path
       d="m 62516,39 h 1786"
       id="path114"
       style="stroke:#000000;stroke-opacity:1" />
    <path
       d="m 64302,39 h 1786"
       id="path116"
       style="stroke:#000000;stroke-opacity:1" />
    <path
       d="m 66088,39 h 1786"
       id="path118"
       style="stroke:#000000;stroke-opacity:1" />
    <path
       d="m 67874,39 h 1786"
       id="path120"
       style="stroke:#000000;stroke-opacity:1" />
    <path
       d="m 69660,39 h 1786"
       id="path122"
       style="stroke:#000000;stroke-opacity:1" />
    <path
       d="m 71446,39 h 1786"
       id="path124"
       style="stroke:#000000;stroke-opacity:1" />
    <path
       d="m 73232,39 h 1786"
       id="path126"
       style="stroke:#000000;stroke-opacity:1" />
    <path
       d="m 75018,39 h 1786"
       id="path128"
       style="stroke:#000000;stroke-opacity:1" />
    <path
       d="m 76804,39 h 1786"
       id="path130"
       style="stroke:#000000;stroke-opacity:1" />
    <path
       d="m 78590,39 h 1786"
       id="path132"
       style="stroke:#000000;stroke-opacity:1" />
    <path
       d="m 80376,39 h 1786"
       id="path134"
       style="stroke:#000000;stroke-opacity:1" />
    <path
       d="m 82162,39 h 1785"
       id="path136"
       style="stroke:#000000;stroke-opacity:1" />
    <path
       d="m 72,7641 62,-185"
       id="path138"
       style="stroke:#000000;stroke-opacity:1" />
    <path
       d="M 134,7456 314,7249"
       id="path140"
       style="stroke:#000000;stroke-opacity:1" />
    <path
       d="M 314,7249 605,7024"
       id="path142"
       style="stroke:#000000;stroke-opacity:1" />
    <path
       d="m 605,7024 395,-242"
       id="path144"
       style="stroke:#000000;stroke-opacity:1" />
    <path
       d="m 1000,6782 493,-259"
       id="path146"
       style="stroke:#000000;stroke-opacity:1" />
    <path
       d="m 1493,6523 583,-272"
       id="path148"
       style="stroke:#000000;stroke-opacity:1" />
    <path
       d="m 2076,6251 668,-284"
       id="path150"
       style="stroke:#000000;stroke-opacity:1" />
    <path
       d="m 2744,5967 744,-294"
       id="path152"
       style="stroke:#000000;stroke-opacity:1" />
    <path
       d="m 3488,5673 815,-303"
       id="path154"
       style="stroke:#000000;stroke-opacity:1" />
    <path
       d="m 4303,5370 878,-310"
       id="path156"
       style="stroke:#000000;stroke-opacity:1" />
    <path
       d="m 5181,5060 935,-316"
       id="path158"
       style="stroke:#000000;stroke-opacity:1" />
    <path
       d="m 6116,4744 984,-318"
       id="path160"
       style="stroke:#000000;stroke-opacity:1" />
    <path
       d="M 7100,4426 8128,4106"
       id="path162"
       style="stroke:#000000;stroke-opacity:1" />
    <path
       d="M 8128,4106 9192,3786"
       id="path164"
       style="stroke:#000000;stroke-opacity:1" />
    <path
       d="m 9192,3786 1094,-318"
       id="path166"
       style="stroke:#000000;stroke-opacity:1" />
    <path
       d="m 10286,3468 1116,-315"
       id="path168"
       style="stroke:#000000;stroke-opacity:1" />
    <path
       d="m 11402,3153 1132,-309"
       id="path170"
       style="stroke:#000000;stroke-opacity:1" />
    <path
       d="m 12534,2844 1141,-302"
       id="path172"
       style="stroke:#000000;stroke-opacity:1" />
    <path
       d="m 13675,2542 1144,-293"
       id="path174"
       style="stroke:#000000;stroke-opacity:1" />
    <path
       d="m 14819,2249 1139,-283"
       id="path176"
       style="stroke:#000000;stroke-opacity:1" />
    <path
       d="m 15958,1966 1127,-270"
       id="path178"
       style="stroke:#000000;stroke-opacity:1" />
    <path
       d="m 17085,1696 1110,-256"
       id="path180"
       style="stroke:#000000;stroke-opacity:1" />
    <path
       d="m 18195,1440 1085,-240"
       id="path182"
       style="stroke:#000000;stroke-opacity:1" />
    <path
       d="M 19280,1200 20332,977"
       id="path184"
       style="stroke:#000000;stroke-opacity:1" />
    <path
       d="M 20332,977 21347,774"
       id="path186"
       style="stroke:#000000;stroke-opacity:1" />
    <path
       d="m 21347,774 969,-182"
       id="path188"
       style="stroke:#000000;stroke-opacity:1" />
    <path
       d="m 22316,592 916,-160"
       id="path190"
       style="stroke:#000000;stroke-opacity:1" />
    <path
       d="m 23232,432 858,-135"
       id="path192"
       style="stroke:#000000;stroke-opacity:1" />
    <path
       d="m 24090,297 792,-108"
       id="path194"
       style="stroke:#000000;stroke-opacity:1" />
    <path
       d="m 24882,189 720,-81"
       id="path196"
       style="stroke:#000000;stroke-opacity:1" />
    <path
       d="m 25602,108 640,-50"
       id="path198"
       style="stroke:#000000;stroke-opacity:1" />
    <path
       d="m 26242,58 554,-19"
       id="path200"
       style="stroke:#000000;stroke-opacity:1" />
    <path
       d="m 77257,42145 -5687,1848"
       id="path202"
       style="stroke:#000000;stroke-opacity:1" />
    <path
       d="M 39174,43993 33487,42145"
       id="path204"
       style="stroke:#000000;stroke-opacity:1" />
    <path
       d="m 32662,40804 41,-856"
       id="path206"
       style="stroke:#000000;stroke-opacity:1" />
    <path
       d="m 32703,39948 -67,-810"
       id="path208"
       style="stroke:#000000;stroke-opacity:1" />
    <path
       d="m 32636,39138 -170,-766"
       id="path210"
       style="stroke:#000000;stroke-opacity:1" />
    <path
       d="m 32466,38372 -270,-723"
       id="path212"
       style="stroke:#000000;stroke-opacity:1" />
    <path
       d="m 32196,37649 -365,-682"
       id="path214"
       style="stroke:#000000;stroke-opacity:1" />
    <path
       d="m 31831,36967 -457,-643"
       id="path216"
       style="stroke:#000000;stroke-opacity:1" />
    <path
       d="m 31374,36324 -544,-604"
       id="path218"
       style="stroke:#000000;stroke-opacity:1" />
    <path
       d="m 30830,35720 -626,-569"
       id="path220"
       style="stroke:#000000;stroke-opacity:1" />
    <path
       d="m 30204,35151 -705,-534"
       id="path222"
       style="stroke:#000000;stroke-opacity:1" />
    <path
       d="m 29499,34617 -779,-501"
       id="path224"
       style="stroke:#000000;stroke-opacity:1" />
    <path
       d="m 28720,34116 -850,-470"
       id="path226"
       style="stroke:#000000;stroke-opacity:1" />
    <path
       d="m 27870,33646 -916,-440"
       id="path228"
       style="stroke:#000000;stroke-opacity:1" />
    <path
       d="m 26954,33206 -978,-412"
       id="path230"
       style="stroke:#000000;stroke-opacity:1" />
    <path
       d="m 25976,32794 -1035,-386"
       id="path232"
       style="stroke:#000000;stroke-opacity:1" />
    <path
       d="m 24941,32408 -1089,-361"
       id="path234"
       style="stroke:#000000;stroke-opacity:1" />
    <path
       d="m 23852,32047 -1139,-339"
       id="path236"
       style="stroke:#000000;stroke-opacity:1" />
    <path
       d="m 22713,31708 -1184,-317"
       id="path238"
       style="stroke:#000000;stroke-opacity:1" />
    <path
       d="m 21529,31391 -1224,-297"
       id="path240"
       style="stroke:#000000;stroke-opacity:1" />
    <path
       d="m 20305,31094 -1262,-279"
       id="path242"
       style="stroke:#000000;stroke-opacity:1" />
    <path
       d="m 19043,30815 -1294,-263"
       id="path244"
       style="stroke:#000000;stroke-opacity:1" />
    <path
       d="m 17749,30552 -1322,-248"
       id="path246"
       style="stroke:#000000;stroke-opacity:1" />
    <path
       d="m 16427,30304 -1347,-235"
       id="path248"
       style="stroke:#000000;stroke-opacity:1" />
    <path
       d="m 15080,30069 -1367,-223"
       id="path250"
       style="stroke:#000000;stroke-opacity:1" />
    <path
       d="m 13713,29846 -1383,-214"
       id="path252"
       style="stroke:#000000;stroke-opacity:1" />
    <path
       d="m 12330,29632 -1395,-205"
       id="path254"
       style="stroke:#000000;stroke-opacity:1" />
    <path
       d="M 10935,29427 9533,29228"
       id="path256"
       style="stroke:#000000;stroke-opacity:1" />
    <path
       d="M 9533,29228 8127,29034"
       id="path258"
       style="stroke:#000000;stroke-opacity:1" />
    <path
       d="M 8127,29034 6722,28843"
       id="path260"
       style="stroke:#000000;stroke-opacity:1" />
    <path
       d="M 6722,28843 5322,28654"
       id="path262"
       style="stroke:#000000;stroke-opacity:1" />
    <path
       d="M 5322,28654 3932,28465"
       id="path264"
       style="stroke:#000000;stroke-opacity:1" />
    <path
       d="M 3932,28465 2554,28274"
       id="path266"
       style="stroke:#000000;stroke-opacity:1" />
    <path
       d="M 2554,28274 1194,28080"
       id="path268"
       style="stroke:#000000;stroke-opacity:1" />
    <path
       d="m 109550,28080 -1360,194"
       id="path270"
       style="stroke:#000000;stroke-opacity:1" />
    <path
       d="m 108190,28274 -1378,191"
       id="path272"
       style="stroke:#000000;stroke-opacity:1" />
    <path
       d="m 106812,28465 -1390,189"
       id="path274"
       style="stroke:#000000;stroke-opacity:1" />
    <path
       d="m 105422,28654 -1400,189"
       id="path276"
       style="stroke:#000000;stroke-opacity:1" />
    <path
       d="m 104022,28843 -1405,191"
       id="path278"
       style="stroke:#000000;stroke-opacity:1" />
    <path
       d="m 102617,29034 -1406,194"
       id="path280"
       style="stroke:#000000;stroke-opacity:1" />
    <path
       d="m 101211,29228 -1402,199"
       id="path282"
       style="stroke:#000000;stroke-opacity:1" />
    <path
       d="m 99809,29427 -1395,205"
       id="path284"
       style="stroke:#000000;stroke-opacity:1" />
    <path
       d="m 98414,29632 -1383,214"
       id="path286"
       style="stroke:#000000;stroke-opacity:1" />
    <path
       d="m 97031,29846 -1367,223"
       id="path288"
       style="stroke:#000000;stroke-opacity:1" />
    <path
       d="m 95664,30069 -1347,235"
       id="path290"
       style="stroke:#000000;stroke-opacity:1" />
    <path
       d="m 94317,30304 -1322,248"
       id="path292"
       style="stroke:#000000;stroke-opacity:1" />
    <path
       d="m 92995,30552 -1294,263"
       id="path294"
       style="stroke:#000000;stroke-opacity:1" />
    <path
       d="m 91701,30815 -1262,279"
       id="path296"
       style="stroke:#000000;stroke-opacity:1" />
    <path
       d="m 90439,31094 -1225,297"
       id="path298"
       style="stroke:#000000;stroke-opacity:1" />
    <path
       d="m 89214,31391 -1183,317"
       id="path300"
       style="stroke:#000000;stroke-opacity:1" />
    <path
       d="m 88031,31708 -1139,339"
       id="path302"
       style="stroke:#000000;stroke-opacity:1" />
    <path
       d="m 86892,32047 -1089,361"
       id="path304"
       style="stroke:#000000;stroke-opacity:1" />
    <path
       d="m 85803,32408 -1035,386"
       id="path306"
       style="stroke:#000000;stroke-opacity:1" />
    <path
       d="m 84768,32794 -978,412"
       id="path308"
       style="stroke:#000000;stroke-opacity:1" />
    <path
       d="m 83790,33206 -916,441"
       id="path310"
       style="stroke:#000000;stroke-opacity:1" />
    <path
       d="m 82874,33647 -850,469"
       id="path312"
       style="stroke:#000000;stroke-opacity:1" />
    <path
       d="m 82024,34116 -779,501"
       id="path314"
       style="stroke:#000000;stroke-opacity:1" />
    <path
       d="m 81245,34617 -705,534"
       id="path316"
       style="stroke:#000000;stroke-opacity:1" />
    <path
       d="m 80540,35151 -627,569"
       id="path318"
       style="stroke:#000000;stroke-opacity:1" />
    <path
       d="m 79913,35720 -543,604"
       id="path320"
       style="stroke:#000000;stroke-opacity:1" />
    <path
       d="m 79370,36324 -457,643"
       id="path322"
       style="stroke:#000000;stroke-opacity:1" />
    <path
       d="m 78913,36967 -365,682"
       id="path324"
       style="stroke:#000000;stroke-opacity:1" />
    <path
       d="m 78548,37649 -270,723"
       id="path326"
       style="stroke:#000000;stroke-opacity:1" />
    <path
       d="m 78278,38372 -171,766"
       id="path328"
       style="stroke:#000000;stroke-opacity:1" />
    <path
       d="m 78107,39138 -66,810"
       id="path330"
       style="stroke:#000000;stroke-opacity:1" />
    <path
       d="m 78041,39948 41,857"
       id="path332"
       style="stroke:#000000;stroke-opacity:1" />
    <path
       d="m 110703,26691 v 90"
       id="path334"
       style="stroke:#000000;stroke-opacity:1" />
    <path
       d="m 110703,26781 v 85"
       id="path336"
       style="stroke:#000000;stroke-opacity:1" />
    <path
       d="m 110703,26866 v 81"
       id="path338"
       style="stroke:#000000;stroke-opacity:1" />
    <path
       d="m 110703,26947 -3,150"
       id="path340"
       style="stroke:#000000;stroke-opacity:1" />
    <path
       d="m 110700,27097 -8,135"
       id="path342"
       style="stroke:#000000;stroke-opacity:1" />
    <path
       d="m 110692,27232 -13,122"
       id="path344"
       style="stroke:#000000;stroke-opacity:1" />
    <path
       d="m 110679,27354 -21,109"
       id="path346"
       style="stroke:#000000;stroke-opacity:1" />
    <path
       d="m 110658,27463 -31,97"
       id="path348"
       style="stroke:#000000;stroke-opacity:1" />
    <path
       d="m 110627,27560 -41,86"
       id="path350"
       style="stroke:#000000;stroke-opacity:1" />
    <path
       d="m 110586,27646 -54,76"
       id="path352"
       style="stroke:#000000;stroke-opacity:1" />
    <path
       d="m 110532,27722 -69,67"
       id="path354"
       style="stroke:#000000;stroke-opacity:1" />
    <path
       d="m 110463,27789 -85,60"
       id="path356"
       style="stroke:#000000;stroke-opacity:1" />
    <path
       d="m 110378,27849 -102,53"
       id="path358"
       style="stroke:#000000;stroke-opacity:1" />
    <path
       d="m 110276,27902 -122,46"
       id="path360"
       style="stroke:#000000;stroke-opacity:1" />
    <path
       d="m 110154,27948 -143,42"
       id="path362"
       style="stroke:#000000;stroke-opacity:1" />
    <path
       d="m 110011,27990 -80,19"
       id="path364"
       style="stroke:#000000;stroke-opacity:1" />
    <path
       d="m 109931,28009 -86,19"
       id="path366"
       style="stroke:#000000;stroke-opacity:1" />
    <path
       d="m 109845,28028 -92,18"
       id="path368"
       style="stroke:#000000;stroke-opacity:1" />
    <path
       d="m 109753,28046 -98,17"
       id="path370"
       style="stroke:#000000;stroke-opacity:1" />
    <path
       d="m 109655,28063 -105,17"
       id="path372"
       style="stroke:#000000;stroke-opacity:1" />
    <path
       d="m 83947,39 555,19"
       id="path374"
       style="stroke:#000000;stroke-opacity:1" />
    <path
       d="m 84502,58 640,51"
       id="path376"
       style="stroke:#000000;stroke-opacity:1" />
    <path
       d="m 85142,109 719,80"
       id="path378"
       style="stroke:#000000;stroke-opacity:1" />
    <path
       d="m 85861,189 793,108"
       id="path380"
       style="stroke:#000000;stroke-opacity:1" />
    <path
       d="m 86654,297 858,135"
       id="path382"
       style="stroke:#000000;stroke-opacity:1" />
    <path
       d="m 87512,432 916,160"
       id="path384"
       style="stroke:#000000;stroke-opacity:1" />
    <path
       d="m 88428,592 969,182"
       id="path386"
       style="stroke:#000000;stroke-opacity:1" />
    <path
       d="m 89397,774 1015,203"
       id="path388"
       style="stroke:#000000;stroke-opacity:1" />
    <path
       d="m 90412,977 1052,223"
       id="path390"
       style="stroke:#000000;stroke-opacity:1" />
    <path
       d="m 91464,1200 1085,240"
       id="path392"
       style="stroke:#000000;stroke-opacity:1" />
    <path
       d="m 92549,1440 1109,256"
       id="path394"
       style="stroke:#000000;stroke-opacity:1" />
    <path
       d="m 93658,1696 1128,270"
       id="path396"
       style="stroke:#000000;stroke-opacity:1" />
    <path
       d="m 94786,1966 1139,283"
       id="path398"
       style="stroke:#000000;stroke-opacity:1" />
    <path
       d="m 95925,2249 1143,293"
       id="path400"
       style="stroke:#000000;stroke-opacity:1" />
    <path
       d="m 97068,2542 1142,302"
       id="path402"
       style="stroke:#000000;stroke-opacity:1" />
    <path
       d="m 98210,2844 1132,309"
       id="path404"
       style="stroke:#000000;stroke-opacity:1" />
    <path
       d="m 99342,3153 1116,315"
       id="path406"
       style="stroke:#000000;stroke-opacity:1" />
    <path
       d="m 100458,3468 1093,318"
       id="path408"
       style="stroke:#000000;stroke-opacity:1" />
    <path
       d="m 101551,3786 1065,320"
       id="path410"
       style="stroke:#000000;stroke-opacity:1" />
    <path
       d="m 102616,4106 1027,320"
       id="path412"
       style="stroke:#000000;stroke-opacity:1" />
    <path
       d="m 103643,4426 985,319"
       id="path414"
       style="stroke:#000000;stroke-opacity:1" />
    <path
       d="m 104628,4745 935,315"
       id="path416"
       style="stroke:#000000;stroke-opacity:1" />
    <path
       d="m 105563,5060 878,310"
       id="path418"
       style="stroke:#000000;stroke-opacity:1" />
    <path
       d="m 106441,5370 815,303"
       id="path420"
       style="stroke:#000000;stroke-opacity:1" />
    <path
       d="m 107256,5673 744,294"
       id="path422"
       style="stroke:#000000;stroke-opacity:1" />
    <path
       d="m 108000,5967 668,284"
       id="path424"
       style="stroke:#000000;stroke-opacity:1" />
    <path
       d="m 108668,6251 583,272"
       id="path426"
       style="stroke:#000000;stroke-opacity:1" />
    <path
       d="m 109251,6523 493,259"
       id="path428"
       style="stroke:#000000;stroke-opacity:1" />
    <path
       d="m 109744,6782 395,242"
       id="path430"
       style="stroke:#000000;stroke-opacity:1" />
    <path
       d="m 110139,7024 291,225"
       id="path432"
       style="stroke:#000000;stroke-opacity:1" />
    <path
       d="m 110430,7249 180,207"
       id="path434"
       style="stroke:#000000;stroke-opacity:1" />
    <path
       d="m 110610,7456 62,185"
       id="path436"
       style="stroke:#000000;stroke-opacity:1" />
    <path
       d="m 33487,42145 -86,-28"
       id="path438"
       style="stroke:#000000;stroke-opacity:1" />
    <path
       d="m 33401,42117 -81,-26"
       id="path440"
       style="stroke:#000000;stroke-opacity:1" />
    <path
       d="m 33320,42091 -75,-25"
       id="path442"
       style="stroke:#000000;stroke-opacity:1" />
    <path
       d="m 33245,42066 -136,-48"
       id="path444"
       style="stroke:#000000;stroke-opacity:1" />
    <path
       d="m 33109,42018 -117,-45"
       id="path446"
       style="stroke:#000000;stroke-opacity:1" />
    <path
       d="m 32992,41973 -99,-45"
       id="path448"
       style="stroke:#000000;stroke-opacity:1" />
    <path
       d="m 32893,41928 -82,-46"
       id="path450"
       style="stroke:#000000;stroke-opacity:1" />
    <path
       d="m 32811,41882 -66,-50"
       id="path452"
       style="stroke:#000000;stroke-opacity:1" />
    <path
       d="m 32745,41832 -73,-86"
       id="path454"
       style="stroke:#000000;stroke-opacity:1" />
    <path
       d="m 32672,41746 -44,-105"
       id="path456"
       style="stroke:#000000;stroke-opacity:1" />
    <path
       d="m 32628,41641 -16,-83"
       id="path458"
       style="stroke:#000000;stroke-opacity:1" />
    <path
       d="m 32612,41558 -7,-98"
       id="path460"
       style="stroke:#000000;stroke-opacity:1" />
    <path
       d="m 32605,41460 2,-112"
       id="path462"
       style="stroke:#000000;stroke-opacity:1" />
    <path
       d="m 32607,41348 9,-130"
       id="path464"
       style="stroke:#000000;stroke-opacity:1" />
    <path
       d="m 32616,41218 15,-149"
       id="path466"
       style="stroke:#000000;stroke-opacity:1" />
    <path
       d="m 32631,41069 9,-83"
       id="path468"
       style="stroke:#000000;stroke-opacity:1" />
    <path
       d="m 32640,40986 11,-88"
       id="path470"
       style="stroke:#000000;stroke-opacity:1" />
    <path
       d="m 32651,40898 11,-94"
       id="path472"
       style="stroke:#000000;stroke-opacity:1" />
    <path
       d="m 71570,43993 -88,29"
       id="path474"
       style="stroke:#000000;stroke-opacity:1" />
    <path
       d="m 71482,44022 -77,25"
       id="path476"
       style="stroke:#000000;stroke-opacity:1" />
    <path
       d="m 71405,44047 -101,31"
       id="path478"
       style="stroke:#000000;stroke-opacity:1" />
    <path
       d="m 71304,44078 -87,24"
       id="path480"
       style="stroke:#000000;stroke-opacity:1" />
    <path
       d="m 71217,44102 -79,19"
       id="path482"
       style="stroke:#000000;stroke-opacity:1" />
    <path
       d="m 71138,44121 -101,17"
       id="path484"
       style="stroke:#000000;stroke-opacity:1" />
    <path
       d="m 71037,44138 -80,8"
       id="path486"
       style="stroke:#000000;stroke-opacity:1" />
    <path
       d="m 70957,44146 -89,5"
       id="path488"
       style="stroke:#000000;stroke-opacity:1" />
    <path
       d="m 70868,44151 -104,3"
       id="path490"
       style="stroke:#000000;stroke-opacity:1" />
    <path
       d="m 70764,44154 -80,1"
       id="path492"
       style="stroke:#000000;stroke-opacity:1" />
    <path
       d="m 70684,44155 h -90"
       id="path494"
       style="stroke:#000000;stroke-opacity:1" />
    <path
       d="m 70594,44155 h -103"
       id="path496"
       style="stroke:#000000;stroke-opacity:1" />
    <path
       d="m 78082,40805 11,93"
       id="path498"
       style="stroke:#000000;stroke-opacity:1" />
    <path
       d="m 78093,40898 11,88"
       id="path500"
       style="stroke:#000000;stroke-opacity:1" />
    <path
       d="m 78104,40986 9,83"
       id="path502"
       style="stroke:#000000;stroke-opacity:1" />
    <path
       d="m 78113,41069 15,149"
       id="path504"
       style="stroke:#000000;stroke-opacity:1" />
    <path
       d="m 78128,41218 9,130"
       id="path506"
       style="stroke:#000000;stroke-opacity:1" />
    <path
       d="m 78137,41348 2,112"
       id="path508"
       style="stroke:#000000;stroke-opacity:1" />
    <path
       d="m 78139,41460 -7,98"
       id="path510"
       style="stroke:#000000;stroke-opacity:1" />
    <path
       d="m 78132,41558 -16,83"
       id="path512"
       style="stroke:#000000;stroke-opacity:1" />
    <path
       d="m 78116,41641 -44,105"
       id="path514"
       style="stroke:#000000;stroke-opacity:1" />
    <path
       d="m 78072,41746 -73,86"
       id="path516"
       style="stroke:#000000;stroke-opacity:1" />
    <path
       d="m 77999,41832 -66,50"
       id="path518"
       style="stroke:#000000;stroke-opacity:1" />
    <path
       d="m 77933,41882 -82,47"
       id="path520"
       style="stroke:#000000;stroke-opacity:1" />
    <path
       d="m 77851,41929 -99,44"
       id="path522"
       style="stroke:#000000;stroke-opacity:1" />
    <path
       d="m 77752,41973 -117,45"
       id="path524"
       style="stroke:#000000;stroke-opacity:1" />
    <path
       d="m 77635,42018 -136,48"
       id="path526"
       style="stroke:#000000;stroke-opacity:1" />
    <path
       d="m 77499,42066 -75,25"
       id="path528"
       style="stroke:#000000;stroke-opacity:1" />
    <path
       d="m 77424,42091 -81,26"
       id="path530"
       style="stroke:#000000;stroke-opacity:1" />
    <path
       d="m 77343,42117 -86,28"
       id="path532"
       style="stroke:#000000;stroke-opacity:1" />
    <path
       d="m 1194,28080 -105,-17"
       id="path534"
       style="stroke:#000000;stroke-opacity:1" />
    <path
       d="m 1089,28063 -98,-17"
       id="path536"
       style="stroke:#000000;stroke-opacity:1" />
    <path
       d="m 991,28046 -92,-18"
       id="path538"
       style="stroke:#000000;stroke-opacity:1" />
    <path
       d="m 899,28028 -86,-19"
       id="path540"
       style="stroke:#000000;stroke-opacity:1" />
    <path
       d="m 813,28009 -80,-19"
       id="path542"
       style="stroke:#000000;stroke-opacity:1" />
    <path
       d="m 733,27990 -143,-42"
       id="path544"
       style="stroke:#000000;stroke-opacity:1" />
    <path
       d="m 590,27948 -122,-46"
       id="path546"
       style="stroke:#000000;stroke-opacity:1" />
    <path
       d="m 468,27902 -103,-53"
       id="path548"
       style="stroke:#000000;stroke-opacity:1" />
    <path
       d="m 365,27849 -84,-60"
       id="path550"
       style="stroke:#000000;stroke-opacity:1" />
    <path
       d="m 281,27789 -69,-67"
       id="path552"
       style="stroke:#000000;stroke-opacity:1" />
    <path
       d="m 212,27722 -54,-76"
       id="path554"
       style="stroke:#000000;stroke-opacity:1" />
    <path
       d="m 158,27646 -41,-86"
       id="path556"
       style="stroke:#000000;stroke-opacity:1" />
    <path
       d="m 117,27560 -31,-97"
       id="path558"
       style="stroke:#000000;stroke-opacity:1" />
    <path
       d="M 86,27463 65,27354"
       id="path560"
       style="stroke:#000000;stroke-opacity:1" />
    <path
       d="M 65,27354 52,27232"
       id="path562"
       style="stroke:#000000;stroke-opacity:1" />
    <path
       d="m 52,27232 -8,-135"
       id="path564"
       style="stroke:#000000;stroke-opacity:1" />
    <path
       d="m 44,27097 -3,-150"
       id="path566"
       style="stroke:#000000;stroke-opacity:1" />
    <path
       d="m 41,26947 v -81"
       id="path568"
       style="stroke:#000000;stroke-opacity:1" />
    <path
       d="m 41,26866 -1,-85"
       id="path570"
       style="stroke:#000000;stroke-opacity:1" />
    <path
       d="m 40,26781 1,-90"
       id="path572"
       style="stroke:#000000;stroke-opacity:1" />
    <path
       d="m 40253,44155 h -103"
       id="path574"
       style="stroke:#000000;stroke-opacity:1" />
    <path
       d="m 40150,44155 h -90"
       id="path576"
       style="stroke:#000000;stroke-opacity:1" />
    <path
       d="m 40060,44155 -80,-1"
       id="path578"
       style="stroke:#000000;stroke-opacity:1" />
    <path
       d="m 39980,44154 -104,-3"
       id="path580"
       style="stroke:#000000;stroke-opacity:1" />
    <path
       d="m 39876,44151 -89,-5"
       id="path582"
       style="stroke:#000000;stroke-opacity:1" />
    <path
       d="m 39787,44146 -80,-8"
       id="path584"
       style="stroke:#000000;stroke-opacity:1" />
    <path
       d="m 39707,44138 -101,-17"
       id="path586"
       style="stroke:#000000;stroke-opacity:1" />
    <path
       d="m 39606,44121 -79,-19"
       id="path588"
       style="stroke:#000000;stroke-opacity:1" />
    <path
       d="m 39527,44102 -87,-24"
       id="path590"
       style="stroke:#000000;stroke-opacity:1" />
    <path
       d="m 39440,44078 -101,-31"
       id="path592"
       style="stroke:#000000;stroke-opacity:1" />
    <path
       d="m 39339,44047 -78,-25"
       id="path594"
       style="stroke:#000000;stroke-opacity:1" />
    <path
       d="m 39261,44022 -87,-29"
       id="path596"
       style="stroke:#000000;stroke-opacity:1" />
    <path
       d="m 70491,44155 h -941"
       id="path598"
       style="stroke:#000000;stroke-opacity:1" />
    <path
       d="m 69550,44155 h -947"
       id="path600"
       style="stroke:#000000;stroke-opacity:1" />
    <path
       d="m 68603,44155 h -952"
       id="path602"
       style="stroke:#000000;stroke-opacity:1" />
    <path
       d="m 67651,44155 h -958"
       id="path604"
       style="stroke:#000000;stroke-opacity:1" />
    <path
       d="m 66693,44155 h -962"
       id="path606"
       style="stroke:#000000;stroke-opacity:1" />
    <path
       d="m 65731,44155 h -966"
       id="path608"
       style="stroke:#000000;stroke-opacity:1" />
    <path
       d="m 64765,44155 h -969"
       id="path610"
       style="stroke:#000000;stroke-opacity:1" />
    <path
       d="m 63796,44155 h -972"
       id="path612"
       style="stroke:#000000;stroke-opacity:1" />
    <path
       d="m 62824,44155 h -974"
       id="path614"
       style="stroke:#000000;stroke-opacity:1" />
    <path
       d="m 61850,44155 h -975"
       id="path616"
       style="stroke:#000000;stroke-opacity:1" />
    <path
       d="m 60875,44155 h -977"
       id="path618"
       style="stroke:#000000;stroke-opacity:1" />
    <path
       d="m 59898,44155 h -976"
       id="path620"
       style="stroke:#000000;stroke-opacity:1" />
    <path
       d="m 58922,44155 h -976"
       id="path622"
       style="stroke:#000000;stroke-opacity:1" />
    <path
       d="m 57946,44155 h -976"
       id="path624"
       style="stroke:#000000;stroke-opacity:1" />
    <path
       d="m 56970,44155 h -973"
       id="path626"
       style="stroke:#000000;stroke-opacity:1" />
    <path
       d="m 55997,44155 h -972"
       id="path628"
       style="stroke:#000000;stroke-opacity:1" />
    <path
       d="m 55025,44155 h -969"
       id="path630"
       style="stroke:#000000;stroke-opacity:1" />
    <path
       d="m 54056,44155 h -966"
       id="path632"
       style="stroke:#000000;stroke-opacity:1" />
    <path
       d="m 53090,44155 h -962"
       id="path634"
       style="stroke:#000000;stroke-opacity:1" />
    <path
       d="m 52128,44155 h -957"
       id="path636"
       style="stroke:#000000;stroke-opacity:1" />
    <path
       d="m 51171,44155 h -952"
       id="path638"
       style="stroke:#000000;stroke-opacity:1" />
    <path
       d="m 50219,44155 h -946"
       id="path640"
       style="stroke:#000000;stroke-opacity:1" />
    <path
       d="m 49273,44155 h -941"
       id="path642"
       style="stroke:#000000;stroke-opacity:1" />
    <path
       d="m 48332,44155 h -933"
       id="path644"
       style="stroke:#000000;stroke-opacity:1" />
    <path
       d="m 47399,44155 h -926"
       id="path646"
       style="stroke:#000000;stroke-opacity:1" />
    <path
       d="m 46473,44155 h -917"
       id="path648"
       style="stroke:#000000;stroke-opacity:1" />
    <path
       d="m 45556,44155 h -909"
       id="path650"
       style="stroke:#000000;stroke-opacity:1" />
    <path
       d="m 44647,44155 h -900"
       id="path652"
       style="stroke:#000000;stroke-opacity:1" />
    <path
       d="m 43747,44155 h -890"
       id="path654"
       style="stroke:#000000;stroke-opacity:1" />
    <path
       d="m 42857,44155 h -879"
       id="path656"
       style="stroke:#000000;stroke-opacity:1" />
    <path
       d="m 41978,44155 h -868"
       id="path658"
       style="stroke:#000000;stroke-opacity:1" />
    <path
       d="m 41110,44155 h -857"
       id="path660"
       style="stroke:#000000;stroke-opacity:1" />
    <path
       d="m 110672,7641 31,19050"
       id="path662"
       style="stroke:#000000;stroke-opacity:1" />
    <path
       d="M 41,26691 72,7991"
       id="path664"
       style="stroke:#000000;stroke-opacity:1"
       sodipodi:nodetypes="cc" />
  </g>
</svg>
